<?xml version="1.0" encoding="UTF-8" standalone="no"?>
<!-- Created with Inkscape (http://www.inkscape.org/) -->

<svg
   width="20.32mm"
   height="128.5mm"
   viewBox="0 0 20.32 128.5"
   version="1.1"
   id="svg470"
   inkscape:version="1.2.2 (b0a8486, 2022-12-01)"
   sodipodi:docname="ChaosMaps.svg"
   xmlns:inkscape="http://www.inkscape.org/namespaces/inkscape"
   xmlns:sodipodi="http://sodipodi.sourceforge.net/DTD/sodipodi-0.dtd"
   xmlns="http://www.w3.org/2000/svg"
   xmlns:svg="http://www.w3.org/2000/svg">
  <sodipodi:namedview
     id="namedview472"
     pagecolor="#ffffff"
     bordercolor="#666666"
     borderopacity="1.0"
     inkscape:pageshadow="2"
     inkscape:pageopacity="1"
     inkscape:pagecheckerboard="false"
     inkscape:document-units="mm"
     showgrid="true"
     width="40.64mm"
     inkscape:zoom="1.8766276"
     inkscape:cx="-116.16583"
     inkscape:cy="246.45273"
     inkscape:window-width="1920"
     inkscape:window-height="1019"
     inkscape:window-x="0"
     inkscape:window-y="0"
     inkscape:window-maximized="1"
     inkscape:current-layer="layer1"
     objecttolerance="20"
     guidetolerance="10000"
     showguides="true"
     inkscape:showpageshadow="2"
     inkscape:deskcolor="#d1d1d1"
     showborder="true"
     borderlayer="false">
    <inkscape:grid
       type="xygrid"
       id="grid1902"
       units="mm"
       dotted="false"
       originx="0"
       originy="0"
       spacingx="1"
       spacingy="1"
       snapvisiblegridlinesonly="false"
       visible="true"
       empspacing="10" />
  </sodipodi:namedview>
  <defs
     id="defs467" />
  <g
     inkscape:label="panel"
     inkscape:groupmode="layer"
     id="layer1"
     style="display:inline">
    <rect
       style="display:inline;fill:#b6b6b6;fill-opacity:1;stroke-width:0;stroke-dasharray:none"
       id="rect981"
       width="20.32"
       height="128.5"
       x="0"
       y="-5.5511151e-17" />
    <path
       style="fill:#000000;fill-opacity:1;stroke:#000000;stroke-width:0.25;stroke-linecap:butt;stroke-linejoin:miter;stroke-dasharray:none;stroke-opacity:1"
       d="M 20.32,90.125 C 0,90.125 0,90.125 0,90.125"
       id="path433" />
    <path
       style="display:inline;fill:#000000;fill-opacity:1;stroke-width:0.256427"
       d="m 0.020909,128.11321 c -0.01947,-0.43943 0.0037,-0.47061 0.338397,-0.45465 0.29635,0.0141 0.309141,0.0266 0.073,0.0707 -0.208021,0.0389 -0.300546,0.16322 -0.338397,0.45465 -0.05005,0.38539 -0.05291,0.38261 -0.073,-0.0707 z m 0.719441,0.18872 c 0.04399,-0.16811 0.174006,-0.28307 0.320145,-0.28307 0.135341,0 0.246076,-0.0566 0.246076,-0.12582 0,-0.0692 -0.07961,-0.1258 -0.176908,-0.1258 -0.0973,0 -0.333881,-0.14008 -0.525738,-0.31128 -0.191858,-0.17122 -0.376831,-0.31276 -0.411051,-0.31454 -0.03422,-0.002 -0.06222,-0.0315 -0.06222,-0.0661 v -0.15049 c 0,-0.0482 0.191086,0.0854 0.424635,0.29669 0.28677,0.25952 0.791418,0.49218 1.554347,0.71662 1.36393,0.40126 1.538638,0.41059 1.512834,0.0808 -0.01413,-0.18064 -0.08531,-0.23154 -0.252371,-0.18048 -0.182251,0.0557 -0.213404,0.0216 -0.143719,-0.15728 0.078,-0.20023 0.06198,-0.20727 -0.129815,-0.0571 -0.286281,0.22419 -0.63244,0.0963 -0.535887,-0.19802 0.07007,-0.21359 0.06429,-0.21383 -0.114599,-0.005 -0.240669,0.28125 -0.355568,0.27936 -0.355568,-0.006 0,-0.16456 0.0977,-0.22391 0.359306,-0.2183 0.281234,0.006 0.349685,0.0605 0.315027,0.2507 -0.03728,0.20457 -0.01285,0.21786 0.154577,0.0841 0.276681,-0.2211 0.869631,0.15451 0.869631,0.55087 0,0.4159 -0.279397,0.45839 -1.127403,0.17139 l -0.751177,-0.25422 -0.233718,0.29253 c -0.128546,0.1609 -0.235026,0.22511 -0.236624,0.1427 -0.0016,-0.0824 0.05589,-0.18482 0.127753,-0.22759 0.07186,-0.0428 0.130657,-0.12982 0.130657,-0.19344 0,-0.15436 -0.677115,0.14002 -0.875438,0.38062 -0.131328,0.1593 -0.144782,0.14422 -0.08276,-0.0928 z m 0.728455,-1.05307 c -0.395525,-0.24389 -0.419761,-0.24597 -0.341665,-0.0293 0.05169,0.1434 -0.11092,0.0512 -0.422297,-0.23948 -0.418518,-0.39067 -0.48143,-0.51071 -0.362671,-0.69194 0.127292,-0.19426 0.339562,-0.21422 1.860611,-0.17495 1.480347,0.0383 1.716928,0.0175 1.716928,-0.14984 0,-0.10679 -0.05687,-0.228 -0.126378,-0.26937 -0.06951,-0.0413 -0.09212,-0.24013 -0.05025,-0.44171 0.06512,-0.31352 0.0294,-0.37779 -0.247038,-0.44461 -0.181515,-0.0439 -0.536684,0.008 -0.810304,0.11789 -0.430836,0.17333 -0.509568,0.1744 -0.681173,0.009 -0.255249,-0.24578 -0.349892,-0.23609 -0.632668,0.0648 -0.130068,0.13838 -0.300869,0.25074 -0.379558,0.24968 -0.07869,-8e-4 -0.05488,-0.0568 0.05291,-0.12388 0.153292,-0.0954 0.119393,-0.12237 -0.15561,-0.12388 -0.193378,-8e-4 -0.387934,0.0547 -0.432347,0.12388 -0.04442,0.0692 0.02562,0.12782 0.155611,0.13026 0.18812,0.004 0.169695,0.0412 -0.09028,0.18426 -0.439855,0.24211 -0.593236,0.23375 -0.375306,-0.0204 0.139799,-0.16308 0.143325,-0.22083 0.016,-0.26211 C 0.073495,125.12815 0,125.04909 0,124.98158 c 0,-0.0675 0.05833,-0.0881 0.129622,-0.0456 0.07129,0.0424 0.225832,0.0253 0.343421,-0.0381 0.259241,-0.13969 0.01332,-0.33763 -0.283314,-0.22802 C 0.085378,124.70841 0,124.68512 0,124.6181 c 0,-0.17947 0.435307,-0.14817 0.71922,0.0517 0.183224,0.129 0.341665,0.14166 0.616955,0.0493 0.259143,-0.087 0.483396,-0.0793 0.746508,0.0257 0.284036,0.11329 0.444434,0.11479 0.655299,0.006 0.153563,-0.0791 0.467573,-0.12633 0.697802,-0.10489 0.368298,0.0343 0.419616,0.0851 0.427064,0.42217 0.0046,0.21076 0.04992,0.44777 0.100572,0.52669 0.08389,0.13071 0.01055,1.15567 -0.08961,1.25209 -0.02331,0.0224 -0.22473,-0.0204 -0.4476,-0.0952 -0.299498,-0.10053 -0.383861,-0.19094 -0.323365,-0.34654 0.07129,-0.18337 0.05341,-0.18825 -0.1386,-0.0378 -0.178145,0.13953 -0.220449,0.14095 -0.220449,0.007 0,-0.10063 -0.07503,-0.0697 -0.19183,0.0789 -0.105508,0.13433 -0.193701,0.19977 -0.195986,0.14544 -0.0023,-0.0543 -0.118886,-0.0396 -0.259111,0.0326 -0.186975,0.0964 -0.241768,0.23171 -0.2055,0.50767 0.0272,0.20695 0.03904,0.37531 0.0263,0.37415 -0.01274,-8e-4 -0.214726,-0.12025 -0.448872,-0.26463 z m 0.360394,-0.11066 c 0,-0.0692 -0.02593,-0.12581 -0.05762,-0.12581 -0.03169,0 -0.09396,0.0566 -0.138367,0.12581 -0.04441,0.0692 -0.01849,0.1258 0.05762,0.1258 0.0761,0 0.138368,-0.0566 0.138367,-0.1258 z m -0.857404,-0.57628 c 0.24641,-0.23727 0.156868,-0.43019 -0.199666,-0.43019 -0.318102,0 -0.484435,0.36246 -0.235877,0.514 0.231079,0.14089 0.194957,0.14784 0.435543,-0.0838 z m 2.817259,0.0179 c 0,-0.10335 -0.112034,-0.17276 -0.261315,-0.16194 -0.322227,0.0234 -0.341983,0.17828 -0.03266,0.25611 0.125758,0.0316 0.243349,0.0641 0.261315,0.0721 0.01797,0.008 0.03266,-0.0668 0.03266,-0.16629 z m -1.567885,-0.20994 c 0,-0.16578 -0.752876,-0.13673 -0.86199,0.0333 -0.06404,0.0998 -0.0048,0.1233 0.188273,0.0747 0.154961,-0.0391 0.281747,-0.0214 0.281747,0.0392 0,0.0605 0.08819,0.0775 0.195985,0.0376 0.107792,-0.0399 0.195985,-0.12297 0.195985,-0.18476 z m -0.609406,-0.93857 c -0.108897,-0.27324 0.167559,-0.53022 0.365441,-0.33967 0.167245,0.16103 0.06364,0.53685 -0.148005,0.53685 -0.07637,0 -0.174218,-0.0887 -0.217436,-0.19718 z m 0.176032,-0.20384 c -0.04171,-0.10036 -0.07267,-0.0706 -0.07894,0.076 -0.0057,0.13262 0.02521,0.20694 0.06862,0.16512 0.04341,-0.0418 0.04806,-0.15031 0.01031,-0.24113 z"
       id="path1561"
       sodipodi:nodetypes="ssssssssssssssssssssssssssscsssssscssssssssssscscsssssssssssssssssssssssssscscsssssssssssssssssssssssssssss"
       inkscape:label="logo" />
    <g
       aria-label="MAP"
       id="text388"
       style="font-size:3.52777px;font-family:'\' Mono Regular';-inkscape-font-specification:'\' Mono Regular, ';text-align:center;text-anchor:middle;stroke:#000000;stroke-width:0;stroke-linecap:round;stroke-miterlimit:0">
      <path
         d="m 7.0961667,13.999999 h 0.3280826 l 0.5397488,0.98072 q 0,-0.0388 0.52211,-0.98072 h 0.3280826 l 0.021167,0.02117 v 2.434161 l -0.021167,0.02117 H 8.4966914 l -0.021167,-0.02117 v -1.679218 h -0.00706 Q 8.3167751,15.111247 8.1298033,15.421691 H 7.7805541 Q 7.6464988,15.206497 7.4418882,14.776109 h -0.00706 v 1.679218 l -0.021167,0.02117 H 7.0961667 l -0.021167,-0.02117 v -2.434161 z"
         id="path480" />
      <path
         d="M 9.9995175,14.003527 H 10.3276 q 0.02469,0 0.03175,0.02822 l 0.409221,0.814915 0.05292,0.109361 0.116416,0.232833 0.04233,0.08114 q 0.03528,0.08114 0.07408,0.148167 v 1.054803 l -0.0035,0.0035 h -0.349249 l -0.0035,-0.0035 v -0.613832 l -0.0071,-0.0035 H 9.6573238 l -0.00353,0.01058 v 0.606776 l -0.00353,0.0035 H 9.2904357 l -0.00353,-0.0035 v -1.061859 q 0,-0.0071 0.010583,-0.0071 v -0.01764 q 0,-0.0035 0.010583,-0.0035 v -0.01411 l 0.00706,-0.0071 q 0,-0.02117 0.010583,-0.02117 v -0.01058 l 0.014111,-0.01411 q 0,-0.01058 0.00706,-0.01764 0,-0.01764 0.010583,-0.01764 v -0.01411 q 0,-0.0071 0.010583,-0.0071 v -0.01411 l 0.010583,-0.0071 q 0,-0.01764 0.00706,-0.01764 v -0.01411 l 0.014111,-0.01058 q 0,-0.01411 0.010583,-0.02117 0,-0.01764 0.010583,-0.01764 v -0.01411 q 0,-0.0035 0.00706,-0.0035 v -0.01764 l 0.010583,-0.0071 q 0,-0.01764 0.010583,-0.01764 v -0.01411 l 0.010583,-0.01058 q 0,-0.01411 0.010583,-0.02117 0,-0.01764 0.010583,-0.01764 v -0.01411 q 0,-0.0035 0.010583,-0.0035 v -0.01411 l 0.00706,-0.0071 q 0,-0.02117 0.010583,-0.02117 v -0.01058 l 0.014111,-0.01411 q 0,-0.01411 0.00706,-0.01764 0,-0.01764 0.010583,-0.01764 v -0.01411 q 0.010583,-0.0071 0.010583,-0.02469 0.010583,0 0.014111,-0.02117 l 0.00706,-0.0035 v -0.01058 l 0.010583,-0.01411 q 0,-0.01058 0.010583,-0.01764 0,-0.01764 0.010583,-0.01764 v -0.01411 q 0.00706,-0.0071 0.00706,-0.02117 0.010583,0 0.014111,-0.02469 h 0.00706 v -0.01411 l 0.010583,-0.01058 q 0,-0.01411 0.010583,-0.02117 0,-0.01764 0.010583,-0.01764 v -0.01411 q 0.010583,-0.0071 0.010583,-0.02117 0.00706,0 0.010583,-0.02117 l 0.00706,-0.0035 v -0.01411 l 0.014111,-0.01058 q 0,-0.01411 0.010583,-0.02117 0,-0.01764 0.00706,-0.01764 v -0.01411 q 0.010583,-0.0035 0.010583,-0.02117 0.010583,0 0.014111,-0.02117 l 0.00706,-0.0035 v -0.01058 l 0.010583,-0.01411 q 0,-0.01411 0.010583,-0.01764 0,-0.01764 0.010583,-0.01764 v -0.01411 q 0.010583,-0.0071 0.010583,-0.0247 0.00706,0 0.010583,-0.02117 l 0.00706,-0.0035 v -0.01058 l 0.014111,-0.01411 q 0,-0.01058 0.00706,-0.01764 0,-0.01764 0.010583,-0.01764 v -0.01411 q 0,-0.0071 0.010583,-0.0071 v -0.01411 l 0.010583,-0.0071 q 0,-0.01764 0.00706,-0.01764 v -0.01411 l 0.014111,-0.01058 q 0,-0.01411 0.010583,-0.02117 0,-0.01764 0.00706,-0.01764 v -0.01411 q 0.010583,-0.0071 0.010583,-0.02117 0.010583,0 0.014111,-0.02117 l 0.00706,-0.0035 v -0.01411 q 0.010583,-0.0071 0.010583,-0.02469 0.010583,0 0.014111,-0.02117 l 0.00706,-0.0035 v -0.01411 q 0.010583,-0.0035 0.010583,-0.02117 z m 0.1658055,0.462138 v 0.0071 0.0071 q -0.01058,0.0071 -0.01058,0.01411 l 0.0035,0.0071 q -0.01411,0 -0.01411,0.02117 l -0.01058,0.0071 v 0.01411 q 0,0.0035 -0.0071,0.0035 v 0.01411 l -0.0071,0.0071 q -0.0035,0 -0.0071,0.01764 -0.0071,0 -0.01058,0.02117 -0.0071,0.0035 -0.0071,0.01058 v 0.0071 q -0.01058,0 -0.01058,0.02117 l -0.01058,0.0035 v 0.01764 q 0,0.0035 -0.01058,0.0035 v 0.01411 l -0.0035,0.0035 q -0.0071,0 -0.0071,0.02117 -0.01058,0 -0.01058,0.02117 -0.0071,0 -0.01058,0.0071 l 0.0035,0.0071 q -0.01411,0 -0.01411,0.02469 l -0.0071,0.0035 v 0.01411 q 0,0.0071 -0.01058,0.0071 v 0.01411 l -0.00353,0.0035 q -0.00706,0 -0.010583,0.02117 -0.00706,0 -0.00706,0.01764 -0.010583,0.0035 -0.010583,0.01058 l 0.00353,0.0071 q -0.014111,0 -0.014111,0.02117 l -0.010583,0.0071 v 0.01411 q 0,0.0035 -0.00706,0.0035 v 0.01764 l -0.00706,0.0035 q -0.00353,0 -0.00706,0.02117 -0.00706,0 -0.010583,0.01764 -0.00706,0.0035 -0.010583,0.01058 l 0.00353,0.0071 q -0.010583,0 -0.010583,0.02117 l -0.010583,0.0071 v 0.01411 q 0,0.0035 -0.010583,0.0035 v 0.01411 l -0.00353,0.0071 q -0.00706,0 -0.00706,0.01764 -0.010583,0 -0.010583,0.02117 -0.00706,0 -0.010583,0.01058 l 0.00353,0.0071 q -0.014111,0 -0.014111,0.02117 l -0.00706,0.0035 v 0.01411 q 0,0.0071 -0.010583,0.0071 v 0.01411 l -0.00706,0.0035 q -0.00353,0 -0.00706,0.02117 -0.00706,0 -0.00706,0.02117 -0.010583,0 -0.010583,0.0071 v 0.0071 q -0.010583,0 -0.010583,0.02469 l -0.010583,0.0035 v 0.01411 q 0,0.0071 -0.010583,0.0071 v 0.01411 q 0,0.0035 -0.00706,0.0035 -0.00353,0.02117 -0.010583,0.02117 0,0.02117 -0.014111,0.02469 l 0.00353,0.0035 v 0.0035 q -0.010583,0.01058 -0.010583,0.02469 0,0.0071 -0.010583,0.0071 v 0.01411 q 0,0.0035 -0.010583,0.0035 v 0.01764 q 0,0.0035 -0.00706,0.0035 -0.00353,0.02117 -0.014111,0.02117 0,0.02117 -0.010583,0.02469 l 0.00353,0.0035 v 0.0035 l -0.014111,0.01411 0.00706,0.0035 h 1.0195254 l 0.0071,-0.0071 q 0,-0.01058 -0.01411,-0.02117 v -0.01058 q -0.0071,0 -0.0071,-0.02117 -0.01058,0 -0.01411,-0.02117 -0.0071,0 -0.0071,-0.0035 v -0.01411 q -0.01058,0 -0.01058,-0.02117 -0.01058,-0.0035 -0.01058,-0.01058 v 0 -0.0035 l -0.01058,-0.01411 v -0.01411 q -0.01058,0 -0.01411,-0.02117 -0.0071,0 -0.0071,-0.01764 -0.0071,0 -0.01058,-0.02117 -0.0071,0 -0.0071,-0.02117 -0.01058,-0.0035 -0.01411,-0.01058 h 0.0035 v -0.0035 l -0.01058,-0.01411 v -0.01411 q -0.01058,0 -0.01058,-0.01764 -0.01058,0 -0.01411,-0.02117 -0.0071,0 -0.0071,-0.0071 v -0.01411 q -0.01058,0 -0.01058,-0.01764 l -0.01058,-0.01058 0.0035,-0.0035 v -0.0035 l -0.01411,-0.01411 v -0.01058 q -0.01058,0 -0.01058,-0.02469 -0.0071,0 -0.0071,-0.01411 -0.01058,0 -0.01411,-0.0247 -0.0071,0 -0.0071,-0.01764 -0.01058,-0.0071 -0.01058,-0.01058 v -0.0035 0 l -0.01058,-0.01764 v -0.01058 q -0.01058,0 -0.01058,-0.02117 -0.01058,0 -0.01058,-0.02117 -0.01058,0 -0.01058,-0.0035 v -0.01411 q -0.0071,0 -0.0071,-0.02117 -0.01058,-0.0035 -0.01411,-0.01058 h 0.0035 v -0.0035 l -0.01411,-0.01411 v -0.01411 q -0.0071,0 -0.0071,-0.01764 -0.01058,0 -0.01411,-0.02469 -0.0071,0 -0.0071,-0.0035 v -0.01411 q -0.01058,0 -0.01058,-0.02117 -0.01058,-0.0035 -0.01058,-0.0071 l 0.0035,-0.0035 v -0.0035 l -0.01411,-0.01411 v -0.01411 q -0.01058,0 -0.01058,-0.01764 -0.0071,0 -0.01058,-0.02117 -0.0071,0 -0.0071,-0.0071 v -0.01411 q -0.01058,0 -0.01058,-0.01764 -0.01058,-0.0071 -0.01411,-0.01058 l 0.0035,-0.0035 v -0.0035 l -0.01058,-0.01411 v -0.01058 q -0.01058,0 -0.01058,-0.02117 -0.01058,0 -0.01411,-0.02117 -0.0071,0 -0.0071,-0.0035 v -0.01764 q -0.0071,0 -0.0071,-0.01764 -0.01411,-0.0071 -0.01411,-0.01058 l 0.0035,-0.0035 v 0 l -0.01411,-0.01764 v -0.01058 q -0.0035,0 -0.01411,-0.01058 z"
         id="path482" />
      <path
         d="m 11.502347,14.010583 h 1.252358 q 0.416277,0.380999 0.49036,0.486832 v 0.440971 l -0.49036,0.486832 h -0.91722 v 1.030109 l -0.02117,0.02117 h -0.313971 l -0.02117,-0.02117 v -2.427106 z m 0.335138,0.356304 v 0.691443 h 0.776109 l 0.264583,-0.264582 v -0.151695 l -0.264583,-0.275166 z"
         id="path484" />
    </g>
    <g
       aria-label="R"
       id="text392"
       style="font-size:3.52777px;font-family:'\' Mono Regular';-inkscape-font-specification:'\' Mono Regular, ';text-align:center;text-anchor:middle;stroke:#000000;stroke-width:0;stroke-linecap:round;stroke-miterlimit:0"
       transform="translate(1)">
      <path
         d="m 9.0211668,34.000001 h 1.2629412 q 0.479777,0.465666 0.479777,0.49036 v 0.437444 l -0.469193,0.49036 0.469193,1.040692 -0.0071,0.01058 h -0.370416 q -0.05292,-0.04939 -0.243416,-0.52211 L 9.8889983,35.418165 h -0.52211 v 1.030109 l -0.021167,0.02117 H 9.0211668 l -0.021167,-0.02117 v -2.427106 z m 0.3457215,0.356305 v 0.694971 h 0.7655257 l 0.275166,-0.264583 v -0.155222 l -0.275166,-0.275166 z"
         id="path487" />
    </g>
    <g
       aria-label="RST"
       id="text396"
       style="font-size:3.52777px;font-family:'\' Mono Regular';-inkscape-font-specification:'\' Mono Regular, ';text-align:center;text-anchor:middle;stroke:#000000;stroke-width:0;stroke-linecap:round;stroke-miterlimit:0"
       transform="translate(1)">
      <path
         d="m 9.0211668,54.003526 h 1.2629412 q 0.479777,0.465666 0.479777,0.49036 v 0.437444 l -0.469193,0.49036 0.469193,1.040692 -0.0071,0.01058 h -0.370416 q -0.05292,-0.04939 -0.243416,-0.52211 L 9.8889982,55.42169 H 9.3668883 v 1.030109 l -0.021167,0.02117 H 9.0211668 l -0.021167,-0.02117 v -2.427106 z m 0.3457215,0.356305 v 0.694971 h 0.7655257 l 0.275166,-0.264583 v -0.155222 l -0.275166,-0.275166 z"
         id="path490" />
      <path
         d="m 11.702268,54.003526 h 0.793748 q 0.479777,0.465666 0.479777,0.49036 v 0.204611 l -0.01764,0.01764 h -0.317499 q -0.02117,0 -0.02117,-0.09172 L 12.344318,54.359834 H 11.843375 L 11.578792,54.635 v 0.155222 l 0.264583,0.264583 h 0.652637 l 0.479777,0.49036 v 0.437443 l -0.479777,0.49036 h -0.793748 l -0.49036,-0.49036 v -0.20461 l 0.02117,-0.01764 h 0.324554 q 0.02117,0 0.03175,0.09878 l 0.254,0.246944 h 0.500943 l 0.275166,-0.264583 V 55.686273 L 12.344322,55.42169 h -0.642054 l -0.49036,-0.49036 v -0.437444 z"
         id="path492" />
      <path
         d="m 13.452041,53.999998 h 1.714496 l 0.02117,0.02117 v 0.317499 l -0.02117,0.01764 h -0.673804 v 2.095496 l -0.02117,0.02117 h -0.324555 l -0.02117,-0.02117 v -2.095496 h -0.673804 l -0.02117,-0.01764 v -0.317499 z"
         id="path494" />
    </g>
    <g
       aria-label="CLK"
       id="text400"
       style="font-size:3.52777px;font-family:'\' Mono Regular';-inkscape-font-specification:'\' Mono Regular, ';text-align:center;text-anchor:middle;stroke:#000000;stroke-width:0;stroke-linecap:round;stroke-miterlimit:0"
       transform="translate(1)">
      <path
         d="M 9.5291657,74.003527 H 10.23472 l 0.183444,0.186972 q 0.01764,0.01058 0.123472,0.127 0.123472,0.119944 0.123472,0.126999 l 0.09525,0.09525 v 0.176389 l -0.0071,0.0071 h -0.349249 q -0.0071,-0.0035 -0.0071,-0.01411 v -0.01058 l 0.0035,-0.01058 -0.07408,-0.07408 q 0,-0.0071 -0.0071,-0.0071 0,-0.0071 -0.01411,-0.01058 0,-0.0071 -0.0071,-0.0071 0,-0.0035 -0.0247,-0.02822 l -0.0388,-0.03528 q 0,-0.01058 -0.07056,-0.08114 0,-0.0071 -0.04233,-0.04233 0,-0.0071 -0.0071,-0.0071 0,-0.0071 -0.0247,-0.02822 v -0.0035 H 9.6738043 q -0.098778,0.09878 -0.098778,0.105833 -0.042333,0.0388 -0.042333,0.04233 -0.00353,0 -0.028222,0.03528 l -0.1411108,0.137583 v 1.107719 l 0.3104438,0.313972 h 0.4162767 q 0,-0.0071 0.0247,-0.02469 0,-0.0071 0.0071,-0.0071 0,-0.01058 0.04233,-0.04233 0,-0.0071 0.07056,-0.07408 0,-0.0071 0.01058,-0.0071 0,-0.01058 0.01058,-0.01058 0,-0.0035 0.144639,-0.148167 l -0.0035,-0.01058 v -0.01058 q 0,-0.01411 0.0071,-0.01411 h 0.349249 l 0.0071,0.0035 v 0.179916 l -0.126999,0.127 h -0.0071 q 0,0.0071 -0.03175,0.03528 -0.09172,0.09878 -0.09878,0.09878 v 0.01411 q -0.03175,0.02822 -0.03175,0.03175 -0.01058,0 -0.01058,0.01058 -0.0071,0 -0.05644,0.05644 -0.0071,0 -0.0071,0.0071 -0.01058,0 -0.01058,0.01058 -0.0071,0 -0.03528,0.03175 l -0.05645,0.05997 h -0.0071 q 0,0.01058 -0.01058,0.01058 0,0.0071 -0.0388,0.04233 H 9.5362213 q -0.014111,0 -0.056444,-0.05292 L 9.2892774,76.236605 q -0.03175,-0.02822 -0.03175,-0.03528 0,-0.01058 -0.052917,-0.05997 l -0.2046102,-0.20461 v -1.389941 q 0,-0.01058 0.0635,-0.06703 0,-0.0071 0.00706,-0.0071 0,-0.0071 0.1869718,-0.194027 0,-0.0071 0.042333,-0.04939 z"
         id="path497" />
      <path
         d="M 11.236601,74.003527 H 11.5541 l 0.01764,0.02117 v 2.084912 h 1.202969 l 0.02117,0.02117 v 0.324555 l -0.02117,0.02117 h -1.538107 l -0.02117,-0.02117 v -2.430633 z"
         id="path499" />
      <path
         d="m 13.286233,73.999999 h 0.328083 l 0.01764,0.02117 v 1.033637 h 0.215194 q 0.09878,-0.162278 0.758471,-1.054804 h 0.419805 v 0.02117 q -0.705554,0.998359 -0.87136,1.206497 l 0.87136,1.227664 v 0.02117 H 14.605621 Q 13.945928,75.583977 13.84715,75.4217 h -0.215194 v 1.033636 l -0.01764,0.02117 h -0.328083 l -0.02117,-0.02117 v -2.434161 z"
         id="path501" />
    </g>
    <g
       aria-label="Chaos Maps"
       id="text408"
       style="font-size:3.52777px;font-family:'\' Mono Regular';-inkscape-font-specification:'\' Mono Regular, ';text-align:center;text-anchor:middle;stroke:#000000;stroke-width:0;stroke-linecap:round;stroke-miterlimit:0">
      <path
         d="M 0.85566504,5.003528 H 1.561219 l 0.1834441,0.1869718 q 0.017639,0.010583 0.1234719,0.1269997 0.123472,0.1199442 0.123472,0.1269997 l 0.09525,0.09525 v 0.1763885 l -0.00706,0.00706 H 1.730552 q -0.00706,-0.00353 -0.00706,-0.014111 v -0.010583 l 0.00353,-0.010583 -0.074083,-0.074083 q 0,-0.00706 -0.00706,-0.00706 0,-0.00706 -0.014111,-0.010583 0,-0.00706 -0.00706,-0.00706 0,-0.00353 -0.024694,-0.028222 L 1.561219,5.525638 q 0,-0.010583 -0.070555,-0.081139 0,-0.00706 -0.042333,-0.042333 0,-0.00706 -0.00706,-0.00706 0,-0.00706 -0.024694,-0.028222 v -0.00353 H 1.0003036 q -0.0987776,0.098778 -0.0987776,0.1058331 -0.0423332,0.038806 -0.0423332,0.042333 -0.003528,0 -0.0282222,0.035278 L 0.68985984,5.6843876 V 6.7921074 L 1.0003036,7.1060789 h 0.4162769 q 0,-0.00706 0.024694,-0.024694 0,-0.00706 0.00706,-0.00706 0,-0.010583 0.042333,-0.042333 0,-0.00706 0.070555,-0.074083 0,-0.00706 0.010583,-0.00706 0,-0.010583 0.010583,-0.010583 0,-0.00353 0.1446385,-0.1481663 l -0.00353,-0.010583 v -0.010583 q 0,-0.014111 0.00706,-0.014111 h 0.3492492 l 0.00706,0.00353 V 6.9402737 L 1.9598571,7.0672735 h -0.00706 q 0,0.00706 -0.03175,0.035278 -0.091722,0.098778 -0.098778,0.098778 v 0.014111 q -0.03175,0.028222 -0.03175,0.03175 -0.010583,0 -0.010583,0.010583 -0.00706,0 -0.056444,0.056444 -0.00706,0 -0.00706,0.00706 -0.010583,0 -0.010583,0.010583 -0.00706,0 -0.035278,0.03175 l -0.056444,0.059972 h -0.00706 q 0,0.010583 -0.010583,0.010583 0,0.00706 -0.038805,0.042333 H 0.86272058 q -0.0141111,0 -0.0564443,-0.052917 L 0.61577667,7.2366064 q -0.0317499,-0.028222 -0.0317499,-0.035278 0,-0.010583 -0.0529165,-0.059972 L 0.32649953,6.936746 V 5.5468046 q 0,-0.010583 0.0634999,-0.067028 0,-0.00706 0.007056,-0.00706 0,-0.00706 0.18697181,-0.1940273 0,-0.00706 0.0423332,-0.049389 z"
         id="path461" />
      <path
         d="m 2.5631,5.0141113 h 0.3245548 l 0.021167,0.021167 v 0.6808596 h 0.765526 l 0.4515546,0.6879152 v 1.0512755 l -0.021167,0.021167 H 3.790764 L 3.7695973,7.4553282 V 6.4957747 L 3.5014868,6.0724423 H 2.9088215 v 1.3828859 l -0.021167,0.021167 H 2.5631 L 2.5419334,7.4553282 V 5.0352779 Z"
         id="path463" />
      <path
         d="M 4.7256166,5.709082 H 5.7239755 L 6.083808,6.0653868 v 1.0336366 q 0,0.03175 0.1728608,0.3668881 l -0.010583,0.010583 H 5.8686141 q -0.021167,0 -0.1023054,-0.1940274 H 5.7557254 L 5.5405314,7.4764948 H 4.8561441 L 4.489256,7.1096067 V 6.7709408 L 4.8561441,6.414636 H 5.7239755 V 6.2206087 L 5.5722814,6.0653868 H 4.7256166 L 4.7044499,6.0477479 V 5.7302486 Z m 0.1305275,1.2064974 v 0.049389 l 0.1446385,0.1446386 h 0.398638 L 5.7239755,6.7921074 V 6.7709408 H 5.0007826 Z"
         id="path465" />
      <path
         d="m 7.0962754,5.6949709 h 0.7690539 q 0.4550823,0.6314709 0.4938878,0.7408317 v 0.2998605 q 0,0.049389 -0.4938878,0.7408317 H 7.0962754 Q 6.6129709,6.7850519 6.6129709,6.7356631 V 6.4358026 Q 6.627082,6.3581917 7.0962754,5.6949709 Z M 7.2832472,6.0548035 6.9728034,6.5204691 v 0.1023053 q 0,0.028222 0.3104438,0.4833045 H 7.6889408 Q 7.9888012,6.6474688 7.9888012,6.6227744 V 6.538108 q 0,-0.028222 -0.2998604,-0.4727212 v -0.010583 z"
         id="path467" />
      <path
         d="m 9.0965173,5.7020265 h 1.0301087 l 0.02117,0.021167 v 0.3174993 l -0.02117,0.021167 H 9.2376281 L 9.0965173,6.2135531 v 0.042333 L 9.2376281,6.4111082 H 9.9643488 L 10.324181,6.767413 V 7.1060789 L 9.9643488,7.4764948 H 8.7472681 L 8.7261015,7.4553282 V 7.1272456 l 0.021167,-0.021167 H 9.8232379 L 9.9643488,6.9649681 V 6.9120516 L 9.8232379,6.767413 H 9.0965173 L 8.7261015,6.4111082 V 6.061859 Z"
         id="path469" />
      <path
         d="m 12.140976,5.0000002 h 0.328083 l 0.539749,0.9807201 q 0,-0.038805 0.52211,-0.9807201 H 13.859 l 0.02117,0.021167 V 7.4553282 L 13.859,7.4764948 h -0.317499 l -0.02117,-0.021167 V 5.7761096 h -0.0071 Q 13.361585,6.1112478 13.174613,6.4216915 H 12.825364 Q 12.691308,6.2064976 12.486698,5.7761096 h -0.0071 v 1.6792186 l -0.02117,0.021167 h -0.3175 L 12.11981,7.4553282 V 5.0211668 Z"
         id="path471" />
      <path
         d="m 14.568078,5.709082 h 0.998359 l 0.359832,0.3563048 v 1.0336366 q 0,0.03175 0.172861,0.3668881 l -0.01058,0.010583 h -0.377472 q -0.02117,0 -0.102305,-0.1940274 h -0.01058 L 15.382993,7.4764948 H 14.698605 L 14.331717,7.1096067 V 6.7709408 L 14.698605,6.414636 h 0.867832 V 6.2206087 L 15.414742,6.0653868 h -0.846664 l -0.02117,-0.017639 V 5.7302486 Z m 0.130527,1.2064974 v 0.049389 l 0.144639,0.1446386 h 0.398638 l 0.324555,-0.3174993 v -0.021167 h -0.723193 z"
         id="path473" />
      <path
         d="M 16.45896,8.1538266 V 5.7267208 l 0.02117,-0.017639 h 1.121831 q 0.479776,0.6843874 0.479776,0.7337762 v 0.2928049 q 0,0.059972 -0.479776,0.7373039 h -0.77611 v 0.6808596 l -0.02117,0.021167 h -0.324555 z m 0.959554,-1.0406921 v -0.00706 Q 17.72543,6.6721632 17.72543,6.6368855 V 6.552219 q 0,-0.028222 -0.306916,-0.4762489 h -0.592666 v 1.0371644 z"
         id="path475" />
      <path
         d="m 18.766118,5.7020265 h 1.030109 l 0.02117,0.021167 v 0.3174993 l -0.02117,0.021167 h -0.888998 l -0.141111,0.1516941 v 0.042333 l 0.141111,0.1552218 h 0.72672 l 0.359833,0.3563048 v 0.3386659 l -0.359833,0.3704159 h -1.21708 l -0.02117,-0.021167 V 7.1272456 l 0.02117,-0.021167 h 1.075969 L 19.633949,6.9649681 V 6.9120516 L 19.492838,6.767413 h -0.72672 L 18.395702,6.4111082 V 6.061859 Z"
         id="path477" />
    </g>
    <g
       aria-label="GATE"
       id="text1007"
       style="font-size:3.52777px;font-family:'\' Mono Regular';-inkscape-font-specification:'\' Mono Regular, ';text-align:center;text-anchor:middle;display:inline;stroke:#000000;stroke-width:0;stroke-linecap:round;stroke-miterlimit:0"
       transform="translate(-19.999864,-0.2600085)">
      <path
         d="m 22.662612,97.767065 h 0.684387 q 0.391582,0.36336 0.539749,0.539748 v 0.155222 l -0.01764,0.01764 h -0.328083 q -0.0388,-0.05997 -0.335138,-0.356305 H 22.80725 l -0.328083,0.328083 v 1.100664 l 0.328083,0.3175 h 0.398638 l 0.313972,-0.3175 v -0.366888 h -0.497416 l -0.02117,-0.02117 v -0.324555 l 0.02117,-0.02117 h 0.846665 l 0.01764,0.02117 v 0.857248 L 23.347,100.2365 H 22.662613 L 22.122864,99.696752 V 98.30681 q 0.112888,-0.144638 0.539749,-0.539748 z"
         id="path1065" />
      <path
         d="m 25.036796,97.763537 h 0.328083 q 0.02469,0 0.03175,0.02822 l 0.409221,0.814915 0.05292,0.109361 0.116417,0.232833 0.04233,0.08114 q 0.03528,0.08114 0.07408,0.148167 v 1.054807 l -0.0035,0.004 h -0.349249 l -0.0035,-0.004 v -0.613836 l -0.0071,-0.0035 h -1.033637 l -0.0035,0.01058 v 0.606786 l -0.0035,0.004 h -0.359833 l -0.0035,-0.004 v -1.061868 q 0,-0.0071 0.01058,-0.0071 v -0.01764 q 0,-0.0035 0.01058,-0.0035 v -0.01411 l 0.0071,-0.0071 q 0,-0.02117 0.01058,-0.02117 v -0.01058 l 0.01411,-0.01411 q 0,-0.01058 0.0071,-0.01764 0,-0.01764 0.01058,-0.01764 v -0.01411 q 0,-0.0071 0.01058,-0.0071 v -0.01411 l 0.01058,-0.0071 q 0,-0.01764 0.0071,-0.01764 v -0.01411 l 0.01411,-0.01058 q 0,-0.01411 0.01058,-0.02117 0,-0.01764 0.01058,-0.01764 v -0.01411 q 0,-0.0035 0.0071,-0.0035 v -0.01764 l 0.01058,-0.0071 q 0,-0.01764 0.01058,-0.01764 v -0.01411 l 0.01058,-0.01058 q 0,-0.01411 0.01058,-0.02117 0,-0.01764 0.01058,-0.01764 v -0.01411 q 0,-0.0035 0.01058,-0.0035 v -0.01411 l 0.0071,-0.0071 q 0,-0.02117 0.01058,-0.02117 v -0.01058 l 0.01411,-0.01411 q 0,-0.01411 0.0071,-0.01764 0,-0.01764 0.01058,-0.01764 v -0.01411 q 0.01058,-0.0071 0.01058,-0.02469 0.01058,0 0.01411,-0.02117 l 0.0071,-0.0035 v -0.01058 l 0.01058,-0.01411 q 0,-0.01058 0.01058,-0.01764 0,-0.01764 0.01058,-0.01764 v -0.01411 q 0.0071,-0.0071 0.0071,-0.02117 0.01058,0 0.01411,-0.02469 h 0.0071 v -0.01411 l 0.01058,-0.01058 q 0,-0.01411 0.01058,-0.02117 0,-0.01764 0.01058,-0.01764 v -0.01411 q 0.01058,-0.0071 0.01058,-0.02117 0.0071,0 0.01058,-0.02117 l 0.0071,-0.0035 v -0.01411 l 0.01411,-0.01058 q 0,-0.01411 0.01058,-0.02117 0,-0.01764 0.0071,-0.01764 v -0.01411 q 0.01058,-0.0035 0.01058,-0.02117 0.01058,0 0.01411,-0.02117 l 0.0071,-0.0035 v -0.01058 l 0.01058,-0.01411 q 0,-0.01411 0.01058,-0.01764 0,-0.01764 0.01058,-0.01764 v -0.01411 q 0.01058,-0.0071 0.01058,-0.02469 0.0071,0 0.01058,-0.02117 l 0.0071,-0.0035 v -0.01058 l 0.01411,-0.01411 q 0,-0.01058 0.0071,-0.01764 0,-0.01764 0.01058,-0.01764 v -0.01411 q 0,-0.0071 0.01058,-0.0071 v -0.01411 l 0.01058,-0.0071 q 0,-0.01764 0.0071,-0.01764 v -0.01411 l 0.01411,-0.01058 q 0,-0.01411 0.01058,-0.02117 0,-0.01764 0.0071,-0.01764 v -0.01411 q 0.01058,-0.0071 0.01058,-0.02117 0.01058,0 0.01411,-0.02117 l 0.0071,-0.0035 v -0.01411 q 0.01058,-0.0071 0.01058,-0.02469 0.01058,0 0.01411,-0.02117 l 0.0071,-0.0035 v -0.01411 q 0.01058,-0.0035 0.01058,-0.02117 z m 0.165805,0.462138 v 0.0071 0.0071 q -0.01058,0.0071 -0.01058,0.01411 l 0.0035,0.0071 q -0.01411,0 -0.01411,0.02117 l -0.01058,0.0071 v 0.01411 q 0,0.0035 -0.0071,0.0035 v 0.01411 l -0.0071,0.0071 q -0.0035,0 -0.0071,0.01764 -0.0071,0 -0.01058,0.02117 -0.0071,0.0035 -0.0071,0.01058 v 0.0071 q -0.01058,0 -0.01058,0.02117 l -0.01058,0.0035 v 0.01764 q 0,0.0035 -0.01058,0.0035 v 0.01411 l -0.0035,0.0035 q -0.0071,0 -0.0071,0.02117 -0.01058,0 -0.01058,0.02117 -0.0071,0 -0.01058,0.0071 l 0.0035,0.0071 q -0.01411,0 -0.01411,0.02469 l -0.0071,0.0035 v 0.01411 q 0,0.0071 -0.01058,0.0071 v 0.01411 l -0.0035,0.0035 q -0.0071,0 -0.01058,0.02117 -0.0071,0 -0.0071,0.01764 -0.01058,0.0035 -0.01058,0.01058 l 0.0035,0.0071 q -0.01411,0 -0.01411,0.02117 l -0.01058,0.0071 v 0.01411 q 0,0.0035 -0.0071,0.0035 v 0.01764 l -0.0071,0.0035 q -0.0035,0 -0.0071,0.02117 -0.0071,0 -0.01058,0.01764 -0.0071,0.0035 -0.01058,0.01058 l 0.0035,0.0071 q -0.01058,0 -0.01058,0.02117 l -0.01058,0.0071 v 0.01411 q 0,0.0035 -0.01058,0.0035 v 0.01411 l -0.0035,0.0071 q -0.0071,0 -0.0071,0.01764 -0.01058,0 -0.01058,0.02117 -0.0071,0 -0.01058,0.01058 l 0.0035,0.0071 q -0.01411,0 -0.01411,0.02117 l -0.0071,0.0035 v 0.01411 q 0,0.0071 -0.01058,0.0071 v 0.01411 l -0.0071,0.0035 q -0.0035,0 -0.0071,0.02117 -0.0071,0 -0.0071,0.02117 -0.01058,0 -0.01058,0.0071 v 0.0071 q -0.01058,0 -0.01058,0.02469 l -0.01058,0.0035 v 0.01411 q 0,0.0071 -0.01058,0.0071 v 0.01411 q 0,0.0035 -0.0071,0.0035 -0.0035,0.02117 -0.01058,0.02117 0,0.02117 -0.01411,0.02469 l 0.0035,0.0035 v 0.0035 q -0.01058,0.01058 -0.01058,0.02469 0,0.0071 -0.01058,0.0071 v 0.01411 q 0,0.0035 -0.01058,0.0035 v 0.01764 q 0,0.0035 -0.0071,0.0035 -0.0035,0.02117 -0.01411,0.02117 0,0.02117 -0.01058,0.02469 l 0.0035,0.0035 v 0.0035 l -0.01411,0.01411 0.0071,0.0035 h 1.019526 l 0.0071,-0.0071 q 0,-0.01058 -0.01411,-0.02117 v -0.01058 q -0.0071,0 -0.0071,-0.02117 -0.01058,0 -0.01411,-0.02117 -0.0071,0 -0.0071,-0.0035 v -0.01411 q -0.01058,0 -0.01058,-0.02117 -0.01058,-0.0035 -0.01058,-0.01058 v 0 -0.0035 l -0.01058,-0.01411 v -0.01411 q -0.01058,0 -0.01411,-0.02117 -0.0071,0 -0.0071,-0.01764 -0.0071,0 -0.01058,-0.02117 -0.0071,0 -0.0071,-0.02117 -0.01058,-0.0035 -0.01411,-0.01058 h 0.0035 v -0.0035 l -0.01058,-0.01411 v -0.01411 q -0.01058,0 -0.01058,-0.01764 -0.01058,0 -0.01411,-0.02117 -0.0071,0 -0.0071,-0.0071 v -0.01411 q -0.01058,0 -0.01058,-0.01764 l -0.01058,-0.01058 0.0035,-0.0035 v -0.0035 l -0.01411,-0.01411 v -0.01058 q -0.01058,0 -0.01058,-0.02469 -0.0071,0 -0.0071,-0.01411 -0.01058,0 -0.01411,-0.02469 -0.0071,0 -0.0071,-0.01764 -0.01058,-0.0071 -0.01058,-0.01058 v -0.0035 0 l -0.01058,-0.01764 v -0.01058 q -0.01058,0 -0.01058,-0.02117 -0.01058,0 -0.01058,-0.02117 -0.01058,0 -0.01058,-0.0035 v -0.01411 q -0.0071,0 -0.0071,-0.02117 -0.01058,-0.0035 -0.01411,-0.01058 h 0.0035 v -0.0035 l -0.01411,-0.01411 v -0.01411 q -0.0071,0 -0.0071,-0.01764 -0.01058,0 -0.01411,-0.02469 -0.0071,0 -0.0071,-0.0035 v -0.01411 q -0.01058,0 -0.01058,-0.02117 -0.01058,-0.0035 -0.01058,-0.0071 l 0.0035,-0.0035 v -0.0035 l -0.01411,-0.01411 v -0.01411 q -0.01058,0 -0.01058,-0.01764 -0.0071,0 -0.01058,-0.02117 -0.0071,0 -0.0071,-0.0071 v -0.01411 q -0.01058,0 -0.01058,-0.01764 -0.01058,-0.0071 -0.01411,-0.01058 l 0.0035,-0.0035 v -0.0035 l -0.01058,-0.01411 v -0.01058 q -0.01058,0 -0.01058,-0.02117 -0.01058,0 -0.01411,-0.02117 -0.0071,0 -0.0071,-0.0035 v -0.01764 q -0.0071,0 -0.0071,-0.01764 -0.01411,-0.0071 -0.01411,-0.01058 l 0.0035,-0.0035 v 0 l -0.01411,-0.01764 v -0.01058 q -0.0035,0 -0.01411,-0.01058 z"
         id="path1067" />
      <path
         d="m 26.539625,97.763537 h 1.714496 l 0.02117,0.02117 v 0.3175 l -0.02117,0.01764 h -0.673804 v 2.095503 l -0.02117,0.0212 h -0.324554 l -0.02117,-0.0212 v -2.095503 h -0.673804 l -0.02117,-0.01764 v -0.3175 z"
         id="path1069" />
      <path
         d="m 28.740949,97.760009 h 1.552219 l 0.02117,0.02117 v 0.317499 l -0.02117,0.02117 h -1.213553 v 0.69497 h 1.030109 l 0.02117,0.02117 v 0.324555 l -0.02117,0.02117 h -1.030109 v 0.687916 h 1.213553 l 0.02117,0.01764 v 0.328081 l -0.02117,0.0212 h -1.552219 l -0.02117,-0.0212 v -2.434159 z"
         id="path1071" />
    </g>
    <text
       xml:space="preserve"
       style="font-size:3.52777px;font-family:'\' Mono Regular';-inkscape-font-specification:'\' Mono Regular, ';text-align:center;text-anchor:middle;fill:#000000;fill-opacity:1;stroke:#000000;stroke-width:0;stroke-linecap:round;stroke-miterlimit:0;stroke-dasharray:none"
       x="8.2911415"
       y="107.47297"
       id="text401"><tspan
         sodipodi:role="line"
         id="tspan398"
         style="fill:#000000;fill-opacity:1;stroke-width:0;stroke-dasharray:none"
         x="8.2911415"
         y="107.47297">CV</tspan></text>
  </g>
  <g
     inkscape:groupmode="layer"
     id="layer2"
     inkscape:label="components"
     style="display:none">
    <circle
       cx="13"
       cy="43.000004"
       fill="#ff0000"
       id="r"
       style="display:inline;stroke-width:0.470371"
       inkscape:label="r"
       r="1.3229166mm" />
    <circle
       cx="6"
       cy="36"
       fill="#00ff00"
       id="r_in"
       style="display:inline;stroke-width:0.352777"
       r="0.79374999mm"
       inkscape:label="r" />
    <circle
       cx="10.16"
       cy="20.5"
       fill="#ff0000"
       id="l1"
       style="display:inline;stroke-width:0.235186"
       inkscape:label="l1"
       r="0.66145831mm" />
    <circle
       cx="13"
       cy="63"
       fill="#ff0000"
       id="dx"
       style="display:inline;stroke-width:0.235186"
       inkscape:label="dx"
       r="1.3229166mm" />
    <circle
       cx="6"
       cy="56"
       fill="#00ff00"
       id="dx_in"
       style="display:inline;stroke-width:0.352777"
       r="0.79374999mm"
       inkscape:label="dx" />
    <circle
       cx="6"
       cy="76"
       fill="#00ff00"
       id="clock_in"
       style="display:inline;fill:#00ff00;fill-opacity:1;stroke:#ff0000;stroke-width:0;stroke-dasharray:none;stroke-opacity:1"
       inkscape:label="clock"
       r="0.79374987mm" />
    <circle
       cx="15.000122"
       cy="99"
       fill="#0000ff"
       id="gate_out"
       style="display:inline;fill:#0007ff;fill-opacity:1;stroke:#ff0000;stroke-width:0;stroke-dasharray:none;stroke-opacity:1"
       inkscape:label="gate"
       r="0.79374987mm" />
    <circle
       cx="15.000122"
       cy="107"
       fill="#0000ff"
       id="cv_out"
       style="display:inline;fill:#0007ff;fill-opacity:1;stroke:#ff0000;stroke-width:0;stroke-dasharray:none;stroke-opacity:1"
       inkscape:label="cv"
       r="0.79374987mm" />
  </g>
</svg>
