<?xml version="1.0" encoding="UTF-8" standalone="no"?>
<!-- Created with Inkscape (http://www.inkscape.org/) -->

<svg
   width="30.48mm"
   height="128.5mm"
   viewBox="0 0 30.479999 128.5"
   version="1.1"
   id="svg359"
   inkscape:version="1.2.2 (732a01da63, 2022-12-09)"
   sodipodi:docname="Chaos.svg"
   xmlns:inkscape="http://www.inkscape.org/namespaces/inkscape"
   xmlns:sodipodi="http://sodipodi.sourceforge.net/DTD/sodipodi-0.dtd"
   xmlns="http://www.w3.org/2000/svg"
   xmlns:svg="http://www.w3.org/2000/svg">
  <sodipodi:namedview
     id="namedview361"
     pagecolor="#ffffff"
     bordercolor="#666666"
     borderopacity="1.0"
     inkscape:showpageshadow="false"
     inkscape:pageopacity="0.0"
     inkscape:pagecheckerboard="false"
     inkscape:deskcolor="#d1d1d1"
     inkscape:document-units="mm"
     showgrid="true"
     borderlayer="true"
     shape-rendering="auto"
     showguides="false"
     inkscape:lockguides="true"
     inkscape:zoom="1.8"
     inkscape:cx="198.61111"
     inkscape:cy="152.77778"
     inkscape:window-width="1920"
     inkscape:window-height="1009"
     inkscape:window-x="-8"
     inkscape:window-y="-8"
     inkscape:window-maximized="1"
     inkscape:current-layer="layer1">
    <inkscape:grid
       type="xygrid"
       id="grid480"
       dotted="false"
       spacingx="0.99999998"
       spacingy="0.99999998"
       originx="0"
       originy="0"
       units="mm"
       empspacing="5"
       snapvisiblegridlinesonly="false" />
  </sodipodi:namedview>
  <defs
     id="defs356">
    <linearGradient
       id="linearGradient18497"
       inkscape:swatch="solid">
      <stop
         style="stop-color:#ff0000;stop-opacity:1;"
         offset="0"
         id="stop18495" />
    </linearGradient>
    <linearGradient
       id="linearGradient18491">
      <stop
         style="stop-color:#ff0000;stop-opacity:1;"
         offset="0"
         id="stop18489" />
    </linearGradient>
    <linearGradient
       id="linearGradient18458">
      <stop
         style="stop-color:#ff0000;stop-opacity:1;"
         offset="0"
         id="stop18456" />
    </linearGradient>
    <linearGradient
       id="linearGradient17700"
       inkscape:swatch="solid">
      <stop
         style="stop-color:#0000ff;stop-opacity:1;"
         offset="0"
         id="stop17698" />
    </linearGradient>
  </defs>
  <g
     inkscape:label="panel"
     inkscape:groupmode="layer"
     id="layer1">
    <rect
       style="fill:#2e3440;fill-opacity:1;stroke:#ffffff;stroke-width:0;stroke-linecap:round;stroke-miterlimit:0"
       id="rect1088"
       width="30.48"
       height="128.5"
       x="4.9508446e-07"
       y="4.1257027e-07" />
    <rect
       style="fill:#000000;fill-opacity:1;stroke:#ffffff;stroke-width:0;stroke-linecap:round;stroke-miterlimit:0"
       id="rect1194"
       width="30.48"
       height="70"
       x="4.4917553e-07"
       y="5.0000005" />
    <g
       aria-label="Trsh"
       id="text12157-6"
       style="font-size:4.23333px;font-family:GohuFont;-inkscape-font-specification:GohuFont;letter-spacing:0px;display:inline;fill:#999999;fill-opacity:1;stroke:#999999;stroke-width:0.1;stroke-dasharray:none;stroke-opacity:0.49846154;stroke-dashoffset:0;stroke-linecap:butt"
       transform="translate(4.000001,-54.648151)">
      <path
         d="m 10,88.967005 v -0.152963 h 1.058332 1.058333 V 88.967005 89.1179 H 11.66398 11.209227 v 1.209227 1.209228 H 11.058332 10.907437 V 90.327127 89.1179 H 10.454752 10 Z"
         style="font-weight:500;-inkscape-font-specification:'GohuFont Medium';fill:#999999;fill-opacity:1;stroke-width:0.1;stroke-dasharray:none;stroke:#999999;stroke-opacity:0.49846154;stroke-dashoffset:0;stroke-linecap:butt"
         id="path19713-2" />
      <path
         d="m 12.720245,90.478022 v -1.056265 h 0.150895 0.150895 v 0.150895 0.150895 h 0.152962 0.150895 v -0.150895 -0.150895 h 0.454752 0.452686 v 0.150895 0.150895 h 0.150895 0.150895 v 0.150895 0.150895 H 14.384225 14.23333 v -0.150895 -0.150895 h -0.452686 -0.454752 v 0.150895 0.150895 h -0.150895 -0.152962 v 0.756542 0.754476 H 12.87114 12.720245 Z"
         style="font-weight:500;-inkscape-font-specification:'GohuFont Medium';fill:#999999;fill-opacity:1;stroke-width:0.1;stroke-dasharray:none;stroke:#999999;stroke-opacity:0.49846154;stroke-dashoffset:0;stroke-linecap:butt"
         id="path19715-5" />
      <path
         d="m 15.44049,89.572652 v -0.150895 h 0.605647 0.605648 v 0.150895 0.148828 H 16.046137 15.44049 v 0.303857 0.303857 h 0.605647 0.605648 v 0.148828 0.152962 h 0.150895 0.150895 v 0.30179 0.30179 H 16.80268 16.651785 v 0.150896 0.150895 H 15.895242 15.1387 V 91.38546 91.234564 h 0.756542 0.756543 v -0.30179 -0.30179 H 16.046137 15.44049 V 90.478022 90.329194 H 15.289595 15.1387 V 90.025337 89.72148 h 0.150895 0.150895 z"
         style="font-weight:500;-inkscape-font-specification:'GohuFont Medium';fill:#999999;fill-opacity:1;stroke-width:0.1;stroke-dasharray:none;stroke:#999999;stroke-opacity:0.49846154;stroke-dashoffset:0;stroke-linecap:butt"
         id="path19717-0" />
      <path
         d="m 17.557155,90.025337 v -1.513085 h 0.150895 0.150895 v 0.605648 0.605647 h 0.152962 0.150895 v -0.150895 -0.150895 h 0.454752 0.452685 v 0.150895 0.150895 h 0.150895 0.150895 v 0.90537 0.907438 h -0.150895 -0.150895 v -0.907438 -0.90537 h -0.452685 -0.454752 v 0.150895 0.150895 h -0.150895 -0.152962 v 0.756542 0.754476 H 17.70805 17.557155 Z"
         style="font-weight:500;-inkscape-font-specification:'GohuFont Medium';fill:#999999;fill-opacity:1;stroke-width:0.1;stroke-dasharray:none;stroke:#999999;stroke-opacity:0.49846154;stroke-dashoffset:0;stroke-linecap:butt"
         id="path19719-1" />
    </g>
    <g
       aria-label="R"
       id="text19643-5"
       style="font-weight:500;font-size:4.23333px;font-family:GohuFont;-inkscape-font-specification:'GohuFont Medium';display:inline;fill:#999999;fill-opacity:1;stroke:#999999;stroke-width:0.1;stroke-dasharray:none;stroke-opacity:0.49846154;stroke-dashoffset:0;stroke-linecap:butt"
       transform="translate(3.756543,-63.164081)">
      <path
         d="m 10.243458,83.166978 v -1.36219 H 11 11.756542 v 0.152962 0.150895 h 0.150895 0.150895 v 0.454752 0.452686 h -0.150895 -0.150895 v 0.150895 0.150895 h -0.150895 -0.152962 v 0.150895 0.152962 h 0.152962 0.150895 v 0.150895 0.150895 h 0.150895 0.150895 v 0.30179 0.30179 H 11.907437 11.756542 V 84.22531 83.92352 H 11.605647 11.452685 V 83.772625 83.62173 h -0.148828 -0.152962 v -0.152962 -0.150895 h -0.30179 -0.303857 v 0.605647 0.60358 h -0.150895 -0.150895 z m 1.513084,-0.603581 v -0.454752 h -0.605647 -0.605647 v 0.454752 0.452686 h 0.605647 0.605647 z"
         id="path19722-5"
         style="fill:#999999;fill-opacity:1;stroke-width:0.1;stroke-dasharray:none;stroke:#999999;stroke-opacity:0.49846154;stroke-dashoffset:0;stroke-linecap:butt" />
    </g>
    <g
       aria-label="Rst"
       id="text21497"
       style="font-weight:500;font-size:4.23333px;font-family:GohuFont;-inkscape-font-specification:'GohuFont Medium';fill:#999999;fill-opacity:1;stroke:#999999;stroke-width:0.1;stroke-dasharray:none;stroke-opacity:0.49846154;stroke-dashoffset:0;stroke-linecap:butt"
       transform="translate(0,5)">
      <path
         d="m 14,60.527981 v -1.362189 h 0.756542 0.756543 v 0.152962 0.150895 h 0.150895 0.150895 v 0.454752 0.452685 H 15.66398 15.513085 v 0.150895 0.150895 h -0.150896 -0.152962 v 0.150896 0.152962 h 0.152962 0.150896 v 0.150895 0.150895 h 0.150895 0.150895 v 0.30179 0.30179 H 15.66398 15.513085 v -0.30179 -0.30179 h -0.150896 -0.152962 v -0.150895 -0.150895 h -0.148828 -0.152962 v -0.152962 -0.150896 h -0.30179 -0.303857 v 0.605648 0.60358 H 14.150895 14 Z m 1.513085,-0.60358 V 59.469649 H 14.907437 14.30179 v 0.454752 0.452685 h 0.605647 0.605648 z"
         id="path21564"
         style="fill:#999999;fill-opacity:1;stroke-width:0.1;stroke-dasharray:none;stroke:#999999;stroke-opacity:0.49846154;stroke-dashoffset:0;stroke-linecap:butt" />
      <path
         d="m 16.720245,59.924401 v -0.150895 h 0.605647 0.605647 v 0.150895 0.148828 h -0.605647 -0.605647 v 0.303857 0.303858 h 0.605647 0.605647 v 0.148828 0.152962 h 0.150895 0.150896 v 0.30179 0.30179 h -0.150896 -0.150895 v 0.150895 0.150895 h -0.756542 -0.756542 v -0.150895 -0.150895 h 0.756542 0.756542 v -0.30179 -0.30179 H 17.325892 16.720245 V 60.829772 60.680944 H 16.56935 16.418455 v -0.303858 -0.303857 h 0.150895 0.150895 z"
         id="path21566"
         style="fill:#999999;fill-opacity:1;stroke-width:0.1;stroke-dasharray:none;stroke:#999999;stroke-opacity:0.49846154;stroke-dashoffset:0;stroke-linecap:butt" />
      <path
         d="m 19.442557,59.318754 v -0.454752 h 0.150895 0.150895 v 0.454752 0.454752 h 0.303857 0.30179 v 0.150895 0.150895 h -0.30179 -0.303857 v 0.754476 0.756542 h 0.303857 0.30179 v 0.150895 0.150895 h -0.30179 -0.303857 v -0.150895 -0.150895 h -0.150895 -0.150895 v -0.756542 -0.754476 h -0.150895 -0.150895 v -0.150895 -0.150895 h 0.150895 0.150895 z"
         id="path21568"
         style="fill:#999999;fill-opacity:1;stroke-width:0.1;stroke-dasharray:none;stroke:#999999;stroke-opacity:0.49846154;stroke-dashoffset:0;stroke-linecap:butt" />
    </g>
    <g
       aria-label="Trg"
       id="text29581"
       style="display:inline;font-weight:500;font-size:2.82222px;font-family:GohuFont;-inkscape-font-specification:'GohuFont Medium';fill:#ffffff;stroke:#ffffff;stroke-width:0.1;stroke-dasharray:none;stroke-opacity:0.5">
      <path
         d="M 16.529165,120.10198 V 120 h 0.705555 0.705555 v 0.10198 0.10059 h -0.30179 -0.303168 v 0.80615 0.80616 H 17.23472 17.134124 v -0.80616 -0.80615 h -0.301791 -0.303168 z"
         id="path29587"
         style="stroke-width:0.1;stroke-dasharray:none;stroke:#ffffff;stroke-opacity:0.5" />
      <path
         d="m 18.342662,121.10932 v -0.70418 h 0.100597 0.100597 v 0.1006 0.1006 h 0.101974 0.100597 v -0.1006 -0.1006 h 0.303168 0.30179 v 0.1006 0.1006 h 0.100597 0.100597 v 0.10059 0.1006 h -0.100597 -0.100597 v -0.1006 -0.10059 h -0.30179 -0.303168 v 0.10059 0.1006 H 18.64583 18.543856 v 0.50436 0.50299 h -0.100597 -0.100597 z"
         id="path29589"
         style="stroke-width:0.1;stroke-dasharray:none;stroke:#ffffff;stroke-opacity:0.5" />
      <path
         d="m 20.156159,120.50574 v -0.1006 h 0.504362 0.505739 v 0.90675 0.90675 h -0.101974 -0.100597 v 0.1006 0.10059 h -0.403765 -0.403765 v -0.10059 -0.1006 h 0.403765 0.403765 v -0.30317 -0.30179 h -0.100597 -0.100597 v 0.1006 0.1006 h -0.303168 -0.303168 v -0.1006 -0.1006 h -0.100597 -0.100596 v -0.50436 -0.50298 h 0.100596 0.100597 z m 0.80753,0.50298 v -0.40238 h -0.403765 -0.403765 v 0.50298 0.50436 h 0.303168 0.303168 v -0.10059 -0.1006 h 0.100597 0.100597 z"
         id="path29591"
         style="stroke-width:0.1;stroke-dasharray:none;stroke:#ffffff;stroke-opacity:0.5" />
    </g>
    <g
       aria-label="CV"
       id="text29585"
       style="display:inline;font-weight:500;font-size:2.82223px;font-family:GohuFont;-inkscape-font-specification:'GohuFont Medium';fill:#ffffff;stroke:#ffffff;stroke-width:0.1;stroke-dasharray:none;stroke-opacity:0.5">
      <path
         d="M 24.873221,120.10198 V 120 h 0.403766 0.403767 v 0.10198 0.10059 h 0.100597 0.100597 v 0.1006 0.1006 h -0.100597 -0.100597 v -0.1006 -0.1006 h -0.403767 -0.403766 v 0.70556 0.70556 h 0.403766 0.403767 v -0.1006 -0.1006 h 0.100597 0.100597 v 0.1006 0.1006 h -0.100597 -0.100597 v 0.1006 0.10059 h -0.403767 -0.403766 v -0.10059 -0.1006 h -0.100597 -0.100597 v -0.70556 -0.70556 h 0.100597 0.100597 z"
         id="path29594"
         style="stroke-width:0.1;stroke-dasharray:none;stroke:#ffffff;stroke-opacity:0.5" />
      <path
         d="m 26.284336,120.40377 v -0.40239 h 0.100597 0.100597 v 0.40239 0.40376 h 0.101975 0.101976 v 0.3018 0.30316 h 0.199816 0.202572 v -0.30316 -0.3018 h 0.100597 0.100597 v -0.40376 -0.40239 h 0.100597 0.100597 v 0.40239 0.40376 H 27.39366 27.293063 v 0.3018 0.30316 h -0.100597 -0.100597 v 0.2012 0.20119 h -0.202572 -0.199816 v -0.20119 -0.2012 H 26.587505 26.48553 v -0.30316 -0.3018 h -0.100597 -0.100597 z"
         id="path29596"
         style="stroke-width:0.1;stroke-dasharray:none;stroke:#ffffff;stroke-opacity:0.5" />
    </g>
    <g
       aria-label="Chaos Maps"
       id="text44785"
       style="display:inline;font-weight:500;font-size:4.23333px;font-family:GohuFont;-inkscape-font-specification:'GohuFont Medium';fill:#999999;fill-opacity:1;stroke:#999999;stroke-width:0.1;stroke-dasharray:none;stroke-opacity:0.49846154;stroke-dashoffset:0;stroke-linecap:butt"
       transform="translate(0,0.0096619)">
      <path
         d="M 3.7512877,6.5130908 V 6.3601287 H 4.356935 4.9625822 v 0.1529621 0.1508951 h 0.1508951 0.150895 V 6.8148809 6.965776 H 5.1134773 4.9625822 V 6.8148809 6.6639859 H 4.356935 3.7512877 V 7.7223183 8.7806508 H 4.356935 4.9625822 V 8.6297557 8.4788607 h 0.1508951 0.150895 v 0.150895 0.1508951 H 5.1134773 4.9625822 v 0.150895 0.1508951 H 4.356935 3.7512877 V 8.9315458 8.7806508 H 3.6003926 3.4494976 V 7.7223183 6.6639859 h 0.150895 0.1508951 z"
         id="path46245"
         style="fill:#999999;fill-opacity:1;stroke-width:0.1;stroke-dasharray:none;stroke:#999999;stroke-opacity:0.49846154;stroke-dashoffset:0;stroke-linecap:butt" />
      <path
         d="M 5.8679525,7.5714233 V 6.0583386 h 0.150895 0.1508951 v 0.6056473 0.6056473 h 0.1529621 0.150895 V 7.1187381 6.9678431 H 6.928352 7.3810371 v 0.150895 0.1508951 h 0.1508951 0.150895 V 8.1750035 9.0824409 H 7.5319322 7.3810371 V 8.1750035 7.2696332 H 6.928352 6.4735997 v 0.150895 0.1508951 H 6.3227047 6.1697426 V 8.3279656 9.0824409 H 6.0188475 5.8679525 Z"
         id="path46247"
         style="fill:#999999;fill-opacity:1;stroke-width:0.1;stroke-dasharray:none;stroke:#999999;stroke-opacity:0.49846154;stroke-dashoffset:0;stroke-linecap:butt" />
      <path
         d="M 8.5881975,7.1187381 V 6.9678431 H 9.1938447 9.799492 v 0.150895 0.1508951 H 9.9503871 10.103349 V 8.1750035 9.0824409 H 9.9503871 9.799492 V 8.9315458 8.7806508 H 9.648597 9.4977019 v 0.150895 0.1508951 H 9.0429497 8.5881975 V 8.9315458 8.7806508 H 8.4373024 8.2864073 V 8.3279656 7.8732134 H 8.4373024 8.5881975 V 7.7223183 7.5714233 H 9.1938447 9.799492 V 7.4205282 7.2696332 H 9.1938447 8.5881975 Z M 9.799492,8.1770706 V 7.8732134 H 9.1938447 8.5881975 V 8.3279656 8.7806508 H 9.0429497 9.4977019 V 8.6297557 8.4788607 H 9.648597 9.799492 Z"
         id="path46249"
         style="fill:#999999;fill-opacity:1;stroke-width:0.1;stroke-dasharray:none;stroke:#999999;stroke-opacity:0.49846154;stroke-dashoffset:0;stroke-linecap:butt" />
      <path
         d="m 11.006652,7.1187381 v -0.150895 h 0.605647 0.605648 v 0.150895 0.1508951 h 0.150895 0.150895 v 0.7544752 0.7565424 h -0.150895 -0.150895 v 0.150895 0.1508951 H 11.612299 11.006652 V 8.9315458 8.7806508 H 10.855757 10.704862 V 8.0241084 7.2696332 h 0.150895 0.150895 z m 1.211295,0.9053703 V 7.2696332 h -0.605648 -0.605647 v 0.7544752 0.7565424 h 0.605647 0.605648 z"
         id="path46251"
         style="fill:#999999;fill-opacity:1;stroke-width:0.1;stroke-dasharray:none;stroke:#999999;stroke-opacity:0.49846154;stroke-dashoffset:0;stroke-linecap:butt" />
      <path
         d="m 13.425107,7.1187381 v -0.150895 h 0.605648 0.605647 v 0.150895 0.148828 h -0.605647 -0.605648 v 0.3038572 0.3038571 h 0.605648 0.605647 v 0.148828 0.1529622 h 0.150895 0.150895 v 0.3017901 0.3017901 h -0.150895 -0.150895 v 0.150895 0.1508951 H 13.879859 13.123317 V 8.9315458 8.7806508 h 0.756542 0.756543 V 8.4788607 8.1770706 H 14.030755 13.425107 V 8.0241084 7.8752804 H 13.274212 13.123317 V 7.5714233 7.2675661 h 0.150895 0.150895 z"
         id="path46253"
         style="fill:#999999;fill-opacity:1;stroke-width:0.1;stroke-dasharray:none;stroke:#999999;stroke-opacity:0.49846154;stroke-dashoffset:0;stroke-linecap:butt" />
      <path
         d="M 17.658436,7.7223183 V 6.3621958 h 0.150895 0.150895 v 0.150895 0.1508951 h 0.150895 0.152963 v 0.150895 0.1529622 h 0.150895 0.152962 v 0.150895 0.148828 h 0.148828 0.150895 v -0.148828 -0.150895 h 0.152962 0.148828 V 6.8148809 6.6639859 h 0.152962 0.150895 V 6.5130908 6.3621958 h 0.150895 0.152962 V 7.7223183 9.0824409 H 19.624206 19.473311 V 8.0241084 6.9678431 h -0.150895 -0.152962 v 0.150895 0.148828 H 19.020626 18.867664 V 7.5714233 7.8732134 H 18.716769 18.567941 V 7.5714233 7.2675661 h -0.152962 -0.150895 v -0.148828 -0.150895 h -0.152963 -0.150895 v 1.0562653 1.0583325 h -0.150895 -0.150895 z"
         id="path46255"
         style="fill:#999999;fill-opacity:1;stroke-width:0.1;stroke-dasharray:none;stroke:#999999;stroke-opacity:0.49846154;stroke-dashoffset:0;stroke-linecap:butt" />
      <path
         d="m 20.680472,7.1187381 v -0.150895 h 0.605647 0.605647 v 0.150895 0.1508951 h 0.150895 0.152962 V 8.1750035 9.0824409 H 22.042661 21.891766 V 8.9315458 8.7806508 h -0.150895 -0.150895 v 0.150895 0.1508951 H 21.135224 20.680472 V 8.9315458 8.7806508 H 20.529577 20.378682 V 8.3279656 7.8732134 h 0.150895 0.150895 V 7.7223183 7.5714233 h 0.605647 0.605647 V 7.4205282 7.2696332 h -0.605647 -0.605647 z m 1.211294,1.0583325 V 7.8732134 h -0.605647 -0.605647 v 0.4547522 0.4526852 h 0.454752 0.454752 V 8.6297557 8.4788607 h 0.150895 0.150895 z"
         id="path46257"
         style="fill:#999999;fill-opacity:1;stroke-width:0.1;stroke-dasharray:none;stroke:#999999;stroke-opacity:0.49846154;stroke-dashoffset:0;stroke-linecap:butt" />
      <path
         d="M 22.797137,8.4788607 V 6.9678431 h 0.150895 0.150895 v 0.150895 0.1508951 h 0.152962 0.150895 V 7.1187381 6.9678431 h 0.454752 0.452685 v 0.150895 0.1508951 h 0.150895 0.150895 v 0.7544752 0.7565424 h -0.150895 -0.150895 v 0.150895 0.1508951 H 23.704574 23.098927 V 9.5371931 9.9898783 H 22.948032 22.797137 Z M 24.310221,8.0241084 V 7.2696332 h -0.452685 -0.454752 v 0.150895 0.1508951 h -0.150895 -0.152962 v 0.6035802 0.6056473 h 0.605647 0.605647 z"
         id="path46259"
         style="fill:#999999;fill-opacity:1;stroke-width:0.1;stroke-dasharray:none;stroke:#999999;stroke-opacity:0.49846154;stroke-dashoffset:0;stroke-linecap:butt" />
      <path
         d="m 25.517382,7.1187381 v -0.150895 h 0.605647 0.605647 v 0.150895 0.148828 h -0.605647 -0.605647 v 0.3038572 0.3038571 h 0.605647 0.605647 v 0.148828 0.1529622 h 0.150896 0.150895 v 0.3017901 0.3017901 h -0.150895 -0.150896 v 0.150895 0.1508951 H 25.972134 25.215592 V 8.9315458 8.7806508 h 0.756542 0.756542 V 8.4788607 8.1770706 H 26.123029 25.517382 V 8.0241084 7.8752804 H 25.366487 25.215592 V 7.5714233 7.2675661 h 0.150895 0.150895 z"
         id="path46261"
         style="fill:#999999;fill-opacity:1;stroke-width:0.1;stroke-dasharray:none;stroke:#999999;stroke-opacity:0.49846154;stroke-dashoffset:0;stroke-linecap:butt" />
    </g>
    <g
       aria-label="Trsh"
       id="text12157"
       style="display:inline;font-size:4.23333px;font-family:GohuFont;-inkscape-font-specification:GohuFont;letter-spacing:0px;fill:#ffffff;stroke:#ffffff;stroke-width:0.1;stroke-dasharray:none;stroke-opacity:0.5"
       transform="translate(0,-3.9999999)">
      <path
         d="m 10,88.967005 v -0.152963 h 1.058332 1.058333 V 88.967005 89.1179 H 11.66398 11.209227 v 1.209227 1.209228 H 11.058332 10.907437 V 90.327127 89.1179 H 10.454752 10 Z"
         style="font-weight:500;-inkscape-font-specification:'GohuFont Medium';stroke-width:0.1;stroke-dasharray:none;stroke:#ffffff;stroke-opacity:0.5"
         id="path19713" />
      <path
         d="m 12.720245,90.478022 v -1.056265 h 0.150895 0.150895 v 0.150895 0.150895 h 0.152962 0.150895 v -0.150895 -0.150895 h 0.454752 0.452686 v 0.150895 0.150895 h 0.150895 0.150895 v 0.150895 0.150895 H 14.384225 14.23333 v -0.150895 -0.150895 h -0.452686 -0.454752 v 0.150895 0.150895 h -0.150895 -0.152962 v 0.756542 0.754476 H 12.87114 12.720245 Z"
         style="font-weight:500;-inkscape-font-specification:'GohuFont Medium';stroke-width:0.1;stroke-dasharray:none;stroke:#ffffff;stroke-opacity:0.5"
         id="path19715" />
      <path
         d="m 15.44049,89.572652 v -0.150895 h 0.605647 0.605648 v 0.150895 0.148828 H 16.046137 15.44049 v 0.303857 0.303857 h 0.605647 0.605648 v 0.148828 0.152962 h 0.150895 0.150895 v 0.30179 0.30179 H 16.80268 16.651785 v 0.150896 0.150895 H 15.895242 15.1387 V 91.38546 91.234564 h 0.756542 0.756543 v -0.30179 -0.30179 H 16.046137 15.44049 V 90.478022 90.329194 H 15.289595 15.1387 V 90.025337 89.72148 h 0.150895 0.150895 z"
         style="font-weight:500;-inkscape-font-specification:'GohuFont Medium';stroke-width:0.1;stroke-dasharray:none;stroke:#ffffff;stroke-opacity:0.5"
         id="path19717" />
      <path
         d="m 17.557155,90.025337 v -1.513085 h 0.150895 0.150895 v 0.605648 0.605647 h 0.152962 0.150895 v -0.150895 -0.150895 h 0.454752 0.452685 v 0.150895 0.150895 h 0.150895 0.150895 v 0.90537 0.907438 h -0.150895 -0.150895 v -0.907438 -0.90537 h -0.452685 -0.454752 v 0.150895 0.150895 h -0.150895 -0.152962 v 0.756542 0.754476 H 17.70805 17.557155 Z"
         style="font-weight:500;-inkscape-font-specification:'GohuFont Medium';stroke-width:0.1;stroke-dasharray:none;stroke:#ffffff;stroke-opacity:0.5"
         id="path19719" />
    </g>
    <g
       aria-label="R"
       id="text19643"
       style="display:inline;font-weight:500;font-size:4.23333px;font-family:GohuFont;-inkscape-font-specification:'GohuFont Medium';fill:#ffffff;stroke:#ffffff;stroke-width:0.1;stroke-dasharray:none;stroke-opacity:0.5"
       transform="translate(0,-3.9999999)">
      <path
         d="m 10.243458,83.166978 v -1.36219 H 11 11.756542 v 0.152962 0.150895 h 0.150895 0.150895 v 0.454752 0.452686 h -0.150895 -0.150895 v 0.150895 0.150895 h -0.150895 -0.152962 v 0.150895 0.152962 h 0.152962 0.150895 v 0.150895 0.150895 h 0.150895 0.150895 v 0.30179 0.30179 H 11.907437 11.756542 V 84.22531 83.92352 H 11.605647 11.452685 V 83.772625 83.62173 h -0.148828 -0.152962 v -0.152962 -0.150895 h -0.30179 -0.303857 v 0.605647 0.60358 h -0.150895 -0.150895 z m 1.513084,-0.603581 v -0.454752 h -0.605647 -0.605647 v 0.454752 0.452686 h 0.605647 0.605647 z"
         id="path19722"
         style="stroke-width:0.1;stroke-dasharray:none;stroke:#ffffff;stroke-opacity:0.5" />
    </g>
    <g
       aria-label="Clock"
       id="text19647"
       style="display:inline;font-weight:500;font-size:4.23333px;font-family:GohuFont;-inkscape-font-specification:'GohuFont Medium';fill:#ffffff;stroke:#ffffff;stroke-width:0.1;stroke-dasharray:none;stroke-opacity:0.5"
       transform="translate(0,-3.9999999)">
      <path
         d="m 10.60358,96.016084 v -0.152962 h 0.605647 0.605648 v 0.152962 0.150895 h 0.150895 0.150895 v 0.150896 0.150895 H 11.96577 11.814875 V 96.317875 96.166979 H 11.209227 10.60358 v 1.058333 1.058332 h 0.605647 0.605648 v -0.150895 -0.150895 h 0.150895 0.150895 v 0.150895 0.150895 H 11.96577 11.814875 v 0.150895 0.150895 H 11.209227 10.60358 V 98.434539 98.283644 H 10.452685 10.30179 v -1.058332 -1.058333 h 0.150895 0.150895 z"
         id="path19702"
         style="stroke-width:0.1;stroke-dasharray:none;stroke:#ffffff;stroke-opacity:0.5" />
      <path
         d="m 13.024102,95.712227 v -0.148828 h 0.30179 0.303857 v 1.360123 1.360122 h 0.452686 0.452685 v 0.150895 0.150895 h -0.452685 -0.452686 v -0.150895 -0.150895 h -0.152962 -0.150895 v -1.209227 -1.209228 h -0.150895 -0.150895 z"
         id="path19704"
         style="stroke-width:0.1;stroke-dasharray:none;stroke:#ffffff;stroke-opacity:0.5" />
      <path
         d="m 15.44049,96.621732 v -0.150895 h 0.605647 0.605648 v 0.150895 0.150895 h 0.150895 0.150895 v 0.754475 0.756542 H 16.80268 16.651785 v 0.150895 0.150895 H 16.046137 15.44049 V 98.434539 98.283644 H 15.289595 15.1387 v -0.756542 -0.754475 h 0.150895 0.150895 z m 1.211295,0.90537 V 96.772627 H 16.046137 15.44049 v 0.754475 0.756542 h 0.605647 0.605648 z"
         id="path19706"
         style="stroke-width:0.1;stroke-dasharray:none;stroke:#ffffff;stroke-opacity:0.5" />
      <path
         d="m 17.858945,96.621732 v -0.150895 h 0.605647 0.605647 v 0.150895 0.150895 h 0.150895 0.150895 v 0.150895 0.150895 h -0.150895 -0.150895 v -0.150895 -0.150895 h -0.605647 -0.605647 v 0.754475 0.756542 h 0.605647 0.605647 v -0.150895 -0.150895 h 0.150895 0.150895 v 0.150895 0.150895 h -0.150895 -0.150895 v 0.150895 0.150895 H 18.464592 17.858945 V 98.434539 98.283644 H 17.70805 17.557155 v -0.756542 -0.754475 h 0.150895 0.150895 z"
         id="path19708"
         style="stroke-width:0.1;stroke-dasharray:none;stroke:#ffffff;stroke-opacity:0.5" />
      <path
         d="m 19.97561,97.074417 v -1.513085 h 0.150895 0.150895 v 0.907438 0.909504 h 0.303857 0.30179 v -0.152962 -0.150895 h 0.152962 0.148828 v -0.150895 -0.150895 h 0.152962 0.150895 v 0.150895 0.150895 h -0.150895 -0.152962 v 0.150895 0.152962 h -0.148828 -0.152962 v 0.148828 0.152962 h 0.152962 0.148828 v 0.150895 0.150895 h 0.152962 0.150895 v 0.150895 0.150895 h 0.150895 0.150895 v 0.150895 0.150895 H 21.639589 21.488694 V 98.434539 98.283644 H 21.337799 21.184837 V 98.132749 97.981854 H 21.036009 20.883047 V 97.830959 97.680064 H 20.581257 20.2774 v 0.452685 0.452685 H 20.126505 19.97561 Z"
         id="path19710"
         style="stroke-width:0.1;stroke-dasharray:none;stroke:#ffffff;stroke-opacity:0.5" />
    </g>
    <g
       aria-label="Tent"
       id="text20513"
       style="display:inline;font-weight:500;font-size:4.23333px;font-family:GohuFont;-inkscape-font-specification:'GohuFont Medium';fill:#ffffff;stroke:#ffffff;stroke-width:0.1;stroke-dasharray:none;stroke-opacity:0.5"
       transform="translate(0,-3.9999999)">
      <path
         d="m 5.7666678,105.01607 v -0.15296 h 1.0583325 1.0583324 v 0.15296 0.15089 H 7.4306476 6.9758953 v 1.20923 1.20923 H 6.8250003 6.6741052 v -1.20923 -1.20923 H 6.2214201 5.7666678 Z"
         id="path20635"
         style="stroke-width:0.1;stroke-dasharray:none;stroke:#ffffff;stroke-opacity:0.5" />
      <path
         d="m 8.7887029,105.62172 v -0.1509 h 0.6056473 0.6056473 v 0.1509 0.15089 h 0.1508955 0.150895 v 0.45269 0.45475 H 9.5452453 8.7887029 v 0.30179 0.30179 h 0.7565424 0.7565427 v 0.15089 0.1509 H 9.5452453 8.7887029 v -0.1509 -0.15089 H 8.6378079 8.4869128 v -0.75654 -0.75448 h 0.1508951 0.150895 z m 1.2112946,0.45268 v -0.30179 H 9.3943502 8.7887029 v 0.30179 0.30386 h 0.6056473 0.6056473 z"
         id="path20637"
         style="stroke-width:0.1;stroke-dasharray:none;stroke:#ffffff;stroke-opacity:0.5" />
      <path
         d="m 10.905368,106.52709 v -1.05627 h 0.756542 0.756542 v 0.1509 0.15089 h 0.150895 0.150896 v 0.90537 0.90744 h -0.150896 -0.150895 v -0.90744 -0.90537 h -0.605647 -0.605647 v 0.90537 0.90744 h -0.150895 -0.150895 z"
         id="path20639"
         style="stroke-width:0.1;stroke-dasharray:none;stroke:#ffffff;stroke-opacity:0.5" />
      <path
         d="m 13.92947,105.01607 v -0.45475 h 0.150895 0.150895 v 0.45475 0.45475 h 0.303857 0.30179 v 0.1509 0.15089 h -0.30179 -0.303857 v 0.75448 0.75654 h 0.303857 0.30179 v 0.15089 0.1509 h -0.30179 -0.303857 v -0.1509 -0.15089 H 14.080365 13.92947 v -0.75654 -0.75448 H 13.778575 13.62768 v -0.15089 -0.1509 h 0.150895 0.150895 z"
         id="path20641"
         style="stroke-width:0.1;stroke-dasharray:none;stroke:#ffffff;stroke-opacity:0.5" />
    </g>
    <g
       aria-label="nAdic"
       id="text20517"
       style="display:inline;font-weight:500;font-size:4.23333px;font-family:GohuFont;-inkscape-font-specification:'GohuFont Medium';fill:#ffffff;stroke:#ffffff;stroke-width:0.1;stroke-dasharray:none;stroke-opacity:0.5"
       transform="translate(0,-3.9999999)">
      <path
         d="m 3.4226245,113.52677 v -1.05626 h 0.7565423 0.7565423 v 0.15089 0.1509 h 0.1508951 0.150895 v 0.90537 0.90744 H 5.0866042 4.9357091 v -0.90744 -0.90537 H 4.3300618 3.7244146 v 0.90537 0.90744 H 3.5735195 3.4226245 Z"
         id="path20624"
         style="stroke-width:0.1;stroke-dasharray:none;stroke:#ffffff;stroke-opacity:0.5" />
      <path
         d="m 6.1428695,112.01576 v -0.15297 H 6.7485167 7.354164 v 0.15297 0.15089 h 0.1508951 0.150895 v 1.20923 1.20923 H 7.5050591 7.354164 v -0.60358 -0.60565 H 6.7485167 6.1428695 v 0.60565 0.60358 H 5.9919744 5.8410793 v -1.20923 -1.20923 h 0.1508951 0.1508951 z m 1.2112945,0.60564 v -0.45475 H 6.7485167 6.1428695 v 0.45475 0.45269 H 6.7485167 7.354164 Z"
         id="path20626"
         style="stroke-width:0.1;stroke-dasharray:none;stroke:#ffffff;stroke-opacity:0.5" />
      <path
         d="M 9.7726189,112.01576 V 111.561 h 0.1508951 0.152962 v 1.51309 1.51102 H 9.923514 9.7726189 v -0.1509 -0.15089 H 9.6217238 9.4708288 v 0.15089 0.1509 H 9.0160766 8.5613243 v -0.1509 -0.15089 H 8.4104293 8.2595342 v -0.75655 -0.75447 h 0.1508951 0.150895 v -0.1509 -0.15089 h 0.6056473 0.6056473 z m 0,1.36012 V 112.7723 H 9.1669716 8.5613243 v 0.75447 0.75655 h 0.4547523 0.4547522 v -0.1509 -0.15089 h 0.150895 0.1508951 z"
         id="path20628"
         style="stroke-width:0.1;stroke-dasharray:none;stroke:#ffffff;stroke-opacity:0.5" />
      <path
         d="m 10.677989,112.6214 v -0.15089 h 0.454752 0.452685 v 0.90537 0.90744 h 0.303857 0.301791 v 0.15089 0.1509 h -0.452686 -0.454752 v -0.90744 -0.90537 h -0.30179 -0.303857 z m 0.605647,-0.75654 V 111.561 h 0.150895 0.150895 v 0.30386 0.30179 h -0.150895 -0.150895 z"
         id="path20630"
         style="stroke-width:0.1;stroke-dasharray:none;stroke:#ffffff;stroke-opacity:0.5" />
      <path
         d="m 13.398234,112.6214 v -0.15089 h 0.605647 0.605648 v 0.15089 0.1509 h 0.150895 0.150895 v 0.15089 0.1509 h -0.150895 -0.150895 v -0.1509 -0.15089 h -0.605648 -0.605647 v 0.75447 0.75655 h 0.605647 0.605648 v -0.1509 -0.15089 h 0.150895 0.150895 v 0.15089 0.1509 h -0.150895 -0.150895 v 0.15089 0.1509 h -0.605648 -0.605647 v -0.1509 -0.15089 h -0.150895 -0.150895 v -0.75655 -0.75447 h 0.150895 0.150895 z"
         id="path20632"
         style="stroke-width:0.1;stroke-dasharray:none;stroke:#ffffff;stroke-opacity:0.5" />
    </g>
    <g
       aria-label="Lgstc"
       id="text20521"
       style="display:inline;font-weight:500;font-size:4.23333px;font-family:GohuFont;-inkscape-font-specification:'GohuFont Medium';fill:#ffffff;stroke:#ffffff;stroke-width:0.1;stroke-dasharray:none;stroke-opacity:0.5"
       transform="translate(0,-3.9999999)">
      <path
         d="m 3.2434565,120.22498 v -1.36012 h 0.150895 0.1508951 v 1.20923 1.20923 h 0.7565423 0.7565424 v 0.15089 0.1509 H 4.1508939 3.2434565 Z"
         id="path20613"
         style="stroke-width:0.1;stroke-dasharray:none;stroke:#ffffff;stroke-opacity:0.5" />
      <path
         d="m 5.9637015,119.6214 v -0.15089 h 0.7565423 0.7586094 v 1.36012 1.36012 H 7.3258911 7.174996 v 0.1509 0.15089 H 6.5693487 5.9637015 v -0.15089 -0.1509 H 6.5693487 7.174996 V 121.736 121.28332 H 7.024101 6.8732059 v 0.15089 0.1509 H 6.4184537 5.9637015 v -0.1509 -0.15089 H 5.8128064 5.6619114 v -0.75655 -0.75447 h 0.150895 0.1508951 z m 1.2112945,0.75448 V 119.7723 H 6.5693487 5.9637015 v 0.75447 0.75655 h 0.4547522 0.4547522 v -0.1509 -0.15089 H 7.024101 7.174996 Z"
         id="path20615"
         style="stroke-width:0.1;stroke-dasharray:none;stroke:#ffffff;stroke-opacity:0.5" />
      <path
         d="m 8.3821564,119.6214 v -0.15089 h 0.6056472 0.6056473 v 0.15089 0.14883 H 8.9878036 8.3821564 v 0.30386 0.30386 h 0.6056472 0.6056473 v 0.14882 0.15297 H 9.744346 9.895241 v 0.30179 0.30179 H 9.744346 9.5934509 v 0.15089 0.1509 H 8.8369086 8.0803662 v -0.1509 -0.15089 h 0.7565424 0.7565423 v -0.30179 -0.30179 H 8.9878036 8.3821564 v -0.15297 -0.14882 H 8.2312613 8.0803662 v -0.30386 -0.30386 h 0.1508951 0.1508951 z"
         id="path20617"
         style="stroke-width:0.1;stroke-dasharray:none;stroke:#ffffff;stroke-opacity:0.5" />
      <path
         d="M 11.104468,119.01576 V 118.561 h 0.150895 0.150895 v 0.45476 0.45475 h 0.303857 0.301791 v 0.15089 0.1509 h -0.301791 -0.303857 v 0.75447 0.75655 h 0.303857 0.301791 v 0.15089 0.1509 h -0.301791 -0.303857 v -0.1509 -0.15089 h -0.150895 -0.150895 v -0.75655 -0.75447 h -0.150895 -0.150895 v -0.1509 -0.15089 h 0.150895 0.150895 z"
         id="path20619"
         style="stroke-width:0.1;stroke-dasharray:none;stroke:#ffffff;stroke-opacity:0.5" />
      <path
         d="m 13.219066,119.6214 v -0.15089 h 0.605647 0.605648 v 0.15089 0.1509 h 0.150895 0.150895 v 0.15089 0.1509 h -0.150895 -0.150895 v -0.1509 -0.15089 h -0.605648 -0.605647 v 0.75447 0.75655 h 0.605647 0.605648 v -0.1509 -0.15089 h 0.150895 0.150895 v 0.15089 0.1509 h -0.150895 -0.150895 v 0.15089 0.1509 h -0.605648 -0.605647 v -0.1509 -0.15089 h -0.150895 -0.150895 v -0.75655 -0.75447 h 0.150895 0.150895 z"
         id="path20621"
         style="stroke-width:0.1;stroke-dasharray:none;stroke:#ffffff;stroke-opacity:0.5" />
    </g>
    <rect
       style="display:inline;fill:#eeeeee;fill-opacity:1;stroke:#00f1ff;stroke-width:0"
       id="rect11719"
       width="30.48"
       height="0.099999003"
       x="5.3511235e-07"
       y="97.5" />
    <rect
       style="display:inline;fill:#eeeeee;fill-opacity:1;stroke:#00f1ff;stroke-width:0"
       id="rect53354"
       width="30.48"
       height="0.099999003"
       x="5.3511235e-07"
       y="75" />
    <path
       style="display:inline;fill:#999999;fill-opacity:1;stroke-width:0.256427"
       d="m 0.02613625,128.01719 c -0.02434375,-0.54937 0.004625,-0.58835 0.42299623,-0.5684 0.37043688,0.0176 0.38642626,0.0333 0.0912544,0.0884 -0.26002561,0.0486 -0.3756831,0.20406 -0.42299622,0.5684 -0.06256438,0.4818 -0.06614188,0.47832 -0.09125441,-0.0884 z m 0.89930124,0.23593 c 0.0549875,-0.21017 0.21750751,-0.35389 0.40018061,-0.35389 0.1691769,0 0.307595,-0.0708 0.307595,-0.1573 0,-0.0865 -0.09951,-0.15727 -0.2211344,-0.15727 -0.1216237,0 -0.41735123,-0.17513 -0.65717309,-0.38916 -0.23982189,-0.21406 -0.47103812,-0.391 -0.51381312,-0.39323 -0.042775,-0.002 -0.0777725,-0.0394 -0.0777725,-0.0826 v -0.18814 c 0,-0.0603 0.23885747,0.10675 0.53079436,0.37092 0.35846245,0.32444 0.98927125,0.61531 1.94293315,0.89591 1.7049124,0.50165 1.923298,0.51331 1.891043,0.101 -0.017663,-0.22583 -0.1066388,-0.28947 -0.3154644,-0.22564 -0.2278131,0.0696 -0.2667544,0.027 -0.1796487,-0.19663 0.097495,-0.25032 0.077481,-0.25912 -0.1622688,-0.0714 -0.3578506,0.28028 -0.7905499,0.12038 -0.6698581,-0.24757 0.087589,-0.26703 0.080367,-0.26732 -0.1432493,-0.006 -0.3008362,0.35162 -0.4444606,0.34926 -0.4444606,-0.007 0,-0.20573 0.1221213,-0.27993 0.4491331,-0.27291 0.351543,0.008 0.4371068,0.0756 0.3937843,0.31342 -0.0466,0.25575 -0.016056,0.27236 0.1932206,0.10513 0.3458513,-0.27642 1.0870388,0.19316 1.0870388,0.68869 0,0.51995 -0.3492463,0.57307 -1.4092538,0.21427 l -0.9389717,-0.31783 -0.2921469,0.36572 c -0.1606831,0.20115 -0.2937825,0.28143 -0.29578,0.1784 -0.002,-0.103 0.069864,-0.23106 0.1596906,-0.28453 0.089828,-0.0535 0.1633219,-0.1623 0.1633219,-0.24184 0,-0.19298 -0.8463944,0.17506 -1.0942969,0.47585 -0.16416125,0.19916 -0.1809775,0.1803 -0.10344314,-0.11601 z m 0.91056871,-1.31653 c -0.4944068,-0.30491 -0.5247012,-0.30751 -0.4270818,-0.0366 0.064612,0.17927 -0.13865,0.064 -0.52787004,-0.2994 -0.52314813,-0.48841 -0.60178812,-0.63848 -0.45333876,-0.86506 0.15911437,-0.24286 0.42445251,-0.26781 2.3257632,-0.21872 1.8504342,0.0479 2.1461598,0.0219 2.1461598,-0.18733 0,-0.1335 -0.071086,-0.28504 -0.1579725,-0.33676 -0.086884,-0.0516 -0.1151512,-0.3002 -0.062814,-0.55222 0.0814,-0.39195 0.03675,-0.47231 -0.3087969,-0.55584 -0.2268937,-0.0549 -0.6708556,0.01 -1.01288,0.14738 -0.5385461,0.2167 -0.6369605,0.21803 -0.8514674,0.0113 -0.3190612,-0.30727 -0.4373643,-0.29515 -0.7908343,0.081 -0.162585,0.173 -0.3760863,0.31348 -0.4744476,0.31215 -0.098361,-0.001 -0.068597,-0.071 0.066143,-0.15487 0.1916143,-0.11925 0.1492406,-0.15299 -0.1945129,-0.15488 -0.24172249,-0.001 -0.48491811,0.0684 -0.54043375,0.15488 -0.0555187,0.0865 0.0320188,0.15979 0.19451314,0.16285 0.23515121,0.005 0.21211874,0.0515 -0.11285188,0.23036 -0.54981873,0.30268 -0.74154498,0.29223 -0.46913186,-0.0255 0.17474873,-0.20388 0.1791556,-0.27608 0.02,-0.32768 C 0.09186875,124.28531 0,124.18647 0,124.10206 c 0,-0.0844 0.07291312,-0.11013 0.16202812,-0.057 0.0891156,0.053 0.28228998,0.0316 0.42927623,-0.0476 0.32405126,-0.17464 0.0166437,-0.4221 -0.3541431,-0.28507 C 0.10672312,123.76055 0,123.73143 0,123.64765 c 0,-0.22438 0.54413435,-0.18524 0.89902561,0.0646 0.22902939,0.16127 0.42707999,0.17709 0.77119249,0.0616 0.3239288,-0.10875 0.604245,-0.0991 0.9331357,0.0321 0.355045,0.14163 0.5555423,0.1435 0.819123,0.007 0.1919543,-0.0989 0.5844674,-0.15794 0.8722537,-0.13114 0.4603719,0.0429 0.52452,0.10637 0.5338294,0.5278 0.00581,0.26348 0.062394,0.55979 0.125715,0.65846 0.1048637,0.16341 0.013181,1.4448 -0.1120088,1.56534 -0.029138,0.028 -0.2809131,-0.0255 -0.5595,-0.119 -0.3743731,-0.12568 -0.4798262,-0.23871 -0.4042068,-0.43324 0.089115,-0.22925 0.066768,-0.23535 -0.17325,-0.0472 -0.2226813,0.17444 -0.2755607,0.17622 -0.2755607,0.009 0,-0.1258 -0.093785,-0.0872 -0.2397881,0.0987 -0.1318842,0.16793 -0.2421255,0.24975 -0.2449824,0.18182 -0.00281,-0.0679 -0.1486075,-0.0495 -0.3238887,0.0408 -0.2337188,0.1205 -0.30221,0.28968 -0.256875,0.63468 0.034,0.25872 0.048794,0.46921 0.032881,0.46776 -0.015925,-10e-4 -0.2684075,-0.15034 -0.56109,-0.33084 z m 0.4504925,-0.13835 c 0,-0.0865 -0.032412,-0.15728 -0.072024,-0.15728 -0.039613,0 -0.117445,0.0707 -0.1729594,0.15728 -0.055519,0.0865 -0.023106,0.15728 0.072023,0.15728 0.095129,0 0.1729606,-0.0708 0.1729604,-0.15728 z m -1.0717543,-0.72046 c 0.3080112,-0.29663 0.1960843,-0.53781 -0.24958255,-0.53781 -0.39762813,0 -0.60554375,0.45314 -0.29484624,0.6426 0.28884874,0.17613 0.24369625,0.18482 0.54442879,-0.10475 z m 3.521573,0.0224 c 0,-0.12921 -0.1400419,-0.21599 -0.3266432,-0.20246 -0.4027843,0.0293 -0.4274793,0.22288 -0.040831,0.32019 0.1571969,0.0395 0.3041862,0.0801 0.3266431,0.0901 0.022456,0.01 0.040831,-0.0835 0.040831,-0.2079 z m -1.9598561,-0.26247 c 0,-0.20726 -0.9410957,-0.17093 -1.0774882,0.0416 -0.080054,0.12476 -0.006,0.15415 0.2353419,0.0934 0.1937013,-0.0489 0.3521837,-0.0268 0.3521837,0.049 0,0.0756 0.1102413,0.0969 0.2449813,0.047 0.13474,-0.0499 0.2449812,-0.15374 0.2449812,-0.23099 z m -0.7617575,-1.17338 c -0.1361213,-0.34161 0.2094487,-0.66288 0.4568012,-0.42466 0.2090563,0.20132 0.079545,0.67117 -0.1850062,0.67117 -0.095466,0 -0.2177725,-0.11088 -0.271795,-0.24651 z m 0.22004,-0.25484 c -0.052137,-0.12547 -0.090836,-0.0883 -0.098674,0.095 -0.00709,0.1658 0.031512,0.25871 0.08578,0.20643 0.054269,-0.0523 0.060075,-0.18792 0.012888,-0.30146 z"
       id="path1561"
       sodipodi:nodetypes="ssssssssssssssssssssssssssscsssssscssssssssssscscsssssssssssssssssssssssssscscsssssssssssssssssssssssssssss" />
  </g>
  <g
     inkscape:groupmode="layer"
     id="layer2"
     inkscape:label="components"
     style="display:none">
    <circle
       cx="7"
       cy="20"
       fill="#ff0000"
       id="r"
       style="display:inline;stroke-width:0.235186"
       inkscape:label="r"
       r="1.3229166mm" />
    <circle
       cx="7"
       cy="35"
       fill="#ff0000"
       id="thresh"
       style="display:inline;stroke-width:0.235186"
       inkscape:label="thresh"
       r="1.3229166mm" />
    <circle
       cx="7"
       cy="65"
       fill="#ff0000"
       id="reset"
       style="display:inline;fill:#ff0000;fill-opacity:1;stroke-width:0.235186"
       inkscape:label="reset"
       r="1.3229166mm" />
    <circle
       cx="6"
       cy="79"
       fill="#00ff00"
       id="r_in"
       style="display:inline;fill:#00ff00;fill-opacity:1;stroke-width:0.141111"
       inkscape:label="r"
       r="0.79374999mm" />
    <circle
       cx="6"
       cy="86"
       fill="#00ff00"
       id="thresh_in"
       style="display:inline;fill:#00ff00;fill-opacity:1;stroke-width:0.141111"
       inkscape:label="thresh"
       r="0.79374999mm" />
    <circle
       cx="6"
       cy="93"
       fill="#00ff00"
       id="clock"
       style="display:inline;fill:#00ff00;fill-opacity:1;stroke-width:0.141111"
       inkscape:label="clock"
       r="0.79374999mm" />
    <circle
       cx="19"
       cy="102"
       fill="#0000ff"
       id="tent"
       style="display:inline;mix-blend-mode:color;fill:#0000ff;fill-opacity:1;stroke-width:0.141111"
       inkscape:label="tent"
       r="0.79374999mm" />
    <circle
       cx="19"
       cy="109"
       fill="#0000ff"
       id="nadic"
       style="display:inline;mix-blend-mode:color;fill:#0000ff;fill-opacity:1;stroke-width:0.141111"
       inkscape:label="nadic"
       r="0.79374999mm" />
    <circle
       cx="19"
       cy="116"
       fill="#0000ff"
       id="logistic"
       style="display:inline;mix-blend-mode:color;fill:#0000ff;fill-opacity:1;stroke-width:0.141111"
       inkscape:label="logistic"
       r="0.79374999mm" />
    <circle
       cx="26"
       cy="102"
       fill="#0000ff"
       id="circle29573"
       style="display:inline;mix-blend-mode:color;fill:#0000ff;fill-opacity:1;stroke-width:0.141111"
       inkscape:label="tent"
       r="0.79374999mm" />
    <circle
       cx="26"
       cy="109"
       fill="#0000ff"
       id="circle29575"
       style="display:inline;mix-blend-mode:color;fill:#0000ff;fill-opacity:1;stroke-width:0.141111"
       inkscape:label="nadic"
       r="0.79374999mm" />
    <circle
       cx="26"
       cy="116"
       fill="#0000ff"
       id="circle29577"
       style="display:inline;mix-blend-mode:color;fill:#0000ff;fill-opacity:1;stroke-width:0.141111"
       inkscape:label="logistic"
       r="0.79374999mm" />
  </g>
</svg>
