<?xml version="1.0" encoding="UTF-8" standalone="no"?>
<!-- Created with Inkscape (http://www.inkscape.org/) -->

<svg
   width="30.48mm"
   height="128.5mm"
   viewBox="0 0 30.479999 128.5"
   version="1.1"
   id="svg359"
   inkscape:version="1.2.2 (b0a8486, 2022-12-01)"
   sodipodi:docname="Droplets.svg"
   xmlns:inkscape="http://www.inkscape.org/namespaces/inkscape"
   xmlns:sodipodi="http://sodipodi.sourceforge.net/DTD/sodipodi-0.dtd"
   xmlns="http://www.w3.org/2000/svg"
   xmlns:svg="http://www.w3.org/2000/svg">
  <sodipodi:namedview
     id="namedview361"
     pagecolor="#ffffff"
     bordercolor="#666666"
     borderopacity="1.0"
     inkscape:showpageshadow="false"
     inkscape:pageopacity="0.0"
     inkscape:pagecheckerboard="false"
     inkscape:deskcolor="#d1d1d1"
     inkscape:document-units="mm"
     showgrid="true"
     borderlayer="true"
     shape-rendering="auto"
     showguides="false"
     inkscape:lockguides="true"
     inkscape:zoom="1.8000002"
     inkscape:cx="69.166659"
     inkscape:cy="223.61109"
     inkscape:window-width="1920"
     inkscape:window-height="1019"
     inkscape:window-x="0"
     inkscape:window-y="0"
     inkscape:window-maximized="1"
     inkscape:current-layer="layer1">
    <inkscape:grid
       type="xygrid"
       id="grid480"
       dotted="false"
       spacingx="0.99999998"
       spacingy="0.99999998"
       originx="0"
       originy="0"
       units="mm"
       empspacing="5"
       snapvisiblegridlinesonly="false" />
  </sodipodi:namedview>
  <defs
     id="defs356">
    <linearGradient
       id="linearGradient4130"
       inkscape:swatch="solid">
      <stop
         style="stop-color:#ff0000;stop-opacity:1;"
         offset="0"
         id="stop4128" />
    </linearGradient>
    <linearGradient
       id="linearGradient18497">
      <stop
         style="stop-color:#ff0000;stop-opacity:1;"
         offset="0"
         id="stop18495" />
    </linearGradient>
    <linearGradient
       id="linearGradient18491">
      <stop
         style="stop-color:#ff0000;stop-opacity:1;"
         offset="0"
         id="stop18489" />
    </linearGradient>
    <linearGradient
       id="linearGradient18458">
      <stop
         style="stop-color:#ff0000;stop-opacity:1;"
         offset="0"
         id="stop18456" />
    </linearGradient>
    <linearGradient
       id="linearGradient17700">
      <stop
         style="stop-color:#0000ff;stop-opacity:1;"
         offset="0"
         id="stop17698" />
    </linearGradient>
  </defs>
  <g
     inkscape:label="panel"
     inkscape:groupmode="layer"
     id="layer1"
     style="display:inline">
    <rect
       style="fill:#b6b6b6;fill-opacity:1;stroke:#ffffff;stroke-width:0;stroke-linecap:round;stroke-miterlimit:0"
       id="rect1088"
       width="30.48"
       height="128.5"
       x="4.9508441e-07"
       y="4.1257027e-07"
       inkscape:label="faceplate" />
    <path
       style="display:inline;fill:#000000;fill-opacity:1;stroke-width:0.256427"
       d="m 0.020909,128.11321 c -0.019475,-0.43943 0.0037,-0.47061 0.338397,-0.45465 0.2963495,0.0141 0.309141,0.0266 0.073004,0.0707 -0.2080205,0.0389 -0.3005465,0.16322 -0.338397,0.45465 -0.050052,0.38539 -0.052914,0.38261 -0.073004,-0.0707 z m 0.719441,0.18872 c 0.04399,-0.16811 0.174006,-0.28307 0.320145,-0.28307 0.135341,0 0.246076,-0.0566 0.246076,-0.12582 0,-0.0692 -0.07961,-0.1258 -0.176908,-0.1258 -0.0973,0 -0.333881,-0.14008 -0.5257385,-0.31128 -0.1918575,-0.17122 -0.3768305,-0.31276 -0.4110505,-0.31454 -0.03422,-0.002 -0.062218,-0.0315 -0.062218,-0.0661 v -0.15049 c 0,-0.0482 0.191086,0.0854 0.4246355,0.29669 0.28677,0.25952 0.7914175,0.49218 1.5543465,0.71662 1.36393,0.40126 1.538638,0.41059 1.512834,0.0808 -0.01413,-0.18064 -0.08531,-0.23154 -0.252371,-0.18048 -0.182251,0.0557 -0.213404,0.0216 -0.143719,-0.15728 0.078,-0.20023 0.06198,-0.20727 -0.129815,-0.0571 -0.286281,0.22419 -0.63244,0.0963 -0.535887,-0.19802 0.07007,-0.21359 0.06429,-0.21383 -0.114599,-0.005 -0.240669,0.28125 -0.355568,0.27936 -0.355568,-0.006 0,-0.16456 0.0977,-0.22391 0.359306,-0.2183 0.281234,0.006 0.349685,0.0605 0.315027,0.2507 -0.03728,0.20457 -0.01285,0.21786 0.154577,0.0841 0.276681,-0.2211 0.869631,0.15451 0.869631,0.55087 0,0.4159 -0.279397,0.45839 -1.127403,0.17139 l -0.751177,-0.25422 -0.233718,0.29253 c -0.128546,0.1609 -0.235026,0.22511 -0.236624,0.1427 -0.0016,-0.0824 0.05589,-0.18482 0.127753,-0.22759 0.07186,-0.0428 0.130657,-0.12982 0.130657,-0.19344 0,-0.15436 -0.677115,0.14002 -0.8754375,0.38062 -0.131329,0.1593 -0.144782,0.14422 -0.082755,-0.0928 z m 0.728455,-1.05307 c -0.395525,-0.24389 -0.419761,-0.24597 -0.341665,-0.0293 0.05169,0.1434 -0.11092,0.0512 -0.4222965,-0.23948 -0.4185185,-0.39067 -0.4814305,-0.51071 -0.362671,-0.69194 0.1272915,-0.19426 0.339562,-0.21422 1.8606105,-0.17495 1.480347,0.0383 1.716928,0.0175 1.716928,-0.14984 0,-0.10679 -0.05687,-0.228 -0.126378,-0.26937 -0.06951,-0.0413 -0.09212,-0.24013 -0.05025,-0.44171 0.06512,-0.31352 0.0294,-0.37779 -0.247038,-0.44461 -0.181515,-0.0439 -0.536684,0.008 -0.810304,0.11789 -0.430836,0.17333 -0.509568,0.1744 -0.681173,0.009 -0.255249,-0.24578 -0.349892,-0.23609 -0.632668,0.0648 -0.130068,0.13838 -0.300869,0.25074 -0.3795581,0.24968 -0.078689,-8e-4 -0.054878,-0.0568 0.052914,-0.12388 0.153292,-0.0954 0.119393,-0.12237 -0.1556098,-0.12388 -0.193378,-8e-4 -0.3879345,0.0547 -0.432347,0.12388 -0.044415,0.0692 0.025615,0.12782 0.1556105,0.13026 0.1881209,0.004 0.169695,0.0412 -0.090281,0.18426 -0.439855,0.24211 -0.593236,0.23375 -0.3753055,-0.0204 0.139799,-0.16308 0.1433245,-0.22083 0.016,-0.26211 C 0.073495,125.12815 0,125.04909 0,124.98158 c 0,-0.0675 0.058331,-0.0881 0.1296225,-0.0456 0.071293,0.0424 0.225832,0.0253 0.343421,-0.0381 0.259241,-0.13969 0.013315,-0.33763 -0.2833145,-0.22802 C 0.0853785,124.70841 0,124.68512 0,124.6181 c 0,-0.17947 0.4353075,-0.14817 0.7192205,0.0517 0.1832235,0.129 0.3416645,0.14166 0.6169545,0.0493 0.259143,-0.087 0.483396,-0.0793 0.746508,0.0257 0.284036,0.11329 0.444434,0.11479 0.655299,0.006 0.153563,-0.0791 0.467573,-0.12633 0.697802,-0.10489 0.368298,0.0343 0.419616,0.0851 0.427064,0.42217 0.0046,0.21076 0.04992,0.44777 0.100572,0.52669 0.08389,0.13071 0.01055,1.15567 -0.08961,1.25209 -0.02331,0.0224 -0.22473,-0.0204 -0.4476,-0.0952 -0.299498,-0.10053 -0.383861,-0.19094 -0.323365,-0.34654 0.07129,-0.18337 0.05341,-0.18825 -0.1386,-0.0378 -0.178145,0.13953 -0.220449,0.14095 -0.220449,0.007 0,-0.10063 -0.07503,-0.0697 -0.19183,0.0789 -0.105508,0.13433 -0.193701,0.19977 -0.195986,0.14544 -0.0023,-0.0543 -0.118886,-0.0396 -0.259111,0.0326 -0.186975,0.0964 -0.241768,0.23171 -0.2055,0.50767 0.0272,0.20695 0.03904,0.37531 0.0263,0.37415 -0.01274,-8e-4 -0.214726,-0.12025 -0.448872,-0.26463 z m 0.360394,-0.11066 c 0,-0.0692 -0.02593,-0.12581 -0.05762,-0.12581 -0.03169,0 -0.09396,0.0566 -0.138367,0.12581 -0.04441,0.0692 -0.01849,0.1258 0.05762,0.1258 0.0761,0 0.138368,-0.0566 0.138367,-0.1258 z m -0.8574035,-0.57628 c 0.2464095,-0.23727 0.1568675,-0.43019 -0.199666,-0.43019 -0.3181025,0 -0.484435,0.36246 -0.235877,0.514 0.231079,0.14089 0.194957,0.14784 0.435543,-0.0838 z m 2.8172585,0.0179 c 0,-0.10335 -0.112034,-0.17276 -0.261315,-0.16194 -0.322227,0.0234 -0.341983,0.17828 -0.03266,0.25611 0.125758,0.0316 0.243349,0.0641 0.261315,0.0721 0.01797,0.008 0.03266,-0.0668 0.03266,-0.16629 z m -1.567885,-0.20994 c 0,-0.16578 -0.752876,-0.13673 -0.86199,0.0333 -0.06404,0.0998 -0.0048,0.1233 0.188273,0.0747 0.154961,-0.0391 0.281747,-0.0214 0.281747,0.0392 0,0.0605 0.08819,0.0775 0.195985,0.0376 0.107792,-0.0399 0.195985,-0.12297 0.195985,-0.18476 z m -0.609406,-0.93857 c -0.108897,-0.27324 0.167559,-0.53022 0.365441,-0.33967 0.167245,0.16103 0.06364,0.53685 -0.148005,0.53685 -0.07637,0 -0.174218,-0.0887 -0.217436,-0.19718 z m 0.176032,-0.20384 c -0.04171,-0.10036 -0.07267,-0.0706 -0.07894,0.076 -0.0057,0.13262 0.02521,0.20694 0.06862,0.16512 0.04341,-0.0418 0.04806,-0.15031 0.01031,-0.24113 z"
       id="path1561"
       sodipodi:nodetypes="ssssssssssssssssssssssssssscsssssscssssssssssscscsssssssssssssssssssssssssscscsssssssssssssssssssssssssssss"
       inkscape:label="logo" />
    <path
       style="fill:#000000;fill-opacity:0.5;stroke:#000000;stroke-width:0.25;stroke-linecap:butt;stroke-linejoin:miter;stroke-dasharray:none;stroke-dashoffset:0;stroke-opacity:1"
       d="M 30.48,90.125 C 0,90.125 0,90.125 0,90.125"
       id="path433" />
    <text
       xml:space="preserve"
       style="font-style:normal;font-variant:normal;font-weight:normal;font-stretch:normal;font-size:4.23333px;font-family:Trim;-inkscape-font-specification:Trim;direction:rtl;display:inline;fill:#000000;fill-opacity:1;stroke:#ff0000;stroke-width:0;stroke-linecap:round;stroke-miterlimit:0;stroke-dasharray:none;stroke-opacity:1"
       x="4.9999995"
       y="111.99999"
       id="text7620"><tspan
         sodipodi:role="line"
         id="tspan7618"
         style="fill:#000000;fill-opacity:1;stroke-width:0"
         x="4.9999995"
         y="111.99999" /></text>
    <g
       aria-label="FLOW"
       id="text1138"
       style="font-size:3.52777px;font-family:'\' Mono Regular';-inkscape-font-specification:'\' Mono Regular, ';text-align:center;text-anchor:middle;stroke:#000000;stroke-width:0">
      <path
         d="m 10.171167,14 h 1.548691 l 0.02117,0.02117 v 0.317499 l -0.02117,0.01764 h -1.213553 v 0.694971 h 1.040692 l 0.02117,0.02117 v 0.328083 l -0.02117,0.02117 h -1.040692 v 1.030109 l -0.01764,0.02117 H 10.171167 L 10.15,16.451801 v -2.430634 z"
         id="path1194" />
      <path
         d="m 12.245493,14 h 0.3175 l 0.01764,0.02117 v 2.084912 h 1.20297 l 0.02117,0.02117 v 0.324555 l -0.02117,0.02117 h -1.538108 l -0.02117,-0.02117 v -2.430634 z"
         id="path1196" />
      <path
         d="m 14.806652,14 h 0.694971 q 0.391582,0.363361 0.539749,0.543277 v 1.386414 l -0.539749,0.543276 H 14.806652 L 14.273959,15.929691 V 14.543277 Q 14.326875,14.465666 14.806652,14 Z m -0.176388,0.684388 v 1.104192 l 0.328082,0.317499 h 0.398638 l 0.317499,-0.317499 v -1.104192 l -0.317499,-0.328083 h -0.398638 z"
         id="path1198" />
      <path
         d="m 16.499982,14 h 0.317499 l 0.01764,0.02117 v 1.665107 l 0.04233,0.225778 h 0.01058 l 0.296333,-0.613832 v -0.571499 l 0.02117,-0.02117 h 0.313971 l 0.02117,0.02117 v 0.582082 q 0.01411,0.07761 0.296333,0.592665 l 0.04233,-0.225777 V 14.021167 L 17.900506,14 h 0.324555 l 0.02117,0.02117 v 1.696857 q -0.162277,0.754943 -0.204611,0.754943 h -0.317499 q -0.02822,0 -0.356305,-0.694971 l -0.366888,0.694971 h -0.328082 q -0.03881,0 -0.194028,-0.744359 v -1.707441 z"
         id="path1200" />
    </g>
    <g
       aria-label="VISC"
       id="text1192"
       style="font-size:3.52777px;font-family:'\' Mono Regular';-inkscape-font-specification:'\' Mono Regular, ';text-align:center;text-anchor:middle;stroke:#000000;stroke-width:0">
      <path
         d="m 10.521166,34.003527 h 0.3175 l 0.01764,0.02117 v 0.927803 q 0,0.03175 0.52211,1.065387 h 0.01058 q 0.472721,-0.94897 0.511527,-1.065387 v -0.927803 l 0.02117,-0.02117 h 0.324555 l 0.02117,0.02117 v 1.01247 q -0.691443,1.43933 -0.726721,1.43933 h -0.324555 q -0.03528,0 -0.716137,-1.432275 v -1.019525 z"
         id="path1203" />
      <path
         d="m 12.902411,33.999999 h 1.023054 l 0.02117,0.02117 v 0.317499 l -0.02117,0.02117 h -0.338666 v 1.749774 h 0.338666 l 0.02117,0.01764 v 0.328082 l -0.02117,0.02117 h -1.023054 l -0.02117,-0.02117 v -0.328082 l 0.02117,-0.01764 h 0.328083 v -1.749774 h -0.328083 l -0.02117,-0.02117 v -0.317499 z"
         id="path1205" />
      <path
         d="m 14.955576,34.007055 h 0.793748 q 0.479777,0.465665 0.479777,0.49036 v 0.204611 l -0.01764,0.01764 h -0.3175 q -0.02117,0 -0.02117,-0.09172 L 15.59763,34.36336 h -0.500944 l -0.264582,0.275166 v 0.155222 l 0.264582,0.264582 h 0.652638 l 0.479777,0.49036 v 0.437444 l -0.479777,0.49036 h -0.793748 l -0.49036,-0.49036 v -0.204611 l 0.02117,-0.01764 h 0.324555 q 0.02117,0 0.03175,0.09878 l 0.253999,0.246944 h 0.500944 l 0.275166,-0.264583 V 35.689801 L 15.59763,35.425218 h -0.642054 l -0.49036,-0.49036 v -0.437443 z"
         id="path1207" />
      <path
         d="m 17.213347,34.003527 h 0.705554 l 0.183444,0.186972 q 0.01764,0.01058 0.123472,0.127 0.123472,0.119944 0.123472,0.126999 l 0.09525,0.09525 v 0.176389 l -0.0071,0.0071 h -0.349249 q -0.0071,-0.0035 -0.0071,-0.01411 v -0.01058 l 0.0035,-0.01058 -0.07408,-0.07408 q 0,-0.0071 -0.0071,-0.0071 0,-0.0071 -0.01411,-0.01058 0,-0.0071 -0.0071,-0.0071 0,-0.0035 -0.02469,-0.02822 l -0.03881,-0.03528 q 0,-0.01058 -0.07056,-0.08114 0,-0.0071 -0.04233,-0.04233 0,-0.0071 -0.0071,-0.0071 0,-0.0071 -0.0247,-0.02822 v -0.0035 h -0.416276 q -0.09878,0.09878 -0.09878,0.105833 -0.04233,0.03881 -0.04233,0.04233 -0.0035,0 -0.02822,0.03528 l -0.141111,0.137583 v 1.107719 l 0.310444,0.313972 h 0.416276 q 0,-0.0071 0.0247,-0.02469 0,-0.0071 0.0071,-0.0071 0,-0.01058 0.04233,-0.04233 0,-0.0071 0.07056,-0.07408 0,-0.0071 0.01058,-0.0071 0,-0.01058 0.01058,-0.01058 0,-0.0035 0.144638,-0.148167 l -0.0035,-0.01058 v -0.01058 q 0,-0.01411 0.0071,-0.01411 h 0.349249 l 0.0071,0.0035 v 0.179916 l -0.127,0.127 h -0.0071 q 0,0.0071 -0.03175,0.03528 -0.09172,0.09878 -0.09878,0.09878 v 0.01411 q -0.03175,0.02822 -0.03175,0.03175 -0.01058,0 -0.01058,0.01058 -0.0071,0 -0.05645,0.05644 -0.0071,0 -0.0071,0.0071 -0.01058,0 -0.01058,0.01058 -0.0071,0 -0.03528,0.03175 l -0.05644,0.05997 h -0.0071 q 0,0.01058 -0.01058,0.01058 0,0.0071 -0.03881,0.04233 h -0.69497 q -0.01411,0 -0.05645,-0.05292 l -0.190499,-0.186972 q -0.03175,-0.02822 -0.03175,-0.03528 0,-0.01058 -0.05292,-0.05997 l -0.20461,-0.204611 v -1.389941 q 0,-0.01058 0.0635,-0.06703 0,-0.0071 0.0071,-0.0071 0,-0.0071 0.186972,-0.194027 0,-0.0071 0.04233,-0.04939 z"
         id="path1209" />
    </g>
    <g
       aria-label="Droplets"
       id="text1214"
       style="font-size:3.52777px;font-family:'\' Mono Regular';-inkscape-font-specification:'\' Mono Regular, ';text-align:center;text-anchor:middle;stroke:#000000;stroke-width:0">
      <path
         d="m 7.5761663,5.0176387 h 1.4146358 q 0.3563048,0.4374435 0.5291655,0.7231928 v 1.01247 q 0,0.049389 -0.5291655,0.7337762 H 7.5761663 L 7.5549997,7.4659111 V 7.1413562 l 0.021167,-0.021167 H 7.7278604 V 5.3739435 H 7.5761663 L 7.5549997,5.3527768 V 5.0388053 Z M 8.0841652,5.3739435 V 7.1201896 H 8.8285247 L 9.1636629,6.6404129 V 5.8643035 q 0,-0.038806 -0.306916,-0.4374435 l -0.028222,-0.052916 z"
         id="path1216" />
      <path
         d="m 10.056191,5.7126094 h 0.328082 l 0.02117,0.021167 v 0.3174993 h 0.01058 q 0.423333,-0.3386659 0.462138,-0.3386659 h 0.49036 l 0.02117,0.021167 v 0.3174993 l -0.02117,0.021167 H 10.99105 q -0.03175,0 -0.58561,0.4198047 v 0.9736645 l -0.02117,0.021167 h -0.328082 l -0.02117,-0.021167 V 5.733776 Z"
         id="path1218" />
      <path
         d="m 12.271631,5.7055538 h 0.769054 q 0.455082,0.6314709 0.493888,0.7408318 V 6.746246 q 0,0.049389 -0.493888,0.7408317 H 12.271631 Q 11.788327,6.7956348 11.788327,6.746246 V 6.4463856 q 0.01411,-0.077611 0.483304,-0.7408318 z m 0.186972,0.3598326 -0.310444,0.4656656 v 0.1023054 q 0,0.028222 0.310444,0.4833045 h 0.405693 q 0.299861,-0.4586101 0.299861,-0.4833045 v -0.084666 q 0,-0.028222 -0.299861,-0.4727212 v -0.010583 z"
         id="path1220" />
      <path
         d="M 13.904992,8.1644096 V 5.7373038 l 0.02117,-0.017639 h 1.121831 q 0.479777,0.6843874 0.479777,0.7337762 V 6.746246 q 0,0.059972 -0.479777,0.7373039 H 14.27188 v 0.6808597 l -0.02117,0.021167 h -0.324555 z m 0.959553,-1.0406922 v -0.00706 Q 15.171461,6.6827461 15.171461,6.6474684 V 6.562802 q 0,-0.028222 -0.306916,-0.476249 H 14.27188 v 1.0371644 z"
         id="path1222" />
      <path
         d="m 15.933456,4.9999998 h 0.677332 l 0.02117,0.021167 v 2.0954954 h 0.328082 l 0.02117,0.021167 v 0.3280826 l -0.02117,0.021167 H 15.933456 L 15.91229,7.4659111 V 7.1378285 l 0.02117,-0.021167 h 0.328083 V 5.3704157 H 15.933456 L 15.91229,5.3492491 V 5.0211665 Z"
         id="path1224" />
      <path
         d="m 17.873732,5.7231927 h 0.723193 l 0.49036,0.5291655 v 0.5115267 l -0.02117,0.021167 H 17.75026 v 0.028222 l 0.28575,0.306916 h 0.88547 l 0.02117,0.021167 v 0.3245549 l -0.02117,0.021167 H 17.873732 L 17.393956,6.9473289 V 6.2523582 Q 17.591511,6.0159976 17.873732,5.7231927 Z M 17.75026,6.3969968 v 0.028222 h 0.970137 V 6.3969968 L 18.445231,6.0794975 H 18.03601 Z"
         id="path1226" />
      <path
         d="m 19.898674,5.0105831 h 0.317499 l 0.02117,0.021167 v 0.6843874 h 0.546804 l 0.01764,0.021167 v 0.3174993 l -0.01764,0.021167 H 20.23734 v 0.7373039 l 0.285749,0.306916 h 0.402166 l 0.01764,0.017639 v 0.3280826 l -0.01764,0.021167 H 20.360812 L 19.881035,6.9438011 V 6.0759697 h -0.328082 l -0.02117,-0.021167 V 5.7373038 l 0.02117,-0.021167 h 0.328082 V 5.0317498 Z"
         id="path1228" />
      <path
         d="m 21.697834,5.7126094 h 1.030108 l 0.02117,0.021167 v 0.3174993 l -0.02117,0.021167 h -0.888998 l -0.14111,0.1516941 v 0.042333 l 0.14111,0.1552219 h 0.726721 l 0.359833,0.3563047 v 0.338666 l -0.359833,0.3704158 h -1.217081 l -0.02117,-0.021167 V 7.1378285 l 0.02117,-0.021167 h 1.07597 L 22.565665,6.9755511 V 6.9226345 L 22.424554,6.7779959 h -0.72672 L 21.327418,6.4216912 V 6.0724419 Z"
         id="path1230" />
    </g>
    <g
       aria-label="DROP"
       id="text1303"
       style="font-size:3.52777px;font-family:'\' Mono Regular';-inkscape-font-specification:'\' Mono Regular, ';text-align:center;text-anchor:middle;stroke:#000000;stroke-width:0"
       transform="translate(-0.1599995)">
      <path
         d="m 12.521167,97.50353 h 1.414636 q 0.356305,0.437444 0.529165,0.723193 v 1.01247 q 0,0.04939 -0.529165,0.733776 H 12.521167 L 12.5,99.951802 v -0.324554 l 0.02117,-0.02117 h 0.151694 V 97.859835 H 12.521167 L 12.5,97.838668 v -0.313971 z m 0.507999,0.356305 v 1.746246 h 0.744359 l 0.335139,-0.479777 v -0.776109 q 0,-0.03881 -0.306916,-0.437444 l -0.02822,-0.05292 z"
         id="path1452" />
      <path
         d="m 14.930636,97.50353 h 1.262942 q 0.479776,0.465666 0.479776,0.49036 v 0.437444 l -0.469193,0.49036 0.469193,1.040692 -0.0071,0.01058 h -0.370416 q -0.05292,-0.04939 -0.243416,-0.52211 l -0.254,-0.529165 h -0.52211 v 1.030108 l -0.02117,0.02117 h -0.324555 l -0.02117,-0.02117 v -2.427105 z m 0.345721,0.356305 v 0.69497 h 0.765526 l 0.275167,-0.264582 v -0.155222 l -0.275167,-0.275166 z"
         id="path1454" />
      <path
         d="m 17.654077,97.500002 h 0.694971 q 0.391582,0.363361 0.539749,0.543277 v 1.386413 l -0.539749,0.543277 h -0.694971 l -0.532693,-0.543277 v -1.386413 q 0.05292,-0.07761 0.532693,-0.543277 z m -0.176388,0.684388 v 1.104192 l 0.328082,0.317499 h 0.398638 l 0.3175,-0.317499 V 98.18439 l -0.3175,-0.328083 h -0.398638 z"
         id="path1456" />
      <path
         d="m 19.347407,97.507058 h 1.252358 q 0.416277,0.380999 0.49036,0.486832 v 0.440971 l -0.49036,0.486833 h -0.91722 v 1.030108 l -0.02117,0.02117 h -0.313972 l -0.02117,-0.02117 v -2.427105 z m 0.335138,0.356305 v 0.691442 h 0.77611 l 0.264582,-0.264582 v -0.151694 l -0.264582,-0.275166 z"
         id="path1458" />
    </g>
    <g
       aria-label="CV"
       id="text1599"
       style="font-size:3.52777px;font-family:'\' Mono Regular';-inkscape-font-specification:'\' Mono Regular, ';text-align:center;text-anchor:middle;stroke:#000000;stroke-width:0"
       transform="translate(-1)">
      <path
         d="m 18.086166,105 h 0.705554 l 0.183444,0.18697 q 0.01764,0.0106 0.123472,0.127 0.123472,0.11995 0.123472,0.127 l 0.09525,0.0953 v 0.17639 l -0.0071,0.007 h -0.349249 q -0.0071,-0.004 -0.0071,-0.0141 v -0.0106 l 0.0035,-0.0106 -0.07408,-0.0741 q 0,-0.007 -0.0071,-0.007 0,-0.007 -0.01411,-0.0106 0,-0.007 -0.0071,-0.007 0,-0.004 -0.02469,-0.0282 l -0.03881,-0.0353 q 0,-0.0106 -0.07056,-0.0811 0,-0.007 -0.04233,-0.0423 0,-0.007 -0.0071,-0.007 0,-0.007 -0.02469,-0.0282 v -0.004 h -0.416277 q -0.09878,0.0988 -0.09878,0.10584 -0.04233,0.0388 -0.04233,0.0423 -0.0035,0 -0.02822,0.0353 l -0.141111,0.13758 v 1.10772 l 0.310444,0.31397 h 0.416277 q 0,-0.007 0.02469,-0.0247 0,-0.007 0.0071,-0.007 0,-0.0106 0.04233,-0.0423 0,-0.007 0.07056,-0.0741 0,-0.007 0.01058,-0.007 0,-0.0106 0.01058,-0.0106 0,-0.004 0.144638,-0.14817 l -0.0035,-0.0106 v -0.0106 q 0,-0.0141 0.0071,-0.0141 h 0.349249 l 0.0071,0.004 v 0.17992 l -0.127,0.127 h -0.0071 q 0,0.007 -0.03175,0.0353 -0.09172,0.0988 -0.09878,0.0988 v 0.0141 q -0.03175,0.0282 -0.03175,0.0318 -0.01058,0 -0.01058,0.0106 -0.0071,0 -0.05644,0.0564 -0.0071,0 -0.0071,0.007 -0.01058,0 -0.01058,0.0106 -0.0071,0 -0.03528,0.0318 l -0.05644,0.06 h -0.0071 q 0,0.0106 -0.01058,0.0106 0,0.007 -0.03881,0.0423 h -0.69497 q -0.01411,0 -0.05645,-0.0529 l -0.190499,-0.18697 q -0.03175,-0.0282 -0.03175,-0.0353 0,-0.0106 -0.05292,-0.06 l -0.20461,-0.20461 v -1.38994 q 0,-0.0106 0.0635,-0.067 0,-0.007 0.0071,-0.007 0,-0.007 0.186972,-0.19403 0,-0.007 0.04233,-0.0494 z"
         id="path1601" />
      <path
         d="m 19.793608,105 h 0.317499 l 0.01764,0.0212 v 0.9278 q 0,0.0318 0.52211,1.06539 h 0.01058 q 0.472721,-0.94897 0.511527,-1.06539 v -0.9278 L 21.194132,105 h 0.324555 l 0.02117,0.0212 v 1.01247 q -0.691443,1.43933 -0.726721,1.43933 h -0.324555 q -0.03528,0 -0.716137,-1.43228 v -1.01952 z"
         id="path1603" />
    </g>
    <g
       aria-label="CLK"
       id="text476"
       style="font-size:3.52777px;font-family:'\' Mono Regular';-inkscape-font-specification:'\' Mono Regular, ';text-align:center;text-anchor:middle;stroke:#000000;stroke-width:0"
       transform="translate(0,20.000001)">
      <path
         d="m 11.029166,54.503527 h 0.705554 l 0.183444,0.186972 q 0.01764,0.01058 0.123472,0.127 0.123472,0.119944 0.123472,0.126999 l 0.09525,0.09525 v 0.176389 l -0.0071,0.0071 h -0.349249 q -0.0071,-0.0035 -0.0071,-0.01411 v -0.01058 l 0.0035,-0.01058 -0.07408,-0.07408 q 0,-0.0071 -0.0071,-0.0071 0,-0.0071 -0.01411,-0.01058 0,-0.0071 -0.0071,-0.0071 0,-0.0035 -0.0247,-0.02822 l -0.0388,-0.03528 q 0,-0.01058 -0.07056,-0.08114 0,-0.0071 -0.04233,-0.04233 0,-0.0071 -0.0071,-0.0071 0,-0.0071 -0.02469,-0.02822 v -0.0035 h -0.416277 q -0.09878,0.09878 -0.09878,0.105833 -0.04233,0.03881 -0.04233,0.04233 -0.0035,0 -0.02822,0.03528 l -0.141111,0.137583 v 1.107719 l 0.310444,0.313972 h 0.416277 q 0,-0.0071 0.02469,-0.02469 0,-0.0071 0.0071,-0.0071 0,-0.01058 0.04233,-0.04233 0,-0.0071 0.07056,-0.07408 0,-0.0071 0.01058,-0.0071 0,-0.01058 0.01058,-0.01058 0,-0.0035 0.144639,-0.148167 l -0.0035,-0.01058 v -0.01058 q 0,-0.01411 0.0071,-0.01411 h 0.349249 l 0.0071,0.0035 v 0.179916 l -0.126999,0.127 h -0.0071 q 0,0.0071 -0.03175,0.03528 -0.09172,0.09878 -0.09878,0.09878 v 0.01411 q -0.03175,0.02822 -0.03175,0.03175 -0.01058,0 -0.01058,0.01058 -0.0071,0 -0.05644,0.05644 -0.0071,0 -0.0071,0.0071 -0.01058,0 -0.01058,0.01058 -0.0071,0 -0.03528,0.03175 l -0.05645,0.05997 h -0.0071 q 0,0.01058 -0.01058,0.01058 0,0.0071 -0.0388,0.04233 H 11.03601 q -0.01411,0 -0.05644,-0.05292 l -0.1905,-0.186972 q -0.03175,-0.02822 -0.03175,-0.03528 0,-0.01058 -0.05292,-0.05997 L 10.5,56.436745 v -1.389941 q 0,-0.01058 0.0635,-0.06703 0,-0.0071 0.0071,-0.0071 0,-0.0071 0.186971,-0.194027 0,-0.0071 0.04233,-0.04939 z"
         id="path485" />
      <path
         d="m 12.736607,54.503527 h 0.3175 l 0.01764,0.02117 v 2.084912 h 1.20297 l 0.02117,0.02117 v 0.324555 l -0.02117,0.02117 h -1.538108 l -0.02117,-0.02117 v -2.430633 z"
         id="path487" />
      <path
         d="m 14.78624,54.499999 h 0.328082 l 0.01764,0.02117 v 1.033637 h 0.215194 q 0.09878,-0.162278 0.758471,-1.054804 h 0.419804 v 0.02117 q -0.705554,0.998359 -0.871359,1.206497 l 0.871359,1.227664 v 0.02117 H 16.105627 Q 15.445934,56.083977 15.347156,55.9217 h -0.215194 v 1.033636 l -0.01764,0.02117 H 14.78624 l -0.02117,-0.02117 v -2.434161 z"
         id="path489" />
    </g>
  </g>
  <g
     inkscape:groupmode="layer"
     id="layer2"
     inkscape:label="components"
     style="display:none">
    <circle
       cx="13.000002"
       cy="23"
       fill="#ff0000"
       id="flow"
       style="display:inline;stroke:#ff0000;stroke-width:0;stroke-dasharray:none;stroke-opacity:1"
       inkscape:label="flow"
       r="1.3229166mm" />
    <circle
       cx="13.000002"
       cy="43"
       fill="#ff0000"
       id="visc"
       style="display:inline;stroke:#ff0000;stroke-width:0;stroke-dasharray:none;stroke-opacity:1"
       inkscape:label="visc"
       r="1.3229166mm" />
    <circle
       cx="6"
       cy="56"
       fill="#00ff00"
       id="in"
       style="display:inline;fill:#00ff00;fill-opacity:1;stroke:#ff0000;stroke-width:0;stroke-dasharray:none;stroke-opacity:1"
       inkscape:label="in"
       r="0.79374987mm" />
    <circle
       cx="25"
       cy="107"
       fill="#0000ff"
       id="poly_out"
       style="display:inline;fill:#0007ff;fill-opacity:1;stroke:#ff0000;stroke-width:0;stroke-dasharray:none;stroke-opacity:1"
       inkscape:label="poly"
       r="0.79374987mm" />
    <circle
       cx="25"
       cy="99"
       fill="#0000ff"
       id="drop_out"
       style="display:inline;fill:#0007ff;fill-opacity:1;stroke:#ff0000;stroke-width:0;stroke-dasharray:none;stroke-opacity:1"
       inkscape:label="drop"
       r="0.79374987mm" />
    <circle
       cx="6"
       cy="36"
       fill="#00ff00"
       id="visc_in"
       style="display:inline;fill:#00ff00;fill-opacity:1;stroke:#ff0000;stroke-width:0;stroke-dasharray:none;stroke-opacity:1"
       inkscape:label="visc"
       r="0.79374987mm" />
    <circle
       cx="6"
       cy="16"
       fill="#00ff00"
       id="flow_in"
       style="display:inline;fill:#00ff00;fill-opacity:1;stroke:#ff0000;stroke-width:0;stroke-dasharray:none;stroke-opacity:1"
       inkscape:label="flow"
       r="0.79374987mm" />
    <circle
       style="display:inline;fill:#ff00ff;fill-opacity:1;stroke-width:0;stroke-dasharray:none"
       id="l5"
       cx="25"
       cy="28"
       inkscape:label="l5"
       r="3" />
    <circle
       style="display:inline;fill:#ff00ff;fill-opacity:1;stroke-width:0;stroke-dasharray:none"
       id="l4"
       cx="25"
       cy="34"
       inkscape:label="l4"
       r="3" />
    <circle
       style="display:inline;fill:#ff00ff;fill-opacity:1;stroke-width:0;stroke-dasharray:none"
       id="l3"
       cx="25"
       cy="40"
       inkscape:label="l3"
       r="3" />
    <circle
       style="display:inline;fill:#ff00ff;fill-opacity:1;stroke-width:0;stroke-dasharray:none"
       id="l7"
       cx="25"
       cy="16"
       inkscape:label="l7"
       r="3" />
    <circle
       style="display:inline;fill:#ff00ff;fill-opacity:1;stroke-width:0;stroke-dasharray:none"
       id="l6"
       cx="25"
       cy="22"
       inkscape:label="l6"
       r="3" />
    <circle
       style="display:inline;fill:#ff00ff;fill-opacity:1;stroke-width:0;stroke-dasharray:none"
       id="l2"
       cx="25"
       cy="46"
       inkscape:label="l2"
       r="3" />
    <circle
       style="display:inline;fill:#ff00ff;fill-opacity:1;stroke-width:0;stroke-dasharray:none"
       id="l1"
       cx="25"
       cy="52"
       inkscape:label="l1"
       r="3" />
    <circle
       style="display:inline;fill:#ff00ff;fill-opacity:1;stroke-width:0;stroke-dasharray:none"
       id="l0"
       cx="25"
       cy="58"
       inkscape:label="l0"
       r="3" />
  </g>
</svg>
