<?xml version="1.0" encoding="UTF-8" standalone="no"?>
<!-- Created with Inkscape (http://www.inkscape.org/) -->

<svg
   width="40.639999mm"
   height="128.5mm"
   viewBox="0 0 40.64 128.5"
   version="1.1"
   id="svg470"
   inkscape:version="1.2.2 (b0a8486, 2022-12-01)"
   sodipodi:docname="Droplets.svg"
   xmlns:inkscape="http://www.inkscape.org/namespaces/inkscape"
   xmlns:sodipodi="http://sodipodi.sourceforge.net/DTD/sodipodi-0.dtd"
   xmlns="http://www.w3.org/2000/svg"
   xmlns:svg="http://www.w3.org/2000/svg">
  <sodipodi:namedview
     id="namedview472"
     pagecolor="#ffffff"
     bordercolor="#666666"
     borderopacity="1.0"
     inkscape:pageshadow="2"
     inkscape:pageopacity="1"
     inkscape:pagecheckerboard="false"
     inkscape:document-units="mm"
     showgrid="true"
     width="40.64mm"
     inkscape:zoom="4"
     inkscape:cx="40.875"
     inkscape:cy="393.875"
     inkscape:window-width="1920"
     inkscape:window-height="1019"
     inkscape:window-x="0"
     inkscape:window-y="0"
     inkscape:window-maximized="1"
     inkscape:current-layer="layer1"
     objecttolerance="20"
     guidetolerance="10000"
     showguides="true"
     inkscape:showpageshadow="false"
     inkscape:deskcolor="#d1d1d1"
     showborder="true">
    <inkscape:grid
       type="xygrid"
       id="grid1902"
       units="mm"
       dotted="false"
       originx="0"
       originy="0"
       spacingx="1"
       spacingy="1"
       snapvisiblegridlinesonly="false"
       visible="true"
       empspacing="10" />
  </sodipodi:namedview>
  <defs
     id="defs467" />
  <g
     inkscape:label="panel"
     inkscape:groupmode="layer"
     id="layer1"
     style="display:inline">
    <path
       id="rect981"
       style="display:inline;fill:#e8e5e0;stroke-width:0.247494"
       d="M 0,0 H 40.639998 V 128.5 H 0 Z" />
    <path
       style="display:inline;fill:#666666;fill-opacity:1;stroke-width:0.256427"
       d="m 16.361818,127.22687 c -0.03895,-0.87892 0.0074,-0.94127 0.676794,-0.90935 0.592699,0.0282 0.618282,0.0531 0.146007,0.14137 -0.416041,0.0778 -0.601093,0.32647 -0.676794,0.90936 -0.100103,0.77081 -0.105827,0.76526 -0.146007,-0.14138 z m 1.438882,0.37746 c 0.08798,-0.33624 0.348012,-0.56618 0.640289,-0.56618 0.270683,0 0.492152,-0.11324 0.492152,-0.25164 0,-0.13839 -0.159216,-0.25163 -0.353815,-0.25163 -0.194598,0 -0.667762,-0.28018 -1.051477,-0.62261 -0.383715,-0.34245 -0.753661,-0.62554 -0.822101,-0.62909 -0.06844,-0.004 -0.124436,-0.063 -0.124436,-0.13228 v -0.301 c 0,-0.0963 0.382172,0.1707 0.849271,0.59342 0.57354,0.51907 1.582834,0.98443 3.108693,1.43334 2.72786,0.80257 3.077277,0.82123 3.025669,0.16152 -0.02826,-0.36128 -0.170622,-0.4631 -0.504743,-0.36099 -0.364501,0.11141 -0.426807,0.0432 -0.287438,-0.31458 0.155991,-0.40047 0.12397,-0.41455 -0.25963,-0.11412 -0.572561,0.44842 -1.26488,0.19257 -1.071773,-0.39607 0.140142,-0.42721 0.128587,-0.42768 -0.229199,-0.01 -0.481338,0.56255 -0.711137,0.55877 -0.711137,-0.0117 0,-0.32913 0.195394,-0.44784 0.718613,-0.4366 0.562469,0.0121 0.699371,0.12104 0.630055,0.50142 -0.07456,0.40915 -0.02569,0.43574 0.309153,0.16814 0.553362,-0.44223 1.739262,0.30903 1.739262,1.10182 0,0.83186 -0.558794,0.91682 -2.254806,0.3428 l -1.502355,-0.50848 -0.467435,0.5851 c -0.257093,0.32181 -0.470052,0.45024 -0.473248,0.28541 -0.0032,-0.16484 0.111783,-0.36967 0.255505,-0.45521 0.143723,-0.0855 0.261315,-0.25965 0.261315,-0.38691 0,-0.30875 -1.354231,0.28008 -1.750875,0.76129 -0.262658,0.31865 -0.289564,0.28847 -0.165509,-0.18566 z m 1.45691,-2.10626 c -0.791051,-0.48781 -0.839522,-0.49198 -0.683331,-0.0587 0.10338,0.28681 -0.22184,0.10236 -0.844592,-0.47901 -0.837037,-0.7814 -0.962861,-1.02148 -0.725342,-1.38398 0.254583,-0.38854 0.679124,-0.42846 3.721221,-0.34992 2.960695,0.0765 3.433856,0.0351 3.433856,-0.29969 0,-0.21359 -0.113739,-0.45604 -0.252756,-0.53877 -0.139014,-0.0827 -0.184242,-0.4803 -0.100502,-0.88348 0.130239,-0.62708 0.0588,-0.75565 -0.494075,-0.88927 -0.36303,-0.0878 -1.073369,0.0156 -1.620608,0.23579 -0.861674,0.34669 -1.019137,0.34881 -1.362348,0.0184 -0.510498,-0.49159 -0.699783,-0.4722 -1.265335,0.12958 -0.260136,0.27679 -0.601738,0.50153 -0.759116,0.4994 -0.157378,-0.002 -0.109755,-0.11362 0.105829,-0.24777 0.306583,-0.19079 0.238785,-0.24477 -0.31122,-0.24778 -0.386756,-0.002 -0.775869,0.10938 -0.864694,0.24778 -0.08883,0.13839 0.05123,0.25564 0.311221,0.26055 0.376242,0.007 0.33939,0.0824 -0.180563,0.36853 -0.87971,0.48425 -1.186472,0.46753 -0.750611,-0.0409 0.279598,-0.32617 0.286649,-0.4417 0.032,-0.52424 C 16.46699,121.25639 16.32,121.09825 16.32,120.96321 c 0,-0.13503 0.116661,-0.17609 0.259245,-0.0912 0.142585,0.0848 0.451664,0.0506 0.686842,-0.0762 0.518482,-0.2794 0.02663,-0.6753 -0.566629,-0.45607 -0.208701,0.0771 -0.379458,0.0305 -0.379458,-0.10353 0,-0.35898 0.870615,-0.29636 1.438441,0.10346 0.366447,0.25802 0.683328,0.28332 1.233908,0.0985 0.518286,-0.17398 0.966792,-0.15855 1.493017,0.0514 0.568072,0.22659 0.888868,0.22958 1.310597,0.0123 0.307127,-0.15829 0.935148,-0.25269 1.395606,-0.20981 0.736595,0.0686 0.839232,0.17009 0.854127,0.84442 0.0093,0.42153 0.09983,0.89558 0.201144,1.05345 0.167782,0.26142 0.02109,2.31147 -0.179214,2.50433 -0.04662,0.0449 -0.449461,-0.0408 -0.8952,-0.19042 -0.598997,-0.20107 -0.767722,-0.3819 -0.646731,-0.69311 0.142584,-0.36677 0.106828,-0.37654 -0.2772,-0.0757 -0.35629,0.27908 -0.440897,0.28192 -0.440897,0.0148 0,-0.20126 -0.150057,-0.1395 -0.383661,0.15791 -0.211015,0.26866 -0.387401,0.39955 -0.391972,0.29088 -0.0045,-0.10868 -0.237772,-0.0793 -0.518222,0.0652 -0.37395,0.19273 -0.483536,0.46345 -0.411,1.01539 0.0544,0.41392 0.07807,0.75069 0.05261,0.74836 -0.02548,-0.002 -0.429452,-0.24052 -0.897744,-0.52931 z m 0.720788,-0.22135 c 0,-0.1384 -0.05186,-0.25163 -0.115237,-0.25163 -0.06338,0 -0.187911,0.11323 -0.276735,0.25163 -0.08883,0.13839 -0.03697,0.25163 0.115235,0.25163 0.152205,0 0.276737,-0.11324 0.276737,-0.25163 z m -1.714807,-1.15264 c 0.492818,-0.47456 0.313735,-0.86042 -0.399332,-0.86042 -0.636205,0 -0.96887,0.72496 -0.471754,1.02807 0.462158,0.28179 0.389914,0.2957 0.871086,-0.16765 z m 5.634517,0.0359 c 0,-0.20669 -0.224067,-0.34555 -0.522629,-0.3239 -0.644455,0.0467 -0.683967,0.35658 -0.06533,0.51226 0.251515,0.0633 0.486698,0.12821 0.522629,0.14427 0.03593,0.0161 0.06533,-0.13363 0.06533,-0.33263 z m -3.13577,-0.42001 c 0,-0.33158 -1.505753,-0.27346 -1.723981,0.0666 -0.128085,0.19957 -0.0096,0.2466 0.376547,0.14938 0.309922,-0.0781 0.563494,-0.0428 0.563494,0.0783 0,0.1211 0.176386,0.155 0.39197,0.0753 0.215584,-0.0797 0.39197,-0.24596 0.39197,-0.36956 z m -1.218812,-1.87724 c -0.217794,-0.54653 0.335118,-1.06051 0.730882,-0.6794 0.33449,0.32209 0.127273,1.07377 -0.29601,1.07377 -0.152746,0 -0.348436,-0.17747 -0.434872,-0.39437 z m 0.352064,-0.40771 c -0.08342,-0.20073 -0.145338,-0.14111 -0.157878,0.15203 -0.01134,0.26526 0.05042,0.41388 0.137247,0.33026 0.08683,-0.0836 0.09612,-0.30064 0.02062,-0.48229 z"
       id="path1561"
       sodipodi:nodetypes="ssssssssssssssssssssssssssscsssssscssssssssssscscsssssssssssssssssssssssssscscsssssssssssssssssssssssssssss" />
    <text
       xml:space="preserve"
       style="font-size:2.82223px;line-height:1.25;font-family:Ubuntu;-inkscape-font-specification:Ubuntu;stroke-width:0.264583"
       x="11"
       y="35"
       id="text14295"><tspan
         sodipodi:role="line"
         id="tspan14293"
         style="stroke-width:0.264583"
         x="11"
         y="35" /></text>
    <text
       xml:space="preserve"
       style="font-style:normal;font-variant:normal;font-weight:normal;font-stretch:normal;font-size:4.23333px;font-family:'Ubuntu Mono';-inkscape-font-specification:'Ubuntu Mono';fill:#666666;fill-opacity:1;stroke-width:0;stroke-dasharray:none"
       x="-57.282291"
       y="14.948958"
       id="text11765"><tspan
         sodipodi:role="line"
         id="tspan11763"
         style="stroke-width:0"
         x="-57.282291"
         y="14.948958" /></text>
    <g
       aria-label="&lt;"
       id="text11769"
       style="font-size:5.64444px;font-family:'Ubuntu Mono';-inkscape-font-specification:'Ubuntu Mono';fill:#666666;fill-opacity:1;stroke-width:0" />
    <g
       aria-label="DROPLETS"
       id="text3196"
       style="font-size:5.64444px;line-height:1.25;font-family:'Ubuntu Condensed';-inkscape-font-specification:'Ubuntu Condensed, ';stroke-width:0.264583"
       transform="translate(3e-7,0.500239)">
      <path
         d="m 12.172264,5.5430487 q 0,0.5475107 -0.118533,0.9313326 -0.112889,0.3781775 -0.333022,0.615244 -0.214488,0.2370665 -0.524933,0.3443108 -0.304799,0.1072444 -0.682977,0.1072444 -0.383822,0 -0.8127993,-0.1015999 V 3.6465168 q 0.2144887,-0.045156 0.4176883,-0.073378 0.2032,-0.028222 0.389467,-0.028222 0.383822,0 0.688621,0.1072444 0.310445,0.1072444 0.524933,0.3443109 0.220133,0.2370664 0.333022,0.6208884 0.118533,0.3781775 0.118533,0.9256882 z m -0.541866,0 q 0,-0.4176886 -0.06209,-0.7111995 -0.06209,-0.2935109 -0.191911,-0.4797774 -0.129822,-0.1862665 -0.34431,-0.2709331 -0.208845,-0.084667 -0.502356,-0.084667 -0.07902,0 -0.158044,0.00564 -0.07902,0.00564 -0.163689,0.016933 v 3.0479977 q 0.08467,0.011289 0.163689,0.016933 0.07902,0.00564 0.1524,0.00564 0.299155,0 0.508,-0.084667 0.208844,-0.084667 0.338666,-0.2652887 0.135467,-0.1862665 0.197555,-0.4797774 0.06209,-0.2935109 0.06209,-0.7168439 z"
         id="path3248" />
      <path
         d="m 12.956832,3.6465168 q 0.395111,-0.095956 0.762,-0.095956 0.29351,0 0.530577,0.067733 0.237066,0.067733 0.4064,0.2144887 0.169333,0.1467554 0.259644,0.3781775 0.09596,0.231422 0.09596,0.5587996 0,0.4063997 -0.158044,0.6603995 -0.1524,0.2483553 -0.417689,0.3781775 0.06773,0.1128888 0.169334,0.3104442 0.107244,0.1919109 0.214488,0.4289774 0.112889,0.2314221 0.214489,0.4797774 0.107244,0.2483554 0.180622,0.474133 h -0.507999 q -0.06209,-0.1693332 -0.158045,-0.3838219 -0.09031,-0.2144888 -0.191911,-0.423333 -0.1016,-0.2144888 -0.2032,-0.4063997 -0.101599,-0.1975554 -0.180622,-0.333022 -0.09031,0.011289 -0.186266,0.016933 -0.09596,0.00564 -0.191911,0.00564 h -0.141111 v 1.5239988 h -0.496711 z m 0.496711,1.9134652 h 0.214489 q 0.389466,0 0.59831,-0.1749777 0.208845,-0.180622 0.208845,-0.6152439 0,-0.2201332 -0.05645,-0.3668886 -0.0508,-0.1523999 -0.1524,-0.2370665 -0.09596,-0.090311 -0.237066,-0.1298222 -0.135467,-0.039511 -0.3048,-0.039511 -0.146755,0 -0.270933,0.016933 z"
         id="path3250" />
      <path
         d="m 18.426293,5.5486931 q 0,0.4571997 -0.08467,0.8353772 -0.07902,0.372533 -0.254,0.6434661 -0.169333,0.2652887 -0.434622,0.4120442 -0.259644,0.1467554 -0.615244,0.1467554 -0.3556,0 -0.620888,-0.1467554 -0.259645,-0.1467555 -0.434622,-0.4120442 -0.169334,-0.2709331 -0.254,-0.6434661 -0.08467,-0.3781775 -0.08467,-0.8353772 0,-0.4571996 0.08467,-0.8353771 0.08467,-0.3781775 0.254,-0.6434662 0.174977,-0.2709331 0.434622,-0.4176886 0.265288,-0.1523999 0.620888,-0.1523999 0.3556,0 0.615244,0.1523999 0.265289,0.1467555 0.434622,0.4176886 0.174977,0.2652887 0.254,0.6434662 0.08467,0.3781775 0.08467,0.8353771 z m -0.541866,0 q 0,-0.3555997 -0.04516,-0.6491106 -0.04516,-0.2935109 -0.146755,-0.5023552 -0.1016,-0.2144887 -0.265289,-0.333022 -0.158044,-0.1185332 -0.389466,-0.1185332 -0.231422,0 -0.395111,0.1185332 -0.158044,0.1185333 -0.259644,0.333022 -0.1016,0.2088443 -0.1524,0.5023552 -0.04516,0.2935109 -0.04516,0.6491106 0,0.3555997 0.04516,0.6491106 0.0508,0.2935109 0.1524,0.5023552 0.1016,0.2088443 0.259644,0.3273775 0.163689,0.1128888 0.395111,0.1128888 0.231422,0 0.389466,-0.1128888 0.163689,-0.1185332 0.265289,-0.3273775 0.1016,-0.2088443 0.146755,-0.5023552 0.04516,-0.2935109 0.04516,-0.6491106 z"
         id="path3252" />
      <path
         d="m 19.216512,3.6465168 q 0.395111,-0.095956 0.773288,-0.095956 0.293511,0 0.530578,0.073378 0.242711,0.067733 0.412044,0.2201332 0.174978,0.1467554 0.265289,0.3838219 0.09596,0.2370665 0.09596,0.5700885 0,0.3386664 -0.09596,0.5813773 -0.09596,0.2370665 -0.270933,0.3894664 -0.174978,0.1467554 -0.423333,0.2144887 -0.242711,0.067733 -0.541867,0.067733 h -0.237066 v 1.4506211 h -0.508 z m 0.508,1.9586207 h 0.2032 q 0.191911,0 0.34431,-0.039511 0.158045,-0.045155 0.265289,-0.141111 0.107245,-0.095955 0.163689,-0.2483553 0.05644,-0.1523999 0.05644,-0.3781775 0,-0.2257776 -0.05644,-0.3781775 -0.05644,-0.1580444 -0.158044,-0.2483554 -0.09596,-0.095956 -0.237067,-0.1354666 -0.141111,-0.039511 -0.310444,-0.039511 -0.146756,0 -0.270933,0.016933 z"
         id="path3254" />
      <path
         d="m 23.69819,7.0670475 v 0.4346219 h -1.744132 v -3.911597 h 0.508 v 3.4769751 z"
         id="path3256" />
      <path
         d="m 24.307788,7.5016694 v -3.911597 h 1.755421 v 0.4346219 h -1.247421 v 1.2135546 h 1.128888 v 0.423333 h -1.128888 v 1.4054656 h 1.337732 v 0.4346219 z"
         id="path3258" />
      <path
         d="m 28.733027,3.5900724 v 0.4346219 h -0.869244 v 3.4769751 h -0.508 V 4.0246943 H 26.48654 V 3.5900724 Z"
         id="path3260" />
      <path
         d="m 29.771596,7.1517141 q 0.3048,0 0.468489,-0.1693332 0.169333,-0.1693332 0.169333,-0.4571996 0,-0.1523999 -0.0508,-0.2709332 Q 30.307818,6.1357149 30.223151,6.0397594 30.144129,5.9438039 30.036885,5.8647818 29.92964,5.7857596 29.816752,5.7067374 29.68693,5.6164264 29.545819,5.5148265 29.404708,5.4132265 29.286174,5.27776 29.173285,5.1422934 29.099908,4.9616713 29.02653,4.7810492 29.02653,4.5383383 q 0,-0.2370665 0.07902,-0.4289774 0.08467,-0.191911 0.225778,-0.3273776 0.146755,-0.1354665 0.344311,-0.2088443 0.203199,-0.073378 0.434622,-0.073378 0.225777,0 0.417688,0.056444 0.191911,0.056444 0.321733,0.1354666 L 30.69164,4.0924275 q -0.118533,-0.079022 -0.259644,-0.1185332 -0.135467,-0.045155 -0.287867,-0.045155 -0.276577,0 -0.445911,0.1523999 -0.163688,0.1467554 -0.163688,0.4346219 0,0.1580443 0.0508,0.2765775 0.05644,0.1185333 0.141111,0.2144887 0.09031,0.095956 0.203199,0.1749777 0.118534,0.079022 0.248356,0.1636888 0.129822,0.084667 0.265288,0.1862665 0.135467,0.1015999 0.242711,0.2370665 0.112889,0.1298221 0.180623,0.3104442 0.07338,0.1749776 0.07338,0.4176886 0,0.2201331 -0.06773,0.4176885 -0.06773,0.1975554 -0.214489,0.3499553 -0.141111,0.1467555 -0.361244,0.2370665 -0.214489,0.084667 -0.508,0.084667 -0.270933,0 -0.474133,-0.062089 -0.203199,-0.062089 -0.361244,-0.1636888 l 0.158045,-0.4063997 q 0.146755,0.090311 0.299155,0.1467555 0.158044,0.0508 0.361244,0.0508 z"
         id="path3262" />
    </g>
    <rect
       style="display:inline;fill:#666666;fill-opacity:1;stroke:#fffff7;stroke-width:0;stroke-linecap:round;stroke-opacity:1.5917e-05"
       id="rect7071"
       width="22.559998"
       height="19.999998"
       x="18.08"
       y="85" />
    <g
       aria-label="CVvelocity"
       id="cv_velocity"
       style="font-size:4.9389px;line-height:1.25;font-family:'Ubuntu Condensed';-inkscape-font-specification:'Ubuntu Condensed, ';fill:#e8e5e0;stroke-width:0.264583"
       inkscape:label="cv_velocity"
       transform="translate(4.0800006,5.000001)">
      <path
         d="m 17.244602,96.575762 q -0.602545,0 -0.923574,-0.44944 Q 16,95.676882 16,94.738491 q 0,-0.479073 0.0889,-0.809979 0.09384,-0.330907 0.256823,-0.538341 0.162983,-0.207433 0.385234,-0.296334 0.22225,-0.09384 0.484012,-0.09384 0.217312,0 0.40499,0.05927 0.187678,0.05433 0.306212,0.138289 l -0.133351,0.370418 q -0.118533,-0.07902 -0.256822,-0.128412 -0.133351,-0.04939 -0.311151,-0.04939 -0.395112,0 -0.572913,0.330907 -0.1778,0.325967 -0.1778,1.017413 0,0.696385 0.187678,1.071741 0.187678,0.375357 0.612424,0.375357 0.202495,0 0.325967,-0.04939 0.128412,-0.04939 0.246945,-0.128412 l 0.123473,0.350662 q -0.113595,0.0889 -0.301273,0.153106 -0.182739,0.06421 -0.424746,0.06421 z"
         id="path3212" />
      <path
         d="M 19.180645,96.501678 Q 19.06705,96.131261 18.953455,95.755905 18.839861,95.375609 18.726266,94.960742 18.61761,94.545874 18.508954,94.086556 18.400298,93.6223 18.291643,93.079021 h 0.464256 q 0.06421,0.380295 0.143228,0.765529 0.07902,0.380296 0.167923,0.750713 0.0889,0.370418 0.1778,0.721079 0.09384,0.345723 0.18274,0.656874 0.0889,-0.311151 0.1778,-0.656874 0.09384,-0.350661 0.182739,-0.721079 0.0889,-0.370417 0.167923,-0.750713 0.07902,-0.385234 0.143228,-0.765529 h 0.44944 q -0.108656,0.543279 -0.217312,1.007535 -0.108655,0.459318 -0.22225,0.874186 -0.108656,0.414867 -0.222251,0.795163 -0.113594,0.375356 -0.227189,0.745773 z"
         id="path3214" />
      <path
         d="m 21.070831,97.275675 q 0.0254,-0.08467 0.05292,-0.198967 0.02963,-0.1143 0.05715,-0.234951 0.02752,-0.122766 0.0508,-0.243417 0.0254,-0.12065 0.04233,-0.220133 h 0.182034 q -0.02752,0.1397 -0.06562,0.294217 -0.03598,0.154517 -0.0762,0.3048 -0.0381,0.148167 -0.07832,0.281517 -0.04022,0.133351 -0.07408,0.230717 h -0.188383 q -0.03387,-0.09737 -0.07408,-0.230717 -0.04022,-0.13335 -0.08043,-0.281517 -0.0381,-0.150283 -0.0762,-0.3048 -0.03598,-0.154517 -0.0635,-0.294217 h 0.192617 q 0.01693,0.09948 0.04022,0.220133 0.0254,0.120651 0.0508,0.243417 0.02752,0.120651 0.05503,0.234951 0.02752,0.1143 0.05292,0.198967 z"
         style="font-size:2.11667px;baseline-shift:sub"
         id="path3216" />
      <path
         d="m 21.75663,96.987808 q 0.0021,0.08043 0.01482,0.148167 0.0127,0.06562 0.04022,0.116416 0.02963,0.04868 0.0762,0.0762 0.04868,0.02752 0.122766,0.02752 0.06138,0 0.112184,-0.01693 0.05292,-0.01905 0.0762,-0.03175 l 0.03387,0.14605 q -0.02752,0.01905 -0.09313,0.04022 -0.0635,0.02328 -0.1524,0.02328 -0.116417,0 -0.19685,-0.04233 -0.07832,-0.04233 -0.129117,-0.118534 -0.04868,-0.0762 -0.06985,-0.182033 -0.02117,-0.105834 -0.02117,-0.232834 0,-0.306917 0.1016,-0.448734 0.1016,-0.141817 0.268817,-0.141817 0.188384,0 0.266701,0.141817 0.07832,0.141817 0.07832,0.397934 0,0.02328 0,0.04868 0,0.02328 -0.0021,0.04868 z m 0.18415,-0.482601 q -0.09102,0 -0.13335,0.09102 -0.04022,0.09102 -0.04868,0.243417 h 0.33655 q 0,-0.154517 -0.03175,-0.243417 -0.03175,-0.09102 -0.122767,-0.09102 z"
         style="font-size:2.11667px;baseline-shift:sub"
         id="path3218" />
      <path
         d="m 22.842479,97.510625 q -0.156633,-0.0042 -0.224367,-0.0762 -0.06773,-0.07408 -0.06773,-0.232834 v -1.322918 l 0.182034,-0.03175 v 1.358902 q 0,0.07408 0.02963,0.10795 0.02963,0.03175 0.103717,0.04445 z"
         style="font-size:2.11667px;baseline-shift:sub"
         id="path3220" />
      <path
         d="m 23.782277,96.934891 q 0,0.131233 -0.02328,0.239184 -0.02328,0.105833 -0.07197,0.182033 -0.04657,0.0762 -0.120651,0.118534 -0.07197,0.04233 -0.17145,0.04233 -0.09948,0 -0.173567,-0.04233 -0.07408,-0.04233 -0.122767,-0.118534 -0.04657,-0.0762 -0.06985,-0.182033 -0.02328,-0.107951 -0.02328,-0.239184 0,-0.129117 0.02328,-0.237067 0.02328,-0.10795 0.06985,-0.18415 0.04868,-0.07832 0.122767,-0.120651 0.07408,-0.04233 0.173567,-0.04233 0.09948,0 0.17145,0.04233 0.07408,0.04233 0.120651,0.120651 0.04868,0.0762 0.07197,0.18415 0.02328,0.10795 0.02328,0.237067 z m -0.190501,0 q 0,-0.09313 -0.01058,-0.169334 -0.01058,-0.07832 -0.03387,-0.13335 -0.02328,-0.05715 -0.06138,-0.08678 -0.0381,-0.03175 -0.09102,-0.03175 -0.05503,0 -0.09313,0.03175 -0.03598,0.02963 -0.06138,0.08678 -0.02328,0.05503 -0.03387,0.13335 -0.01058,0.0762 -0.01058,0.169334 0,0.09313 0.01058,0.17145 0.01058,0.0762 0.03387,0.131234 0.0254,0.05503 0.06138,0.08678 0.0381,0.02963 0.09313,0.02963 0.05292,0 0.09102,-0.02963 0.0381,-0.03175 0.06138,-0.08678 0.02328,-0.05503 0.03387,-0.131234 0.01058,-0.07832 0.01058,-0.17145 z"
         style="font-size:2.11667px;baseline-shift:sub"
         id="path3222" />
      <path
         d="m 24.387643,97.516975 q -0.1143,0 -0.1905,-0.04445 -0.0762,-0.04445 -0.124884,-0.12065 -0.04657,-0.07832 -0.06773,-0.18415 -0.01905,-0.105834 -0.01905,-0.230717 0,-0.275167 0.09948,-0.429684 0.101601,-0.156634 0.304801,-0.156634 0.06138,0 0.110067,0.01482 0.04868,0.01482 0.09102,0.0381 l -0.04657,0.150283 q -0.06562,-0.04233 -0.14605,-0.04233 -0.114301,0 -0.169334,0.103717 -0.05292,0.103717 -0.05292,0.321734 0,0.09102 0.01058,0.169333 0.01058,0.0762 0.03598,0.131234 0.02752,0.05503 0.06985,0.08678 0.04445,0.03175 0.112184,0.03175 0.04657,0 0.08255,-0.01058 0.0381,-0.0127 0.07197,-0.03175 l 0.04022,0.141817 q -0.03387,0.02328 -0.09102,0.04233 -0.05503,0.01905 -0.12065,0.01905 z"
         style="font-size:2.11667px;baseline-shift:sub"
         id="path3224" />
      <path
         d="m 24.978192,97.489458 h -0.182034 v -1.111251 h 0.182034 z m -0.09102,-1.308102 q -0.04868,0 -0.08467,-0.03175 -0.03387,-0.03387 -0.03387,-0.0889 0,-0.05503 0.03387,-0.08678 0.03598,-0.03387 0.08467,-0.03387 0.04868,0 0.08255,0.03387 0.03598,0.03175 0.03598,0.08678 0,0.05503 -0.03598,0.0889 -0.03387,0.03175 -0.08255,0.03175 z"
         style="font-size:2.11667px;baseline-shift:sub"
         id="path3226" />
      <path
         d="m 25.477722,96.378207 h 0.279401 v 0.156633 h -0.279401 v 0.611718 q 0,0.1143 0.04022,0.160867 0.04233,0.04445 0.112184,0.04445 0.03598,0 0.06773,-0.01058 0.03387,-0.01058 0.05715,-0.0254 l 0.03598,0.14605 q -0.08678,0.0508 -0.184151,0.0508 -0.156633,0 -0.23495,-0.08678 -0.0762,-0.0889 -0.0762,-0.2921 v -1.054102 l 0.182033,-0.03175 z"
         style="font-size:2.11667px;baseline-shift:sub"
         id="path3228" />
      <path
         d="m 26.243955,97.258741 q 0.06138,-0.211667 0.112184,-0.42545 0.0508,-0.213784 0.09737,-0.455084 h 0.179917 q -0.03175,0.154517 -0.06985,0.3048 -0.03598,0.150284 -0.0762,0.289984 -0.0381,0.1397 -0.07832,0.264584 -0.0381,0.122767 -0.07197,0.224367 -0.04022,0.118533 -0.07832,0.198967 -0.03598,0.08255 -0.08043,0.131233 -0.04233,0.0508 -0.09313,0.07197 -0.0508,0.02328 -0.12065,0.02328 -0.0381,0 -0.0762,-0.01058 -0.0381,-0.0085 -0.0635,-0.01905 l 0.03387,-0.148167 q 0.05503,0.02328 0.103717,0.02328 0.06138,0 0.09948,-0.04445 0.0381,-0.04445 0.07408,-0.13335 l 0.02117,-0.05292 q -0.04022,-0.110066 -0.08255,-0.243417 -0.04022,-0.135466 -0.08043,-0.281517 -0.0381,-0.14605 -0.07408,-0.29845 -0.03598,-0.154517 -0.06562,-0.300567 h 0.192617 q 0.01693,0.09948 0.04022,0.218017 0.02328,0.118533 0.04868,0.237067 0.02752,0.118533 0.05503,0.230717 0.02752,0.110067 0.05292,0.194733 z"
         style="font-size:2.11667px;baseline-shift:sub"
         id="path3230" />
    </g>
    <g
       aria-label="VISCOSITY"
       id="text1892"
       style="font-size:4.9389px;line-height:1.25;font-family:'Ubuntu Condensed';-inkscape-font-specification:'Ubuntu Condensed, ';display:inline;fill:#666666;stroke-width:0.264583"
       transform="translate(3.275,19.999308)">
      <path
         d="M 13.289002,39.919376 Q 13.175407,39.548959 13.061812,39.173602 12.948218,38.793307 12.834623,38.37844 12.725967,37.963572 12.617311,37.504254 12.508656,37.039998 12.4,36.496719 h 0.464256 q 0.06421,0.380295 0.143229,0.765529 0.07902,0.380295 0.167922,0.750713 0.0889,0.370417 0.177801,0.721079 0.09384,0.345723 0.182739,0.656874 0.0889,-0.311151 0.1778,-0.656874 0.09384,-0.350662 0.18274,-0.721079 0.0889,-0.370418 0.167922,-0.750713 0.07902,-0.385234 0.143228,-0.765529 h 0.44944 q -0.108656,0.543279 -0.217311,1.007535 -0.108656,0.459318 -0.222251,0.874186 -0.108656,0.414867 -0.22225,0.795162 -0.113595,0.375357 -0.22719,0.745774 z"
         id="path2640" />
      <path
         d="m 15.170721,36.496719 h 0.444501 v 3.422657 h -0.444501 z"
         id="path2642" />
      <path
         d="m 16.8697,39.613165 q 0.266701,0 0.409929,-0.148167 0.148167,-0.148167 0.148167,-0.400051 0,-0.133351 -0.04445,-0.237068 -0.04445,-0.103716 -0.118534,-0.187678 -0.06914,-0.08396 -0.162983,-0.153106 -0.09384,-0.06914 -0.192618,-0.138289 -0.113594,-0.07902 -0.237067,-0.167922 -0.123472,-0.0889 -0.227189,-0.207434 -0.09878,-0.118534 -0.162984,-0.276579 -0.06421,-0.158044 -0.06421,-0.370417 0,-0.207434 0.06914,-0.375357 0.07408,-0.167922 0.197556,-0.286456 0.128411,-0.118533 0.301273,-0.182739 0.1778,-0.06421 0.380295,-0.06421 0.197556,0 0.365479,0.04939 0.167922,0.04939 0.281517,0.118534 l -0.138289,0.350662 q -0.103717,-0.06914 -0.227189,-0.103717 -0.118534,-0.03951 -0.251884,-0.03951 -0.242006,0 -0.390173,0.13335 -0.143229,0.128411 -0.143229,0.380295 0,0.138289 0.04445,0.242006 0.04939,0.103717 0.123472,0.187679 0.07902,0.08396 0.1778,0.153105 0.103717,0.06914 0.217312,0.143229 0.113595,0.07408 0.232128,0.162983 0.118534,0.0889 0.212373,0.207434 0.09878,0.113595 0.158045,0.27164 0.06421,0.153105 0.06421,0.365478 0,0.192617 -0.05927,0.365479 -0.05927,0.172861 -0.187678,0.306212 -0.123473,0.128411 -0.31609,0.207433 -0.187678,0.07408 -0.444501,0.07408 -0.237067,0 -0.414868,-0.05433 -0.1778,-0.05433 -0.316089,-0.143228 l 0.138289,-0.355601 q 0.128411,0.07902 0.261762,0.128411 0.138289,0.04445 0.316089,0.04445 z"
         id="path2644" />
      <path
         d="m 19.571268,39.99346 q -0.602545,0 -0.923574,-0.44944 -0.321028,-0.44944 -0.321028,-1.387831 0,-0.479073 0.0889,-0.80998 0.09384,-0.330906 0.256823,-0.53834 0.162983,-0.207433 0.385234,-0.296334 0.22225,-0.09384 0.484012,-0.09384 0.217312,0 0.40499,0.05927 0.187678,0.05433 0.306212,0.138289 l -0.133351,0.370418 q -0.118533,-0.07902 -0.256823,-0.128412 -0.13335,-0.04939 -0.31115,-0.04939 -0.395112,0 -0.572913,0.330907 -0.1778,0.325967 -0.1778,1.017413 0,0.696385 0.187678,1.071741 0.187678,0.375357 0.612424,0.375357 0.202495,0 0.325967,-0.04939 0.128412,-0.04939 0.246945,-0.128412 l 0.123473,0.350662 q -0.113595,0.0889 -0.301273,0.153106 -0.18274,0.06421 -0.424746,0.06421 z"
         id="path2646" />
      <path
         d="m 23.033436,38.210517 q 0,0.400051 -0.07408,0.730957 -0.06914,0.325968 -0.22225,0.563035 -0.148167,0.232128 -0.380296,0.360539 -0.227189,0.128412 -0.53834,0.128412 -0.31115,0 -0.543279,-0.128412 -0.227189,-0.128411 -0.380295,-0.360539 -0.148167,-0.237067 -0.222251,-0.563035 -0.07408,-0.330906 -0.07408,-0.730957 0,-0.400051 0.07408,-0.730957 0.07408,-0.330907 0.222251,-0.563035 0.153106,-0.237067 0.380295,-0.365478 0.232129,-0.133351 0.543279,-0.133351 0.311151,0 0.53834,0.133351 0.232129,0.128411 0.380296,0.365478 0.153106,0.232128 0.22225,0.563035 0.07408,0.330906 0.07408,0.730957 z m -0.474135,0 q 0,-0.311151 -0.03951,-0.567974 -0.03951,-0.256822 -0.128411,-0.439562 -0.0889,-0.187678 -0.232129,-0.291395 -0.138289,-0.103717 -0.340784,-0.103717 -0.202495,0 -0.345723,0.103717 -0.138289,0.103717 -0.227189,0.291395 -0.0889,0.18274 -0.13335,0.439562 -0.03951,0.256823 -0.03951,0.567974 0,0.311151 0.03951,0.567973 0.04445,0.256823 0.13335,0.439563 0.0889,0.182739 0.227189,0.286456 0.143228,0.09878 0.345723,0.09878 0.202495,0 0.340784,-0.09878 0.143228,-0.103717 0.232129,-0.286456 0.0889,-0.18274 0.128411,-0.439563 0.03951,-0.256822 0.03951,-0.567973 z"
         id="path2648" />
      <path
         d="m 24.149625,39.613165 q 0.2667,0 0.409929,-0.148167 0.148167,-0.148167 0.148167,-0.400051 0,-0.133351 -0.04445,-0.237068 -0.04445,-0.103716 -0.118533,-0.187678 -0.06915,-0.08396 -0.162984,-0.153106 -0.09384,-0.06914 -0.192617,-0.138289 -0.113595,-0.07902 -0.237067,-0.167922 -0.123473,-0.0889 -0.22719,-0.207434 -0.09878,-0.118534 -0.162983,-0.276579 -0.06421,-0.158044 -0.06421,-0.370417 0,-0.207434 0.06915,-0.375357 0.07408,-0.167922 0.197556,-0.286456 0.128411,-0.118533 0.301273,-0.182739 0.1778,-0.06421 0.380295,-0.06421 0.197556,0 0.365478,0.04939 0.167923,0.04939 0.281518,0.118534 l -0.138289,0.350662 q -0.103717,-0.06914 -0.22719,-0.103717 -0.118533,-0.03951 -0.251884,-0.03951 -0.242006,0 -0.390173,0.13335 -0.143228,0.128411 -0.143228,0.380295 0,0.138289 0.04445,0.242006 0.04939,0.103717 0.123473,0.187679 0.07902,0.08396 0.1778,0.153105 0.103717,0.06914 0.217312,0.143229 0.113594,0.07408 0.232128,0.162983 0.118534,0.0889 0.212373,0.207434 0.09878,0.113595 0.158044,0.27164 0.06421,0.153105 0.06421,0.365478 0,0.192617 -0.05927,0.365479 -0.05927,0.172861 -0.187678,0.306212 -0.123472,0.128411 -0.316089,0.207433 -0.187679,0.07408 -0.444501,0.07408 -0.237068,0 -0.414868,-0.05433 -0.1778,-0.05433 -0.31609,-0.143228 l 0.13829,-0.355601 q 0.128411,0.07902 0.261761,0.128411 0.138289,0.04445 0.31609,0.04445 z"
         id="path2650" />
      <path
         d="m 25.700438,36.496719 h 0.444501 v 3.422657 h -0.444501 z"
         id="path2652" />
      <path
         d="m 28.59463,36.496719 v 0.380295 h -0.760591 v 3.042362 h -0.444501 v -3.042362 h -0.76059 v -0.380295 z"
         id="path2654" />
      <path
         d="m 31.049255,36.496719 q -0.08396,0.232128 -0.187678,0.49389 -0.09878,0.261761 -0.212373,0.533401 -0.113594,0.2667 -0.232128,0.533401 -0.118534,0.266701 -0.237067,0.508707 v 1.353258 h -0.444501 v -1.323625 q -0.118534,-0.242006 -0.242006,-0.513645 -0.123473,-0.27164 -0.237068,-0.543279 -0.113594,-0.27164 -0.217311,-0.538341 -0.103717,-0.2667 -0.187678,-0.503767 h 0.479073 q 0.128411,0.390173 0.291395,0.824796 0.162984,0.434623 0.335845,0.80998 0.172862,-0.375357 0.335845,-0.80998 0.162984,-0.434623 0.291396,-0.824796 z"
         id="path2656" />
    </g>
    <g
       aria-label="FLOW"
       id="text1112"
       style="font-size:4.9389px;line-height:1.25;font-family:'Ubuntu Condensed';-inkscape-font-specification:'Ubuntu Condensed, ';display:inline;fill:#666666;stroke-width:0.264583"
       transform="translate(3.275,9.9996379)">
      <path
         d="m 12.4,19.926043 v -3.422658 h 1.535998 v 0.380295 h -1.091497 v 1.07668 h 0.968024 v 0.370418 h -0.968024 v 1.595265 z"
         id="path2673" />
      <path
         d="m 16.030085,19.545747 v 0.380296 h -1.52612 v -3.422658 h 0.444501 v 3.042362 z"
         id="path2675" />
      <path
         d="m 18.687203,18.217183 q 0,0.400051 -0.07408,0.730957 -0.06914,0.325968 -0.222251,0.563035 -0.148167,0.232128 -0.380295,0.36054 -0.227189,0.128411 -0.53834,0.128411 -0.311151,0 -0.543279,-0.128411 -0.22719,-0.128412 -0.380295,-0.36054 -0.148167,-0.237067 -0.222251,-0.563035 -0.07408,-0.330906 -0.07408,-0.730957 0,-0.400051 0.07408,-0.730957 0.07408,-0.330906 0.222251,-0.563035 0.153105,-0.237067 0.380295,-0.365478 0.232128,-0.133351 0.543279,-0.133351 0.311151,0 0.53834,0.133351 0.232128,0.128411 0.380295,0.365478 0.153106,0.232129 0.222251,0.563035 0.07408,0.330906 0.07408,0.730957 z m -0.474134,0 q 0,-0.311151 -0.03951,-0.567973 -0.03951,-0.256823 -0.128412,-0.439562 -0.0889,-0.187679 -0.232128,-0.291396 -0.138289,-0.103716 -0.340784,-0.103716 -0.202495,0 -0.345723,0.103716 -0.138289,0.103717 -0.22719,0.291396 -0.0889,0.182739 -0.13335,0.439562 -0.03951,0.256822 -0.03951,0.567973 0,0.311151 0.03951,0.567974 0.04445,0.256822 0.13335,0.439562 0.0889,0.182739 0.22719,0.286456 0.143228,0.09878 0.345723,0.09878 0.202495,0 0.340784,-0.09878 0.143228,-0.103717 0.232128,-0.286456 0.0889,-0.18274 0.128412,-0.439562 0.03951,-0.256823 0.03951,-0.567974 z"
         id="path2677" />
      <path
         d="m 21.057873,16.908375 q 0.06421,0.296334 0.138289,0.62724 0.07408,0.330906 0.153106,0.656874 0.08396,0.325967 0.167923,0.632179 0.08396,0.306212 0.158045,0.558096 0.05927,-0.276579 0.113594,-0.612424 0.05433,-0.340784 0.103717,-0.711202 0.05433,-0.370417 0.09878,-0.765529 0.04445,-0.395112 0.07408,-0.790224 h 0.434623 q -0.113595,0.992719 -0.256823,1.827393 -0.138289,0.834674 -0.325967,1.595265 H 21.4678 q -0.07408,-0.242007 -0.162984,-0.538341 -0.08396,-0.296334 -0.167923,-0.612423 -0.08396,-0.321029 -0.162983,-0.646996 -0.07902,-0.325967 -0.143228,-0.632179 -0.06421,0.306212 -0.143228,0.632179 -0.07902,0.325967 -0.162984,0.646996 -0.08396,0.316089 -0.172862,0.612423 -0.08396,0.296334 -0.158044,0.538341 h -0.44944 Q 19.556447,19.165452 19.413219,18.330778 19.27493,17.496104 19.161335,16.503385 h 0.44944 q 0.02963,0.395112 0.07408,0.790224 0.04445,0.390173 0.09384,0.765529 0.05433,0.370418 0.108656,0.711202 0.05433,0.335845 0.113594,0.612424 0.07408,-0.251884 0.158045,-0.558096 0.08396,-0.306212 0.162984,-0.632179 0.08396,-0.325968 0.158045,-0.656874 0.07408,-0.330906 0.138289,-0.62724 z"
         id="path2679" />
    </g>
    <g
       aria-label="INLET"
       id="text3487"
       style="font-size:4.9389px;line-height:1.25;font-family:'Ubuntu Condensed';-inkscape-font-specification:'Ubuntu Condensed, ';fill:#666666;stroke-width:0.264583"
       transform="translate(-3.3708333)">
      <path
         d="m 15.4,13.289253 h 0.444501 V 16.71191 H 15.4 Z"
         id="path3777" />
      <path
         d="m 18.353459,16.71191 q -0.118533,-0.291395 -0.271639,-0.62724 -0.148167,-0.340784 -0.31609,-0.681568 -0.162984,-0.345723 -0.335845,-0.681568 -0.172862,-0.340785 -0.340784,-0.63218 v 2.622556 h -0.414868 v -3.422657 h 0.370418 q 0.187678,0.306211 0.360539,0.62724 0.177801,0.321028 0.335846,0.637118 0.158044,0.311151 0.296334,0.617362 0.143228,0.301273 0.261761,0.572913 v -2.454633 h 0.414868 v 3.422657 z"
         id="path3779" />
      <path
         d="m 21.069851,16.331615 v 0.380295 h -1.52612 v -3.422657 h 0.444501 v 3.042362 z"
         id="path3781" />
      <path
         d="m 21.603252,16.71191 v -3.422657 h 1.535998 v 0.380295 h -1.091497 v 1.061863 h 0.98778 v 0.370418 h -0.98778 v 1.229786 h 1.170519 v 0.380295 z"
         id="path3783" />
      <path
         d="m 25.475346,13.289253 v 0.380295 h -0.76059 v 3.042362 h -0.444501 v -3.042362 h -0.760591 v -0.380295 z"
         id="path3785" />
    </g>
    <g
       aria-label="TRGdrop"
       id="text429"
       style="font-size:4.9389px;line-height:1.25;font-family:'Ubuntu Condensed';-inkscape-font-specification:'Ubuntu Condensed, ';fill:#e8e5e0;stroke-width:0.264583"
       transform="translate(4.0800006,15.000001)">
      <path
         d="m 17.965683,73.079021 v 0.380295 h -0.760591 v 3.042362 H 16.760591 V 73.459316 H 16 v -0.380295 z"
         id="path1390" />
      <path
         d="m 18.449688,73.12841 q 0.345723,-0.08396 0.666752,-0.08396 0.256822,0 0.464256,0.05927 0.207434,0.05927 0.355601,0.187678 0.148167,0.128412 0.227189,0.330907 0.08396,0.202495 0.08396,0.488951 0,0.355601 -0.138289,0.577851 -0.133351,0.217312 -0.365479,0.330906 0.05927,0.09878 0.148167,0.27164 0.09384,0.167923 0.187678,0.375356 0.09878,0.202495 0.187678,0.419807 0.09384,0.217311 0.158045,0.414867 h -0.444501 q -0.05433,-0.148167 -0.138289,-0.335845 -0.07902,-0.187678 -0.167923,-0.370417 -0.0889,-0.187678 -0.1778,-0.355601 -0.0889,-0.172862 -0.158045,-0.291395 -0.07902,0.0099 -0.162984,0.01482 -0.08396,0.0049 -0.167922,0.0049 h -0.123473 v 1.333503 h -0.434623 z m 0.434623,1.674287 h 0.187679 q 0.340784,0 0.523523,-0.153106 0.182739,-0.158045 0.182739,-0.53834 0,-0.192617 -0.04939,-0.321029 -0.04445,-0.13335 -0.13335,-0.207433 -0.08396,-0.07902 -0.207434,-0.113595 -0.118533,-0.03457 -0.2667,-0.03457 -0.128412,0 -0.237068,0.01482 z"
         id="path1392" />
      <path
         d="m 20.795664,74.78788 q 0,-0.484012 0.0889,-0.824796 0.0889,-0.340784 0.251884,-0.553157 0.167922,-0.217312 0.40005,-0.311151 0.237068,-0.09878 0.528463,-0.09878 0.22225,0 0.40499,0.06421 0.182739,0.05927 0.296334,0.138289 l -0.13829,0.370418 q -0.113594,-0.07902 -0.246945,-0.128412 -0.13335,-0.05433 -0.306211,-0.05433 -0.429685,0 -0.617363,0.350662 -0.187678,0.345723 -0.187678,1.047047 0,0.375357 0.05433,0.642057 0.05927,0.266701 0.162983,0.434623 0.103717,0.167923 0.251884,0.246945 0.148167,0.07902 0.330907,0.07902 0.153106,0 0.261761,-0.03457 v -1.338441 h 0.444501 v 1.610081 q -0.13335,0.06421 -0.330906,0.108656 -0.197556,0.04445 -0.414868,0.04445 -0.2667,0 -0.49389,-0.103717 -0.227189,-0.108656 -0.395112,-0.325967 -0.162983,-0.222251 -0.256822,-0.558096 -0.0889,-0.340784 -0.0889,-0.805041 z"
         id="path1394" />
      <path
         d="m 23.760413,76.545424 q -0.06138,-0.03387 -0.131234,-0.03387 -0.05292,0 -0.09313,0.02117 -0.04022,0.02117 -0.06985,0.06985 -0.02752,0.04868 -0.04233,0.129117 -0.01482,0.08043 -0.01482,0.198967 0,0.2286 0.05927,0.328083 0.06138,0.09737 0.184151,0.09737 0.02328,0 0.0508,-0.0021 0.02752,-0.0042 0.05715,-0.0127 z m 0,-0.666751 0.182034,-0.03175 v 1.612902 q -0.05927,0.0254 -0.135467,0.04022 -0.0762,0.01693 -0.154517,0.01693 -0.228601,0 -0.332317,-0.14605 -0.101601,-0.14605 -0.101601,-0.440267 0,-0.133351 0.02117,-0.239184 0.02328,-0.10795 0.06985,-0.182034 0.04868,-0.0762 0.122767,-0.116417 0.07408,-0.04233 0.175684,-0.04233 0.04868,0 0.08255,0.01058 0.03598,0.0085 0.06985,0.0254 z"
         style="font-size:2.11667px;baseline-shift:sub"
         id="path1396" />
      <path
         d="m 24.751012,76.543307 q -0.06773,-0.02963 -0.1524,-0.02963 -0.07832,0 -0.14605,0.02752 v 0.948268 H 24.270528 V 76.42689 q 0.06138,-0.02963 0.1397,-0.04868 0.08043,-0.02117 0.175684,-0.02117 0.0508,0 0.1016,0.0063 0.0508,0.0063 0.09525,0.02328 z"
         style="font-size:2.11667px;baseline-shift:sub"
         id="path1398" />
      <path
         d="m 25.656945,76.934891 q 0,0.131233 -0.02328,0.239184 -0.02328,0.105833 -0.07197,0.182033 -0.04657,0.0762 -0.12065,0.118534 -0.07197,0.04233 -0.17145,0.04233 -0.09948,0 -0.173567,-0.04233 -0.07408,-0.04233 -0.122767,-0.118534 -0.04657,-0.0762 -0.06985,-0.182033 -0.02328,-0.107951 -0.02328,-0.239184 0,-0.129117 0.02328,-0.237067 0.02328,-0.10795 0.06985,-0.18415 0.04868,-0.07832 0.122767,-0.120651 0.07408,-0.04233 0.173567,-0.04233 0.09948,0 0.17145,0.04233 0.07408,0.04233 0.12065,0.120651 0.04868,0.0762 0.07197,0.18415 0.02328,0.10795 0.02328,0.237067 z m -0.1905,0 q 0,-0.09313 -0.01058,-0.169334 -0.01058,-0.07832 -0.03387,-0.13335 -0.02328,-0.05715 -0.06138,-0.08678 -0.0381,-0.03175 -0.09102,-0.03175 -0.05503,0 -0.09313,0.03175 -0.03598,0.02963 -0.06138,0.08678 -0.02328,0.05503 -0.03387,0.13335 -0.01058,0.0762 -0.01058,0.169334 0,0.09313 0.01058,0.17145 0.01058,0.0762 0.03387,0.131234 0.0254,0.05503 0.06138,0.08678 0.0381,0.02963 0.09313,0.02963 0.05292,0 0.09102,-0.02963 0.0381,-0.03175 0.06138,-0.08678 0.02328,-0.05503 0.03387,-0.131234 0.01058,-0.07832 0.01058,-0.17145 z"
         style="font-size:2.11667px;baseline-shift:sub"
         id="path1400" />
      <path
         d="m 26.103561,77.322242 q 0.06138,0.03387 0.131234,0.03387 0.05292,0 0.09313,-0.02117 0.04022,-0.02117 0.06773,-0.06985 0.02963,-0.04868 0.04445,-0.129116 0.01482,-0.08043 0.01482,-0.198967 0,-0.228601 -0.05927,-0.325968 -0.05715,-0.09948 -0.184151,-0.09948 -0.02328,0 -0.0508,0.0042 -0.02752,0.0021 -0.05715,0.01058 z m 0,0.5588 H 25.921528 V 76.40784 q 0.05927,-0.0254 0.13335,-0.04022 0.0762,-0.01693 0.154517,-0.01693 0.116416,0 0.198967,0.04022 0.08467,0.04022 0.135466,0.116417 0.05292,0.07408 0.0762,0.18415 0.0254,0.10795 0.0254,0.24765 0,0.281517 -0.09102,0.429684 -0.0889,0.148167 -0.292101,0.148167 -0.04868,0 -0.08678,-0.01058 -0.0381,-0.0085 -0.07197,-0.0254 z"
         style="font-size:2.11667px;baseline-shift:sub"
         id="path1402" />
    </g>
  </g>
  <g
     inkscape:groupmode="layer"
     id="layer2"
     inkscape:label="components"
     style="display:none">
    <circle
       style="fill:#ff00ff;fill-opacity:1;stroke-width:0;stroke-dasharray:none"
       id="l5"
       cx="7.5"
       cy="45"
       inkscape:label="l5"
       r="3" />
    <circle
       style="fill:#ff00ff;fill-opacity:1;stroke-width:0;stroke-dasharray:none"
       id="l4"
       cx="7.5"
       cy="55"
       inkscape:label="l4"
       r="3" />
    <circle
       style="fill:#ff00ff;fill-opacity:1;stroke-width:0;stroke-dasharray:none"
       id="l3"
       cx="7.5"
       cy="65"
       inkscape:label="l3"
       r="3" />
    <circle
       style="fill:#ff00ff;fill-opacity:1;stroke-width:0;stroke-dasharray:none"
       id="l7"
       cx="7.5"
       cy="25"
       inkscape:label="l7"
       r="3" />
    <circle
       style="display:inline;fill:#ff00ff;fill-opacity:1;stroke-width:0;stroke-dasharray:none"
       id="l6"
       cx="7.5"
       cy="35"
       inkscape:label="l6"
       r="3" />
    <circle
       style="fill:#ff00ff;fill-opacity:1;stroke-width:0;stroke-dasharray:none"
       id="l2"
       cx="7.5"
       cy="75"
       inkscape:label="l2"
       r="3" />
    <circle
       style="fill:#ff00ff;fill-opacity:1;stroke-width:0;stroke-dasharray:none"
       id="l1"
       cx="7.5"
       cy="85"
       inkscape:label="l1"
       r="3" />
    <circle
       style="fill:#ff00ff;fill-opacity:1;stroke-width:0;stroke-dasharray:none"
       id="l0"
       cx="7.5"
       cy="95"
       inkscape:label="l0"
       r="3" />
    <circle
       style="fill:#0000ff;fill-opacity:1;stroke-width:0;stroke-dasharray:none"
       id="drop"
       cx="35.079998"
       cy="90"
       inkscape:label="drop"
       r="3" />
    <circle
       style="fill:#ff0000;fill-opacity:1;stroke-width:0;stroke-dasharray:none"
       id="flow"
       cx="28"
       cy="42"
       inkscape:label="flow"
       r="4.5" />
    <circle
       style="fill:#ff0000;fill-opacity:1;stroke-width:0;stroke-dasharray:none"
       id="viscosity"
       cx="28"
       cy="72"
       inkscape:label="viscosity"
       r="4.5" />
    <circle
       style="fill:#00ff00;fill-opacity:1;stroke-width:0;stroke-dasharray:none"
       id="gate_in"
       cx="7.5"
       cy="15"
       inkscape:label="gate"
       r="3" />
    <circle
       style="fill:#00ff00;fill-opacity:1;stroke-width:0;stroke-dasharray:none"
       id="flow_in"
       cx="21"
       cy="34.999638"
       inkscape:label="flow_in"
       r="3" />
    <circle
       style="fill:#00ff00;fill-opacity:1;stroke-width:0;stroke-dasharray:none"
       id="viscosity_in"
       cx="21"
       cy="65"
       inkscape:label="viscosity_in"
       r="3" />
    <circle
       style="fill:#0000ff;fill-opacity:1;stroke-width:0;stroke-dasharray:none"
       id="circle2984"
       cx="35.080002"
       cy="100"
       inkscape:label="v0"
       r="3" />
  </g>
</svg>
