<?xml version="1.0" encoding="UTF-8" standalone="no"?>
<!-- Created with Inkscape (http://www.inkscape.org/) -->

<svg
   width="10.16mm"
   height="128.5mm"
   viewBox="0 0 10.16 128.5"
   version="1.1"
   id="svg470"
   inkscape:version="1.1.2 (0a00cf5339, 2022-02-04)"
   sodipodi:docname="Feigenbaum.svg"
   xmlns:inkscape="http://www.inkscape.org/namespaces/inkscape"
   xmlns:sodipodi="http://sodipodi.sourceforge.net/DTD/sodipodi-0.dtd"
   xmlns="http://www.w3.org/2000/svg"
   xmlns:svg="http://www.w3.org/2000/svg">
  <sodipodi:namedview
     id="namedview472"
     pagecolor="#ffffff"
     bordercolor="#666666"
     borderopacity="1.0"
     inkscape:pageshadow="2"
     inkscape:pageopacity="1"
     inkscape:pagecheckerboard="false"
     inkscape:document-units="mm"
     showgrid="true"
     width="40.64mm"
     inkscape:zoom="4.253275"
     inkscape:cx="-4.7022588"
     inkscape:cy="109.68019"
     inkscape:window-width="1920"
     inkscape:window-height="1019"
     inkscape:window-x="0"
     inkscape:window-y="0"
     inkscape:window-maximized="1"
     inkscape:current-layer="layer1"
     objecttolerance="20"
     guidetolerance="10000"
     showguides="true">
    <inkscape:grid
       type="xygrid"
       id="grid1902"
       units="mm"
       dotted="false"
       originx="0"
       originy="0"
       spacingx="1"
       spacingy="1"
       snapvisiblegridlinesonly="false"
       visible="true"
       empspacing="10" />
  </sodipodi:namedview>
  <defs
     id="defs467" />
  <rect
     style="display:inline;fill:#e8e5e0;fill-opacity:1;stroke-width:0.132291"
     id="rect981"
     width="10.16"
     height="128.5"
     x="0"
     y="-5.5511151e-17" />
  <rect
     style="display:inline;fill:#999593;fill-opacity:1;stroke-width:0.254744"
     id="rect1123-3"
     width="10.16"
     height="16"
     x="0"
     y="96" />
  <g
     inkscape:label="panel"
     inkscape:groupmode="layer"
     id="layer1"
     style="display:inline">
    <g
       aria-label="logistic
scratch"
       id="text2421"
       style="font-size:2.11667px;line-height:1.25;font-family:Ubuntu;-inkscape-font-specification:Ubuntu;stroke-width:0.264583"
       transform="matrix(1.0334678,0,0,1.0334678,1.4924997,2.5636346)">
      <path
         d="m 0.49953331,4.0211664 q -0.18203333,-0.00423 -0.25823332,-0.078317 -0.0762,-0.074083 -0.0762,-0.2307167 V 2.3913332 l 0.19684999,-0.033867 v 1.3229166 q 0,0.048683 0.008467,0.080433 0.008467,0.03175 0.0275167,0.0508 0.01905,0.01905 0.0508,0.029633 0.03175,0.00847 0.0783167,0.014817 z"
         id="path13521" />
      <path
         d="m 1.7187307,3.4496665 q 0,0.1312333 -0.0381,0.2370666 -0.0381,0.1058333 -0.10795,0.1820333 -0.067733,0.0762 -0.1629833,0.1185334 -0.09525,0.040217 -0.2074333,0.040217 -0.1121834,0 -0.20743337,-0.040217 -0.09525,-0.042333 -0.16509999,-0.1185334 -0.0677333,-0.0762 -0.10583333,-0.1820333 -0.0381,-0.1058333 -0.0381,-0.2370666 0,-0.1291167 0.0381,-0.23495 0.0381,-0.10795 0.10583333,-0.18415 0.06985,-0.0762 0.16509999,-0.1164167 0.09525,-0.042333 0.20743337,-0.042333 0.1121833,0 0.2074333,0.042333 0.09525,0.040217 0.1629833,0.1164167 0.06985,0.0762 0.10795,0.18415 0.0381,0.1058333 0.0381,0.23495 z m -0.2053167,0 q 0,-0.1862667 -0.084667,-0.2942167 -0.08255,-0.1100667 -0.2264833,-0.1100667 -0.1439334,0 -0.22860003,0.1100667 -0.08255,0.10795 -0.08255,0.2942167 0,0.1862666 0.08255,0.2963333 0.0846666,0.10795 0.22860003,0.10795 0.1439333,0 0.2264833,-0.10795 0.084667,-0.1100667 0.084667,-0.2963333 z"
         id="path13523" />
      <path
         d="m 2.6860437,3.8899331 q -0.0254,0.016933 -0.099483,0.04445 -0.071967,0.0254 -0.1693333,0.0254 -0.099483,0 -0.1883834,-0.03175 -0.086783,-0.03175 -0.1524,-0.097367 -0.065617,-0.067733 -0.1037166,-0.1672166 -0.0381,-0.099483 -0.0381,-0.2370667 0,-0.12065 0.035983,-0.2201333 0.035983,-0.1016 0.1037167,-0.1735667 0.06985,-0.074083 0.1693333,-0.1142999 0.099483,-0.042333 0.2243667,-0.042333 0.1375833,0 0.2391833,0.021167 0.1037166,0.01905 0.1735666,0.035983 v 0.9821333 q 0,0.254 -0.1312333,0.3683 -0.1312333,0.1143 -0.3979333,0.1143 -0.1037167,0 -0.19685,-0.016933 -0.091017,-0.016933 -0.15875,-0.040217 l 0.035983,-0.17145 q 0.059267,0.023283 0.1439334,0.040217 0.086783,0.01905 0.1799166,0.01905 0.1756833,0 0.2518833,-0.06985 0.078317,-0.06985 0.078317,-0.22225 z M 2.683927,3.0728998 q -0.029633,-0.00847 -0.080433,-0.014817 -0.048683,-0.00847 -0.13335,-0.00847 -0.15875,0 -0.2455333,0.1037166 -0.084667,0.1037167 -0.084667,0.2751667 0,0.09525 0.023283,0.1629833 0.0254,0.067733 0.065617,0.1121833 0.042333,0.04445 0.09525,0.065617 0.055033,0.021167 0.1121834,0.021167 0.078317,0 0.1439333,-0.021167 0.065617,-0.023283 0.1037166,-0.052917 z"
         id="path13525" />
      <path
         d="M 3.4162917,3.9999998 H 3.2194418 V 2.8993332 H 3.4162917 Z M 3.3168084,2.7003665 q -0.052917,0 -0.091017,-0.033867 -0.035983,-0.035983 -0.035983,-0.09525 0,-0.059267 0.035983,-0.093133 0.0381,-0.035983 0.091017,-0.035983 0.052917,0 0.0889,0.035983 0.0381,0.033867 0.0381,0.093133 0,0.059267 -0.0381,0.09525 -0.035983,0.033867 -0.0889,0.033867 z"
         id="path13527" />
      <path
         d="m 4.0110716,3.8581831 q 0.12065,0 0.1778,-0.03175 0.059267,-0.03175 0.059267,-0.1016 0,-0.071967 -0.05715,-0.1143 -0.05715,-0.042333 -0.1883833,-0.09525 -0.0635,-0.0254 -0.1227667,-0.0508 -0.05715,-0.027517 -0.099483,-0.0635 -0.042333,-0.035983 -0.067733,-0.086783 -0.0254,-0.0508 -0.0254,-0.1248833 0,-0.14605 0.10795,-0.2307167 0.10795,-0.086783 0.2942166,-0.086783 0.046567,0 0.093133,0.00635 0.046567,0.00423 0.086783,0.0127 0.040217,0.00635 0.06985,0.014817 0.03175,0.00847 0.048683,0.014817 l -0.035983,0.1693333 q -0.03175,-0.016933 -0.099483,-0.033867 -0.067733,-0.01905 -0.1629834,-0.01905 -0.08255,0 -0.1439333,0.033867 -0.061383,0.03175 -0.061383,0.1016 0,0.035983 0.0127,0.0635 0.014817,0.027517 0.042333,0.0508 0.029633,0.021167 0.071967,0.040217 0.042333,0.01905 0.1016,0.040217 0.078317,0.029633 0.1397,0.059267 0.061383,0.027517 0.1037166,0.065617 0.04445,0.0381 0.067733,0.093133 0.023283,0.052917 0.023283,0.1312333 0,0.1524 -0.1143,0.2307167 -0.1121833,0.078317 -0.3217333,0.078317 -0.14605,0 -0.2286,-0.0254 -0.08255,-0.023283 -0.1121833,-0.035983 l 0.035983,-0.1693333 q 0.033867,0.0127 0.10795,0.0381 0.074083,0.0254 0.19685,0.0254 z"
         id="path13529" />
      <path
         d="M 4.8831364,2.8993332 H 5.3001197 V 3.0644331 H 4.8831364 v 0.508 q 0,0.08255 0.0127,0.1375833 0.0127,0.052917 0.0381,0.084667 0.0254,0.029633 0.0635,0.042333 0.0381,0.0127 0.0889,0.0127 0.0889,0 0.1418166,-0.01905 0.055033,-0.021167 0.0762,-0.029633 l 0.0381,0.1629833 q -0.029633,0.014817 -0.1037166,0.035983 -0.074083,0.023283 -0.1693334,0.023283 -0.1121833,0 -0.1862666,-0.027517 -0.071967,-0.029633 -0.1164167,-0.086783 -0.04445,-0.05715 -0.0635,-0.1397 -0.016933,-0.084667 -0.016933,-0.1947333 V 2.5924165 l 0.19685,-0.033867 z"
         id="path13531" />
      <path
         d="m 5.7467332,3.9999998 h -0.19685 V 2.8993332 h 0.19685 z M 5.6472499,2.7003665 q -0.052917,0 -0.091017,-0.033867 -0.035983,-0.035983 -0.035983,-0.09525 0,-0.059267 0.035983,-0.093133 0.0381,-0.035983 0.091017,-0.035983 0.052917,0 0.0889,0.035983 0.0381,0.033867 0.0381,0.093133 0,0.059267 -0.0381,0.09525 -0.035983,0.033867 -0.0889,0.033867 z"
         id="path13533" />
      <path
         d="m 6.5637628,4.0253998 q -0.13335,0 -0.23495,-0.042333 -0.099483,-0.042333 -0.1693333,-0.1185333 -0.067733,-0.0762 -0.1016,-0.1799167 -0.033867,-0.1058333 -0.033867,-0.2328333 0,-0.127 0.035983,-0.2328333 0.0381,-0.1058333 0.1058333,-0.1820333 0.067733,-0.078317 0.1651,-0.12065 0.099483,-0.04445 0.2201333,-0.04445 0.074083,0 0.1481667,0.0127 0.074083,0.0127 0.1418166,0.040217 l -0.04445,0.1672166 q -0.04445,-0.021167 -0.1037166,-0.033867 -0.05715,-0.0127 -0.1227667,-0.0127 -0.1651,0 -0.254,0.1037167 -0.086783,0.1037167 -0.086783,0.3026833 0,0.0889 0.01905,0.1629833 0.021167,0.074083 0.0635,0.127 0.04445,0.052917 0.1121833,0.08255 0.067733,0.027517 0.1651,0.027517 0.078317,0 0.1418167,-0.014817 0.0635,-0.014817 0.099483,-0.03175 l 0.027517,0.1651 q -0.016933,0.010583 -0.048683,0.021167 -0.03175,0.00847 -0.071967,0.014817 -0.040217,0.00847 -0.086783,0.0127 -0.04445,0.00635 -0.086783,0.00635 z"
         id="path13535" />
      <path
         d="m 0.42544998,6.5040163 q 0.12064999,0 0.17779999,-0.03175 0.0592667,-0.03175 0.0592667,-0.1016 0,-0.071967 -0.05715,-0.1143 -0.05715,-0.042333 -0.18838332,-0.09525 -0.0635,-0.0254 -0.12276666,-0.0508 -0.05715,-0.027517 -0.0994833,-0.0635 -0.0423333,-0.035983 -0.0677333,-0.086783 -0.0254,-0.0508 -0.0254,-0.1248833 0,-0.14605 0.10795,-0.2307167 0.10794999,-0.086783 0.29421665,-0.086783 0.0465667,0 0.0931333,0.00635 0.0465667,0.00423 0.0867833,0.0127 0.0402167,0.00635 0.06985,0.014817 0.03175,0.00847 0.0486833,0.014817 l -0.0359833,0.1693333 q -0.03175,-0.016933 -0.0994833,-0.033867 -0.0677333,-0.01905 -0.16298332,-0.01905 -0.08255,0 -0.14393333,0.033867 -0.0613833,0.03175 -0.0613833,0.1016 0,0.035983 0.0127,0.0635 0.0148167,0.027517 0.0423333,0.0508 0.0296333,0.021167 0.0719667,0.040217 0.0423333,0.01905 0.10159999,0.040217 0.0783167,0.029633 0.13969999,0.059267 0.0613833,0.027517 0.10371667,0.065617 0.04445,0.0381 0.0677333,0.093133 0.0232833,0.052917 0.0232833,0.1312333 0,0.1524 -0.1143,0.2307167 -0.11218332,0.078317 -0.32173331,0.078317 -0.14604999,0 -0.22859999,-0.0254 -0.08255,-0.023283 -0.11218333,-0.035983 L 0.12064999,6.4405163 q 0.0338667,0.0127 0.10795,0.0381 0.0740833,0.0254 0.19684999,0.0254 z"
         id="path13537" />
      <path
         d="m 1.5917314,6.671233 q -0.13335,0 -0.2349499,-0.042333 -0.099483,-0.042333 -0.1693334,-0.1185333 -0.067733,-0.0762 -0.1016,-0.1799167 -0.033867,-0.1058333 -0.033867,-0.2328333 0,-0.127 0.035983,-0.2328333 0.0381,-0.1058333 0.1058333,-0.1820333 0.067733,-0.078317 0.1651,-0.12065 0.099483,-0.04445 0.2201333,-0.04445 0.074083,0 0.1481667,0.0127 0.074083,0.0127 0.1418167,0.040217 l -0.04445,0.1672167 q -0.04445,-0.021167 -0.1037167,-0.033867 -0.05715,-0.0127 -0.1227667,-0.0127 -0.1650999,0 -0.2539999,0.1037167 -0.086783,0.1037167 -0.086783,0.3026833 0,0.0889 0.01905,0.1629833 0.021167,0.074083 0.0635,0.127 0.04445,0.052917 0.1121834,0.08255 0.067733,0.027517 0.1650999,0.027517 0.078317,0 0.1418167,-0.014817 0.0635,-0.014817 0.099483,-0.03175 l 0.027517,0.1651 q -0.016933,0.010583 -0.048683,0.021167 -0.03175,0.00847 -0.071967,0.014817 -0.040217,0.00847 -0.086783,0.0127 -0.04445,0.00635 -0.086783,0.00635 z"
         id="path13539" />
      <path
         d="m 2.504011,5.521883 q 0.0254,0 0.05715,0.00423 0.033867,0.00212 0.065617,0.00847 0.03175,0.00423 0.05715,0.010583 0.027517,0.00423 0.040217,0.00847 l -0.033867,0.17145 q -0.023283,-0.00847 -0.078317,-0.01905 -0.052917,-0.0127 -0.1375833,-0.0127 -0.055033,0 -0.1100667,0.0127 -0.052917,0.010583 -0.06985,0.014817 v 0.92498 H 2.0976111 v -1.0541 Q 2.1674611,5.566333 2.2711777,5.545166 2.3748944,5.521883 2.504011,5.521883 Z"
         id="path13541" />
      <path
         d="m 3.2871769,6.5040163 q 0.06985,0 0.1227667,-0.00212 0.055033,-0.00423 0.091017,-0.0127 v -0.32808 q -0.021167,-0.010583 -0.06985,-0.016933 -0.046567,-0.00847 -0.1143,-0.00847 -0.04445,0 -0.09525,0.00635 -0.048683,0.00635 -0.091017,0.027517 -0.040217,0.01905 -0.067733,0.055033 -0.027517,0.033867 -0.027517,0.091017 0,0.1058333 0.067733,0.1481666 0.067733,0.040217 0.1841499,0.040217 z M 3.2702436,5.5176497 q 0.1185333,0 0.1989667,0.03175 0.08255,0.029633 0.1312333,0.086783 0.0508,0.055033 0.071967,0.13335 0.021167,0.0762 0.021167,0.1693333 v 0.687917 q -0.0254,0.00423 -0.071967,0.0127 -0.04445,0.00635 -0.1016,0.0127 -0.05715,0.00635 -0.1248834,0.010583 -0.065617,0.00635 -0.1312333,0.00635 -0.093133,0 -0.17145,-0.01905 -0.078317,-0.01905 -0.1354666,-0.059267 -0.05715,-0.042333 -0.0889,-0.1100666 -0.03175,-0.067733 -0.03175,-0.1629834 0,-0.091017 0.035983,-0.1566333 0.0381,-0.065617 0.1016,-0.1058333 0.0635,-0.040217 0.1481667,-0.059267 0.084667,-0.01905 0.1777999,-0.01905 0.029633,0 0.061383,0.00423 0.03175,0.00212 0.059267,0.00847 0.029633,0.00423 0.0508,0.00847 0.021167,0.00423 0.029633,0.00635 v -0.055033 q 0,-0.048683 -0.010583,-0.09525 -0.010583,-0.048683 -0.0381,-0.084667 -0.027517,-0.0381 -0.0762,-0.059267 -0.046567,-0.023283 -0.1227666,-0.023283 -0.097367,0 -0.17145,0.014817 -0.071967,0.0127 -0.10795,0.027517 L 2.950627,5.566333 q 0.0381,-0.016933 0.127,-0.03175 0.0889,-0.016933 0.1926166,-0.016933 z"
         id="path13543" />
      <path
         d="m 4.2036923,5.5451663 h 0.4169833 v 0.1651 H 4.2036923 v 0.508 q 0,0.08255 0.0127,0.1375833 0.0127,0.052917 0.0381,0.084667 0.0254,0.029633 0.0635,0.042333 0.0381,0.0127 0.0889,0.0127 0.0889,0 0.1418167,-0.01905 0.055033,-0.021167 0.0762,-0.029633 l 0.0381,0.1629833 q -0.029633,0.014817 -0.1037167,0.035983 -0.074083,0.023283 -0.1693333,0.023283 -0.1121834,0 -0.1862667,-0.027517 -0.071967,-0.029633 -0.1164166,-0.086783 -0.04445,-0.05715 -0.0635,-0.1397 Q 4.0068423,6.3304496 4.0068423,6.220383 V 5.2382497 l 0.19685,-0.033867 z"
         id="path13545" />
      <path
         d="m 5.3212878,6.671233 q -0.13335,0 -0.23495,-0.042333 -0.099483,-0.042333 -0.1693333,-0.1185333 -0.067733,-0.0762 -0.1016,-0.1799167 -0.033867,-0.1058333 -0.033867,-0.2328333 0,-0.127 0.035983,-0.2328333 0.0381,-0.1058333 0.1058334,-0.1820333 0.067733,-0.078317 0.1650999,-0.12065 0.099483,-0.04445 0.2201334,-0.04445 0.074083,0 0.1481666,0.0127 0.074083,0.0127 0.1418167,0.040217 l -0.04445,0.1672167 q -0.04445,-0.021167 -0.1037167,-0.033867 -0.05715,-0.0127 -0.1227666,-0.0127 -0.1651,0 -0.254,0.1037167 -0.086783,0.1037167 -0.086783,0.3026833 0,0.0889 0.01905,0.1629833 0.021167,0.074083 0.0635,0.127 0.04445,0.052917 0.1121834,0.08255 0.067733,0.027517 0.1651,0.027517 0.078317,0 0.1418166,-0.014817 0.0635,-0.014817 0.099483,-0.03175 l 0.027517,0.1651 q -0.016933,0.010583 -0.048683,0.021167 -0.03175,0.00847 -0.071967,0.014817 -0.040217,0.00847 -0.086783,0.0127 -0.04445,0.00635 -0.086783,0.00635 z"
         id="path13547" />
      <path
         d="M 5.8271674,6.645833 V 5.0371664 l 0.19685,-0.033867 V 5.566333 q 0.055033,-0.021167 0.1164166,-0.03175 0.0635,-0.0127 0.1248834,-0.0127 0.1312333,0 0.2180166,0.0381 0.086783,0.035983 0.1375833,0.1037167 0.052917,0.065617 0.074083,0.15875 0.021167,0.093133 0.021167,0.2053166 V 6.645833 h -0.19685 V 6.0700997 q 0,-0.1016 -0.014817,-0.1735667 -0.0127,-0.071967 -0.04445,-0.1164167 -0.03175,-0.04445 -0.084667,-0.0635 -0.052917,-0.021167 -0.1312333,-0.021167 -0.03175,0 -0.065617,0.00423 -0.033867,0.00423 -0.065617,0.010583 -0.029633,0.00423 -0.055033,0.010583 -0.023283,0.00635 -0.033867,0.010583 v 0.9144 z"
         id="path13549" />
    </g>
    <path
       style="display:inline;fill:#000000;stroke-width:0.256427"
       d="m 6.3076506,122.99351 c -0.03895,-0.87892 0.0074,-0.94127 0.676794,-0.90935 0.592699,0.0282 0.618282,0.0531 0.146007,0.14137 -0.416041,0.0778 -0.601093,0.32647 -0.676794,0.90936 -0.100103,0.77081 -0.105827,0.76526 -0.146007,-0.14138 z m 1.438882,0.37746 c 0.08798,-0.33624 0.348012,-0.56618 0.640289,-0.56618 0.2706833,0 0.4921523,-0.11324 0.4921523,-0.25164 0,-0.13839 -0.159216,-0.25163 -0.353815,-0.25163 -0.1945983,0 -0.6677623,-0.28018 -1.0514773,-0.62261 -0.383715,-0.34245 -0.753661,-0.62554 -0.822101,-0.62909 -0.06844,-0.004 -0.124436,-0.063 -0.124436,-0.13228 v -0.301 c 0,-0.0963 0.382172,0.1707 0.849271,0.59342 0.57354,0.51907 1.582834,0.98443 3.1086934,1.43334 2.72786,0.80257 3.077277,0.82123 3.025669,0.16152 -0.02826,-0.36128 -0.170622,-0.4631 -0.504743,-0.36099 -0.364501,0.11141 -0.426807,0.0432 -0.287438,-0.31458 0.155991,-0.40047 0.12397,-0.41455 -0.25963,-0.11412 -0.572561,0.44842 -1.26488,0.19257 -1.071773,-0.39607 0.140142,-0.42721 0.128587,-0.42768 -0.229199,-0.01 -0.481338,0.56255 -0.711137,0.55877 -0.711137,-0.0117 0,-0.32913 0.195394,-0.44784 0.718613,-0.4366 0.562469,0.0121 0.699371,0.12104 0.630055,0.50142 -0.07456,0.40915 -0.02569,0.43574 0.309153,0.16814 0.553362,-0.44223 1.739262,0.30903 1.739262,1.10182 0,0.83186 -0.558794,0.91682 -2.254806,0.3428 l -1.502355,-0.50848 -0.4674357,0.5851 c -0.2570927,0.32181 -0.4700517,0.45024 -0.4732477,0.28541 -0.0032,-0.16484 0.111783,-0.36967 0.255505,-0.45521 0.1437227,-0.0855 0.2613147,-0.25965 0.2613147,-0.38691 0,-0.30875 -1.3542307,0.28008 -1.7508747,0.76129 -0.262658,0.31865 -0.289564,0.28847 -0.165509,-0.18566 z m 1.45691,-2.10626 c -0.791051,-0.48781 -0.839522,-0.49198 -0.6833307,-0.0587 0.10338,0.28681 -0.2218403,0.10236 -0.8445923,-0.47901 -0.837037,-0.7814 -0.962861,-1.02148 -0.725342,-1.38398 0.254583,-0.38854 0.679124,-0.42846 3.7212214,-0.34992 2.960695,0.0765 3.433856,0.0351 3.433856,-0.29969 0,-0.21359 -0.113739,-0.45604 -0.252756,-0.53877 -0.139014,-0.0827 -0.184242,-0.4803 -0.100502,-0.88348 0.130239,-0.62708 0.0588,-0.75565 -0.494075,-0.88927 -0.36303,-0.0878 -1.073369,0.0156 -1.620608,0.23579 -0.861674,0.34669 -1.019137,0.34881 -1.362348,0.0184 -0.5104987,-0.49159 -0.6997837,-0.4722 -1.2653354,0.12958 -0.2601357,0.27679 -0.601738,0.50153 -0.759116,0.4994 -0.157378,-0.002 -0.109755,-0.11362 0.105829,-0.24777 0.3065833,-0.19079 0.2387853,-0.24477 -0.31122,-0.24778 -0.386756,-0.002 -0.775869,0.10938 -0.864694,0.24778 -0.08883,0.13839 0.05123,0.25564 0.311221,0.26055 0.376242,0.007 0.33939,0.0824 -0.180563,0.36853 -0.87971,0.48425 -1.186472,0.46753 -0.750611,-0.0409 0.279598,-0.32617 0.286649,-0.4417 0.032,-0.52424 -0.179654,-0.0582 -0.326644,-0.21634 -0.326644,-0.35138 0,-0.13503 0.116661,-0.17609 0.259245,-0.0912 0.142585,0.0848 0.451664,0.0506 0.686842,-0.0762 0.518482,-0.2794 0.02663,-0.6753 -0.566629,-0.45607 -0.208701,0.0771 -0.379458,0.0305 -0.379458,-0.10353 0,-0.35898 0.870615,-0.29636 1.438441,0.10346 0.366447,0.25802 0.683328,0.28332 1.2339083,0.0985 0.5182857,-0.17398 0.9667914,-0.15855 1.4930171,0.0514 0.568072,0.22659 0.888868,0.22958 1.310597,0.0123 0.307127,-0.15829 0.935148,-0.25269 1.395606,-0.20981 0.736595,0.0686 0.839232,0.17009 0.854127,0.84442 0.0093,0.42153 0.09983,0.89558 0.201144,1.05345 0.167782,0.26142 0.02109,2.31147 -0.179214,2.50433 -0.04662,0.0449 -0.449461,-0.0408 -0.8952,-0.19042 -0.598997,-0.20107 -0.767722,-0.3819 -0.646731,-0.69311 0.142584,-0.36677 0.106828,-0.37654 -0.2772,-0.0757 -0.35629,0.27908 -0.440897,0.28192 -0.440897,0.0148 0,-0.20126 -0.150057,-0.1395 -0.383661,0.15791 -0.211015,0.26866 -0.387401,0.39955 -0.391972,0.29088 -0.0045,-0.10868 -0.237772,-0.0793 -0.518222,0.0652 -0.37395,0.19273 -0.4835367,0.46345 -0.411,1.01539 0.0544,0.41392 0.07807,0.75069 0.05261,0.74836 -0.02548,-0.002 -0.4294527,-0.24052 -0.8977444,-0.52931 z m 0.7207877,-0.22135 c 0,-0.1384 -0.05186,-0.25163 -0.115237,-0.25163 -0.06338,0 -0.187911,0.11323 -0.276735,0.25163 -0.08883,0.13839 -0.03697,0.25163 0.115235,0.25163 0.152205,0 0.276737,-0.11324 0.276737,-0.25163 z m -1.7148067,-1.15264 c 0.4928183,-0.47456 0.3137353,-0.86042 -0.399332,-0.86042 -0.636205,0 -0.96887,0.72496 -0.471754,1.02807 0.462158,0.28179 0.389914,0.2957 0.871086,-0.16765 z m 5.6345174,0.0359 c 0,-0.20669 -0.224067,-0.34555 -0.522629,-0.3239 -0.644455,0.0467 -0.683967,0.35658 -0.06533,0.51226 0.251515,0.0633 0.486698,0.12821 0.522629,0.14427 0.03593,0.0161 0.06533,-0.13363 0.06533,-0.33263 z m -3.13577,-0.42001 c 0,-0.33158 -1.5057534,-0.27346 -1.7239814,0.0666 -0.1280847,0.19957 -0.0096,0.2466 0.376547,0.14938 0.3099217,-0.0781 0.5634937,-0.0428 0.5634937,0.0783 0,0.1211 0.1763867,0.155 0.3919707,0.0753 0.215584,-0.0797 0.39197,-0.24596 0.39197,-0.36956 z m -1.2188127,-1.87724 c -0.2177937,-0.54653 0.335118,-1.06051 0.7308827,-0.6794 0.33449,0.32209 0.127273,1.07377 -0.2960107,1.07377 -0.152746,0 -0.348436,-0.17747 -0.434872,-0.39437 z m 0.352064,-0.40771 c -0.08342,-0.20073 -0.145338,-0.14111 -0.157878,0.15203 -0.01134,0.26526 0.05042,0.41388 0.137247,0.33026 0.08683,-0.0836 0.09612,-0.30064 0.02062,-0.48229 z"
       id="path1561"
       sodipodi:nodetypes="ssssssssssssssssssssssssssscsssssscssssssssssscscsssssssssssssssssssssssssscscsssssssssssssssssssssssssssss" />
    <g
       aria-label="LENGTH"
       id="text32"
       style="font-size:15.1181px;font-family:Ubuntu"
       transform="matrix(0.18911993,0,0,0.205266,-6.8232932,-19.658028)">
      <path
         d="m 52.958742,270.85606 v 1.26992 h -6.304253 v -10.47685 h 1.466457 v 9.20693 z"
         id="path9416" />
      <path
         d="m 54.500775,272.12598 v -10.47685 h 6.394961 v 1.2548 h -4.928504 v 3.11433 h 4.384252 v 1.22457 h -4.384252 v 3.62834 h 5.306457 v 1.25481 z"
         id="path9418" />
      <path
         d="m 70.314306,272.12598 q -0.332598,-0.55937 -0.771024,-1.25481 -0.423307,-0.69543 -0.922204,-1.43622 -0.498898,-0.7559 -1.04315,-1.52693 -0.529134,-0.77102 -1.058268,-1.48157 -0.529134,-0.72567 -1.028031,-1.36063 -0.498898,-0.63496 -0.922205,-1.11874 v 8.1789 h -1.436221 v -10.47685 h 1.164095 q 0.710551,0.7559 1.511811,1.76881 0.816378,0.9978 1.60252,2.07119 0.80126,1.05826 1.496693,2.0863 0.710551,1.02803 1.19433,1.82929 v -7.75559 h 1.436221 v 10.47685 z"
         id="path9420" />
      <path
         d="m 80.53413,266.9707 h 1.466457 v 4.89827 q -0.181417,0.0605 -0.529134,0.13606 -0.332598,0.0756 -0.786141,0.15118 -0.438426,0.0756 -0.96756,0.12095 -0.529133,0.0605 -1.073385,0.0605 -1.103622,0 -2.010709,-0.36283 -0.907087,-0.36284 -1.557165,-1.05827 -0.650079,-0.69544 -1.012914,-1.70835 -0.347716,-1.01291 -0.347716,-2.32819 0,-1.31527 0.39307,-2.32819 0.408189,-1.02803 1.088504,-1.72346 0.680315,-0.69543 1.587402,-1.05827 0.922205,-0.36283 1.965354,-0.36283 0.710552,0 1.254804,0.0907 0.55937,0.0907 0.952441,0.21166 0.39307,0.12094 0.63496,0.24189 0.257008,0.12094 0.347717,0.18142 l -0.468662,1.22456 q -0.438425,-0.28724 -1.164094,-0.46866 -0.72567,-0.19653 -1.481575,-0.19653 -0.80126,0 -1.466457,0.28724 -0.650079,0.28724 -1.11874,0.8315 -0.453543,0.54425 -0.710551,1.33039 -0.257008,0.77102 -0.257008,1.73858 0,0.93733 0.211654,1.70835 0.226771,0.77102 0.665196,1.33039 0.453544,0.54425 1.103622,0.84662 0.665197,0.30236 1.557166,0.30236 0.634961,0 1.073386,-0.0605 0.453543,-0.0756 0.650078,-0.13607 z"
         id="path9422" />
      <path
         d="m 91.29821,261.64913 v 1.26992 h -3.295748 v 9.20693 h -1.466457 v -9.20693 h -3.295748 v -1.26992 z"
         id="path9424" />
      <path
         d="m 99.431731,261.64913 h 1.466459 v 10.47685 h -1.466459 v -4.8378 h -5.12504 v 4.8378 h -1.466456 v -10.47685 h 1.466456 v 4.36913 h 5.12504 z"
         id="path9426" />
    </g>
    <g
       aria-label="OUT"
       id="text44"
       style="font-size:4px;font-family:Ubuntu;stroke-width:0.264583"
       transform="matrix(0.70521912,0,0,0.70521912,-7.2941921,28.332862)">
      <path
         d="m 11.761156,100.23593 q 0,-0.355998 0.104,-0.627998 0.108,-0.272 0.288,-0.452 0.184,-0.184 0.424,-0.276 0.244,-0.092 0.516,-0.092 0.268,0 0.504,0.092 0.24,0.092 0.42,0.276 0.18,0.18 0.284,0.452 0.108,0.272 0.108,0.627998 0,0.356 -0.108,0.628 -0.104,0.272 -0.284,0.456 -0.18,0.18 -0.42,0.272 -0.236,0.092 -0.504,0.092 -0.272,0 -0.516,-0.092 -0.24,-0.092 -0.424,-0.272 -0.18,-0.184 -0.288,-0.456 -0.104,-0.272 -0.104,-0.628 z m 0.408,0 q 0,0.252 0.064,0.46 0.064,0.204 0.18,0.348 0.12,0.144 0.288,0.224 0.172,0.076 0.384,0.076 0.212,0 0.38,-0.076 0.168,-0.08 0.284,-0.224 0.12,-0.144 0.184,-0.348 0.064,-0.208 0.064,-0.46 0,-0.251998 -0.064,-0.455998 -0.064,-0.208 -0.184,-0.352 -0.116,-0.144 -0.284,-0.22 -0.168,-0.08 -0.38,-0.08 -0.212,0 -0.384,0.08 -0.168,0.076 -0.288,0.22 -0.116,0.144 -0.18,0.352 -0.064,0.204 -0.064,0.455998 z"
         id="path719" />
      <path
         d="m 16.017155,101.68393 q -0.272,0 -0.472,-0.084 -0.2,-0.084 -0.328,-0.228 -0.128,-0.148 -0.192,-0.348 -0.06,-0.2 -0.06,-0.432 v -1.739998 h 0.388 v 1.695998 q 0,0.416 0.184,0.604 0.184,0.188 0.48,0.188 0.148,0 0.268,-0.044 0.124,-0.048 0.212,-0.144 0.088,-0.096 0.136,-0.244 0.048,-0.152 0.048,-0.36 v -1.695998 h 0.388 v 1.739998 q 0,0.232 -0.064,0.432 -0.06,0.2 -0.192,0.348 -0.128,0.144 -0.328,0.228 -0.196,0.084 -0.468,0.084 z"
         id="path721" />
      <path
         d="m 19.589154,98.851932 v 0.336 h -0.872 v 2.435998 h -0.388 v -2.435998 h -0.872 v -0.336 z"
         id="path723" />
    </g>
    <text
       xml:space="preserve"
       style="font-size:2.82223px;line-height:1.25;font-family:Ubuntu;-inkscape-font-specification:Ubuntu;stroke-width:0.264583"
       x="11"
       y="35"
       id="text14295"><tspan
         sodipodi:role="line"
         id="tspan14293"
         style="stroke-width:0.264583"
         x="11"
         y="35" /></text>
    <g
       aria-label="SPEED"
       id="text38-3"
       style="font-size:15.1181px;font-family:Ubuntu;display:inline"
       transform="matrix(0.18911993,0,0,0.205266,-6.6717593,8.5838956)">
      <path
         d="m 49.088505,308.87812 q 2.297953,0 2.297953,-1.57229 0,-0.48378 -0.211653,-0.81638 -0.196536,-0.34771 -0.544252,-0.5896 -0.347717,-0.25701 -0.80126,-0.43843 -0.438425,-0.18142 -0.937323,-0.36283 -0.574488,-0.19654 -1.088504,-0.43843 -0.514016,-0.25701 -0.891969,-0.5896 -0.377952,-0.34772 -0.604724,-0.81638 -0.211654,-0.46866 -0.211654,-1.13386 0,-1.37575 0.937323,-2.14677 0.937323,-0.77103 2.585197,-0.77103 0.952441,0 1.723465,0.21166 0.786142,0.19653 1.148976,0.43842 l -0.468661,1.19433 q -0.317481,-0.19653 -0.952441,-0.37795 -0.619843,-0.19653 -1.451339,-0.19653 -0.423307,0 -0.786142,0.0907 -0.362834,0.0907 -0.63496,0.27213 -0.272126,0.18142 -0.438425,0.46866 -0.151182,0.27213 -0.151182,0.65008 0,0.42331 0.1663,0.71055 0.166299,0.28725 0.468661,0.51402 0.302362,0.21165 0.695433,0.39307 0.408189,0.18142 0.891969,0.36283 0.680315,0.27213 1.239685,0.54425 0.574488,0.27213 0.982677,0.65008 0.423307,0.37796 0.650079,0.90709 0.226771,0.51402 0.226771,1.2548 0,1.37575 -1.012913,2.11654 -0.997795,0.74079 -2.827087,0.74079 -0.619842,0 -1.148976,-0.0907 -0.514016,-0.0756 -0.922205,-0.18142 -0.408189,-0.12094 -0.710551,-0.24189 -0.287244,-0.13606 -0.453543,-0.22677 l 0.438425,-1.20945 q 0.347716,0.19654 1.058268,0.43843 0.710551,0.24189 1.738582,0.24189 z"
         id="path9429-6" />
      <path
         d="m 57.47905,299.33859 q 2.207245,0 3.386457,0.84661 1.194331,0.8315 1.194331,2.49449 0,0.90709 -0.332598,1.55717 -0.317481,0.63496 -0.937323,1.04314 -0.604725,0.39308 -1.481575,0.57449 -0.876851,0.18142 -1.980473,0.18142 h -1.164094 v 3.88535 H 54.697318 V 299.5956 q 0.619843,-0.15119 1.375748,-0.19654 0.771024,-0.0605 1.405984,-0.0605 z m 0.120945,1.28504 q -0.937323,0 -1.43622,0.0453 v 4.11213 h 1.103622 q 0.755905,0 1.36063,-0.0907 0.604724,-0.10583 1.012913,-0.3326 0.423307,-0.24189 0.650079,-0.65008 0.226772,-0.40819 0.226772,-1.04315 0,-0.60472 -0.24189,-0.99779 -0.226772,-0.39307 -0.634961,-0.61985 -0.393071,-0.24189 -0.922205,-0.33259 -0.529133,-0.0907 -1.11874,-0.0907 z"
         id="path9431-7" />
      <path
         d="m 63.889128,309.92126 v -10.47685 h 6.394961 v 1.25481 h -4.928505 v 3.11433 h 4.384253 v 1.22456 h -4.384253 v 3.62835 h 5.306457 v 1.2548 z"
         id="path9433-5" />
      <path
         d="m 72.521555,309.92126 v -10.47685 h 6.394961 v 1.25481 h -4.928504 v 3.11433 h 4.384252 v 1.22456 h -4.384252 v 3.62835 h 5.306456 v 1.2548 z"
         id="path9435-3" />
      <path
         d="m 89.756187,304.67528 q 0,1.36063 -0.423307,2.37354 -0.423307,0.9978 -1.194331,1.663 -0.771023,0.65007 -1.844409,0.98267 -1.073386,0.31748 -2.358426,0.31748 -0.63496,0 -1.405984,-0.0605 -0.755905,-0.0453 -1.375748,-0.19653 V 299.5956 q 0.619843,-0.15119 1.375748,-0.19654 0.771024,-0.0605 1.405984,-0.0605 1.28504,0 2.358426,0.3326 1.073386,0.31748 1.844409,0.98267 0.771024,0.65008 1.194331,1.66299 0.423307,0.9978 0.423307,2.35843 z m -5.699528,4.05165 q 2.0863,0 3.114331,-1.05826 1.028032,-1.07339 1.028032,-2.99339 0,-1.92 -1.028032,-2.97827 -1.028031,-1.07338 -3.114331,-1.07338 -0.619842,0 -0.967559,0.0151 -0.332598,0.0151 -0.468661,0.0302 v 8.0126 q 0.136063,0.0151 0.468661,0.0302 0.347717,0.0151 0.967559,0.0151 z"
         id="path9437-5" />
    </g>
    <g
       aria-label="SCAN"
       transform="scale(0.953595,1.0486632)"
       id="text3067"
       style="font-size:2.95957px;line-height:1.25;font-family:Ubuntu;-inkscape-font-specification:Ubuntu;display:inline;stroke-width:0.277458">
      <path
         d="m 2.7306744,51.481066 q 0.4498546,0 0.4498546,-0.307796 0,-0.09471 -0.041434,-0.159816 Q 3.100621,50.945384 3.0325505,50.89803 2.9644805,50.84772 2.8756933,50.8122 2.7898653,50.77669 2.6922,50.74117 2.5797363,50.7027 2.4791109,50.65534 2.3784856,50.60503 2.3044963,50.539916 2.2305073,50.471846 2.1861135,50.3801 q -0.041434,-0.09175 -0.041434,-0.221968 0,-0.269321 0.1834934,-0.420259 0.1834933,-0.150938 0.5060864,-0.150938 0.1864529,0 0.337391,0.04143 0.1538976,0.03847 0.2249273,0.08583 l -0.091747,0.233806 q -0.062151,-0.03847 -0.186453,-0.07399 -0.1213423,-0.03847 -0.2841187,-0.03847 -0.082868,0 -0.1538976,0.01776 -0.07103,0.01776 -0.1243019,0.05327 -0.053272,0.03551 -0.085828,0.09175 -0.029596,0.05327 -0.029596,0.127262 0,0.08287 0.032555,0.139099 0.032555,0.05623 0.091747,0.100626 0.059191,0.04143 0.1361402,0.07695 0.079908,0.03551 0.1746146,0.07103 0.1331807,0.05327 0.2426847,0.106545 0.1124637,0.05327 0.1923721,0.127261 0.082868,0.07399 0.1272615,0.177575 0.044393,0.100625 0.044393,0.245644 0,0.269321 -0.1982911,0.41434 -0.1953317,0.145019 -0.5534396,0.145019 -0.1213424,0 -0.2249273,-0.01776 -0.1006254,-0.0148 -0.1805338,-0.03551 -0.079908,-0.02368 -0.1390998,-0.04735 -0.056232,-0.02664 -0.088787,-0.04439 l 0.085828,-0.236766 q 0.06807,0.03847 0.2071699,0.08583 0.1390998,0.04735 0.3403506,0.04735 z"
         id="path12439" />
      <path
         d="m 4.7106254,51.72967 q -0.2160486,0 -0.3936228,-0.07103 -0.1775742,-0.07103 -0.3048357,-0.20717 -0.1272615,-0.13614 -0.1982912,-0.334431 -0.06807,-0.201251 -0.06807,-0.458734 0,-0.257482 0.076949,-0.455774 0.079908,-0.20125 0.2130891,-0.33739 0.1331806,-0.136141 0.3107548,-0.20717 0.1775742,-0.07103 0.378825,-0.07103 0.1272615,0 0.2278869,0.01776 0.1035849,0.01776 0.1775741,0.04143 0.076949,0.02368 0.124302,0.04735 0.047353,0.02368 0.065111,0.03551 l -0.082868,0.236766 q -0.026636,-0.01776 -0.076949,-0.03848 -0.050313,-0.02072 -0.1154232,-0.04143 -0.062151,-0.02072 -0.1390998,-0.03256 -0.073989,-0.0148 -0.150938,-0.0148 -0.1627764,0 -0.2929975,0.05623 -0.130221,0.05623 -0.2219677,0.162777 -0.091747,0.106544 -0.1420594,0.260442 -0.047353,0.150938 -0.047353,0.34035 0,0.183494 0.041434,0.334432 0.044393,0.150938 0.1302211,0.260442 0.085827,0.106544 0.213089,0.165736 0.1302211,0.05919 0.3018761,0.05919 0.1982912,0 0.3285123,-0.04143 0.1302211,-0.04143 0.1953316,-0.07399 l 0.073989,0.236766 q -0.020717,0.0148 -0.073989,0.03847 -0.053272,0.02072 -0.1331806,0.04143 -0.079908,0.02072 -0.1864529,0.03551 -0.1065445,0.0148 -0.2308465,0.0148 z"
         id="path12441" />
      <path
         d="M 7.0989933,51.685276 Q 7.0486806,51.552095 7.0042871,51.424834 6.9598935,51.294613 6.9125404,51.161432 H 5.9832354 L 5.7967825,51.685276 H 5.497866 q 0.1183828,-0.325553 0.2219677,-0.600793 0.103585,-0.278199 0.2012508,-0.526803 0.1006253,-0.248604 0.1982911,-0.473531 0.097666,-0.227887 0.2042104,-0.449855 h 0.2634017 q 0.1065445,0.221968 0.2042103,0.449855 0.097666,0.224927 0.1953316,0.473531 0.1006254,0.248604 0.2042104,0.526803 0.1035849,0.27524 0.2219677,0.600793 z M 6.8296724,50.924667 Q 6.7349662,50.667184 6.64026,50.427459 6.5485133,50.184774 6.4478879,49.962806 6.344303,50.184774 6.2495967,50.427459 6.1578501,50.667184 6.0661034,50.924667 Z"
         id="path12443" />
      <path
         d="M 9.0966978,51.685276 Q 9.0315873,51.575772 8.9457597,51.439632 8.8628918,51.303492 8.765226,51.158473 8.6675602,51.010494 8.5610156,50.859556 8.4574307,50.708618 8.3538458,50.569518 8.2502608,50.427459 8.152595,50.303157 8.0549292,50.178855 7.9720612,50.084149 v 1.601127 H 7.6909021 V 49.634294 H 7.918789 q 0.1390998,0.147979 0.295957,0.34627 0.1598167,0.195331 0.3137144,0.405461 0.1568572,0.20717 0.2929974,0.40842 0.1390998,0.201251 0.233806,0.358108 V 49.634294 H 9.336423 v 2.050982 z"
         id="path12445" />
    </g>
    <g
       aria-label="RECORD"
       id="text2220"
       style="font-size:2.82223px;line-height:1.25;font-family:Ubuntu;-inkscape-font-specification:Ubuntu;display:inline;stroke-width:0.264583"
       transform="matrix(1.0982202,0,0,1.0982202,0.63522881,3.9206321)">
      <path
         d="m 2.1994478,12.181553 q 0.045156,0.05645 0.1128892,0.149578 0.070556,0.09031 0.1439337,0.203201 0.073378,0.110067 0.1439338,0.231423 Q 2.6735824,12.887111 2.7243826,13 H 2.4252262 q -0.056445,-0.107245 -0.1241781,-0.217312 -0.064911,-0.110067 -0.1326448,-0.208845 -0.067734,-0.1016 -0.1354671,-0.189089 -0.064911,-0.08749 -0.1185336,-0.152401 -0.036689,0.0028 -0.0762,0.0028 -0.036689,0 -0.0762,0 H 1.5164681 V 13 H 1.2427118 v -1.927583 q 0.1157114,-0.02822 0.2568229,-0.03669 0.1439338,-0.01129 0.2624674,-0.01129 0.4120456,0 0.6265351,0.155223 0.2173117,0.155222 0.2173117,0.462845 0,0.194734 -0.1044225,0.333023 -0.1016003,0.13829 -0.3019786,0.206023 z M 1.78458,11.264328 q -0.1749783,0 -0.2681119,0.0085 V 12.00943 H 1.711202 q 0.1411115,0 0.2540007,-0.01411 0.1128892,-0.01411 0.1890894,-0.05362 0.079022,-0.03951 0.1213559,-0.110067 0.042334,-0.07338 0.042334,-0.191912 0,-0.110067 -0.042334,-0.183445 -0.042333,-0.07338 -0.1157114,-0.115711 -0.070556,-0.04233 -0.1693338,-0.05927 -0.095956,-0.01693 -0.2060228,-0.01693 z"
         id="path8158" />
      <path
         d="M 3.0178937,13 V 11.044195 H 4.211697 V 11.27844 H 3.29165 v 0.581379 H 4.1100967 V 12.08842 H 3.29165 v 0.677335 H 4.2822528 V 13 Z"
         id="path8160" />
      <path
         d="m 5.3913817,13.042333 q -0.2060228,0 -0.3753566,-0.06773 Q 4.8466913,12.906866 4.7253354,12.777044 4.6039795,12.647221 4.536246,12.458132 4.4713347,12.26622 4.4713347,12.020686 q 0,-0.245534 0.073378,-0.434623 0.0762,-0.191912 0.2032006,-0.321735 0.1270004,-0.129822 0.2963342,-0.197556 0.1693338,-0.06773 0.3612454,-0.06773 0.1213559,0 0.2173117,0.01693 0.098778,0.01693 0.1693339,0.03951 0.073378,0.02258 0.1185336,0.04516 0.045156,0.02258 0.062089,0.03387 l -0.079022,0.225778 q -0.0254,-0.01693 -0.073378,-0.03669 -0.047978,-0.01975 -0.110067,-0.03951 -0.059267,-0.01976 -0.1326448,-0.03104 -0.070556,-0.01411 -0.1439338,-0.01411 -0.1552226,0 -0.2794007,0.05362 -0.1241782,0.05362 -0.2116673,0.155222 -0.087489,0.101601 -0.1354671,0.248357 -0.045156,0.143933 -0.045156,0.324556 0,0.174978 0.039511,0.318912 0.042333,0.143934 0.1241781,0.248356 0.081845,0.101601 0.2032006,0.158045 0.1241781,0.05645 0.2878675,0.05645 0.1890894,0 0.3132675,-0.03951 0.1241781,-0.03951 0.1862672,-0.07056 l 0.070556,0.225778 q -0.019756,0.01411 -0.070556,0.03669 -0.0508,0.01976 -0.1270004,0.03951 -0.0762,0.01975 -0.1778005,0.03387 -0.1016003,0.01411 -0.2201339,0.01411 z"
         id="path8162" />
      <path
         d="m 6.1646688,12.020686 q 0,-0.251178 0.073378,-0.44309 0.0762,-0.191912 0.2032005,-0.318912 0.1298226,-0.129823 0.2991564,-0.194734 0.172156,-0.06491 0.3640677,-0.06491 0.1890894,0 0.355601,0.06491 0.1693338,0.06491 0.2963341,0.194734 0.1270004,0.127 0.2003784,0.318912 0.0762,0.191912 0.0762,0.44309 0,0.251179 -0.0762,0.44309 -0.073378,0.191912 -0.2003784,0.321735 -0.1270003,0.127 -0.2963341,0.191911 -0.1665116,0.06491 -0.355601,0.06491 -0.1919117,0 -0.3640677,-0.06491 Q 6.5710699,12.912511 6.4412473,12.785511 6.314247,12.655688 6.2380468,12.463776 6.1646688,12.271865 6.1646688,12.020686 Z m 0.2878674,0 q 0,0.177801 0.045156,0.324557 0.045156,0.143933 0.1270004,0.245534 0.084667,0.1016 0.2032005,0.158045 0.1213559,0.05362 0.2709341,0.05362 0.1495782,0 0.2681119,-0.05362 0.1185337,-0.05645 0.2003783,-0.158045 0.084667,-0.101601 0.1298226,-0.245534 0.045156,-0.146756 0.045156,-0.324557 0,-0.1778 -0.045156,-0.321734 -0.045156,-0.146756 -0.1298226,-0.248356 -0.081845,-0.101601 -0.2003783,-0.155223 -0.1185337,-0.05645 -0.2681119,-0.05645 -0.1495782,0 -0.2709341,0.05645 -0.1185336,0.05362 -0.2032005,0.155223 -0.081845,0.1016 -0.1270004,0.248356 -0.045156,0.143934 -0.045156,0.321734 z"
         id="path8164" />
      <path
         d="m 9.3961217,12.181553 q 0.045156,0.05645 0.1128892,0.149578 0.070556,0.09031 0.1439337,0.203201 0.073378,0.110067 0.1439337,0.231423 Q 9.8702563,12.887111 9.9210565,13 H 9.6219001 q -0.056445,-0.107245 -0.1241782,-0.217312 -0.064911,-0.110067 -0.1326448,-0.208845 -0.067734,-0.1016 -0.135467,-0.189089 -0.064911,-0.08749 -0.1185337,-0.152401 -0.036689,0.0028 -0.0762,0.0028 -0.036689,0 -0.0762,0 H 8.713142 V 13 H 8.4393857 v -1.927583 q 0.1157114,-0.02822 0.2568229,-0.03669 0.1439337,-0.01129 0.2624674,-0.01129 0.4120456,0 0.6265351,0.155223 0.2173117,0.155222 0.2173117,0.462845 0,0.194734 -0.1044225,0.333023 Q 9.5965,12.11382 9.3961217,12.181553 Z M 8.9812538,11.264328 q -0.1749782,0 -0.2681118,0.0085 v 0.736602 h 0.1947339 q 0.1411115,0 0.2540007,-0.01411 0.1128892,-0.01411 0.1890894,-0.05362 0.079022,-0.03951 0.1213559,-0.110067 0.042333,-0.07338 0.042333,-0.191912 0,-0.110067 -0.042333,-0.183445 -0.042334,-0.07338 -0.1157115,-0.115711 -0.070556,-0.04233 -0.1693338,-0.05927 -0.095956,-0.01693 -0.2060228,-0.01693 z"
         id="path8166" />
      <path
         d="m 11.820417,12.020686 q 0,0.254001 -0.07902,0.44309 -0.07902,0.186267 -0.222956,0.310446 -0.143934,0.121355 -0.344312,0.183445 -0.200378,0.05927 -0.440268,0.05927 -0.118533,0 -0.262467,-0.01129 -0.141112,-0.0085 -0.256823,-0.03669 v -1.896538 q 0.115711,-0.02822 0.256823,-0.03669 0.143934,-0.01129 0.262467,-0.01129 0.23989,0 0.440268,0.06209 0.200378,0.05927 0.344312,0.183445 0.143934,0.121356 0.222956,0.310445 0.07902,0.186267 0.07902,0.440267 z m -1.063981,0.756358 q 0.389468,0 0.581379,-0.197556 0.191912,-0.200379 0.191912,-0.558802 0,-0.358423 -0.191912,-0.555979 -0.191911,-0.200379 -0.581379,-0.200379 -0.115711,0 -0.180623,0.0028 -0.06209,0.0028 -0.08749,0.0056 v 1.495782 q 0.0254,0.0028 0.08749,0.0056 0.06491,0.0028 0.180623,0.0028 z"
         id="path8168" />
    </g>
  </g>
  <g
     inkscape:groupmode="layer"
     id="layer2"
     inkscape:label="components"
     style="display:inline">
    <circle
       cx="15"
       cy="23.999996"
       fill="#ff0000"
       id="RecBtn"
       style="display:inline;stroke-width:0.352777"
       r="1.0583333mm"
       inkscape:label="RecBtn" />
    <circle
       cx="5"
       cy="23.999996"
       fill="#00ff00"
       id="RecSocket"
       style="display:inline;stroke-width:0.352777"
       r="1.0583333mm"
       inkscape:label="RecSocket" />
    <circle
       cx="15"
       cy="41.999996"
       fill="#ff0000"
       id="LengthKnob"
       style="display:inline;stroke-width:0.352777"
       inkscape:label="LengthKnob"
       r="1.0583333mm" />
    <circle
       cx="5"
       cy="41.999996"
       fill="#00ff00"
       id="LengthSocket"
       style="display:inline;stroke-width:0.352777"
       r="1.0583333mm"
       inkscape:label="LengthSocket" />
    <circle
       cx="15"
       cy="59.999996"
       fill="#ff0000"
       id="ScanKnob"
       style="display:inline;stroke-width:0.352777"
       inkscape:label="ScanKnob"
       r="1.0583333mm" />
    <circle
       cx="5"
       cy="59.999996"
       fill="#00ff00"
       id="ScanSocket"
       style="display:inline;stroke-width:0.352777"
       r="1.0583333mm"
       inkscape:label="ScanSocket" />
    <circle
       cx="15"
       cy="78"
       fill="#ff0000"
       id="SpeedKnob"
       style="display:inline;stroke-width:0.352777"
       inkscape:label="SpeedKnob"
       r="1.0583333mm" />
    <circle
       cx="5"
       cy="78"
       fill="#00ff00"
       id="SpeedSocket"
       style="display:inline;stroke-width:0.352777"
       r="1.0583333mm"
       inkscape:label="SpeedSocket" />
    <circle
       cx="5"
       cy="106"
       fill="#0000ff"
       id="OutSocket"
       style="display:inline;fill:#0000f4;fill-opacity:1;stroke-width:0.35277"
       inkscape:label="OutSocket"
       r="4" />
  </g>
</svg>
