<?xml version="1.0" encoding="UTF-8" standalone="no"?>
<!-- Created with Inkscape (http://www.inkscape.org/) -->

<svg
   width="40.639999mm"
   height="128.5mm"
   viewBox="0 0 40.639998 128.5"
   version="1.1"
   id="svg359"
   inkscape:version="1.2.2 (732a01da63, 2022-12-09)"
   sodipodi:docname="LFSR16-poly.svg"
   xmlns:inkscape="http://www.inkscape.org/namespaces/inkscape"
   xmlns:sodipodi="http://sodipodi.sourceforge.net/DTD/sodipodi-0.dtd"
   xmlns="http://www.w3.org/2000/svg"
   xmlns:svg="http://www.w3.org/2000/svg">
  <sodipodi:namedview
     id="namedview361"
     pagecolor="#ffffff"
     bordercolor="#666666"
     borderopacity="1.0"
     inkscape:showpageshadow="false"
     inkscape:pageopacity="0.0"
     inkscape:pagecheckerboard="false"
     inkscape:deskcolor="#d1d1d1"
     inkscape:document-units="mm"
     showgrid="true"
     borderlayer="true"
     shape-rendering="auto"
     showguides="true"
     inkscape:lockguides="true"
     inkscape:zoom="1.8"
     inkscape:cx="-11.666667"
     inkscape:cy="263.33333"
     inkscape:window-width="1920"
     inkscape:window-height="1009"
     inkscape:window-x="-8"
     inkscape:window-y="-8"
     inkscape:window-maximized="1"
     inkscape:current-layer="layer1">
    <inkscape:grid
       type="xygrid"
       id="grid480"
       dotted="false"
       spacingx="0.99999998"
       spacingy="0.99999998"
       originx="0"
       originy="0"
       units="mm"
       empspacing="5"
       snapvisiblegridlinesonly="false" />
  </sodipodi:namedview>
  <defs
     id="defs356">
    <linearGradient
       id="linearGradient4130"
       inkscape:swatch="solid">
      <stop
         style="stop-color:#ff0000;stop-opacity:1;"
         offset="0"
         id="stop4128" />
    </linearGradient>
    <linearGradient
       id="linearGradient18497">
      <stop
         style="stop-color:#ff0000;stop-opacity:1;"
         offset="0"
         id="stop18495" />
    </linearGradient>
    <linearGradient
       id="linearGradient18491">
      <stop
         style="stop-color:#ff0000;stop-opacity:1;"
         offset="0"
         id="stop18489" />
    </linearGradient>
    <linearGradient
       id="linearGradient18458">
      <stop
         style="stop-color:#ff0000;stop-opacity:1;"
         offset="0"
         id="stop18456" />
    </linearGradient>
    <linearGradient
       id="linearGradient17700">
      <stop
         style="stop-color:#0000ff;stop-opacity:1;"
         offset="0"
         id="stop17698" />
    </linearGradient>
  </defs>
  <g
     inkscape:label="panel"
     inkscape:groupmode="layer"
     id="layer1"
     style="display:inline">
    <rect
       style="fill:#b6b6b6;fill-opacity:1;stroke:#ffffff;stroke-width:0;stroke-linecap:round;stroke-miterlimit:0"
       id="rect1088"
       width="40.639999"
       height="128.5"
       x="6.6011256e-07"
       y="4.1257027e-07"
       inkscape:label="faceplate" />
    <path
       style="display:inline;fill:#000000;fill-opacity:1;stroke-width:0.256427"
       d="m 0.020909,128.11321 c -0.019475,-0.43943 0.0037,-0.47061 0.338397,-0.45465 0.2963495,0.0141 0.309141,0.0266 0.073004,0.0707 -0.2080205,0.0389 -0.3005465,0.16322 -0.338397,0.45465 -0.050052,0.38539 -0.052914,0.38261 -0.073004,-0.0707 z m 0.719441,0.18872 c 0.04399,-0.16811 0.174006,-0.28307 0.320145,-0.28307 0.135341,0 0.246076,-0.0566 0.246076,-0.12582 0,-0.0692 -0.07961,-0.1258 -0.176908,-0.1258 -0.0973,0 -0.333881,-0.14008 -0.5257385,-0.31128 -0.1918575,-0.17122 -0.3768305,-0.31276 -0.4110505,-0.31454 -0.03422,-0.002 -0.062218,-0.0315 -0.062218,-0.0661 v -0.15049 c 0,-0.0482 0.191086,0.0854 0.4246355,0.29669 0.28677,0.25952 0.7914175,0.49218 1.5543465,0.71662 1.36393,0.40126 1.538638,0.41059 1.512834,0.0808 -0.01413,-0.18064 -0.08531,-0.23154 -0.252371,-0.18048 -0.182251,0.0557 -0.213404,0.0216 -0.143719,-0.15728 0.078,-0.20023 0.06198,-0.20727 -0.129815,-0.0571 -0.286281,0.22419 -0.63244,0.0963 -0.535887,-0.19802 0.07007,-0.21359 0.06429,-0.21383 -0.114599,-0.005 -0.240669,0.28125 -0.355568,0.27936 -0.355568,-0.006 0,-0.16456 0.0977,-0.22391 0.359306,-0.2183 0.281234,0.006 0.349685,0.0605 0.315027,0.2507 -0.03728,0.20457 -0.01285,0.21786 0.154577,0.0841 0.276681,-0.2211 0.869631,0.15451 0.869631,0.55087 0,0.4159 -0.279397,0.45839 -1.127403,0.17139 l -0.751177,-0.25422 -0.233718,0.29253 c -0.128546,0.1609 -0.235026,0.22511 -0.236624,0.1427 -0.0016,-0.0824 0.05589,-0.18482 0.127753,-0.22759 0.07186,-0.0428 0.130657,-0.12982 0.130657,-0.19344 0,-0.15436 -0.677115,0.14002 -0.8754375,0.38062 -0.131329,0.1593 -0.144782,0.14422 -0.082755,-0.0928 z m 0.728455,-1.05307 c -0.395525,-0.24389 -0.419761,-0.24597 -0.341665,-0.0293 0.05169,0.1434 -0.11092,0.0512 -0.4222965,-0.23948 -0.4185185,-0.39067 -0.4814305,-0.51071 -0.362671,-0.69194 0.1272915,-0.19426 0.339562,-0.21422 1.8606105,-0.17495 1.480347,0.0383 1.716928,0.0175 1.716928,-0.14984 0,-0.10679 -0.05687,-0.228 -0.126378,-0.26937 -0.06951,-0.0413 -0.09212,-0.24013 -0.05025,-0.44171 0.06512,-0.31352 0.0294,-0.37779 -0.247038,-0.44461 -0.181515,-0.0439 -0.536684,0.008 -0.810304,0.11789 -0.430836,0.17333 -0.509568,0.1744 -0.681173,0.009 -0.255249,-0.24578 -0.349892,-0.23609 -0.632668,0.0648 -0.130068,0.13838 -0.300869,0.25074 -0.3795581,0.24968 -0.078689,-8e-4 -0.054878,-0.0568 0.052914,-0.12388 0.153292,-0.0954 0.119393,-0.12237 -0.1556098,-0.12388 -0.193378,-8e-4 -0.3879345,0.0547 -0.432347,0.12388 -0.044415,0.0692 0.025615,0.12782 0.1556105,0.13026 0.1881209,0.004 0.169695,0.0412 -0.090281,0.18426 -0.439855,0.24211 -0.593236,0.23375 -0.3753055,-0.0204 0.139799,-0.16308 0.1433245,-0.22083 0.016,-0.26211 C 0.073495,125.12815 0,125.04909 0,124.98158 c 0,-0.0675 0.058331,-0.0881 0.1296225,-0.0456 0.071293,0.0424 0.225832,0.0253 0.343421,-0.0381 0.259241,-0.13969 0.013315,-0.33763 -0.2833145,-0.22802 C 0.0853785,124.70841 0,124.68512 0,124.6181 c 0,-0.17947 0.4353075,-0.14817 0.7192205,0.0517 0.1832235,0.129 0.3416645,0.14166 0.6169545,0.0493 0.259143,-0.087 0.483396,-0.0793 0.746508,0.0257 0.284036,0.11329 0.444434,0.11479 0.655299,0.006 0.153563,-0.0791 0.467573,-0.12633 0.697802,-0.10489 0.368298,0.0343 0.419616,0.0851 0.427064,0.42217 0.0046,0.21076 0.04992,0.44777 0.100572,0.52669 0.08389,0.13071 0.01055,1.15567 -0.08961,1.25209 -0.02331,0.0224 -0.22473,-0.0204 -0.4476,-0.0952 -0.299498,-0.10053 -0.383861,-0.19094 -0.323365,-0.34654 0.07129,-0.18337 0.05341,-0.18825 -0.1386,-0.0378 -0.178145,0.13953 -0.220449,0.14095 -0.220449,0.007 0,-0.10063 -0.07503,-0.0697 -0.19183,0.0789 -0.105508,0.13433 -0.193701,0.19977 -0.195986,0.14544 -0.0023,-0.0543 -0.118886,-0.0396 -0.259111,0.0326 -0.186975,0.0964 -0.241768,0.23171 -0.2055,0.50767 0.0272,0.20695 0.03904,0.37531 0.0263,0.37415 -0.01274,-8e-4 -0.214726,-0.12025 -0.448872,-0.26463 z m 0.360394,-0.11066 c 0,-0.0692 -0.02593,-0.12581 -0.05762,-0.12581 -0.03169,0 -0.09396,0.0566 -0.138367,0.12581 -0.04441,0.0692 -0.01849,0.1258 0.05762,0.1258 0.0761,0 0.138368,-0.0566 0.138367,-0.1258 z m -0.8574035,-0.57628 c 0.2464095,-0.23727 0.1568675,-0.43019 -0.199666,-0.43019 -0.3181025,0 -0.484435,0.36246 -0.235877,0.514 0.231079,0.14089 0.194957,0.14784 0.435543,-0.0838 z m 2.8172585,0.0179 c 0,-0.10335 -0.112034,-0.17276 -0.261315,-0.16194 -0.322227,0.0234 -0.341983,0.17828 -0.03266,0.25611 0.125758,0.0316 0.243349,0.0641 0.261315,0.0721 0.01797,0.008 0.03266,-0.0668 0.03266,-0.16629 z m -1.567885,-0.20994 c 0,-0.16578 -0.752876,-0.13673 -0.86199,0.0333 -0.06404,0.0998 -0.0048,0.1233 0.188273,0.0747 0.154961,-0.0391 0.281747,-0.0214 0.281747,0.0392 0,0.0605 0.08819,0.0775 0.195985,0.0376 0.107792,-0.0399 0.195985,-0.12297 0.195985,-0.18476 z m -0.609406,-0.93857 c -0.108897,-0.27324 0.167559,-0.53022 0.365441,-0.33967 0.167245,0.16103 0.06364,0.53685 -0.148005,0.53685 -0.07637,0 -0.174218,-0.0887 -0.217436,-0.19718 z m 0.176032,-0.20384 c -0.04171,-0.10036 -0.07267,-0.0706 -0.07894,0.076 -0.0057,0.13262 0.02521,0.20694 0.06862,0.16512 0.04341,-0.0418 0.04806,-0.15031 0.01031,-0.24113 z"
       id="path1561"
       sodipodi:nodetypes="ssssssssssssssssssssssssssscsssssscssssssssssscscsssssssssssssssssssssssssscscsssssssssssssssssssssssssssss"
       inkscape:label="logo" />
    <path
       style="fill:#000000;fill-opacity:1;stroke:#000000;stroke-width:0.25;stroke-linecap:butt;stroke-linejoin:miter;stroke-dasharray:none;stroke-opacity:1"
       d="M 40.64,90.125 C 0,90.125 0,90.125 0,90.125"
       id="path433" />
    <text
       xml:space="preserve"
       style="font-style:normal;font-variant:normal;font-weight:normal;font-stretch:normal;font-size:4.23333px;font-family:Trim;-inkscape-font-specification:Trim;direction:rtl;display:inline;fill:#000000;fill-opacity:1;stroke:#ff0000;stroke-width:0;stroke-linecap:round;stroke-miterlimit:0;stroke-dasharray:none;stroke-opacity:1"
       x="4.9999995"
       y="111.99999"
       id="text7620"><tspan
         sodipodi:role="line"
         id="tspan7618"
         style="fill:#000000;fill-opacity:1;stroke-width:0"
         x="4.9999995"
         y="111.99999" /></text>
    <g
       aria-label="LFSR16"
       id="text2725"
       style="font-size:3.52777px;font-family:Trim;-inkscape-font-specification:Trim;stroke:#000000;stroke-width:0.1;stroke-opacity:0.2">
      <path
         d="M 15.876637,7.6630993 H 14.254 v -2.564868 h 0.341064 v 2.2617003 h 1.281573 z"
         id="path46646" />
      <path
         d="m 17.85584,5.4013991 h -1.297076 v 0.7234684 h 1.114486 v 0.3031678 h -1.114486 v 1.235064 h -0.341063 v -2.564868 h 1.638139 z"
         id="path46648" />
      <path
         d="m 20.108928,6.9310181 q 0,0.1498613 -0.07062,0.2962776 -0.0689,0.1464162 -0.194647,0.2480463 -0.137804,0.1102428 -0.322116,0.1722544 -0.18259,0.062012 -0.440971,0.062012 -0.27733,0 -0.499538,-0.051676 -0.220486,-0.051676 -0.449584,-0.1533065 v -0.373792 h 0.02412 q 0.206705,0.1498613 0.449584,0.2239307 0.242878,0.074069 0.478867,0.060289 0.316948,0 0.492647,-0.1188556 0.177422,-0.1188555 0.177422,-0.3169481 0,-0.1705318 -0.0844,-0.2514914 -0.08268,-0.08096 -0.253214,-0.1257457 Q 19.287274,6.5675613 19.13569,6.5451683 18.985829,6.5227752 18.81702,6.4883243 18.475956,6.4159775 18.310592,6.2420005 18.14695,6.066301 18.14695,5.7855264 q 0,-0.3221158 0.272162,-0.5270985 0.272162,-0.2067053 0.69074,-0.2067053 0.270439,0 0.496093,0.051676 0.225653,0.051676 0.39963,0.1274682 l -0.0017,0.3600117 h -0.02411 Q 19.82643,5.4685783 19.595609,5.4065667 q -0.23082,-0.062012 -0.487479,-0.060289 -0.273885,0 -0.440972,0.1136879 -0.165364,0.1136879 -0.165364,0.2928324 0,0.1601966 0.08268,0.2514914 0.08268,0.091295 0.29111,0.1395261 0.110243,0.024116 0.313503,0.058567 0.20326,0.034451 0.344509,0.070624 0.285942,0.075792 0.430636,0.2290984 0.144694,0.1533064 0.144694,0.4289134 z"
         id="path46650" />
      <path
         d="m 22.382686,7.6630993 h -0.351399 q -0.03617,-0.067179 -0.06029,-0.2084278 -0.02412,-0.1412486 -0.06201,-0.2687169 -0.06546,-0.2721619 -0.425468,-0.5426013 h -0.48059 v 1.019746 h -0.341064 v -2.564868 h 0.718301 q 0.232543,0 0.387572,0.031006 0.155029,0.029283 0.279052,0.1067977 0.139527,0.08785 0.217041,0.2222082 0.07924,0.1326359 0.07924,0.3376186 0,0.2773296 -0.139526,0.4650869 -0.139526,0.1860347 -0.384127,0.2807747 0.365179,0.2893874 0.430636,0.6097805 0.03445,0.1601966 0.05168,0.294555 0.01722,0.1326359 0.08096,0.2170406 z M 21.9865,5.8199772 q 0,-0.1102428 -0.03962,-0.1946474 -0.0379,-0.086127 -0.127468,-0.1446937 -0.07407,-0.049954 -0.1757,-0.068902 -0.10163,-0.02067 -0.239433,-0.02067 h -0.401353 v 0.9680697 h 0.344509 q 0.161919,0 0.282497,-0.027561 0.120578,-0.029283 0.204983,-0.1067977 0.07751,-0.072347 0.113687,-0.1653642 0.0379,-0.09474 0.0379,-0.2394337 z"
         id="path46652" />
      <path
         d="M 23.853738,7.6630993 H 23.523009 V 5.6425552 Q 23.424824,5.7924165 23.297356,5.8819888 23.169888,5.9715611 22.97524,6.066301 V 5.7390177 q 0.232544,-0.1481388 0.377237,-0.2687169 0.07235,-0.053399 0.148139,-0.1636417 0.07579,-0.1102428 0.08613,-0.2170405 h 0.266995 z"
         id="path46654" />
      <path
         d="m 26.385878,6.8311106 q 0,0.3910174 -0.258382,0.6390638 -0.256659,0.2463238 -0.630451,0.2463238 -0.18948,0 -0.344509,-0.058567 -0.155029,-0.058566 -0.273884,-0.173977 -0.148139,-0.1429711 -0.229099,-0.3789597 -0.07924,-0.2359885 -0.07924,-0.5684395 0,-0.3410637 0.07235,-0.6046129 0.07407,-0.2635492 0.234266,-0.468532 0.151584,-0.1946474 0.391018,-0.3031677 0.239433,-0.1102428 0.558104,-0.1102428 0.10163,0 0.170532,0.00861 0.0689,0.00861 0.139526,0.031006 v 0.3290059 h -0.01723 q -0.04823,-0.025838 -0.146416,-0.048231 -0.09646,-0.024116 -0.198093,-0.024116 -0.370346,0 -0.590832,0.2325434 -0.220486,0.2308209 -0.256659,0.6252834 0.144694,-0.08785 0.28422,-0.1326358 0.141248,-0.046509 0.32556,-0.046509 0.163642,0 0.287665,0.031006 0.125746,0.029283 0.256659,0.120578 0.151584,0.1050752 0.227376,0.2652718 0.07752,0.1601966 0.07752,0.389295 z m -0.349677,0.01378 q 0,-0.1601966 -0.04823,-0.2652718 -0.04651,-0.1050751 -0.155029,-0.1825896 -0.07924,-0.055121 -0.1757,-0.072347 -0.09646,-0.017225 -0.201537,-0.017225 -0.146416,0 -0.266994,0.055121 -0.118856,0.053399 -0.251492,0.1257457 -0.0034,0.037896 -0.01895,0.1223006 0,0.272162 0.05512,0.430636 0.05684,0.1567515 0.155028,0.2480463 0.07924,0.075792 0.170532,0.1119654 0.09302,0.034451 0.201538,0.034451 0.249769,0 0.39274,-0.1515839 0.142971,-0.1533064 0.142971,-0.4392487 z"
         id="path46656" />
    </g>
    <g
       aria-label="GATE"
       id="text48883"
       style="font-size:3.52777px;font-family:Trim;-inkscape-font-specification:Trim;text-align:end;text-anchor:end;display:inline;stroke:#000000;stroke-width:0"
       transform="translate(-0.52916663)">
      <path
         d="m 6.0878157,99.760563 q -0.2101503,0.09646 -0.4599192,0.168809 -0.2480463,0.07062 -0.4805898,0.07062 -0.2997226,0 -0.5494915,-0.08268 -0.2497689,-0.08268 -0.4254684,-0.248046 -0.177422,-0.167087 -0.2738844,-0.416856 -0.096462,-0.251491 -0.096462,-0.587387 0,-0.614948 0.3582891,-0.969792 0.3600117,-0.356567 0.9870177,-0.356567 0.2187631,0 0.4478615,0.0534 0.2290983,0.04995 0.4926475,0.177422 v 0.360012 l -0.00861,0.0017 q -0.084405,-0.04134 -0.1808671,-0.08785 -0.096463,-0.04651 -0.1980926,-0.08957 -0.1188555,-0.0534 -0.2704394,-0.08785 -0.1498613,-0.03617 -0.3410637,-0.03617 -0.430636,0 -0.6821274,0.27733 -0.2497689,0.275607 -0.2497689,0.747584 0,0.497815 0.2618267,0.775144 0.2618267,0.275607 0.7131332,0.275607 0.1653643,0 0.3290059,-0.03273 0.1653643,-0.03273 0.2893874,-0.08441 V 98.95958 h -0.687295 v -0.299723 h 1.0249136 z"
         id="path50472" />
      <path
         d="M 8.7060825,99.950043 H 8.3426257 L 8.0911343,99.235187 H 6.981816 L 6.7303245,99.950043 H 6.3840932 L 7.317712,97.385175 h 0.4547516 z m -0.7200234,-1.007688 -0.449584,-1.25918 -0.4513065,1.25918 z"
         id="path50474" />
      <path
         d="m 10.924719,97.688342 h -0.916393 v 2.261701 H 9.6672619 V 97.688342 H 8.7508685 v -0.303167 h 2.1738505 z"
         id="path50476" />
      <path
         d="m 12.959044,99.950043 h -1.689816 v -2.564868 h 1.689816 v 0.303167 h -1.348752 v 0.702798 h 1.348752 v 0.303168 h -1.348752 v 0.952567 h 1.348752 z"
         id="path50478" />
    </g>
    <g
       aria-label="CV"
       id="text50308"
       style="font-size:3.52777px;font-family:Trim;-inkscape-font-specification:Trim;text-align:end;text-anchor:end;display:inline;stroke:#000000;stroke-width:0"
       transform="translate(-0.52916663)">
      <path
         d="m 10.426318,108.29662 q -0.09474,0.0413 -0.172254,0.0775 -0.07579,0.0362 -0.199815,0.0758 -0.1050755,0.0327 -0.2290987,0.0551 -0.1223006,0.0241 -0.2704394,0.0241 -0.2790521,0 -0.5081505,-0.0775 -0.2273758,-0.0792 -0.3961851,-0.24632 -0.1653642,-0.16364 -0.2583816,-0.41513 -0.093017,-0.25322 -0.093017,-0.58739 0,-0.31695 0.089572,-0.56672 0.089572,-0.24977 0.2583816,-0.42202 0.1636417,-0.16709 0.3944626,-0.25494 0.2325434,-0.0879 0.5150406,-0.0879 0.2067053,0 0.411688,0.05 0.2067055,0.05 0.4581965,0.1757 v 0.36345 l -0.0034,-0.003 q -0.282497,-0.1757 -0.4444162,-0.23254 -0.1619191,-0.0568 -0.4444163,-0.062 -0.1946475,0 -0.351399,0.0637 -0.155029,0.062 -0.2773296,0.19465 -0.1188555,0.12919 -0.1860347,0.32728 -0.065457,0.19637 -0.065457,0.45475 0,0.27044 0.072347,0.46509 0.074069,0.19464 0.1894799,0.31695 0.1205781,0.12746 0.2807747,0.18948 0.1619191,0.0603 0.3410637,0.0603 0.2463237,0 0.4616417,-0.0844 0.2153178,-0.0844 0.4047978,-0.2136 h 0.02412 z"
         id="path50481" />
      <path
         d="m 12.930897,105.91778 -0.933619,2.56487 h -0.454751 l -0.933619,-2.56487 h 0.365179 l 0.804428,2.25654 0.804428,-2.25654 z"
         id="path50483" />
    </g>
    <g
       aria-label="1"
       id="text50312"
       style="font-size:3.52777px;font-family:Trim;-inkscape-font-specification:Trim;text-align:center;text-anchor:middle;display:inline;stroke:#000000;stroke-width:0">
      <path
         d="m 17.349463,94.573479 h -0.330728 v -2.020544 q -0.09819,0.149861 -0.225653,0.239433 -0.127468,0.08957 -0.322116,0.184312 v -0.327283 q 0.232543,-0.148139 0.377237,-0.268717 0.07235,-0.0534 0.148139,-0.163641 0.07579,-0.110243 0.08613,-0.217041 h 0.266994 z"
         id="path50457" />
    </g>
    <g
       aria-label="2"
       id="text50316"
       style="font-size:3.52777px;font-family:Trim;-inkscape-font-specification:Trim;text-align:center;text-anchor:middle;display:inline;stroke:#000000;stroke-width:0">
      <path
         d="m 25.670318,94.618263 h -1.736325 v -0.360011 q 0.180868,-0.155029 0.361735,-0.310058 0.182589,-0.155029 0.339341,-0.308336 0.330728,-0.320393 0.453029,-0.50815 0.1223,-0.18948 0.1223,-0.408243 0,-0.199815 -0.132635,-0.311781 -0.130914,-0.113687 -0.366902,-0.113687 -0.156752,0 -0.339341,0.05512 -0.18259,0.05512 -0.356567,0.168809 h -0.01722 v -0.361734 q 0.1223,-0.06029 0.32556,-0.110243 0.204983,-0.04995 0.396185,-0.04995 0.394463,0 0.618394,0.191203 0.22393,0.18948 0.22393,0.51504 0,0.146417 -0.0379,0.273885 -0.03617,0.125746 -0.10852,0.239434 -0.06718,0.106797 -0.158474,0.21015 -0.08957,0.103353 -0.218763,0.229098 -0.184312,0.180867 -0.380682,0.351399 -0.19637,0.16881 -0.366902,0.313503 h 1.379758 z"
         id="path50460" />
    </g>
    <g
       aria-label="POLY"
       id="text50320"
       style="font-size:3.52777px;font-family:Trim;-inkscape-font-specification:Trim;text-align:center;text-anchor:middle;display:inline;stroke:#000000;stroke-width:0">
      <path
         d="m 30.453539,92.82854 q 0,0.170532 -0.06029,0.316948 -0.05857,0.144694 -0.165364,0.251492 -0.132636,0.132635 -0.313503,0.199815 -0.180867,0.06546 -0.456474,0.06546 h -0.341064 v 0.956012 h -0.341063 v -2.564868 h 0.695907 q 0.230821,0 0.391018,0.03962 0.160197,0.0379 0.28422,0.120578 0.146416,0.09819 0.225653,0.244601 0.08096,0.146416 0.08096,0.370347 z m -0.354844,0.0086 q 0,-0.132636 -0.04651,-0.230821 -0.04651,-0.09819 -0.141249,-0.160197 -0.08268,-0.0534 -0.18948,-0.07579 -0.105075,-0.02412 -0.266994,-0.02412 h -0.337619 v 1.024913 h 0.287665 q 0.206705,0 0.335896,-0.03617 0.129191,-0.0379 0.210151,-0.118856 0.08096,-0.08268 0.113688,-0.173976 0.03445,-0.0913 0.03445,-0.204983 z"
         id="path50463" />
      <path
         d="m 32.815147,92.34795 q 0.156752,0.172255 0.239434,0.422024 0.0844,0.249768 0.0844,0.566717 0,0.316948 -0.08613,0.568439 -0.0844,0.249769 -0.237711,0.416856 -0.158474,0.173977 -0.375514,0.261826 -0.215318,0.08785 -0.492648,0.08785 -0.270439,0 -0.492648,-0.08957 -0.220485,-0.08957 -0.375514,-0.260104 -0.155029,-0.170532 -0.239434,-0.418579 -0.08268,-0.248046 -0.08268,-0.566716 0,-0.313503 0.08268,-0.56155 0.08268,-0.249769 0.241156,-0.427191 0.151584,-0.168809 0.375515,-0.258381 0.225653,-0.08957 0.490925,-0.08957 0.275607,0 0.49437,0.0913 0.220486,0.08957 0.373792,0.256659 z m -0.03101,0.988741 q 0,-0.499538 -0.22393,-0.769978 -0.223931,-0.272162 -0.611503,-0.272162 -0.391018,0 -0.614949,0.272162 -0.222208,0.27044 -0.222208,0.769978 0,0.504705 0.227376,0.773422 0.227376,0.266994 0.609781,0.266994 0.382404,0 0.608058,-0.266994 0.227375,-0.268717 0.227375,-0.773422 z"
         id="path50465" />
      <path
         d="m 35.3025,94.618263 h -1.622636 v -2.564868 h 0.341064 v 2.261701 H 35.3025 Z"
         id="path50467" />
      <path
         d="m 37.459126,92.053395 -0.902613,1.440047 v 1.124821 h -0.341064 v -1.088648 l -0.906058,-1.47622 h 0.377237 l 0.701075,1.147215 0.707966,-1.147215 z"
         id="path50469" />
    </g>
    <g
       aria-label="SPLT"
       id="text45914"
       style="display:inline;font-size:3.52777px;font-family:Trim;-inkscape-font-specification:Trim;text-align:center;text-anchor:middle;stroke:#000000;stroke-width:0">
      <path
         d="m 32.225497,15.879295 q 0,0.149861 -0.07062,0.296277 -0.0689,0.146416 -0.194647,0.248047 -0.137804,0.110242 -0.322116,0.172254 -0.18259,0.06201 -0.440971,0.06201 -0.27733,0 -0.499538,-0.05168 -0.220486,-0.05168 -0.449584,-0.153306 V 16.07911 h 0.02412 q 0.206705,0.149861 0.449583,0.22393 0.242879,0.07407 0.478868,0.06029 0.316948,0 0.492647,-0.118855 0.177422,-0.118856 0.177422,-0.316948 0,-0.170532 -0.0844,-0.251492 -0.08268,-0.08096 -0.253214,-0.125745 -0.129191,-0.03445 -0.280775,-0.05684 -0.149861,-0.02239 -0.318671,-0.05684 -0.341063,-0.07235 -0.506428,-0.246324 -0.163641,-0.175699 -0.163641,-0.456474 0,-0.322116 0.272162,-0.527099 0.272162,-0.206705 0.69074,-0.206705 0.270439,0 0.496093,0.05168 0.225653,0.05168 0.39963,0.127469 l -0.0017,0.360011 h -0.02411 q -0.153307,-0.1223 -0.384128,-0.184312 -0.230821,-0.06201 -0.48748,-0.06029 -0.273884,0 -0.440971,0.113688 -0.165364,0.113688 -0.165364,0.292833 0,0.160196 0.08268,0.251491 0.08268,0.0913 0.29111,0.139526 0.110243,0.02412 0.313503,0.05857 0.20326,0.03445 0.344509,0.07062 0.285942,0.07579 0.430636,0.229098 0.144693,0.153307 0.144693,0.428914 z"
         id="path46637" />
      <path
         d="m 34.451024,14.821653 q 0,0.170531 -0.06029,0.316948 -0.05857,0.144693 -0.165364,0.251491 -0.132636,0.132636 -0.313503,0.199815 -0.180867,0.06546 -0.456474,0.06546 H 33.11433 v 0.956012 h -0.341064 v -2.564868 h 0.695908 q 0.230821,0 0.391018,0.03962 0.160196,0.0379 0.284219,0.120578 0.146417,0.09818 0.225654,0.244602 0.08096,0.146416 0.08096,0.370347 z m -0.354844,0.0086 q 0,-0.132636 -0.04651,-0.230821 -0.04651,-0.09819 -0.141248,-0.160196 -0.08268,-0.0534 -0.18948,-0.07579 -0.105075,-0.02412 -0.266994,-0.02412 H 33.11433 v 1.024914 h 0.287665 q 0.206705,0 0.335896,-0.03617 0.129191,-0.0379 0.21015,-0.118856 0.08096,-0.08268 0.113688,-0.173977 0.03445,-0.09129 0.03445,-0.204983 z"
         id="path46639" />
      <path
         d="m 36.523244,16.611376 h -1.622636 v -2.564868 h 0.341064 v 2.2617 h 1.281572 z"
         id="path46641" />
      <path
         d="m 38.69365,14.349676 h -0.916393 v 2.2617 h -0.341064 v -2.2617 H 36.5198 v -0.303168 h 2.17385 z"
         id="path46643" />
    </g>
    <g
       aria-label="NOT1"
       id="text46146"
       style="font-size:3.52777px;font-family:Trim;-inkscape-font-specification:Trim;text-align:center;text-anchor:middle;display:inline;stroke:#000000;stroke-width:0"
       transform="translate(0.0082155,39.999999)">
      <path
         d="m 13.148595,36.618267 h -0.422024 l -1.216116,-2.294429 v 2.294429 h -0.31867 v -2.564868 h 0.528821 l 1.109318,2.094614 v -2.094614 h 0.318671 z"
         id="path46619" />
      <path
         d="m 15.742746,34.347954 q 0.156752,0.172255 0.239434,0.422023 0.0844,0.249769 0.0844,0.566717 0,0.316948 -0.08613,0.56844 -0.08441,0.249769 -0.237711,0.416855 -0.158474,0.173977 -0.375515,0.261827 -0.215318,0.08785 -0.492647,0.08785 -0.27044,0 -0.492648,-0.08957 -0.220485,-0.08957 -0.375514,-0.260105 -0.155029,-0.170531 -0.239434,-0.418578 -0.08268,-0.248046 -0.08268,-0.566717 0,-0.313503 0.08268,-0.561549 0.08268,-0.249769 0.241156,-0.427191 0.151584,-0.168809 0.375515,-0.258381 Q 14.609312,34 14.874584,34 q 0.275607,0 0.49437,0.0913 0.220486,0.08957 0.373792,0.256659 z m -0.03101,0.98874 q 0,-0.499537 -0.22393,-0.769977 -0.223931,-0.272162 -0.611504,-0.272162 -0.391017,0 -0.614948,0.272162 -0.222208,0.27044 -0.222208,0.769977 0,0.504706 0.227376,0.773423 0.227376,0.266994 0.60978,0.266994 0.382405,0 0.608058,-0.266994 0.227376,-0.268717 0.227376,-0.773423 z"
         id="path46621" />
      <path
         d="m 18.436804,34.356567 h -0.916393 v 2.2617 h -0.341064 v -2.2617 h -0.916393 v -0.303168 h 2.17385 z"
         id="path46623" />
      <path
         d="m 19.190332,37.323821 h -0.214974 v -1.313354 q -0.06382,0.09741 -0.146674,0.155632 -0.08285,0.05822 -0.209375,0.119803 v -0.212734 q 0.151153,-0.09629 0.245204,-0.174666 0.04703,-0.03471 0.09629,-0.106367 0.04927,-0.07166 0.05598,-0.141076 h 0.173546 z"
         style="font-size:65%;baseline-shift:sub"
         id="path46625" />
    </g>
    <g
       aria-label="NOT2"
       id="text46152"
       style="font-size:3.52777px;font-family:Trim;-inkscape-font-specification:Trim;text-align:center;text-anchor:middle;display:inline;stroke:#000000;stroke-width:0"
       transform="translate(-0.0250155,39.999999)">
      <path
         d="m 32.481826,36.618267 h -0.422023 l -1.216116,-2.294429 v 2.294429 h -0.318671 v -2.564868 h 0.528821 l 1.109319,2.094614 v -2.094614 h 0.31867 z"
         id="path46628" />
      <path
         d="m 35.075978,34.347954 q 0.156751,0.172255 0.239433,0.422023 0.08441,0.249769 0.08441,0.566717 0,0.316948 -0.08613,0.56844 -0.0844,0.249769 -0.237711,0.416855 -0.158474,0.173977 -0.375515,0.261827 -0.215318,0.08785 -0.492648,0.08785 -0.270439,0 -0.492647,-0.08957 -0.220486,-0.08957 -0.375515,-0.260105 -0.155029,-0.170531 -0.239433,-0.418578 -0.08268,-0.248046 -0.08268,-0.566717 0,-0.313503 0.08268,-0.561549 0.08268,-0.249769 0.241156,-0.427191 Q 33.49296,34.179145 33.71689,34.089573 33.942544,34 34.207815,34 q 0.275608,0 0.494371,0.0913 0.220485,0.08957 0.373792,0.256659 z m -0.03101,0.98874 q 0,-0.499537 -0.223931,-0.769977 -0.223931,-0.272162 -0.611503,-0.272162 -0.391017,0 -0.614948,0.272162 -0.222208,0.27044 -0.222208,0.769977 0,0.504706 0.227375,0.773423 0.227376,0.266994 0.609781,0.266994 0.382405,0 0.608058,-0.266994 0.227376,-0.268717 0.227376,-0.773423 z"
         id="path46630" />
      <path
         d="m 37.770036,34.356567 h -0.916393 v 2.2617 h -0.341064 v -2.2617 h -0.916393 v -0.303168 h 2.17385 z"
         id="path46632" />
      <path
         d="m 39.078912,37.323821 h -1.128611 v -0.234008 q 0.117563,-0.100768 0.235127,-0.201537 0.118683,-0.100769 0.220572,-0.200418 0.214973,-0.208256 0.294469,-0.330298 0.0795,-0.123162 0.0795,-0.265358 0,-0.12988 -0.08621,-0.202657 -0.08509,-0.0739 -0.238486,-0.0739 -0.101889,0 -0.220572,0.03583 -0.118683,0.03583 -0.231768,0.109726 h -0.0112 v -0.235128 q 0.0795,-0.03919 0.211615,-0.07166 0.133238,-0.03247 0.25752,-0.03247 0.256401,0 0.401956,0.124281 0.145554,0.123162 0.145554,0.334777 0,0.09517 -0.02463,0.178025 -0.02351,0.08173 -0.07054,0.155631 -0.04367,0.06942 -0.103008,0.136598 -0.05822,0.06718 -0.142196,0.148914 -0.119803,0.117564 -0.247444,0.228409 -0.12764,0.109726 -0.238486,0.203777 h 0.896843 z"
         style="font-size:65%;baseline-shift:sub;display:inline"
         id="path46634" />
    </g>
    <g
       aria-label="CLK2"
       id="text50960"
       style="display:inline;font-size:3.52777px;font-family:Trim;-inkscape-font-specification:Trim;text-align:center;text-anchor:middle;stroke:#000000;stroke-width:0">
      <path
         d="m 32.627341,68.425339 q -0.09474,0.04134 -0.172254,0.07752 -0.07579,0.03617 -0.199815,0.07579 -0.105075,0.03273 -0.229099,0.05512 -0.1223,0.02412 -0.270439,0.02412 -0.279052,0 -0.50815,-0.07751 -0.227376,-0.07924 -0.396185,-0.246324 Q 30.686034,68.170403 30.593017,67.918911 30.5,67.665697 30.5,67.331524 q 0,-0.316948 0.08957,-0.566717 0.08957,-0.249769 0.258381,-0.422024 0.163642,-0.167086 0.394463,-0.254936 0.232543,-0.08785 0.515041,-0.08785 0.206705,0 0.411688,0.04995 0.206705,0.04995 0.458196,0.1757 v 0.363456 l -0.0034,-0.0034 q -0.282497,-0.175699 -0.444416,-0.232543 -0.161919,-0.05684 -0.444416,-0.06201 -0.194648,0 -0.351399,0.06373 -0.155029,0.06201 -0.27733,0.194648 -0.118856,0.129191 -0.186035,0.327283 -0.06546,0.19637 -0.06546,0.454752 0,0.270439 0.07235,0.465087 0.07407,0.194647 0.18948,0.316948 0.120578,0.127468 0.280775,0.18948 0.161919,0.06029 0.341064,0.06029 0.246323,0 0.461641,-0.0844 0.215318,-0.08441 0.404798,-0.213596 h 0.02412 z"
         id="path51076" />
      <path
         d="m 34.73229,68.611374 h -1.622636 v -2.564868 h 0.341063 v 2.2617 h 1.281573 z"
         id="path51078" />
      <path
         d="m 37.135239,68.611374 h -0.442694 l -1.014578,-1.142047 -0.254937,0.272162 v 0.869885 h -0.341063 v -2.564868 h 0.341063 v 1.338417 l 1.2454,-1.338417 h 0.41341 l -1.145492,1.205781 z"
         id="path51080" />
      <path
         d="M 38.48201,69.316928 H 37.353399 V 69.08292 q 0.117564,-0.100769 0.235127,-0.201537 0.118683,-0.100769 0.220572,-0.200418 0.214973,-0.208256 0.294469,-0.330298 0.0795,-0.123162 0.0795,-0.265358 0,-0.12988 -0.08621,-0.202657 -0.08509,-0.0739 -0.238486,-0.0739 -0.101889,0 -0.220572,0.03583 -0.118683,0.03583 -0.231768,0.109727 h -0.0112 v -0.235128 q 0.0795,-0.03919 0.211615,-0.07166 0.133238,-0.03247 0.25752,-0.03247 0.256401,0 0.401956,0.124282 0.145555,0.123162 0.145555,0.334776 0,0.09517 -0.02463,0.178025 -0.02351,0.08173 -0.07054,0.155632 -0.04367,0.06942 -0.103008,0.136598 -0.05822,0.06718 -0.142196,0.148914 -0.119803,0.117563 -0.247444,0.228409 -0.12764,0.109726 -0.238486,0.203777 h 0.896843 z"
         style="font-size:65%;baseline-shift:sub"
         id="path51082" />
    </g>
    <g
       aria-label="CLK1"
       id="text50952"
       style="display:inline;font-size:3.52777px;font-family:Trim;-inkscape-font-specification:Trim;text-align:center;text-anchor:middle;stroke:#000000;stroke-width:0">
      <path
         d="m 13.327341,68.425339 q -0.09474,0.04134 -0.172254,0.07752 -0.07579,0.03617 -0.199815,0.07579 -0.105075,0.03273 -0.229098,0.05512 -0.122301,0.02412 -0.27044,0.02412 -0.279052,0 -0.50815,-0.07751 -0.227376,-0.07924 -0.396185,-0.246324 Q 11.386034,68.170403 11.293017,67.918911 11.2,67.665697 11.2,67.331524 q 0,-0.316948 0.08957,-0.566717 0.08957,-0.249769 0.258382,-0.422024 0.163641,-0.167086 0.394462,-0.254936 0.232544,-0.08785 0.515041,-0.08785 0.206705,0 0.411688,0.04995 0.206705,0.04995 0.458196,0.1757 v 0.363456 l -0.0034,-0.0034 q -0.282497,-0.175699 -0.444416,-0.232543 -0.161919,-0.05684 -0.444416,-0.06201 -0.194648,0 -0.351399,0.06373 -0.155029,0.06201 -0.27733,0.194648 -0.118855,0.129191 -0.186035,0.327283 -0.06546,0.19637 -0.06546,0.454752 0,0.270439 0.07235,0.465087 0.07407,0.194647 0.189479,0.316948 0.120578,0.127468 0.280775,0.18948 0.161919,0.06029 0.341064,0.06029 0.246324,0 0.461642,-0.0844 0.215318,-0.08441 0.404797,-0.213596 h 0.02412 z"
         id="path51085" />
      <path
         d="m 15.43229,68.611374 h -1.622636 v -2.564868 h 0.341063 v 2.2617 h 1.281573 z"
         id="path51087" />
      <path
         d="m 17.835239,68.611374 h -0.442694 l -1.014578,-1.142047 -0.254937,0.272162 v 0.869885 h -0.341063 v -2.564868 h 0.341063 v 1.338417 l 1.2454,-1.338417 h 0.41341 l -1.145492,1.205781 z"
         id="path51089" />
      <path
         d="m 18.626662,69.316928 h -0.214974 v -1.313354 q -0.06382,0.09741 -0.146674,0.155632 -0.08286,0.05822 -0.209376,0.119803 v -0.212734 q 0.151154,-0.09629 0.245205,-0.174666 0.04702,-0.03471 0.09629,-0.106367 0.04926,-0.07166 0.05598,-0.141077 h 0.173547 z"
         style="font-size:65%;baseline-shift:sub"
         id="path51091" />
    </g>
  </g>
  <g
     inkscape:groupmode="layer"
     id="layer2"
     inkscape:label="components"
     style="display:none">
    <circle
       cx="7"
       cy="68"
       fill="#00ff00"
       id="clock1_in"
       style="display:inline;fill:#00ff00;fill-opacity:1;stroke:#ff0000;stroke-width:0;stroke-dasharray:none;stroke-opacity:1"
       inkscape:label="clock1"
       r="0.79374987mm" />
    <circle
       cx="33.000366"
       cy="99"
       fill="#0000ff"
       id="gate_poly_out"
       style="display:inline;fill:#0007ff;fill-opacity:1;stroke:#ff0000;stroke-width:0;stroke-dasharray:none;stroke-opacity:1"
       inkscape:label="gate_poly"
       r="0.79374987mm" />
    <circle
       cx="17.000366"
       cy="99"
       fill="#0000ff"
       id="cv1_out"
       style="display:inline;fill:#0007ff;fill-opacity:1;stroke:#ff0000;stroke-width:0;stroke-dasharray:none;stroke-opacity:1"
       inkscape:label="gate1"
       r="0.79374987mm" />
    <circle
       cx="14"
       cy="83"
       fill="#ff0000"
       id="not1"
       style="display:inline;stroke:#ff0000;stroke-width:0;stroke-dasharray:none;stroke-opacity:1"
       inkscape:label="not1"
       r="1.3229166mm" />
    <circle
       cx="7"
       cy="76"
       fill="#00ff00"
       id="not1_in"
       style="display:inline;fill:#00ff00;fill-opacity:1;stroke:#ff0000;stroke-width:0;stroke-dasharray:none;stroke-opacity:1"
       inkscape:label="not1"
       r="0.79374987mm" />
    <circle
       cx="17.000366"
       cy="107"
       fill="#0000ff"
       id="gate1_out"
       style="display:inline;fill:#0007ff;fill-opacity:1;stroke:#ff0000;stroke-width:0;stroke-dasharray:none;stroke-opacity:1"
       inkscape:label="cv1"
       r="0.79374987mm" />
    <circle
       cx="33"
       cy="23"
       fill="#ff0000"
       id="split"
       style="display:inline;stroke:#ff0000;stroke-width:0;stroke-dasharray:none;stroke-opacity:1"
       inkscape:label="split"
       r="1.3229166mm" />
    <circle
       cx="26"
       cy="16"
       fill="#00ff00"
       id="split_in"
       style="display:inline;fill:#00ff00;fill-opacity:1;stroke:#ff0000;stroke-width:0;stroke-dasharray:none;stroke-opacity:1"
       inkscape:label="split"
       r="0.79374987mm" />
    <circle
       cx="33"
       cy="83.000008"
       fill="#ff0000"
       id="not2"
       style="display:inline;stroke:#ff0000;stroke-width:0;stroke-dasharray:none;stroke-opacity:1"
       inkscape:label="not2"
       r="1.3229166mm" />
    <circle
       cx="26"
       cy="76"
       fill="#00ff00"
       id="not2_in"
       style="display:inline;fill:#00ff00;fill-opacity:1;stroke:#ff0000;stroke-width:0;stroke-dasharray:none;stroke-opacity:1"
       inkscape:label="not2"
       r="0.79374987mm" />
    <circle
       cx="26"
       cy="68"
       fill="#00ff00"
       id="clock2_in"
       style="display:inline;fill:#00ff00;fill-opacity:1;stroke:#ff0000;stroke-width:0;stroke-dasharray:none;stroke-opacity:1"
       inkscape:label="clock2"
       r="0.79374987mm" />
    <circle
       cx="33.000366"
       cy="107"
       fill="#0000ff"
       id="cv_poly_out"
       style="display:inline;fill:#0007ff;fill-opacity:1;stroke:#ff0000;stroke-width:0;stroke-dasharray:none;stroke-opacity:1"
       inkscape:label="cv_poly"
       r="0.79374987mm" />
    <circle
       cx="25.000366"
       cy="107"
       fill="#0000ff"
       id="cv2_out"
       style="display:inline;fill:#0007ff;fill-opacity:1;stroke:#ff0000;stroke-width:0;stroke-dasharray:none;stroke-opacity:1"
       inkscape:label="cv2"
       r="0.79374987mm" />
    <circle
       cx="25.000366"
       cy="99"
       fill="#0000ff"
       id="gate2_out"
       style="display:inline;fill:#0007ff;fill-opacity:1;stroke:#ff0000;stroke-width:0;stroke-dasharray:none;stroke-opacity:1"
       inkscape:label="gate2"
       r="0.79374987mm" />
    <circle
       id="a1"
       inkscape:label="a1"
       fill="#ff0000"
       cx="10"
       cy="15.999998"
       r="2"
       style="fill:#ff0000;stroke-width:0" />
    <circle
       id="a0"
       inkscape:label="a0"
       fill="#ff0000"
       cx="6"
       cy="15.999998"
       r="2"
       style="fill:#ff0000;stroke-width:0" />
    <circle
       id="a3"
       inkscape:label="a3"
       fill="#ff0000"
       cx="18"
       cy="15.999998"
       r="2"
       style="fill:#ff0000;stroke-width:0" />
    <circle
       id="a2"
       inkscape:label="a2"
       fill="#ff0000"
       cx="14"
       cy="15.999998"
       r="2"
       style="fill:#ff0000;stroke-width:0" />
    <circle
       id="a5"
       inkscape:label="a5"
       fill="#ff0000"
       cx="10"
       cy="20"
       r="2"
       style="fill:#ff0000;stroke-width:0" />
    <circle
       id="a4"
       inkscape:label="a4"
       fill="#ff0000"
       cx="6"
       cy="20"
       r="2"
       style="fill:#ff0000;stroke-width:0" />
    <circle
       id="a7"
       inkscape:label="a7"
       fill="#ff0000"
       cx="18"
       cy="20"
       r="2"
       style="fill:#ff0000;stroke-width:0" />
    <circle
       id="a6"
       inkscape:label="a6"
       fill="#ff0000"
       cx="14"
       cy="20"
       r="2"
       style="fill:#ff0000;stroke-width:0" />
    <circle
       id="a9"
       inkscape:label="a9"
       fill="#ff0000"
       cx="10"
       cy="24"
       r="2"
       style="fill:#ff0000;stroke-width:0" />
    <circle
       id="a8"
       inkscape:label="a8"
       fill="#ff0000"
       cx="6"
       cy="24"
       r="2"
       style="fill:#ff0000;stroke-width:0" />
    <circle
       id="a11"
       inkscape:label="a11"
       fill="#ff0000"
       cx="18"
       cy="24"
       r="2"
       style="fill:#ff0000;stroke-width:0" />
    <circle
       id="a10"
       inkscape:label="a10"
       fill="#ff0000"
       cx="14"
       cy="24"
       r="2"
       style="fill:#ff0000;stroke-width:0" />
    <circle
       id="a13"
       inkscape:label="a13"
       fill="#ff0000"
       cx="10"
       cy="28.000002"
       r="2"
       style="fill:#ff0000;stroke-width:0" />
    <circle
       id="a12"
       inkscape:label="a12"
       fill="#ff0000"
       cx="6"
       cy="28.000002"
       r="2"
       style="fill:#ff0000;stroke-width:0" />
    <circle
       id="a15"
       inkscape:label="a15"
       fill="#ff0000"
       cx="18"
       cy="28.000002"
       r="2"
       style="fill:#ff0000;stroke-width:0" />
    <circle
       id="a14"
       inkscape:label="a14"
       fill="#ff0000"
       cx="14"
       cy="28.000002"
       r="2"
       style="fill:#ff0000;stroke-width:0" />
    <circle
       style="display:inline;fill:#ff00ff;fill-opacity:1;stroke-width:0;stroke-dasharray:none"
       id="x0"
       cx="8"
       cy="36"
       inkscape:label="x0"
       r="4" />
    <circle
       style="display:inline;fill:#ff00ff;fill-opacity:1;stroke-width:0;stroke-dasharray:none"
       id="x1"
       cx="16"
       cy="36"
       inkscape:label="x1"
       r="4" />
    <circle
       style="display:inline;fill:#ff00ff;fill-opacity:1;stroke-width:0;stroke-dasharray:none"
       id="x2"
       cx="24"
       cy="36"
       inkscape:label="x2"
       r="4" />
    <circle
       style="display:inline;fill:#ff00ff;fill-opacity:1;stroke-width:0;stroke-dasharray:none"
       id="x3"
       cx="32"
       cy="36"
       inkscape:label="x3"
       r="4" />
    <circle
       style="display:inline;fill:#ff00ff;fill-opacity:1;stroke-width:0;stroke-dasharray:none"
       id="x4"
       cx="8"
       cy="44"
       inkscape:label="x4"
       r="4" />
    <circle
       style="display:inline;fill:#ff00ff;fill-opacity:1;stroke-width:0;stroke-dasharray:none"
       id="x5"
       cx="16"
       cy="44"
       inkscape:label="x5"
       r="4" />
    <circle
       style="display:inline;fill:#ff00ff;fill-opacity:1;stroke-width:0;stroke-dasharray:none"
       id="x6"
       cx="24"
       cy="44"
       inkscape:label="x6"
       r="4" />
    <circle
       style="display:inline;fill:#ff00ff;fill-opacity:1;stroke-width:0;stroke-dasharray:none"
       id="x7"
       cx="32"
       cy="44"
       inkscape:label="x7"
       r="4" />
    <circle
       style="display:inline;fill:#ff00ff;fill-opacity:1;stroke-width:0;stroke-dasharray:none"
       id="x8"
       cx="8"
       cy="52"
       inkscape:label="x8"
       r="4" />
    <circle
       style="display:inline;fill:#ff00ff;fill-opacity:1;stroke-width:0;stroke-dasharray:none"
       id="x9"
       cx="16"
       cy="52"
       inkscape:label="x9"
       r="4" />
    <circle
       style="display:inline;fill:#ff00ff;fill-opacity:1;stroke-width:0;stroke-dasharray:none"
       id="x10"
       cx="24"
       cy="52"
       inkscape:label="x10"
       r="4" />
    <circle
       style="display:inline;fill:#ff00ff;fill-opacity:1;stroke-width:0;stroke-dasharray:none"
       id="x11"
       cx="32"
       cy="52"
       inkscape:label="x11"
       r="4" />
    <circle
       style="display:inline;fill:#ff00ff;fill-opacity:1;stroke-width:0;stroke-dasharray:none"
       id="x12"
       cx="8"
       cy="60"
       inkscape:label="x12"
       r="4" />
    <circle
       style="display:inline;fill:#ff00ff;fill-opacity:1;stroke-width:0;stroke-dasharray:none"
       id="x13"
       cx="16"
       cy="60"
       inkscape:label="x13"
       r="4" />
    <circle
       style="display:inline;fill:#ff00ff;fill-opacity:1;stroke-width:0;stroke-dasharray:none"
       id="x14"
       cx="24"
       cy="60"
       inkscape:label="x14"
       r="4" />
    <circle
       style="display:inline;fill:#ff00ff;fill-opacity:1;stroke-width:0;stroke-dasharray:none"
       id="x15"
       cx="32"
       cy="60"
       inkscape:label="x15"
       r="4" />
  </g>
</svg>
