<?xml version="1.0" encoding="UTF-8" standalone="no"?>
<!-- Created with Inkscape (http://www.inkscape.org/) -->

<svg
   width="40.639999mm"
   height="128.5mm"
   viewBox="0 0 40.639998 128.5"
   version="1.1"
   id="svg359"
   inkscape:version="1.2.2 (b0a8486, 2022-12-01)"
   sodipodi:docname="LFSR8Poly.svg"
   xmlns:inkscape="http://www.inkscape.org/namespaces/inkscape"
   xmlns:sodipodi="http://sodipodi.sourceforge.net/DTD/sodipodi-0.dtd"
   xmlns="http://www.w3.org/2000/svg"
   xmlns:svg="http://www.w3.org/2000/svg">
  <sodipodi:namedview
     id="namedview361"
     pagecolor="#ffffff"
     bordercolor="#666666"
     borderopacity="1.0"
     inkscape:showpageshadow="false"
     inkscape:pageopacity="0.0"
     inkscape:pagecheckerboard="false"
     inkscape:deskcolor="#d1d1d1"
     inkscape:document-units="mm"
     showgrid="true"
     borderlayer="true"
     shape-rendering="auto"
     showguides="true"
     inkscape:lockguides="true"
     inkscape:zoom="1.8"
     inkscape:cx="-146.38889"
     inkscape:cy="197.5"
     inkscape:window-width="1920"
     inkscape:window-height="1019"
     inkscape:window-x="0"
     inkscape:window-y="0"
     inkscape:window-maximized="1"
     inkscape:current-layer="layer1">
    <inkscape:grid
       type="xygrid"
       id="grid480"
       dotted="false"
       spacingx="0.99999998"
       spacingy="0.99999998"
       originx="0"
       originy="0"
       units="mm"
       empspacing="5"
       snapvisiblegridlinesonly="false" />
  </sodipodi:namedview>
  <defs
     id="defs356">
    <linearGradient
       id="linearGradient4130"
       inkscape:swatch="solid">
      <stop
         style="stop-color:#ff0000;stop-opacity:1;"
         offset="0"
         id="stop4128" />
    </linearGradient>
    <linearGradient
       id="linearGradient18497">
      <stop
         style="stop-color:#ff0000;stop-opacity:1;"
         offset="0"
         id="stop18495" />
    </linearGradient>
    <linearGradient
       id="linearGradient18491">
      <stop
         style="stop-color:#ff0000;stop-opacity:1;"
         offset="0"
         id="stop18489" />
    </linearGradient>
    <linearGradient
       id="linearGradient18458">
      <stop
         style="stop-color:#ff0000;stop-opacity:1;"
         offset="0"
         id="stop18456" />
    </linearGradient>
    <linearGradient
       id="linearGradient17700">
      <stop
         style="stop-color:#0000ff;stop-opacity:1;"
         offset="0"
         id="stop17698" />
    </linearGradient>
  </defs>
  <g
     inkscape:label="panel"
     inkscape:groupmode="layer"
     id="layer1"
     style="display:inline">
    <rect
       style="fill:#b6b6b6;fill-opacity:1;stroke:#ffffff;stroke-width:0;stroke-linecap:round;stroke-miterlimit:0"
       id="rect1088"
       width="40.639999"
       height="128.5"
       x="6.6011256e-07"
       y="4.1257027e-07"
       inkscape:label="faceplate" />
    <path
       style="display:inline;fill:#000000;fill-opacity:1;stroke-width:0.256427"
       d="m 0.020909,128.11321 c -0.019475,-0.43943 0.0037,-0.47061 0.338397,-0.45465 0.2963495,0.0141 0.309141,0.0266 0.073004,0.0707 -0.2080205,0.0389 -0.3005465,0.16322 -0.338397,0.45465 -0.050052,0.38539 -0.052914,0.38261 -0.073004,-0.0707 z m 0.719441,0.18872 c 0.04399,-0.16811 0.174006,-0.28307 0.320145,-0.28307 0.135341,0 0.246076,-0.0566 0.246076,-0.12582 0,-0.0692 -0.07961,-0.1258 -0.176908,-0.1258 -0.0973,0 -0.333881,-0.14008 -0.5257385,-0.31128 -0.1918575,-0.17122 -0.3768305,-0.31276 -0.4110505,-0.31454 -0.03422,-0.002 -0.062218,-0.0315 -0.062218,-0.0661 v -0.15049 c 0,-0.0482 0.191086,0.0854 0.4246355,0.29669 0.28677,0.25952 0.7914175,0.49218 1.5543465,0.71662 1.36393,0.40126 1.538638,0.41059 1.512834,0.0808 -0.01413,-0.18064 -0.08531,-0.23154 -0.252371,-0.18048 -0.182251,0.0557 -0.213404,0.0216 -0.143719,-0.15728 0.078,-0.20023 0.06198,-0.20727 -0.129815,-0.0571 -0.286281,0.22419 -0.63244,0.0963 -0.535887,-0.19802 0.07007,-0.21359 0.06429,-0.21383 -0.114599,-0.005 -0.240669,0.28125 -0.355568,0.27936 -0.355568,-0.006 0,-0.16456 0.0977,-0.22391 0.359306,-0.2183 0.281234,0.006 0.349685,0.0605 0.315027,0.2507 -0.03728,0.20457 -0.01285,0.21786 0.154577,0.0841 0.276681,-0.2211 0.869631,0.15451 0.869631,0.55087 0,0.4159 -0.279397,0.45839 -1.127403,0.17139 l -0.751177,-0.25422 -0.233718,0.29253 c -0.128546,0.1609 -0.235026,0.22511 -0.236624,0.1427 -0.0016,-0.0824 0.05589,-0.18482 0.127753,-0.22759 0.07186,-0.0428 0.130657,-0.12982 0.130657,-0.19344 0,-0.15436 -0.677115,0.14002 -0.8754375,0.38062 -0.131329,0.1593 -0.144782,0.14422 -0.082755,-0.0928 z m 0.728455,-1.05307 c -0.395525,-0.24389 -0.419761,-0.24597 -0.341665,-0.0293 0.05169,0.1434 -0.11092,0.0512 -0.4222965,-0.23948 -0.4185185,-0.39067 -0.4814305,-0.51071 -0.362671,-0.69194 0.1272915,-0.19426 0.339562,-0.21422 1.8606105,-0.17495 1.480347,0.0383 1.716928,0.0175 1.716928,-0.14984 0,-0.10679 -0.05687,-0.228 -0.126378,-0.26937 -0.06951,-0.0413 -0.09212,-0.24013 -0.05025,-0.44171 0.06512,-0.31352 0.0294,-0.37779 -0.247038,-0.44461 -0.181515,-0.0439 -0.536684,0.008 -0.810304,0.11789 -0.430836,0.17333 -0.509568,0.1744 -0.681173,0.009 -0.255249,-0.24578 -0.349892,-0.23609 -0.632668,0.0648 -0.130068,0.13838 -0.300869,0.25074 -0.3795581,0.24968 -0.078689,-8e-4 -0.054878,-0.0568 0.052914,-0.12388 0.153292,-0.0954 0.119393,-0.12237 -0.1556098,-0.12388 -0.193378,-8e-4 -0.3879345,0.0547 -0.432347,0.12388 -0.044415,0.0692 0.025615,0.12782 0.1556105,0.13026 0.1881209,0.004 0.169695,0.0412 -0.090281,0.18426 -0.439855,0.24211 -0.593236,0.23375 -0.3753055,-0.0204 0.139799,-0.16308 0.1433245,-0.22083 0.016,-0.26211 C 0.073495,125.12815 0,125.04909 0,124.98158 c 0,-0.0675 0.058331,-0.0881 0.1296225,-0.0456 0.071293,0.0424 0.225832,0.0253 0.343421,-0.0381 0.259241,-0.13969 0.013315,-0.33763 -0.2833145,-0.22802 C 0.0853785,124.70841 0,124.68512 0,124.6181 c 0,-0.17947 0.4353075,-0.14817 0.7192205,0.0517 0.1832235,0.129 0.3416645,0.14166 0.6169545,0.0493 0.259143,-0.087 0.483396,-0.0793 0.746508,0.0257 0.284036,0.11329 0.444434,0.11479 0.655299,0.006 0.153563,-0.0791 0.467573,-0.12633 0.697802,-0.10489 0.368298,0.0343 0.419616,0.0851 0.427064,0.42217 0.0046,0.21076 0.04992,0.44777 0.100572,0.52669 0.08389,0.13071 0.01055,1.15567 -0.08961,1.25209 -0.02331,0.0224 -0.22473,-0.0204 -0.4476,-0.0952 -0.299498,-0.10053 -0.383861,-0.19094 -0.323365,-0.34654 0.07129,-0.18337 0.05341,-0.18825 -0.1386,-0.0378 -0.178145,0.13953 -0.220449,0.14095 -0.220449,0.007 0,-0.10063 -0.07503,-0.0697 -0.19183,0.0789 -0.105508,0.13433 -0.193701,0.19977 -0.195986,0.14544 -0.0023,-0.0543 -0.118886,-0.0396 -0.259111,0.0326 -0.186975,0.0964 -0.241768,0.23171 -0.2055,0.50767 0.0272,0.20695 0.03904,0.37531 0.0263,0.37415 -0.01274,-8e-4 -0.214726,-0.12025 -0.448872,-0.26463 z m 0.360394,-0.11066 c 0,-0.0692 -0.02593,-0.12581 -0.05762,-0.12581 -0.03169,0 -0.09396,0.0566 -0.138367,0.12581 -0.04441,0.0692 -0.01849,0.1258 0.05762,0.1258 0.0761,0 0.138368,-0.0566 0.138367,-0.1258 z m -0.8574035,-0.57628 c 0.2464095,-0.23727 0.1568675,-0.43019 -0.199666,-0.43019 -0.3181025,0 -0.484435,0.36246 -0.235877,0.514 0.231079,0.14089 0.194957,0.14784 0.435543,-0.0838 z m 2.8172585,0.0179 c 0,-0.10335 -0.112034,-0.17276 -0.261315,-0.16194 -0.322227,0.0234 -0.341983,0.17828 -0.03266,0.25611 0.125758,0.0316 0.243349,0.0641 0.261315,0.0721 0.01797,0.008 0.03266,-0.0668 0.03266,-0.16629 z m -1.567885,-0.20994 c 0,-0.16578 -0.752876,-0.13673 -0.86199,0.0333 -0.06404,0.0998 -0.0048,0.1233 0.188273,0.0747 0.154961,-0.0391 0.281747,-0.0214 0.281747,0.0392 0,0.0605 0.08819,0.0775 0.195985,0.0376 0.107792,-0.0399 0.195985,-0.12297 0.195985,-0.18476 z m -0.609406,-0.93857 c -0.108897,-0.27324 0.167559,-0.53022 0.365441,-0.33967 0.167245,0.16103 0.06364,0.53685 -0.148005,0.53685 -0.07637,0 -0.174218,-0.0887 -0.217436,-0.19718 z m 0.176032,-0.20384 c -0.04171,-0.10036 -0.07267,-0.0706 -0.07894,0.076 -0.0057,0.13262 0.02521,0.20694 0.06862,0.16512 0.04341,-0.0418 0.04806,-0.15031 0.01031,-0.24113 z"
       id="path1561"
       sodipodi:nodetypes="ssssssssssssssssssssssssssscsssssscssssssssssscscsssssssssssssssssssssssssscscsssssssssssssssssssssssssssss"
       inkscape:label="logo" />
    <path
       style="fill:#000000;fill-opacity:1;stroke:#000000;stroke-width:0.25;stroke-linecap:butt;stroke-linejoin:miter;stroke-dasharray:none;stroke-opacity:1"
       d="M 40.64,90.125 C 0,90.125 0,90.125 0,90.125"
       id="path433" />
    <text
       xml:space="preserve"
       style="font-style:normal;font-variant:normal;font-weight:normal;font-stretch:normal;font-size:4.23333px;font-family:Trim;-inkscape-font-specification:Trim;direction:rtl;display:inline;fill:#000000;fill-opacity:1;stroke:#ff0000;stroke-width:0;stroke-linecap:round;stroke-miterlimit:0;stroke-dasharray:none;stroke-opacity:1"
       x="4.9999995"
       y="111.99999"
       id="text7620"><tspan
         sodipodi:role="line"
         id="tspan7618"
         style="fill:#000000;fill-opacity:1;stroke-width:0"
         x="4.9999995"
         y="111.99999" /></text>
    <g
       aria-label="LFSR8"
       id="text983"
       style="font-size:3.5278px;font-family:'\' Mono Regular';-inkscape-font-specification:'\' Mono Regular, ';text-align:center;text-anchor:middle;stroke:#000000;stroke-width:0;stroke-linecap:round;stroke-miterlimit:0">
      <path
         d="m 15.174541,5.0035689 h 0.317502 l 0.01764,0.021167 v 2.0849299 h 1.20298 l 0.02117,0.021167 V 7.45539 l -0.02117,0.021167 H 15.174541 L 15.153374,7.45539 V 5.0247357 Z"
         id="path1013" />
      <path
         d="m 17.224191,5.0035689 h 1.548704 l 0.02117,0.021167 v 0.317502 l -0.02117,0.017639 h -1.213563 v 0.6949766 h 1.040701 l 0.02117,0.021167 v 0.3280855 l -0.02117,0.021167 H 17.559332 V 7.45539 l -0.01764,0.021167 H 17.224191 L 17.203024,7.45539 V 5.0247357 Z"
         id="path1015" />
      <path
         d="m 19.767732,5.0070967 h 0.793755 q 0.479781,0.4656696 0.479781,0.4903642 v 0.2046124 l -0.01764,0.017639 h -0.317502 q -0.02117,0 -0.02117,-0.091723 l -0.275168,-0.264585 h -0.500948 l -0.264585,0.2751684 v 0.1552232 l 0.264585,0.264585 h 0.652643 l 0.479781,0.4903643 V 6.9861926 L 20.561487,7.4765568 H 19.767732 L 19.277368,6.9861926 V 6.7815802 l 0.02117,-0.017639 h 0.324557 q 0.02117,0 0.03175,0.098778 l 0.254001,0.246946 h 0.500948 L 20.68496,6.8450806 V 6.6898574 l -0.275168,-0.264585 h -0.64206 L 19.277368,5.9349081 V 5.4974609 Z"
         id="path1017" />
      <path
         d="m 21.51752,5.0070967 h 1.262953 q 0.479781,0.4656696 0.479781,0.4903642 v 0.4374472 l -0.469198,0.4903643 0.469198,1.040701 -0.0071,0.010583 h -0.370419 q -0.05292,-0.049389 -0.243418,-0.5221144 l -0.254002,-0.52917 H 21.863245 V 7.45539 l -0.02117,0.021167 H 21.51752 L 21.496353,7.45539 V 5.0282635 Z m 0.345725,0.3563078 v 0.6949766 h 0.765532 l 0.275169,-0.264585 V 5.6385729 L 22.628777,5.3634045 Z"
         id="path1019" />
      <path
         d="m 24.202172,5.0000411 h 0.790227 q 0.299863,0.2751684 0.493892,0.4833086 v 0.4515584 l -0.296335,0.3069186 0.296335,0.2998631 V 6.9932482 Q 25.292262,7.2013884 24.992399,7.4765568 H 24.202172 Q 23.902309,7.2013884 23.70828,6.9932482 V 6.5416898 L 24.004615,6.2312433 23.70828,5.9349081 V 5.4833497 q 0.194029,-0.2081402 0.493892,-0.4833086 z m -0.123473,0.6385318 v 0.1516954 l 0.268113,0.2681128 h 0.500947 L 25.126456,5.7902683 V 5.6385729 L 24.847759,5.3598767 h -0.500947 z m 0,1.0583401 v 0.1516954 l 0.268113,0.2681128 h 0.500947 L 25.126456,6.8486084 V 6.696913 L 24.847759,6.4182168 h -0.500947 z"
         id="path1021" />
    </g>
    <g
       aria-label="COEF"
       id="text987"
       style="font-size:3.52777px;font-family:'\' Mono Regular';-inkscape-font-specification:'\' Mono Regular, ';text-align:center;text-anchor:middle;stroke:#000000;stroke-width:0;stroke-linecap:round;stroke-miterlimit:0"
       transform="translate(-0.99999998)">
      <path
         d="m 12.029165,14.003527 h 0.705554 l 0.183444,0.186972 q 0.01764,0.01058 0.123472,0.127 0.123472,0.119944 0.123472,0.126999 l 0.09525,0.09525 v 0.176389 l -0.0071,0.0071 h -0.349249 q -0.0071,-0.0035 -0.0071,-0.01411 v -0.01058 l 0.0035,-0.01058 -0.07408,-0.07408 q 0,-0.0071 -0.0071,-0.0071 0,-0.0071 -0.01411,-0.01058 0,-0.0071 -0.0071,-0.0071 0,-0.0035 -0.02469,-0.02822 l -0.03881,-0.03528 q 0,-0.01058 -0.07056,-0.08114 0,-0.0071 -0.04233,-0.04233 0,-0.0071 -0.0071,-0.0071 0,-0.0071 -0.02469,-0.02822 v -0.0035 h -0.416277 q -0.09878,0.09878 -0.09878,0.105833 -0.04233,0.0388 -0.04233,0.04233 -0.0035,0 -0.02822,0.03528 l -0.141111,0.137583 v 1.107719 l 0.310444,0.313972 h 0.416277 q 0,-0.0071 0.02469,-0.02469 0,-0.0071 0.0071,-0.0071 0,-0.01058 0.04233,-0.04233 0,-0.0071 0.07056,-0.07408 0,-0.0071 0.01058,-0.0071 0,-0.01058 0.01058,-0.01058 0,-0.0035 0.144638,-0.148167 l -0.0035,-0.01058 v -0.01058 q 0,-0.01411 0.0071,-0.01411 h 0.349249 l 0.0071,0.0035 v 0.179916 l -0.127,0.127 h -0.0071 q 0,0.0071 -0.03175,0.03528 -0.09172,0.09878 -0.09878,0.09878 v 0.01411 q -0.03175,0.02822 -0.03175,0.03175 -0.01058,0 -0.01058,0.01058 -0.0071,0 -0.05644,0.05644 -0.0071,0 -0.0071,0.0071 -0.01058,0 -0.01058,0.01058 -0.0071,0 -0.03528,0.03175 l -0.05644,0.05997 h -0.0071 q 0,0.01058 -0.01058,0.01058 0,0.0071 -0.03881,0.04233 h -0.69497 q -0.01411,0 -0.05645,-0.05292 l -0.190499,-0.186972 q -0.03175,-0.02822 -0.03175,-0.03528 0,-0.01058 -0.05292,-0.05997 L 11.5,15.936745 v -1.389941 q 0,-0.01058 0.0635,-0.06703 0,-0.0071 0.0071,-0.0071 0,-0.0071 0.186972,-0.194027 0,-0.0071 0.04233,-0.04939 z"
         id="path1024" />
      <path
         d="m 14.248127,14.003527 h 0.69497 q 0.391583,0.36336 0.539749,0.543277 v 1.386413 l -0.539749,0.543277 h -0.69497 l -0.532694,-0.543277 v -1.386413 q 0.05292,-0.07761 0.532694,-0.543277 z m -0.176389,0.684387 v 1.104192 l 0.328083,0.3175 h 0.398638 l 0.317499,-0.3175 v -1.104192 l -0.317499,-0.328082 h -0.398638 z"
         id="path1026" />
      <path
         d="m 15.94145,13.999999 h 1.552218 l 0.02117,0.02117 v 0.317499 l -0.02117,0.02117 h -1.213552 v 0.694971 h 1.030108 l 0.02117,0.02117 v 0.324555 l -0.02117,0.02117 h -1.030108 v 0.687915 h 1.213552 l 0.02117,0.01764 v 0.328082 l -0.02117,0.02117 H 15.94145 l -0.02117,-0.02117 V 14.02118 Z"
         id="path1028" />
      <path
         d="m 18.040471,14.003527 h 1.548691 l 0.02117,0.02117 v 0.317499 l -0.02117,0.01764 h -1.213553 v 0.694971 h 1.040692 l 0.02117,0.02117 v 0.328083 l -0.02117,0.02117 h -1.040692 v 1.030109 l -0.01764,0.02117 H 18.04047 l -0.02117,-0.02117 v -2.430633 z"
         id="path1030" />
    </g>
    <g
       aria-label="LEN"
       id="text991"
       style="font-size:3.52777px;font-family:'\' Mono Regular';-inkscape-font-specification:'\' Mono Regular, ';text-align:center;text-anchor:middle;stroke:#000000;stroke-width:0;stroke-linecap:round;stroke-miterlimit:0"
       transform="translate(-0.99999998)">
      <path
         d="m 11.521167,34.003527 h 0.317499 l 0.01764,0.02117 v 2.084912 h 1.20297 l 0.02117,0.02117 v 0.324555 l -0.02117,0.02117 H 11.521167 L 11.5,36.455327 v -2.430633 z"
         id="path1033" />
      <path
         d="m 13.570799,33.999999 h 1.552219 l 0.02117,0.02117 v 0.317499 l -0.02117,0.02117 h -1.213553 v 0.694971 h 1.030109 l 0.02117,0.02117 v 0.324555 l -0.02117,0.02117 h -1.030109 v 0.687915 h 1.213553 l 0.02117,0.01764 v 0.328082 l -0.02117,0.02117 h -1.552219 l -0.02117,-0.02117 V 34.02118 Z"
         id="path1035" />
      <path
         d="m 15.66982,33.999999 h 0.328083 q 0.208138,0.321027 1.04422,1.749774 h 0.0071 v -1.728607 l 0.02117,-0.02117 h 0.328082 l 0.02117,0.02117 v 2.434161 l -0.02117,0.02117 H 17.059809 Q 16.978669,36.367136 16.01559,34.71614 h -0.0071 v 1.73919 l -0.02117,0.02117 h -0.3175 l -0.02117,-0.02117 v -2.434161 z"
         id="path1037" />
    </g>
    <g
       aria-label="CLK"
       id="text995"
       style="font-size:3.52777px;font-family:'\' Mono Regular';-inkscape-font-specification:'\' Mono Regular, ';text-align:center;text-anchor:middle;stroke:#000000;stroke-width:0;stroke-linecap:round;stroke-miterlimit:0"
       transform="translate(-0.99999998)">
      <path
         d="m 12.029166,54.003527 h 0.705554 l 0.183444,0.186972 q 0.01764,0.01058 0.123472,0.127 0.123472,0.119944 0.123472,0.126999 l 0.09525,0.09525 v 0.176389 l -0.0071,0.0071 h -0.349249 q -0.0071,-0.0035 -0.0071,-0.01411 v -0.01058 l 0.0035,-0.01058 -0.07408,-0.07408 q 0,-0.0071 -0.0071,-0.0071 0,-0.0071 -0.01411,-0.01058 0,-0.0071 -0.0071,-0.0071 0,-0.0035 -0.0247,-0.02822 l -0.0388,-0.03528 q 0,-0.01058 -0.07056,-0.08114 0,-0.0071 -0.04233,-0.04233 0,-0.0071 -0.0071,-0.0071 0,-0.0071 -0.0247,-0.02822 v -0.0035 h -0.416277 q -0.09878,0.09878 -0.09878,0.105833 -0.04233,0.03881 -0.04233,0.04233 -0.0035,0 -0.02822,0.03528 l -0.14111,0.137583 v 1.107719 l 0.310443,0.313972 h 0.416277 q 0,-0.0071 0.0247,-0.02469 0,-0.0071 0.0071,-0.0071 0,-0.01058 0.04233,-0.04233 0,-0.0071 0.07056,-0.07408 0,-0.0071 0.01058,-0.0071 0,-0.01058 0.01058,-0.01058 0,-0.0035 0.144639,-0.148167 l -0.0035,-0.01058 v -0.01058 q 0,-0.01411 0.0071,-0.01411 h 0.349249 l 0.0071,0.0035 v 0.179916 l -0.126999,0.127 h -0.0071 q 0,0.0071 -0.03175,0.03528 -0.09172,0.09878 -0.09878,0.09878 v 0.01411 q -0.03175,0.02822 -0.03175,0.03175 -0.01058,0 -0.01058,0.01058 -0.0071,0 -0.05644,0.05644 -0.0071,0 -0.0071,0.0071 -0.01058,0 -0.01058,0.01058 -0.0071,0 -0.03528,0.03175 l -0.05645,0.05997 h -0.0071 q 0,0.01058 -0.01058,0.01058 0,0.0071 -0.0388,0.04233 H 12.03601 q -0.01411,0 -0.05644,-0.05292 l -0.1905,-0.186972 q -0.03175,-0.02822 -0.03175,-0.03528 0,-0.01058 -0.05292,-0.05997 L 11.5,55.936745 v -1.389941 q 0,-0.01058 0.0635,-0.06703 0,-0.0071 0.0071,-0.0071 0,-0.0071 0.186971,-0.194027 0,-0.0071 0.04233,-0.04939 z"
         id="path1047" />
      <path
         d="M 13.736601,54.003527 H 14.0541 l 0.01764,0.02117 v 2.084912 h 1.202969 l 0.02117,0.02117 v 0.324555 l -0.02117,0.02117 h -1.538107 l -0.02117,-0.02117 v -2.430633 z"
         id="path1049" />
      <path
         d="m 15.786233,53.999999 h 0.328083 l 0.01764,0.02117 v 1.033637 h 0.215194 q 0.09878,-0.162278 0.758471,-1.054804 h 0.419805 v 0.02117 q -0.705554,0.998359 -0.87136,1.206497 l 0.87136,1.227664 v 0.02117 H 17.105621 Q 16.445928,55.583977 16.34715,55.4217 h -0.215194 v 1.033636 l -0.01764,0.02117 h -0.328083 l -0.02117,-0.02117 v -2.434161 z"
         id="path1051" />
    </g>
    <g
       aria-label="NOT"
       id="text999"
       style="font-size:3.52777px;font-family:'\' Mono Regular';-inkscape-font-specification:'\' Mono Regular, ';text-align:center;text-anchor:middle;stroke:#000000;stroke-width:0;stroke-linecap:round;stroke-miterlimit:0">
      <path
         d="m 30.521167,53.999999 h 0.328083 q 0.208138,0.321027 1.04422,1.749774 h 0.0071 v -1.728607 l 0.02117,-0.02117 h 0.328083 l 0.02117,0.02117 v 2.434161 l -0.02117,0.02117 h -0.338666 q -0.08114,-0.109361 -1.04422,-1.760357 h -0.0071 v 1.73919 l -0.02117,0.02117 h -0.3175 l -0.02117,-0.02117 v -2.434161 z"
         id="path1040" />
      <path
         d="m 33.234018,54.003527 h 0.69497 q 0.391583,0.36336 0.539749,0.543277 v 1.386413 l -0.539749,0.543277 h -0.69497 l -0.532694,-0.543277 v -1.386413 q 0.05292,-0.07761 0.532694,-0.543277 z m -0.176389,0.684387 v 1.104192 l 0.328083,0.3175 h 0.398638 l 0.317499,-0.3175 V 54.687914 L 33.78435,54.359832 h -0.398638 z"
         id="path1042" />
      <path
         d="m 34.92734,54.003527 h 1.714497 l 0.02117,0.02117 v 0.317499 l -0.02117,0.01764 h -0.673804 v 2.095495 l -0.02117,0.02117 h -0.324555 l -0.02117,-0.02117 V 54.359832 H 34.92734 l -0.02117,-0.01764 v -0.317499 z"
         id="path1044" />
    </g>
    <g
       aria-label="V/OCT"
       id="text1003"
       style="font-size:3.52777px;font-family:'\' Mono Regular';-inkscape-font-specification:'\' Mono Regular, ';text-align:center;text-anchor:middle;stroke:#000000;stroke-width:0;stroke-linecap:round;stroke-miterlimit:0"
       transform="translate(1.479371)">
      <path
         d="m 1.5417961,69.179919 h 0.3174993 l 0.017639,0.02117 v 0.927804 q 0,0.03175 0.5221099,1.065386 h 0.010583 q 0.4727212,-0.94897 0.5115267,-1.065386 v -0.927804 l 0.021167,-0.02117 h 0.3245549 l 0.021167,0.02117 v 1.01247 Q 2.5966,71.652889 2.5613223,71.652889 H 2.2367668 q -0.035278,0 -0.7161373,-1.432274 v -1.019526 z"
         id="path1054" />
      <path
         d="m 3.8313121,71.868079 1.411108,-2.868077 h 0.3563048 l -1.411108,2.868077 z"
         id="path1056" />
      <path
         d="m 6.7276072,69.179919 h 0.6949707 q 0.3915825,0.36336 0.5397488,0.543276 v 1.386414 L 7.4225779,71.652885 H 6.7276072 L 6.194914,71.109609 v -1.386414 q 0.052917,-0.07761 0.5326932,-0.543276 z m -0.1763885,0.684387 v 1.104192 l 0.3280826,0.317499 H 7.2779394 L 7.5954387,70.968498 V 69.864306 L 7.2779394,69.536223 H 6.8793013 Z"
         id="path1058" />
      <path
         d="m 8.9289292,69.179919 h 0.705554 l 0.183444,0.186971 q 0.017639,0.01058 0.123472,0.127 0.1234718,0.119944 0.1234718,0.127 l 0.09525,0.09525 v 0.176388 l -0.0071,0.0071 H 9.8038162 q -0.00706,-0.0035 -0.00706,-0.01411 v -0.01058 l 0.00353,-0.01058 -0.074083,-0.07408 q 0,-0.0071 -0.00706,-0.0071 0,-0.0071 -0.014111,-0.01058 0,-0.0071 -0.00706,-0.0071 0,-0.0035 -0.024694,-0.02822 l -0.038806,-0.03528 q 0,-0.01058 -0.070555,-0.08114 0,-0.0071 -0.042333,-0.04233 0,-0.0071 -0.00706,-0.0071 0,-0.0071 -0.024694,-0.02822 v -0.0035 H 9.0735678 q -0.098778,0.09878 -0.098778,0.105833 -0.042333,0.03881 -0.042333,0.04233 -0.00353,0 -0.028222,0.03528 L 8.763124,69.860778 v 1.10772 l 0.3104438,0.313972 h 0.4162768 q 0,-0.0071 0.024694,-0.0247 0,-0.0071 0.00706,-0.0071 0,-0.01058 0.042333,-0.04233 0,-0.0071 0.070555,-0.07408 0,-0.0071 0.010583,-0.0071 0,-0.01058 0.010583,-0.01058 0,-0.0035 0.1446386,-0.148166 l -0.00353,-0.01058 v -0.01058 q 0,-0.01411 0.00706,-0.01411 H 10.15307 l 0.0071,0.0035 v 0.179916 l -0.127,0.127 h -0.0071 q 0,0.0071 -0.03175,0.03528 -0.091722,0.09878 -0.098777,0.09878 v 0.01411 q -0.03175,0.02822 -0.03175,0.03175 -0.010583,0 -0.010583,0.01058 -0.00706,0 -0.056444,0.05644 -0.00706,0 -0.00706,0.0071 -0.010583,0 -0.010583,0.01058 -0.00706,0 -0.035278,0.03175 L 9.687401,71.5999 h -0.00706 q 0,0.01058 -0.010583,0.01058 0,0.0071 -0.038806,0.04233 H 8.9359847 q -0.014111,0 -0.056444,-0.05292 L 8.6890408,71.412997 q -0.03175,-0.02822 -0.03175,-0.03528 0,-0.01058 -0.052917,-0.05997 l -0.2046106,-0.20461 v -1.389942 q 0,-0.01058 0.0635,-0.06703 0,-0.0071 0.00706,-0.0071 0,-0.0071 0.1869718,-0.194027 0,-0.0071 0.042333,-0.04939 z"
         id="path1060" />
      <path
         d="m 10.636364,69.179919 h 1.714497 l 0.02117,0.02117 v 0.3175 l -0.02117,0.01764 h -0.673804 v 2.095496 l -0.02117,0.02117 h -0.324555 l -0.02117,-0.02117 v -2.095496 h -0.673804 l -0.02117,-0.01764 v -0.3175 z"
         id="path1062" />
    </g>
    <g
       aria-label="GATE"
       id="text1007"
       style="font-size:3.52777px;font-family:'\' Mono Regular';-inkscape-font-specification:'\' Mono Regular, ';text-align:center;text-anchor:middle;stroke:#000000;stroke-width:0;stroke-linecap:round;stroke-miterlimit:0"
       transform="translate(0,-0.2600085)">
      <path
         d="m 22.662612,97.767065 h 0.684387 q 0.391582,0.36336 0.539749,0.539748 v 0.155222 l -0.01764,0.01764 h -0.328083 q -0.0388,-0.05997 -0.335138,-0.356305 H 22.80725 l -0.328083,0.328083 v 1.100664 l 0.328083,0.3175 h 0.398638 l 0.313972,-0.3175 v -0.366888 h -0.497416 l -0.02117,-0.02117 v -0.324555 l 0.02117,-0.02117 h 0.846665 l 0.01764,0.02117 v 0.857248 L 23.347,100.2365 H 22.662613 L 22.122864,99.696752 V 98.30681 q 0.112888,-0.144638 0.539749,-0.539748 z"
         id="path1065" />
      <path
         d="m 25.036796,97.763537 h 0.328083 q 0.02469,0 0.03175,0.02822 l 0.409221,0.814915 0.05292,0.109361 0.116417,0.232833 0.04233,0.08114 q 0.03528,0.08114 0.07408,0.148167 v 1.054807 l -0.0035,0.004 h -0.349249 l -0.0035,-0.004 v -0.613836 l -0.0071,-0.0035 h -1.033637 l -0.0035,0.01058 v 0.606786 l -0.0035,0.004 h -0.359833 l -0.0035,-0.004 v -1.061868 q 0,-0.0071 0.01058,-0.0071 v -0.01764 q 0,-0.0035 0.01058,-0.0035 v -0.01411 l 0.0071,-0.0071 q 0,-0.02117 0.01058,-0.02117 v -0.01058 l 0.01411,-0.01411 q 0,-0.01058 0.0071,-0.01764 0,-0.01764 0.01058,-0.01764 v -0.01411 q 0,-0.0071 0.01058,-0.0071 v -0.01411 l 0.01058,-0.0071 q 0,-0.01764 0.0071,-0.01764 v -0.01411 l 0.01411,-0.01058 q 0,-0.01411 0.01058,-0.02117 0,-0.01764 0.01058,-0.01764 v -0.01411 q 0,-0.0035 0.0071,-0.0035 v -0.01764 l 0.01058,-0.0071 q 0,-0.01764 0.01058,-0.01764 v -0.01411 l 0.01058,-0.01058 q 0,-0.01411 0.01058,-0.02117 0,-0.01764 0.01058,-0.01764 v -0.01411 q 0,-0.0035 0.01058,-0.0035 v -0.01411 l 0.0071,-0.0071 q 0,-0.02117 0.01058,-0.02117 v -0.01058 l 0.01411,-0.01411 q 0,-0.01411 0.0071,-0.01764 0,-0.01764 0.01058,-0.01764 v -0.01411 q 0.01058,-0.0071 0.01058,-0.02469 0.01058,0 0.01411,-0.02117 l 0.0071,-0.0035 v -0.01058 l 0.01058,-0.01411 q 0,-0.01058 0.01058,-0.01764 0,-0.01764 0.01058,-0.01764 v -0.01411 q 0.0071,-0.0071 0.0071,-0.02117 0.01058,0 0.01411,-0.02469 h 0.0071 v -0.01411 l 0.01058,-0.01058 q 0,-0.01411 0.01058,-0.02117 0,-0.01764 0.01058,-0.01764 v -0.01411 q 0.01058,-0.0071 0.01058,-0.02117 0.0071,0 0.01058,-0.02117 l 0.0071,-0.0035 v -0.01411 l 0.01411,-0.01058 q 0,-0.01411 0.01058,-0.02117 0,-0.01764 0.0071,-0.01764 v -0.01411 q 0.01058,-0.0035 0.01058,-0.02117 0.01058,0 0.01411,-0.02117 l 0.0071,-0.0035 v -0.01058 l 0.01058,-0.01411 q 0,-0.01411 0.01058,-0.01764 0,-0.01764 0.01058,-0.01764 v -0.01411 q 0.01058,-0.0071 0.01058,-0.02469 0.0071,0 0.01058,-0.02117 l 0.0071,-0.0035 v -0.01058 l 0.01411,-0.01411 q 0,-0.01058 0.0071,-0.01764 0,-0.01764 0.01058,-0.01764 v -0.01411 q 0,-0.0071 0.01058,-0.0071 v -0.01411 l 0.01058,-0.0071 q 0,-0.01764 0.0071,-0.01764 v -0.01411 l 0.01411,-0.01058 q 0,-0.01411 0.01058,-0.02117 0,-0.01764 0.0071,-0.01764 v -0.01411 q 0.01058,-0.0071 0.01058,-0.02117 0.01058,0 0.01411,-0.02117 l 0.0071,-0.0035 v -0.01411 q 0.01058,-0.0071 0.01058,-0.02469 0.01058,0 0.01411,-0.02117 l 0.0071,-0.0035 v -0.01411 q 0.01058,-0.0035 0.01058,-0.02117 z m 0.165805,0.462138 v 0.0071 0.0071 q -0.01058,0.0071 -0.01058,0.01411 l 0.0035,0.0071 q -0.01411,0 -0.01411,0.02117 l -0.01058,0.0071 v 0.01411 q 0,0.0035 -0.0071,0.0035 v 0.01411 l -0.0071,0.0071 q -0.0035,0 -0.0071,0.01764 -0.0071,0 -0.01058,0.02117 -0.0071,0.0035 -0.0071,0.01058 v 0.0071 q -0.01058,0 -0.01058,0.02117 l -0.01058,0.0035 v 0.01764 q 0,0.0035 -0.01058,0.0035 v 0.01411 l -0.0035,0.0035 q -0.0071,0 -0.0071,0.02117 -0.01058,0 -0.01058,0.02117 -0.0071,0 -0.01058,0.0071 l 0.0035,0.0071 q -0.01411,0 -0.01411,0.02469 l -0.0071,0.0035 v 0.01411 q 0,0.0071 -0.01058,0.0071 v 0.01411 l -0.0035,0.0035 q -0.0071,0 -0.01058,0.02117 -0.0071,0 -0.0071,0.01764 -0.01058,0.0035 -0.01058,0.01058 l 0.0035,0.0071 q -0.01411,0 -0.01411,0.02117 l -0.01058,0.0071 v 0.01411 q 0,0.0035 -0.0071,0.0035 v 0.01764 l -0.0071,0.0035 q -0.0035,0 -0.0071,0.02117 -0.0071,0 -0.01058,0.01764 -0.0071,0.0035 -0.01058,0.01058 l 0.0035,0.0071 q -0.01058,0 -0.01058,0.02117 l -0.01058,0.0071 v 0.01411 q 0,0.0035 -0.01058,0.0035 v 0.01411 l -0.0035,0.0071 q -0.0071,0 -0.0071,0.01764 -0.01058,0 -0.01058,0.02117 -0.0071,0 -0.01058,0.01058 l 0.0035,0.0071 q -0.01411,0 -0.01411,0.02117 l -0.0071,0.0035 v 0.01411 q 0,0.0071 -0.01058,0.0071 v 0.01411 l -0.0071,0.0035 q -0.0035,0 -0.0071,0.02117 -0.0071,0 -0.0071,0.02117 -0.01058,0 -0.01058,0.0071 v 0.0071 q -0.01058,0 -0.01058,0.02469 l -0.01058,0.0035 v 0.01411 q 0,0.0071 -0.01058,0.0071 v 0.01411 q 0,0.0035 -0.0071,0.0035 -0.0035,0.02117 -0.01058,0.02117 0,0.02117 -0.01411,0.02469 l 0.0035,0.0035 v 0.0035 q -0.01058,0.01058 -0.01058,0.02469 0,0.0071 -0.01058,0.0071 v 0.01411 q 0,0.0035 -0.01058,0.0035 v 0.01764 q 0,0.0035 -0.0071,0.0035 -0.0035,0.02117 -0.01411,0.02117 0,0.02117 -0.01058,0.02469 l 0.0035,0.0035 v 0.0035 l -0.01411,0.01411 0.0071,0.0035 h 1.019526 l 0.0071,-0.0071 q 0,-0.01058 -0.01411,-0.02117 v -0.01058 q -0.0071,0 -0.0071,-0.02117 -0.01058,0 -0.01411,-0.02117 -0.0071,0 -0.0071,-0.0035 v -0.01411 q -0.01058,0 -0.01058,-0.02117 -0.01058,-0.0035 -0.01058,-0.01058 v 0 -0.0035 l -0.01058,-0.01411 v -0.01411 q -0.01058,0 -0.01411,-0.02117 -0.0071,0 -0.0071,-0.01764 -0.0071,0 -0.01058,-0.02117 -0.0071,0 -0.0071,-0.02117 -0.01058,-0.0035 -0.01411,-0.01058 h 0.0035 v -0.0035 l -0.01058,-0.01411 v -0.01411 q -0.01058,0 -0.01058,-0.01764 -0.01058,0 -0.01411,-0.02117 -0.0071,0 -0.0071,-0.0071 v -0.01411 q -0.01058,0 -0.01058,-0.01764 l -0.01058,-0.01058 0.0035,-0.0035 v -0.0035 l -0.01411,-0.01411 v -0.01058 q -0.01058,0 -0.01058,-0.02469 -0.0071,0 -0.0071,-0.01411 -0.01058,0 -0.01411,-0.02469 -0.0071,0 -0.0071,-0.01764 -0.01058,-0.0071 -0.01058,-0.01058 v -0.0035 0 l -0.01058,-0.01764 v -0.01058 q -0.01058,0 -0.01058,-0.02117 -0.01058,0 -0.01058,-0.02117 -0.01058,0 -0.01058,-0.0035 v -0.01411 q -0.0071,0 -0.0071,-0.02117 -0.01058,-0.0035 -0.01411,-0.01058 h 0.0035 v -0.0035 l -0.01411,-0.01411 v -0.01411 q -0.0071,0 -0.0071,-0.01764 -0.01058,0 -0.01411,-0.02469 -0.0071,0 -0.0071,-0.0035 v -0.01411 q -0.01058,0 -0.01058,-0.02117 -0.01058,-0.0035 -0.01058,-0.0071 l 0.0035,-0.0035 v -0.0035 l -0.01411,-0.01411 v -0.01411 q -0.01058,0 -0.01058,-0.01764 -0.0071,0 -0.01058,-0.02117 -0.0071,0 -0.0071,-0.0071 v -0.01411 q -0.01058,0 -0.01058,-0.01764 -0.01058,-0.0071 -0.01411,-0.01058 l 0.0035,-0.0035 v -0.0035 l -0.01058,-0.01411 v -0.01058 q -0.01058,0 -0.01058,-0.02117 -0.01058,0 -0.01411,-0.02117 -0.0071,0 -0.0071,-0.0035 v -0.01764 q -0.0071,0 -0.0071,-0.01764 -0.01411,-0.0071 -0.01411,-0.01058 l 0.0035,-0.0035 v 0 l -0.01411,-0.01764 v -0.01058 q -0.0035,0 -0.01411,-0.01058 z"
         id="path1067" />
      <path
         d="m 26.539625,97.763537 h 1.714496 l 0.02117,0.02117 v 0.3175 l -0.02117,0.01764 h -0.673804 v 2.095503 l -0.02117,0.0212 h -0.324554 l -0.02117,-0.0212 v -2.095503 h -0.673804 l -0.02117,-0.01764 v -0.3175 z"
         id="path1069" />
      <path
         d="m 28.740949,97.760009 h 1.552219 l 0.02117,0.02117 v 0.317499 l -0.02117,0.02117 h -1.213553 v 0.69497 h 1.030109 l 0.02117,0.02117 v 0.324555 l -0.02117,0.02117 h -1.030109 v 0.687916 h 1.213553 l 0.02117,0.01764 v 0.328081 l -0.02117,0.0212 h -1.552219 l -0.02117,-0.0212 v -2.434159 z"
         id="path1071" />
    </g>
    <g
       aria-label="CV"
       id="text1011"
       style="font-size:3.52777px;font-family:'\' Mono Regular';-inkscape-font-specification:'\' Mono Regular, ';text-align:center;text-anchor:middle;stroke:#000000;stroke-width:0;stroke-linecap:round;stroke-miterlimit:0"
       transform="translate(0,-0.2600085)">
      <path
         d="m 26.610694,105.76 h 0.705554 l 0.183444,0.18697 q 0.01764,0.0106 0.123472,0.127 0.123472,0.11994 0.123472,0.127 l 0.09525,0.0953 v 0.17639 l -0.0071,0.007 h -0.349249 q -0.0071,-0.004 -0.0071,-0.0141 v -0.0106 l 0.0035,-0.0106 -0.07408,-0.0741 q 0,-0.007 -0.0071,-0.007 0,-0.007 -0.01411,-0.0106 0,-0.007 -0.0071,-0.007 0,-0.004 -0.02469,-0.0282 l -0.0388,-0.0353 q 0,-0.0106 -0.07056,-0.0811 0,-0.007 -0.04233,-0.0423 0,-0.007 -0.0071,-0.007 0,-0.007 -0.0247,-0.0282 v -0.004 H 26.75509 q -0.09878,0.0988 -0.09878,0.10583 -0.04233,0.0388 -0.04233,0.0423 -0.0035,0 -0.02822,0.0353 l -0.141111,0.13759 v 1.10772 l 0.310444,0.31397 h 0.416277 q 0,-0.007 0.0247,-0.0247 0,-0.007 0.0071,-0.007 0,-0.0106 0.04233,-0.0423 0,-0.007 0.07056,-0.0741 0,-0.007 0.01058,-0.007 0,-0.0106 0.01058,-0.0106 0,-0.004 0.144639,-0.14816 l -0.0035,-0.0106 v -0.0106 q 0,-0.0141 0.0071,-0.0141 h 0.349249 l 0.0071,0.004 v 0.17991 l -0.126999,0.127 h -0.0071 q 0,0.007 -0.03175,0.0353 -0.09172,0.0988 -0.09878,0.0988 v 0.0141 q -0.03175,0.0282 -0.03175,0.0318 -0.01058,0 -0.01058,0.0106 -0.0071,0 -0.05644,0.0564 -0.0071,0 -0.0071,0.007 -0.01058,0 -0.01058,0.0106 -0.0071,0 -0.03528,0.0318 l -0.05645,0.06 h -0.0071 q 0,0.0106 -0.01058,0.0106 0,0.007 -0.0388,0.0423 h -0.694971 q -0.01411,0 -0.05644,-0.0529 l -0.1905,-0.18697 q -0.03175,-0.0282 -0.03175,-0.0353 0,-0.0106 -0.05292,-0.06 l -0.204611,-0.20462 v -1.38994 q 0,-0.0106 0.0635,-0.067 0,-0.007 0.0071,-0.007 0,-0.007 0.186971,-0.19403 0,-0.007 0.04233,-0.0494 z"
         id="path1074" />
      <path
         d="m 28.318129,105.76 h 0.317499 l 0.01764,0.0212 v 0.92781 q 0,0.0318 0.52211,1.06538 h 0.01058 q 0.472721,-0.94897 0.511527,-1.06538 v -0.92781 l 0.02117,-0.0212 h 0.324555 l 0.02117,0.0212 v 1.01247 q -0.691443,1.43933 -0.726721,1.43933 h -0.324555 q -0.03528,0 -0.716137,-1.43227 v -1.01953 z"
         id="path1076" />
    </g>
  </g>
  <g
     inkscape:groupmode="layer"
     id="layer2"
     inkscape:label="components"
     style="display:none">
    <circle
       cx="6"
       cy="56"
       fill="#00ff00"
       id="clock_in"
       style="display:inline;fill:#00ff00;fill-opacity:1;stroke:#ff0000;stroke-width:0;stroke-dasharray:none;stroke-opacity:1"
       inkscape:label="clock"
       r="0.79374987mm" />
    <circle
       cx="35"
       cy="99"
       fill="#0000ff"
       id="gate_out"
       style="display:inline;fill:#0007ff;fill-opacity:1;stroke:#ff0000;stroke-width:0;stroke-dasharray:none;stroke-opacity:1"
       inkscape:label="gate"
       r="0.79374987mm" />
    <circle
       cx="13"
       cy="43"
       fill="#ff0000"
       id="len"
       style="display:inline;stroke:#ff0000;stroke-width:0;stroke-dasharray:none;stroke-opacity:1"
       inkscape:label="len"
       r="1.3229166mm" />
    <circle
       cx="6"
       cy="36"
       fill="#00ff00"
       id="len_in"
       style="display:inline;fill:#00ff00;fill-opacity:1;stroke:#ff0000;stroke-width:0;stroke-dasharray:none;stroke-opacity:1"
       inkscape:label="len"
       r="0.79374987mm" />
    <circle
       cx="14"
       cy="76.000336"
       fill="#ff0000"
       id="cv0"
       style="display:inline;stroke:#ff0000;stroke-width:0;stroke-dasharray:none;stroke-opacity:1"
       inkscape:label="cv0"
       r="0.79374987mm" />
    <circle
       cx="6"
       cy="76.000336"
       fill="#00ff00"
       id="cv0_in"
       style="display:inline;fill:#00ff00;fill-opacity:1;stroke:#ff0000;stroke-width:0;stroke-dasharray:none;stroke-opacity:1"
       inkscape:label="cv0"
       r="0.79374987mm" />
    <circle
       cx="35"
       cy="107"
       fill="#0000ff"
       id="cv_out"
       style="display:inline;fill:#0007ff;fill-opacity:1;stroke:#ff0000;stroke-width:0;stroke-dasharray:none;stroke-opacity:1"
       inkscape:label="cv"
       r="0.79374987mm" />
    <circle
       id="a1"
       inkscape:label="a1"
       fill="#ff0000"
       cx="29"
       cy="24"
       r="2"
       style="fill:#ff0000;stroke-width:0" />
    <circle
       id="a0"
       inkscape:label="a0"
       fill="#ff0000"
       cx="29"
       cy="20"
       r="2"
       style="fill:#ff0000;stroke-width:0" />
    <circle
       id="a3"
       inkscape:label="a3"
       fill="#ff0000"
       cx="29"
       cy="32"
       r="2"
       style="display:inline;fill:#ff0000;stroke-width:0" />
    <circle
       id="a2"
       inkscape:label="a2"
       fill="#ff0000"
       cx="29"
       cy="28"
       r="2"
       style="fill:#ff0000;stroke-width:0" />
    <circle
       id="a5"
       inkscape:label="a5"
       fill="#ff0000"
       cx="29"
       cy="40"
       r="2"
       style="fill:#ff0000;stroke-width:0" />
    <circle
       id="a4"
       inkscape:label="a4"
       fill="#ff0000"
       cx="29"
       cy="36"
       r="2"
       style="fill:#ff0000;stroke-width:0" />
    <circle
       id="a7"
       inkscape:label="a7"
       fill="#ff0000"
       cx="29"
       cy="48"
       r="2"
       style="fill:#ff0000;stroke-width:0" />
    <circle
       id="a6"
       inkscape:label="a6"
       fill="#ff0000"
       cx="29"
       cy="44"
       r="2"
       style="fill:#ff0000;stroke-width:0" />
    <circle
       style="display:inline;fill:#ff00ff;fill-opacity:1;stroke-width:0;stroke-dasharray:none"
       id="x0"
       cx="35"
       cy="20"
       inkscape:label="x0"
       r="2" />
    <circle
       style="display:inline;fill:#ff00ff;fill-opacity:1;stroke-width:0;stroke-dasharray:none"
       id="x1"
       cx="35"
       cy="24"
       inkscape:label="x1"
       r="2" />
    <circle
       style="display:inline;fill:#ff00ff;fill-opacity:1;stroke-width:0;stroke-dasharray:none"
       id="x2"
       cx="35"
       cy="28"
       inkscape:label="x2"
       r="2" />
    <circle
       style="display:inline;fill:#ff00ff;fill-opacity:1;stroke-width:0;stroke-dasharray:none"
       id="x3"
       cx="35"
       cy="32"
       inkscape:label="x3"
       r="2" />
    <circle
       style="display:inline;fill:#ff00ff;fill-opacity:1;stroke-width:0;stroke-dasharray:none"
       id="x4"
       cx="35"
       cy="36"
       inkscape:label="x4"
       r="2" />
    <circle
       style="display:inline;fill:#ff00ff;fill-opacity:1;stroke-width:0;stroke-dasharray:none"
       id="x5"
       cx="35"
       cy="40"
       inkscape:label="x5"
       r="2" />
    <circle
       style="display:inline;fill:#ff00ff;fill-opacity:1;stroke-width:0;stroke-dasharray:none"
       id="x6"
       cx="35"
       cy="44"
       inkscape:label="x6"
       r="2" />
    <circle
       style="display:inline;fill:#ff00ff;fill-opacity:1;stroke-width:0;stroke-dasharray:none"
       id="x7"
       cx="35"
       cy="48"
       inkscape:label="x7"
       r="2" />
    <circle
       cx="13"
       cy="23"
       fill="#ff0000"
       id="as"
       style="display:inline;stroke:#ff0000;stroke-width:0;stroke-dasharray:none;stroke-opacity:1"
       inkscape:label="as"
       r="1.3229166mm" />
    <circle
       cx="6.0000005"
       cy="16"
       fill="#00ff00"
       id="as_in"
       style="display:inline;fill:#00ff00;fill-opacity:1;stroke:#ff0000;stroke-width:0;stroke-dasharray:none;stroke-opacity:1"
       inkscape:label="as"
       r="0.79374987mm" />
    <circle
       cx="21"
       cy="76.000336"
       fill="#ff0000"
       id="circle2269"
       style="display:inline;stroke:#ff0000;stroke-width:0;stroke-dasharray:none;stroke-opacity:1"
       inkscape:label="cv1"
       r="0.79374987mm" />
    <circle
       cx="14"
       cy="83.000336"
       fill="#ff0000"
       id="circle2273"
       style="display:inline;stroke:#ff0000;stroke-width:0;stroke-dasharray:none;stroke-opacity:1"
       inkscape:label="cv4"
       r="0.79374987mm" />
    <circle
       cx="21"
       cy="83.000336"
       fill="#ff0000"
       id="circle2277"
       style="display:inline;stroke:#ff0000;stroke-width:0;stroke-dasharray:none;stroke-opacity:1"
       inkscape:label="cv5"
       r="0.79374987mm" />
    <circle
       cx="28"
       cy="76.000336"
       fill="#ff0000"
       id="circle2281"
       style="display:inline;stroke:#ff0000;stroke-width:0;stroke-dasharray:none;stroke-opacity:1"
       inkscape:label="cv2"
       r="0.79374987mm" />
    <circle
       cx="35"
       cy="76.000336"
       fill="#ff0000"
       id="circle2285"
       style="display:inline;stroke:#ff0000;stroke-width:0;stroke-dasharray:none;stroke-opacity:1"
       inkscape:label="cv3"
       r="0.79374987mm" />
    <circle
       cx="28"
       cy="83.000336"
       fill="#ff0000"
       id="circle2289"
       style="display:inline;stroke:#ff0000;stroke-width:0;stroke-dasharray:none;stroke-opacity:1"
       inkscape:label="cv6"
       r="0.79374987mm" />
    <circle
       cx="35"
       cy="83.000336"
       fill="#ff0000"
       id="circle2293"
       style="display:inline;stroke:#ff0000;stroke-width:0;stroke-dasharray:none;stroke-opacity:1"
       inkscape:label="cv7"
       r="0.79374987mm" />
    <circle
       cx="33"
       cy="63"
       fill="#ff0000"
       id="not"
       style="display:inline;stroke:#ff0000;stroke-width:0;stroke-dasharray:none;stroke-opacity:1"
       inkscape:label="not"
       r="1.3229166mm" />
    <circle
       cx="26"
       cy="56"
       fill="#00ff00"
       id="not_in"
       style="display:inline;fill:#00ff00;fill-opacity:1;stroke:#ff0000;stroke-width:0;stroke-dasharray:none;stroke-opacity:1"
       inkscape:label="not"
       r="0.79374987mm" />
  </g>
</svg>
