<?xml version="1.0" encoding="UTF-8" standalone="no"?>
<!-- Created with Inkscape (http://www.inkscape.org/) -->

<svg
   width="35.560001mm"
   height="128.5mm"
   viewBox="0 0 35.56 128.5"
   version="1.1"
   id="svg359"
   inkscape:version="1.2.2 (b0a8486, 2022-12-01)"
   sodipodi:docname="LFSR8-01.svg"
   xmlns:inkscape="http://www.inkscape.org/namespaces/inkscape"
   xmlns:sodipodi="http://sodipodi.sourceforge.net/DTD/sodipodi-0.dtd"
   xmlns="http://www.w3.org/2000/svg"
   xmlns:svg="http://www.w3.org/2000/svg">
  <sodipodi:namedview
     id="namedview361"
     pagecolor="#ffffff"
     bordercolor="#666666"
     borderopacity="1.0"
     inkscape:showpageshadow="false"
     inkscape:pageopacity="0.0"
     inkscape:pagecheckerboard="false"
     inkscape:deskcolor="#d1d1d1"
     inkscape:document-units="mm"
     showgrid="true"
     borderlayer="true"
     shape-rendering="auto"
     showguides="false"
     inkscape:lockguides="true"
     inkscape:zoom="1.2727923"
     inkscape:cx="186.20478"
     inkscape:cy="273.02177"
     inkscape:window-width="1920"
     inkscape:window-height="1019"
     inkscape:window-x="0"
     inkscape:window-y="0"
     inkscape:window-maximized="1"
     inkscape:current-layer="layer1">
    <inkscape:grid
       type="xygrid"
       id="grid480"
       dotted="false"
       spacingx="0.99999998"
       spacingy="0.99999998"
       originx="0"
       originy="0"
       units="mm"
       empspacing="5"
       snapvisiblegridlinesonly="false" />
  </sodipodi:namedview>
  <defs
     id="defs356">
    <linearGradient
       id="linearGradient18497"
       inkscape:swatch="solid">
      <stop
         style="stop-color:#ff0000;stop-opacity:1;"
         offset="0"
         id="stop18495" />
    </linearGradient>
    <linearGradient
       id="linearGradient18491">
      <stop
         style="stop-color:#ff0000;stop-opacity:1;"
         offset="0"
         id="stop18489" />
    </linearGradient>
    <linearGradient
       id="linearGradient18458">
      <stop
         style="stop-color:#ff0000;stop-opacity:1;"
         offset="0"
         id="stop18456" />
    </linearGradient>
    <linearGradient
       id="linearGradient17700"
       inkscape:swatch="solid">
      <stop
         style="stop-color:#0000ff;stop-opacity:1;"
         offset="0"
         id="stop17698" />
    </linearGradient>
  </defs>
  <g
     inkscape:label="panel"
     inkscape:groupmode="layer"
     id="layer1">
    <rect
       style="fill:#726579;fill-opacity:1;stroke:#ffffff;stroke-width:0;stroke-linecap:round;stroke-miterlimit:0"
       id="rect1088"
       width="30.48"
       height="128.5"
       x="4.9508441e-07"
       y="4.1257027e-07" />
    <rect
       style="fill:#000000;fill-opacity:1;stroke:#ffffff;stroke-width:0;stroke-linecap:round;stroke-miterlimit:0"
       id="rect1194"
       width="30.48"
       height="85"
       x="4.4917553e-07"
       y="5.0000005" />
    <path
       style="display:inline;fill:#999999;fill-opacity:1;stroke-width:0.256427"
       d="m 0.020909,128.11321 c -0.019475,-0.43943 0.0037,-0.47061 0.338397,-0.45465 0.2963495,0.0141 0.309141,0.0266 0.073004,0.0707 -0.2080205,0.0389 -0.3005465,0.16322 -0.338397,0.45465 -0.050052,0.38539 -0.052914,0.38261 -0.073004,-0.0707 z m 0.719441,0.18872 c 0.04399,-0.16811 0.174006,-0.28307 0.320145,-0.28307 0.135341,0 0.246076,-0.0566 0.246076,-0.12582 0,-0.0692 -0.07961,-0.1258 -0.176908,-0.1258 -0.0973,0 -0.333881,-0.14008 -0.5257385,-0.31128 -0.1918575,-0.17122 -0.3768305,-0.31276 -0.4110505,-0.31454 -0.03422,-0.002 -0.062218,-0.0315 -0.062218,-0.0661 v -0.15049 c 0,-0.0482 0.191086,0.0854 0.4246355,0.29669 0.28677,0.25952 0.7914175,0.49218 1.5543465,0.71662 1.36393,0.40126 1.538638,0.41059 1.512834,0.0808 -0.01413,-0.18064 -0.08531,-0.23154 -0.252371,-0.18048 -0.182251,0.0557 -0.213404,0.0216 -0.143719,-0.15728 0.078,-0.20023 0.06198,-0.20727 -0.129815,-0.0571 -0.286281,0.22419 -0.63244,0.0963 -0.535887,-0.19802 0.07007,-0.21359 0.06429,-0.21383 -0.114599,-0.005 -0.240669,0.28125 -0.355568,0.27936 -0.355568,-0.006 0,-0.16456 0.0977,-0.22391 0.359306,-0.2183 0.281234,0.006 0.349685,0.0605 0.315027,0.2507 -0.03728,0.20457 -0.01285,0.21786 0.154577,0.0841 0.276681,-0.2211 0.869631,0.15451 0.869631,0.55087 0,0.4159 -0.279397,0.45839 -1.127403,0.17139 l -0.751177,-0.25422 -0.233718,0.29253 c -0.128546,0.1609 -0.235026,0.22511 -0.236624,0.1427 -0.0016,-0.0824 0.05589,-0.18482 0.127753,-0.22759 0.07186,-0.0428 0.130657,-0.12982 0.130657,-0.19344 0,-0.15436 -0.677115,0.14002 -0.8754375,0.38062 -0.131329,0.1593 -0.144782,0.14422 -0.082755,-0.0928 z m 0.728455,-1.05307 c -0.395525,-0.24389 -0.419761,-0.24597 -0.341665,-0.0293 0.05169,0.1434 -0.11092,0.0512 -0.4222965,-0.23948 -0.4185185,-0.39067 -0.4814305,-0.51071 -0.362671,-0.69194 0.1272915,-0.19426 0.339562,-0.21422 1.8606105,-0.17495 1.480347,0.0383 1.716928,0.0175 1.716928,-0.14984 0,-0.10679 -0.05687,-0.228 -0.126378,-0.26937 -0.06951,-0.0413 -0.09212,-0.24013 -0.05025,-0.44171 0.06512,-0.31352 0.0294,-0.37779 -0.247038,-0.44461 -0.181515,-0.0439 -0.536684,0.008 -0.810304,0.11789 -0.430836,0.17333 -0.509568,0.1744 -0.681173,0.009 -0.255249,-0.24578 -0.349892,-0.23609 -0.632668,0.0648 -0.130068,0.13838 -0.300869,0.25074 -0.3795581,0.24968 -0.078689,-8e-4 -0.054878,-0.0568 0.052914,-0.12388 0.153292,-0.0954 0.119393,-0.12237 -0.1556098,-0.12388 -0.193378,-8e-4 -0.3879345,0.0547 -0.432347,0.12388 -0.044415,0.0692 0.025615,0.12782 0.1556105,0.13026 0.1881209,0.004 0.169695,0.0412 -0.090281,0.18426 -0.439855,0.24211 -0.593236,0.23375 -0.3753055,-0.0204 0.139799,-0.16308 0.1433245,-0.22083 0.016,-0.26211 C 0.073495,125.12815 0,125.04909 0,124.98158 c 0,-0.0675 0.058331,-0.0881 0.1296225,-0.0456 0.071293,0.0424 0.225832,0.0253 0.343421,-0.0381 0.259241,-0.13969 0.013315,-0.33763 -0.2833145,-0.22802 C 0.0853785,124.70841 0,124.68512 0,124.6181 c 0,-0.17947 0.4353075,-0.14817 0.7192205,0.0517 0.1832235,0.129 0.3416645,0.14166 0.6169545,0.0493 0.259143,-0.087 0.483396,-0.0793 0.746508,0.0257 0.284036,0.11329 0.444434,0.11479 0.655299,0.006 0.153563,-0.0791 0.467573,-0.12633 0.697802,-0.10489 0.368298,0.0343 0.419616,0.0851 0.427064,0.42217 0.0046,0.21076 0.04992,0.44777 0.100572,0.52669 0.08389,0.13071 0.01055,1.15567 -0.08961,1.25209 -0.02331,0.0224 -0.22473,-0.0204 -0.4476,-0.0952 -0.299498,-0.10053 -0.383861,-0.19094 -0.323365,-0.34654 0.07129,-0.18337 0.05341,-0.18825 -0.1386,-0.0378 -0.178145,0.13953 -0.220449,0.14095 -0.220449,0.007 0,-0.10063 -0.07503,-0.0697 -0.19183,0.0789 -0.105508,0.13433 -0.193701,0.19977 -0.195986,0.14544 -0.0023,-0.0543 -0.118886,-0.0396 -0.259111,0.0326 -0.186975,0.0964 -0.241768,0.23171 -0.2055,0.50767 0.0272,0.20695 0.03904,0.37531 0.0263,0.37415 -0.01274,-8e-4 -0.214726,-0.12025 -0.448872,-0.26463 z m 0.360394,-0.11066 c 0,-0.0692 -0.02593,-0.12581 -0.05762,-0.12581 -0.03169,0 -0.09396,0.0566 -0.138367,0.12581 -0.04441,0.0692 -0.01849,0.1258 0.05762,0.1258 0.0761,0 0.138368,-0.0566 0.138367,-0.1258 z m -0.8574035,-0.57628 c 0.2464095,-0.23727 0.1568675,-0.43019 -0.199666,-0.43019 -0.3181025,0 -0.484435,0.36246 -0.235877,0.514 0.231079,0.14089 0.194957,0.14784 0.435543,-0.0838 z m 2.8172585,0.0179 c 0,-0.10335 -0.112034,-0.17276 -0.261315,-0.16194 -0.322227,0.0234 -0.341983,0.17828 -0.03266,0.25611 0.125758,0.0316 0.243349,0.0641 0.261315,0.0721 0.01797,0.008 0.03266,-0.0668 0.03266,-0.16629 z m -1.567885,-0.20994 c 0,-0.16578 -0.752876,-0.13673 -0.86199,0.0333 -0.06404,0.0998 -0.0048,0.1233 0.188273,0.0747 0.154961,-0.0391 0.281747,-0.0214 0.281747,0.0392 0,0.0605 0.08819,0.0775 0.195985,0.0376 0.107792,-0.0399 0.195985,-0.12297 0.195985,-0.18476 z m -0.609406,-0.93857 c -0.108897,-0.27324 0.167559,-0.53022 0.365441,-0.33967 0.167245,0.16103 0.06364,0.53685 -0.148005,0.53685 -0.07637,0 -0.174218,-0.0887 -0.217436,-0.19718 z m 0.176032,-0.20384 c -0.04171,-0.10036 -0.07267,-0.0706 -0.07894,0.076 -0.0057,0.13262 0.02521,0.20694 0.06862,0.16512 0.04341,-0.0418 0.04806,-0.15031 0.01031,-0.24113 z"
       id="path1561"
       sodipodi:nodetypes="ssssssssssssssssssssssssssscsssssscssssssssssscscsssssssssssssssssssssssssscscsssssssssssssssssssssssssssss" />
    <path
       style="fill:none;stroke:#999999;stroke-width:0.250001;stroke-linecap:butt;stroke-linejoin:miter;stroke-dasharray:none;stroke-opacity:1"
       d="m 0,89.875 c 71.12,0 71.12,0 71.12,0"
       id="path433" />
    <path
       style="fill:none;stroke:#999999;stroke-width:0.250001;stroke-linecap:butt;stroke-linejoin:miter;stroke-dasharray:none;stroke-opacity:1"
       d="m 0,112.625 c 71.12,0 71.12,0 71.12,0"
       id="path381" />
    <g
       aria-label="Chaos Maps"
       id="text435"
       style="font-size:3.52778px;line-height:1.25;font-family:Trim;-inkscape-font-specification:Trim;letter-spacing:0.264583px;fill:#ffffff;stroke-width:0.358481"
       transform="matrix(0.7380673,0,0,0.7380673,-1.0880074,1.060241)">
      <path
         d="M 5.2693477,8.562251 Q 5.1746077,8.603592 5.0970929,8.639766 5.0213009,8.67594 4.8972772,8.715558 4.7922017,8.748286 4.6681782,8.77068 4.5458772,8.794796 4.397738,8.794796 4.1186851,8.794796 3.8895861,8.717281 3.6622097,8.6380431 3.4933999,8.4709559 3.3280352,8.3073137 3.2350175,8.0558216 3.1419999,7.8026069 3.1419999,7.4684324 q 0,-0.3169489 0.089573,-0.5667185 0.089573,-0.2497696 0.2583824,-0.4220245 0.1636421,-0.1670872 0.3944637,-0.2549372 0.2325441,-0.08785 0.5150421,-0.08785 0.2067058,0 0.4116891,0.049954 0.2067059,0.049954 0.458198,0.1757 V 6.726014 l -0.00345,-0.00345 Q 4.9834046,6.5468688 4.821485,6.4900247 4.6595654,6.4331806 4.3770674,6.4280129 q -0.194648,0 -0.3513999,0.063734 Q 3.8706381,6.553759 3.7483371,6.6863953 3.6294812,6.8155864 3.5623018,7.0136795 3.496845,7.2100501 3.496845,7.4684324 q 0,0.2704402 0.072347,0.4650882 0.07407,0.1946481 0.1894804,0.316949 0.1205784,0.1274686 0.2807755,0.1894804 0.1619195,0.060289 0.3410646,0.060289 0.2463245,0 0.4616431,-0.084405 0.2153186,-0.084405 0.404799,-0.213596 h 0.024116 z"
         style="font-weight:bold;stroke-width:0.358481"
         id="path797" />
      <path
         d="M 7.599267,8.7482862 H 7.2754278 v -1.095541 q 0,-0.1326363 -0.015503,-0.2480471 Q 7.2444219,7.2875648 7.2030807,7.222108 7.160017,7.1497609 7.0790572,7.1153099 q -0.08096,-0.036173 -0.2101509,-0.036173 -0.1326363,0 -0.2773304,0.065457 -0.1446941,0.065457 -0.2773304,0.1670872 V 8.7482862 H 5.9904063 v -2.680286 h 0.3238392 v 0.969795 q 0.1515843,-0.125746 0.3135039,-0.1963705 0.1619196,-0.070625 0.332452,-0.070625 0.3117813,0 0.4754234,0.1877578 0.1636422,0.1877578 0.1636422,0.5408803 z"
         style="font-weight:bold;stroke-width:0.358481"
         id="path799" />
      <path
         d="M 9.9825852,8.7482862 H 9.6604685 V 8.5433029 q -0.043064,0.029283 -0.1171333,0.082682 -0.072347,0.051676 -0.141249,0.082682 -0.08096,0.039619 -0.1860353,0.065457 -0.1050754,0.027561 -0.2463245,0.027561 -0.2601048,0 -0.4409725,-0.1722549 -0.1808676,-0.1722549 -0.1808676,-0.43925 0,-0.2187637 0.093018,-0.3531225 Q 8.5356443,7.7009761 8.709622,7.6234614 8.885322,7.5459464 9.1316464,7.518386 9.3779709,7.490825 9.6604689,7.477045 V 7.427091 q 0,-0.1102432 -0.039619,-0.1825902 -0.037896,-0.072347 -0.1102431,-0.1136882 -0.068902,-0.039619 -0.1653647,-0.053399 -0.096463,-0.01378 -0.2015382,-0.01378 -0.1274686,0 -0.2842206,0.034451 -0.1567519,0.032728 -0.3238392,0.096463 H 8.5184186 V 6.8655403 q 0.09474,-0.025838 0.2738853,-0.056844 0.1791451,-0.031006 0.3531225,-0.031006 0.2032608,0 0.3531225,0.034451 0.1515843,0.032728 0.2618275,0.1136883 0.1085205,0.079237 0.1653647,0.2049833 0.056844,0.125746 0.056844,0.3117813 z M 9.6604685,8.2745853 V 7.7388726 q -0.1481392,0.00861 -0.3496774,0.025838 -0.1998156,0.017225 -0.316949,0.049954 -0.1395264,0.039619 -0.2256539,0.1240235 -0.086127,0.082682 -0.086127,0.229099 0,0.1653647 0.099908,0.2497696 0.099908,0.082682 0.3048912,0.082682 0.1705323,0 0.3117813,-0.065457 0.141249,-0.067179 0.2618268,-0.1601964 z"
         style="font-weight:bold;stroke-width:0.358481"
         id="path801" />
      <path
         d="m 12.510597,7.787104 q 0,0.4702558 -0.241157,0.7424185 -0.241156,0.2721628 -0.645955,0.2721628 -0.408245,0 -0.649401,-0.2721628 -0.239435,-0.2721627 -0.239435,-0.7424185 0,-0.4702559 0.239435,-0.7424186 0.241156,-0.2738852 0.649401,-0.2738852 0.404799,0 0.645955,0.2738852 0.241157,0.2721627 0.241157,0.7424186 z m -0.334174,0 q 0,-0.3737931 -0.146417,-0.5546607 -0.146417,-0.1825902 -0.406521,-0.1825902 -0.26355,0 -0.409967,0.1825902 -0.144694,0.1808676 -0.144694,0.5546607 0,0.3617352 0.146416,0.5494931 0.146417,0.1860352 0.408245,0.1860352 0.258382,0 0.404799,-0.1843127 0.148139,-0.1860353 0.148139,-0.5512156 z"
         style="font-weight:bold;stroke-width:0.358481"
         id="path803" />
      <path
         d="m 14.651036,8.1936255 q 0,0.26355 -0.218764,0.4323598 -0.217041,0.1688098 -0.594279,0.1688098 -0.213596,0 -0.392741,-0.049954 -0.177423,-0.051676 -0.298001,-0.1119656 V 8.3090363 h 0.01722 q 0.141249,0.09474 0.341065,0.1636421 0.199816,0.068902 0.360013,0.048231 0.213596,0 0.334174,-0.068902 0.120578,-0.068902 0.120578,-0.2170411 0,-0.1136882 -0.06546,-0.1722549 -0.06546,-0.058567 -0.251492,-0.099908 -0.0689,-0.015503 -0.180868,-0.036174 -0.110243,-0.02067 -0.201538,-0.044786 -0.253215,-0.067179 -0.360013,-0.1963706 -0.105076,-0.1309137 -0.105076,-0.3203941 0,-0.1188559 0.04823,-0.2239313 0.04995,-0.1050755 0.149862,-0.1877579 0.09646,-0.08096 0.244602,-0.1274686 0.149861,-0.048231 0.334174,-0.048231 0.172255,0 0.347955,0.043064 0.177422,0.041341 0.294556,0.1016304 l -0.0017,0.3186715 h -0.01722 q -0.141249,-0.093018 -0.301446,-0.141249 -0.160197,-0.048231 -0.346233,-0.048231 -0.177422,0 -0.299723,0.068902 -0.122301,0.067179 -0.122301,0.2015382 0,0.1188559 0.07407,0.1791451 0.07235,0.060289 0.234267,0.098185 0.08957,0.02067 0.199816,0.041341 0.111965,0.020671 0.186035,0.037896 0.225654,0.051677 0.347955,0.1774225 0.122301,0.1274687 0.122301,0.3376196 z"
         style="font-weight:bold;stroke-width:0.358481"
         id="path805" />
      <path
         d="M 20.189374,8.7482862 H 19.848309 V 6.5382561 L 19.135174,8.0420412 H 18.931913 L 18.223946,6.5382561 V 8.7482862 H 17.905274 V 6.183411 h 0.465088 l 0.683852,1.427993 0.661459,-1.427993 h 0.473701 z"
         style="font-weight:bold;stroke-width:0.358481"
         id="path807" />
      <path
         d="M 22.612312,8.7482862 H 22.290195 V 8.5433029 q -0.04306,0.029283 -0.117133,0.082682 -0.07235,0.051676 -0.141249,0.082682 -0.08096,0.039619 -0.186036,0.065457 -0.105075,0.027561 -0.246324,0.027561 -0.260105,0 -0.440973,-0.1722549 -0.180867,-0.1722549 -0.180867,-0.43925 0,-0.2187637 0.09302,-0.3531225 0.09474,-0.1360814 0.268718,-0.2135961 0.1757,-0.077515 0.422024,-0.1050754 Q 22.0077,7.490825 22.290198,7.477045 V 7.427091 q 0,-0.1102432 -0.03962,-0.1825902 -0.0379,-0.072347 -0.110243,-0.1136882 -0.0689,-0.039619 -0.165364,-0.053399 -0.09646,-0.01378 -0.201539,-0.01378 -0.127468,0 -0.28422,0.034451 -0.156752,0.032728 -0.323839,0.096463 h -0.01723 V 6.8655403 q 0.09474,-0.025838 0.273885,-0.056844 0.179145,-0.031006 0.353123,-0.031006 0.203261,0 0.353122,0.034451 0.151585,0.032728 0.261828,0.1136883 0.10852,0.079237 0.165364,0.2049833 0.05684,0.125746 0.05684,0.3117813 z M 22.290195,8.2745853 V 7.7388726 q -0.148139,0.00861 -0.349677,0.025838 -0.199816,0.017225 -0.316949,0.049954 -0.139527,0.039619 -0.225654,0.1240235 -0.08613,0.082682 -0.08613,0.229099 0,0.1653647 0.09991,0.2497696 0.09991,0.082682 0.304891,0.082682 0.170533,0 0.311782,-0.065457 0.141249,-0.067179 0.261827,-0.1601964 z"
         style="font-weight:bold;stroke-width:0.358481"
         id="path809" />
      <path
         d="m 25.193723,7.7629883 q 0,0.2342666 -0.06718,0.4289147 -0.06718,0.1929254 -0.18948,0.3272842 -0.113688,0.1274687 -0.268718,0.1980932 -0.153307,0.068902 -0.325561,0.068902 -0.149862,0 -0.272163,-0.032728 Q 23.950042,8.7207264 23.824296,8.651824 V 9.4579764 H 23.500457 V 6.8241992 h 0.323839 v 0.2015382 q 0.129191,-0.1085206 0.289389,-0.1808676 0.161919,-0.07407 0.344509,-0.07407 0.347955,0 0.540881,0.2635499 0.194648,0.2618275 0.194648,0.7286386 z m -0.334175,0.00861 q 0,-0.3479548 -0.118856,-0.5202097 -0.118856,-0.1722549 -0.36518,-0.1722549 -0.139527,0 -0.280776,0.060289 -0.141249,0.060289 -0.27044,0.1584745 v 1.0903734 q 0.137804,0.062012 0.235989,0.084405 0.09991,0.022393 0.225654,0.022393 0.270441,0 0.422025,-0.1825902 0.151584,-0.1825902 0.151584,-0.5408801 z"
         style="font-weight:bold;stroke-width:0.358481"
         id="path811" />
      <path
         d="m 27.337606,8.1936255 q 0,0.26355 -0.218764,0.4323598 -0.217041,0.1688098 -0.594279,0.1688098 -0.213596,0 -0.392741,-0.049954 -0.177423,-0.051676 -0.298001,-0.1119656 V 8.3090363 h 0.01722 q 0.141249,0.09474 0.341065,0.1636421 0.199816,0.068902 0.360013,0.048231 0.213596,0 0.334174,-0.068902 0.120579,-0.068902 0.120579,-0.2170411 0,-0.1136882 -0.06546,-0.1722549 -0.06546,-0.058567 -0.251492,-0.099908 -0.0689,-0.015503 -0.180868,-0.036174 -0.110243,-0.02067 -0.201538,-0.044786 -0.253215,-0.067179 -0.360013,-0.1963706 -0.105075,-0.1309137 -0.105075,-0.3203941 0,-0.1188559 0.04823,-0.2239313 0.04995,-0.1050755 0.149862,-0.1877579 0.09646,-0.08096 0.244602,-0.1274686 0.149861,-0.048231 0.334174,-0.048231 0.172255,0 0.347955,0.043064 0.177423,0.041341 0.294556,0.1016304 l -0.0017,0.3186715 h -0.01722 q -0.141249,-0.093018 -0.301446,-0.141249 -0.160197,-0.048231 -0.346233,-0.048231 -0.177422,0 -0.299723,0.068902 -0.122301,0.067179 -0.122301,0.2015382 0,0.1188559 0.07407,0.1791451 0.07235,0.060289 0.234266,0.098185 0.08957,0.02067 0.199816,0.041341 0.111966,0.020671 0.186035,0.037896 0.225654,0.051677 0.347955,0.1774225 0.122301,0.1274687 0.122301,0.3376196 z"
         style="font-weight:bold;stroke-width:0.358481"
         id="path813" />
    </g>
    <g
       aria-label="Reset"
       id="text973"
       style="font-size:3.52777px;line-height:1.25;font-family:Trim;-inkscape-font-specification:Trim;letter-spacing:0.264583px;fill:#ffffff;stroke-width:0.264583"
       transform="translate(-12.5,9.165004)">
      <path
         d="m 16.720822,68.399864 h -0.351399 q -0.03617,-0.06718 -0.06029,-0.208428 -0.02412,-0.141248 -0.06201,-0.268716 -0.06546,-0.272162 -0.425468,-0.542602 h -0.48059 v 1.019746 H 15 v -2.564868 h 0.718301 q 0.232544,0 0.387573,0.03101 0.155028,0.02928 0.279052,0.106798 0.139526,0.08785 0.21704,0.222208 0.07924,0.132636 0.07924,0.337619 0,0.277329 -0.139526,0.465086 -0.139526,0.186035 -0.384127,0.280775 0.365179,0.289387 0.430636,0.609781 0.03445,0.160196 0.05168,0.294555 0.01723,0.132636 0.08096,0.21704 z m -0.396185,-1.843122 q 0,-0.110243 -0.03962,-0.194647 -0.0379,-0.08613 -0.127468,-0.144694 -0.07407,-0.04995 -0.1757,-0.0689 -0.10163,-0.02067 -0.239433,-0.02067 H 15.341063 V 67.0959 h 0.344509 q 0.161919,0 0.282497,-0.02756 0.120578,-0.02928 0.204983,-0.106798 0.07751,-0.07235 0.113688,-0.165364 0.0379,-0.09474 0.0379,-0.239434 z"
         id="path978" />
      <path
         d="m 19.226434,67.471413 h -1.417653 q 0,0.177422 0.0534,0.310058 0.0534,0.130913 0.146417,0.215318 0.08957,0.08268 0.211873,0.124023 0.124023,0.04134 0.272161,0.04134 0.19637,0 0.394463,-0.07751 0.199815,-0.07924 0.28422,-0.155029 h 0.01722 v 0.353121 q -0.163641,0.0689 -0.334173,0.115411 -0.170532,0.04651 -0.358289,0.04651 -0.478868,0 -0.747585,-0.258381 -0.268716,-0.260104 -0.268716,-0.737249 0,-0.471977 0.256659,-0.749307 0.258381,-0.277329 0.678682,-0.277329 0.389295,0 0.599445,0.227376 0.211873,0.227375 0.211873,0.645954 z m -0.315225,-0.248046 q -0.0017,-0.254937 -0.129191,-0.394463 -0.125746,-0.139526 -0.384127,-0.139526 -0.260105,0 -0.415134,0.153306 -0.153306,0.153307 -0.173976,0.380683 z"
         id="path980" />
      <path
         d="m 21.356533,67.845205 q 0,0.263549 -0.218763,0.432359 -0.217041,0.168809 -0.594278,0.168809 -0.213596,0 -0.39274,-0.04995 -0.177422,-0.05168 -0.298,-0.111965 v -0.323839 h 0.01722 q 0.141249,0.09474 0.341064,0.163642 0.199815,0.0689 0.360012,0.04823 0.213595,0 0.334173,-0.0689 0.120578,-0.0689 0.120578,-0.217041 0,-0.113688 -0.06546,-0.172254 -0.06546,-0.05857 -0.251492,-0.09991 -0.0689,-0.0155 -0.180867,-0.03617 -0.110243,-0.02067 -0.201538,-0.04479 -0.253214,-0.06718 -0.360011,-0.19637 -0.105076,-0.130914 -0.105076,-0.320394 0,-0.118855 0.04823,-0.22393 0.04995,-0.105076 0.149861,-0.187758 0.09646,-0.08096 0.244601,-0.127468 0.149862,-0.04823 0.334174,-0.04823 0.172254,0 0.347954,0.04306 0.177422,0.04134 0.294555,0.101631 l -0.0017,0.31867 h -0.01722 q -0.141249,-0.09302 -0.301445,-0.141248 -0.160197,-0.04823 -0.346232,-0.04823 -0.177422,0 -0.299722,0.0689 -0.122301,0.06718 -0.122301,0.201538 0,0.118855 0.07407,0.179144 0.07235,0.06029 0.234266,0.09819 0.08957,0.02067 0.199815,0.04134 0.111966,0.02067 0.186035,0.0379 0.225653,0.05168 0.347954,0.177422 0.122301,0.127469 0.122301,0.337619 z"
         id="path982" />
      <path
         d="m 23.695058,67.471413 h -1.417653 q 0,0.177422 0.0534,0.310058 0.0534,0.130913 0.146417,0.215318 0.08957,0.08268 0.211873,0.124023 0.124023,0.04134 0.272162,0.04134 0.19637,0 0.394462,-0.07751 0.199815,-0.07924 0.28422,-0.155029 h 0.01722 v 0.353121 q -0.163641,0.0689 -0.334173,0.115411 -0.170532,0.04651 -0.358289,0.04651 -0.478868,0 -0.747584,-0.258381 -0.268717,-0.260104 -0.268717,-0.737249 0,-0.471977 0.256659,-0.749307 0.258381,-0.277329 0.678682,-0.277329 0.389295,0 0.599445,0.227376 0.211873,0.227375 0.211873,0.645954 z m -0.315225,-0.248046 q -0.0017,-0.254937 -0.129191,-0.394463 -0.125746,-0.139526 -0.384127,-0.139526 -0.260104,0 -0.415133,0.153306 -0.153307,0.153307 -0.173977,0.380683 z"
         id="path984" />
      <path
         d="m 25.401411,68.384361 q -0.09129,0.02412 -0.156752,0.0379 -0.06546,0.0155 -0.149861,0.0155 -0.294555,0 -0.447861,-0.158474 -0.153307,-0.158474 -0.153307,-0.50815 v -1.023191 h -0.29111 v -0.272162 h 0.29111 v -0.552937 h 0.323839 v 0.552937 h 0.583942 v 0.272162 h -0.583942 v 0.876774 q 0,0.151584 0.0069,0.237711 0.0069,0.0844 0.04823,0.158475 0.0379,0.0689 0.103353,0.10163 0.06718,0.03101 0.20326,0.03101 0.07924,0 0.165364,-0.02239 0.08613,-0.02411 0.03962,-0.0379 h 0.01723 z"
         id="path986" />
    </g>
    <path
       style="fill:none;stroke:#999999;stroke-width:0.250001;stroke-linecap:butt;stroke-linejoin:miter;stroke-dasharray:none;stroke-opacity:1"
       d="m 0,123.625 c 71.12,0 71.12,0 71.12,0"
       id="path989" />
    <g
       aria-label="Map"
       id="text1134"
       style="font-size:3.52777px;line-height:1.25;font-family:Trim;-inkscape-font-specification:Trim;letter-spacing:0.264583px;fill:#ffffff;stroke-width:0.264583"
       transform="translate(-3.9028417)">
      <path
         d="M 8.686935,53.564869 H 8.3458713 V 51.354845 L 7.6327381,52.858626 H 7.4294779 L 6.7215123,51.354845 v 2.210024 H 6.4028417 V 51.000001 H 6.8679286 L 7.5517785,52.42799 8.2132354,51.000001 H 8.686935 Z"
         id="path1399" />
      <path
         d="M 11.109866,53.564869 H 10.78775 v -0.204983 q -0.04306,0.02928 -0.117133,0.08268 -0.07235,0.05168 -0.141249,0.08268 -0.08096,0.03962 -0.186035,0.06546 -0.105075,0.02756 -0.246323,0.02756 -0.2601045,0 -0.4409716,-0.172255 -0.1808671,-0.172254 -0.1808671,-0.439248 0,-0.218763 0.093017,-0.353122 0.09474,-0.136081 0.2687168,-0.213595 0.1756999,-0.07751 0.4220239,-0.105075 0.246324,-0.02756 0.528821,-0.04134 v -0.04995 q 0,-0.110243 -0.03962,-0.18259 -0.0379,-0.07235 -0.110243,-0.113688 -0.0689,-0.03962 -0.165364,-0.0534 -0.09646,-0.01378 -0.201537,-0.01378 -0.127469,0 -0.2842206,0.03445 -0.1567515,0.03273 -0.3238382,0.09646 h -0.017226 v -0.329006 q 0.09474,-0.02584 0.2738845,-0.05684 0.1791443,-0.03101 0.3531213,-0.03101 0.20326,0 0.353122,0.03445 0.151584,0.03273 0.261826,0.113687 0.108521,0.07924 0.165365,0.204983 0.05684,0.125746 0.05684,0.311781 z m -0.322116,-0.4737 v -0.535711 q -0.148139,0.0086 -0.349677,0.02584 -0.199815,0.01723 -0.316948,0.04995 -0.1395258,0.03962 -0.225653,0.124023 -0.086127,0.08268 -0.086127,0.229099 0,0.165364 0.099908,0.249768 0.099908,0.08268 0.304891,0.08268 0.170531,0 0.31178,-0.06546 0.141249,-0.06718 0.261827,-0.160197 z"
         id="path1401" />
      <path
         d="m 13.69127,52.579574 q 0,0.234266 -0.06718,0.428913 -0.06718,0.192925 -0.18948,0.327284 -0.113688,0.127468 -0.268717,0.198092 -0.153306,0.0689 -0.32556,0.0689 -0.149862,0 -0.272162,-0.03273 -0.120578,-0.03273 -0.246324,-0.101631 v 0.806151 H 11.99801 v -2.63377 h 0.323838 v 0.201538 q 0.129191,-0.10852 0.289387,-0.180867 0.161919,-0.07407 0.344509,-0.07407 0.347954,0 0.540879,0.26355 0.194647,0.261826 0.194647,0.728636 z m -0.334173,0.0086 q 0,-0.347953 -0.118856,-0.520208 -0.118855,-0.172254 -0.365179,-0.172254 -0.139526,0 -0.280775,0.06029 -0.141248,0.06029 -0.270439,0.158474 v 1.09037 q 0.137803,0.06201 0.235988,0.08441 0.09991,0.02239 0.225654,0.02239 0.270439,0 0.422023,-0.18259 0.151584,-0.182589 0.151584,-0.540879 z"
         id="path1403" />
    </g>
    <g
       aria-label="R1"
       id="text420"
       style="font-size:3.52777px;line-height:1.25;font-family:Trim;-inkscape-font-specification:Trim;fill:#ffffff;stroke-width:0.264583"
       transform="translate(-5.8496759)">
      <path
         d="M 10.070497,13.564868 H 9.7190984 Q 9.682925,13.497689 9.6588094,13.35644 9.6346937,13.215192 9.5967978,13.087723 9.5313411,12.815561 9.1713294,12.545122 H 8.6907397 v 1.019746 H 8.3496759 V 11 h 0.7183009 q 0.2325434,0 0.3875724,0.03101 0.1550289,0.02928 0.2790521,0.106798 0.1395261,0.08785 0.2170405,0.222208 0.079237,0.132636 0.079237,0.337618 0,0.27733 -0.1395288,0.465087 -0.1395261,0.186035 -0.3841273,0.280775 0.3651793,0.289387 0.430636,0.60978 0.034451,0.160197 0.051676,0.294555 0.017226,0.132636 0.08096,0.217041 z M 9.6743123,11.721746 q 0,-0.110243 -0.039619,-0.194648 -0.037896,-0.08613 -0.1274682,-0.144693 -0.074069,-0.04995 -0.1756995,-0.0689 -0.1016301,-0.02067 -0.2394336,-0.02067 H 8.6907397 v 0.96807 h 0.3445087 q 0.1619192,0 0.2824973,-0.02756 0.120578,-0.02928 0.2049827,-0.106797 0.077514,-0.07235 0.1136879,-0.165364 0.037896,-0.09474 0.037896,-0.239434 z"
         id="path508" />
      <path
         d="m 11.135805,14.270422 h -0.214974 v -1.313354 q -0.06382,0.09741 -0.146675,0.155632 -0.08285,0.05822 -0.209375,0.119803 v -0.212734 q 0.151153,-0.09629 0.245204,-0.174666 0.04703,-0.03471 0.09629,-0.106367 0.04926,-0.07166 0.05598,-0.141076 h 0.173547 z"
         style="font-size:65%;letter-spacing:0.264583px;baseline-shift:sub"
         id="path510" />
    </g>
    <g
       aria-label="R2"
       id="text489"
       style="font-size:3.52777px;line-height:1.25;font-family:Trim;-inkscape-font-specification:Trim;fill:#ffffff;stroke-width:0.264583"
       transform="translate(-5.8496759)">
      <path
         d="M 10.070497,33.564869 H 9.7190984 Q 9.682925,33.49769 9.6588094,33.356441 9.6346937,33.215193 9.5967978,33.087724 9.5313411,32.815562 9.1713294,32.545123 H 8.6907397 v 1.019746 H 8.3496759 v -2.564868 h 0.7183009 q 0.2325434,0 0.3875724,0.03101 0.1550289,0.02928 0.2790521,0.106797 0.1395261,0.08785 0.2170405,0.222209 0.079237,0.132636 0.079237,0.337618 0,0.27733 -0.139532,0.465087 -0.1395261,0.186035 -0.3841273,0.280775 0.3651793,0.289387 0.430636,0.60978 0.034451,0.160197 0.051676,0.294555 0.017227,0.132636 0.080961,0.217041 z M 9.6743123,31.721747 q 0,-0.110243 -0.039619,-0.194648 -0.037896,-0.08613 -0.1274682,-0.144693 -0.074069,-0.04995 -0.1756995,-0.0689 -0.1016301,-0.02067 -0.2394336,-0.02067 H 8.6907397 v 0.96807 h 0.3445087 q 0.1619192,0 0.2824973,-0.02756 0.120578,-0.02928 0.2049827,-0.106797 0.077514,-0.07235 0.1136879,-0.165365 0.037896,-0.09474 0.037896,-0.239433 z"
         id="path503" />
      <path
         d="m 11.691153,34.270423 h -1.128611 v -0.234008 q 0.117564,-0.100768 0.235127,-0.201537 0.118683,-0.100769 0.220572,-0.200418 0.214973,-0.208256 0.294469,-0.330298 0.0795,-0.123162 0.0795,-0.265358 0,-0.12988 -0.08621,-0.202657 -0.08509,-0.0739 -0.238486,-0.0739 -0.101889,0 -0.220572,0.03583 -0.118683,0.03583 -0.231768,0.109727 h -0.0112 v -0.235128 q 0.0795,-0.03919 0.211615,-0.07166 0.133238,-0.03247 0.25752,-0.03247 0.256401,0 0.401956,0.124282 0.145555,0.123162 0.145555,0.334776 0,0.09517 -0.02463,0.178025 -0.02351,0.08174 -0.07054,0.155632 -0.04367,0.06942 -0.103008,0.136598 -0.05822,0.06718 -0.142196,0.148914 -0.119803,0.117564 -0.247444,0.228409 -0.12764,0.109726 -0.238486,0.203777 h 0.896843 z"
         style="font-size:65%;baseline-shift:sub"
         id="path505" />
    </g>
  </g>
  <g
     inkscape:groupmode="layer"
     id="layer2"
     inkscape:label="components"
     style="display:inline">
    <circle
       cx="10.16"
       cy="20"
       fill="#ff0000"
       id="r1"
       style="display:inline;stroke-width:0.235186"
       inkscape:label="r1"
       r="1.3229166mm" />
    <circle
       cx="10.16"
       cy="40"
       fill="#ff0000"
       id="r2"
       style="display:inline;stroke-width:0.235186"
       inkscape:label="r2"
       r="1.3229166mm" />
    <circle
       cx="10.16"
       cy="84"
       fill="#ff0000"
       id="reset"
       style="display:inline;fill:#ff0000;fill-opacity:1;stroke-width:0.235186"
       inkscape:label="reset"
       r="1.0583333mm" />
    <circle
       cx="10.412"
       cy="94"
       fill="#00ff00"
       id="a0"
       style="display:inline;fill:#00ff00;fill-opacity:1;stroke-width:0.141111"
       inkscape:label="a0"
       r="0.79374999mm" />
    <circle
       cx="10.412"
       cy="101"
       fill="#00ff00"
       id="r2_in"
       style="display:inline;fill:#00ff00;fill-opacity:1;stroke-width:0.141111"
       inkscape:label="r2"
       r="0.79374999mm" />
    <circle
       cx="10.412"
       cy="108"
       fill="#00ff00"
       id="clock"
       style="display:inline;fill:#00ff00;fill-opacity:1;stroke-width:0.141111"
       inkscape:label="clock"
       r="0.79374999mm" />
    <circle
       cx="13.82"
       cy="118.25"
       fill="#0000ff"
       id="circle29577"
       style="display:inline;mix-blend-mode:color;fill:#0000ff;fill-opacity:1;stroke-width:0.141111"
       inkscape:label="logistic"
       r="0.79374999mm" />
    <circle
       cx="10.16"
       cy="60"
       fill="#ff0000"
       id="map"
       style="display:inline;stroke-width:0.235186"
       inkscape:label="map"
       r="1.3229166mm" />
    <circle
       style="display:inline;fill:#ff0000;fill-opacity:1;stroke:#ff0000;stroke-width:0;stroke-linecap:round;stroke-miterlimit:0;stroke-dasharray:none;stroke-opacity:1"
       id="path552"
       cx="10.160001"
       cy="29.6"
       r="0.99999994" />
    <circle
       cx="18.411499"
       cy="94"
       fill="#00ff00"
       id="a1"
       style="display:inline;fill:#00ff00;fill-opacity:1;stroke-width:0.141111"
       inkscape:label="a1"
       r="0.79374999mm" />
    <circle
       cx="18.411499"
       cy="101"
       fill="#00ff00"
       id="circle2217"
       style="display:inline;fill:#00ff00;fill-opacity:1;stroke-width:0.141111"
       inkscape:label="r2"
       r="0.79374999mm" />
    <circle
       cx="18.411499"
       cy="108"
       fill="#00ff00"
       id="circle2219"
       style="display:inline;fill:#00ff00;fill-opacity:1;stroke-width:0.141111"
       inkscape:label="clock"
       r="0.79374999mm" />
    <circle
       cx="26.411501"
       cy="94"
       fill="#00ff00"
       id="a2"
       style="display:inline;fill:#00ff00;fill-opacity:1;stroke-width:0.141111"
       inkscape:label="a2"
       r="0.79374999mm" />
    <circle
       cx="26.411501"
       cy="101"
       fill="#00ff00"
       id="circle2223"
       style="display:inline;fill:#00ff00;fill-opacity:1;stroke-width:0.141111"
       inkscape:label="r2"
       r="0.79374999mm" />
    <circle
       cx="26.411501"
       cy="108"
       fill="#00ff00"
       id="circle2225"
       style="display:inline;fill:#00ff00;fill-opacity:1;stroke-width:0.141111"
       inkscape:label="clock"
       r="0.79374999mm" />
    <circle
       cx="34.410999"
       cy="94"
       fill="#00ff00"
       id="a3"
       style="display:inline;fill:#00ff00;fill-opacity:1;stroke-width:0.141111"
       inkscape:label="a3"
       r="0.79374999mm" />
    <circle
       cx="34.410999"
       cy="101"
       fill="#00ff00"
       id="circle2229"
       style="display:inline;fill:#00ff00;fill-opacity:1;stroke-width:0.141111"
       inkscape:label="r2"
       r="0.79374999mm" />
    <circle
       cx="34.410999"
       cy="108"
       fill="#00ff00"
       id="circle2231"
       style="display:inline;fill:#00ff00;fill-opacity:1;stroke-width:0.141111"
       inkscape:label="clock"
       r="0.79374999mm" />
    <circle
       cx="42.411499"
       cy="94"
       fill="#00ff00"
       id="a4"
       style="display:inline;fill:#00ff00;fill-opacity:1;stroke-width:0.141111"
       inkscape:label="a4"
       r="0.79374999mm" />
    <circle
       cx="42.411499"
       cy="101"
       fill="#00ff00"
       id="circle2235"
       style="display:inline;fill:#00ff00;fill-opacity:1;stroke-width:0.141111"
       inkscape:label="r2"
       r="0.79374999mm" />
    <circle
       cx="42.411499"
       cy="108"
       fill="#00ff00"
       id="circle2237"
       style="display:inline;fill:#00ff00;fill-opacity:1;stroke-width:0.141111"
       inkscape:label="clock"
       r="0.79374999mm" />
    <circle
       cx="50.410999"
       cy="94"
       fill="#00ff00"
       id="a5"
       style="display:inline;fill:#00ff00;fill-opacity:1;stroke-width:0.141111"
       inkscape:label="a5"
       r="0.79374999mm" />
    <circle
       cx="50.410999"
       cy="101"
       fill="#00ff00"
       id="circle2241"
       style="display:inline;fill:#00ff00;fill-opacity:1;stroke-width:0.141111"
       inkscape:label="r2"
       r="0.79374999mm" />
    <circle
       cx="50.410999"
       cy="108"
       fill="#00ff00"
       id="circle2243"
       style="display:inline;fill:#00ff00;fill-opacity:1;stroke-width:0.141111"
       inkscape:label="clock"
       r="0.79374999mm" />
    <circle
       cx="58.410999"
       cy="94"
       fill="#00ff00"
       id="a6"
       style="display:inline;fill:#00ff00;fill-opacity:1;stroke-width:0.141111"
       inkscape:label="a6"
       r="0.79374999mm" />
    <circle
       cx="58.410999"
       cy="101"
       fill="#00ff00"
       id="circle2247"
       style="display:inline;fill:#00ff00;fill-opacity:1;stroke-width:0.141111"
       inkscape:label="r2"
       r="0.79374999mm" />
    <circle
       cx="58.410999"
       cy="108"
       fill="#00ff00"
       id="circle2249"
       style="display:inline;fill:#00ff00;fill-opacity:1;stroke-width:0.141111"
       inkscape:label="clock"
       r="0.79374999mm" />
    <circle
       cx="66.4105"
       cy="94"
       fill="#00ff00"
       id="a7"
       style="display:inline;fill:#00ff00;fill-opacity:1;stroke-width:0.141111"
       inkscape:label="a7"
       r="0.79374999mm" />
    <circle
       cx="66.4105"
       cy="101"
       fill="#00ff00"
       id="circle2253"
       style="display:inline;fill:#00ff00;fill-opacity:1;stroke-width:0.141111"
       inkscape:label="r2"
       r="0.79374999mm" />
    <circle
       cx="66.4105"
       cy="108"
       fill="#00ff00"
       id="circle2255"
       style="display:inline;fill:#00ff00;fill-opacity:1;stroke-width:0.141111"
       inkscape:label="clock"
       r="0.79374999mm" />
  </g>
</svg>
