<?xml version="1.0" encoding="UTF-8" standalone="no"?>
<!-- Created with Inkscape (http://www.inkscape.org/) -->

<svg
   width="50.799999mm"
   height="128.5mm"
   viewBox="0 0 50.8 128.5"
   version="1.1"
   id="svg470"
   inkscape:version="1.1.2 (0a00cf5339, 2022-02-04)"
   sodipodi:docname="LFSR.svg"
   xmlns:inkscape="http://www.inkscape.org/namespaces/inkscape"
   xmlns:sodipodi="http://sodipodi.sourceforge.net/DTD/sodipodi-0.dtd"
   xmlns="http://www.w3.org/2000/svg"
   xmlns:svg="http://www.w3.org/2000/svg">
  <sodipodi:namedview
     id="namedview472"
     pagecolor="#ffffff"
     bordercolor="#666666"
     borderopacity="1.0"
     inkscape:pageshadow="2"
     inkscape:pageopacity="1"
     inkscape:pagecheckerboard="false"
     inkscape:document-units="mm"
     showgrid="true"
     width="40.64mm"
     inkscape:zoom="2"
     inkscape:cx="80.207544"
     inkscape:cy="240.3868"
     inkscape:window-width="1920"
     inkscape:window-height="1019"
     inkscape:window-x="0"
     inkscape:window-y="0"
     inkscape:window-maximized="1"
     inkscape:current-layer="layer2"
     objecttolerance="20"
     guidetolerance="10000"
     showguides="true"
     inkscape:rotation="1">
    <inkscape:grid
       type="xygrid"
       id="grid1902"
       units="mm"
       dotted="false"
       originx="0"
       originy="0"
       spacingx="1"
       spacingy="1"
       snapvisiblegridlinesonly="true"
       visible="true"
       empspacing="10" />
  </sodipodi:namedview>
  <defs
     id="defs467" />
  <rect
     style="display:inline;fill:#e8e5e0;fill-opacity:1;stroke-width:0.295812"
     id="rect981"
     width="50.799999"
     height="128.5"
     x="0"
     y="-5.5511151e-17" />
  <rect
     style="display:inline;fill:#999593;fill-opacity:1;stroke-width:0.238291"
     id="rect1123-3"
     width="10.16"
     height="14"
     x="10.16"
     y="100.9999" />
  <g
     inkscape:label="panel"
     inkscape:groupmode="layer"
     id="layer1"
     style="display:inline">
    <path
       style="display:inline;fill:#000000;stroke-width:0.256427"
       d="m 6.3076506,122.99351 c -0.03895,-0.87892 0.0074,-0.94127 0.676794,-0.90935 0.592699,0.0282 0.618282,0.0531 0.146007,0.14137 -0.416041,0.0778 -0.601093,0.32647 -0.676794,0.90936 -0.100103,0.77081 -0.105827,0.76526 -0.146007,-0.14138 z m 1.438882,0.37746 c 0.08798,-0.33624 0.348012,-0.56618 0.640289,-0.56618 0.2706833,0 0.4921523,-0.11324 0.4921523,-0.25164 0,-0.13839 -0.159216,-0.25163 -0.353815,-0.25163 -0.1945983,0 -0.6677623,-0.28018 -1.0514773,-0.62261 -0.383715,-0.34245 -0.753661,-0.62554 -0.822101,-0.62909 -0.06844,-0.004 -0.124436,-0.063 -0.124436,-0.13228 v -0.301 c 0,-0.0963 0.382172,0.1707 0.849271,0.59342 0.57354,0.51907 1.582834,0.98443 3.1086934,1.43334 2.72786,0.80257 3.077277,0.82123 3.025669,0.16152 -0.02826,-0.36128 -0.170622,-0.4631 -0.504743,-0.36099 -0.364501,0.11141 -0.426807,0.0432 -0.287438,-0.31458 0.155991,-0.40047 0.12397,-0.41455 -0.25963,-0.11412 -0.572561,0.44842 -1.26488,0.19257 -1.071773,-0.39607 0.140142,-0.42721 0.128587,-0.42768 -0.229199,-0.01 -0.481338,0.56255 -0.711137,0.55877 -0.711137,-0.0117 0,-0.32913 0.195394,-0.44784 0.718613,-0.4366 0.562469,0.0121 0.699371,0.12104 0.630055,0.50142 -0.07456,0.40915 -0.02569,0.43574 0.309153,0.16814 0.553362,-0.44223 1.739262,0.30903 1.739262,1.10182 0,0.83186 -0.558794,0.91682 -2.254806,0.3428 l -1.502355,-0.50848 -0.4674357,0.5851 c -0.2570927,0.32181 -0.4700517,0.45024 -0.4732477,0.28541 -0.0032,-0.16484 0.111783,-0.36967 0.255505,-0.45521 0.1437227,-0.0855 0.2613147,-0.25965 0.2613147,-0.38691 0,-0.30875 -1.3542307,0.28008 -1.7508747,0.76129 -0.262658,0.31865 -0.289564,0.28847 -0.165509,-0.18566 z m 1.45691,-2.10626 c -0.791051,-0.48781 -0.839522,-0.49198 -0.6833307,-0.0587 0.10338,0.28681 -0.2218403,0.10236 -0.8445923,-0.47901 -0.837037,-0.7814 -0.962861,-1.02148 -0.725342,-1.38398 0.254583,-0.38854 0.679124,-0.42846 3.7212214,-0.34992 2.960695,0.0765 3.433856,0.0351 3.433856,-0.29969 0,-0.21359 -0.113739,-0.45604 -0.252756,-0.53877 -0.139014,-0.0827 -0.184242,-0.4803 -0.100502,-0.88348 0.130239,-0.62708 0.0588,-0.75565 -0.494075,-0.88927 -0.36303,-0.0878 -1.073369,0.0156 -1.620608,0.23579 -0.861674,0.34669 -1.019137,0.34881 -1.362348,0.0184 -0.5104987,-0.49159 -0.6997837,-0.4722 -1.2653354,0.12958 -0.2601357,0.27679 -0.601738,0.50153 -0.759116,0.4994 -0.157378,-0.002 -0.109755,-0.11362 0.105829,-0.24777 0.3065833,-0.19079 0.2387853,-0.24477 -0.31122,-0.24778 -0.386756,-0.002 -0.775869,0.10938 -0.864694,0.24778 -0.08883,0.13839 0.05123,0.25564 0.311221,0.26055 0.376242,0.007 0.33939,0.0824 -0.180563,0.36853 -0.87971,0.48425 -1.186472,0.46753 -0.750611,-0.0409 0.279598,-0.32617 0.286649,-0.4417 0.032,-0.52424 -0.179654,-0.0582 -0.326644,-0.21634 -0.326644,-0.35138 0,-0.13503 0.116661,-0.17609 0.259245,-0.0912 0.142585,0.0848 0.451664,0.0506 0.686842,-0.0762 0.518482,-0.2794 0.02663,-0.6753 -0.566629,-0.45607 -0.208701,0.0771 -0.379458,0.0305 -0.379458,-0.10353 0,-0.35898 0.870615,-0.29636 1.438441,0.10346 0.366447,0.25802 0.683328,0.28332 1.2339083,0.0985 0.5182857,-0.17398 0.9667914,-0.15855 1.4930171,0.0514 0.568072,0.22659 0.888868,0.22958 1.310597,0.0123 0.307127,-0.15829 0.935148,-0.25269 1.395606,-0.20981 0.736595,0.0686 0.839232,0.17009 0.854127,0.84442 0.0093,0.42153 0.09983,0.89558 0.201144,1.05345 0.167782,0.26142 0.02109,2.31147 -0.179214,2.50433 -0.04662,0.0449 -0.449461,-0.0408 -0.8952,-0.19042 -0.598997,-0.20107 -0.767722,-0.3819 -0.646731,-0.69311 0.142584,-0.36677 0.106828,-0.37654 -0.2772,-0.0757 -0.35629,0.27908 -0.440897,0.28192 -0.440897,0.0148 0,-0.20126 -0.150057,-0.1395 -0.383661,0.15791 -0.211015,0.26866 -0.387401,0.39955 -0.391972,0.29088 -0.0045,-0.10868 -0.237772,-0.0793 -0.518222,0.0652 -0.37395,0.19273 -0.4835367,0.46345 -0.411,1.01539 0.0544,0.41392 0.07807,0.75069 0.05261,0.74836 -0.02548,-0.002 -0.4294527,-0.24052 -0.8977444,-0.52931 z m 0.7207877,-0.22135 c 0,-0.1384 -0.05186,-0.25163 -0.115237,-0.25163 -0.06338,0 -0.187911,0.11323 -0.276735,0.25163 -0.08883,0.13839 -0.03697,0.25163 0.115235,0.25163 0.152205,0 0.276737,-0.11324 0.276737,-0.25163 z m -1.7148067,-1.15264 c 0.4928183,-0.47456 0.3137353,-0.86042 -0.399332,-0.86042 -0.636205,0 -0.96887,0.72496 -0.471754,1.02807 0.462158,0.28179 0.389914,0.2957 0.871086,-0.16765 z m 5.6345174,0.0359 c 0,-0.20669 -0.224067,-0.34555 -0.522629,-0.3239 -0.644455,0.0467 -0.683967,0.35658 -0.06533,0.51226 0.251515,0.0633 0.486698,0.12821 0.522629,0.14427 0.03593,0.0161 0.06533,-0.13363 0.06533,-0.33263 z m -3.13577,-0.42001 c 0,-0.33158 -1.5057534,-0.27346 -1.7239814,0.0666 -0.1280847,0.19957 -0.0096,0.2466 0.376547,0.14938 0.3099217,-0.0781 0.5634937,-0.0428 0.5634937,0.0783 0,0.1211 0.1763867,0.155 0.3919707,0.0753 0.215584,-0.0797 0.39197,-0.24596 0.39197,-0.36956 z m -1.2188127,-1.87724 c -0.2177937,-0.54653 0.335118,-1.06051 0.7308827,-0.6794 0.33449,0.32209 0.127273,1.07377 -0.2960107,1.07377 -0.152746,0 -0.348436,-0.17747 -0.434872,-0.39437 z m 0.352064,-0.40771 c -0.08342,-0.20073 -0.145338,-0.14111 -0.157878,0.15203 -0.01134,0.26526 0.05042,0.41388 0.137247,0.33026 0.08683,-0.0836 0.09612,-0.30064 0.02062,-0.48229 z"
       id="path1561"
       sodipodi:nodetypes="ssssssssssssssssssssssssssscsssssscssssssssssscscsssssssssssssssssssssssssscscsssssssssssssssssssssssssssss" />
    <text
       xml:space="preserve"
       style="font-size:2.82223px;line-height:1.25;font-family:Ubuntu;-inkscape-font-specification:Ubuntu;stroke-width:0.264583"
       x="11"
       y="35"
       id="text14295"><tspan
         sodipodi:role="line"
         id="tspan14293"
         style="stroke-width:0.264583"
         x="11"
         y="35" /></text>
    <text
       xml:space="preserve"
       style="font-style:normal;font-variant:normal;font-weight:normal;font-stretch:normal;font-size:3.52778px;line-height:1.25;font-family:'Ubuntu Mono';-inkscape-font-specification:'Ubuntu Mono';stroke-width:0.264583"
       x="7.6044326"
       y="7.0009613"
       id="text2405"><tspan
         sodipodi:role="line"
         id="tspan2403"
         style="font-style:normal;font-variant:normal;font-weight:normal;font-stretch:normal;font-size:3.52778px;font-family:'Ubuntu Mono';-inkscape-font-specification:'Ubuntu Mono';stroke-width:0.264583"
         x="7.6044326"
         y="7.0009613">LFSR</tspan></text>
  </g>
  <g
     inkscape:groupmode="layer"
     id="layer2"
     inkscape:label="components"
     style="display:inline">
    <circle
       cx="3.8099999"
       cy="110.56241"
       fill="#00ff00"
       id="L1Socket"
       style="display:inline;stroke-width:0.352777"
       r="0.79374999mm"
       inkscape:label="L1Socket" />
    <circle
       cx="15"
       cy="25"
       fill="#ff0000"
       id="x0"
       style="display:inline;stroke-width:0.235185"
       inkscape:label=""
       r="0.79374999mm" />
    <circle
       cx="25"
       cy="25"
       fill="#ff0000"
       id="x0-9"
       style="display:inline;stroke-width:0.235185"
       inkscape:label=""
       r="0.79374999mm" />
    <circle
       cx="35"
       cy="25"
       fill="#ff0000"
       id="x0-2"
       style="display:inline;stroke-width:0.235185"
       inkscape:label=""
       r="0.79374999mm" />
    <circle
       cx="45"
       cy="25"
       fill="#ff0000"
       id="x0-9-5"
       style="display:inline;stroke-width:0.235185"
       inkscape:label=""
       r="0.79374999mm" />
    <circle
       cx="15"
       cy="35"
       fill="#ff0000"
       id="x0-4"
       style="display:inline;stroke-width:0.235185"
       inkscape:label=""
       r="0.79374999mm" />
    <circle
       cx="25"
       cy="35"
       fill="#ff0000"
       id="x0-9-0"
       style="display:inline;stroke-width:0.235185"
       inkscape:label=""
       r="0.79374999mm" />
    <circle
       cx="35"
       cy="35"
       fill="#ff0000"
       id="x0-2-5"
       style="display:inline;stroke-width:0.235185"
       inkscape:label=""
       r="0.79374999mm" />
    <circle
       cx="45"
       cy="35"
       fill="#ff0000"
       id="x0-9-5-9"
       style="display:inline;stroke-width:0.235185"
       inkscape:label=""
       r="0.79374999mm" />
    <circle
       cx="15.3"
       cy="109.99989"
       fill="#0000ff"
       id="OutSocket"
       style="display:inline;fill:#0000f4;fill-opacity:1;stroke-width:0.35277"
       inkscape:label="OutSocket"
       r="3" />
    <circle
       style="fill:#00ff00;fill-opacity:1;fill-rule:nonzero;stroke:#fffff7;stroke-width:0;stroke-linecap:round;stroke-miterlimit:4;stroke-dasharray:none;stroke-opacity:0.000015917"
       id="x_in"
       cx="15"
       cy="45"
       r="5"
       inkscape:label="x_in" />
  </g>
  <g
     aria-label="OUT"
     id="text154478"
     style="font-size:2.82223px;line-height:1.25;font-family:'Ubuntu Condensed';-inkscape-font-specification:'Ubuntu Condensed, ';stroke-width:0.264583"
     transform="translate(1.951949,5.000879)">
    <path
       d="m 12.549404,99.023508 q 0,0.228601 -0.04233,0.41769 -0.03951,0.186268 -0.127,0.321735 -0.08467,0.132644 -0.217312,0.206022 -0.129823,0.07355 -0.307623,0.07355 -0.177801,0 -0.310446,-0.07355 -0.129822,-0.07338 -0.217311,-0.206022 -0.08467,-0.135467 -0.127001,-0.321735 -0.04233,-0.189089 -0.04233,-0.41769 0,-0.2286 0.04233,-0.41769 0.04233,-0.189089 0.127001,-0.321734 0.08749,-0.135467 0.217311,-0.208845 0.132645,-0.0762 0.310446,-0.0762 0.1778,0 0.307623,0.0762 0.132645,0.07338 0.217312,0.208845 0.08749,0.132645 0.127,0.321734 0.04233,0.18909 0.04233,0.41769 z m -0.270934,0 q 0,-0.1778 -0.02258,-0.324556 -0.02258,-0.146756 -0.07338,-0.251179 -0.0508,-0.107244 -0.132644,-0.166511 -0.07902,-0.05927 -0.194734,-0.05927 -0.115712,0 -0.197556,0.05927 -0.07902,0.05927 -0.129823,0.166511 -0.0508,0.104423 -0.0762,0.251179 -0.02258,0.146756 -0.02258,0.324556 0,0.177801 0.02258,0.324557 0.0254,0.146756 0.0762,0.251178 0.0508,0.104423 0.129823,0.16369 0.08184,0.05644 0.197556,0.05644 0.115711,0 0.194734,-0.05644 0.08184,-0.05927 0.132644,-0.16369 0.0508,-0.104422 0.07338,-0.251178 0.02258,-0.146756 0.02258,-0.324557 z"
       id="path167395" />
    <path
       d="m 13.475094,100.04233 q -0.273756,0 -0.412045,-0.155219 -0.135467,-0.155223 -0.135467,-0.491068 v -1.351848 h 0.254001 v 1.32927 q 0,0.222956 0.06491,0.335845 0.06491,0.110067 0.234245,0.110067 0.174978,0 0.237067,-0.112889 0.06491,-0.115711 0.06491,-0.333023 v -1.32927 h 0.254 v 1.351848 q 0,0.330201 -0.141111,0.488246 -0.141112,0.158041 -0.420513,0.158041 z"
       id="path167397" />
    <path
       d="m 15.41961,98.044195 v 0.217311 H 14.984987 V 100 h -0.254001 v -1.738494 h -0.434623 v -0.217311 z"
       id="path167399" />
  </g>
</svg>
