<?xml version="1.0" encoding="UTF-8" standalone="no"?>
<!-- Created with Inkscape (http://www.inkscape.org/) -->

<svg
   width="40.639999mm"
   height="128.5mm"
   viewBox="0 0 40.639998 128.5"
   version="1.1"
   id="svg359"
   inkscape:version="1.2.2 (b0a8486, 2022-12-01)"
   sodipodi:docname="LFSR16Poly.svg"
   xmlns:inkscape="http://www.inkscape.org/namespaces/inkscape"
   xmlns:sodipodi="http://sodipodi.sourceforge.net/DTD/sodipodi-0.dtd"
   xmlns="http://www.w3.org/2000/svg"
   xmlns:svg="http://www.w3.org/2000/svg">
  <sodipodi:namedview
     id="namedview361"
     pagecolor="#ffffff"
     bordercolor="#666666"
     borderopacity="1.0"
     inkscape:showpageshadow="false"
     inkscape:pageopacity="0.0"
     inkscape:pagecheckerboard="false"
     inkscape:deskcolor="#d1d1d1"
     inkscape:document-units="mm"
     showgrid="true"
     borderlayer="true"
     shape-rendering="auto"
     showguides="true"
     inkscape:lockguides="true"
     inkscape:zoom="1.8"
     inkscape:cx="-56.944444"
     inkscape:cy="250.27778"
     inkscape:window-width="1920"
     inkscape:window-height="1019"
     inkscape:window-x="0"
     inkscape:window-y="0"
     inkscape:window-maximized="1"
     inkscape:current-layer="layer1">
    <inkscape:grid
       type="xygrid"
       id="grid480"
       dotted="false"
       spacingx="0.99999998"
       spacingy="0.99999998"
       originx="0"
       originy="0"
       units="mm"
       empspacing="5"
       snapvisiblegridlinesonly="false" />
  </sodipodi:namedview>
  <defs
     id="defs356">
    <linearGradient
       id="linearGradient4130"
       inkscape:swatch="solid">
      <stop
         style="stop-color:#ff0000;stop-opacity:1;"
         offset="0"
         id="stop4128" />
    </linearGradient>
    <linearGradient
       id="linearGradient18497">
      <stop
         style="stop-color:#ff0000;stop-opacity:1;"
         offset="0"
         id="stop18495" />
    </linearGradient>
    <linearGradient
       id="linearGradient18491">
      <stop
         style="stop-color:#ff0000;stop-opacity:1;"
         offset="0"
         id="stop18489" />
    </linearGradient>
    <linearGradient
       id="linearGradient18458">
      <stop
         style="stop-color:#ff0000;stop-opacity:1;"
         offset="0"
         id="stop18456" />
    </linearGradient>
    <linearGradient
       id="linearGradient17700">
      <stop
         style="stop-color:#0000ff;stop-opacity:1;"
         offset="0"
         id="stop17698" />
    </linearGradient>
  </defs>
  <g
     inkscape:label="panel"
     inkscape:groupmode="layer"
     id="layer1"
     style="display:inline">
    <rect
       style="fill:#b6b6b6;fill-opacity:1;stroke:#ffffff;stroke-width:0;stroke-linecap:round;stroke-miterlimit:0"
       id="rect1088"
       width="40.639999"
       height="128.5"
       x="6.6011256e-07"
       y="4.1257027e-07"
       inkscape:label="faceplate" />
    <path
       style="display:inline;fill:#000000;fill-opacity:1;stroke-width:0.256427"
       d="m 0.020909,128.11321 c -0.019475,-0.43943 0.0037,-0.47061 0.338397,-0.45465 0.2963495,0.0141 0.309141,0.0266 0.073004,0.0707 -0.2080205,0.0389 -0.3005465,0.16322 -0.338397,0.45465 -0.050052,0.38539 -0.052914,0.38261 -0.073004,-0.0707 z m 0.719441,0.18872 c 0.04399,-0.16811 0.174006,-0.28307 0.320145,-0.28307 0.135341,0 0.246076,-0.0566 0.246076,-0.12582 0,-0.0692 -0.07961,-0.1258 -0.176908,-0.1258 -0.0973,0 -0.333881,-0.14008 -0.5257385,-0.31128 -0.1918575,-0.17122 -0.3768305,-0.31276 -0.4110505,-0.31454 -0.03422,-0.002 -0.062218,-0.0315 -0.062218,-0.0661 v -0.15049 c 0,-0.0482 0.191086,0.0854 0.4246355,0.29669 0.28677,0.25952 0.7914175,0.49218 1.5543465,0.71662 1.36393,0.40126 1.538638,0.41059 1.512834,0.0808 -0.01413,-0.18064 -0.08531,-0.23154 -0.252371,-0.18048 -0.182251,0.0557 -0.213404,0.0216 -0.143719,-0.15728 0.078,-0.20023 0.06198,-0.20727 -0.129815,-0.0571 -0.286281,0.22419 -0.63244,0.0963 -0.535887,-0.19802 0.07007,-0.21359 0.06429,-0.21383 -0.114599,-0.005 -0.240669,0.28125 -0.355568,0.27936 -0.355568,-0.006 0,-0.16456 0.0977,-0.22391 0.359306,-0.2183 0.281234,0.006 0.349685,0.0605 0.315027,0.2507 -0.03728,0.20457 -0.01285,0.21786 0.154577,0.0841 0.276681,-0.2211 0.869631,0.15451 0.869631,0.55087 0,0.4159 -0.279397,0.45839 -1.127403,0.17139 l -0.751177,-0.25422 -0.233718,0.29253 c -0.128546,0.1609 -0.235026,0.22511 -0.236624,0.1427 -0.0016,-0.0824 0.05589,-0.18482 0.127753,-0.22759 0.07186,-0.0428 0.130657,-0.12982 0.130657,-0.19344 0,-0.15436 -0.677115,0.14002 -0.8754375,0.38062 -0.131329,0.1593 -0.144782,0.14422 -0.082755,-0.0928 z m 0.728455,-1.05307 c -0.395525,-0.24389 -0.419761,-0.24597 -0.341665,-0.0293 0.05169,0.1434 -0.11092,0.0512 -0.4222965,-0.23948 -0.4185185,-0.39067 -0.4814305,-0.51071 -0.362671,-0.69194 0.1272915,-0.19426 0.339562,-0.21422 1.8606105,-0.17495 1.480347,0.0383 1.716928,0.0175 1.716928,-0.14984 0,-0.10679 -0.05687,-0.228 -0.126378,-0.26937 -0.06951,-0.0413 -0.09212,-0.24013 -0.05025,-0.44171 0.06512,-0.31352 0.0294,-0.37779 -0.247038,-0.44461 -0.181515,-0.0439 -0.536684,0.008 -0.810304,0.11789 -0.430836,0.17333 -0.509568,0.1744 -0.681173,0.009 -0.255249,-0.24578 -0.349892,-0.23609 -0.632668,0.0648 -0.130068,0.13838 -0.300869,0.25074 -0.3795581,0.24968 -0.078689,-8e-4 -0.054878,-0.0568 0.052914,-0.12388 0.153292,-0.0954 0.119393,-0.12237 -0.1556098,-0.12388 -0.193378,-8e-4 -0.3879345,0.0547 -0.432347,0.12388 -0.044415,0.0692 0.025615,0.12782 0.1556105,0.13026 0.1881209,0.004 0.169695,0.0412 -0.090281,0.18426 -0.439855,0.24211 -0.593236,0.23375 -0.3753055,-0.0204 0.139799,-0.16308 0.1433245,-0.22083 0.016,-0.26211 C 0.073495,125.12815 0,125.04909 0,124.98158 c 0,-0.0675 0.058331,-0.0881 0.1296225,-0.0456 0.071293,0.0424 0.225832,0.0253 0.343421,-0.0381 0.259241,-0.13969 0.013315,-0.33763 -0.2833145,-0.22802 C 0.0853785,124.70841 0,124.68512 0,124.6181 c 0,-0.17947 0.4353075,-0.14817 0.7192205,0.0517 0.1832235,0.129 0.3416645,0.14166 0.6169545,0.0493 0.259143,-0.087 0.483396,-0.0793 0.746508,0.0257 0.284036,0.11329 0.444434,0.11479 0.655299,0.006 0.153563,-0.0791 0.467573,-0.12633 0.697802,-0.10489 0.368298,0.0343 0.419616,0.0851 0.427064,0.42217 0.0046,0.21076 0.04992,0.44777 0.100572,0.52669 0.08389,0.13071 0.01055,1.15567 -0.08961,1.25209 -0.02331,0.0224 -0.22473,-0.0204 -0.4476,-0.0952 -0.299498,-0.10053 -0.383861,-0.19094 -0.323365,-0.34654 0.07129,-0.18337 0.05341,-0.18825 -0.1386,-0.0378 -0.178145,0.13953 -0.220449,0.14095 -0.220449,0.007 0,-0.10063 -0.07503,-0.0697 -0.19183,0.0789 -0.105508,0.13433 -0.193701,0.19977 -0.195986,0.14544 -0.0023,-0.0543 -0.118886,-0.0396 -0.259111,0.0326 -0.186975,0.0964 -0.241768,0.23171 -0.2055,0.50767 0.0272,0.20695 0.03904,0.37531 0.0263,0.37415 -0.01274,-8e-4 -0.214726,-0.12025 -0.448872,-0.26463 z m 0.360394,-0.11066 c 0,-0.0692 -0.02593,-0.12581 -0.05762,-0.12581 -0.03169,0 -0.09396,0.0566 -0.138367,0.12581 -0.04441,0.0692 -0.01849,0.1258 0.05762,0.1258 0.0761,0 0.138368,-0.0566 0.138367,-0.1258 z m -0.8574035,-0.57628 c 0.2464095,-0.23727 0.1568675,-0.43019 -0.199666,-0.43019 -0.3181025,0 -0.484435,0.36246 -0.235877,0.514 0.231079,0.14089 0.194957,0.14784 0.435543,-0.0838 z m 2.8172585,0.0179 c 0,-0.10335 -0.112034,-0.17276 -0.261315,-0.16194 -0.322227,0.0234 -0.341983,0.17828 -0.03266,0.25611 0.125758,0.0316 0.243349,0.0641 0.261315,0.0721 0.01797,0.008 0.03266,-0.0668 0.03266,-0.16629 z m -1.567885,-0.20994 c 0,-0.16578 -0.752876,-0.13673 -0.86199,0.0333 -0.06404,0.0998 -0.0048,0.1233 0.188273,0.0747 0.154961,-0.0391 0.281747,-0.0214 0.281747,0.0392 0,0.0605 0.08819,0.0775 0.195985,0.0376 0.107792,-0.0399 0.195985,-0.12297 0.195985,-0.18476 z m -0.609406,-0.93857 c -0.108897,-0.27324 0.167559,-0.53022 0.365441,-0.33967 0.167245,0.16103 0.06364,0.53685 -0.148005,0.53685 -0.07637,0 -0.174218,-0.0887 -0.217436,-0.19718 z m 0.176032,-0.20384 c -0.04171,-0.10036 -0.07267,-0.0706 -0.07894,0.076 -0.0057,0.13262 0.02521,0.20694 0.06862,0.16512 0.04341,-0.0418 0.04806,-0.15031 0.01031,-0.24113 z"
       id="path1561"
       sodipodi:nodetypes="ssssssssssssssssssssssssssscsssssscssssssssssscscsssssssssssssssssssssssssscscsssssssssssssssssssssssssssss"
       inkscape:label="logo" />
    <path
       style="fill:#000000;fill-opacity:1;stroke:#000000;stroke-width:0.25;stroke-linecap:butt;stroke-linejoin:miter;stroke-dasharray:none;stroke-opacity:1"
       d="M 40.64,90.125 C 0,90.125 0,90.125 0,90.125"
       id="path433" />
    <text
       xml:space="preserve"
       style="font-style:normal;font-variant:normal;font-weight:normal;font-stretch:normal;font-size:4.23333px;font-family:Trim;-inkscape-font-specification:Trim;direction:rtl;display:inline;fill:#000000;fill-opacity:1;stroke:#ff0000;stroke-width:0;stroke-linecap:round;stroke-miterlimit:0;stroke-dasharray:none;stroke-opacity:1"
       x="4.9999995"
       y="111.99999"
       id="text7620"><tspan
         sodipodi:role="line"
         id="tspan7618"
         style="fill:#000000;fill-opacity:1;stroke-width:0"
         x="4.9999995"
         y="111.99999" /></text>
    <g
       aria-label="LFSR16"
       id="text411"
       style="font-size:3.52777px;font-family:'\' Mono Regular';-inkscape-font-specification:'\' Mono Regular, ';text-align:center;text-anchor:middle;stroke:#000000;stroke-width:0;stroke-linecap:round;stroke-miterlimit:0">
      <path
         d="m 14.088166,4.9999999 h 0.3175 l 0.01764,0.021167 v 2.0849121 h 1.202969 l 0.02117,0.021167 v 0.3245549 l -0.02117,0.021167 H 14.088166 L 14.067,7.4518001 V 5.0211665 Z"
         id="path666" />
      <path
         d="m 16.137798,4.9999999 h 1.548692 l 0.02117,0.021167 v 0.3174993 l -0.02117,0.017639 h -1.213553 v 0.6949707 h 1.040692 l 0.02117,0.021167 v 0.3280826 l -0.02117,0.021167 h -1.040692 v 1.0301089 l -0.01764,0.021167 h -0.3175 l -0.02117,-0.021167 V 5.0211665 Z"
         id="path668" />
      <path
         d="m 18.681318,5.0035276 h 0.793749 q 0.479776,0.4656657 0.479776,0.4903601 v 0.2046106 l -0.01764,0.017639 h -0.3175 q -0.02117,0 -0.02117,-0.091722 L 19.323373,5.3598324 h -0.500944 l -0.264583,0.2751661 v 0.1552219 l 0.264583,0.2645827 h 0.652638 l 0.479776,0.49036 V 6.9826066 L 19.475067,7.4729667 H 18.681318 L 18.190958,6.9826066 V 6.777996 l 0.02117,-0.017639 h 0.324555 q 0.02117,0 0.03175,0.098778 l 0.253999,0.2469439 h 0.500944 L 19.598539,6.8414958 V 6.686274 L 19.323373,6.4216912 h -0.642055 l -0.49036,-0.49036 V 5.4938877 Z"
         id="path670" />
      <path
         d="m 20.431091,5.0035276 h 1.262942 q 0.479777,0.4656657 0.479777,0.4903601 v 0.4374435 l -0.469194,0.49036 0.469194,1.0406922 -0.0071,0.010583 h -0.370416 q -0.05292,-0.049389 -0.243416,-0.52211 L 21.298923,6.4216912 h -0.52211 v 1.0301089 l -0.02117,0.021167 h -0.324555 l -0.02117,-0.021167 V 5.0246943 Z m 0.345722,0.3563048 v 0.6949707 h 0.765526 L 21.817505,5.7902204 V 5.6349985 L 21.542339,5.3598324 Z"
         id="path672" />
      <path
         d="m 23.341497,5.0035276 h 0.331611 l 0.02117,0.021167 v 2.1025509 h 0.515055 l 0.02117,0.021167 v 0.3210271 l -0.02117,0.017639 h -1.382886 l -0.02117,-0.017639 V 7.1484118 l 0.02117,-0.021167 h 0.504471 V 5.5291654 l -0.204611,0.1975551 h -0.29986 l -0.02117,-0.021167 V 5.5397487 Z"
         id="path674" />
      <path
         d="M 26.079041,7.4764944 H 25.281765 L 24.79846,6.9931899 V 6.562802 q 0,-0.052917 0.892526,-1.5628021 h 0.398638 l -0.592665,1.058331 h 0.582082 q 0.29986,0.275166 0.493888,0.4833045 V 6.9931899 Q 26.378901,7.2048561 26.079041,7.4764944 Z M 26.202513,6.8414958 V 6.686274 L 25.93793,6.4181634 h -0.656165 l -0.123472,0.2469439 v 0.1763885 l 0.275166,0.2751661 h 0.504471 z"
         id="path676" />
    </g>
    <g
       aria-label="COEFF"
       id="text469"
       style="font-size:3.52777px;font-family:'\' Mono Regular';-inkscape-font-specification:'\' Mono Regular, ';text-align:center;text-anchor:middle;stroke:#000000;stroke-width:0;stroke-linecap:round;stroke-miterlimit:0"
       transform="translate(-0.99999998)">
      <path
         d="m 12.029166,14.003527 h 0.705554 l 0.183444,0.186972 q 0.01764,0.01058 0.123472,0.127 0.123472,0.119944 0.123472,0.126999 l 0.09525,0.09525 v 0.176389 l -0.0071,0.0071 h -0.349249 q -0.0071,-0.0035 -0.0071,-0.01411 v -0.01058 l 0.0035,-0.01058 -0.07408,-0.07408 q 0,-0.0071 -0.0071,-0.0071 0,-0.0071 -0.01411,-0.01058 0,-0.0071 -0.0071,-0.0071 0,-0.0035 -0.0247,-0.02822 l -0.0388,-0.03528 q 0,-0.01058 -0.07056,-0.08114 0,-0.0071 -0.04233,-0.04233 0,-0.0071 -0.0071,-0.0071 0,-0.0071 -0.02469,-0.02822 v -0.0035 h -0.416277 q -0.09878,0.09878 -0.09878,0.105833 -0.04233,0.0388 -0.04233,0.04233 -0.0035,0 -0.02822,0.03528 l -0.141111,0.137583 v 1.107719 l 0.310444,0.313972 h 0.416277 q 0,-0.0071 0.02469,-0.02469 0,-0.0071 0.0071,-0.0071 0,-0.01058 0.04233,-0.04233 0,-0.0071 0.07056,-0.07408 0,-0.0071 0.01058,-0.0071 0,-0.01058 0.01058,-0.01058 0,-0.0035 0.144639,-0.148167 l -0.0035,-0.01058 v -0.01058 q 0,-0.01411 0.0071,-0.01411 h 0.349249 l 0.0071,0.0035 v 0.179916 l -0.126999,0.127 h -0.0071 q 0,0.0071 -0.03175,0.03528 -0.09172,0.09878 -0.09878,0.09878 v 0.01411 q -0.03175,0.02822 -0.03175,0.03175 -0.01058,0 -0.01058,0.01058 -0.0071,0 -0.05644,0.05644 -0.0071,0 -0.0071,0.0071 -0.01058,0 -0.01058,0.01058 -0.0071,0 -0.03528,0.03175 l -0.05645,0.05997 h -0.0071 q 0,0.01058 -0.01058,0.01058 0,0.0071 -0.0388,0.04233 H 12.03601 q -0.01411,0 -0.05644,-0.05292 l -0.1905,-0.186972 q -0.03175,-0.02822 -0.03175,-0.03528 0,-0.01058 -0.05292,-0.05997 L 11.5,15.936745 v -1.389941 q 0,-0.01058 0.0635,-0.06703 0,-0.0071 0.0071,-0.0071 0,-0.0071 0.186971,-0.194027 0,-0.0071 0.04233,-0.04939 z"
         id="path679" />
      <path
         d="m 14.248127,14.003527 h 0.694971 q 0.391582,0.36336 0.539749,0.543277 v 1.386413 l -0.539749,0.543277 h -0.694971 l -0.532693,-0.543277 v -1.386413 q 0.05292,-0.07761 0.532693,-0.543277 z m -0.176388,0.684387 v 1.104192 l 0.328082,0.3175 h 0.398638 l 0.3175,-0.3175 v -1.104192 l -0.3175,-0.328082 h -0.398638 z"
         id="path681" />
      <path
         d="m 15.94145,13.999999 h 1.552219 l 0.02117,0.02117 v 0.317499 l -0.02117,0.02117 h -1.213553 v 0.694971 h 1.030109 l 0.02117,0.02117 v 0.324555 l -0.02117,0.02117 h -1.030109 v 0.687915 h 1.213553 l 0.02117,0.01764 v 0.328082 l -0.02117,0.02117 H 15.94145 l -0.02117,-0.02117 V 14.02118 Z"
         id="path683" />
      <path
         d="m 18.040471,14.003527 h 1.548691 l 0.02117,0.02117 v 0.317499 l -0.02117,0.01764 h -1.213553 v 0.694971 h 1.040692 l 0.02117,0.02117 v 0.328083 l -0.02117,0.02117 h -1.040692 v 1.030109 l -0.01764,0.02117 H 18.04047 l -0.02117,-0.02117 v -2.430633 z"
         id="path685" />
      <path
         d="m 20.114798,14.003527 h 1.548691 l 0.02117,0.02117 v 0.317499 l -0.02117,0.01764 h -1.213553 v 0.694971 h 1.040692 l 0.02117,0.02117 v 0.328083 l -0.02117,0.02117 h -1.040692 v 1.030109 l -0.01764,0.02117 h -0.317499 l -0.02117,-0.02117 v -2.430633 z"
         id="path687" />
    </g>
    <g
       aria-label="SPLT"
       id="text473"
       style="font-size:3.52777px;font-family:'\' Mono Regular';-inkscape-font-specification:'\' Mono Regular, ';text-align:center;text-anchor:middle;stroke:#000000;stroke-width:0;stroke-linecap:round;stroke-miterlimit:0"
       transform="translate(-0.99999998)">
      <path
         d="m 11.99036,34.003526 h 0.793748 q 0.479777,0.465666 0.479777,0.49036 v 0.204611 l -0.01764,0.01764 h -0.317499 q -0.02117,0 -0.02117,-0.09172 L 12.63241,34.359834 H 12.131467 L 11.866884,34.635 v 0.155222 l 0.264583,0.264583 h 0.652637 l 0.479777,0.49036 v 0.437443 l -0.479777,0.49036 H 11.99036 L 11.5,35.982605 v -0.20461 l 0.02117,-0.01764 h 0.324554 q 0.02117,0 0.03175,0.09878 l 0.254,0.246944 h 0.500943 L 12.90758,35.841494 V 35.686273 L 12.632414,35.42169 H 11.99036 L 11.5,34.93133 v -0.437444 z"
         id="path690" />
      <path
         d="m 13.740133,34.007054 h 1.252358 q 0.416277,0.380999 0.49036,0.486832 v 0.440972 l -0.49036,0.486832 h -0.91722 v 1.030109 l -0.02117,0.02117 H 13.74013 l -0.02117,-0.02117 v -2.427106 z m 0.335138,0.356305 v 0.691443 h 0.776109 l 0.264583,-0.264583 V 34.638525 L 14.85138,34.363359 Z"
         id="path692" />
      <path
         d="m 15.930872,33.999998 h 0.3175 l 0.01764,0.02117 v 2.084912 h 1.20297 l 0.02117,0.02117 v 0.324555 l -0.02117,0.02117 h -1.538108 l -0.02117,-0.02117 v -2.430634 z"
         id="path694" />
      <path
         d="m 17.980504,33.999998 h 1.714497 l 0.02117,0.02117 v 0.317499 l -0.02117,0.01764 h -0.673805 v 2.095496 l -0.02117,0.02117 h -0.324555 l -0.02117,-0.02117 v -2.095496 h -0.673804 l -0.02117,-0.01764 v -0.317499 z"
         id="path696" />
    </g>
    <g
       aria-label="NOT1"
       id="text477"
       style="font-size:3.52777px;font-family:'\' Mono Regular';-inkscape-font-specification:'\' Mono Regular, ';text-align:center;text-anchor:middle;stroke:#000000;stroke-width:0;stroke-linecap:round;stroke-miterlimit:0"
       transform="translate(-0.99999998)">
      <path
         d="m 11.521166,53.999999 h 0.328083 q 0.208138,0.321027 1.04422,1.749774 h 0.0071 v -1.728607 l 0.02117,-0.02117 h 0.328083 l 0.02117,0.02117 v 2.434161 l -0.02117,0.02117 h -0.338666 q -0.08114,-0.109361 -1.04422,-1.760357 h -0.0071 v 1.73919 l -0.02117,0.02117 h -0.3175 L 11.5,56.455327 v -2.434161 z"
         id="path699" />
      <path
         d="m 14.234017,54.003527 h 0.69497 q 0.391583,0.36336 0.539749,0.543277 v 1.386413 l -0.539749,0.543277 h -0.69497 l -0.532694,-0.543277 v -1.386413 q 0.05292,-0.07761 0.532694,-0.543277 z m -0.176389,0.684387 v 1.104192 l 0.328083,0.3175 h 0.398638 l 0.317499,-0.3175 v -1.104192 l -0.317499,-0.328082 h -0.398638 z"
         id="path701" />
      <path
         d="m 15.927339,54.003527 h 1.714497 l 0.02117,0.02117 v 0.317499 l -0.02117,0.01764 h -0.673804 v 2.095495 l -0.02117,0.02117 H 16.62231 l -0.02117,-0.02117 v -2.095495 h -0.673805 l -0.02117,-0.01764 v -0.317499 z"
         id="path703" />
      <path
         d="m 18.575279,55.576912 h 0.215547 l 0.01376,0.01376 v 1.366658 h 0.334786 l 0.01376,0.01376 v 0.208668 l -0.01376,0.01147 h -0.898876 l -0.01376,-0.01147 V 56.97109 l 0.01376,-0.01376 H 18.5684 v -1.038752 l -0.132997,0.128411 h -0.194909 l -0.01376,-0.01376 v -0.107774 z"
         style="font-size:65%;baseline-shift:sub"
         id="path705" />
    </g>
    <g
       aria-label="NOT2"
       id="text483"
       style="font-size:3.52777px;font-family:'\' Mono Regular';-inkscape-font-specification:'\' Mono Regular, ';text-align:center;text-anchor:middle;stroke:#000000;stroke-width:0;stroke-linecap:round;stroke-miterlimit:0">
      <path
         d="m 30.521165,53.999999 h 0.328083 q 0.208138,0.321027 1.04422,1.749774 h 0.0071 v -1.728607 l 0.02117,-0.02117 h 0.328083 l 0.02117,0.02117 v 2.434161 l -0.02117,0.02117 h -0.338666 q -0.08114,-0.109361 -1.04422,-1.760357 h -0.0071 v 1.73919 l -0.02117,0.02117 h -0.3175 l -0.02117,-0.02117 v -2.434161 z"
         id="path708" />
      <path
         d="m 33.234016,54.003527 h 0.69497 q 0.391583,0.36336 0.539749,0.543277 v 1.386413 l -0.539749,0.543277 h -0.69497 l -0.532693,-0.543277 v -1.386413 q 0.05292,-0.07761 0.532693,-0.543277 z m -0.176389,0.684387 v 1.104192 l 0.328083,0.3175 h 0.398638 l 0.317499,-0.3175 V 54.687914 L 33.784348,54.359832 H 33.38571 Z"
         id="path710" />
      <path
         d="m 34.927339,54.003527 h 1.714496 l 0.02117,0.02117 v 0.317499 l -0.02117,0.01764 h -0.673804 v 2.095495 l -0.02117,0.02117 h -0.324555 l -0.02117,-0.02117 v -2.095495 h -0.673804 l -0.02117,-0.01764 v -0.317499 z"
         id="path712" />
      <path
         d="m 37.460626,55.574619 h 0.454024 l 0.34625,0.346251 v 0.327906 l -0.786516,0.699381 h 0.772758 l 0.01376,0.01376 v 0.206375 l -0.01376,0.01376 h -1.125888 l -0.01376,-0.01376 v -0.213254 l 0.919513,-0.807154 v -0.126118 l -0.213253,-0.213253 h -0.259115 q -0.144462,0.137583 -0.220133,0.233891 h -0.213254 l -0.01376,-0.01376 V 55.92087 Z"
         style="font-size:65%;baseline-shift:sub"
         id="path714" />
    </g>
    <g
       aria-label="CLK1"
       id="text489"
       style="font-size:3.52779px;font-family:'\' Mono Regular';-inkscape-font-specification:'\' Mono Regular, ';text-align:center;text-anchor:middle;stroke:#000000;stroke-width:0;stroke-linecap:round;stroke-miterlimit:0"
       transform="translate(-0.99999998)">
      <path
         d="m 12.029103,74.003971 h 0.705558 l 0.183445,0.186973 q 0.01764,0.01058 0.123472,0.127 0.123473,0.119945 0.123473,0.127001 l 0.09525,0.09525 v 0.176389 l -0.0071,0.0071 H 12.90395 q -0.0071,-0.0035 -0.0071,-0.01411 v -0.01058 l 0.0035,-0.01058 -0.07408,-0.07408 q 0,-0.0071 -0.0071,-0.0071 0,-0.0071 -0.01411,-0.01058 0,-0.0071 -0.0071,-0.0071 0,-0.0035 -0.02469,-0.02822 l -0.03881,-0.03528 q 0,-0.01058 -0.07056,-0.08114 0,-0.0071 -0.04233,-0.04233 0,-0.0071 -0.0071,-0.0071 0,-0.0071 -0.02469,-0.02822 v -0.0035 h -0.416279 q -0.09878,0.09878 -0.09878,0.105834 -0.04233,0.03881 -0.04233,0.04233 -0.0035,0 -0.02822,0.03528 l -0.141112,0.137584 v 1.107726 l 0.310446,0.313974 h 0.416279 q 0,-0.0071 0.02469,-0.02469 0,-0.0071 0.0071,-0.0071 0,-0.01058 0.04233,-0.04233 0,-0.0071 0.07056,-0.07408 0,-0.0071 0.01058,-0.0071 0,-0.01058 0.01058,-0.01058 0,-0.0035 0.14464,-0.148168 l -0.0035,-0.01058 v -0.01058 q 0,-0.01411 0.0071,-0.01411 h 0.349251 l 0.0071,0.0035 v 0.179918 l -0.127,0.127 h -0.0071 q 0,0.0071 -0.03175,0.03528 -0.09172,0.09878 -0.09878,0.09878 v 0.01411 q -0.03175,0.02822 -0.03175,0.03175 -0.01058,0 -0.01058,0.01058 -0.0071,0 -0.05645,0.05644 -0.0071,0 -0.0071,0.0071 -0.01058,0 -0.01058,0.01058 -0.0071,0 -0.03528,0.03175 l -0.05645,0.05997 h -0.0071 q 0,0.01058 -0.01058,0.01058 0,0.0071 -0.03881,0.04233 H 12.03593 q -0.01411,0 -0.05644,-0.05292 l -0.190501,-0.186973 q -0.03175,-0.02822 -0.03175,-0.03528 0,-0.01058 -0.05292,-0.05997 L 11.499934,75.9372 v -1.38995 q 0,-0.01058 0.0635,-0.06703 0,-0.0071 0.0071,-0.0071 0,-0.0071 0.186973,-0.194029 0,-0.0071 0.04233,-0.04939 z"
         id="path726" />
      <path
         d="m 13.736547,74.003971 h 0.317501 l 0.01764,0.02117 v 2.084923 h 1.202977 l 0.02117,0.02117 v 0.324557 l -0.02117,0.02117 h -1.538117 l -0.02117,-0.02117 v -2.430647 z"
         id="path728" />
      <path
         d="m 15.786191,74.000443 h 0.328084 l 0.01764,0.02117 v 1.033642 h 0.215195 q 0.09878,-0.162278 0.758475,-1.054809 h 0.419807 v 0.02117 q -0.705558,0.998364 -0.871364,1.206504 l 0.871364,1.227671 v 0.02117 H 17.105585 Q 16.445889,75.58443 16.34711,75.422151 h -0.215195 v 1.033643 l -0.01764,0.02117 h -0.328084 l -0.02117,-0.02117 V 74.02161 Z"
         id="path730" />
      <path
         d="m 18.420035,75.577368 h 0.215547 l 0.01376,0.01376 v 1.366664 h 0.334786 l 0.01376,0.01376 v 0.208669 l -0.01376,0.01147 h -0.898879 l -0.01376,-0.01147 v -0.208669 l 0.01376,-0.01376 h 0.327907 v -1.038756 l -0.132997,0.128411 h -0.19491 l -0.01376,-0.01376 v -0.107774 z"
         style="font-size:2.29306px;baseline-shift:sub"
         id="path732" />
    </g>
    <g
       aria-label="CLK2"
       id="text495"
       style="font-size:3.52777px;font-family:'\' Mono Regular';-inkscape-font-specification:'\' Mono Regular, ';text-align:center;text-anchor:middle;stroke:#000000;stroke-width:0;stroke-linecap:round;stroke-miterlimit:0">
      <path
         d="m 31.029167,74.003527 h 0.705554 l 0.183444,0.186972 q 0.01764,0.01058 0.123472,0.127 0.123472,0.119944 0.123472,0.126999 l 0.09525,0.09525 v 0.176389 l -0.0071,0.0071 h -0.349249 q -0.0071,-0.0035 -0.0071,-0.01411 v -0.01058 l 0.0035,-0.01058 -0.07408,-0.07408 q 0,-0.0071 -0.0071,-0.0071 0,-0.0071 -0.01411,-0.01058 0,-0.0071 -0.0071,-0.0071 0,-0.0035 -0.0247,-0.02822 l -0.0388,-0.03528 q 0,-0.01058 -0.07056,-0.08114 0,-0.0071 -0.04233,-0.04233 0,-0.0071 -0.0071,-0.0071 0,-0.0071 -0.0247,-0.02822 v -0.0035 h -0.416277 q -0.09878,0.09878 -0.09878,0.105833 -0.04233,0.0388 -0.04233,0.04233 -0.0035,0 -0.02822,0.03528 l -0.14111,0.137583 v 1.107719 l 0.310443,0.313972 h 0.416277 q 0,-0.0071 0.0247,-0.02469 0,-0.0071 0.0071,-0.0071 0,-0.01058 0.04233,-0.04233 0,-0.0071 0.07056,-0.07408 0,-0.0071 0.01058,-0.0071 0,-0.01058 0.01058,-0.01058 0,-0.0035 0.144639,-0.148167 l -0.0035,-0.01058 v -0.01058 q 0,-0.01411 0.0071,-0.01411 h 0.349249 l 0.0071,0.0035 v 0.179916 l -0.126999,0.127 h -0.0071 q 0,0.0071 -0.03175,0.03528 -0.09172,0.09878 -0.09878,0.09878 v 0.01411 q -0.03175,0.02822 -0.03175,0.03175 -0.01058,0 -0.01058,0.01058 -0.0071,0 -0.05645,0.05644 -0.0071,0 -0.0071,0.0071 -0.01058,0 -0.01058,0.01058 -0.0071,0 -0.03528,0.03175 l -0.05645,0.05997 h -0.0071 q 0,0.01058 -0.01058,0.01058 0,0.0071 -0.0388,0.04233 h -0.694971 q -0.01411,0 -0.05644,-0.05292 l -0.1905,-0.186972 q -0.03175,-0.02822 -0.03175,-0.03528 0,-0.01058 -0.05292,-0.05997 l -0.204611,-0.204611 v -1.389941 q 0,-0.01058 0.0635,-0.06703 0,-0.0071 0.0071,-0.0071 0,-0.0071 0.186971,-0.194027 0,-0.0071 0.04233,-0.04939 z"
         id="path717" />
      <path
         d="m 32.736602,74.003527 h 0.317499 l 0.01764,0.02117 v 2.084912 h 1.202969 l 0.02117,0.02117 v 0.324555 l -0.02117,0.02117 h -1.538107 l -0.02117,-0.02117 v -2.430633 z"
         id="path719" />
      <path
         d="m 34.786234,73.999999 h 0.328083 l 0.01764,0.02117 v 1.033637 h 0.215194 q 0.09878,-0.162278 0.758471,-1.054804 h 0.419805 v 0.02117 q -0.705554,0.998359 -0.87136,1.206497 l 0.87136,1.227664 v 0.02117 H 36.10562 q -0.659693,-0.892526 -0.758471,-1.054803 h -0.215194 v 1.033636 l -0.01764,0.02117 h -0.328083 l -0.02117,-0.02117 v -2.434161 z"
         id="path721" />
      <path
         d="m 37.305411,75.574619 h 0.454024 l 0.34625,0.346251 v 0.327906 l -0.786516,0.699381 h 0.772758 l 0.01376,0.01376 v 0.206375 l -0.01376,0.01376 h -1.125888 l -0.01376,-0.01376 v -0.213254 l 0.919513,-0.807154 V 76.021764 L 37.65854,75.808511 h -0.259114 q -0.144463,0.137583 -0.220133,0.233891 h -0.213254 l -0.01376,-0.01376 V 75.92087 Z"
         style="font-size:65%;baseline-shift:sub"
         id="path723" />
    </g>
    <g
       aria-label="1"
       id="text551"
       style="font-size:3.52777px;font-family:'\' Mono Regular';-inkscape-font-specification:'\' Mono Regular, ';text-align:center;text-anchor:middle;stroke:#000000;stroke-width:0;stroke-linecap:round;stroke-miterlimit:0">
      <path
         d="m 19.036221,91.999998 h 0.33161 l 0.02117,0.02117 v 2.102551 h 0.515054 l 0.02117,0.02117 v 0.321027 l -0.02117,0.01764 H 18.521166 L 18.5,94.465909 v -0.321027 l 0.02117,-0.02117 h 0.504472 v -1.59808 L 18.821027,92.72319 H 18.521166 L 18.5,92.702024 v -0.165805 z"
         id="path749" />
    </g>
    <g
       aria-label="2"
       id="text555"
       style="font-size:3.52777px;font-family:'\' Mono Regular';-inkscape-font-specification:'\' Mono Regular, ';text-align:center;text-anchor:middle;stroke:#000000;stroke-width:0;stroke-linecap:round;stroke-miterlimit:0">
      <path
         d="m 26.643276,92.000002 h 0.698499 l 0.532693,0.532694 v 0.504471 l -1.210025,1.07597 h 1.188858 l 0.02117,0.02117 v 0.317499 l -0.02117,0.02117 H 26.121166 L 26.1,94.451802 V 94.12372 l 1.414635,-1.241775 v -0.194028 l -0.328082,-0.328082 h -0.398638 q -0.22225,0.211666 -0.338666,0.359832 H 26.121166 L 26.1,92.698501 v -0.165805 z"
         id="path752" />
    </g>
    <g
       aria-label="XY"
       id="text559"
       style="font-size:3.52777px;font-family:'\' Mono Regular';-inkscape-font-specification:'\' Mono Regular, ';text-align:center;text-anchor:middle;stroke:#000000;stroke-width:0;stroke-linecap:round;stroke-miterlimit:0">
      <path
         d="m 32.999999,92.00353 h 0.388055 q 0.130527,0.201083 0.479777,0.867831 h 0.01058 q 0.349249,-0.666748 0.479777,-0.867831 h 0.388054 q -0.01058,0.06703 -0.673804,1.224136 0.673804,1.213553 0.673804,1.245303 h -0.388054 q -0.130528,-0.201083 -0.479777,-0.867831 h -0.01058 q -0.34925,0.666748 -0.479777,0.867831 h -0.388055 q 0.03175,-0.102305 0.663221,-1.234719 -0.624415,-1.132415 -0.663221,-1.23472 z"
         id="path755" />
      <path
         d="m 35.599962,92.000002 q 0.02822,0 0.49036,0.959554 h 0.01058 q 0.462138,-0.959554 0.49036,-0.959554 h 0.377471 l -0.69497,1.421692 v 1.030108 l -0.02117,0.02117 h -0.313971 l -0.02117,-0.02117 v -1.01247 q 0,-0.02822 -0.705554,-1.428746 l 0.01058,-0.01058 z"
         id="path757" />
    </g>
    <g
       aria-label="GATE"
       id="text563"
       style="font-size:3.52777px;font-family:'\' Mono Regular';-inkscape-font-specification:'\' Mono Regular, ';text-align:center;text-anchor:middle;stroke:#000000;stroke-width:0;stroke-linecap:round;stroke-miterlimit:0"
       transform="translate(0,-0.0235045)">
      <path
         d="m 6.6626125,97.530561 h 0.6843874 q 0.3915824,0.36336 0.5397488,0.539749 v 0.155222 l -0.017639,0.01764 H 7.5410272 Q 7.5022217,98.183198 7.2058891,97.886866 H 6.807251 l -0.3280826,0.328082 v 1.100665 L 6.807251,99.633112 H 7.2058891 L 7.5198606,99.315613 V 98.948725 H 7.022445 L 7.001278,98.927555 V 98.603 l 0.021167,-0.02117 h 0.8466648 l 0.017639,0.02117 v 0.857248 L 7.3469999,100 H 6.6626125 L 6.1228637,99.460251 V 98.07031 q 0.1128886,-0.144639 0.5397488,-0.539749 z"
         id="path735" />
      <path
         d="m 9.036797,97.527033 h 0.3280826 q 0.024694,0 0.03175,0.02822 l 0.4092213,0.814915 0.052917,0.109361 0.1164164,0.232833 0.042333,0.08114 q 0.03528,0.08114 0.07408,0.148166 v 1.054803 L 10.088072,100 H 9.7388232 l -0.00353,-0.0035 v -0.61386 l -0.00706,-0.0035 H 8.6946033 l -0.00353,0.01058 v 0.606776 L 8.6875477,100 H 8.3277152 l -0.00353,-0.0035 v -1.061859 q 0,-0.0071 0.010583,-0.0071 v -0.01764 q 0,-0.0035 0.010583,-0.0035 v -0.01411 l 0.00706,-0.0071 q 0,-0.02117 0.010583,-0.02117 v -0.01058 l 0.014111,-0.01411 q 0,-0.01058 0.00706,-0.01764 0,-0.01764 0.010583,-0.01764 v -0.01411 q 0,-0.0071 0.010583,-0.0071 v -0.01411 l 0.010583,-0.0071 q 0,-0.01764 0.00706,-0.01764 v -0.01411 l 0.014111,-0.01058 q 0,-0.01411 0.010583,-0.02117 0,-0.01764 0.010583,-0.01764 v -0.01411 q 0,-0.0035 0.00706,-0.0035 v -0.01764 l 0.010583,-0.0071 q 0,-0.01764 0.010583,-0.01764 v -0.01411 l 0.010583,-0.01058 q 0,-0.01411 0.010583,-0.02117 0,-0.01764 0.010583,-0.01764 v -0.01411 q 0,-0.0035 0.010583,-0.0035 v -0.01411 l 0.00706,-0.0071 q 0,-0.02117 0.010583,-0.02117 v -0.01058 l 0.014111,-0.01411 q 0,-0.01411 0.00706,-0.01764 0,-0.01764 0.010583,-0.01764 v -0.01411 q 0.010583,-0.0071 0.010583,-0.02469 0.010583,0 0.014111,-0.02117 l 0.00706,-0.0035 v -0.01058 l 0.010583,-0.01411 q 0,-0.01058 0.010583,-0.01764 0,-0.01764 0.010583,-0.01764 v -0.01411 q 0.00706,-0.0071 0.00706,-0.02117 0.010583,0 0.014111,-0.02469 h 0.00706 v -0.01411 l 0.010583,-0.01058 q 0,-0.01411 0.010583,-0.02117 0,-0.01764 0.010583,-0.01764 v -0.01411 q 0.010583,-0.0071 0.010583,-0.02117 0.00706,0 0.010583,-0.02117 l 0.00706,-0.0035 v -0.01411 l 0.014111,-0.01058 q 0,-0.01411 0.010583,-0.02117 0,-0.01764 0.00706,-0.01764 v -0.01411 q 0.010583,-0.0035 0.010583,-0.02117 0.010583,0 0.014111,-0.02117 l 0.00706,-0.0035 v -0.01058 l 0.010583,-0.01411 q 0,-0.01411 0.010583,-0.01764 0,-0.01764 0.010583,-0.01764 v -0.01411 q 0.010583,-0.0071 0.010583,-0.02469 0.00706,0 0.010583,-0.02117 l 0.00706,-0.0035 v -0.01058 l 0.014111,-0.01411 q 0,-0.01058 0.00706,-0.01764 0,-0.01764 0.010583,-0.01764 v -0.01411 q 0,-0.0071 0.010583,-0.0071 v -0.01411 l 0.010583,-0.0071 q 0,-0.01764 0.00706,-0.01764 v -0.01411 l 0.014111,-0.01058 q 0,-0.01411 0.010583,-0.02117 0,-0.01764 0.00706,-0.01764 v -0.01411 q 0.010583,-0.0071 0.010583,-0.02117 0.010583,0 0.014111,-0.02117 l 0.00706,-0.0035 v -0.01411 q 0.010583,-0.0071 0.010583,-0.02469 0.010583,0 0.014111,-0.02117 l 0.00706,-0.0035 v -0.01411 q 0.010583,-0.0035 0.010583,-0.02117 z m 0.1658051,0.462138 v 0.0071 0.0071 q -0.010583,0.0071 -0.010583,0.01411 l 0.00353,0.0071 q -0.014111,0 -0.014111,0.02117 l -0.010583,0.0071 v 0.01411 q 0,0.0035 -0.00706,0.0035 v 0.01411 l -0.00706,0.0071 q -0.00353,0 -0.00706,0.01764 -0.00706,0 -0.010583,0.02117 -0.00706,0.0035 -0.00706,0.01058 v 0.0071 q -0.010583,0 -0.010583,0.02117 l -0.010583,0.0035 v 0.01764 q 0,0.0035 -0.010583,0.0035 v 0.01411 l -0.00353,0.0035 q -0.00706,0 -0.00706,0.02117 -0.010583,0 -0.010583,0.02117 -0.00706,0 -0.010583,0.0071 l 0.00353,0.0071 q -0.014111,0 -0.014111,0.02469 l -0.00706,0.0035 v 0.01411 q 0,0.0071 -0.010583,0.0071 v 0.01411 l -0.00353,0.0035 q -0.00706,0 -0.010583,0.02117 -0.00706,0 -0.00706,0.01764 -0.010583,0.0035 -0.010583,0.01058 l 0.00353,0.0071 q -0.014111,0 -0.014111,0.02117 l -0.010583,0.0071 v 0.01411 q 0,0.0035 -0.00706,0.0035 v 0.01764 l -0.00706,0.0035 q -0.00353,0 -0.00706,0.02117 -0.00706,0 -0.010583,0.01764 -0.00706,0.0035 -0.010583,0.01058 l 0.00353,0.0071 q -0.010583,0 -0.010583,0.02117 l -0.010583,0.0071 v 0.01411 q 0,0.0035 -0.010583,0.0035 v 0.01411 l -0.00353,0.0071 q -0.00706,0 -0.00706,0.01764 -0.010583,0 -0.010583,0.02117 -0.00706,0 -0.010583,0.01058 l 0.00353,0.0071 q -0.014111,0 -0.014111,0.02117 l -0.00706,0.0035 v 0.01411 q 0,0.0071 -0.010583,0.0071 v 0.01411 l -0.00706,0.0035 q -0.00353,0 -0.00706,0.02117 -0.00706,0 -0.00706,0.02117 -0.010583,0 -0.010583,0.0071 v 0.0071 q -0.010583,0 -0.010583,0.02469 l -0.010583,0.0035 v 0.01411 q 0,0.0071 -0.010583,0.0071 v 0.01411 q 0,0.0035 -0.00706,0.0035 -0.00353,0.02117 -0.010583,0.02117 0,0.02117 -0.014111,0.0247 l 0.00353,0.0035 v 0.0035 q -0.010583,0.01058 -0.010583,0.02469 0,0.0071 -0.010583,0.0071 v 0.01411 q 0,0.0035 -0.010583,0.0035 v 0.01764 q 0,0.0035 -0.00706,0.0035 -0.00353,0.02117 -0.014111,0.02117 0,0.02117 -0.010583,0.02469 l 0.00353,0.0035 v 0.0035 l -0.014111,0.01411 0.00706,0.0035 h 1.0195256 l 0.00706,-0.0071 q 0,-0.01058 -0.014111,-0.02117 v -0.01058 q -0.00706,0 -0.00706,-0.02117 -0.010583,0 -0.014111,-0.02117 -0.00706,0 -0.00706,-0.0035 v -0.01411 q -0.010583,0 -0.010583,-0.02117 -0.010583,-0.0035 -0.010583,-0.01058 v 0 -0.0035 l -0.010583,-0.01411 v -0.01411 q -0.010583,0 -0.014111,-0.02117 -0.00706,0 -0.00706,-0.01764 -0.00706,0 -0.010583,-0.02117 -0.00706,0 -0.00706,-0.02117 -0.010583,-0.0035 -0.014111,-0.01058 h 0.00353 v -0.0035 l -0.010583,-0.01411 v -0.01411 q -0.010583,0 -0.010583,-0.01764 -0.010583,0 -0.014111,-0.02117 -0.00706,0 -0.00706,-0.0071 v -0.01411 q -0.010583,0 -0.010583,-0.01764 l -0.010583,-0.01058 0.00353,-0.0035 v -0.0035 l -0.014048,-0.0145 v -0.01058 q -0.010583,0 -0.010583,-0.02469 -0.00706,0 -0.00706,-0.01411 -0.010583,0 -0.014111,-0.02469 -0.00706,0 -0.00706,-0.01764 Q 9.47776,98.52536 9.47776,98.52188 v -0.0035 0 L 9.467177,98.50074 v -0.01058 q -0.010583,0 -0.010583,-0.02117 -0.010583,0 -0.010583,-0.02117 -0.010583,0 -0.010583,-0.0035 v -0.01411 q -0.00706,0 -0.00706,-0.02117 -0.010583,-0.0035 -0.014111,-0.01058 h 0.00353 v -0.0035 L 9.403676,98.38085 v -0.01411 q -0.00706,0 -0.00706,-0.01764 -0.010583,0 -0.014111,-0.02469 -0.00706,0 -0.00706,-0.0035 V 98.3068 q -0.010583,0 -0.010583,-0.02117 -0.010583,-0.0035 -0.010583,-0.0071 l 0.00353,-0.0035 v -0.0035 L 9.343698,98.25742 v -0.01411 q -0.010583,0 -0.010583,-0.01764 -0.00706,0 -0.010583,-0.02117 -0.00706,0 -0.00706,-0.0071 v -0.01411 q -0.010583,0 -0.010583,-0.01764 -0.010583,-0.0071 -0.014111,-0.01058 l 0.00353,-0.0035 v -0.0035 L 9.283725,98.13396 v -0.01058 q -0.010583,0 -0.010583,-0.02117 -0.010583,0 -0.014111,-0.02117 -0.00706,0 -0.00706,-0.0035 V 98.0599 q -0.00706,0 -0.00706,-0.01764 Q 9.2308,98.03516 9.2308,98.03168 l 0.00353,-0.0035 v 0 L 9.220219,98.01054 v -0.01058 q -0.00353,0 -0.014111,-0.01058 z"
         id="path737" />
      <path
         d="m 10.539626,97.527033 h 1.714496 l 0.02117,0.02117 v 0.317499 l -0.02117,0.01764 h -0.673804 v 2.095495 L 11.559151,100 h -0.324554 l -0.02117,-0.02117 v -2.095495 h -0.673804 l -0.02117,-0.01764 V 97.5482 Z"
         id="path739" />
      <path
         d="m 12.74095,97.523505 h 1.552219 l 0.02117,0.02117 v 0.317499 l -0.02117,0.02117 h -1.213553 v 0.694971 h 1.030109 l 0.02117,0.02117 v 0.324555 l -0.02117,0.02117 h -1.030109 v 0.687915 h 1.213553 l 0.02117,0.01764 v 0.328082 L 14.293169,100 H 12.74095 l -0.02117,-0.02117 v -2.434161 z"
         id="path741" />
    </g>
    <g
       aria-label="CV"
       id="text567"
       style="font-size:3.52777px;font-family:'\' Mono Regular';-inkscape-font-specification:'\' Mono Regular, ';text-align:center;text-anchor:middle;stroke:#000000;stroke-width:0;stroke-linecap:round;stroke-miterlimit:0"
       transform="translate(0,-0.0235045)">
      <path
         d="m 10.84819,105.524 h 0.705554 l 0.183444,0.18697 q 0.01764,0.0106 0.123472,0.127 0.123472,0.11994 0.123472,0.127 l 0.09525,0.0953 v 0.17639 l -0.0071,0.007 h -0.349249 q -0.0071,-0.004 -0.0071,-0.0141 v -0.0106 l 0.0035,-0.0106 -0.07408,-0.0741 q 0,-0.007 -0.0071,-0.007 0,-0.007 -0.01411,-0.0106 0,-0.007 -0.0071,-0.007 0,-0.004 -0.02469,-0.0282 l -0.03881,-0.0353 q 0,-0.0106 -0.07056,-0.0811 0,-0.007 -0.04233,-0.0423 0,-0.007 -0.0071,-0.007 0,-0.007 -0.02469,-0.0282 v -0.004 h -0.416277 q -0.09878,0.0988 -0.09878,0.10583 -0.04233,0.0388 -0.04233,0.0423 -0.0035,0 -0.02822,0.0353 l -0.141111,0.13759 v 1.10772 l 0.310444,0.31397 h 0.416277 q 0,-0.007 0.02469,-0.0247 0,-0.007 0.0071,-0.007 0,-0.0106 0.04233,-0.0423 0,-0.007 0.07056,-0.0741 0,-0.007 0.01058,-0.007 0,-0.0106 0.01058,-0.0106 0,-0.004 0.144638,-0.14816 l -0.0035,-0.0106 v -0.0106 q 0,-0.0141 0.0071,-0.0141 h 0.349249 l 0.0071,0.004 v 0.17991 l -0.127,0.127 h -0.0071 q 0,0.007 -0.03175,0.0353 -0.09172,0.0988 -0.09878,0.0988 v 0.0141 q -0.03175,0.0282 -0.03175,0.0318 -0.01058,0 -0.01058,0.0106 -0.0071,0 -0.05645,0.0564 -0.0071,0 -0.0071,0.007 -0.01058,0 -0.01058,0.0106 -0.0071,0 -0.03528,0.0317 l -0.05644,0.06 h -0.0071 q 0,0.0106 -0.01058,0.0106 0,0.007 -0.03881,0.0423 h -0.69497 q -0.01411,0 -0.05645,-0.0529 l -0.190499,-0.18697 q -0.03175,-0.0282 -0.03175,-0.0353 0,-0.0106 -0.05292,-0.06 l -0.20461,-0.20462 v -1.38994 q 0,-0.0106 0.0635,-0.067 0,-0.007 0.0071,-0.007 0,-0.007 0.186972,-0.19403 0,-0.007 0.04233,-0.0494 z"
         id="path744" />
      <path
         d="m 12.555625,105.524 h 0.317499 l 0.01764,0.0212 v 0.92781 q 0,0.0318 0.52211,1.06538 h 0.01058 q 0.472722,-0.94897 0.511527,-1.06538 v -0.92781 l 0.02117,-0.0212 h 0.324555 l 0.02117,0.0212 v 1.01247 q -0.691443,1.43933 -0.72672,1.43933 h -0.324555 q -0.03528,0 -0.716138,-1.43227 v -1.01953 z"
         id="path746" />
    </g>
  </g>
  <g
     inkscape:groupmode="layer"
     id="layer2"
     inkscape:label="components"
     style="display:none">
    <circle
       cx="6"
       cy="76"
       fill="#00ff00"
       id="clock1_in"
       style="display:inline;fill:#00ff00;fill-opacity:1;stroke:#ff0000;stroke-width:0;stroke-dasharray:none;stroke-opacity:1"
       inkscape:label="clock1"
       r="0.79374987mm" />
    <circle
       cx="35"
       cy="99"
       fill="#0000ff"
       id="gate_poly_out"
       style="display:inline;fill:#0007ff;fill-opacity:1;stroke:#ff0000;stroke-width:0;stroke-dasharray:none;stroke-opacity:1"
       inkscape:label="gate_poly"
       r="0.79374987mm" />
    <circle
       cx="19"
       cy="99"
       fill="#0000ff"
       id="cv1_out"
       style="display:inline;fill:#0007ff;fill-opacity:1;stroke:#ff0000;stroke-width:0;stroke-dasharray:none;stroke-opacity:1"
       inkscape:label="gate1"
       r="0.79374987mm" />
    <circle
       cx="13"
       cy="63"
       fill="#ff0000"
       id="not1"
       style="display:inline;stroke:#ff0000;stroke-width:0;stroke-dasharray:none;stroke-opacity:1"
       inkscape:label="not1"
       r="1.3229166mm" />
    <circle
       cx="6"
       cy="56"
       fill="#00ff00"
       id="not1_in"
       style="display:inline;fill:#00ff00;fill-opacity:1;stroke:#ff0000;stroke-width:0;stroke-dasharray:none;stroke-opacity:1"
       inkscape:label="not1"
       r="0.79374987mm" />
    <circle
       cx="19"
       cy="107"
       fill="#0000ff"
       id="gate1_out"
       style="display:inline;fill:#0007ff;fill-opacity:1;stroke:#ff0000;stroke-width:0;stroke-dasharray:none;stroke-opacity:1"
       inkscape:label="cv1"
       r="0.79374987mm" />
    <circle
       cx="13"
       cy="43"
       fill="#ff0000"
       id="split"
       style="display:inline;stroke:#ff0000;stroke-width:0;stroke-dasharray:none;stroke-opacity:1"
       inkscape:label="split"
       r="1.3229166mm" />
    <circle
       cx="6"
       cy="36"
       fill="#00ff00"
       id="split_in"
       style="display:inline;fill:#00ff00;fill-opacity:1;stroke:#ff0000;stroke-width:0;stroke-dasharray:none;stroke-opacity:1"
       inkscape:label="split"
       r="0.79374987mm" />
    <circle
       cx="33"
       cy="63.000008"
       fill="#ff0000"
       id="not2"
       style="display:inline;stroke:#ff0000;stroke-width:0;stroke-dasharray:none;stroke-opacity:1"
       inkscape:label="not2"
       r="1.3229166mm" />
    <circle
       cx="26"
       cy="56"
       fill="#00ff00"
       id="not2_in"
       style="display:inline;fill:#00ff00;fill-opacity:1;stroke:#ff0000;stroke-width:0;stroke-dasharray:none;stroke-opacity:1"
       inkscape:label="not2"
       r="0.79374987mm" />
    <circle
       cx="26"
       cy="76"
       fill="#00ff00"
       id="clock2_in"
       style="display:inline;fill:#00ff00;fill-opacity:1;stroke:#ff0000;stroke-width:0;stroke-dasharray:none;stroke-opacity:1"
       inkscape:label="clock2"
       r="0.79374987mm" />
    <circle
       cx="35"
       cy="107"
       fill="#0000ff"
       id="cv_poly_out"
       style="display:inline;fill:#0007ff;fill-opacity:1;stroke:#ff0000;stroke-width:0;stroke-dasharray:none;stroke-opacity:1"
       inkscape:label="cv_poly"
       r="0.79374987mm" />
    <circle
       cx="27"
       cy="107"
       fill="#0000ff"
       id="cv2_out"
       style="display:inline;fill:#0007ff;fill-opacity:1;stroke:#ff0000;stroke-width:0;stroke-dasharray:none;stroke-opacity:1"
       inkscape:label="cv2"
       r="0.79374987mm" />
    <circle
       cx="27"
       cy="99"
       fill="#0000ff"
       id="gate2_out"
       style="display:inline;fill:#0007ff;fill-opacity:1;stroke:#ff0000;stroke-width:0;stroke-dasharray:none;stroke-opacity:1"
       inkscape:label="gate2"
       r="0.79374987mm" />
    <circle
       id="a1"
       inkscape:label="a1"
       fill="#ff0000"
       cx="28"
       cy="16.999998"
       r="2"
       style="fill:#ff0000;stroke-width:0" />
    <circle
       id="a0"
       inkscape:label="a0"
       fill="#ff0000"
       cx="24"
       cy="16.999998"
       r="2"
       style="fill:#ff0000;stroke-width:0" />
    <circle
       id="a3"
       inkscape:label="a3"
       fill="#ff0000"
       cx="36"
       cy="16.999998"
       r="2"
       style="fill:#ff0000;stroke-width:0" />
    <circle
       id="a2"
       inkscape:label="a2"
       fill="#ff0000"
       cx="32"
       cy="16.999998"
       r="2"
       style="fill:#ff0000;stroke-width:0" />
    <circle
       id="a5"
       inkscape:label="a5"
       fill="#ff0000"
       cx="28"
       cy="21"
       r="2"
       style="fill:#ff0000;stroke-width:0" />
    <circle
       id="a4"
       inkscape:label="a4"
       fill="#ff0000"
       cx="24"
       cy="21"
       r="2"
       style="fill:#ff0000;stroke-width:0" />
    <circle
       id="a7"
       inkscape:label="a7"
       fill="#ff0000"
       cx="36"
       cy="21"
       r="2"
       style="fill:#ff0000;stroke-width:0" />
    <circle
       id="a6"
       inkscape:label="a6"
       fill="#ff0000"
       cx="32"
       cy="21"
       r="2"
       style="fill:#ff0000;stroke-width:0" />
    <circle
       id="a9"
       inkscape:label="a9"
       fill="#ff0000"
       cx="28"
       cy="25"
       r="2"
       style="fill:#ff0000;stroke-width:0" />
    <circle
       id="a8"
       inkscape:label="a8"
       fill="#ff0000"
       cx="24"
       cy="25"
       r="2"
       style="fill:#ff0000;stroke-width:0" />
    <circle
       id="a11"
       inkscape:label="a11"
       fill="#ff0000"
       cx="36"
       cy="25"
       r="2"
       style="fill:#ff0000;stroke-width:0" />
    <circle
       id="a10"
       inkscape:label="a10"
       fill="#ff0000"
       cx="32"
       cy="25"
       r="2"
       style="fill:#ff0000;stroke-width:0" />
    <circle
       id="a13"
       inkscape:label="a13"
       fill="#ff0000"
       cx="28"
       cy="29.000002"
       r="2"
       style="fill:#ff0000;stroke-width:0" />
    <circle
       id="a12"
       inkscape:label="a12"
       fill="#ff0000"
       cx="24"
       cy="29.000002"
       r="2"
       style="fill:#ff0000;stroke-width:0" />
    <circle
       id="a15"
       inkscape:label="a15"
       fill="#ff0000"
       cx="36"
       cy="29.000002"
       r="2"
       style="fill:#ff0000;stroke-width:0" />
    <circle
       id="a14"
       inkscape:label="a14"
       fill="#ff0000"
       cx="32"
       cy="29.000002"
       r="2"
       style="fill:#ff0000;stroke-width:0" />
    <circle
       style="display:inline;fill:#ff00ff;fill-opacity:1;stroke-width:0;stroke-dasharray:none"
       id="x0"
       cx="24"
       cy="35"
       inkscape:label="x0"
       r="2" />
    <circle
       style="display:inline;fill:#ff00ff;fill-opacity:1;stroke-width:0;stroke-dasharray:none"
       id="x1"
       cx="28"
       cy="35"
       inkscape:label="x1"
       r="2" />
    <circle
       style="display:inline;fill:#ff00ff;fill-opacity:1;stroke-width:0;stroke-dasharray:none"
       id="x2"
       cx="32"
       cy="35"
       inkscape:label="x2"
       r="2" />
    <circle
       style="display:inline;fill:#ff00ff;fill-opacity:1;stroke-width:0;stroke-dasharray:none"
       id="x3"
       cx="36"
       cy="35"
       inkscape:label="x3"
       r="2" />
    <circle
       style="display:inline;fill:#ff00ff;fill-opacity:1;stroke-width:0;stroke-dasharray:none"
       id="x4"
       cx="24"
       cy="39"
       inkscape:label="x4"
       r="2" />
    <circle
       style="display:inline;fill:#ff00ff;fill-opacity:1;stroke-width:0;stroke-dasharray:none"
       id="x5"
       cx="28"
       cy="39"
       inkscape:label="x5"
       r="2" />
    <circle
       style="display:inline;fill:#ff00ff;fill-opacity:1;stroke-width:0;stroke-dasharray:none"
       id="x6"
       cx="32"
       cy="39"
       inkscape:label="x6"
       r="2" />
    <circle
       style="display:inline;fill:#ff00ff;fill-opacity:1;stroke-width:0;stroke-dasharray:none"
       id="x7"
       cx="36"
       cy="39"
       inkscape:label="x7"
       r="2" />
    <circle
       style="display:inline;fill:#ff00ff;fill-opacity:1;stroke-width:0;stroke-dasharray:none"
       id="x8"
       cx="24"
       cy="43"
       inkscape:label="x8"
       r="2" />
    <circle
       style="display:inline;fill:#ff00ff;fill-opacity:1;stroke-width:0;stroke-dasharray:none"
       id="x9"
       cx="28"
       cy="43"
       inkscape:label="x9"
       r="2" />
    <circle
       style="display:inline;fill:#ff00ff;fill-opacity:1;stroke-width:0;stroke-dasharray:none"
       id="x10"
       cx="32"
       cy="43"
       inkscape:label="x10"
       r="2" />
    <circle
       style="display:inline;fill:#ff00ff;fill-opacity:1;stroke-width:0;stroke-dasharray:none"
       id="x11"
       cx="36"
       cy="43"
       inkscape:label="x11"
       r="2" />
    <circle
       style="display:inline;fill:#ff00ff;fill-opacity:1;stroke-width:0;stroke-dasharray:none"
       id="x12"
       cx="24"
       cy="47"
       inkscape:label="x12"
       r="2" />
    <circle
       style="display:inline;fill:#ff00ff;fill-opacity:1;stroke-width:0;stroke-dasharray:none"
       id="x13"
       cx="28"
       cy="47"
       inkscape:label="x13"
       r="2" />
    <circle
       style="display:inline;fill:#ff00ff;fill-opacity:1;stroke-width:0;stroke-dasharray:none"
       id="x14"
       cx="32"
       cy="47"
       inkscape:label="x14"
       r="2" />
    <circle
       style="display:inline;fill:#ff00ff;fill-opacity:1;stroke-width:0;stroke-dasharray:none"
       id="x15"
       cx="36"
       cy="47"
       inkscape:label="x15"
       r="2" />
    <circle
       cx="13"
       cy="23"
       fill="#ff0000"
       id="as"
       style="display:inline;stroke:#ff0000;stroke-width:0;stroke-dasharray:none;stroke-opacity:1"
       inkscape:label="as"
       r="1.3229166mm" />
    <circle
       cx="6"
       cy="16"
       fill="#00ff00"
       id="as_in"
       style="display:inline;fill:#00ff00;fill-opacity:1;stroke:#ff0000;stroke-width:0;stroke-dasharray:none;stroke-opacity:1"
       inkscape:label="as"
       r="0.79374987mm" />
  </g>
</svg>
