<?xml version="1.0" encoding="UTF-8" standalone="no"?>
<!-- Created with Inkscape (http://www.inkscape.org/) -->

<svg
   width="20.32mm"
   height="128.5mm"
   viewBox="0 0 20.32 128.5"
   version="1.1"
   id="svg470"
   inkscape:version="1.2.2 (b0a8486, 2022-12-01)"
   sodipodi:docname="LogisticScratch.svg"
   xmlns:inkscape="http://www.inkscape.org/namespaces/inkscape"
   xmlns:sodipodi="http://sodipodi.sourceforge.net/DTD/sodipodi-0.dtd"
   xmlns="http://www.w3.org/2000/svg"
   xmlns:svg="http://www.w3.org/2000/svg">
  <sodipodi:namedview
     id="namedview472"
     pagecolor="#ffffff"
     bordercolor="#666666"
     borderopacity="1.0"
     inkscape:pageshadow="2"
     inkscape:pageopacity="1"
     inkscape:pagecheckerboard="false"
     inkscape:document-units="mm"
     showgrid="true"
     width="40.64mm"
     inkscape:zoom="1.8"
     inkscape:cx="-55.277778"
     inkscape:cy="224.16667"
     inkscape:window-width="1920"
     inkscape:window-height="1019"
     inkscape:window-x="0"
     inkscape:window-y="0"
     inkscape:window-maximized="1"
     inkscape:current-layer="layer1"
     objecttolerance="20"
     guidetolerance="10000"
     showguides="true"
     inkscape:showpageshadow="2"
     inkscape:deskcolor="#d1d1d1"
     showborder="true"
     borderlayer="false">
    <inkscape:grid
       type="xygrid"
       id="grid1902"
       units="mm"
       dotted="false"
       originx="0"
       originy="0"
       spacingx="1"
       spacingy="1"
       snapvisiblegridlinesonly="false"
       visible="true"
       empspacing="10" />
  </sodipodi:namedview>
  <defs
     id="defs467" />
  <g
     inkscape:label="panel"
     inkscape:groupmode="layer"
     id="layer1"
     style="display:inline">
    <rect
       style="display:inline;fill:#b6b6b6;fill-opacity:1;stroke-width:0;stroke-dasharray:none"
       id="rect981"
       width="20.32"
       height="128.5"
       x="0"
       y="-5.5511151e-17" />
    <path
       style="fill:#000000;fill-opacity:1;stroke:#000000;stroke-width:0.25;stroke-linecap:butt;stroke-linejoin:miter;stroke-dasharray:none;stroke-opacity:1"
       d="M 20.32,90.125 C 0,90.125 0,90.125 0,90.125"
       id="path433" />
    <path
       style="display:inline;fill:#000000;fill-opacity:1;stroke-width:0.256427"
       d="m 0.020909,128.11321 c -0.01947,-0.43943 0.0037,-0.47061 0.338397,-0.45465 0.29635,0.0141 0.309141,0.0266 0.073,0.0707 -0.208021,0.0389 -0.300546,0.16322 -0.338397,0.45465 -0.05005,0.38539 -0.05291,0.38261 -0.073,-0.0707 z m 0.719441,0.18872 c 0.04399,-0.16811 0.174006,-0.28307 0.320145,-0.28307 0.135341,0 0.246076,-0.0566 0.246076,-0.12582 0,-0.0692 -0.07961,-0.1258 -0.176908,-0.1258 -0.0973,0 -0.333881,-0.14008 -0.525738,-0.31128 -0.191858,-0.17122 -0.376831,-0.31276 -0.411051,-0.31454 -0.03422,-0.002 -0.06222,-0.0315 -0.06222,-0.0661 v -0.15049 c 0,-0.0482 0.191086,0.0854 0.424635,0.29669 0.28677,0.25952 0.791418,0.49218 1.554347,0.71662 1.36393,0.40126 1.538638,0.41059 1.512834,0.0808 -0.01413,-0.18064 -0.08531,-0.23154 -0.252371,-0.18048 -0.182251,0.0557 -0.213404,0.0216 -0.143719,-0.15728 0.078,-0.20023 0.06198,-0.20727 -0.129815,-0.0571 -0.286281,0.22419 -0.63244,0.0963 -0.535887,-0.19802 0.07007,-0.21359 0.06429,-0.21383 -0.114599,-0.005 -0.240669,0.28125 -0.355568,0.27936 -0.355568,-0.006 0,-0.16456 0.0977,-0.22391 0.359306,-0.2183 0.281234,0.006 0.349685,0.0605 0.315027,0.2507 -0.03728,0.20457 -0.01285,0.21786 0.154577,0.0841 0.276681,-0.2211 0.869631,0.15451 0.869631,0.55087 0,0.4159 -0.279397,0.45839 -1.127403,0.17139 l -0.751177,-0.25422 -0.233718,0.29253 c -0.128546,0.1609 -0.235026,0.22511 -0.236624,0.1427 -0.0016,-0.0824 0.05589,-0.18482 0.127753,-0.22759 0.07186,-0.0428 0.130657,-0.12982 0.130657,-0.19344 0,-0.15436 -0.677115,0.14002 -0.875438,0.38062 -0.131328,0.1593 -0.144782,0.14422 -0.08276,-0.0928 z m 0.728455,-1.05307 c -0.395525,-0.24389 -0.419761,-0.24597 -0.341665,-0.0293 0.05169,0.1434 -0.11092,0.0512 -0.422297,-0.23948 -0.418518,-0.39067 -0.48143,-0.51071 -0.362671,-0.69194 0.127292,-0.19426 0.339562,-0.21422 1.860611,-0.17495 1.480347,0.0383 1.716928,0.0175 1.716928,-0.14984 0,-0.10679 -0.05687,-0.228 -0.126378,-0.26937 -0.06951,-0.0413 -0.09212,-0.24013 -0.05025,-0.44171 0.06512,-0.31352 0.0294,-0.37779 -0.247038,-0.44461 -0.181515,-0.0439 -0.536684,0.008 -0.810304,0.11789 -0.430836,0.17333 -0.509568,0.1744 -0.681173,0.009 -0.255249,-0.24578 -0.349892,-0.23609 -0.632668,0.0648 -0.130068,0.13838 -0.300869,0.25074 -0.379558,0.24968 -0.07869,-8e-4 -0.05488,-0.0568 0.05291,-0.12388 0.153292,-0.0954 0.119393,-0.12237 -0.15561,-0.12388 -0.193378,-8e-4 -0.387934,0.0547 -0.432347,0.12388 -0.04442,0.0692 0.02562,0.12782 0.155611,0.13026 0.18812,0.004 0.169695,0.0412 -0.09028,0.18426 -0.439855,0.24211 -0.593236,0.23375 -0.375306,-0.0204 0.139799,-0.16308 0.143325,-0.22083 0.016,-0.26211 C 0.073495,125.12815 0,125.04909 0,124.98158 c 0,-0.0675 0.05833,-0.0881 0.129622,-0.0456 0.07129,0.0424 0.225832,0.0253 0.343421,-0.0381 0.259241,-0.13969 0.01332,-0.33763 -0.283314,-0.22802 C 0.085378,124.70841 0,124.68512 0,124.6181 c 0,-0.17947 0.435307,-0.14817 0.71922,0.0517 0.183224,0.129 0.341665,0.14166 0.616955,0.0493 0.259143,-0.087 0.483396,-0.0793 0.746508,0.0257 0.284036,0.11329 0.444434,0.11479 0.655299,0.006 0.153563,-0.0791 0.467573,-0.12633 0.697802,-0.10489 0.368298,0.0343 0.419616,0.0851 0.427064,0.42217 0.0046,0.21076 0.04992,0.44777 0.100572,0.52669 0.08389,0.13071 0.01055,1.15567 -0.08961,1.25209 -0.02331,0.0224 -0.22473,-0.0204 -0.4476,-0.0952 -0.299498,-0.10053 -0.383861,-0.19094 -0.323365,-0.34654 0.07129,-0.18337 0.05341,-0.18825 -0.1386,-0.0378 -0.178145,0.13953 -0.220449,0.14095 -0.220449,0.007 0,-0.10063 -0.07503,-0.0697 -0.19183,0.0789 -0.105508,0.13433 -0.193701,0.19977 -0.195986,0.14544 -0.0023,-0.0543 -0.118886,-0.0396 -0.259111,0.0326 -0.186975,0.0964 -0.241768,0.23171 -0.2055,0.50767 0.0272,0.20695 0.03904,0.37531 0.0263,0.37415 -0.01274,-8e-4 -0.214726,-0.12025 -0.448872,-0.26463 z m 0.360394,-0.11066 c 0,-0.0692 -0.02593,-0.12581 -0.05762,-0.12581 -0.03169,0 -0.09396,0.0566 -0.138367,0.12581 -0.04441,0.0692 -0.01849,0.1258 0.05762,0.1258 0.0761,0 0.138368,-0.0566 0.138367,-0.1258 z m -0.857404,-0.57628 c 0.24641,-0.23727 0.156868,-0.43019 -0.199666,-0.43019 -0.318102,0 -0.484435,0.36246 -0.235877,0.514 0.231079,0.14089 0.194957,0.14784 0.435543,-0.0838 z m 2.817259,0.0179 c 0,-0.10335 -0.112034,-0.17276 -0.261315,-0.16194 -0.322227,0.0234 -0.341983,0.17828 -0.03266,0.25611 0.125758,0.0316 0.243349,0.0641 0.261315,0.0721 0.01797,0.008 0.03266,-0.0668 0.03266,-0.16629 z m -1.567885,-0.20994 c 0,-0.16578 -0.752876,-0.13673 -0.86199,0.0333 -0.06404,0.0998 -0.0048,0.1233 0.188273,0.0747 0.154961,-0.0391 0.281747,-0.0214 0.281747,0.0392 0,0.0605 0.08819,0.0775 0.195985,0.0376 0.107792,-0.0399 0.195985,-0.12297 0.195985,-0.18476 z m -0.609406,-0.93857 c -0.108897,-0.27324 0.167559,-0.53022 0.365441,-0.33967 0.167245,0.16103 0.06364,0.53685 -0.148005,0.53685 -0.07637,0 -0.174218,-0.0887 -0.217436,-0.19718 z m 0.176032,-0.20384 c -0.04171,-0.10036 -0.07267,-0.0706 -0.07894,0.076 -0.0057,0.13262 0.02521,0.20694 0.06862,0.16512 0.04341,-0.0418 0.04806,-0.15031 0.01031,-0.24113 z"
       id="path1561"
       sodipodi:nodetypes="ssssssssssssssssssssssssssscsssssscssssssssssscscsssssssssssssssssssssssssscscsssssssssssssssssssssssssssss"
       inkscape:label="logo" />
    <g
       aria-label="OUT"
       id="text1087"
       style="font-size:3.52778px;font-family:'\' Mono Regular';-inkscape-font-specification:'\' Mono Regular, ';text-align:center;text-anchor:middle;stroke:#000000;stroke-width:0;stroke-linecap:round;stroke-miterlimit:0"
       transform="translate(0.52916667,-0.2620005)">
      <path
         d="m 4.5326926,97.765529 h 0.6949727 q 0.3915836,0.363361 0.5397503,0.543278 v 1.386417 L 5.2276653,100.2385 H 4.5326926 L 3.9999978,99.695224 v -1.386417 q 0.052917,-0.07761 0.5326948,-0.543278 z m -0.176389,0.684389 v 1.104195 l 0.3280836,0.3175 h 0.3986391 l 0.3175002,-0.3175 V 98.449918 L 5.0830263,98.121834 H 4.6843872 Z"
         id="path1384" />
      <path
         d="m 6.2260204,97.762001 h 0.3175002 l 0.021167,0.02117 v 1.770945 l 0.3139724,0.3175 h 0.41275 l 0.3139724,-0.3175 v -1.770945 l 0.021167,-0.02117 h 0.3175002 l 0.021167,0.02117 v 1.912056 L 7.4325212,100.2385 H 6.7375485 L 6.2048538,99.695224 v -1.912056 z"
         id="path1386" />
      <path
         d="m 8.4308764,97.765529 h 1.7145006 l 0.02117,0.02117 V 98.1042 l -0.02117,0.01764 H 9.4715715 v 2.09551 l -0.021167,0.0212 H 9.125849 l -0.021167,-0.0212 V 98.121834 H 8.4308764 l -0.021167,-0.01764 v -0.317501 z"
         id="path1388" />
    </g>
    <g
       aria-label=" λ1"
       id="text1306"
       style="font-size:3.52777px;font-family:'\' Mono Regular';-inkscape-font-specification:'\' Mono Regular, ';text-align:center;text-anchor:middle;stroke:#000000;stroke-width:0;stroke-linecap:round;stroke-miterlimit:0"
       transform="translate(1)">
      <path
         d="m 9.987018,34.301446 0.890555,2.378833 H 10.541677 L 10.000798,35.254012 9.3358964,36.680279 H 9.0000003 L 9.8457694,34.830267 9.7183012,34.489203 Q 9.6373416,34.272162 9.4530294,34.272162 H 9.2876652 V 34 l 0.2015376,0.0034 q 0.389295,0.0052 0.4978152,0.298001 z"
         id="path1369" />
      <path
         d="m 11.450431,35.780697 h 0.215546 l 0.01376,0.01376 v 1.366658 h 0.334785 l 0.01376,0.01376 v 0.208668 l -0.01376,0.01146 h -0.898876 l -0.01376,-0.01146 v -0.208668 l 0.01376,-0.01376 h 0.327906 v -1.038752 l -0.132996,0.128411 h -0.19491 l -0.01376,-0.01376 v -0.107773 z"
         style="font-size:65%;baseline-shift:sub"
         id="path1371" />
    </g>
    <g
       aria-label=" λ2"
       id="text1331"
       style="font-size:3.52777px;font-family:'\' Mono Regular';-inkscape-font-specification:'\' Mono Regular, ';text-align:center;text-anchor:middle;stroke:#000000;stroke-width:0;stroke-linecap:round;stroke-miterlimit:0"
       transform="translate(1)">
      <path
         d="m 9.9870181,54.301446 0.8905549,2.378833 H 10.541677 L 10.000798,55.254012 9.3358965,56.680279 H 9.0000004 L 9.8457695,54.830267 9.7183013,54.489203 Q 9.6373417,54.272162 9.4530295,54.272162 H 9.2876653 V 54 l 0.2015376,0.0034 q 0.3892949,0.0052 0.4978152,0.298001 z"
         id="path1374" />
      <path
         d="m 11.335778,55.778404 h 0.454024 l 0.346251,0.346251 v 0.327906 l -0.786517,0.699381 h 0.772758 l 0.01376,0.01376 v 0.206374 l -0.01376,0.01376 h -1.125887 l -0.01376,-0.01376 v -0.213253 l 0.919514,-0.807154 v -0.126118 l -0.213254,-0.213253 h -0.259115 q -0.144462,0.137583 -0.220133,0.233891 h -0.213253 l -0.01376,-0.01376 v -0.107773 z"
         style="font-size:65%;baseline-shift:sub"
         id="path1376" />
    </g>
    <g
       aria-label=" Δx"
       id="text1337"
       style="font-size:3.52777px;font-family:'\' Mono Regular';-inkscape-font-specification:'\' Mono Regular, ';text-align:center;text-anchor:middle;stroke:#000000;stroke-width:0;stroke-linecap:round;stroke-miterlimit:0"
       transform="translate(1)">
      <path
         d="m 10.17822,74.342783 -0.7062431,1.939584 h 1.4142081 z m -1.1782202,2.228971 0.9818501,-2.571758 h 0.3944621 l 0.980128,2.571758 z"
         id="path1379" />
      <path
         d="m 11.385723,74.800814 h 0.402166 l 0.419805,0.58561 q 0.384527,-0.567971 0.416277,-0.58561 h 0.402165 v 0.01058 l -0.613832,0.881943 q 0.186972,0.23636 0.613832,0.857248 v 0.02117 h -0.402165 q -0.225778,-0.29986 -0.416277,-0.592665 h -0.0035 l -0.416277,0.592665 h -0.402166 v -0.02117 L 11.9925,75.69334 11.385723,74.821981 Z"
         id="path1381" />
    </g>
    <g
       aria-label=" λScratch"
       id="text1341"
       style="font-size:3.52777px;font-family:'\' Mono Regular';-inkscape-font-specification:'\' Mono Regular, ';text-align:center;text-anchor:middle;stroke:#000000;stroke-width:0;stroke-linecap:round;stroke-miterlimit:0">
      <path
         d="M 3.5660177,5.3014451 4.456573,7.6802783 H 4.1206769 L 3.5797981,6.2540119 2.9148961,7.6802783 H 2.579 L 3.4247691,5.8302661 3.2973009,5.4892024 Q 3.2163413,5.2721618 3.0320291,5.2721618 H 2.8666649 V 4.9999999 l 0.2015376,0.00345 q 0.389295,0.00517 0.4978152,0.2980001 z"
         id="path1343" />
      <path
         d="M 5.052008,5.2108393 H 5.8457563 Q 6.325533,5.6765049 6.325533,5.7011993 V 5.90581 l -0.017639,0.017639 H 5.9903949 q -0.021167,0 -0.021167,-0.091722 L 5.6940622,5.567144 H 5.1931188 L 4.9285361,5.8423101 V 5.997532 L 5.1931188,6.2621147 H 5.8457563 L 6.325533,6.7524748 v 0.4374435 l -0.4797767,0.49036 H 5.052008 l -0.49036,-0.49036 V 6.9853076 l 0.021167,-0.017639 h 0.3245549 q 0.021167,0 0.03175,0.098777 L 5.1931188,7.3133902 H 5.6940622 L 5.9692282,7.0488075 V 6.8935856 L 5.6940622,6.6290028 H 5.052008 l -0.49036,-0.49036 V 5.7011993 Z"
         id="path1345" />
      <path
         d="m 7.2603912,5.9093377 h 0.9066369 l 0.021167,0.021167 v 0.3174993 l -0.021167,0.021167 H 7.4367797 L 7.140447,6.7383637 v 0.091722 q 0,0.028222 0.2963327,0.4833045 h 0.7302484 l 0.021167,0.017639 v 0.3280826 l -0.021167,0.021167 H 7.2603912 Q 6.7806145,6.9923631 6.7806145,6.9429744 V 6.6466417 q 0.014111,-0.077611 0.4797767,-0.737304 z"
         id="path1347" />
      <path
         d="M 8.6538573,5.90581 H 8.98194 l 0.021167,0.021167 v 0.3174993 h 0.010583 Q 9.4370223,5.90581 9.4758278,5.90581 h 0.49036 l 0.021167,0.021167 v 0.3174993 l -0.021167,0.021167 H 9.5887164 q -0.03175,0 -0.5856098,0.4198046 V 7.6591117 L 8.98194,7.6802783 H 8.6538573 L 8.6326907,7.6591117 V 5.9269766 Z"
         id="path1349" />
      <path
         d="m 10.622347,5.9128655 h 0.998358 l 0.359833,0.3563048 v 1.0336366 q 0,0.03175 0.172861,0.3668881 l -0.01058,0.010583 h -0.377471 q -0.02117,0 -0.102305,-0.1940274 h -0.01058 L 11.437261,7.6802783 H 10.752874 L 10.385986,7.3133902 V 6.9747243 l 0.366888,-0.3563048 h 0.867831 V 6.4243922 L 11.469011,6.2691703 H 10.622347 L 10.60118,6.2515314 V 5.9340321 Z m 0.130527,1.2064974 v 0.049389 l 0.144639,0.1446386 h 0.398638 l 0.324554,-0.3174993 v -0.021167 h -0.723192 z"
         id="path1351" />
      <path
         d="m 12.947145,5.2037837 h 0.317499 l 0.02117,0.021167 v 0.6843873 h 0.546804 l 0.01764,0.021167 v 0.3174993 l -0.01764,0.021167 h -0.546804 v 0.7373039 l 0.285749,0.306916 h 0.402166 l 0.01764,0.017639 v 0.3280826 l -0.01764,0.021167 H 13.409283 L 12.929506,7.1370017 V 6.2691703 h -0.328083 l -0.02117,-0.021167 V 5.9305044 l 0.02117,-0.021167 h 0.328083 V 5.2249504 Z"
         id="path1353" />
      <path
         d="m 14.855666,5.9093377 h 0.906637 l 0.02117,0.021167 v 0.3174993 l -0.02117,0.021167 h -0.730248 l -0.296333,0.4691934 v 0.091722 q 0,0.028222 0.296333,0.4833045 h 0.730248 l 0.02117,0.017639 v 0.3280826 l -0.02117,0.021167 H 14.855666 Q 14.375889,6.9923631 14.375889,6.9429744 V 6.6466417 Q 14.39,6.5690307 14.855666,5.9093377 Z"
         id="path1355" />
      <path
         d="m 16.178577,5.2178948 h 0.324555 l 0.02117,0.021167 v 0.6808597 h 0.765526 l 0.451555,0.6879151 v 1.0512755 l -0.02117,0.021167 h -0.313971 l -0.02117,-0.021167 V 6.6995582 l -0.26811,-0.4233324 h -0.592666 v 1.3828859 l -0.02117,0.021167 H 16.178577 L 16.15741,7.6591117 V 5.2390614 Z"
         id="path1357" />
    </g>
    <g
       aria-label="FRQ"
       id="text479"
       style="font-size:3.52777px;font-family:'\' Mono Regular';-inkscape-font-specification:'\' Mono Regular, ';text-align:center;text-anchor:middle;stroke:#000000;stroke-width:0;stroke-linecap:round;stroke-miterlimit:0">
      <path
         d="m 10.021166,14.003527 h 1.548691 l 0.02117,0.02117 v 0.317499 l -0.02117,0.01764 h -1.213553 v 0.694971 h 1.040693 l 0.02117,0.02117 v 0.328083 l -0.02117,0.02117 h -1.040693 v 1.030109 l -0.01764,0.02117 h -0.3175 l -0.021166,-0.02117 v -2.430633 z"
         id="path488" />
      <path
         d="m 12.095493,14.007055 h 1.262941 q 0.479777,0.465665 0.479777,0.49036 v 0.437443 l -0.469193,0.49036 0.469193,1.040693 -0.0071,0.01058 H 13.46074 q -0.05292,-0.04939 -0.243416,-0.52211 l -0.254,-0.529166 h -0.52211 v 1.030109 l -0.02117,0.02117 h -0.324555 l -0.02117,-0.02117 v -2.427106 z m 0.345721,0.356305 v 0.69497 h 0.765526 l 0.275166,-0.264582 V 14.638526 L 13.20674,14.36336 Z"
         id="path490" />
      <path
         d="m 14.829511,13.999999 h 0.684387 q 0.39511,0.363361 0.543277,0.543277 v 1.093609 l -0.328083,0.328082 0.317499,0.49036 v 0.02117 H 15.63737 Q 15.471565,16.257772 15.471565,16.22955 l -0.254,0.246944 h -0.388054 l -0.543277,-0.543277 v -1.389941 q 0.112889,-0.144639 0.543277,-0.543277 z m -0.176389,0.684388 v 1.107719 l 0.317499,0.3175 h 0.102306 l 0.186972,-0.176389 -0.328083,-0.500943 v -0.02117 h 0.409221 q 0.123472,0.155222 0.172861,0.257527 l 0.183444,-0.183444 v -0.800803 l -0.328083,-0.324555 h -0.398638 z"
         id="path492" />
    </g>
  </g>
  <g
     inkscape:groupmode="layer"
     id="layer2"
     inkscape:label="components"
     style="display:none">
    <circle
       cx="13"
       cy="23"
       fill="#ff0000"
       id="freq"
       style="display:inline;stroke-width:0.470371"
       inkscape:label="freq"
       r="1.3229166mm" />
    <circle
       cx="6"
       cy="16"
       fill="#00ff00"
       id="freq_in"
       style="display:inline;stroke-width:0.352777"
       r="0.79374999mm"
       inkscape:label="freq" />
    <circle
       cx="13"
       cy="43"
       fill="#ff0000"
       id="l1"
       style="display:inline;stroke-width:0.235186"
       inkscape:label="l1"
       r="1.3229166mm" />
    <circle
       cx="6"
       cy="36"
       fill="#00ff00"
       id="l1_in"
       style="display:inline;stroke-width:0.352777"
       r="0.79374999mm"
       inkscape:label="l1" />
    <circle
       cx="13"
       cy="63"
       fill="#ff0000"
       id="l2"
       style="display:inline;stroke-width:0.235186"
       inkscape:label="l2"
       r="1.3229166mm" />
    <circle
       cx="6"
       cy="56"
       fill="#00ff00"
       id="l2_in"
       style="display:inline;stroke-width:0.352777"
       r="0.79374999mm"
       inkscape:label="l2" />
    <circle
       cx="13"
       cy="83"
       fill="#ff0000"
       id="dx"
       style="display:inline;stroke-width:0.235186"
       inkscape:label="dx"
       r="1.3229166mm" />
    <circle
       cx="6"
       cy="76"
       fill="#00ff00"
       id="dx_in"
       style="display:inline;stroke-width:0.352777"
       r="0.79374999mm"
       inkscape:label="dx" />
    <circle
       cx="15"
       cy="99"
       fill="#0000ff"
       id="out"
       style="display:inline;stroke-width:0.235186"
       inkscape:label="out"
       r="0.79374999mm" />
  </g>
</svg>
