<?xml version="1.0" encoding="UTF-8" standalone="no"?>
<!-- Created with Inkscape (http://www.inkscape.org/) -->

<svg
   width="20.32mm"
   height="128.5mm"
   viewBox="0 0 20.32 128.5"
   version="1.1"
   id="svg470"
   inkscape:version="1.1.2 (0a00cf5339, 2022-02-04)"
   sodipodi:docname="LogisticScratch.svg"
   xmlns:inkscape="http://www.inkscape.org/namespaces/inkscape"
   xmlns:sodipodi="http://sodipodi.sourceforge.net/DTD/sodipodi-0.dtd"
   xmlns="http://www.w3.org/2000/svg"
   xmlns:svg="http://www.w3.org/2000/svg">
  <sodipodi:namedview
     id="namedview472"
     pagecolor="#ffffff"
     bordercolor="#666666"
     borderopacity="1.0"
     inkscape:pageshadow="2"
     inkscape:pageopacity="1"
     inkscape:pagecheckerboard="false"
     inkscape:document-units="mm"
     showgrid="true"
     width="40.64mm"
     inkscape:zoom="3.9999998"
     inkscape:cx="9.5000004"
     inkscape:cy="344.62502"
     inkscape:window-width="1920"
     inkscape:window-height="1019"
     inkscape:window-x="0"
     inkscape:window-y="0"
     inkscape:window-maximized="1"
     inkscape:current-layer="layer2"
     objecttolerance="20"
     guidetolerance="10000"
     showguides="true">
    <inkscape:grid
       type="xygrid"
       id="grid1902"
       units="mm"
       dotted="false"
       originx="0"
       originy="0"
       spacingx="1"
       spacingy="1"
       snapvisiblegridlinesonly="false"
       visible="true"
       empspacing="10" />
  </sodipodi:namedview>
  <defs
     id="defs467" />
  <rect
     style="display:inline;fill:#e8e5e0;fill-opacity:1;stroke-width:0.187088"
     id="rect981"
     width="20.32"
     height="128.5"
     x="0"
     y="-5.5511151e-17" />
  <rect
     style="display:inline;fill:#999593;fill-opacity:1;stroke-width:0.238291"
     id="rect1123-3"
     width="10.16"
     height="14"
     x="10.16"
     y="97" />
  <g
     inkscape:label="panel"
     inkscape:groupmode="layer"
     id="layer1"
     style="display:inline">
    <g
       aria-label="Logistic Scratch"
       id="text55004"
       style="font-size:3.17498px;line-height:1.25;font-family:Ubuntu;-inkscape-font-specification:Ubuntu;stroke-width:0.264581">
      <path
         d="M 2.3210782,7.2193108 V 7.4637842 H 1.3400094 V 5.2635231 h 0.2857482 v 1.9557877 z"
         style="font-family:'Ubuntu Condensed';-inkscape-font-specification:'Ubuntu Condensed, '"
         id="path167340" />
      <path
         d="m 3.7148938,6.6319395 q 0,0.1968487 -0.034925,0.3587727 -0.034925,0.158749 -0.1079493,0.2730483 -0.06985,0.1142993 -0.1809739,0.1777989 -0.1079493,0.0635 -0.2571733,0.0635 -0.1492241,0 -0.2603484,-0.0635 -0.1111243,-0.0635 -0.1841488,-0.1777989 -0.06985,-0.1142993 -0.1047744,-0.2730483 -0.034925,-0.161924 -0.034925,-0.3587727 0,-0.1936738 0.034925,-0.3555978 0.034925,-0.161924 0.1047744,-0.2762232 0.073024,-0.1174743 0.1841488,-0.1809739 0.1111243,-0.0635 0.2603484,-0.0635 0.149224,0 0.2571733,0.0635 0.1111243,0.0635 0.1809739,0.1809739 0.073025,0.1142992 0.1079493,0.2762232 0.034925,0.161924 0.034925,0.3555978 z m -0.2857482,0 q 0,-0.1396991 -0.015875,-0.2539984 -0.015875,-0.1174743 -0.0508,-0.2000238 -0.034925,-0.085724 -0.092074,-0.1301741 -0.05715,-0.047625 -0.1365241,-0.047625 -0.082549,0 -0.1396992,0.047625 -0.053975,0.04445 -0.092074,0.1301741 -0.034925,0.082549 -0.0508,0.2000238 -0.015875,0.1142993 -0.015875,0.2539984 0,0.1396991 0.015875,0.2571734 0.015875,0.1142992 0.0508,0.1968487 0.0381,0.082549 0.092074,0.1301742 0.05715,0.04445 0.1396992,0.04445 0.079375,0 0.1365241,-0.04445 0.05715,-0.047625 0.092074,-0.1301742 0.034925,-0.082549 0.0508,-0.1968487 0.015875,-0.1174743 0.015875,-0.2571734 z"
         style="font-family:'Ubuntu Condensed';-inkscape-font-specification:'Ubuntu Condensed, '"
         id="path167342" />
      <path
         d="m 5.1055329,7.4161595 q 0,0.1777989 -0.047625,0.2984481 -0.04445,0.1238242 -0.1238242,0.2000238 -0.079375,0.076199 -0.1873238,0.1111243 -0.1047744,0.034925 -0.2254236,0.034925 -0.1015994,0 -0.2031987,-0.022225 Q 4.2165385,8.0162307 4.1308141,7.971781 l 0.05715,-0.2285985 q 0.05715,0.03175 0.1396991,0.05715 0.08255,0.0254 0.1714489,0.0254 0.1555741,0 0.2444735,-0.088899 0.088899,-0.088899 0.088899,-0.3047981 v -0.079375 q -0.0508,0.022225 -0.1079493,0.0381 -0.05715,0.0127 -0.1301742,0.0127 -0.2984481,0 -0.4381472,-0.2031987 Q 4.0196898,6.993888 4.0196898,6.6192404 q 0,-0.2000238 0.034925,-0.3587728 0.0381,-0.1619239 0.1142992,-0.2730482 0.079374,-0.1142993 0.2031987,-0.171449 0.1238243,-0.060325 0.3016231,-0.060325 0.1174743,0 0.2285986,0.0254 0.1142993,0.022225 0.2031987,0.060325 z M 4.8324846,6.0191684 q -0.04445,-0.0127 -0.085724,-0.015875 -0.041275,-0.00635 -0.076199,-0.00635 -0.1904988,0 -0.2793983,0.1460491 -0.085724,0.146049 -0.085724,0.476247 0,0.2984481 0.085724,0.4222723 0.085725,0.1206492 0.2444735,0.1206492 0.053975,0 0.1015993,-0.0127 0.0508,-0.0127 0.095249,-0.034925 z"
         style="font-family:'Ubuntu Condensed';-inkscape-font-specification:'Ubuntu Condensed, '"
         id="path167344" />
      <path
         d="M 5.8707002,7.4637842 H 5.5976519 V 5.7969198 H 5.8707002 Z M 5.7341761,5.5016466 q -0.073025,0 -0.1269992,-0.047625 -0.0508,-0.0508 -0.0508,-0.1333491 0,-0.082549 0.0508,-0.1301742 0.053975,-0.0508 0.1269992,-0.0508 0.073024,0 0.1238242,0.0508 0.053975,0.047625 0.053975,0.1301742 0,0.082549 -0.053975,0.1333491 -0.0508,0.047625 -0.1238242,0.047625 z"
         style="font-family:'Ubuntu Condensed';-inkscape-font-specification:'Ubuntu Condensed, '"
         id="path167346" />
      <path
         d="m 6.5977665,7.2701104 q 0.1206493,0 0.1809739,-0.066675 0.0635,-0.06985 0.0635,-0.1809739 0,-0.06985 -0.0254,-0.1174742 -0.0254,-0.0508 -0.066675,-0.0889 -0.041275,-0.0381 -0.095249,-0.066675 -0.053975,-0.03175 -0.1079494,-0.066674 -0.053975,-0.03175 -0.1047743,-0.073025 -0.0508,-0.04445 -0.092074,-0.098424 -0.0381,-0.05715 -0.0635,-0.1269992 -0.022225,-0.073024 -0.022225,-0.1682739 0,-0.2063737 0.1269992,-0.3333729 Q 6.521567,5.755645 6.7406406,5.755645 q 0.092074,0 0.1746239,0.0254 0.082549,0.022225 0.1365241,0.0508 L 6.991464,6.0509182 q -0.05715,-0.03175 -0.1142993,-0.047625 -0.05715,-0.015875 -0.1238242,-0.015875 -0.1015993,0 -0.1619239,0.060325 -0.060325,0.05715 -0.060325,0.1682739 0,0.0635 0.022225,0.1111243 0.022225,0.04445 0.05715,0.082549 0.0381,0.034925 0.082549,0.066675 0.047625,0.03175 0.098424,0.060325 0.060325,0.034925 0.1174742,0.076199 0.060325,0.041275 0.1047744,0.098424 0.047625,0.053975 0.0762,0.1301742 0.028575,0.073025 0.028575,0.1777988 0,0.2190736 -0.1301742,0.3524228 -0.1269992,0.1333492 -0.3746476,0.1333492 -0.1269992,0 -0.2285985,-0.034925 -0.1015994,-0.034925 -0.1523991,-0.0635 l 0.05715,-0.2254236 q 0.047625,0.0254 0.1269992,0.05715 0.082549,0.03175 0.1809735,0.031751 z"
         style="font-family:'Ubuntu Condensed';-inkscape-font-specification:'Ubuntu Condensed, '"
         id="path167348" />
      <path
         d="M 7.7026578,5.7969198 H 8.1217551 V 6.0318683 H 7.7026578 v 0.9175692 q 0,0.1714489 0.060325,0.2412984 0.0635,0.066675 0.1682739,0.066675 0.053975,0 0.1015994,-0.015875 0.0508,-0.015875 0.085724,-0.0381 l 0.053975,0.2190736 Q 8.0423806,7.498709 7.8963315,7.498709 7.661383,7.498709 7.5439088,7.3685348 7.4296095,7.2351857 7.4296095,6.9303876 v -1.58114 l 0.2730483,-0.047625 z"
         style="font-family:'Ubuntu Condensed';-inkscape-font-specification:'Ubuntu Condensed, '"
         id="path167350" />
      <path
         d="M 8.7408736,7.4637842 H 8.4678254 V 5.7969198 H 8.7408736 Z M 8.6043495,5.5016466 q -0.073024,0 -0.1269992,-0.047625 -0.0508,-0.0508 -0.0508,-0.1333491 0,-0.082549 0.0508,-0.1301742 0.053975,-0.0508 0.1269992,-0.0508 0.073025,0 0.1238242,0.0508 0.053975,0.047625 0.053975,0.1301742 0,0.082549 -0.053975,0.1333491 -0.0508,0.047625 -0.1238242,0.047625 z"
         style="font-family:'Ubuntu Condensed';-inkscape-font-specification:'Ubuntu Condensed, '"
         id="path167352" />
      <path
         d="m 9.7441632,7.505059 q -0.1714489,0 -0.2857482,-0.066675 Q 9.3441158,7.3717098 9.2710912,7.2574105 9.2012417,7.1399363 9.1694919,6.9811873 9.140917,6.8224383 9.140917,6.6351145 q 0,-0.4127474 0.1492241,-0.644521 0.152399,-0.2349485 0.4571971,-0.2349485 0.092074,0 0.165099,0.022225 0.073025,0.022225 0.1365238,0.05715 L 9.979112,6.0604436 q -0.098424,-0.0635 -0.2190736,-0.0635 -0.1714489,0 -0.2539984,0.155574 -0.079375,0.155574 -0.079375,0.482597 0,0.1365241 0.015875,0.2539984 0.015875,0.1142992 0.053975,0.1968487 0.041275,0.082549 0.1047743,0.1301742 0.066675,0.047625 0.168274,0.047625 0.06985,0 0.1238242,-0.015875 0.05715,-0.01905 0.1079495,-0.047625 l 0.06032,0.2127236 q -0.0508,0.034925 -0.1365237,0.0635 -0.08255,0.028575 -0.1809739,0.028575 z"
         style="font-family:'Ubuntu Condensed';-inkscape-font-specification:'Ubuntu Condensed, '"
         id="path167354" />
      <path
         d="m 11.268149,7.2669355 q 0.171449,0 0.263523,-0.095249 0.09525,-0.095249 0.09525,-0.2571734 0,-0.085725 -0.02858,-0.152399 -0.02858,-0.066675 -0.0762,-0.1206493 -0.04445,-0.053975 -0.104774,-0.098424 -0.06032,-0.04445 -0.123824,-0.088899 -0.07303,-0.0508 -0.152399,-0.1079493 -0.07937,-0.05715 -0.146049,-0.1333492 -0.0635,-0.076199 -0.104775,-0.1777988 -0.04127,-0.1015994 -0.04127,-0.2381235 0,-0.1333492 0.04445,-0.2412985 0.04763,-0.1079493 0.127,-0.1841489 0.08255,-0.0762 0.193673,-0.1174742 0.1143,-0.041275 0.244474,-0.041275 0.126999,0 0.234948,0.03175 0.10795,0.03175 0.180974,0.076199 l -0.0889,0.2254235 q -0.06668,-0.04445 -0.146049,-0.066675 -0.0762,-0.0254 -0.161924,-0.0254 -0.155574,0 -0.250824,0.085725 -0.09207,0.082549 -0.09207,0.2444734 0,0.0889 0.02858,0.1555741 0.03175,0.066675 0.07937,0.1206492 0.0508,0.053975 0.114299,0.098424 0.06668,0.04445 0.1397,0.092074 0.07302,0.047625 0.149224,0.1047743 0.0762,0.05715 0.136524,0.1333492 0.0635,0.073024 0.101599,0.1746239 0.04127,0.098424 0.04127,0.2349485 0,0.1238242 -0.0381,0.2349485 -0.0381,0.1111243 -0.120649,0.1968488 -0.07938,0.082549 -0.203199,0.1333491 -0.120649,0.047625 -0.285748,0.047625 -0.152399,0 -0.266698,-0.034925 -0.1143,-0.034925 -0.203199,-0.092074 l 0.0889,-0.2285985 q 0.08255,0.0508 0.168274,0.082549 0.0889,0.028575 0.203199,0.028575 z"
         style="font-family:'Ubuntu Condensed';-inkscape-font-specification:'Ubuntu Condensed, '"
         id="path167356" />
      <path
         d="m 12.817533,7.505059 q -0.171449,0 -0.285748,-0.066675 -0.114299,-0.066675 -0.187324,-0.1809739 -0.06985,-0.1174742 -0.101599,-0.2762232 -0.02858,-0.158749 -0.02858,-0.3460728 0,-0.4127474 0.149224,-0.644521 0.152399,-0.2349485 0.457197,-0.2349485 0.09207,0 0.165099,0.022225 0.07303,0.022225 0.136524,0.05715 l -0.06985,0.2254236 q -0.09842,-0.0635 -0.219074,-0.0635 -0.171449,0 -0.253998,0.155574 -0.07937,0.155574 -0.07937,0.482597 0,0.1365241 0.01587,0.2539984 0.01587,0.1142992 0.05397,0.1968487 0.04128,0.082549 0.104774,0.1301742 0.06668,0.047625 0.168274,0.047625 0.06985,0 0.123824,-0.015875 0.05715,-0.01905 0.10795,-0.047625 l 0.06032,0.2127236 q -0.0508,0.034925 -0.136524,0.0635 -0.08255,0.028575 -0.180974,0.028575 z"
         style="font-family:'Ubuntu Condensed';-inkscape-font-specification:'Ubuntu Condensed, '"
         id="path167358" />
      <path
         d="m 14.151021,6.0445682 q -0.1016,-0.04445 -0.228599,-0.04445 -0.117474,0 -0.219074,0.041275 v 1.422391 H 13.4303 V 5.8699443 q 0.09207,-0.04445 0.209549,-0.073024 0.120649,-0.03175 0.263523,-0.03175 0.0762,0 0.152399,0.00952 0.0762,0.00952 0.142874,0.034925 z"
         style="font-family:'Ubuntu Condensed';-inkscape-font-specification:'Ubuntu Condensed, '"
         id="path167360" />
      <path
         d="m 14.449462,5.8318445 q 0.08255,-0.034925 0.174624,-0.053975 0.09207,-0.022225 0.200024,-0.022225 0.222248,0 0.361947,0.1396991 0.1397,0.1365242 0.1397,0.4286223 v 1.104893 q -0.1143,0.03175 -0.234949,0.0508 -0.117474,0.01905 -0.231774,0.01905 -0.114299,0 -0.215898,-0.028575 -0.09843,-0.028575 -0.174624,-0.092074 -0.07303,-0.0635 -0.117474,-0.158749 -0.04445,-0.098424 -0.04445,-0.2381235 0,-0.1301742 0.0381,-0.2254236 0.04127,-0.098424 0.111124,-0.161924 0.06985,-0.066675 0.165099,-0.098424 0.09525,-0.034925 0.206374,-0.034925 0.104774,0 0.231773,0.0254 v -0.152399 q 0,-0.1841489 -0.07302,-0.2571734 -0.06985,-0.073024 -0.203199,-0.073024 -0.07303,0 -0.139699,0.015875 -0.0635,0.0127 -0.136524,0.04445 z m 0.130174,1.1461678 q 0,0.1460491 0.0762,0.2158986 0.0762,0.06985 0.215898,0.06985 0.08573,0 0.187324,-0.022225 V 6.711314 q -0.09525,-0.0254 -0.187324,-0.0254 -0.06032,0 -0.114299,0.015875 -0.05397,0.0127 -0.09525,0.047625 -0.0381,0.03175 -0.06033,0.0889 -0.02222,0.053975 -0.02222,0.1396991 z"
         style="font-family:'Ubuntu Condensed';-inkscape-font-specification:'Ubuntu Condensed, '"
         id="path167362" />
      <path
         d="m 16.055995,5.7969198 h 0.419097 v 0.2349485 h -0.419097 v 0.9175692 q 0,0.1714489 0.06033,0.2412984 0.0635,0.066675 0.168274,0.066675 0.05397,0 0.101599,-0.015875 0.0508,-0.015875 0.08572,-0.0381 l 0.05397,0.2190736 q -0.130174,0.076199 -0.276223,0.076199 -0.234949,0 -0.352423,-0.1301742 -0.114299,-0.1333491 -0.114299,-0.4381472 v -1.58114 l 0.273048,-0.047625 z"
         style="font-family:'Ubuntu Condensed';-inkscape-font-specification:'Ubuntu Condensed, '"
         id="path167364" />
      <path
         d="m 17.313282,7.505059 q -0.171449,0 -0.285748,-0.066675 -0.1143,-0.066675 -0.187324,-0.1809739 -0.06985,-0.1174742 -0.1016,-0.2762232 -0.02857,-0.158749 -0.02857,-0.3460728 0,-0.4127474 0.149224,-0.644521 0.152399,-0.2349485 0.457197,-0.2349485 0.09207,0 0.165099,0.022225 0.07302,0.022225 0.136524,0.05715 l -0.06985,0.2254236 q -0.09842,-0.0635 -0.219073,-0.0635 -0.171449,0 -0.253999,0.155574 -0.07937,0.155574 -0.07937,0.482597 0,0.1365241 0.01588,0.2539984 0.01587,0.1142992 0.05397,0.1968487 0.04128,0.082549 0.104775,0.1301742 0.06667,0.047625 0.168274,0.047625 0.06985,0 0.123824,-0.015875 0.05715,-0.01905 0.107949,-0.047625 l 0.06033,0.2127236 q -0.0508,0.034925 -0.136524,0.0635 -0.08255,0.028575 -0.180974,0.028575 z"
         style="font-family:'Ubuntu Condensed';-inkscape-font-specification:'Ubuntu Condensed, '"
         id="path167366" />
      <path
         d="M 17.926049,7.4637842 V 5.0476245 l 0.273048,-0.047625 v 0.8064449 q 0.06033,-0.01905 0.130174,-0.03175 0.07303,-0.0127 0.146049,-0.0127 0.104775,0 0.196849,0.034925 0.09207,0.03175 0.158749,0.1111243 0.06985,0.079375 0.107949,0.2158986 0.04128,0.1333491 0.04128,0.3333729 v 1.006469 H 18.707094 V 6.4795404 q 0,-0.2476484 -0.0635,-0.3619477 -0.0635,-0.1142992 -0.238123,-0.1142992 -0.09207,0 -0.206374,0.03175 v 1.4287409 z"
         style="font-family:'Ubuntu Condensed';-inkscape-font-specification:'Ubuntu Condensed, '"
         id="path167368" />
    </g>
    <path
       style="display:inline;fill:#000000;stroke-width:0.256427"
       d="m 6.3076506,122.99351 c -0.03895,-0.87892 0.0074,-0.94127 0.676794,-0.90935 0.592699,0.0282 0.618282,0.0531 0.146007,0.14137 -0.416041,0.0778 -0.601093,0.32647 -0.676794,0.90936 -0.100103,0.77081 -0.105827,0.76526 -0.146007,-0.14138 z m 1.438882,0.37746 c 0.08798,-0.33624 0.348012,-0.56618 0.640289,-0.56618 0.2706833,0 0.4921523,-0.11324 0.4921523,-0.25164 0,-0.13839 -0.159216,-0.25163 -0.353815,-0.25163 -0.1945983,0 -0.6677623,-0.28018 -1.0514773,-0.62261 -0.383715,-0.34245 -0.753661,-0.62554 -0.822101,-0.62909 -0.06844,-0.004 -0.124436,-0.063 -0.124436,-0.13228 v -0.301 c 0,-0.0963 0.382172,0.1707 0.849271,0.59342 0.57354,0.51907 1.582834,0.98443 3.1086934,1.43334 2.72786,0.80257 3.077277,0.82123 3.025669,0.16152 -0.02826,-0.36128 -0.170622,-0.4631 -0.504743,-0.36099 -0.364501,0.11141 -0.426807,0.0432 -0.287438,-0.31458 0.155991,-0.40047 0.12397,-0.41455 -0.25963,-0.11412 -0.572561,0.44842 -1.26488,0.19257 -1.071773,-0.39607 0.140142,-0.42721 0.128587,-0.42768 -0.229199,-0.01 -0.481338,0.56255 -0.711137,0.55877 -0.711137,-0.0117 0,-0.32913 0.195394,-0.44784 0.718613,-0.4366 0.562469,0.0121 0.699371,0.12104 0.630055,0.50142 -0.07456,0.40915 -0.02569,0.43574 0.309153,0.16814 0.553362,-0.44223 1.739262,0.30903 1.739262,1.10182 0,0.83186 -0.558794,0.91682 -2.254806,0.3428 l -1.502355,-0.50848 -0.4674357,0.5851 c -0.2570927,0.32181 -0.4700517,0.45024 -0.4732477,0.28541 -0.0032,-0.16484 0.111783,-0.36967 0.255505,-0.45521 0.1437227,-0.0855 0.2613147,-0.25965 0.2613147,-0.38691 0,-0.30875 -1.3542307,0.28008 -1.7508747,0.76129 -0.262658,0.31865 -0.289564,0.28847 -0.165509,-0.18566 z m 1.45691,-2.10626 c -0.791051,-0.48781 -0.839522,-0.49198 -0.6833307,-0.0587 0.10338,0.28681 -0.2218403,0.10236 -0.8445923,-0.47901 -0.837037,-0.7814 -0.962861,-1.02148 -0.725342,-1.38398 0.254583,-0.38854 0.679124,-0.42846 3.7212214,-0.34992 2.960695,0.0765 3.433856,0.0351 3.433856,-0.29969 0,-0.21359 -0.113739,-0.45604 -0.252756,-0.53877 -0.139014,-0.0827 -0.184242,-0.4803 -0.100502,-0.88348 0.130239,-0.62708 0.0588,-0.75565 -0.494075,-0.88927 -0.36303,-0.0878 -1.073369,0.0156 -1.620608,0.23579 -0.861674,0.34669 -1.019137,0.34881 -1.362348,0.0184 -0.5104987,-0.49159 -0.6997837,-0.4722 -1.2653354,0.12958 -0.2601357,0.27679 -0.601738,0.50153 -0.759116,0.4994 -0.157378,-0.002 -0.109755,-0.11362 0.105829,-0.24777 0.3065833,-0.19079 0.2387853,-0.24477 -0.31122,-0.24778 -0.386756,-0.002 -0.775869,0.10938 -0.864694,0.24778 -0.08883,0.13839 0.05123,0.25564 0.311221,0.26055 0.376242,0.007 0.33939,0.0824 -0.180563,0.36853 -0.87971,0.48425 -1.186472,0.46753 -0.750611,-0.0409 0.279598,-0.32617 0.286649,-0.4417 0.032,-0.52424 -0.179654,-0.0582 -0.326644,-0.21634 -0.326644,-0.35138 0,-0.13503 0.116661,-0.17609 0.259245,-0.0912 0.142585,0.0848 0.451664,0.0506 0.686842,-0.0762 0.518482,-0.2794 0.02663,-0.6753 -0.566629,-0.45607 -0.208701,0.0771 -0.379458,0.0305 -0.379458,-0.10353 0,-0.35898 0.870615,-0.29636 1.438441,0.10346 0.366447,0.25802 0.683328,0.28332 1.2339083,0.0985 0.5182857,-0.17398 0.9667914,-0.15855 1.4930171,0.0514 0.568072,0.22659 0.888868,0.22958 1.310597,0.0123 0.307127,-0.15829 0.935148,-0.25269 1.395606,-0.20981 0.736595,0.0686 0.839232,0.17009 0.854127,0.84442 0.0093,0.42153 0.09983,0.89558 0.201144,1.05345 0.167782,0.26142 0.02109,2.31147 -0.179214,2.50433 -0.04662,0.0449 -0.449461,-0.0408 -0.8952,-0.19042 -0.598997,-0.20107 -0.767722,-0.3819 -0.646731,-0.69311 0.142584,-0.36677 0.106828,-0.37654 -0.2772,-0.0757 -0.35629,0.27908 -0.440897,0.28192 -0.440897,0.0148 0,-0.20126 -0.150057,-0.1395 -0.383661,0.15791 -0.211015,0.26866 -0.387401,0.39955 -0.391972,0.29088 -0.0045,-0.10868 -0.237772,-0.0793 -0.518222,0.0652 -0.37395,0.19273 -0.4835367,0.46345 -0.411,1.01539 0.0544,0.41392 0.07807,0.75069 0.05261,0.74836 -0.02548,-0.002 -0.4294527,-0.24052 -0.8977444,-0.52931 z m 0.7207877,-0.22135 c 0,-0.1384 -0.05186,-0.25163 -0.115237,-0.25163 -0.06338,0 -0.187911,0.11323 -0.276735,0.25163 -0.08883,0.13839 -0.03697,0.25163 0.115235,0.25163 0.152205,0 0.276737,-0.11324 0.276737,-0.25163 z m -1.7148067,-1.15264 c 0.4928183,-0.47456 0.3137353,-0.86042 -0.399332,-0.86042 -0.636205,0 -0.96887,0.72496 -0.471754,1.02807 0.462158,0.28179 0.389914,0.2957 0.871086,-0.16765 z m 5.6345174,0.0359 c 0,-0.20669 -0.224067,-0.34555 -0.522629,-0.3239 -0.644455,0.0467 -0.683967,0.35658 -0.06533,0.51226 0.251515,0.0633 0.486698,0.12821 0.522629,0.14427 0.03593,0.0161 0.06533,-0.13363 0.06533,-0.33263 z m -3.13577,-0.42001 c 0,-0.33158 -1.5057534,-0.27346 -1.7239814,0.0666 -0.1280847,0.19957 -0.0096,0.2466 0.376547,0.14938 0.3099217,-0.0781 0.5634937,-0.0428 0.5634937,0.0783 0,0.1211 0.1763867,0.155 0.3919707,0.0753 0.215584,-0.0797 0.39197,-0.24596 0.39197,-0.36956 z m -1.2188127,-1.87724 c -0.2177937,-0.54653 0.335118,-1.06051 0.7308827,-0.6794 0.33449,0.32209 0.127273,1.07377 -0.2960107,1.07377 -0.152746,0 -0.348436,-0.17747 -0.434872,-0.39437 z m 0.352064,-0.40771 c -0.08342,-0.20073 -0.145338,-0.14111 -0.157878,0.15203 -0.01134,0.26526 0.05042,0.41388 0.137247,0.33026 0.08683,-0.0836 0.09612,-0.30064 0.02062,-0.48229 z"
       id="path1561"
       sodipodi:nodetypes="ssssssssssssssssssssssssssscsssssscssssssssssscscsssssssssssssssssssssssssscscsssssssssssssssssssssssssssss" />
    <text
       xml:space="preserve"
       style="font-size:2.82223px;line-height:1.25;font-family:Ubuntu;-inkscape-font-specification:Ubuntu;stroke-width:0.264583"
       x="11"
       y="35"
       id="text14295"><tspan
         sodipodi:role="line"
         id="tspan14293"
         style="stroke-width:0.264583"
         x="11"
         y="35" /></text>
    <g
       aria-label="FREQ"
       id="text76530"
       style="font-size:2.82223px;line-height:1.25;font-family:'Ubuntu Condensed';-inkscape-font-specification:'Ubuntu Condensed, ';stroke-width:0.264583"
       transform="translate(6.6826882,4)">
      <path
         d="m 1.2173118,18.000961 v -1.955805 h 0.8777135 v 0.217312 H 1.4713125 v 0.615246 h 0.5531571 v 0.211667 H 1.4713125 v 0.91158 z"
         id="path167371" />
      <path
         d="m 2.4195781,16.073378 q 0.1975561,-0.04798 0.3810011,-0.04798 0.146756,0 0.2652896,0.03387 0.1185337,0.03387 0.2032006,0.107245 0.084667,0.07338 0.1298226,0.189089 0.047978,0.115712 0.047978,0.279401 0,0.203201 -0.079022,0.330201 -0.0762,0.124178 -0.208845,0.189089 0.033867,0.05645 0.084667,0.155223 0.053622,0.09596 0.1072448,0.214489 0.056445,0.115712 0.1072447,0.23989 0.053622,0.124178 0.090311,0.237067 h -0.254001 q -0.031045,-0.08467 -0.079022,-0.191911 -0.045156,-0.107245 -0.095956,-0.211668 -0.0508,-0.107244 -0.1016003,-0.2032 -0.0508,-0.09878 -0.090311,-0.166512 -0.045156,0.0056 -0.093134,0.0085 -0.047978,0.0028 -0.095956,0.0028 h -0.070556 v 0.762002 H 2.4195781 Z m 0.2483563,0.956736 h 0.1072447 q 0.1947339,0 0.2991564,-0.08749 0.1044225,-0.09031 0.1044225,-0.307623 0,-0.110067 -0.028222,-0.183445 -0.0254,-0.0762 -0.0762,-0.118534 -0.047978,-0.04516 -0.1185337,-0.06491 -0.067734,-0.01976 -0.1524004,-0.01976 -0.073378,0 -0.135467,0.0085 z"
         id="path167373" />
      <path
         d="m 3.8702044,18.000961 v -1.955805 h 0.8777135 v 0.217312 H 4.1242051 v 0.606779 h 0.564446 v 0.211667 h -0.564446 v 0.702736 h 0.6688685 v 0.217311 z"
         id="path167375" />
      <path
         d="m 6.4243188,17.02447 q 0,0.200378 -0.033867,0.369712 -0.031045,0.169334 -0.095956,0.299156 -0.064911,0.129823 -0.1665116,0.217312 -0.1016003,0.08467 -0.2370673,0.115711 0.00564,0.118534 0.1270004,0.183445 0.1213559,0.06773 0.3132675,0.101601 l -0.059267,0.197556 Q 6.1590292,18.483563 6.0546066,18.452518 5.9530064,18.421474 5.8683395,18.370673 5.7864948,18.319873 5.727228,18.240851 5.6707834,18.161828 5.6453833,18.03765 5.4873384,18.020717 5.371627,17.941694 5.2587378,17.85985 5.1825375,17.727205 5.1063373,17.59456 5.0696483,17.41676 q -0.036689,-0.177801 -0.036689,-0.39229 0,-0.228601 0.042333,-0.41769 0.042334,-0.18909 0.1270004,-0.321735 Q 5.2897823,16.149578 5.4196049,16.0762 5.5522497,16 5.7300502,16 q 0.1778005,0 0.3076231,0.0762 0.1326448,0.07338 0.2173117,0.208845 0.087489,0.132645 0.1270003,0.321735 0.042333,0.189089 0.042333,0.41769 z m -0.2709341,0 q 0,-0.177801 -0.022578,-0.324557 -0.022578,-0.146756 -0.073378,-0.251178 -0.0508,-0.107245 -0.1326448,-0.166512 -0.079022,-0.05927 -0.1947339,-0.05927 -0.1157114,0 -0.1975561,0.05927 -0.079022,0.05927 -0.1298226,0.166512 -0.0508,0.104422 -0.0762,0.251178 -0.022578,0.146756 -0.022578,0.324557 0,0.1778 0.022578,0.324556 0.0254,0.146756 0.0762,0.251179 0.0508,0.104422 0.1298226,0.163689 0.081845,0.05645 0.1975561,0.05645 0.1157114,0 0.1947339,-0.05645 0.081845,-0.05927 0.1326448,-0.163689 0.0508,-0.104423 0.073378,-0.251179 0.022578,-0.146756 0.022578,-0.324556 z"
         id="path167377" />
    </g>
    <g
       aria-label="λ1"
       id="text93722"
       style="font-size:2.82223px;line-height:1.25;font-family:'Ubuntu Condensed';-inkscape-font-specification:'Ubuntu Condensed, ';stroke-width:0.264583"
       transform="translate(1.8644988,26.208792)">
      <path
         d="m 1.8099801,35.975559 q -0.022578,-0.129822 -0.053622,-0.287867 -0.031044,-0.158045 -0.064911,-0.318912 -0.033867,-0.160867 -0.070556,-0.310446 -0.033867,-0.1524 -0.067733,-0.268111 -0.039511,0.129822 -0.084667,0.282223 -0.042334,0.149578 -0.081845,0.307623 -0.039511,0.155222 -0.0762,0.307623 -0.036689,0.1524 -0.064911,0.287867 h -0.245534 q 0.045156,-0.197556 0.098778,-0.397934 0.056445,-0.203201 0.1128892,-0.395112 0.059267,-0.194734 0.1185337,-0.372535 0.059267,-0.1778 0.1157114,-0.330201 -0.039511,-0.160867 -0.0762,-0.254 -0.036689,-0.09313 -0.0762,-0.13829 -0.039511,-0.04798 -0.084667,-0.05927 -0.045156,-0.01411 -0.098778,-0.01411 -0.014111,0 -0.036689,0.0028 -0.019756,0.0028 -0.039511,0.0085 l -0.028222,-0.214489 q 0.036689,-0.0085 0.073378,-0.01411 0.036689,-0.0056 0.067734,-0.0056 0.1778005,0 0.2709341,0.0762 0.095956,0.0762 0.1636894,0.254001 0.042333,0.107245 0.098778,0.301979 0.059267,0.191911 0.1241781,0.440268 0.064911,0.248356 0.1298226,0.536223 0.067734,0.285046 0.1241782,0.575735 z"
         id="path167380" />
      <path
         d="m 2.3038655,34.409222 q 0.053622,-0.03104 0.1100669,-0.0762 0.059267,-0.04516 0.1128892,-0.09596 0.053622,-0.05362 0.098778,-0.107244 0.047978,-0.05644 0.079022,-0.110067 h 0.1862672 v 1.955805 H 2.6481775 v -1.571982 q -0.047978,0.0508 -0.1128892,0.09596 -0.062089,0.04516 -0.1326448,0.08467 z"
         id="path167382" />
    </g>
    <g
       aria-label="λ2"
       id="text97934"
       style="font-size:2.82223px;line-height:1.25;font-family:'Ubuntu Condensed';-inkscape-font-specification:'Ubuntu Condensed, ';stroke-width:0.264583"
       transform="translate(8.0859989,8.18339)">
      <path
         d="m 1.8099801,54.000961 q -0.022578,-0.129822 -0.053622,-0.287867 -0.031044,-0.158045 -0.064911,-0.318912 -0.033867,-0.160867 -0.070556,-0.310445 -0.033867,-0.152401 -0.067733,-0.268112 -0.039511,0.129822 -0.084667,0.282223 -0.042334,0.149578 -0.081845,0.307623 -0.039511,0.155222 -0.0762,0.307623 -0.036689,0.1524 -0.064911,0.287867 h -0.245534 q 0.045156,-0.197556 0.098778,-0.397934 0.056445,-0.203201 0.1128892,-0.395112 0.059267,-0.194734 0.1185337,-0.372535 0.059267,-0.1778 0.1157114,-0.330201 -0.039511,-0.160867 -0.0762,-0.254 -0.036689,-0.09313 -0.0762,-0.13829 -0.039511,-0.04798 -0.084667,-0.05927 -0.045156,-0.01411 -0.098778,-0.01411 -0.014111,0 -0.036689,0.0028 -0.019756,0.0028 -0.039511,0.0085 L 1.0056464,51.83632 q 0.036689,-0.0085 0.073378,-0.01411 0.036689,-0.0056 0.067734,-0.0056 0.1778005,0 0.2709341,0.0762 0.095956,0.0762 0.1636894,0.254001 0.042333,0.107245 0.098778,0.301979 0.059267,0.191911 0.1241781,0.440268 0.064911,0.248356 0.1298226,0.536223 0.067734,0.285046 0.1241782,0.575735 z"
         id="path167385" />
      <path
         d="M 2.2304875,52.166512 Q 2.3969991,52 2.6368886,52 q 0.2286007,0 0.3499565,0.121356 0.1213559,0.118534 0.1213559,0.372534 0,0.118534 -0.039511,0.225779 -0.039511,0.107245 -0.098778,0.208845 -0.059267,0.09878 -0.1298226,0.197556 -0.070556,0.09878 -0.1354671,0.203201 -0.064911,0.1016 -0.1128892,0.214489 -0.047978,0.110067 -0.059267,0.237067 h 0.6152462 v 0.220134 H 2.2728209 v -0.05362 q 0,-0.189089 0.042333,-0.335845 0.045156,-0.146756 0.1072447,-0.26529 0.064911,-0.118534 0.1411115,-0.220134 0.0762,-0.1016 0.1382893,-0.197556 0.064911,-0.09878 0.1072447,-0.200378 0.045156,-0.104423 0.045156,-0.228601 0,-0.149578 -0.059267,-0.21449 -0.059267,-0.06773 -0.1778005,-0.06773 -0.081845,0 -0.1495782,0.03387 -0.064911,0.03104 -0.1185337,0.08184 z"
         id="path167387" />
    </g>
    <g
       aria-label="Δx"
       id="text103356"
       style="font-size:2.82223px;line-height:1.25;font-family:'Ubuntu Condensed';-inkscape-font-specification:'Ubuntu Condensed, ';stroke-width:0.264583"
       transform="translate(14.308,-9.999999)">
      <path
         d="m 1,71.961449 q 0.067733,-0.299157 0.1298226,-0.55598 0.064911,-0.256823 0.1298226,-0.491068 0.064911,-0.234245 0.135467,-0.457201 0.070556,-0.222956 0.1495782,-0.457201 h 0.2540007 q 0.079023,0.234245 0.146756,0.457201 0.070556,0.222956 0.135467,0.457201 0.064911,0.234245 0.1270004,0.491068 0.062089,0.256823 0.1298226,0.55598 z m 0.6660463,-1.639716 q -0.031045,0.09313 -0.073378,0.234245 -0.042333,0.141112 -0.093134,0.324557 -0.0508,0.180622 -0.1072447,0.397934 -0.056445,0.217312 -0.110067,0.462846 H 2.0470474 Q 1.9906028,71.495781 1.9341582,71.278469 1.8805358,71.058335 1.8297357,70.877712 1.7817578,70.694267 1.7394243,70.553156 1.6970909,70.412044 1.6660463,70.321733 Z"
         id="path167390" />
      <path
         d="m 3.0799835,71.176869 q 0.047978,0.08749 0.098778,0.186267 0.053622,0.09878 0.1044225,0.200378 0.0508,0.101601 0.095956,0.203201 0.045156,0.1016 0.079022,0.194734 H 3.2182727 q -0.056445,-0.16369 -0.1326448,-0.310446 -0.073378,-0.149578 -0.1467559,-0.2794 -0.070556,0.129822 -0.1439338,0.2794 -0.070556,0.146756 -0.1270003,0.310446 H 2.436515 q 0.031045,-0.09313 0.0762,-0.191912 0.047978,-0.1016 0.098778,-0.203201 0.0508,-0.1016 0.1016003,-0.197556 Q 2.7667153,71.27 2.8146935,71.182513 L 2.4506262,70.479778 h 0.245534 l 0.2540007,0.502357 0.2568229,-0.502357 h 0.2370673 z"
         id="path167392" />
    </g>
  </g>
  <g
     inkscape:groupmode="layer"
     id="layer2"
     inkscape:label="components"
     style="display:none">
    <circle
       cx="10.16"
       cy="30"
       fill="#ff0000"
       id="FreqKnob"
       style="display:inline;stroke-width:0.470371"
       inkscape:label="FreqKnob"
       r="1.5875mm" />
    <circle
       cx="10.16"
       cy="42"
       fill="#00ff00"
       id="FreqSocket"
       style="display:inline;stroke-width:0.352777"
       r="0.79374999mm"
       inkscape:label="FreqSocket" />
    <circle
       cx="3.8099999"
       cy="67"
       fill="#ff0000"
       id="L1Knob"
       style="display:inline;stroke-width:0.235185"
       inkscape:label="L1Knob"
       r="0.79374999mm" />
    <circle
       cx="3.8099999"
       cy="76"
       fill="#00ff00"
       id="L1Socket"
       style="display:inline;stroke-width:0.352777"
       r="0.79374999mm"
       inkscape:label="L1Socket" />
    <circle
       cx="10.16"
       cy="67"
       fill="#ff0000"
       id="L2Knob"
       style="display:inline;stroke-width:0.235185"
       inkscape:label="L2Knob"
       r="0.79374999mm" />
    <circle
       cx="10.16"
       cy="76"
       fill="#00ff00"
       id="L2Socket"
       style="display:inline;stroke-width:0.352777"
       r="0.79374999mm"
       inkscape:label="L2Socket" />
    <circle
       cx="16.51"
       cy="67"
       fill="#ff0000"
       id="DxKnob"
       style="display:inline;stroke-width:0.235185"
       inkscape:label="DxKnob"
       r="0.79374999mm" />
    <circle
       cx="16.51"
       cy="76"
       fill="#00ff00"
       id="DxSocket"
       style="display:inline;stroke-width:0.352777"
       r="0.79374999mm"
       inkscape:label="DxSocket" />
    <circle
       cx="15.3"
       cy="106"
       fill="#0000ff"
       id="OutSocket"
       style="display:inline;fill:#0000f4;fill-opacity:1;stroke-width:0.35277"
       inkscape:label="OutSocket"
       r="3" />
  </g>
  <g
     aria-label="OUT"
     id="text154478"
     style="font-size:2.82223px;line-height:1.25;font-family:'Ubuntu Condensed';-inkscape-font-specification:'Ubuntu Condensed, ';stroke-width:0.264583"
     transform="translate(1.951949,1.000961)">
    <path
       d="m 12.549404,99.023508 q 0,0.228601 -0.04233,0.41769 -0.03951,0.186268 -0.127,0.321735 -0.08467,0.132644 -0.217312,0.206022 -0.129823,0.07344 -0.307623,0.07344 -0.177801,0 -0.310446,-0.07344 -0.129822,-0.07338 -0.217311,-0.206022 -0.08467,-0.135467 -0.127001,-0.321735 -0.04233,-0.189089 -0.04233,-0.41769 0,-0.2286 0.04233,-0.41769 0.04233,-0.189089 0.127001,-0.321734 0.08749,-0.135467 0.217311,-0.208845 0.132645,-0.0762 0.310446,-0.0762 0.1778,0 0.307623,0.0762 0.132645,0.07338 0.217312,0.208845 0.08749,0.132645 0.127,0.321734 0.04233,0.18909 0.04233,0.41769 z m -0.270934,0 q 0,-0.1778 -0.02258,-0.324556 -0.02258,-0.146756 -0.07338,-0.251179 -0.0508,-0.107244 -0.132644,-0.166511 -0.07902,-0.05927 -0.194734,-0.05927 -0.115712,0 -0.197556,0.05927 -0.07902,0.05927 -0.129823,0.166511 -0.0508,0.104423 -0.0762,0.251179 -0.02258,0.146756 -0.02258,0.324556 0,0.177801 0.02258,0.324557 0.0254,0.146756 0.0762,0.251178 0.0508,0.104423 0.129823,0.16369 0.08184,0.05644 0.197556,0.05644 0.115711,0 0.194734,-0.05644 0.08184,-0.05927 0.132644,-0.16369 0.0508,-0.104422 0.07338,-0.251178 0.02258,-0.146756 0.02258,-0.324557 z"
       id="path167395" />
    <path
       d="m 13.475094,100.04233 q -0.273756,0 -0.412045,-0.155219 -0.135467,-0.155223 -0.135467,-0.491068 v -1.351848 h 0.254001 v 1.32927 q 0,0.222956 0.06491,0.335845 0.06491,0.110067 0.234245,0.110067 0.174978,0 0.237067,-0.112889 0.06491,-0.115711 0.06491,-0.333023 v -1.32927 h 0.254 v 1.351848 q 0,0.330201 -0.141111,0.488246 -0.141112,0.158041 -0.420513,0.158041 z"
       id="path167397" />
    <path
       d="m 15.41961,98.044195 v 0.217311 H 14.984987 V 100 h -0.254001 v -1.738494 h -0.434623 v -0.217311 z"
       id="path167399" />
  </g>
</svg>
