<?xml version="1.0" encoding="UTF-8" standalone="no"?>
<!-- Created with Inkscape (http://www.inkscape.org/) -->

<svg
   width="10.16mm"
   height="128.5mm"
   viewBox="0 0 10.16 128.5"
   version="1.1"
   id="svg470"
   inkscape:version="1.1.2 (0a00cf5339, 2022-02-04)"
   sodipodi:docname="Logistic Scratch.svg"
   xmlns:inkscape="http://www.inkscape.org/namespaces/inkscape"
   xmlns:sodipodi="http://sodipodi.sourceforge.net/DTD/sodipodi-0.dtd"
   xmlns="http://www.w3.org/2000/svg"
   xmlns:svg="http://www.w3.org/2000/svg">
  <sodipodi:namedview
     id="namedview472"
     pagecolor="#ffffff"
     bordercolor="#666666"
     borderopacity="1.0"
     inkscape:pageshadow="2"
     inkscape:pageopacity="1"
     inkscape:pagecheckerboard="false"
     inkscape:document-units="mm"
     showgrid="true"
     width="40.64mm"
     inkscape:zoom="4.253275"
     inkscape:cx="-3.5266941"
     inkscape:cy="67.830084"
     inkscape:window-width="1920"
     inkscape:window-height="1019"
     inkscape:window-x="0"
     inkscape:window-y="0"
     inkscape:window-maximized="1"
     inkscape:current-layer="layer2"
     objecttolerance="20"
     guidetolerance="10000"
     showguides="true">
    <inkscape:grid
       type="xygrid"
       id="grid1902"
       units="mm"
       dotted="false"
       originx="0"
       originy="0"
       spacingx="1"
       spacingy="1"
       snapvisiblegridlinesonly="false"
       visible="true"
       empspacing="10" />
  </sodipodi:namedview>
  <defs
     id="defs467" />
  <rect
     style="display:inline;fill:#e8e5e0;fill-opacity:1;stroke-width:0.132291"
     id="rect981"
     width="10.16"
     height="128.5"
     x="0"
     y="-5.5511151e-17" />
  <rect
     style="display:inline;fill:#999593;fill-opacity:1;stroke-width:0.254744"
     id="rect1123-3"
     width="10.16"
     height="16"
     x="0"
     y="96" />
  <g
     inkscape:label="panel"
     inkscape:groupmode="layer"
     id="layer1"
     style="display:inline">
    <path
       style="fill:none;stroke:#000000;stroke-width:0.264583px;stroke-linecap:butt;stroke-linejoin:miter;stroke-opacity:1"
       d="m 5,27.999999 c 0,2.999999 0,2.999999 0,2.999999"
       id="path32265" />
    <g
       aria-label="logistic
scratch"
       id="text2421"
       style="font-size:2.11667px;line-height:1.25;font-family:Ubuntu;-inkscape-font-specification:Ubuntu;stroke-width:0.264583"
       transform="matrix(1.0334678,0,0,1.0334678,1.4924997,2.5636346)">
      <path
         d="m 0.49953331,4.0211664 q -0.18203333,-0.00423 -0.25823332,-0.078317 -0.0762,-0.074083 -0.0762,-0.2307167 V 2.3913332 l 0.19684999,-0.033867 v 1.3229166 q 0,0.048683 0.008467,0.080433 0.008467,0.03175 0.0275167,0.0508 0.01905,0.01905 0.0508,0.029633 0.03175,0.00847 0.0783167,0.014817 z"
         id="path13521" />
      <path
         d="m 1.7187307,3.4496665 q 0,0.1312333 -0.0381,0.2370666 -0.0381,0.1058333 -0.10795,0.1820333 -0.067733,0.0762 -0.1629833,0.1185334 -0.09525,0.040217 -0.2074333,0.040217 -0.1121834,0 -0.20743337,-0.040217 -0.09525,-0.042333 -0.16509999,-0.1185334 -0.0677333,-0.0762 -0.10583333,-0.1820333 -0.0381,-0.1058333 -0.0381,-0.2370666 0,-0.1291167 0.0381,-0.23495 0.0381,-0.10795 0.10583333,-0.18415 0.06985,-0.0762 0.16509999,-0.1164167 0.09525,-0.042333 0.20743337,-0.042333 0.1121833,0 0.2074333,0.042333 0.09525,0.040217 0.1629833,0.1164167 0.06985,0.0762 0.10795,0.18415 0.0381,0.1058333 0.0381,0.23495 z m -0.2053167,0 q 0,-0.1862667 -0.084667,-0.2942167 -0.08255,-0.1100667 -0.2264833,-0.1100667 -0.1439334,0 -0.22860003,0.1100667 -0.08255,0.10795 -0.08255,0.2942167 0,0.1862666 0.08255,0.2963333 0.0846666,0.10795 0.22860003,0.10795 0.1439333,0 0.2264833,-0.10795 0.084667,-0.1100667 0.084667,-0.2963333 z"
         id="path13523" />
      <path
         d="m 2.6860437,3.8899331 q -0.0254,0.016933 -0.099483,0.04445 -0.071967,0.0254 -0.1693333,0.0254 -0.099483,0 -0.1883834,-0.03175 -0.086783,-0.03175 -0.1524,-0.097367 -0.065617,-0.067733 -0.1037166,-0.1672166 -0.0381,-0.099483 -0.0381,-0.2370667 0,-0.12065 0.035983,-0.2201333 0.035983,-0.1016 0.1037167,-0.1735667 0.06985,-0.074083 0.1693333,-0.1142999 0.099483,-0.042333 0.2243667,-0.042333 0.1375833,0 0.2391833,0.021167 0.1037166,0.01905 0.1735666,0.035983 v 0.9821333 q 0,0.254 -0.1312333,0.3683 -0.1312333,0.1143 -0.3979333,0.1143 -0.1037167,0 -0.19685,-0.016933 -0.091017,-0.016933 -0.15875,-0.040217 l 0.035983,-0.17145 q 0.059267,0.023283 0.1439334,0.040217 0.086783,0.01905 0.1799166,0.01905 0.1756833,0 0.2518833,-0.06985 0.078317,-0.06985 0.078317,-0.22225 z M 2.683927,3.0728998 q -0.029633,-0.00847 -0.080433,-0.014817 -0.048683,-0.00847 -0.13335,-0.00847 -0.15875,0 -0.2455333,0.1037166 -0.084667,0.1037167 -0.084667,0.2751667 0,0.09525 0.023283,0.1629833 0.0254,0.067733 0.065617,0.1121833 0.042333,0.04445 0.09525,0.065617 0.055033,0.021167 0.1121834,0.021167 0.078317,0 0.1439333,-0.021167 0.065617,-0.023283 0.1037166,-0.052917 z"
         id="path13525" />
      <path
         d="M 3.4162917,3.9999998 H 3.2194418 V 2.8993332 H 3.4162917 Z M 3.3168084,2.7003665 q -0.052917,0 -0.091017,-0.033867 -0.035983,-0.035983 -0.035983,-0.09525 0,-0.059267 0.035983,-0.093133 0.0381,-0.035983 0.091017,-0.035983 0.052917,0 0.0889,0.035983 0.0381,0.033867 0.0381,0.093133 0,0.059267 -0.0381,0.09525 -0.035983,0.033867 -0.0889,0.033867 z"
         id="path13527" />
      <path
         d="m 4.0110716,3.8581831 q 0.12065,0 0.1778,-0.03175 0.059267,-0.03175 0.059267,-0.1016 0,-0.071967 -0.05715,-0.1143 -0.05715,-0.042333 -0.1883833,-0.09525 -0.0635,-0.0254 -0.1227667,-0.0508 -0.05715,-0.027517 -0.099483,-0.0635 -0.042333,-0.035983 -0.067733,-0.086783 -0.0254,-0.0508 -0.0254,-0.1248833 0,-0.14605 0.10795,-0.2307167 0.10795,-0.086783 0.2942166,-0.086783 0.046567,0 0.093133,0.00635 0.046567,0.00423 0.086783,0.0127 0.040217,0.00635 0.06985,0.014817 0.03175,0.00847 0.048683,0.014817 l -0.035983,0.1693333 q -0.03175,-0.016933 -0.099483,-0.033867 -0.067733,-0.01905 -0.1629834,-0.01905 -0.08255,0 -0.1439333,0.033867 -0.061383,0.03175 -0.061383,0.1016 0,0.035983 0.0127,0.0635 0.014817,0.027517 0.042333,0.0508 0.029633,0.021167 0.071967,0.040217 0.042333,0.01905 0.1016,0.040217 0.078317,0.029633 0.1397,0.059267 0.061383,0.027517 0.1037166,0.065617 0.04445,0.0381 0.067733,0.093133 0.023283,0.052917 0.023283,0.1312333 0,0.1524 -0.1143,0.2307167 -0.1121833,0.078317 -0.3217333,0.078317 -0.14605,0 -0.2286,-0.0254 -0.08255,-0.023283 -0.1121833,-0.035983 l 0.035983,-0.1693333 q 0.033867,0.0127 0.10795,0.0381 0.074083,0.0254 0.19685,0.0254 z"
         id="path13529" />
      <path
         d="M 4.8831364,2.8993332 H 5.3001197 V 3.0644331 H 4.8831364 v 0.508 q 0,0.08255 0.0127,0.1375833 0.0127,0.052917 0.0381,0.084667 0.0254,0.029633 0.0635,0.042333 0.0381,0.0127 0.0889,0.0127 0.0889,0 0.1418166,-0.01905 0.055033,-0.021167 0.0762,-0.029633 l 0.0381,0.1629833 q -0.029633,0.014817 -0.1037166,0.035983 -0.074083,0.023283 -0.1693334,0.023283 -0.1121833,0 -0.1862666,-0.027517 -0.071967,-0.029633 -0.1164167,-0.086783 -0.04445,-0.05715 -0.0635,-0.1397 -0.016933,-0.084667 -0.016933,-0.1947333 V 2.5924165 l 0.19685,-0.033867 z"
         id="path13531" />
      <path
         d="m 5.7467332,3.9999998 h -0.19685 V 2.8993332 h 0.19685 z M 5.6472499,2.7003665 q -0.052917,0 -0.091017,-0.033867 -0.035983,-0.035983 -0.035983,-0.09525 0,-0.059267 0.035983,-0.093133 0.0381,-0.035983 0.091017,-0.035983 0.052917,0 0.0889,0.035983 0.0381,0.033867 0.0381,0.093133 0,0.059267 -0.0381,0.09525 -0.035983,0.033867 -0.0889,0.033867 z"
         id="path13533" />
      <path
         d="m 6.5637628,4.0253998 q -0.13335,0 -0.23495,-0.042333 -0.099483,-0.042333 -0.1693333,-0.1185333 -0.067733,-0.0762 -0.1016,-0.1799167 -0.033867,-0.1058333 -0.033867,-0.2328333 0,-0.127 0.035983,-0.2328333 0.0381,-0.1058333 0.1058333,-0.1820333 0.067733,-0.078317 0.1651,-0.12065 0.099483,-0.04445 0.2201333,-0.04445 0.074083,0 0.1481667,0.0127 0.074083,0.0127 0.1418166,0.040217 l -0.04445,0.1672166 q -0.04445,-0.021167 -0.1037166,-0.033867 -0.05715,-0.0127 -0.1227667,-0.0127 -0.1651,0 -0.254,0.1037167 -0.086783,0.1037167 -0.086783,0.3026833 0,0.0889 0.01905,0.1629833 0.021167,0.074083 0.0635,0.127 0.04445,0.052917 0.1121833,0.08255 0.067733,0.027517 0.1651,0.027517 0.078317,0 0.1418167,-0.014817 0.0635,-0.014817 0.099483,-0.03175 l 0.027517,0.1651 q -0.016933,0.010583 -0.048683,0.021167 -0.03175,0.00847 -0.071967,0.014817 -0.040217,0.00847 -0.086783,0.0127 -0.04445,0.00635 -0.086783,0.00635 z"
         id="path13535" />
      <path
         d="m 0.42544998,6.5040163 q 0.12064999,0 0.17779999,-0.03175 0.0592667,-0.03175 0.0592667,-0.1016 0,-0.071967 -0.05715,-0.1143 -0.05715,-0.042333 -0.18838332,-0.09525 -0.0635,-0.0254 -0.12276666,-0.0508 -0.05715,-0.027517 -0.0994833,-0.0635 -0.0423333,-0.035983 -0.0677333,-0.086783 -0.0254,-0.0508 -0.0254,-0.1248833 0,-0.14605 0.10795,-0.2307167 0.10794999,-0.086783 0.29421665,-0.086783 0.0465667,0 0.0931333,0.00635 0.0465667,0.00423 0.0867833,0.0127 0.0402167,0.00635 0.06985,0.014817 0.03175,0.00847 0.0486833,0.014817 l -0.0359833,0.1693333 q -0.03175,-0.016933 -0.0994833,-0.033867 -0.0677333,-0.01905 -0.16298332,-0.01905 -0.08255,0 -0.14393333,0.033867 -0.0613833,0.03175 -0.0613833,0.1016 0,0.035983 0.0127,0.0635 0.0148167,0.027517 0.0423333,0.0508 0.0296333,0.021167 0.0719667,0.040217 0.0423333,0.01905 0.10159999,0.040217 0.0783167,0.029633 0.13969999,0.059267 0.0613833,0.027517 0.10371667,0.065617 0.04445,0.0381 0.0677333,0.093133 0.0232833,0.052917 0.0232833,0.1312333 0,0.1524 -0.1143,0.2307167 -0.11218332,0.078317 -0.32173331,0.078317 -0.14604999,0 -0.22859999,-0.0254 -0.08255,-0.023283 -0.11218333,-0.035983 L 0.12064999,6.4405163 q 0.0338667,0.0127 0.10795,0.0381 0.0740833,0.0254 0.19684999,0.0254 z"
         id="path13537" />
      <path
         d="m 1.5917314,6.671233 q -0.13335,0 -0.2349499,-0.042333 -0.099483,-0.042333 -0.1693334,-0.1185333 -0.067733,-0.0762 -0.1016,-0.1799167 -0.033867,-0.1058333 -0.033867,-0.2328333 0,-0.127 0.035983,-0.2328333 0.0381,-0.1058333 0.1058333,-0.1820333 0.067733,-0.078317 0.1651,-0.12065 0.099483,-0.04445 0.2201333,-0.04445 0.074083,0 0.1481667,0.0127 0.074083,0.0127 0.1418167,0.040217 l -0.04445,0.1672167 q -0.04445,-0.021167 -0.1037167,-0.033867 -0.05715,-0.0127 -0.1227667,-0.0127 -0.1650999,0 -0.2539999,0.1037167 -0.086783,0.1037167 -0.086783,0.3026833 0,0.0889 0.01905,0.1629833 0.021167,0.074083 0.0635,0.127 0.04445,0.052917 0.1121834,0.08255 0.067733,0.027517 0.1650999,0.027517 0.078317,0 0.1418167,-0.014817 0.0635,-0.014817 0.099483,-0.03175 l 0.027517,0.1651 q -0.016933,0.010583 -0.048683,0.021167 -0.03175,0.00847 -0.071967,0.014817 -0.040217,0.00847 -0.086783,0.0127 -0.04445,0.00635 -0.086783,0.00635 z"
         id="path13539" />
      <path
         d="m 2.504011,5.521883 q 0.0254,0 0.05715,0.00423 0.033867,0.00212 0.065617,0.00847 0.03175,0.00423 0.05715,0.010583 0.027517,0.00423 0.040217,0.00847 l -0.033867,0.17145 q -0.023283,-0.00847 -0.078317,-0.01905 -0.052917,-0.0127 -0.1375833,-0.0127 -0.055033,0 -0.1100667,0.0127 -0.052917,0.010583 -0.06985,0.014817 v 0.92498 H 2.0976111 v -1.0541 Q 2.1674611,5.566333 2.2711777,5.545166 2.3748944,5.521883 2.504011,5.521883 Z"
         id="path13541" />
      <path
         d="m 3.2871769,6.5040163 q 0.06985,0 0.1227667,-0.00212 0.055033,-0.00423 0.091017,-0.0127 v -0.32808 q -0.021167,-0.010583 -0.06985,-0.016933 -0.046567,-0.00847 -0.1143,-0.00847 -0.04445,0 -0.09525,0.00635 -0.048683,0.00635 -0.091017,0.027517 -0.040217,0.01905 -0.067733,0.055033 -0.027517,0.033867 -0.027517,0.091017 0,0.1058333 0.067733,0.1481666 0.067733,0.040217 0.1841499,0.040217 z M 3.2702436,5.5176497 q 0.1185333,0 0.1989667,0.03175 0.08255,0.029633 0.1312333,0.086783 0.0508,0.055033 0.071967,0.13335 0.021167,0.0762 0.021167,0.1693333 v 0.687917 q -0.0254,0.00423 -0.071967,0.0127 -0.04445,0.00635 -0.1016,0.0127 -0.05715,0.00635 -0.1248834,0.010583 -0.065617,0.00635 -0.1312333,0.00635 -0.093133,0 -0.17145,-0.01905 -0.078317,-0.01905 -0.1354666,-0.059267 -0.05715,-0.042333 -0.0889,-0.1100666 -0.03175,-0.067733 -0.03175,-0.1629834 0,-0.091017 0.035983,-0.1566333 0.0381,-0.065617 0.1016,-0.1058333 0.0635,-0.040217 0.1481667,-0.059267 0.084667,-0.01905 0.1777999,-0.01905 0.029633,0 0.061383,0.00423 0.03175,0.00212 0.059267,0.00847 0.029633,0.00423 0.0508,0.00847 0.021167,0.00423 0.029633,0.00635 v -0.055033 q 0,-0.048683 -0.010583,-0.09525 -0.010583,-0.048683 -0.0381,-0.084667 -0.027517,-0.0381 -0.0762,-0.059267 -0.046567,-0.023283 -0.1227666,-0.023283 -0.097367,0 -0.17145,0.014817 -0.071967,0.0127 -0.10795,0.027517 L 2.950627,5.566333 q 0.0381,-0.016933 0.127,-0.03175 0.0889,-0.016933 0.1926166,-0.016933 z"
         id="path13543" />
      <path
         d="m 4.2036923,5.5451663 h 0.4169833 v 0.1651 H 4.2036923 v 0.508 q 0,0.08255 0.0127,0.1375833 0.0127,0.052917 0.0381,0.084667 0.0254,0.029633 0.0635,0.042333 0.0381,0.0127 0.0889,0.0127 0.0889,0 0.1418167,-0.01905 0.055033,-0.021167 0.0762,-0.029633 l 0.0381,0.1629833 q -0.029633,0.014817 -0.1037167,0.035983 -0.074083,0.023283 -0.1693333,0.023283 -0.1121834,0 -0.1862667,-0.027517 -0.071967,-0.029633 -0.1164166,-0.086783 -0.04445,-0.05715 -0.0635,-0.1397 Q 4.0068423,6.3304496 4.0068423,6.220383 V 5.2382497 l 0.19685,-0.033867 z"
         id="path13545" />
      <path
         d="m 5.3212878,6.671233 q -0.13335,0 -0.23495,-0.042333 -0.099483,-0.042333 -0.1693333,-0.1185333 -0.067733,-0.0762 -0.1016,-0.1799167 -0.033867,-0.1058333 -0.033867,-0.2328333 0,-0.127 0.035983,-0.2328333 0.0381,-0.1058333 0.1058334,-0.1820333 0.067733,-0.078317 0.1650999,-0.12065 0.099483,-0.04445 0.2201334,-0.04445 0.074083,0 0.1481666,0.0127 0.074083,0.0127 0.1418167,0.040217 l -0.04445,0.1672167 q -0.04445,-0.021167 -0.1037167,-0.033867 -0.05715,-0.0127 -0.1227666,-0.0127 -0.1651,0 -0.254,0.1037167 -0.086783,0.1037167 -0.086783,0.3026833 0,0.0889 0.01905,0.1629833 0.021167,0.074083 0.0635,0.127 0.04445,0.052917 0.1121834,0.08255 0.067733,0.027517 0.1651,0.027517 0.078317,0 0.1418166,-0.014817 0.0635,-0.014817 0.099483,-0.03175 l 0.027517,0.1651 q -0.016933,0.010583 -0.048683,0.021167 -0.03175,0.00847 -0.071967,0.014817 -0.040217,0.00847 -0.086783,0.0127 -0.04445,0.00635 -0.086783,0.00635 z"
         id="path13547" />
      <path
         d="M 5.8271674,6.645833 V 5.0371664 l 0.19685,-0.033867 V 5.566333 q 0.055033,-0.021167 0.1164166,-0.03175 0.0635,-0.0127 0.1248834,-0.0127 0.1312333,0 0.2180166,0.0381 0.086783,0.035983 0.1375833,0.1037167 0.052917,0.065617 0.074083,0.15875 0.021167,0.093133 0.021167,0.2053166 V 6.645833 h -0.19685 V 6.0700997 q 0,-0.1016 -0.014817,-0.1735667 -0.0127,-0.071967 -0.04445,-0.1164167 -0.03175,-0.04445 -0.084667,-0.0635 -0.052917,-0.021167 -0.1312333,-0.021167 -0.03175,0 -0.065617,0.00423 -0.033867,0.00423 -0.065617,0.010583 -0.029633,0.00423 -0.055033,0.010583 -0.023283,0.00635 -0.033867,0.010583 v 0.9144 z"
         id="path13549" />
    </g>
    <path
       style="display:inline;fill:#000000;stroke-width:0.256427"
       d="m 1.121818,122.99351 c -0.03895,-0.87892 0.0074,-0.94127 0.676794,-0.90935 0.592699,0.0282 0.618282,0.0531 0.146007,0.14137 -0.416041,0.0778 -0.601093,0.32647 -0.676794,0.90936 -0.100103,0.77081 -0.105827,0.76526 -0.146007,-0.14138 z m 1.438882,0.37746 c 0.08798,-0.33624 0.348012,-0.56618 0.640289,-0.56618 0.2706833,0 0.4921523,-0.11324 0.4921523,-0.25164 0,-0.13839 -0.159216,-0.25163 -0.353815,-0.25163 -0.1945983,0 -0.6677623,-0.28018 -1.0514773,-0.62261 -0.383715,-0.34245 -0.753661,-0.62554 -0.822101,-0.62909 -0.06844,-0.004 -0.124436,-0.063 -0.124436,-0.13228 v -0.301 c 0,-0.0963 0.382172,0.1707 0.849271,0.59342 0.57354,0.51907 1.582834,0.98443 3.1086934,1.43334 2.72786,0.80257 3.077277,0.82123 3.025669,0.16152 -0.02826,-0.36128 -0.170622,-0.4631 -0.504743,-0.36099 -0.364501,0.11141 -0.426807,0.0432 -0.287438,-0.31458 0.155991,-0.40047 0.12397,-0.41455 -0.25963,-0.11412 -0.572561,0.44842 -1.26488,0.19257 -1.071773,-0.39607 0.140142,-0.42721 0.128587,-0.42768 -0.229199,-0.01 -0.481338,0.56255 -0.711137,0.55877 -0.711137,-0.0117 0,-0.32913 0.195394,-0.44784 0.718613,-0.4366 0.562469,0.0121 0.699371,0.12104 0.630055,0.50142 -0.07456,0.40915 -0.02569,0.43574 0.309153,0.16814 0.553362,-0.44223 1.739262,0.30903 1.739262,1.10182 0,0.83186 -0.558794,0.91682 -2.254806,0.3428 l -1.502355,-0.50848 -0.4674357,0.5851 c -0.2570927,0.32181 -0.4700517,0.45024 -0.4732477,0.28541 -0.0032,-0.16484 0.111783,-0.36967 0.255505,-0.45521 0.1437227,-0.0855 0.2613147,-0.25965 0.2613147,-0.38691 0,-0.30875 -1.3542307,0.28008 -1.7508747,0.76129 -0.262658,0.31865 -0.289564,0.28847 -0.165509,-0.18566 z m 1.45691,-2.10626 c -0.791051,-0.48781 -0.839522,-0.49198 -0.6833307,-0.0587 0.10338,0.28681 -0.2218403,0.10236 -0.8445923,-0.47901 -0.837037,-0.7814 -0.962861,-1.02148 -0.725342,-1.38398 0.254583,-0.38854 0.679124,-0.42846 3.7212214,-0.34992 2.960695,0.0765 3.433856,0.0351 3.433856,-0.29969 0,-0.21359 -0.113739,-0.45604 -0.252756,-0.53877 -0.139014,-0.0827 -0.184242,-0.4803 -0.100502,-0.88348 0.130239,-0.62708 0.0588,-0.75565 -0.494075,-0.88927 -0.36303,-0.0878 -1.073369,0.0156 -1.620608,0.23579 -0.861674,0.34669 -1.019137,0.34881 -1.362348,0.0184 -0.5104987,-0.49159 -0.6997837,-0.4722 -1.2653354,0.12958 -0.2601357,0.27679 -0.601738,0.50153 -0.759116,0.4994 -0.157378,-0.002 -0.109755,-0.11362 0.105829,-0.24777 0.3065833,-0.19079 0.2387853,-0.24477 -0.31122,-0.24778 -0.386756,-0.002 -0.775869,0.10938 -0.864694,0.24778 -0.08883,0.13839 0.05123,0.25564 0.311221,0.26055 0.376242,0.007 0.33939,0.0824 -0.180563,0.36853 -0.87971,0.48425 -1.186472,0.46753 -0.750611,-0.0409 0.279598,-0.32617 0.286649,-0.4417 0.032,-0.52424 C 1.22699,117.02303 1.08,116.86489 1.08,116.72985 c 0,-0.13503 0.116661,-0.17609 0.259245,-0.0912 0.142585,0.0848 0.451664,0.0506 0.686842,-0.0762 0.518482,-0.2794 0.02663,-0.6753 -0.566629,-0.45607 -0.208701,0.0771 -0.379458,0.0305 -0.379458,-0.10353 0,-0.35898 0.870615,-0.29636 1.438441,0.10346 0.366447,0.25802 0.683328,0.28332 1.2339083,0.0985 0.5182857,-0.17398 0.9667914,-0.15855 1.4930171,0.0514 0.568072,0.22659 0.888868,0.22958 1.310597,0.0123 0.307127,-0.15829 0.935148,-0.25269 1.395606,-0.20981 0.736595,0.0686 0.839232,0.17009 0.854127,0.84442 0.0093,0.42153 0.09983,0.89558 0.201144,1.05345 0.167782,0.26142 0.02109,2.31147 -0.179214,2.50433 -0.04662,0.0449 -0.449461,-0.0408 -0.8952,-0.19042 -0.598997,-0.20107 -0.767722,-0.3819 -0.646731,-0.69311 0.142584,-0.36677 0.106828,-0.37654 -0.2772,-0.0757 -0.35629,0.27908 -0.440897,0.28192 -0.440897,0.0148 0,-0.20126 -0.150057,-0.1395 -0.383661,0.15791 -0.211015,0.26866 -0.387401,0.39955 -0.391972,0.29088 -0.0045,-0.10868 -0.237772,-0.0793 -0.518222,0.0652 -0.37395,0.19273 -0.4835367,0.46345 -0.411,1.01539 0.0544,0.41392 0.07807,0.75069 0.05261,0.74836 -0.02548,-0.002 -0.4294527,-0.24052 -0.8977444,-0.52931 z m 0.7207877,-0.22135 c 0,-0.1384 -0.05186,-0.25163 -0.115237,-0.25163 -0.06338,0 -0.187911,0.11323 -0.276735,0.25163 -0.08883,0.13839 -0.03697,0.25163 0.115235,0.25163 0.152205,0 0.276737,-0.11324 0.276737,-0.25163 z M 3.023591,119.89072 c 0.4928183,-0.47456 0.3137353,-0.86042 -0.399332,-0.86042 -0.636205,0 -0.96887,0.72496 -0.471754,1.02807 0.462158,0.28179 0.389914,0.2957 0.871086,-0.16765 z m 5.6345174,0.0359 c 0,-0.20669 -0.224067,-0.34555 -0.522629,-0.3239 -0.644455,0.0467 -0.683967,0.35658 -0.06533,0.51226 0.251515,0.0633 0.486698,0.12821 0.522629,0.14427 0.03593,0.0161 0.06533,-0.13363 0.06533,-0.33263 z m -3.13577,-0.42001 c 0,-0.33158 -1.5057534,-0.27346 -1.7239814,0.0666 -0.1280847,0.19957 -0.0096,0.2466 0.376547,0.14938 0.3099217,-0.0781 0.5634937,-0.0428 0.5634937,0.0783 0,0.1211 0.1763867,0.155 0.3919707,0.0753 0.215584,-0.0797 0.39197,-0.24596 0.39197,-0.36956 z m -1.2188127,-1.87724 c -0.2177937,-0.54653 0.335118,-1.06051 0.7308827,-0.6794 0.33449,0.32209 0.127273,1.07377 -0.2960107,1.07377 -0.152746,0 -0.348436,-0.17747 -0.434872,-0.39437 z m 0.352064,-0.40771 c -0.08342,-0.20073 -0.145338,-0.14111 -0.157878,0.15203 -0.01134,0.26526 0.05042,0.41388 0.137247,0.33026 0.08683,-0.0836 0.09612,-0.30064 0.02062,-0.48229 z"
       id="path1561"
       sodipodi:nodetypes="ssssssssssssssssssssssssssscsssssscssssssssssscscsssssssssssssssssssssssssscscsssssssssssssssssssssssssssss" />
    <g
       aria-label="OUT"
       id="text44"
       style="font-size:4px;font-family:Ubuntu;stroke-width:0.264583"
       transform="matrix(0.70521912,0,0,0.70521912,-7.2941921,28.332862)">
      <path
         d="m 11.761156,100.23593 q 0,-0.355998 0.104,-0.627998 0.108,-0.272 0.288,-0.452 0.184,-0.184 0.424,-0.276 0.244,-0.092 0.516,-0.092 0.268,0 0.504,0.092 0.24,0.092 0.42,0.276 0.18,0.18 0.284,0.452 0.108,0.272 0.108,0.627998 0,0.356 -0.108,0.628 -0.104,0.272 -0.284,0.456 -0.18,0.18 -0.42,0.272 -0.236,0.092 -0.504,0.092 -0.272,0 -0.516,-0.092 -0.24,-0.092 -0.424,-0.272 -0.18,-0.184 -0.288,-0.456 -0.104,-0.272 -0.104,-0.628 z m 0.408,0 q 0,0.252 0.064,0.46 0.064,0.204 0.18,0.348 0.12,0.144 0.288,0.224 0.172,0.076 0.384,0.076 0.212,0 0.38,-0.076 0.168,-0.08 0.284,-0.224 0.12,-0.144 0.184,-0.348 0.064,-0.208 0.064,-0.46 0,-0.251998 -0.064,-0.455998 -0.064,-0.208 -0.184,-0.352 -0.116,-0.144 -0.284,-0.22 -0.168,-0.08 -0.38,-0.08 -0.212,0 -0.384,0.08 -0.168,0.076 -0.288,0.22 -0.116,0.144 -0.18,0.352 -0.064,0.204 -0.064,0.455998 z"
         id="path719" />
      <path
         d="m 16.017155,101.68393 q -0.272,0 -0.472,-0.084 -0.2,-0.084 -0.328,-0.228 -0.128,-0.148 -0.192,-0.348 -0.06,-0.2 -0.06,-0.432 v -1.739998 h 0.388 v 1.695998 q 0,0.416 0.184,0.604 0.184,0.188 0.48,0.188 0.148,0 0.268,-0.044 0.124,-0.048 0.212,-0.144 0.088,-0.096 0.136,-0.244 0.048,-0.152 0.048,-0.36 v -1.695998 h 0.388 v 1.739998 q 0,0.232 -0.064,0.432 -0.06,0.2 -0.192,0.348 -0.128,0.144 -0.328,0.228 -0.196,0.084 -0.468,0.084 z"
         id="path721" />
      <path
         d="m 19.589154,98.851932 v 0.336 h -0.872 v 2.435998 h -0.388 v -2.435998 h -0.872 v -0.336 z"
         id="path723" />
    </g>
    <text
       xml:space="preserve"
       style="font-size:2.82223px;line-height:1.25;font-family:Ubuntu;-inkscape-font-specification:Ubuntu;stroke-width:0.264583"
       x="11"
       y="35"
       id="text14295"><tspan
         sodipodi:role="line"
         id="tspan14293"
         style="stroke-width:0.264583"
         x="11"
         y="35" /></text>
    <g
       aria-label="Freq"
       id="text22867"
       style="font-size:2.11667px;line-height:1.25;font-family:Ubuntu;-inkscape-font-specification:Ubuntu;stroke-width:0.264583"
       transform="translate(-15.182033,-0.53315)">
      <path
         d="M 17.182033,18 V 16.53315 H 18.0668 v 0.175683 h -0.67945 v 0.442384 h 0.60325 v 0.173566 H 17.38735 V 18 Z"
         id="path27891" />
      <path
         d="m 18.65311,16.87605 q 0.0254,0 0.05715,0.0042 0.03387,0.0021 0.06562,0.0085 0.03175,0.0042 0.05715,0.01058 0.02752,0.0042 0.04022,0.0085 l -0.03387,0.17145 q -0.02328,-0.0085 -0.07832,-0.01905 -0.05292,-0.0127 -0.137583,-0.0127 -0.05503,0 -0.110067,0.0127 -0.05292,0.01058 -0.06985,0.01482 V 18 h -0.19685 v -1.0541 q 0.06985,-0.0254 0.173567,-0.04657 0.103716,-0.02328 0.232833,-0.02328 z"
         id="path27893" />
      <path
         d="m 19.002359,17.451783 q 0,-0.14605 0.04233,-0.254 0.04233,-0.110066 0.112183,-0.182033 0.06985,-0.07197 0.160867,-0.10795 0.09102,-0.03598 0.186266,-0.03598 0.22225,0 0.340784,0.1397 0.118533,0.137583 0.118533,0.421216 0,0.0127 0,0.03387 0,0.01905 -0.0021,0.03598 h -0.753533 q 0.0127,0.17145 0.09948,0.26035 0.08678,0.0889 0.270934,0.0889 0.103716,0 0.173566,-0.01693 0.07197,-0.01905 0.10795,-0.03598 l 0.02752,0.1651 q -0.03598,0.01905 -0.127,0.04022 -0.0889,0.02117 -0.2032,0.02117 -0.143933,0 -0.249767,-0.04233 -0.103716,-0.04445 -0.17145,-0.12065 -0.06773,-0.0762 -0.1016,-0.179917 -0.03175,-0.105833 -0.03175,-0.230717 z m 0.75565,-0.10795 q 0.0021,-0.13335 -0.06773,-0.218016 -0.06773,-0.08678 -0.188383,-0.08678 -0.06773,0 -0.12065,0.02752 -0.0508,0.0254 -0.08678,0.06773 -0.03598,0.04233 -0.05715,0.09737 -0.01905,0.05503 -0.0254,0.112183 z"
         id="path27895" />
      <path
         d="m 20.390889,17.451783 q 0,0.08467 0.01693,0.15875 0.01693,0.07197 0.05503,0.127 0.0381,0.05292 0.09737,0.08467 0.06138,0.02963 0.14605,0.02963 0.08043,0 0.148167,-0.02752 0.06773,-0.02752 0.103716,-0.05715 V 17.0729 q -0.02963,-0.0085 -0.08043,-0.01482 -0.04868,-0.0064 -0.137583,-0.0064 -0.15875,0 -0.254,0.103717 -0.09525,0.103717 -0.09525,0.296333 z m -0.205317,0 q 0,-0.13335 0.0381,-0.239183 0.04022,-0.10795 0.112183,-0.182033 0.07197,-0.07408 0.173567,-0.1143 0.1016,-0.04022 0.2286,-0.04022 0.137583,0 0.2413,0.02117 0.105833,0.01905 0.175683,0.03598 v 1.458383 h -0.19685 V 17.951317 Q 20.922172,17.9746 20.848089,18 q -0.07197,0.0254 -0.167217,0.0254 -0.118533,0 -0.211667,-0.04233 -0.09102,-0.04233 -0.154516,-0.118534 -0.0635,-0.0762 -0.09737,-0.182033 -0.03175,-0.105833 -0.03175,-0.230717 z"
         id="path27897" />
    </g>
  </g>
  <g
     inkscape:groupmode="layer"
     id="layer2"
     inkscape:label="components"
     style="display:inline">
    <circle
       cx="5"
       cy="23.999996"
       fill="#ff0000"
       id="FreqKnob"
       style="display:inline;stroke-width:0.352778"
       r="1.1906251mm"
       inkscape:label="FreqKnob" />
    <circle
       cx="5"
       cy="33"
       fill="#00ff00"
       id="FreqCVInput"
       style="display:inline;stroke-width:0.352777"
       r="0.79374999mm"
       inkscape:label="FreqCVInput" />
    <circle
       cx="5"
       cy="106"
       fill="#0000ff"
       id="OutSocket"
       style="display:inline;fill:#0000f4;fill-opacity:1;stroke-width:0.35277"
       inkscape:label="OutSocket"
       r="4" />
  </g>
</svg>
