<?xml version="1.0" encoding="UTF-8" standalone="no"?>
<!-- Created with Inkscape (http://www.inkscape.org/) -->

<svg
   width="20.32mm"
   height="128.5mm"
   viewBox="0 0 20.32 128.5"
   version="1.1"
   id="svg470"
   inkscape:version="1.2.2 (732a01da63, 2022-12-09)"
   sodipodi:docname="LogisticScratch.svg"
   xmlns:inkscape="http://www.inkscape.org/namespaces/inkscape"
   xmlns:sodipodi="http://sodipodi.sourceforge.net/DTD/sodipodi-0.dtd"
   xmlns="http://www.w3.org/2000/svg"
   xmlns:svg="http://www.w3.org/2000/svg">
  <sodipodi:namedview
     id="namedview472"
     pagecolor="#ffffff"
     bordercolor="#666666"
     borderopacity="1.0"
     inkscape:pageshadow="2"
     inkscape:pageopacity="1"
     inkscape:pagecheckerboard="false"
     inkscape:document-units="mm"
     showgrid="true"
     width="40.64mm"
     inkscape:zoom="2.5455844"
     inkscape:cx="31.819805"
     inkscape:cy="388.51589"
     inkscape:window-width="1920"
     inkscape:window-height="1009"
     inkscape:window-x="-8"
     inkscape:window-y="-8"
     inkscape:window-maximized="1"
     inkscape:current-layer="layer2"
     objecttolerance="20"
     guidetolerance="10000"
     showguides="true"
     inkscape:showpageshadow="2"
     inkscape:deskcolor="#d1d1d1"
     showborder="true"
     borderlayer="false">
    <inkscape:grid
       type="xygrid"
       id="grid1902"
       units="mm"
       dotted="false"
       originx="0"
       originy="0"
       spacingx="1"
       spacingy="1"
       snapvisiblegridlinesonly="false"
       visible="true"
       empspacing="10" />
  </sodipodi:namedview>
  <defs
     id="defs467" />
  <g
     inkscape:label="panel"
     inkscape:groupmode="layer"
     id="layer1"
     style="display:inline">
    <rect
       style="display:inline;fill:#b6b6b6;fill-opacity:1;stroke-width:0;stroke-dasharray:none"
       id="rect981"
       width="20.32"
       height="128.5"
       x="0"
       y="-5.5511151e-17" />
    <g
       aria-label="FREQ"
       id="text3502"
       style="font-size:3.52778px;font-family:Trim;-inkscape-font-specification:Trim;stroke:#000000;stroke-width:0"
       transform="translate(-0.10701)">
      <path
         d="M 10.745154,14.356568 H 9.4480752 v 0.723471 h 1.1144888 v 0.303168 H 9.4480752 v 1.235068 H 9.1070105 v -2.564876 h 1.6381435 z"
         id="path14410" />
      <path
         d="m 12.860445,16.618275 h -0.3514 q -0.03617,-0.06718 -0.06029,-0.208429 -0.02412,-0.141249 -0.06201,-0.268717 -0.06546,-0.272163 -0.42547,-0.542603 h -0.480591 v 1.019749 h -0.341065 v -2.564876 h 0.718303 q 0.232544,0 0.387574,0.03101 0.155029,0.02928 0.279053,0.106798 0.139526,0.08785 0.217041,0.222209 0.07924,0.132636 0.07924,0.33762 0,0.27733 -0.139527,0.465088 -0.139526,0.186035 -0.384128,0.280775 0.36518,0.289389 0.430637,0.609783 0.03445,0.160197 0.05168,0.294556 0.01722,0.132636 0.08096,0.217041 z m -0.396187,-1.843128 q 0,-0.110243 -0.03962,-0.194648 -0.0379,-0.08613 -0.127469,-0.144694 -0.07407,-0.04995 -0.1757,-0.0689 -0.10163,-0.02067 -0.239434,-0.02067 h -0.401354 v 0.968072 h 0.34451 q 0.161919,0 0.282498,-0.02756 0.120578,-0.02928 0.204983,-0.106798 0.07752,-0.07235 0.113688,-0.165364 0.0379,-0.09474 0.0379,-0.239435 z"
         id="path14412" />
      <path
         d="m 15.206556,16.618275 h -1.68982 v -2.564876 h 1.68982 v 0.303169 H 13.8578 v 0.7028 h 1.348756 v 0.303169 H 13.8578 v 0.952569 h 1.348756 z"
         id="path14414" />
      <path
         d="m 17.659465,14.347955 q 0.156752,0.172255 0.239435,0.422025 0.08441,0.249769 0.08441,0.566718 0,0.316949 -0.08613,0.568441 -0.08441,0.24977 -0.237712,0.416857 0.33073,0.292834 0.33073,0.296279 0.01378,-0.02239 -0.201538,0.218763 -0.01378,0.0069 -0.365181,-0.322116 -0.06546,0.0379 -0.137804,0.0689 -0.217041,0.08785 -0.494371,0.08785 -0.27044,0 -0.492649,-0.08957 -0.220486,-0.08957 -0.375516,-0.260105 -0.155029,-0.170532 -0.239434,-0.418579 -0.08268,-0.248047 -0.08268,-0.566719 0,-0.313504 0.08268,-0.561551 0.08268,-0.249769 0.241157,-0.427192 0.151584,-0.168809 0.375515,-0.258382 Q 16.526028,14 16.791301,14 q 0.275608,0 0.494371,0.0913 0.220487,0.08957 0.373793,0.256659 z m -0.03101,0.988743 q 0,-0.499539 -0.223932,-0.769979 -0.223931,-0.272163 -0.611505,-0.272163 -0.391018,0 -0.61495,0.272163 -0.222208,0.27044 -0.222208,0.769979 0,0.504707 0.227376,0.773425 0.227377,0.266995 0.609782,0.266995 0.230822,-0.01033 0.358291,-0.108521 -0.409967,-0.366903 -0.440973,-0.394463 0.03445,-0.03445 0.208428,-0.208429 0.08613,0.06718 0.489204,0.430637 0.213596,-0.191203 0.220487,-0.759644 z"
         id="path14416" />
    </g>
    <g
       aria-label="Δx"
       id="text12156"
       style="font-size:3.52777px;font-family:Trim;-inkscape-font-specification:Trim;stroke:#000000;stroke-width:0"
       transform="translate(-0.0705545,-0.5394985)">
      <path
         d="m 11.181803,74.539499 0.797276,2.328328 v 0.1905 h -1.908524 v -0.194028 l 0.793749,-2.3248 z m 0.448027,2.240134 -0.440971,-1.312331 q -0.05292,-0.158749 -0.09878,-0.306916 -0.04233,-0.148166 -0.07055,-0.275166 -0.03175,0.127 -0.07408,0.275166 -0.0388,0.144639 -0.08819,0.292805 l -0.448027,1.326442 z"
         id="path14419" />
      <path
         d="M 14.034003,77.058327 H 13.62576 l -0.546047,-0.738972 -0.549491,0.738972 h -0.377237 l 0.751029,-0.959457 -0.744139,-0.964625 h 0.408243 l 0.542601,0.726914 0.544324,-0.726914 h 0.37896 l -0.756197,0.947399 z"
         id="path14421" />
    </g>
    <g
       aria-label="λ1"
       id="text10794"
       style="font-size:3.52777px;font-family:Trim;-inkscape-font-specification:Trim;display:inline;stroke:#000000;stroke-width:0"
       transform="translate(-0.03716523,-0.3561125)">
      <path
         d="m 10.037166,37.058334 0.814915,-1.855607 -0.09525,-0.264582 q -0.05644,-0.151695 -0.123472,-0.236361 -0.06703,-0.08819 -0.218722,-0.08819 -0.0635,0 -0.112888,0.0071 -0.04586,0.0071 -0.08467,0.01411 v -0.250471 q 0.04586,-0.01058 0.105833,-0.01764 0.0635,-0.01058 0.127,-0.01058 0.179916,0 0.292805,0.0635 0.112888,0.0635 0.186972,0.194028 0.07408,0.130527 0.148166,0.335138 l 0.610304,1.700385 q 0.06703,0.1905 0.176389,0.1905 0.02822,0 0.05644,-0.0071 0.03175,-0.0071 0.04939,-0.01058 v 0.229305 q -0.03881,0.01764 -0.09172,0.02822 -0.04939,0.01411 -0.109361,0.01411 -0.130528,0 -0.208139,-0.0635 -0.07408,-0.06703 -0.130527,-0.222249 l -0.257523,-0.7232 Q 11.144888,36 11.106078,35.897698 q -0.03528,-0.105833 -0.06703,-0.204611 -0.02822,-0.102305 -0.04233,-0.169333 h -0.01411 q -0.03175,0.123472 -0.08467,0.264583 -0.04939,0.141111 -0.109361,0.278694 l -0.430388,0.991303 z"
         id="path14424" />
      <path
         d="m 12.72391,37.763888 h -0.214973 v -1.313353 q -0.06382,0.09741 -0.146675,0.155632 -0.08285,0.05822 -0.209375,0.119802 v -0.212734 q 0.151153,-0.09629 0.245204,-0.174666 0.04702,-0.03471 0.09629,-0.106367 0.04927,-0.07166 0.05598,-0.141076 h 0.173546 z"
         style="font-size:65%;baseline-shift:sub"
         id="path14426" />
    </g>
    <g
       aria-label="λ2"
       id="text11422"
       style="font-size:3.52777px;font-family:Trim;-inkscape-font-specification:Trim;display:inline;stroke:#000000;stroke-width:0"
       transform="translate(0.09248987,-0.3208335)">
      <path
         d="m 9.9075109,57.023056 0.8149151,-1.855607 -0.09525,-0.264583 q -0.05644,-0.151694 -0.123472,-0.23636 -0.06703,-0.08819 -0.218722,-0.08819 -0.0635,0 -0.112888,0.0071 -0.04586,0.0071 -0.08467,0.01411 v -0.250472 q 0.04586,-0.01058 0.105833,-0.01764 0.0635,-0.01058 0.127,-0.01058 0.179916,0 0.292805,0.0635 0.112889,0.0635 0.186972,0.194027 0.07408,0.130528 0.148166,0.335139 l 0.610304,1.700385 q 0.06703,0.190499 0.176389,0.190499 0.02822,0 0.05644,-0.0071 0.03175,-0.0071 0.04939,-0.01058 V 57.016 q -0.03881,0.01764 -0.09172,0.02822 -0.04939,0.01411 -0.109361,0.01411 -0.130527,0 -0.208138,-0.0635 -0.07408,-0.06703 -0.130528,-0.22225 l -0.257527,-0.723193 q -0.02822,-0.08467 -0.06703,-0.186971 -0.03528,-0.105833 -0.06703,-0.204611 -0.02822,-0.102305 -0.04233,-0.169333 h -0.01411 q -0.03175,0.123472 -0.08467,0.264583 -0.04939,0.141111 -0.109361,0.278694 l -0.430388,0.991303 z"
         id="path14429" />
      <path
         d="m 13.149603,57.72861 h -1.12861 v -0.234008 q 0.117563,-0.100768 0.235127,-0.201537 0.118683,-0.100769 0.220572,-0.200418 0.214973,-0.208256 0.294468,-0.330298 0.0795,-0.123162 0.0795,-0.265358 0,-0.12988 -0.08621,-0.202657 -0.08509,-0.0739 -0.238486,-0.0739 -0.101888,0 -0.220571,0.03583 -0.118684,0.03583 -0.231769,0.109726 h -0.0112 v -0.235128 q 0.07949,-0.03919 0.211614,-0.07166 0.133239,-0.03247 0.257521,-0.03247 0.2564,0 0.401955,0.124281 0.145555,0.123162 0.145555,0.334777 0,0.09517 -0.02463,0.178024 -0.02351,0.08174 -0.07054,0.155632 -0.04367,0.06942 -0.103009,0.136598 -0.05822,0.06718 -0.142196,0.148914 -0.119802,0.117564 -0.247443,0.228409 -0.12764,0.109726 -0.238486,0.203777 h 0.896842 z"
         style="font-size:65%;baseline-shift:sub"
         id="path14431" />
    </g>
    <g
       aria-label="OUT"
       id="text14367"
       style="font-size:3.52777px;font-family:Trim;-inkscape-font-specification:Trim;display:inline;stroke:#000000;stroke-width:0"
       transform="translate(3.1319475,-2.1933375)">
      <path
         d="m 10.107108,94.541287 q 0.156751,0.172254 0.239433,0.422023 0.08441,0.249769 0.08441,0.566717 0,0.316948 -0.08613,0.56844 -0.0844,0.249768 -0.237711,0.416855 -0.1584745,0.173977 -0.375515,0.261827 -0.215318,0.08785 -0.4926476,0.08785 -0.2704394,0 -0.4926476,-0.08957 -0.2204856,-0.08957 -0.3755146,-0.260104 -0.1550289,-0.170532 -0.2394336,-0.418578 -0.082682,-0.248046 -0.082682,-0.566717 0,-0.313503 0.082682,-0.561549 0.082682,-0.249769 0.2411562,-0.427191 0.1515839,-0.16881 0.3755146,-0.258382 0.2256532,-0.08957 0.490925,-0.08957 0.275607,0 0.4943701,0.0913 0.2204857,0.08957 0.3737925,0.256659 z m -0.03101,0.98874 q 0,-0.499538 -0.2239309,-0.769977 -0.2239308,-0.272162 -0.6115031,-0.272162 -0.3910175,0 -0.6149482,0.272162 -0.2222082,0.270439 -0.2222082,0.769977 0,0.504705 0.2273758,0.773422 0.2273758,0.266995 0.6097806,0.266995 0.3824047,0 0.608058,-0.266995 0.227376,-0.268717 0.227376,-0.773422 z"
         id="path14434" />
      <path
         d="m 12.902796,95.781518 q 0,0.279053 -0.06201,0.48748 -0.06029,0.206706 -0.199815,0.344509 -0.132636,0.130914 -0.310058,0.191203 -0.177422,0.06029 -0.413411,0.06029 -0.241156,0 -0.420301,-0.06373 -0.179144,-0.06373 -0.301445,-0.187757 -0.139526,-0.141248 -0.201537,-0.341064 -0.06029,-0.199815 -0.06029,-0.490925 v -1.534786 h 0.341063 v 1.552012 q 0,0.208428 0.02756,0.329006 0.02928,0.120578 0.09646,0.218763 0.07579,0.111965 0.204983,0.168809 0.130914,0.05684 0.313503,0.05684 0.184312,0 0.313503,-0.05512 0.129191,-0.05684 0.206705,-0.170532 0.06718,-0.09819 0.09474,-0.223931 0.02928,-0.127468 0.02928,-0.315225 v -1.560625 h 0.341063 z"
         id="path14436" />
      <path
         d="m 15.38326,94.5499 h -0.916394 v 2.2617 h -0.341063 v -2.2617 h -0.916394 v -0.303168 h 2.173851 z"
         id="path14438" />
    </g>
    <path
       style="fill:#000000;fill-opacity:1;stroke:#000000;stroke-width:0.25;stroke-linecap:butt;stroke-linejoin:miter;stroke-dasharray:none;stroke-opacity:1"
       d="M 20.32,90.125 C 0,90.125 0,90.125 0,90.125"
       id="path433" />
    <path
       style="display:inline;fill:#000000;fill-opacity:1;stroke-width:0.256427"
       d="m 0.020909,128.11321 c -0.01947,-0.43943 0.0037,-0.47061 0.338397,-0.45465 0.29635,0.0141 0.309141,0.0266 0.073,0.0707 -0.208021,0.0389 -0.300546,0.16322 -0.338397,0.45465 -0.05005,0.38539 -0.05291,0.38261 -0.073,-0.0707 z m 0.719441,0.18872 c 0.04399,-0.16811 0.174006,-0.28307 0.320145,-0.28307 0.135341,0 0.246076,-0.0566 0.246076,-0.12582 0,-0.0692 -0.07961,-0.1258 -0.176908,-0.1258 -0.0973,0 -0.333881,-0.14008 -0.525738,-0.31128 -0.191858,-0.17122 -0.376831,-0.31276 -0.411051,-0.31454 -0.03422,-0.002 -0.06222,-0.0315 -0.06222,-0.0661 v -0.15049 c 0,-0.0482 0.191086,0.0854 0.424635,0.29669 0.28677,0.25952 0.791418,0.49218 1.554347,0.71662 1.36393,0.40126 1.538638,0.41059 1.512834,0.0808 -0.01413,-0.18064 -0.08531,-0.23154 -0.252371,-0.18048 -0.182251,0.0557 -0.213404,0.0216 -0.143719,-0.15728 0.078,-0.20023 0.06198,-0.20727 -0.129815,-0.0571 -0.286281,0.22419 -0.63244,0.0963 -0.535887,-0.19802 0.07007,-0.21359 0.06429,-0.21383 -0.114599,-0.005 -0.240669,0.28125 -0.355568,0.27936 -0.355568,-0.006 0,-0.16456 0.0977,-0.22391 0.359306,-0.2183 0.281234,0.006 0.349685,0.0605 0.315027,0.2507 -0.03728,0.20457 -0.01285,0.21786 0.154577,0.0841 0.276681,-0.2211 0.869631,0.15451 0.869631,0.55087 0,0.4159 -0.279397,0.45839 -1.127403,0.17139 l -0.751177,-0.25422 -0.233718,0.29253 c -0.128546,0.1609 -0.235026,0.22511 -0.236624,0.1427 -0.0016,-0.0824 0.05589,-0.18482 0.127753,-0.22759 0.07186,-0.0428 0.130657,-0.12982 0.130657,-0.19344 0,-0.15436 -0.677115,0.14002 -0.875438,0.38062 -0.131328,0.1593 -0.144782,0.14422 -0.08276,-0.0928 z m 0.728455,-1.05307 c -0.395525,-0.24389 -0.419761,-0.24597 -0.341665,-0.0293 0.05169,0.1434 -0.11092,0.0512 -0.422297,-0.23948 -0.418518,-0.39067 -0.48143,-0.51071 -0.362671,-0.69194 0.127292,-0.19426 0.339562,-0.21422 1.860611,-0.17495 1.480347,0.0383 1.716928,0.0175 1.716928,-0.14984 0,-0.10679 -0.05687,-0.228 -0.126378,-0.26937 -0.06951,-0.0413 -0.09212,-0.24013 -0.05025,-0.44171 0.06512,-0.31352 0.0294,-0.37779 -0.247038,-0.44461 -0.181515,-0.0439 -0.536684,0.008 -0.810304,0.11789 -0.430836,0.17333 -0.509568,0.1744 -0.681173,0.009 -0.255249,-0.24578 -0.349892,-0.23609 -0.632668,0.0648 -0.130068,0.13838 -0.300869,0.25074 -0.379558,0.24968 -0.07869,-8e-4 -0.05488,-0.0568 0.05291,-0.12388 0.153292,-0.0954 0.119393,-0.12237 -0.15561,-0.12388 -0.193378,-8e-4 -0.387934,0.0547 -0.432347,0.12388 -0.04442,0.0692 0.02562,0.12782 0.155611,0.13026 0.18812,0.004 0.169695,0.0412 -0.09028,0.18426 -0.439855,0.24211 -0.593236,0.23375 -0.375306,-0.0204 0.139799,-0.16308 0.143325,-0.22083 0.016,-0.26211 C 0.073495,125.12815 0,125.04909 0,124.98158 c 0,-0.0675 0.05833,-0.0881 0.129622,-0.0456 0.07129,0.0424 0.225832,0.0253 0.343421,-0.0381 0.259241,-0.13969 0.01332,-0.33763 -0.283314,-0.22802 C 0.085378,124.70841 0,124.68512 0,124.6181 c 0,-0.17947 0.435307,-0.14817 0.71922,0.0517 0.183224,0.129 0.341665,0.14166 0.616955,0.0493 0.259143,-0.087 0.483396,-0.0793 0.746508,0.0257 0.284036,0.11329 0.444434,0.11479 0.655299,0.006 0.153563,-0.0791 0.467573,-0.12633 0.697802,-0.10489 0.368298,0.0343 0.419616,0.0851 0.427064,0.42217 0.0046,0.21076 0.04992,0.44777 0.100572,0.52669 0.08389,0.13071 0.01055,1.15567 -0.08961,1.25209 -0.02331,0.0224 -0.22473,-0.0204 -0.4476,-0.0952 -0.299498,-0.10053 -0.383861,-0.19094 -0.323365,-0.34654 0.07129,-0.18337 0.05341,-0.18825 -0.1386,-0.0378 -0.178145,0.13953 -0.220449,0.14095 -0.220449,0.007 0,-0.10063 -0.07503,-0.0697 -0.19183,0.0789 -0.105508,0.13433 -0.193701,0.19977 -0.195986,0.14544 -0.0023,-0.0543 -0.118886,-0.0396 -0.259111,0.0326 -0.186975,0.0964 -0.241768,0.23171 -0.2055,0.50767 0.0272,0.20695 0.03904,0.37531 0.0263,0.37415 -0.01274,-8e-4 -0.214726,-0.12025 -0.448872,-0.26463 z m 0.360394,-0.11066 c 0,-0.0692 -0.02593,-0.12581 -0.05762,-0.12581 -0.03169,0 -0.09396,0.0566 -0.138367,0.12581 -0.04441,0.0692 -0.01849,0.1258 0.05762,0.1258 0.0761,0 0.138368,-0.0566 0.138367,-0.1258 z m -0.857404,-0.57628 c 0.24641,-0.23727 0.156868,-0.43019 -0.199666,-0.43019 -0.318102,0 -0.484435,0.36246 -0.235877,0.514 0.231079,0.14089 0.194957,0.14784 0.435543,-0.0838 z m 2.817259,0.0179 c 0,-0.10335 -0.112034,-0.17276 -0.261315,-0.16194 -0.322227,0.0234 -0.341983,0.17828 -0.03266,0.25611 0.125758,0.0316 0.243349,0.0641 0.261315,0.0721 0.01797,0.008 0.03266,-0.0668 0.03266,-0.16629 z m -1.567885,-0.20994 c 0,-0.16578 -0.752876,-0.13673 -0.86199,0.0333 -0.06404,0.0998 -0.0048,0.1233 0.188273,0.0747 0.154961,-0.0391 0.281747,-0.0214 0.281747,0.0392 0,0.0605 0.08819,0.0775 0.195985,0.0376 0.107792,-0.0399 0.195985,-0.12297 0.195985,-0.18476 z m -0.609406,-0.93857 c -0.108897,-0.27324 0.167559,-0.53022 0.365441,-0.33967 0.167245,0.16103 0.06364,0.53685 -0.148005,0.53685 -0.07637,0 -0.174218,-0.0887 -0.217436,-0.19718 z m 0.176032,-0.20384 c -0.04171,-0.10036 -0.07267,-0.0706 -0.07894,0.076 -0.0057,0.13262 0.02521,0.20694 0.06862,0.16512 0.04341,-0.0418 0.04806,-0.15031 0.01031,-0.24113 z"
       id="path1561"
       sodipodi:nodetypes="ssssssssssssssssssssssssssscsssssscssssssssssscscsssssssssssssssssssssssssscscsssssssssssssssssssssssssssss"
       inkscape:label="logo" />
    <g
       aria-label="λScratch"
       id="text16051"
       style="font-size:3.52778px;font-family:Trim;-inkscape-font-specification:Trim;stroke:#000000;stroke-width:0">
      <path
         d="M 2.6874999,7.7022777 3.5024171,5.8466654 3.407167,5.5820818 Q 3.3507225,5.4303873 3.2836947,5.3457206 3.2166669,5.2575261 3.0649723,5.2575261 q -0.0635,0 -0.1128889,0.00706 -0.045861,0.00706 -0.084667,0.014111 V 5.0282204 q 0.045861,-0.010583 0.1058334,-0.017639 0.0635,-0.010583 0.127,-0.010583 0.1799168,0 0.2928058,0.0635 0.112889,0.0635 0.1869723,0.1940279 0.074083,0.1305278 0.1481668,0.3351391 l 0.6103059,1.70039 q 0.067028,0.1905001 0.1763891,0.1905001 0.028222,0 0.056444,-0.00706 0.03175,-0.00706 0.049389,-0.010583 v 0.2293057 q -0.038806,0.017639 -0.091722,0.028222 -0.049389,0.014111 -0.1093612,0.014111 -0.1305279,0 -0.208139,-0.0635 Q 4.1374175,7.6070276 4.080973,7.4518053 L 3.8234451,6.7286104 Q 3.7952228,6.6439436 3.7564172,6.541638 3.7211394,6.4358046 3.6893894,6.3370268 3.6611672,6.2347212 3.6470561,6.1676933 H 3.6329449 Q 3.6011949,6.2911656 3.5482782,6.4322768 3.4988893,6.573388 3.438917,6.7109715 L 3.0085279,7.7022777 Z"
         id="path328" />
      <path
         d="m 6.8290303,6.9701944 q 0,0.1498617 -0.070625,0.2962784 -0.068902,0.1464167 -0.194648,0.248047 -0.1378039,0.1102432 -0.3221167,0.1722549 -0.1825902,0.062012 -0.4409725,0.062012 -0.2773303,0 -0.4995392,-0.051676 Q 5.0806432,7.6454335 4.8515442,7.5438032 V 7.1700101 h 0.024116 q 0.2067058,0.1498617 0.4495852,0.2239313 0.2428794,0.07407 0.4788686,0.060289 0.316949,0 0.492649,-0.1188558 0.1774225,-0.1188559 0.1774225,-0.316949 0,-0.1705324 -0.084405,-0.2514922 Q 6.307098,6.6859738 6.1365656,6.6411876 6.0073745,6.6067366 5.8557902,6.5843435 5.7059284,6.5619503 5.5371186,6.5274993 5.196054,6.4551523 5.0306893,6.2811749 4.8670471,6.1054749 4.8670471,5.8246994 q 0,-0.3221166 0.2721628,-0.5270999 0.2721627,-0.2067059 0.690742,-0.2067059 0.2704402,0 0.4960941,0.051677 0.2256539,0.051676 0.3996314,0.1274686 l -0.00172,0.3600127 H 6.6998391 Q 6.5465323,5.5077504 6.3157107,5.4457387 6.0848892,5.3837269 5.8282294,5.3854494 q -0.2738853,0 -0.4409725,0.1136883 -0.1653647,0.1136882 -0.1653647,0.2928333 0,0.160197 0.082682,0.2514921 0.082682,0.091295 0.2911108,0.1395265 0.1102431,0.024116 0.3135039,0.058567 0.2032608,0.034451 0.3445098,0.070625 0.2859431,0.075792 0.4306372,0.229099 0.1446941,0.1533069 0.1446941,0.4289147 z"
         id="path330" />
      <path
         d="m 8.7737881,7.5816992 q -0.1619196,0.077515 -0.3083363,0.1205785 -0.1446941,0.043064 -0.3083362,0.043064 -0.2084284,0 -0.3824059,-0.060289 Q 7.6007323,7.6230404 7.4767088,7.4990169 7.3509627,7.3749934 7.2820608,7.185513 7.2131588,6.9960326 7.2131588,6.7428179 q 0,-0.4719783 0.2583823,-0.740696 0.2601049,-0.2687176 0.6855745,-0.2687176 0.1653647,0 0.3238392,0.046509 0.160197,0.046509 0.2928333,0.1136883 V 6.2536141 H 8.7565626 Q 8.6084234,6.1382033 8.4499489,6.0761915 8.2931969,6.0141798 8.1433352,6.0141798 q -0.2756078,0 -0.4358049,0.1860353 -0.1584745,0.1843127 -0.1584745,0.5426028 0,0.3479549 0.1550294,0.5357127 0.156752,0.1860353 0.43925,0.1860353 0.098185,0 0.1998157,-0.025838 0.1016303,-0.025838 0.1825901,-0.067179 0.070624,-0.036173 0.1326363,-0.075792 0.062012,-0.041341 0.098185,-0.070625 h 0.017226 z"
         id="path332" />
      <path
         d="m 10.389539,6.0916945 -0.0155,0.00345 q -0.08096,-0.01378 -0.153307,-0.010335 -0.07235,0.00345 -0.151585,0.010335 -0.1446936,0.015503 -0.2859426,0.075792 -0.141249,0.060289 -0.2704402,0.1653647 V 7.7022777 H 9.188922 V 5.7781906 h 0.3238392 v 0.2842205 q 0.1929255,-0.1550293 0.3393421,-0.2187637 0.1481397,-0.065457 0.3014457,-0.065457 0.08441,0 0.122301,0.00517 0.0379,0.00345 0.113689,0.015503 z"
         id="path334" />
      <path
         d="M 12.189602,7.7022777 H 11.867486 V 7.4972943 q -0.04306,0.029283 -0.117134,0.082682 -0.07235,0.051677 -0.141249,0.082682 -0.08096,0.039619 -0.186035,0.065457 -0.105075,0.027561 -0.246324,0.027561 -0.260105,0 -0.440973,-0.1722549 -0.180868,-0.1722549 -0.180868,-0.43925 0,-0.2187637 0.09302,-0.3531225 0.09474,-0.1360813 0.268718,-0.213596 0.1757,-0.077515 0.422024,-0.1050755 0.246325,-0.027561 0.528823,-0.041341 v -0.049954 q 0,-0.1102431 -0.03962,-0.1825902 -0.0379,-0.072347 -0.110243,-0.1136882 -0.0689,-0.039619 -0.165365,-0.053399 -0.09646,-0.01378 -0.201538,-0.01378 -0.127469,0 -0.28422,0.034451 -0.156752,0.032728 -0.32384,0.096463 h -0.01722 V 5.8195318 q 0.09474,-0.025838 0.273885,-0.056844 0.179145,-0.031006 0.353123,-0.031006 0.20326,0 0.353122,0.034451 0.151584,0.032729 0.261828,0.1136883 0.10852,0.079237 0.165364,0.2049833 0.05684,0.1257461 0.05684,0.3117813 z M 11.867486,7.2285767 V 6.692864 q -0.148139,0.00861 -0.349678,0.025838 -0.199815,0.017225 -0.316949,0.049954 -0.139526,0.039619 -0.225654,0.1240235 -0.08613,0.082682 -0.08613,0.229099 0,0.1653647 0.09991,0.2497696 0.09991,0.082682 0.304891,0.082682 0.170532,0 0.311781,-0.065457 0.141249,-0.067179 0.261828,-0.1601971 z"
         id="path336" />
      <path
         d="m 13.764012,7.6867747 q -0.09129,0.024116 -0.156752,0.037896 -0.06546,0.015503 -0.149862,0.015503 -0.294556,0 -0.447863,-0.1584745 Q 12.856229,7.4232247 12.856229,7.0735473 V 6.0503533 H 12.565118 V 5.7781906 h 0.291111 V 5.2252524 h 0.323839 v 0.5529382 h 0.583944 v 0.2721627 h -0.583944 v 0.8767774 q 0,0.1515843 0.0069,0.2377117 0.0069,0.084405 0.04823,0.1584745 0.0379,0.068902 0.103353,0.1016304 0.06718,0.031006 0.203261,0.031006 0.07924,0 0.165365,-0.022393 0.08613,-0.024116 0.03962,-0.037896 h 0.01723 z"
         id="path338" />
      <path
         d="m 15.608862,7.5816992 q -0.16192,0.077515 -0.308337,0.1205785 -0.144694,0.043064 -0.308336,0.043064 -0.208428,0 -0.382406,-0.060289 -0.173977,-0.062012 -0.298001,-0.1860353 -0.125746,-0.1240235 -0.194648,-0.3135039 -0.0689,-0.1894804 -0.0689,-0.4426951 0,-0.4719783 0.258383,-0.740696 0.260104,-0.2687176 0.685574,-0.2687176 0.165365,0 0.323839,0.046509 0.160197,0.046509 0.292834,0.1136883 v 0.3600127 h -0.01723 Q 15.443497,6.1382033 15.285022,6.0761915 15.12827,6.0141798 14.978409,6.0141798 q -0.275608,0 -0.435805,0.1860353 -0.158475,0.1843127 -0.158475,0.5426028 0,0.3479549 0.15503,0.5357127 0.156752,0.1860353 0.43925,0.1860353 0.09819,0 0.199815,-0.025838 0.101631,-0.025838 0.182591,-0.067179 0.07062,-0.036173 0.132636,-0.075792 0.06201,-0.041341 0.09818,-0.070625 h 0.01723 z"
         id="path340" />
      <path
         d="M 17.632857,7.7022777 H 17.309018 V 6.6067366 q 0,-0.1326363 -0.0155,-0.248047 -0.0155,-0.1171334 -0.05684,-0.1825902 -0.04306,-0.072347 -0.124024,-0.1067981 -0.08096,-0.036174 -0.210151,-0.036174 -0.132636,0 -0.27733,0.065457 -0.144694,0.065457 -0.27733,0.1670872 v 1.4366058 h -0.32384 V 5.0219916 h 0.32384 v 0.969795 q 0.151584,-0.125746 0.313504,-0.1963705 0.161919,-0.070625 0.332451,-0.070625 0.311782,0 0.475424,0.1877578 0.163642,0.1877578 0.163642,0.5408803 z"
         id="path342" />
    </g>
  </g>
  <g
     inkscape:groupmode="layer"
     id="layer2"
     inkscape:label="components"
     style="display:none">
    <circle
       cx="12"
       cy="23"
       fill="#ff0000"
       id="freq"
       style="display:inline;stroke-width:0.470371"
       inkscape:label="freq"
       r="1.3229166mm" />
    <circle
       cx="5"
       cy="16"
       fill="#00ff00"
       id="freq_in"
       style="display:inline;stroke-width:0.352777"
       r="0.79374999mm"
       inkscape:label="freq" />
    <circle
       cx="12"
       cy="43"
       fill="#ff0000"
       id="l1"
       style="display:inline;stroke-width:0.235186"
       inkscape:label="l1"
       r="1.3229166mm" />
    <circle
       cx="5"
       cy="36"
       fill="#00ff00"
       id="l1_in"
       style="display:inline;stroke-width:0.352777"
       r="0.79374999mm"
       inkscape:label="l1" />
    <circle
       cx="12"
       cy="63"
       fill="#ff0000"
       id="l2"
       style="display:inline;stroke-width:0.235186"
       inkscape:label="l2"
       r="1.3229166mm" />
    <circle
       cx="5"
       cy="56"
       fill="#00ff00"
       id="l2_in"
       style="display:inline;stroke-width:0.352777"
       r="0.79374999mm"
       inkscape:label="l2" />
    <circle
       cx="12"
       cy="83"
       fill="#ff0000"
       id="dx"
       style="display:inline;stroke-width:0.235186"
       inkscape:label="dx"
       r="1.3229166mm" />
    <circle
       cx="5"
       cy="76"
       fill="#00ff00"
       id="dx_in"
       style="display:inline;stroke-width:0.352777"
       r="0.79374999mm"
       inkscape:label="dx" />
    <circle
       cx="15"
       cy="99"
       fill="#0000ff"
       id="out"
       style="display:inline;stroke-width:0.235186"
       inkscape:label="out"
       r="0.79374999mm" />
  </g>
</svg>
