<?xml version="1.0" encoding="UTF-8" standalone="no"?>
<!-- Created with Inkscape (http://www.inkscape.org/) -->

<svg
   width="20.32mm"
   height="128.5mm"
   viewBox="0 0 20.32 128.5"
   version="1.1"
   id="svg470"
   inkscape:version="1.1.2 (0a00cf5339, 2022-02-04)"
   sodipodi:docname="MicroLooper.svg"
   xmlns:inkscape="http://www.inkscape.org/namespaces/inkscape"
   xmlns:sodipodi="http://sodipodi.sourceforge.net/DTD/sodipodi-0.dtd"
   xmlns="http://www.w3.org/2000/svg"
   xmlns:svg="http://www.w3.org/2000/svg">
  <sodipodi:namedview
     id="namedview472"
     pagecolor="#ffffff"
     bordercolor="#666666"
     borderopacity="1.0"
     inkscape:pageshadow="2"
     inkscape:pageopacity="1"
     inkscape:pagecheckerboard="false"
     inkscape:document-units="mm"
     showgrid="true"
     width="40.64mm"
     inkscape:zoom="2"
     inkscape:cx="2.5"
     inkscape:cy="301.25"
     inkscape:window-width="1920"
     inkscape:window-height="1019"
     inkscape:window-x="0"
     inkscape:window-y="0"
     inkscape:window-maximized="1"
     inkscape:current-layer="layer1"
     objecttolerance="20"
     guidetolerance="10000"
     showguides="true">
    <inkscape:grid
       type="xygrid"
       id="grid1902"
       units="mm"
       dotted="false"
       originx="0"
       originy="0"
       spacingx="1"
       spacingy="1"
       snapvisiblegridlinesonly="false"
       visible="true"
       empspacing="10" />
  </sodipodi:namedview>
  <defs
     id="defs467" />
  <rect
     style="display:inline;fill:#e8e5e0;fill-opacity:1;stroke-width:0.187088"
     id="rect981"
     width="20.32"
     height="128.5"
     x="0"
     y="-5.5511151e-17" />
  <rect
     style="display:inline;fill:#999593;fill-opacity:1;stroke-width:0.254744"
     id="rect1123-3"
     width="10.16"
     height="16"
     x="10.16"
     y="96" />
  <g
     inkscape:label="panel"
     inkscape:groupmode="layer"
     id="layer1"
     style="display:inline">
    <g
       aria-label="RECORD"
       id="text14188"
       style="font-size:2.82223px;line-height:1.25;font-family:'Ubuntu Condensed';-inkscape-font-specification:'Ubuntu Condensed, ';stroke-width:0.264583">
      <path
         d="M 0.99999999,16.073378 Q 1.1975561,16.0254 1.3810011,16.0254 q 0.1467559,0 0.2652896,0.03387 0.1185336,0.03387 0.2032005,0.107245 0.084667,0.07338 0.1298226,0.189089 0.047978,0.115712 0.047978,0.279401 0,0.203201 -0.079022,0.330201 -0.0762,0.124178 -0.208845,0.189089 0.033867,0.05645 0.084667,0.155223 0.053622,0.09596 0.1072447,0.214489 0.056445,0.115712 0.1072448,0.23989 0.053622,0.124178 0.090311,0.237067 h -0.254001 q -0.031045,-0.08467 -0.079022,-0.191911 -0.045156,-0.107245 -0.095956,-0.211668 -0.0508,-0.107244 -0.1016003,-0.2032 -0.0508,-0.09878 -0.090311,-0.166512 -0.045156,0.0056 -0.093134,0.0085 -0.047978,0.0028 -0.095956,0.0028 H 1.248356 v 0.762002 H 0.99999999 Z M 1.2483562,17.030114 H 1.355601 q 0.1947339,0 0.2991564,-0.08749 0.1044225,-0.09031 0.1044225,-0.307623 0,-0.110067 -0.028222,-0.183445 -0.0254,-0.0762 -0.0762,-0.118534 -0.047978,-0.04516 -0.1185337,-0.06491 -0.067734,-0.01976 -0.1524004,-0.01976 -0.073378,0 -0.1354671,0.0085 z"
         id="path32378" />
      <path
         d="m 2.4506261,18.000961 v -1.955805 h 0.8777136 v 0.217312 H 2.7046268 v 0.606779 h 0.5644461 v 0.211667 H 2.7046268 v 0.702736 h 0.6688686 v 0.217311 z"
         id="path32380" />
      <path
         d="m 4.3217609,18.043295 q -0.3443121,0 -0.5277571,-0.256823 -0.1834449,-0.256823 -0.1834449,-0.793047 0,-0.273756 0.0508,-0.462846 0.053622,-0.189089 0.146756,-0.307623 0.093134,-0.118533 0.2201339,-0.169333 Q 4.1552493,16 4.3048275,16 q 0.1241781,0 0.2314228,0.03387 0.1072448,0.03104 0.1749783,0.07902 l -0.0762,0.211668 q -0.067734,-0.04516 -0.146756,-0.07338 -0.0762,-0.02822 -0.1778005,-0.02822 -0.2257784,0 -0.3273787,0.18909 -0.1016002,0.186267 -0.1016002,0.581379 0,0.397935 0.1072447,0.612424 0.1072447,0.21449 0.3499565,0.21449 0.1157115,0 0.1862672,-0.02822 0.073378,-0.02822 0.1411115,-0.07338 l 0.070556,0.200379 Q 4.6717181,17.96992 4.564473,18.00661 4.4600505,18.0433 4.3217613,18.0433 Z"
         id="path32382" />
      <path
         d="m 6.3001431,17.02447 q 0,0.2286 -0.042333,0.41769 -0.039511,0.186267 -0.1270003,0.321734 -0.084667,0.132645 -0.2173118,0.206023 -0.1298225,0.07338 -0.307623,0.07338 -0.1778005,0 -0.3104454,-0.07338 -0.1298225,-0.07338 -0.2173117,-0.206023 -0.084667,-0.135467 -0.1270003,-0.321734 -0.042334,-0.18909 -0.042334,-0.41769 0,-0.228601 0.042334,-0.41769 0.042333,-0.18909 0.1270003,-0.321735 Q 5.1656066,16.149578 5.2954291,16.0762 5.428074,16 5.6058745,16 q 0.1778005,0 0.307623,0.0762 0.1326449,0.07338 0.2173118,0.208845 0.087489,0.132645 0.1270003,0.321735 0.042333,0.189089 0.042333,0.41769 z m -0.2709341,0 q 0,-0.177801 -0.022578,-0.324557 -0.022578,-0.146756 -0.073378,-0.251178 -0.0508,-0.107245 -0.1326449,-0.166512 -0.079022,-0.05927 -0.1947338,-0.05927 -0.1157115,0 -0.1975561,0.05927 -0.079022,0.05927 -0.1298226,0.166512 -0.0508,0.104422 -0.0762,0.251178 -0.022578,0.146756 -0.022578,0.324557 0,0.1778 0.022578,0.324556 0.0254,0.146756 0.0762,0.251179 0.0508,0.104422 0.1298226,0.163689 0.081845,0.05645 0.1975561,0.05645 0.1157114,0 0.1947338,-0.05645 0.081845,-0.05927 0.1326449,-0.163689 0.0508,-0.104423 0.073378,-0.251179 0.022578,-0.146756 0.022578,-0.324556 z"
         id="path32384" />
      <path
         d="m 6.6952538,16.073378 q 0.1975561,-0.04798 0.3810011,-0.04798 0.146756,0 0.2652896,0.03387 0.1185337,0.03387 0.2032006,0.107245 0.084667,0.07338 0.1298226,0.189089 0.047978,0.115712 0.047978,0.279401 0,0.203201 -0.079022,0.330201 -0.0762,0.124178 -0.208845,0.189089 0.033867,0.05645 0.084667,0.155223 0.053622,0.09596 0.1072448,0.214489 0.056445,0.115712 0.1072447,0.23989 0.053622,0.124178 0.090311,0.237067 h -0.254001 q -0.031045,-0.08467 -0.079022,-0.191911 -0.045156,-0.107245 -0.095956,-0.211668 -0.0508,-0.107244 -0.1016003,-0.2032 -0.0508,-0.09878 -0.090311,-0.166512 -0.045156,0.0056 -0.093134,0.0085 -0.047978,0.0028 -0.095956,0.0028 h -0.070556 v 0.762002 H 6.6952538 Z m 0.2483563,0.956736 h 0.1072447 q 0.1947339,0 0.2991564,-0.08749 0.1044225,-0.09031 0.1044225,-0.307623 0,-0.110067 -0.028222,-0.183445 -0.0254,-0.0762 -0.0762,-0.118534 -0.047978,-0.04516 -0.1185336,-0.06491 -0.067734,-0.01976 -0.1524005,-0.01976 -0.073378,0 -0.135467,0.0085 z"
         id="path32386" />
      <path
         d="m 9.3791948,17.021647 q 0,0.273757 -0.059267,0.465668 -0.056445,0.18909 -0.1665115,0.307624 -0.1072448,0.118533 -0.2624674,0.172156 -0.1524005,0.05362 -0.3414899,0.05362 -0.1919116,0 -0.4064011,-0.0508 v -1.896539 q 0.1072447,-0.02258 0.208845,-0.03669 0.1016003,-0.01411 0.1947339,-0.01411 0.1919116,0 0.3443121,0.05362 0.1552226,0.05362 0.2624674,0.172156 0.1100669,0.118534 0.1665115,0.310446 0.059267,0.189089 0.059267,0.462845 z m -0.2709341,0 q 0,-0.208845 -0.031045,-0.355601 -0.031045,-0.146755 -0.095956,-0.239889 -0.064911,-0.09313 -0.172156,-0.135467 -0.1044225,-0.04233 -0.2511785,-0.04233 -0.039511,0 -0.079022,0.0028 -0.039511,0.0028 -0.081845,0.0085 v 1.524005 q 0.042333,0.0056 0.081845,0.0085 0.039511,0.0028 0.0762,0.0028 0.1495782,0 0.2540007,-0.04233 0.1044225,-0.04233 0.1693338,-0.132645 0.067733,-0.09313 0.098778,-0.239889 0.031045,-0.146756 0.031045,-0.358424 z"
         id="path32388" />
    </g>
    <g
       aria-label="µLooper"
       id="text22225"
       style="font-size:3.52778px;line-height:1.25;font-family:Ubuntu;-inkscape-font-specification:Ubuntu;stroke-width:0.264583">
      <path
         d="m 6.0812232,7.391835 q -0.045861,0.017639 -0.112889,0.035278 -0.0635,0.014111 -0.1305279,0.024694 -0.067028,0.014111 -0.1340556,0.021167 -0.0635,0.010583 -0.1093612,0.010583 -0.1340556,0 -0.2328335,-0.028222 -0.09525,-0.028222 -0.1658056,-0.1023056 0.00706,0.1128889 0.010583,0.2293057 0.00706,0.1199445 0.00706,0.2469446 V 8.097391 H 4.9100002 V 5.5926672 h 0.3033891 v 1.1959174 q 0,0.2222502 0.081139,0.3245558 0.084667,0.1023056 0.2540002,0.1023056 0.056444,0 0.1128889,-0.00353 0.056444,-0.00706 0.1164168,-0.024694 V 5.5926672 h 0.3033891 z"
         style="font-family:'Ubuntu Condensed';-inkscape-font-specification:'Ubuntu Condensed, '"
         id="path42493" />
      <path
         d="m 7.7428039,7.1731127 v 0.271639 H 6.6527198 V 5.0000002 H 6.97022 v 2.1731125 z"
         style="font-family:'Ubuntu Condensed';-inkscape-font-specification:'Ubuntu Condensed, '"
         id="path42495" />
      <path
         d="m 9.2914985,6.5204734 q 0,0.2187223 -0.038805,0.3986391 -0.038806,0.176389 -0.1199446,0.3033891 -0.077611,0.1270001 -0.2010834,0.1975557 -0.1199445,0.070556 -0.2857502,0.070556 -0.1658057,0 -0.289278,-0.070556 Q 8.2331645,7.3495017 8.1520256,7.2225016 8.0744144,7.0955015 8.0356088,6.9191125 7.9968033,6.7391957 7.9968033,6.5204734 q 0,-0.2151946 0.038806,-0.3951114 0.038806,-0.1799168 0.1164168,-0.3069169 0.081139,-0.1305278 0.2046112,-0.2010834 0.1234723,-0.070556 0.289278,-0.070556 0.1658057,0 0.2857502,0.070556 0.1234723,0.070556 0.2010834,0.2010834 0.081139,0.1270001 0.1199446,0.3069169 0.038805,0.1799168 0.038805,0.3951114 z m -0.3175002,0 q 0,-0.1552224 -0.017639,-0.2822224 -0.017639,-0.1305279 -0.056444,-0.2222502 -0.038806,-0.09525 -0.1023057,-0.144639 -0.0635,-0.052917 -0.1516945,-0.052917 -0.091722,0 -0.1552223,0.052917 -0.059972,0.049389 -0.1023056,0.144639 -0.038806,0.091722 -0.056444,0.2222502 -0.017639,0.127 -0.017639,0.2822224 0,0.1552223 0.017639,0.2857501 0.017639,0.1270001 0.056444,0.2187224 0.042333,0.091722 0.1023056,0.144639 0.0635,0.049389 0.1552223,0.049389 0.088195,0 0.1516945,-0.049389 0.0635,-0.052917 0.1023057,-0.144639 0.038806,-0.091722 0.056444,-0.2187224 0.017639,-0.1305278 0.017639,-0.2857501 z"
         style="font-family:'Ubuntu Condensed';-inkscape-font-specification:'Ubuntu Condensed, '"
         id="path42497" />
      <path
         d="m 10.924858,6.5204734 q 0,0.2187223 -0.0388,0.3986391 -0.03881,0.176389 -0.119945,0.3033891 -0.07761,0.1270001 -0.201083,0.1975557 -0.119945,0.070556 -0.28575,0.070556 -0.165806,0 -0.2892783,-0.070556 Q 9.8665244,7.3495017 9.7853855,7.2225016 9.7077743,7.0955015 9.6689688,6.9191125 9.6301632,6.7391957 9.6301632,6.5204734 q 0,-0.2151946 0.038806,-0.3951114 0.038806,-0.1799168 0.1164167,-0.3069169 0.081139,-0.1305278 0.2046112,-0.2010834 0.1234719,-0.070556 0.2892779,-0.070556 0.165805,0 0.28575,0.070556 0.123472,0.070556 0.201083,0.2010834 0.08114,0.1270001 0.119945,0.3069169 0.0388,0.1799168 0.0388,0.3951114 z m -0.3175,0 q 0,-0.1552224 -0.01764,-0.2822224 -0.01764,-0.1305279 -0.05644,-0.2222502 -0.03881,-0.09525 -0.102306,-0.144639 -0.0635,-0.052917 -0.151694,-0.052917 -0.09172,0 -0.155223,0.052917 -0.05997,0.049389 -0.102305,0.144639 -0.038806,0.091722 -0.056445,0.2222502 -0.017639,0.127 -0.017639,0.2822224 0,0.1552223 0.017639,0.2857501 0.017639,0.1270001 0.056445,0.2187224 0.04233,0.091722 0.102305,0.144639 0.0635,0.049389 0.155223,0.049389 0.08819,0 0.151694,-0.049389 0.0635,-0.052917 0.102306,-0.144639 0.0388,-0.091722 0.05644,-0.2187224 0.01764,-0.1305278 0.01764,-0.2857501 z"
         style="font-family:'Ubuntu Condensed';-inkscape-font-specification:'Ubuntu Condensed, '"
         id="path42499" />
      <path
         d="m 11.669218,7.1660571 q 0.102305,0.056445 0.218722,0.056445 0.08819,0 0.155222,-0.035278 0.06703,-0.035278 0.112889,-0.1164167 0.04939,-0.081139 0.07408,-0.2151946 0.02469,-0.1340557 0.02469,-0.3316114 0,-0.3810002 -0.09878,-0.5432781 -0.09525,-0.1658056 -0.306916,-0.1658056 -0.03881,0 -0.08467,0.00706 -0.04586,0.00353 -0.09525,0.017639 z m 0,0.9313339 H 11.365829 V 5.6420561 q 0.09878,-0.042333 0.22225,-0.067028 0.127,-0.028222 0.257528,-0.028222 0.194028,0 0.331611,0.067028 0.141111,0.067028 0.225778,0.1940279 0.0882,0.1234723 0.127,0.3069169 0.04233,0.1799167 0.04233,0.4127502 0,0.4691948 -0.151694,0.7161394 -0.148167,0.2469446 -0.486834,0.2469446 -0.08114,0 -0.144639,-0.017639 -0.0635,-0.014111 -0.119944,-0.042333 z"
         style="font-family:'Ubuntu Condensed';-inkscape-font-specification:'Ubuntu Condensed, '"
         id="path42501" />
      <path
         d="m 13.224966,6.6086679 q 0.0035,0.1340556 0.02469,0.2469446 0.02117,0.1093612 0.06703,0.1940279 0.04939,0.081139 0.127,0.1270001 0.08114,0.045861 0.204612,0.045861 0.102305,0 0.186972,-0.028222 0.08819,-0.03175 0.127,-0.052917 l 0.05644,0.2434168 q -0.04586,0.03175 -0.155222,0.067028 -0.105833,0.038806 -0.254,0.038806 -0.194028,0 -0.328084,-0.070556 -0.130527,-0.070556 -0.215194,-0.1975557 -0.08114,-0.1270001 -0.116417,-0.3033891 -0.03528,-0.176389 -0.03528,-0.3880558 0,-0.5115281 0.169334,-0.7478894 0.169333,-0.2363612 0.448028,-0.2363612 0.313972,0 0.4445,0.2363612 0.130528,0.2363613 0.130528,0.6632227 0,0.038806 0,0.081139 0,0.038806 -0.0035,0.081139 z M 13.531883,5.804334 q -0.151695,0 -0.22225,0.1516946 -0.06703,0.1516945 -0.08114,0.4056947 h 0.560917 q 0,-0.257528 -0.05292,-0.4056947 Q 13.683577,5.804334 13.531883,5.804334 Z"
         style="font-family:'Ubuntu Condensed';-inkscape-font-specification:'Ubuntu Condensed, '"
         id="path42503" />
      <path
         d="m 15.355741,5.8678341 q -0.112889,-0.049389 -0.254,-0.049389 -0.130528,0 -0.243417,0.045861 V 7.4447517 H 14.554935 V 5.6738062 q 0.102305,-0.049389 0.232833,-0.081139 0.134056,-0.035278 0.292806,-0.035278 0.08467,0 0.169334,0.010583 0.08467,0.010583 0.15875,0.038806 z"
         style="font-family:'Ubuntu Condensed';-inkscape-font-specification:'Ubuntu Condensed, '"
         id="path42505" />
    </g>
    <path
       style="display:inline;fill:#000000;stroke-width:0.256427"
       d="m 6.3076506,122.99351 c -0.03895,-0.87892 0.0074,-0.94127 0.676794,-0.90935 0.592699,0.0282 0.618282,0.0531 0.146007,0.14137 -0.416041,0.0778 -0.601093,0.32647 -0.676794,0.90936 -0.100103,0.77081 -0.105827,0.76526 -0.146007,-0.14138 z m 1.438882,0.37746 c 0.08798,-0.33624 0.348012,-0.56618 0.640289,-0.56618 0.2706833,0 0.4921523,-0.11324 0.4921523,-0.25164 0,-0.13839 -0.159216,-0.25163 -0.353815,-0.25163 -0.1945983,0 -0.6677623,-0.28018 -1.0514773,-0.62261 -0.383715,-0.34245 -0.753661,-0.62554 -0.822101,-0.62909 -0.06844,-0.004 -0.124436,-0.063 -0.124436,-0.13228 v -0.301 c 0,-0.0963 0.382172,0.1707 0.849271,0.59342 0.57354,0.51907 1.582834,0.98443 3.1086934,1.43334 2.72786,0.80257 3.077277,0.82123 3.025669,0.16152 -0.02826,-0.36128 -0.170622,-0.4631 -0.504743,-0.36099 -0.364501,0.11141 -0.426807,0.0432 -0.287438,-0.31458 0.155991,-0.40047 0.12397,-0.41455 -0.25963,-0.11412 -0.572561,0.44842 -1.26488,0.19257 -1.071773,-0.39607 0.140142,-0.42721 0.128587,-0.42768 -0.229199,-0.01 -0.481338,0.56255 -0.711137,0.55877 -0.711137,-0.0117 0,-0.32913 0.195394,-0.44784 0.718613,-0.4366 0.562469,0.0121 0.699371,0.12104 0.630055,0.50142 -0.07456,0.40915 -0.02569,0.43574 0.309153,0.16814 0.553362,-0.44223 1.739262,0.30903 1.739262,1.10182 0,0.83186 -0.558794,0.91682 -2.254806,0.3428 l -1.502355,-0.50848 -0.4674357,0.5851 c -0.2570927,0.32181 -0.4700517,0.45024 -0.4732477,0.28541 -0.0032,-0.16484 0.111783,-0.36967 0.255505,-0.45521 0.1437227,-0.0855 0.2613147,-0.25965 0.2613147,-0.38691 0,-0.30875 -1.3542307,0.28008 -1.7508747,0.76129 -0.262658,0.31865 -0.289564,0.28847 -0.165509,-0.18566 z m 1.45691,-2.10626 c -0.791051,-0.48781 -0.839522,-0.49198 -0.6833307,-0.0587 0.10338,0.28681 -0.2218403,0.10236 -0.8445923,-0.47901 -0.837037,-0.7814 -0.962861,-1.02148 -0.725342,-1.38398 0.254583,-0.38854 0.679124,-0.42846 3.7212214,-0.34992 2.960695,0.0765 3.433856,0.0351 3.433856,-0.29969 0,-0.21359 -0.113739,-0.45604 -0.252756,-0.53877 -0.139014,-0.0827 -0.184242,-0.4803 -0.100502,-0.88348 0.130239,-0.62708 0.0588,-0.75565 -0.494075,-0.88927 -0.36303,-0.0878 -1.073369,0.0156 -1.620608,0.23579 -0.861674,0.34669 -1.019137,0.34881 -1.362348,0.0184 -0.5104987,-0.49159 -0.6997837,-0.4722 -1.2653354,0.12958 -0.2601357,0.27679 -0.601738,0.50153 -0.759116,0.4994 -0.157378,-0.002 -0.109755,-0.11362 0.105829,-0.24777 0.3065833,-0.19079 0.2387853,-0.24477 -0.31122,-0.24778 -0.386756,-0.002 -0.775869,0.10938 -0.864694,0.24778 -0.08883,0.13839 0.05123,0.25564 0.311221,0.26055 0.376242,0.007 0.33939,0.0824 -0.180563,0.36853 -0.87971,0.48425 -1.186472,0.46753 -0.750611,-0.0409 0.279598,-0.32617 0.286649,-0.4417 0.032,-0.52424 -0.179654,-0.0582 -0.326644,-0.21634 -0.326644,-0.35138 0,-0.13503 0.116661,-0.17609 0.259245,-0.0912 0.142585,0.0848 0.451664,0.0506 0.686842,-0.0762 0.518482,-0.2794 0.02663,-0.6753 -0.566629,-0.45607 -0.208701,0.0771 -0.379458,0.0305 -0.379458,-0.10353 0,-0.35898 0.870615,-0.29636 1.438441,0.10346 0.366447,0.25802 0.683328,0.28332 1.2339083,0.0985 0.5182857,-0.17398 0.9667914,-0.15855 1.4930171,0.0514 0.568072,0.22659 0.888868,0.22958 1.310597,0.0123 0.307127,-0.15829 0.935148,-0.25269 1.395606,-0.20981 0.736595,0.0686 0.839232,0.17009 0.854127,0.84442 0.0093,0.42153 0.09983,0.89558 0.201144,1.05345 0.167782,0.26142 0.02109,2.31147 -0.179214,2.50433 -0.04662,0.0449 -0.449461,-0.0408 -0.8952,-0.19042 -0.598997,-0.20107 -0.767722,-0.3819 -0.646731,-0.69311 0.142584,-0.36677 0.106828,-0.37654 -0.2772,-0.0757 -0.35629,0.27908 -0.440897,0.28192 -0.440897,0.0148 0,-0.20126 -0.150057,-0.1395 -0.383661,0.15791 -0.211015,0.26866 -0.387401,0.39955 -0.391972,0.29088 -0.0045,-0.10868 -0.237772,-0.0793 -0.518222,0.0652 -0.37395,0.19273 -0.4835367,0.46345 -0.411,1.01539 0.0544,0.41392 0.07807,0.75069 0.05261,0.74836 -0.02548,-0.002 -0.4294527,-0.24052 -0.8977444,-0.52931 z m 0.7207877,-0.22135 c 0,-0.1384 -0.05186,-0.25163 -0.115237,-0.25163 -0.06338,0 -0.187911,0.11323 -0.276735,0.25163 -0.08883,0.13839 -0.03697,0.25163 0.115235,0.25163 0.152205,0 0.276737,-0.11324 0.276737,-0.25163 z m -1.7148067,-1.15264 c 0.4928183,-0.47456 0.3137353,-0.86042 -0.399332,-0.86042 -0.636205,0 -0.96887,0.72496 -0.471754,1.02807 0.462158,0.28179 0.389914,0.2957 0.871086,-0.16765 z m 5.6345174,0.0359 c 0,-0.20669 -0.224067,-0.34555 -0.522629,-0.3239 -0.644455,0.0467 -0.683967,0.35658 -0.06533,0.51226 0.251515,0.0633 0.486698,0.12821 0.522629,0.14427 0.03593,0.0161 0.06533,-0.13363 0.06533,-0.33263 z m -3.13577,-0.42001 c 0,-0.33158 -1.5057534,-0.27346 -1.7239814,0.0666 -0.1280847,0.19957 -0.0096,0.2466 0.376547,0.14938 0.3099217,-0.0781 0.5634937,-0.0428 0.5634937,0.0783 0,0.1211 0.1763867,0.155 0.3919707,0.0753 0.215584,-0.0797 0.39197,-0.24596 0.39197,-0.36956 z m -1.2188127,-1.87724 c -0.2177937,-0.54653 0.335118,-1.06051 0.7308827,-0.6794 0.33449,0.32209 0.127273,1.07377 -0.2960107,1.07377 -0.152746,0 -0.348436,-0.17747 -0.434872,-0.39437 z m 0.352064,-0.40771 c -0.08342,-0.20073 -0.145338,-0.14111 -0.157878,0.15203 -0.01134,0.26526 0.05042,0.41388 0.137247,0.33026 0.08683,-0.0836 0.09612,-0.30064 0.02062,-0.48229 z"
       id="path1561"
       sodipodi:nodetypes="ssssssssssssssssssssssssssscsssssscssssssssssscscsssssssssssssssssssssssssscscsssssssssssssssssssssssssssss" />
    <text
       xml:space="preserve"
       style="font-size:2.82223px;line-height:1.25;font-family:Ubuntu;-inkscape-font-specification:Ubuntu;stroke-width:0.264583"
       x="11"
       y="35"
       id="text14295"><tspan
         sodipodi:role="line"
         id="tspan14293"
         style="stroke-width:0.264583"
         x="11"
         y="35" /></text>
    <g
       aria-label="OUT"
       id="text2832"
       style="font-size:2.82223px;line-height:1.25;font-family:'Ubuntu Condensed';-inkscape-font-specification:'Ubuntu Condensed, ';stroke-width:0.264583">
      <path
         d="m 14.50036,100.02447 q 0,0.2286 -0.04233,0.41769 -0.03951,0.18627 -0.127,0.32173 -0.08467,0.13265 -0.217312,0.20603 -0.129822,0.0734 -0.307623,0.0734 -0.1778,0 -0.310445,-0.0734 -0.129823,-0.0734 -0.217312,-0.20603 -0.08467,-0.13546 -0.127,-0.32173 -0.04233,-0.18909 -0.04233,-0.41769 0,-0.228601 0.04233,-0.41769 0.04233,-0.18909 0.127,-0.321735 Q 13.365828,99.149578 13.49565,99.0762 13.628291,99 13.806091,99 q 0.177801,0 0.307623,0.0762 0.132645,0.07338 0.217312,0.208845 0.08749,0.132645 0.127,0.321735 0.04233,0.189089 0.04233,0.41769 z m -0.270934,0 q 0,-0.177801 -0.02258,-0.324557 -0.02258,-0.146756 -0.07338,-0.251178 -0.0508,-0.107245 -0.132645,-0.166512 -0.07902,-0.05927 -0.194734,-0.05927 -0.115711,0 -0.197556,0.05927 -0.07902,0.05927 -0.129823,0.166512 -0.0508,0.104422 -0.0762,0.251178 -0.02258,0.146756 -0.02258,0.324557 0,0.1778 0.02258,0.32456 0.0254,0.14675 0.0762,0.25117 0.0508,0.10443 0.129823,0.16369 0.08184,0.0564 0.197556,0.0564 0.115712,0 0.194734,-0.0564 0.08184,-0.0593 0.132645,-0.16369 0.0508,-0.10442 0.07338,-0.25117 0.02258,-0.14676 0.02258,-0.32456 z"
         id="path32424" />
      <path
         d="m 15.42605,101.04329 q -0.273756,0 -0.412046,-0.15522 -0.135467,-0.15522 -0.135467,-0.49107 v -1.351844 h 0.254001 v 1.329274 q 0,0.22295 0.06491,0.33584 0.06491,0.11007 0.234245,0.11007 0.174979,0 0.237068,-0.11289 0.06491,-0.11571 0.06491,-0.33302 v -1.329274 h 0.254001 V 100.397 q 0,0.3302 -0.141112,0.48825 -0.141111,0.15804 -0.420512,0.15804 z"
         id="path32426" />
      <path
         d="m 17.370566,99.045156 v 0.217312 h -0.434624 v 1.738492 h -0.254 v -1.738492 h -0.434624 v -0.217312 z"
         id="path32428" />
    </g>
    <g
       aria-label="IN"
       id="text6268"
       style="font-size:2.82223px;line-height:1.25;font-family:Ubuntu;-inkscape-font-specification:Ubuntu;stroke-width:0.264583">
      <path
         d="M 4.133,98.999997 H 4.3870007 V 100.9558 H 4.133 Z"
         style="font-family:'Ubuntu Condensed';-inkscape-font-specification:'Ubuntu Condensed, '"
         id="path32431" />
      <path
         d="M 5.820692,100.9558 Q 5.7529585,100.78929 5.6654693,100.59738 5.5808024,100.40265 5.4848466,100.20791 5.391713,100.01036 5.2929349,99.818444 5.1941569,99.62371 5.0982011,99.457199 V 100.9558 H 4.8611337 V 98.999997 H 5.072801 q 0.1072447,0.174979 0.2060228,0.358424 0.1016003,0.183445 0.1919116,0.364067 0.090311,0.177801 0.1693338,0.352782 0.081845,0.17215 0.1495782,0.32738 v -1.402653 h 0.2370674 v 1.955803 z"
         style="font-family:'Ubuntu Condensed';-inkscape-font-specification:'Ubuntu Condensed, '"
         id="path32433" />
    </g>
    <g
       aria-label="LENGTH"
       id="text20402"
       style="font-size:2.82223px;line-height:1.25;font-family:'Ubuntu Condensed';-inkscape-font-specification:'Ubuntu Condensed, ';stroke-width:0.264583">
      <path
         d="m 1.8720691,35.78365 v 0.217311 H 0.99999999 V 34.045156 H 1.2540007 v 1.738494 z"
         id="path32391" />
      <path
         d="m 2.1768694,36.000961 v -1.955805 h 0.8777135 v 0.217312 H 2.4308701 v 0.606779 h 0.564446 v 0.211667 h -0.564446 v 0.702736 h 0.6688685 v 0.217311 z"
         id="path32393" />
      <path
         d="M 4.4233629,36.000961 Q 4.3556294,35.83445 4.2681403,35.642538 4.1834734,35.447804 4.0875176,35.25307 3.994384,35.055514 3.8956059,34.863603 3.7968279,34.668869 3.700872,34.502357 v 1.498604 H 3.4638047 V 34.045156 H 3.675472 q 0.1072447,0.174978 0.2060228,0.358423 0.1016002,0.183445 0.1919116,0.364068 0.090311,0.1778 0.1693338,0.352779 0.081845,0.172156 0.1495782,0.327378 v -1.402648 h 0.2370673 v 1.955805 z"
         id="path32395" />
      <path
         d="m 5.0216738,35.021647 q 0,-0.276578 0.0508,-0.471312 0.0508,-0.194734 0.1439338,-0.31609 0.095956,-0.124178 0.2286006,-0.1778 Q 5.5804754,34 5.7469869,34 q 0.1270004,0 0.2314229,0.03669 0.1044225,0.03387 0.1693338,0.07902 l -0.079022,0.211667 q -0.064911,-0.04516 -0.1411115,-0.07338 -0.0762,-0.03104 -0.1749783,-0.03104 -0.245534,0 -0.3527788,0.200379 -0.1072447,0.197556 -0.1072447,0.598312 0,0.21449 0.031045,0.36689 0.033867,0.152401 0.093134,0.248357 0.059267,0.09596 0.1439337,0.141111 0.084667,0.04516 0.1890895,0.04516 0.087489,0 0.1495782,-0.01976 v -0.764824 h 0.2540007 v 0.920047 q -0.0762,0.03669 -0.1890894,0.06209 -0.1128893,0.0254 -0.2370674,0.0254 -0.1524004,0 -0.282223,-0.05927 -0.1298226,-0.06209 -0.2257784,-0.186267 -0.093134,-0.127 -0.146756,-0.318912 -0.0508,-0.194734 -0.0508,-0.460024 z"
         id="path32397" />
      <path
         d="m 7.4826568,34.045156 v 0.217312 H 7.0480334 v 1.738493 H 6.7940327 V 34.262468 H 6.3594092 v -0.217312 z"
         id="path32399" />
      <path
         d="m 8.6567007,34.045156 h 0.2540007 v 1.955805 H 8.6567007 V 35.092203 H 8.0132323 v 0.908758 H 7.7592316 v -1.955805 h 0.2540007 v 0.826913 h 0.6434684 z"
         id="path32401" />
    </g>
    <g
       aria-label="SCAN"
       id="text24492"
       style="font-size:2.82223px;line-height:1.25;font-family:'Ubuntu Condensed';-inkscape-font-specification:'Ubuntu Condensed, ';stroke-width:0.264583">
      <path
         d="m 1.4092234,53.825983 q 0.1524004,0 0.2342451,-0.08467 0.084667,-0.08467 0.084667,-0.228601 0,-0.0762 -0.0254,-0.135467 -0.0254,-0.05927 -0.067734,-0.107244 -0.039511,-0.04798 -0.093134,-0.08749 -0.053622,-0.03951 -0.110067,-0.07902 -0.064911,-0.04516 -0.135467,-0.09596 -0.070556,-0.0508 -0.1298226,-0.118533 -0.056445,-0.06773 -0.093134,-0.158045 -0.036689,-0.09031 -0.036689,-0.211667 0,-0.118534 0.039511,-0.21449 0.042334,-0.09596 0.1128892,-0.163689 0.073378,-0.06773 0.1721561,-0.104423 Q 1.4628457,52 1.5785572,52 q 0.1128892,0 0.208845,0.02822 0.095956,0.02822 0.1608671,0.06773 l -0.079022,0.200378 q -0.059267,-0.03951 -0.1298226,-0.05927 -0.067734,-0.02258 -0.1439337,-0.02258 -0.1382893,0 -0.2229562,0.0762 -0.081845,0.07338 -0.081845,0.217312 0,0.07902 0.0254,0.138289 0.028222,0.05927 0.070556,0.107245 0.045156,0.04798 0.1016003,0.08749 0.059267,0.03951 0.1241781,0.08184 0.064911,0.04233 0.1326449,0.09313 0.067733,0.0508 0.1213558,0.118534 0.056445,0.06491 0.090311,0.155222 0.036689,0.08749 0.036689,0.208845 0,0.110067 -0.033867,0.208845 -0.033867,0.09878 -0.1072447,0.174979 -0.070556,0.07338 -0.1806227,0.118533 -0.1072448,0.04233 -0.2540007,0.04233 -0.1354671,0 -0.2370674,-0.03104 Q 1.0790224,53.981206 1,53.930406 l 0.079022,-0.203201 q 0.073378,0.04516 0.1495782,0.07338 0.079023,0.0254 0.1806228,0.0254 z"
         id="path32404" />
      <path
         d="m 2.9529774,54.043295 q -0.344312,0 -0.527757,-0.256823 -0.1834449,-0.256823 -0.1834449,-0.793047 0,-0.273756 0.0508,-0.462846 0.053622,-0.189089 0.146756,-0.307623 0.093134,-0.118533 0.2201339,-0.169333 Q 2.7864659,52 2.9360441,52 q 0.1241781,0 0.2314228,0.03387 0.1072448,0.03104 0.1749783,0.07902 l -0.0762,0.211668 q -0.067734,-0.04516 -0.146756,-0.07338 -0.0762,-0.02822 -0.1778005,-0.02822 -0.2257784,0 -0.3273787,0.18909 -0.1016003,0.186267 -0.1016003,0.581379 0,0.397935 0.1072448,0.612424 0.1072447,0.21449 0.3499565,0.21449 0.1157115,0 0.1862672,-0.02822 0.073378,-0.02822 0.1411115,-0.07338 l 0.070556,0.200379 q -0.064911,0.0508 -0.1721561,0.08749 -0.1044225,0.03669 -0.2427118,0.03669 z"
         id="path32406" />
      <path
         d="m 4.3386886,52.045156 q 0.067734,0.211667 0.1326448,0.428979 0.067734,0.214489 0.1298226,0.451557 0.064911,0.237067 0.1270003,0.502357 0.064911,0.265289 0.1298226,0.572912 H 4.6039782 q -0.022578,-0.127 -0.047978,-0.251178 -0.022578,-0.124178 -0.047978,-0.248356 h -0.615246 q -0.028222,0.124178 -0.0508,0.248356 -0.022578,0.124178 -0.045156,0.251178 h -0.245534 q 0.062089,-0.307623 0.1270003,-0.572912 0.064911,-0.26529 0.1270004,-0.502357 0.064911,-0.237068 0.1298226,-0.451557 0.067734,-0.217312 0.135467,-0.428979 z m -0.1382893,0.287867 q -0.070556,0.234245 -0.1354671,0.471313 -0.064911,0.237067 -0.1241781,0.485423 H 4.4572222 Q 4.4007776,53.041403 4.3358663,52.804336 4.270955,52.567268 4.2003993,52.333023 Z"
         id="path32408" />
      <path
         d="M 6.1110444,54.000961 Q 6.0433109,53.83445 5.9558218,53.642538 5.8711549,53.447804 5.7751991,53.25307 5.6820655,53.055514 5.5832874,52.863603 5.4845094,52.668869 5.3885535,52.502357 v 1.498604 H 5.1514862 v -1.955805 h 0.2116673 q 0.1072447,0.174978 0.2060228,0.358423 0.1016002,0.183445 0.1919116,0.364068 0.090311,0.1778 0.1693338,0.352779 0.081845,0.172156 0.1495782,0.327378 v -1.402648 h 0.2370673 v 1.955805 z"
         id="path32410" />
    </g>
    <g
       aria-label="SPEED"
       id="text29764"
       style="font-size:2.82223px;line-height:1.25;font-family:'Ubuntu Condensed';-inkscape-font-specification:'Ubuntu Condensed, ';stroke-width:0.264583">
      <path
         d="m 1.4092234,71.825983 q 0.1524004,0 0.2342451,-0.08467 0.084667,-0.08467 0.084667,-0.228601 0,-0.0762 -0.0254,-0.135467 -0.0254,-0.05927 -0.067734,-0.107244 -0.039511,-0.04798 -0.093134,-0.08749 -0.053622,-0.03951 -0.110067,-0.07902 -0.064911,-0.04516 -0.135467,-0.09596 -0.070556,-0.0508 -0.1298226,-0.118533 -0.056445,-0.06773 -0.093134,-0.158045 -0.036689,-0.09031 -0.036689,-0.211667 0,-0.118534 0.039511,-0.21449 0.042334,-0.09596 0.1128892,-0.163689 0.073378,-0.06773 0.1721561,-0.104423 Q 1.4628457,70 1.5785572,70 q 0.1128892,0 0.208845,0.02822 0.095956,0.02822 0.1608671,0.06773 l -0.079022,0.200378 q -0.059267,-0.03951 -0.1298226,-0.05927 -0.067734,-0.02258 -0.1439337,-0.02258 -0.1382893,0 -0.2229562,0.0762 -0.081845,0.07338 -0.081845,0.217312 0,0.07902 0.0254,0.138289 0.028222,0.05927 0.070556,0.107245 0.045156,0.04798 0.1016003,0.08749 0.059267,0.03951 0.1241781,0.08184 0.064911,0.04233 0.1326449,0.09313 0.067733,0.0508 0.1213558,0.118534 0.056445,0.06491 0.090311,0.155222 0.036689,0.08749 0.036689,0.208845 0,0.110067 -0.033867,0.208845 -0.033867,0.09878 -0.1072447,0.174979 -0.070556,0.07338 -0.1806227,0.118533 -0.1072448,0.04233 -0.2540007,0.04233 -0.1354671,0 -0.2370674,-0.03105 Q 1.0790224,71.981206 1,71.930406 l 0.079022,-0.203201 q 0.073378,0.04516 0.1495782,0.07338 0.079023,0.0254 0.1806228,0.0254 z"
         id="path32413" />
      <path
         d="m 2.2954026,70.073378 q 0.1975561,-0.04798 0.3866455,-0.04798 0.146756,0 0.2652896,0.03669 0.1213559,0.03387 0.2060228,0.110067 0.087489,0.07338 0.1326448,0.191912 0.047978,0.118534 0.047978,0.285045 0,0.169334 -0.047978,0.29069 -0.047978,0.118533 -0.135467,0.194734 -0.087489,0.07338 -0.2116673,0.107244 -0.1213559,0.03387 -0.2709341,0.03387 H 2.5494033 v 0.725313 H 2.2954026 Z m 0.2540007,0.979314 h 0.1016003 q 0.095956,0 0.172156,-0.01976 0.079022,-0.02258 0.1326448,-0.07056 0.053622,-0.04798 0.081845,-0.124178 0.028222,-0.0762 0.028222,-0.18909 0,-0.112889 -0.028222,-0.189089 -0.028222,-0.07902 -0.079022,-0.124178 -0.047978,-0.04798 -0.1185336,-0.06773 -0.070556,-0.01976 -0.1552227,-0.01976 -0.073378,0 -0.135467,0.0085 z"
         id="path32415" />
      <path
         d="m 3.6641806,72.000961 v -1.955805 h 0.8777135 v 0.217312 H 3.9181813 v 0.606779 h 0.564446 v 0.211667 h -0.564446 v 0.702736 h 0.6688685 v 0.217311 z"
         id="path32417" />
      <path
         d="m 4.9511157,72.000961 v -1.955805 h 0.8777135 v 0.217312 H 5.2051164 v 0.606779 h 0.564446 v 0.211667 h -0.564446 v 0.702736 h 0.6688685 v 0.217311 z"
         id="path32419" />
      <path
         d="m 7.4713655,71.021647 q 0,0.273757 -0.059267,0.465668 -0.056445,0.18909 -0.1665116,0.307624 -0.1072447,0.118533 -0.2624674,0.172156 -0.1524004,0.05362 -0.3414898,0.05362 -0.1919117,0 -0.4064011,-0.0508 v -1.896539 q 0.1072447,-0.02258 0.208845,-0.03669 0.1016003,-0.01411 0.1947339,-0.01411 0.1919116,0 0.344312,0.05362 0.1552227,0.05362 0.2624674,0.172156 0.110067,0.118534 0.1665116,0.310446 0.059267,0.189089 0.059267,0.462845 z m -0.2709341,0 q 0,-0.208845 -0.031045,-0.355601 -0.031045,-0.146755 -0.095956,-0.239889 -0.064911,-0.09313 -0.172156,-0.135467 -0.1044226,-0.04233 -0.2511785,-0.04233 -0.039511,0 -0.079023,0.0028 -0.039511,0.0028 -0.081845,0.0085 v 1.524005 q 0.042333,0.0056 0.081845,0.0085 0.039511,0.0028 0.0762,0.0028 0.1495782,0 0.2540008,-0.04233 0.1044225,-0.04233 0.1693338,-0.132645 0.067734,-0.09313 0.098778,-0.239889 0.031045,-0.146756 0.031045,-0.358424 z"
         id="path32421" />
    </g>
  </g>
  <g
     inkscape:groupmode="layer"
     id="layer2"
     inkscape:label="components"
     style="display:none">
    <circle
       cx="13.820001"
       cy="23.999996"
       fill="#ff0000"
       id="RecBtn"
       style="display:inline;stroke-width:0.352778"
       r="1.1906251mm"
       inkscape:label="RecBtn" />
    <circle
       cx="5"
       cy="23.999996"
       fill="#00ff00"
       id="RecSocket"
       style="display:inline;stroke-width:0.352777"
       r="0.79374999mm"
       inkscape:label="RecSocket" />
    <circle
       cx="13.820001"
       cy="41.999996"
       fill="#ff0000"
       id="LengthKnob"
       style="display:inline;stroke-width:0.352778"
       inkscape:label="LengthKnob"
       r="1.1906251mm" />
    <circle
       cx="5"
       cy="41.999996"
       fill="#00ff00"
       id="LengthSocket"
       style="display:inline;stroke-width:0.352777"
       r="0.79374999mm"
       inkscape:label="LengthSocket" />
    <circle
       cx="13.820001"
       cy="60"
       fill="#ff0000"
       id="ScanKnob"
       style="display:inline;stroke-width:0.352778"
       inkscape:label="ScanKnob"
       r="1.1906251mm" />
    <circle
       cx="5"
       cy="59.999996"
       fill="#00ff00"
       id="ScanSocket"
       style="display:inline;stroke-width:0.352777"
       r="0.79374999mm"
       inkscape:label="ScanSocket" />
    <circle
       cx="13.820001"
       cy="78"
       fill="#ff0000"
       id="SpeedKnob"
       style="display:inline;stroke-width:0.352778"
       inkscape:label="SpeedKnob"
       r="1.1906251mm" />
    <circle
       cx="5"
       cy="78"
       fill="#00ff00"
       id="SpeedSocket"
       style="display:inline;stroke-width:0.352777"
       r="0.79374999mm"
       inkscape:label="SpeedSocket" />
    <circle
       cx="5.0799999"
       cy="106"
       fill="#00ff00"
       id="InSocket"
       style="display:inline;stroke-width:0.352777"
       r="0.79374999mm"
       inkscape:label="InSocket" />
    <circle
       cx="15.2415"
       cy="106"
       fill="#0000ff"
       id="OutSocket"
       style="display:inline;fill:#0000f4;fill-opacity:1;stroke-width:0.35277"
       inkscape:label="OutSocket"
       r="3" />
  </g>
</svg>
