<?xml version="1.0" encoding="UTF-8" standalone="no"?>
<!-- Created with Inkscape (http://www.inkscape.org/) -->

<svg
   width="20.32mm"
   height="128.5mm"
   viewBox="0 0 20.32 128.5"
   version="1.1"
   id="svg470"
   inkscape:version="1.1.2 (0a00cf5339, 2022-02-04)"
   sodipodi:docname="MicroLooper.svg"
   xmlns:inkscape="http://www.inkscape.org/namespaces/inkscape"
   xmlns:sodipodi="http://sodipodi.sourceforge.net/DTD/sodipodi-0.dtd"
   xmlns="http://www.w3.org/2000/svg"
   xmlns:svg="http://www.w3.org/2000/svg">
  <sodipodi:namedview
     id="namedview472"
     pagecolor="#ffffff"
     bordercolor="#666666"
     borderopacity="1.0"
     inkscape:pageshadow="2"
     inkscape:pageopacity="1"
     inkscape:pagecheckerboard="false"
     inkscape:document-units="mm"
     showgrid="true"
     width="40.64mm"
     inkscape:zoom="2.1266375"
     inkscape:cx="-71.474334"
     inkscape:cy="214.18789"
     inkscape:window-width="1920"
     inkscape:window-height="1019"
     inkscape:window-x="0"
     inkscape:window-y="0"
     inkscape:window-maximized="1"
     inkscape:current-layer="layer1"
     objecttolerance="20"
     guidetolerance="10000"
     showguides="true">
    <inkscape:grid
       type="xygrid"
       id="grid1902"
       units="mm"
       dotted="false"
       originx="0"
       originy="0"
       spacingx="1"
       spacingy="1"
       snapvisiblegridlinesonly="false"
       visible="true"
       empspacing="10" />
  </sodipodi:namedview>
  <defs
     id="defs467" />
  <rect
     style="display:inline;fill:#e8e5e0;fill-opacity:1;stroke-width:0.187088"
     id="rect981"
     width="20.32"
     height="128.5"
     x="0"
     y="-5.5511151e-17" />
  <rect
     style="display:inline;fill:#999593;fill-opacity:1;stroke-width:0.360262"
     id="rect1123-3"
     width="20.32"
     height="16"
     x="0"
     y="96" />
  <g
     inkscape:label="panel"
     inkscape:groupmode="layer"
     id="layer1"
     style="display:inline">
    <g
       aria-label="μΛooper"
       id="text4"
       style="font-weight:bold;font-size:15.1181px;font-family:Ubuntu;text-anchor:middle"
       transform="matrix(0.26458333,0,0,0.26458333,-8.9958416,-2.3879992)">
      <path
         d="m 45.036909,30.447872 v 4.263307 q 0,0.574488 0.07559,0.952441 0.09071,0.377952 0.257008,0.604724 0.181417,0.211654 0.438425,0.302362 0.257008,0.09071 0.604724,0.09071 0.24189,0 0.498898,-0.01512 0.272126,-0.03024 0.483779,-0.06047 v -6.137952 h 2.252599 v 7.68 q -0.589606,0.166299 -1.421103,0.287244 -0.816378,0.136063 -1.768818,0.136063 -0.393071,0 -0.80126,-0.07559 -0.408189,-0.07559 -0.695433,-0.211653 0.03024,0.302362 0.04535,0.604724 0.03024,0.31748 0.03024,0.876851 v 1.164094 H 42.784311 V 30.447872 Z"
         id="path9371" />
      <path
         d="m 57.297695,27.923147 q 0.619843,1.315276 1.209449,2.751496 0.604724,1.421103 1.148976,2.811969 0.544252,1.375748 0.997796,2.645669 0.468661,1.269921 0.816378,2.267717 h -2.600315 q -0.302363,-0.907087 -0.665197,-1.950237 -0.347717,-1.058267 -0.72567,-2.101417 -0.362834,-1.04315 -0.725669,-1.995591 -0.347716,-0.952441 -0.634961,-1.647874 -0.302362,0.695433 -0.665196,1.647874 -0.347717,0.952441 -0.710552,1.995591 -0.362834,1.04315 -0.725669,2.101417 -0.347716,1.04315 -0.650079,1.950237 H 50.85738 q 0.332598,-0.997796 0.786142,-2.267717 0.468661,-1.269921 1.012913,-2.660787 0.544252,-1.390867 1.148977,-2.811969 0.604724,-1.421102 1.224566,-2.736378 z"
         id="path9373" />
      <path
         d="m 70.117826,34.408816 q 0,0.937323 -0.272126,1.723465 -0.272126,0.771024 -0.786142,1.330394 -0.514016,0.544252 -1.239685,0.846614 -0.710551,0.302362 -1.60252,0.302362 -0.87685,0 -1.602519,-0.302362 -0.710552,-0.302362 -1.224567,-0.846614 -0.514016,-0.55937 -0.80126,-1.330394 -0.287244,-0.786142 -0.287244,-1.723465 0,-0.937322 0.287244,-1.708346 0.302362,-0.771024 0.816378,-1.315276 0.529134,-0.544252 1.239685,-0.846614 0.725669,-0.302362 1.572283,-0.302362 0.861733,0 1.572284,0.302362 0.725669,0.302362 1.239685,0.846614 0.514016,0.544252 0.80126,1.315276 0.287244,0.771024 0.287244,1.708346 z m -2.297953,0 q 0,-1.043149 -0.423307,-1.632755 -0.408189,-0.604725 -1.179213,-0.604725 -0.771023,0 -1.19433,0.604725 -0.423307,0.589606 -0.423307,1.632755 0,1.04315 0.423307,1.662993 0.423307,0.604724 1.19433,0.604724 0.771024,0 1.179213,-0.604724 0.423307,-0.619843 0.423307,-1.662993 z"
         id="path9375" />
      <path
         d="m 79.294496,34.408816 q 0,0.937323 -0.272126,1.723465 -0.272126,0.771024 -0.786142,1.330394 -0.514016,0.544252 -1.239685,0.846614 -0.710551,0.302362 -1.60252,0.302362 -0.87685,0 -1.602519,-0.302362 -0.710552,-0.302362 -1.224567,-0.846614 -0.514016,-0.55937 -0.80126,-1.330394 -0.287244,-0.786142 -0.287244,-1.723465 0,-0.937322 0.287244,-1.708346 0.302362,-0.771024 0.816378,-1.315276 0.529134,-0.544252 1.239685,-0.846614 0.725669,-0.302362 1.572283,-0.302362 0.861733,0 1.572284,0.302362 0.725669,0.302362 1.239685,0.846614 0.514016,0.544252 0.80126,1.315276 0.287244,0.771024 0.287244,1.708346 z m -2.297953,0 q 0,-1.043149 -0.423307,-1.632755 -0.408189,-0.604725 -1.179213,-0.604725 -0.771023,0 -1.19433,0.604725 -0.423307,0.589606 -0.423307,1.632755 0,1.04315 0.423307,1.662993 0.423307,0.604724 1.19433,0.604724 0.771024,0 1.179213,-0.604724 0.423307,-0.619843 0.423307,-1.662993 z"
         id="path9377" />
      <path
         d="m 86.127859,34.484407 q 0,-1.04315 -0.468662,-1.662992 -0.468661,-0.634961 -1.390866,-0.634961 -0.302362,0 -0.55937,0.03024 -0.257008,0.01512 -0.423307,0.04536 v 4.066772 q 0.211654,0.136063 0.544252,0.226771 0.347717,0.09071 0.695433,0.09071 1.60252,0 1.60252,-2.16189 z m 2.297953,-0.06047 q 0,0.922204 -0.226772,1.67811 -0.226772,0.755905 -0.665197,1.300157 -0.438425,0.544252 -1.088504,0.846615 -0.650079,0.302362 -1.496693,0.302362 -0.468661,0 -0.87685,-0.09071 -0.408189,-0.09071 -0.786142,-0.257008 v 2.993386 H 81.033056 V 30.719997 q 0.302362,-0.09071 0.695433,-0.166299 0.393071,-0.09071 0.816378,-0.151181 0.438425,-0.06047 0.87685,-0.09071 0.453543,-0.04536 0.861732,-0.04536 0.982678,0 1.753701,0.302362 0.771024,0.287244 1.300158,0.831496 0.529134,0.529134 0.80126,1.300158 0.287244,0.771024 0.287244,1.723465 z"
         id="path9379" />
      <path
         d="m 89.786416,34.484407 q 0,-1.058268 0.31748,-1.844409 0.332599,-0.80126 0.861733,-1.330394 0.529134,-0.529134 1.209449,-0.80126 0.695433,-0.272126 1.421102,-0.272126 1.693228,0 2.675906,1.04315 0.982677,1.028031 0.982677,3.03874 0,0.196535 -0.01512,0.438425 -0.01512,0.226772 -0.03024,0.408189 h -5.109921 q 0.07559,0.695433 0.650079,1.103622 0.574488,0.408189 1.542047,0.408189 0.619843,0 1.209449,-0.105827 0.604724,-0.120945 0.982677,-0.287244 l 0.302362,1.829292 q -0.181417,0.09071 -0.483779,0.181417 -0.302362,0.09071 -0.680315,0.151181 -0.362835,0.07559 -0.786142,0.120945 -0.423307,0.04535 -0.846614,0.04535 -1.073386,0 -1.874646,-0.31748 -0.786142,-0.31748 -1.315275,-0.861732 -0.514016,-0.55937 -0.771024,-1.315276 -0.24189,-0.755906 -0.24189,-1.632756 z m 5.291339,-0.861732 q -0.01512,-0.287244 -0.105827,-0.55937 -0.07559,-0.272126 -0.257008,-0.48378 -0.166299,-0.211653 -0.438425,-0.347716 -0.257008,-0.136063 -0.650079,-0.136063 -0.377953,0 -0.650078,0.136063 -0.272126,0.120944 -0.453544,0.332598 -0.181417,0.211654 -0.287244,0.498898 -0.09071,0.272126 -0.136063,0.55937 z"
         id="path9381" />
      <path
         d="m 103.78578,32.443462 q -0.30236,-0.07559 -0.71055,-0.151181 -0.40819,-0.09071 -0.87685,-0.09071 -0.21166,0 -0.51402,0.04536 -0.28724,0.03024 -0.43842,0.07559 v 6.077481 h -2.252603 v -7.528819 q 0.604724,-0.211654 1.421103,-0.393071 0.8315,-0.196536 1.84441,-0.196536 0.18142,0 0.43842,0.03024 0.25701,0.01512 0.51402,0.06047 0.25701,0.03024 0.51402,0.09071 0.257,0.04535 0.43842,0.120945 z"
         id="path9383" />
    </g>
    <path
       style="display:inline;fill:#000000;stroke-width:0.256427"
       d="m 6.3076506,122.99351 c -0.03895,-0.87892 0.0074,-0.94127 0.676794,-0.90935 0.592699,0.0282 0.618282,0.0531 0.146007,0.14137 -0.416041,0.0778 -0.601093,0.32647 -0.676794,0.90936 -0.100103,0.77081 -0.105827,0.76526 -0.146007,-0.14138 z m 1.438882,0.37746 c 0.08798,-0.33624 0.348012,-0.56618 0.640289,-0.56618 0.2706833,0 0.4921523,-0.11324 0.4921523,-0.25164 0,-0.13839 -0.159216,-0.25163 -0.353815,-0.25163 -0.1945983,0 -0.6677623,-0.28018 -1.0514773,-0.62261 -0.383715,-0.34245 -0.753661,-0.62554 -0.822101,-0.62909 -0.06844,-0.004 -0.124436,-0.063 -0.124436,-0.13228 v -0.301 c 0,-0.0963 0.382172,0.1707 0.849271,0.59342 0.57354,0.51907 1.582834,0.98443 3.1086934,1.43334 2.72786,0.80257 3.077277,0.82123 3.025669,0.16152 -0.02826,-0.36128 -0.170622,-0.4631 -0.504743,-0.36099 -0.364501,0.11141 -0.426807,0.0432 -0.287438,-0.31458 0.155991,-0.40047 0.12397,-0.41455 -0.25963,-0.11412 -0.572561,0.44842 -1.26488,0.19257 -1.071773,-0.39607 0.140142,-0.42721 0.128587,-0.42768 -0.229199,-0.01 -0.481338,0.56255 -0.711137,0.55877 -0.711137,-0.0117 0,-0.32913 0.195394,-0.44784 0.718613,-0.4366 0.562469,0.0121 0.699371,0.12104 0.630055,0.50142 -0.07456,0.40915 -0.02569,0.43574 0.309153,0.16814 0.553362,-0.44223 1.739262,0.30903 1.739262,1.10182 0,0.83186 -0.558794,0.91682 -2.254806,0.3428 l -1.502355,-0.50848 -0.4674357,0.5851 c -0.2570927,0.32181 -0.4700517,0.45024 -0.4732477,0.28541 -0.0032,-0.16484 0.111783,-0.36967 0.255505,-0.45521 0.1437227,-0.0855 0.2613147,-0.25965 0.2613147,-0.38691 0,-0.30875 -1.3542307,0.28008 -1.7508747,0.76129 -0.262658,0.31865 -0.289564,0.28847 -0.165509,-0.18566 z m 1.45691,-2.10626 c -0.791051,-0.48781 -0.839522,-0.49198 -0.6833307,-0.0587 0.10338,0.28681 -0.2218403,0.10236 -0.8445923,-0.47901 -0.837037,-0.7814 -0.962861,-1.02148 -0.725342,-1.38398 0.254583,-0.38854 0.679124,-0.42846 3.7212214,-0.34992 2.960695,0.0765 3.433856,0.0351 3.433856,-0.29969 0,-0.21359 -0.113739,-0.45604 -0.252756,-0.53877 -0.139014,-0.0827 -0.184242,-0.4803 -0.100502,-0.88348 0.130239,-0.62708 0.0588,-0.75565 -0.494075,-0.88927 -0.36303,-0.0878 -1.073369,0.0156 -1.620608,0.23579 -0.861674,0.34669 -1.019137,0.34881 -1.362348,0.0184 -0.5104987,-0.49159 -0.6997837,-0.4722 -1.2653354,0.12958 -0.2601357,0.27679 -0.601738,0.50153 -0.759116,0.4994 -0.157378,-0.002 -0.109755,-0.11362 0.105829,-0.24777 0.3065833,-0.19079 0.2387853,-0.24477 -0.31122,-0.24778 -0.386756,-0.002 -0.775869,0.10938 -0.864694,0.24778 -0.08883,0.13839 0.05123,0.25564 0.311221,0.26055 0.376242,0.007 0.33939,0.0824 -0.180563,0.36853 -0.87971,0.48425 -1.186472,0.46753 -0.750611,-0.0409 0.279598,-0.32617 0.286649,-0.4417 0.032,-0.52424 -0.179654,-0.0582 -0.326644,-0.21634 -0.326644,-0.35138 0,-0.13503 0.116661,-0.17609 0.259245,-0.0912 0.142585,0.0848 0.451664,0.0506 0.686842,-0.0762 0.518482,-0.2794 0.02663,-0.6753 -0.566629,-0.45607 -0.208701,0.0771 -0.379458,0.0305 -0.379458,-0.10353 0,-0.35898 0.870615,-0.29636 1.438441,0.10346 0.366447,0.25802 0.683328,0.28332 1.2339083,0.0985 0.5182857,-0.17398 0.9667914,-0.15855 1.4930171,0.0514 0.568072,0.22659 0.888868,0.22958 1.310597,0.0123 0.307127,-0.15829 0.935148,-0.25269 1.395606,-0.20981 0.736595,0.0686 0.839232,0.17009 0.854127,0.84442 0.0093,0.42153 0.09983,0.89558 0.201144,1.05345 0.167782,0.26142 0.02109,2.31147 -0.179214,2.50433 -0.04662,0.0449 -0.449461,-0.0408 -0.8952,-0.19042 -0.598997,-0.20107 -0.767722,-0.3819 -0.646731,-0.69311 0.142584,-0.36677 0.106828,-0.37654 -0.2772,-0.0757 -0.35629,0.27908 -0.440897,0.28192 -0.440897,0.0148 0,-0.20126 -0.150057,-0.1395 -0.383661,0.15791 -0.211015,0.26866 -0.387401,0.39955 -0.391972,0.29088 -0.0045,-0.10868 -0.237772,-0.0793 -0.518222,0.0652 -0.37395,0.19273 -0.4835367,0.46345 -0.411,1.01539 0.0544,0.41392 0.07807,0.75069 0.05261,0.74836 -0.02548,-0.002 -0.4294527,-0.24052 -0.8977444,-0.52931 z m 0.7207877,-0.22135 c 0,-0.1384 -0.05186,-0.25163 -0.115237,-0.25163 -0.06338,0 -0.187911,0.11323 -0.276735,0.25163 -0.08883,0.13839 -0.03697,0.25163 0.115235,0.25163 0.152205,0 0.276737,-0.11324 0.276737,-0.25163 z m -1.7148067,-1.15264 c 0.4928183,-0.47456 0.3137353,-0.86042 -0.399332,-0.86042 -0.636205,0 -0.96887,0.72496 -0.471754,1.02807 0.462158,0.28179 0.389914,0.2957 0.871086,-0.16765 z m 5.6345174,0.0359 c 0,-0.20669 -0.224067,-0.34555 -0.522629,-0.3239 -0.644455,0.0467 -0.683967,0.35658 -0.06533,0.51226 0.251515,0.0633 0.486698,0.12821 0.522629,0.14427 0.03593,0.0161 0.06533,-0.13363 0.06533,-0.33263 z m -3.13577,-0.42001 c 0,-0.33158 -1.5057534,-0.27346 -1.7239814,0.0666 -0.1280847,0.19957 -0.0096,0.2466 0.376547,0.14938 0.3099217,-0.0781 0.5634937,-0.0428 0.5634937,0.0783 0,0.1211 0.1763867,0.155 0.3919707,0.0753 0.215584,-0.0797 0.39197,-0.24596 0.39197,-0.36956 z m -1.2188127,-1.87724 c -0.2177937,-0.54653 0.335118,-1.06051 0.7308827,-0.6794 0.33449,0.32209 0.127273,1.07377 -0.2960107,1.07377 -0.152746,0 -0.348436,-0.17747 -0.434872,-0.39437 z m 0.352064,-0.40771 c -0.08342,-0.20073 -0.145338,-0.14111 -0.157878,0.15203 -0.01134,0.26526 0.05042,0.41388 0.137247,0.33026 0.08683,-0.0836 0.09612,-0.30064 0.02062,-0.48229 z"
       id="path1561"
       sodipodi:nodetypes="ssssssssssssssssssssssssssscsssssscssssssssssscscsssssssssssssssssssssssssscscsssssssssssssssssssssssssssss" />
    <g
       aria-label="LENGTH"
       id="text32"
       style="font-size:15.1181px;font-family:Ubuntu"
       transform="matrix(0.18911993,0,0,0.205266,-6.8232932,-19.658028)">
      <path
         d="m 52.958742,270.85606 v 1.26992 h -6.304253 v -10.47685 h 1.466457 v 9.20693 z"
         id="path9416" />
      <path
         d="m 54.500775,272.12598 v -10.47685 h 6.394961 v 1.2548 h -4.928504 v 3.11433 h 4.384252 v 1.22457 h -4.384252 v 3.62834 h 5.306457 v 1.25481 z"
         id="path9418" />
      <path
         d="m 70.314306,272.12598 q -0.332598,-0.55937 -0.771024,-1.25481 -0.423307,-0.69543 -0.922204,-1.43622 -0.498898,-0.7559 -1.04315,-1.52693 -0.529134,-0.77102 -1.058268,-1.48157 -0.529134,-0.72567 -1.028031,-1.36063 -0.498898,-0.63496 -0.922205,-1.11874 v 8.1789 h -1.436221 v -10.47685 h 1.164095 q 0.710551,0.7559 1.511811,1.76881 0.816378,0.9978 1.60252,2.07119 0.80126,1.05826 1.496693,2.0863 0.710551,1.02803 1.19433,1.82929 v -7.75559 h 1.436221 v 10.47685 z"
         id="path9420" />
      <path
         d="m 80.53413,266.9707 h 1.466457 v 4.89827 q -0.181417,0.0605 -0.529134,0.13606 -0.332598,0.0756 -0.786141,0.15118 -0.438426,0.0756 -0.96756,0.12095 -0.529133,0.0605 -1.073385,0.0605 -1.103622,0 -2.010709,-0.36283 -0.907087,-0.36284 -1.557165,-1.05827 -0.650079,-0.69544 -1.012914,-1.70835 -0.347716,-1.01291 -0.347716,-2.32819 0,-1.31527 0.39307,-2.32819 0.408189,-1.02803 1.088504,-1.72346 0.680315,-0.69543 1.587402,-1.05827 0.922205,-0.36283 1.965354,-0.36283 0.710552,0 1.254804,0.0907 0.55937,0.0907 0.952441,0.21166 0.39307,0.12094 0.63496,0.24189 0.257008,0.12094 0.347717,0.18142 l -0.468662,1.22456 q -0.438425,-0.28724 -1.164094,-0.46866 -0.72567,-0.19653 -1.481575,-0.19653 -0.80126,0 -1.466457,0.28724 -0.650079,0.28724 -1.11874,0.8315 -0.453543,0.54425 -0.710551,1.33039 -0.257008,0.77102 -0.257008,1.73858 0,0.93733 0.211654,1.70835 0.226771,0.77102 0.665196,1.33039 0.453544,0.54425 1.103622,0.84662 0.665197,0.30236 1.557166,0.30236 0.634961,0 1.073386,-0.0605 0.453543,-0.0756 0.650078,-0.13607 z"
         id="path9422" />
      <path
         d="m 91.29821,261.64913 v 1.26992 h -3.295748 v 9.20693 h -1.466457 v -9.20693 h -3.295748 v -1.26992 z"
         id="path9424" />
      <path
         d="m 99.431731,261.64913 h 1.466459 v 10.47685 h -1.466459 v -4.8378 h -5.12504 v 4.8378 h -1.466456 v -10.47685 h 1.466456 v 4.36913 h 5.12504 z"
         id="path9426" />
    </g>
    <g
       aria-label="OUT"
       id="text44"
       style="font-size:4px;font-family:Ubuntu;stroke-width:0.264583"
       transform="matrix(0.70521912,0,0,0.70521912,2.9329989,28.332862)">
      <path
         d="m 11.761156,100.23593 q 0,-0.355998 0.104,-0.627998 0.108,-0.272 0.288,-0.452 0.184,-0.184 0.424,-0.276 0.244,-0.092 0.516,-0.092 0.268,0 0.504,0.092 0.24,0.092 0.42,0.276 0.18,0.18 0.284,0.452 0.108,0.272 0.108,0.627998 0,0.356 -0.108,0.628 -0.104,0.272 -0.284,0.456 -0.18,0.18 -0.42,0.272 -0.236,0.092 -0.504,0.092 -0.272,0 -0.516,-0.092 -0.24,-0.092 -0.424,-0.272 -0.18,-0.184 -0.288,-0.456 -0.104,-0.272 -0.104,-0.628 z m 0.408,0 q 0,0.252 0.064,0.46 0.064,0.204 0.18,0.348 0.12,0.144 0.288,0.224 0.172,0.076 0.384,0.076 0.212,0 0.38,-0.076 0.168,-0.08 0.284,-0.224 0.12,-0.144 0.184,-0.348 0.064,-0.208 0.064,-0.46 0,-0.251998 -0.064,-0.455998 -0.064,-0.208 -0.184,-0.352 -0.116,-0.144 -0.284,-0.22 -0.168,-0.08 -0.38,-0.08 -0.212,0 -0.384,0.08 -0.168,0.076 -0.288,0.22 -0.116,0.144 -0.18,0.352 -0.064,0.204 -0.064,0.455998 z"
         id="path719" />
      <path
         d="m 16.017155,101.68393 q -0.272,0 -0.472,-0.084 -0.2,-0.084 -0.328,-0.228 -0.128,-0.148 -0.192,-0.348 -0.06,-0.2 -0.06,-0.432 v -1.739998 h 0.388 v 1.695998 q 0,0.416 0.184,0.604 0.184,0.188 0.48,0.188 0.148,0 0.268,-0.044 0.124,-0.048 0.212,-0.144 0.088,-0.096 0.136,-0.244 0.048,-0.152 0.048,-0.36 v -1.695998 h 0.388 v 1.739998 q 0,0.232 -0.064,0.432 -0.06,0.2 -0.192,0.348 -0.128,0.144 -0.328,0.228 -0.196,0.084 -0.468,0.084 z"
         id="path721" />
      <path
         d="m 19.589154,98.851932 v 0.336 h -0.872 v 2.435998 h -0.388 v -2.435998 h -0.872 v -0.336 z"
         id="path723" />
    </g>
    <g
       aria-label="IN"
       id="text44-6"
       style="font-size:15.1181px;font-family:Ubuntu"
       transform="matrix(0.18658922,0,0,0.18658922,-13.799246,82.831106)">
      <path
         d="m 84.673951,81.295663 h 1.466456 v 10.476844 h -1.466456 z"
         id="path9386" />
      <path
         d="M 95.921804,91.772507 Q 95.589206,91.213137 95.150781,90.517704 94.727474,89.822272 94.228577,89.081485 93.72968,88.32558 93.185428,87.554557 92.656294,86.783534 92.127161,86.072983 91.598027,85.347314 91.09913,84.712354 90.600233,84.077394 90.176926,83.593615 v 8.178892 h -1.43622 V 81.295663 H 89.9048 q 0.710551,0.755905 1.51181,1.768818 0.816378,0.997795 1.602519,2.07118 0.801259,1.058267 1.496692,2.086298 0.71055,1.02803 1.19433,1.82929 v -7.755586 h 1.436219 v 10.476844 z"
         id="path9388" />
    </g>
    <text
       xml:space="preserve"
       style="font-size:2.82223px;line-height:1.25;font-family:Ubuntu;-inkscape-font-specification:Ubuntu;stroke-width:0.264583"
       x="11"
       y="35"
       id="text14295"><tspan
         sodipodi:role="line"
         id="tspan14293"
         style="stroke-width:0.264583"
         x="11"
         y="35" /></text>
    <g
       aria-label="PLAY"
       id="text18435"
       style="font-size:3.20571px;line-height:1.25;font-family:Ubuntu;-inkscape-font-specification:Ubuntu;stroke-width:0.267143"
       transform="translate(0,-18.000003)">
      <path
         d="m 2.5898503,34.000003 q 0.4680336,0 0.718079,0.179519 0.2532511,0.176314 0.2532511,0.528942 0,0.192343 -0.070526,0.330189 -0.06732,0.134639 -0.198754,0.221194 -0.1282284,0.08335 -0.3141596,0.121817 -0.1859312,0.03847 -0.419948,0.03847 H 2.3109535 v 0.823867 H 1.9999997 V 34.0545 q 0.1314341,-0.03206 0.2917196,-0.04167 0.1634912,-0.01282 0.298131,-0.01282 z m 0.025646,0.272485 q -0.198754,0 -0.3045425,0.0096 v 0.871953 h 0.2340169 q 0.1602854,0 0.2885138,-0.01923 0.1282284,-0.02244 0.2147826,-0.07053 0.08976,-0.05129 0.1378455,-0.137845 0.048086,-0.08655 0.048086,-0.221194 0,-0.128229 -0.051291,-0.211577 -0.048086,-0.08335 -0.1346398,-0.131434 -0.083348,-0.05129 -0.1955483,-0.07053 -0.1121998,-0.01923 -0.2372225,-0.01923 z"
         id="path38943" />
      <path
         d="m 5.2858518,35.97472 v 0.269279 H 3.9490707 v -2.221557 h 0.3109539 v 1.952278 z"
         id="path38945" />
      <path
         d="M 7.1868343,36.243999 Q 7.1323372,36.099743 7.0842516,35.961897 7.0361659,35.820846 6.9848746,35.676589 H 5.9782817 l -0.2019598,0.56741 H 5.4525452 q 0.1282284,-0.352628 0.2404283,-0.650759 0.1121998,-0.301336 0.2179883,-0.570616 0.1089941,-0.26928 0.2147825,-0.512914 0.1057884,-0.246839 0.221194,-0.487268 h 0.2853082 q 0.1154055,0.240429 0.221194,0.487268 0.1057884,0.243634 0.2115768,0.512914 0.1089942,0.26928 0.221194,0.570616 0.1121999,0.298131 0.2404283,0.650759 z M 6.8951147,35.420132 Q 6.792532,35.141235 6.6899493,34.881573 6.5905723,34.618705 6.4815781,34.378276 6.3693783,34.618705 6.2667956,34.881573 6.1674185,35.141235 6.0680415,35.420132 Z"
         id="path38947" />
      <path
         d="M 8.1036603,36.243999 V 35.352812 Q 7.8824663,35.009801 7.686918,34.676407 7.4913697,34.343013 7.3182613,34.022442 h 0.365451 q 0.121817,0.262869 0.2724853,0.535354 0.1506684,0.26928 0.3109539,0.519325 0.1570798,-0.250045 0.3077481,-0.519325 0.1506684,-0.272485 0.2756911,-0.535354 H 9.1968074 Q 9.023699,34.343013 8.8281507,34.676407 8.6326024,35.006595 8.4146141,35.346401 v 0.897598 z"
         id="path38949" />
    </g>
    <g
       aria-label="SPEED"
       id="text38-3"
       style="display:inline;font-size:15.1181px;font-family:Ubuntu"
       transform="matrix(0.18911993,0,0,0.205266,-6.6717593,8.5838956)">
      <path
         d="m 49.088505,308.87812 q 2.297953,0 2.297953,-1.57229 0,-0.48378 -0.211653,-0.81638 -0.196536,-0.34771 -0.544252,-0.5896 -0.347717,-0.25701 -0.80126,-0.43843 -0.438425,-0.18142 -0.937323,-0.36283 -0.574488,-0.19654 -1.088504,-0.43843 -0.514016,-0.25701 -0.891969,-0.5896 -0.377952,-0.34772 -0.604724,-0.81638 -0.211654,-0.46866 -0.211654,-1.13386 0,-1.37575 0.937323,-2.14677 0.937323,-0.77103 2.585197,-0.77103 0.952441,0 1.723465,0.21166 0.786142,0.19653 1.148976,0.43842 l -0.468661,1.19433 q -0.317481,-0.19653 -0.952441,-0.37795 -0.619843,-0.19653 -1.451339,-0.19653 -0.423307,0 -0.786142,0.0907 -0.362834,0.0907 -0.63496,0.27213 -0.272126,0.18142 -0.438425,0.46866 -0.151182,0.27213 -0.151182,0.65008 0,0.42331 0.1663,0.71055 0.166299,0.28725 0.468661,0.51402 0.302362,0.21165 0.695433,0.39307 0.408189,0.18142 0.891969,0.36283 0.680315,0.27213 1.239685,0.54425 0.574488,0.27213 0.982677,0.65008 0.423307,0.37796 0.650079,0.90709 0.226771,0.51402 0.226771,1.2548 0,1.37575 -1.012913,2.11654 -0.997795,0.74079 -2.827087,0.74079 -0.619842,0 -1.148976,-0.0907 -0.514016,-0.0756 -0.922205,-0.18142 -0.408189,-0.12094 -0.710551,-0.24189 -0.287244,-0.13606 -0.453543,-0.22677 l 0.438425,-1.20945 q 0.347716,0.19654 1.058268,0.43843 0.710551,0.24189 1.738582,0.24189 z"
         id="path9429-6" />
      <path
         d="m 57.47905,299.33859 q 2.207245,0 3.386457,0.84661 1.194331,0.8315 1.194331,2.49449 0,0.90709 -0.332598,1.55717 -0.317481,0.63496 -0.937323,1.04314 -0.604725,0.39308 -1.481575,0.57449 -0.876851,0.18142 -1.980473,0.18142 h -1.164094 v 3.88535 H 54.697318 V 299.5956 q 0.619843,-0.15119 1.375748,-0.19654 0.771024,-0.0605 1.405984,-0.0605 z m 0.120945,1.28504 q -0.937323,0 -1.43622,0.0453 v 4.11213 h 1.103622 q 0.755905,0 1.36063,-0.0907 0.604724,-0.10583 1.012913,-0.3326 0.423307,-0.24189 0.650079,-0.65008 0.226772,-0.40819 0.226772,-1.04315 0,-0.60472 -0.24189,-0.99779 -0.226772,-0.39307 -0.634961,-0.61985 -0.393071,-0.24189 -0.922205,-0.33259 -0.529133,-0.0907 -1.11874,-0.0907 z"
         id="path9431-7" />
      <path
         d="m 63.889128,309.92126 v -10.47685 h 6.394961 v 1.25481 h -4.928505 v 3.11433 h 4.384253 v 1.22456 h -4.384253 v 3.62835 h 5.306457 v 1.2548 z"
         id="path9433-5" />
      <path
         d="m 72.521555,309.92126 v -10.47685 h 6.394961 v 1.25481 h -4.928504 v 3.11433 h 4.384252 v 1.22456 h -4.384252 v 3.62835 h 5.306456 v 1.2548 z"
         id="path9435-3" />
      <path
         d="m 89.756187,304.67528 q 0,1.36063 -0.423307,2.37354 -0.423307,0.9978 -1.194331,1.663 -0.771023,0.65007 -1.844409,0.98267 -1.073386,0.31748 -2.358426,0.31748 -0.63496,0 -1.405984,-0.0605 -0.755905,-0.0453 -1.375748,-0.19653 V 299.5956 q 0.619843,-0.15119 1.375748,-0.19654 0.771024,-0.0605 1.405984,-0.0605 1.28504,0 2.358426,0.3326 1.073386,0.31748 1.844409,0.98267 0.771024,0.65008 1.194331,1.66299 0.423307,0.9978 0.423307,2.35843 z m -5.699528,4.05165 q 2.0863,0 3.114331,-1.05826 1.028032,-1.07339 1.028032,-2.99339 0,-1.92 -1.028032,-2.97827 -1.028031,-1.07338 -3.114331,-1.07338 -0.619842,0 -0.967559,0.0151 -0.332598,0.0151 -0.468661,0.0302 v 8.0126 q 0.136063,0.0151 0.468661,0.0302 0.347717,0.0151 0.967559,0.0151 z"
         id="path9437-5" />
    </g>
    <g
       aria-label="SCAN"
       transform="scale(0.953595,1.0486632)"
       id="text3067"
       style="display:inline;font-size:2.95957px;line-height:1.25;font-family:Ubuntu;-inkscape-font-specification:Ubuntu;stroke-width:0.277458">
      <path
         d="m 2.7306744,51.481066 q 0.4498546,0 0.4498546,-0.307796 0,-0.09471 -0.041434,-0.159816 Q 3.100621,50.945384 3.0325505,50.89803 2.9644805,50.84772 2.8756933,50.8122 2.7898653,50.77669 2.6922,50.74117 2.5797363,50.7027 2.4791109,50.65534 2.3784856,50.60503 2.3044963,50.539916 2.2305073,50.471846 2.1861135,50.3801 q -0.041434,-0.09175 -0.041434,-0.221968 0,-0.269321 0.1834934,-0.420259 0.1834933,-0.150938 0.5060864,-0.150938 0.1864529,0 0.337391,0.04143 0.1538976,0.03847 0.2249273,0.08583 l -0.091747,0.233806 q -0.062151,-0.03847 -0.186453,-0.07399 -0.1213423,-0.03847 -0.2841187,-0.03847 -0.082868,0 -0.1538976,0.01776 -0.07103,0.01776 -0.1243019,0.05327 -0.053272,0.03551 -0.085828,0.09175 -0.029596,0.05327 -0.029596,0.127262 0,0.08287 0.032555,0.139099 0.032555,0.05623 0.091747,0.100626 0.059191,0.04143 0.1361402,0.07695 0.079908,0.03551 0.1746146,0.07103 0.1331807,0.05327 0.2426847,0.106545 0.1124637,0.05327 0.1923721,0.127261 0.082868,0.07399 0.1272615,0.177575 0.044393,0.100625 0.044393,0.245644 0,0.269321 -0.1982911,0.41434 -0.1953317,0.145019 -0.5534396,0.145019 -0.1213424,0 -0.2249273,-0.01776 -0.1006254,-0.0148 -0.1805338,-0.03551 -0.079908,-0.02368 -0.1390998,-0.04735 -0.056232,-0.02664 -0.088787,-0.04439 l 0.085828,-0.236766 q 0.06807,0.03847 0.2071699,0.08583 0.1390998,0.04735 0.3403506,0.04735 z"
         id="path12439" />
      <path
         d="m 4.7106254,51.72967 q -0.2160486,0 -0.3936228,-0.07103 -0.1775742,-0.07103 -0.3048357,-0.20717 -0.1272615,-0.13614 -0.1982912,-0.334431 -0.06807,-0.201251 -0.06807,-0.458734 0,-0.257482 0.076949,-0.455774 0.079908,-0.20125 0.2130891,-0.33739 0.1331806,-0.136141 0.3107548,-0.20717 0.1775742,-0.07103 0.378825,-0.07103 0.1272615,0 0.2278869,0.01776 0.1035849,0.01776 0.1775741,0.04143 0.076949,0.02368 0.124302,0.04735 0.047353,0.02368 0.065111,0.03551 l -0.082868,0.236766 q -0.026636,-0.01776 -0.076949,-0.03848 -0.050313,-0.02072 -0.1154232,-0.04143 -0.062151,-0.02072 -0.1390998,-0.03256 -0.073989,-0.0148 -0.150938,-0.0148 -0.1627764,0 -0.2929975,0.05623 -0.130221,0.05623 -0.2219677,0.162777 -0.091747,0.106544 -0.1420594,0.260442 -0.047353,0.150938 -0.047353,0.34035 0,0.183494 0.041434,0.334432 0.044393,0.150938 0.1302211,0.260442 0.085827,0.106544 0.213089,0.165736 0.1302211,0.05919 0.3018761,0.05919 0.1982912,0 0.3285123,-0.04143 0.1302211,-0.04143 0.1953316,-0.07399 l 0.073989,0.236766 q -0.020717,0.0148 -0.073989,0.03847 -0.053272,0.02072 -0.1331806,0.04143 -0.079908,0.02072 -0.1864529,0.03551 -0.1065445,0.0148 -0.2308465,0.0148 z"
         id="path12441" />
      <path
         d="M 7.0989933,51.685276 Q 7.0486806,51.552095 7.0042871,51.424834 6.9598935,51.294613 6.9125404,51.161432 H 5.9832354 L 5.7967825,51.685276 H 5.497866 q 0.1183828,-0.325553 0.2219677,-0.600793 0.103585,-0.278199 0.2012508,-0.526803 0.1006253,-0.248604 0.1982911,-0.473531 0.097666,-0.227887 0.2042104,-0.449855 h 0.2634017 q 0.1065445,0.221968 0.2042103,0.449855 0.097666,0.224927 0.1953316,0.473531 0.1006254,0.248604 0.2042104,0.526803 0.1035849,0.27524 0.2219677,0.600793 z M 6.8296724,50.924667 Q 6.7349662,50.667184 6.64026,50.427459 6.5485133,50.184774 6.4478879,49.962806 6.344303,50.184774 6.2495967,50.427459 6.1578501,50.667184 6.0661034,50.924667 Z"
         id="path12443" />
      <path
         d="M 9.0966978,51.685276 Q 9.0315873,51.575772 8.9457597,51.439632 8.8628918,51.303492 8.765226,51.158473 8.6675602,51.010494 8.5610156,50.859556 8.4574307,50.708618 8.3538458,50.569518 8.2502608,50.427459 8.152595,50.303157 8.0549292,50.178855 7.9720612,50.084149 v 1.601127 H 7.6909021 V 49.634294 H 7.918789 q 0.1390998,0.147979 0.295957,0.34627 0.1598167,0.195331 0.3137144,0.405461 0.1568572,0.20717 0.2929974,0.40842 0.1390998,0.201251 0.233806,0.358108 V 49.634294 H 9.336423 v 2.050982 z"
         id="path12445" />
    </g>
  </g>
  <g
     inkscape:groupmode="layer"
     id="layer2"
     inkscape:label="components"
     style="display:none">
    <circle
       cx="15"
       cy="23.999996"
       fill="#ff0000"
       id="PlayBtn"
       style="display:inline;stroke-width:0.352777"
       r="1.0583333mm"
       inkscape:label="PlayBtn" />
    <circle
       cx="5"
       cy="23.999996"
       fill="#00ff00"
       id="PlaySocket"
       style="display:inline;stroke-width:0.352777"
       r="1.0583333mm"
       inkscape:label="PlaySocket" />
    <circle
       cx="15"
       cy="41.999996"
       fill="#ff0000"
       id="LengthKnob"
       style="display:inline;stroke-width:0.352777"
       inkscape:label="LengthKnob"
       r="1.0583333mm" />
    <circle
       cx="5"
       cy="41.999996"
       fill="#00ff00"
       id="LengthSocket"
       style="display:inline;stroke-width:0.352777"
       r="1.0583333mm"
       inkscape:label="LengthSocket" />
    <circle
       cx="15"
       cy="59.999996"
       fill="#ff0000"
       id="ScanKnob"
       style="display:inline;stroke-width:0.352777"
       inkscape:label="ScanKnob"
       r="1.0583333mm" />
    <circle
       cx="5"
       cy="59.999996"
       fill="#00ff00"
       id="ScanSocket"
       style="display:inline;stroke-width:0.352777"
       r="1.0583333mm"
       inkscape:label="ScanSocket" />
    <circle
       cx="15"
       cy="78"
       fill="#ff0000"
       id="SpeedKnob"
       style="display:inline;stroke-width:0.352777"
       inkscape:label="SpeedKnob"
       r="1.0583333mm" />
    <circle
       cx="5"
       cy="78"
       fill="#00ff00"
       id="SpeedSocket"
       style="display:inline;stroke-width:0.352777"
       r="1.0583333mm"
       inkscape:label="SpeedSocket" />
    <circle
       cx="5"
       cy="106"
       fill="#00ff00"
       id="InSocket"
       style="display:inline;stroke-width:0.352777"
       r="1.0583333mm"
       inkscape:label="InSocket" />
    <circle
       cx="14.894215"
       cy="106"
       fill="#0000ff"
       id="OutSocket"
       style="display:inline;fill:#0000f4;fill-opacity:1;stroke-width:0.35277"
       inkscape:label="OutSocket"
       r="4" />
  </g>
</svg>
