<?xml version="1.0" encoding="UTF-8" standalone="no"?>
<!-- Created with Inkscape (http://www.inkscape.org/) -->

<svg
   width="40.639999mm"
   height="128.5mm"
   viewBox="0 0 40.639998 128.5"
   version="1.1"
   id="svg359"
   inkscape:version="1.2.2 (b0a8486, 2022-12-01)"
   sodipodi:docname="muLooper.svg"
   xmlns:inkscape="http://www.inkscape.org/namespaces/inkscape"
   xmlns:sodipodi="http://sodipodi.sourceforge.net/DTD/sodipodi-0.dtd"
   xmlns="http://www.w3.org/2000/svg"
   xmlns:svg="http://www.w3.org/2000/svg">
  <sodipodi:namedview
     id="namedview361"
     pagecolor="#ffffff"
     bordercolor="#666666"
     borderopacity="1.0"
     inkscape:showpageshadow="false"
     inkscape:pageopacity="0.0"
     inkscape:pagecheckerboard="false"
     inkscape:deskcolor="#d1d1d1"
     inkscape:document-units="mm"
     showgrid="true"
     borderlayer="true"
     shape-rendering="auto"
     showguides="false"
     inkscape:lockguides="true"
     inkscape:zoom="2.5455847"
     inkscape:cx="67.371555"
     inkscape:cy="427.99597"
     inkscape:window-width="1920"
     inkscape:window-height="1019"
     inkscape:window-x="0"
     inkscape:window-y="0"
     inkscape:window-maximized="1"
     inkscape:current-layer="layer2">
    <inkscape:grid
       type="xygrid"
       id="grid480"
       dotted="false"
       spacingx="0.99999998"
       spacingy="0.99999998"
       originx="0"
       originy="0"
       units="mm"
       empspacing="5"
       snapvisiblegridlinesonly="false" />
  </sodipodi:namedview>
  <defs
     id="defs356">
    <linearGradient
       id="linearGradient4130"
       inkscape:swatch="solid">
      <stop
         style="stop-color:#ff0000;stop-opacity:1;"
         offset="0"
         id="stop4128" />
    </linearGradient>
    <linearGradient
       id="linearGradient18497">
      <stop
         style="stop-color:#ff0000;stop-opacity:1;"
         offset="0"
         id="stop18495" />
    </linearGradient>
    <linearGradient
       id="linearGradient18491">
      <stop
         style="stop-color:#ff0000;stop-opacity:1;"
         offset="0"
         id="stop18489" />
    </linearGradient>
    <linearGradient
       id="linearGradient18458">
      <stop
         style="stop-color:#ff0000;stop-opacity:1;"
         offset="0"
         id="stop18456" />
    </linearGradient>
    <linearGradient
       id="linearGradient17700">
      <stop
         style="stop-color:#0000ff;stop-opacity:1;"
         offset="0"
         id="stop17698" />
    </linearGradient>
  </defs>
  <g
     inkscape:label="panel"
     inkscape:groupmode="layer"
     id="layer1"
     style="display:inline">
    <rect
       style="fill:#b6b6b6;fill-opacity:1;stroke:#ffffff;stroke-width:0;stroke-linecap:round;stroke-miterlimit:0"
       id="rect1088"
       width="40.639999"
       height="128.5"
       x="6.6011256e-07"
       y="4.1257027e-07"
       inkscape:label="faceplate" />
    <path
       style="display:inline;fill:#000000;fill-opacity:1;stroke-width:0.256427"
       d="m 0.020909,128.11321 c -0.019475,-0.43943 0.0037,-0.47061 0.338397,-0.45465 0.2963495,0.0141 0.309141,0.0266 0.073004,0.0707 -0.2080205,0.0389 -0.3005465,0.16322 -0.338397,0.45465 -0.050052,0.38539 -0.052914,0.38261 -0.073004,-0.0707 z m 0.719441,0.18872 c 0.04399,-0.16811 0.174006,-0.28307 0.320145,-0.28307 0.135341,0 0.246076,-0.0566 0.246076,-0.12582 0,-0.0692 -0.07961,-0.1258 -0.176908,-0.1258 -0.0973,0 -0.333881,-0.14008 -0.5257385,-0.31128 -0.1918575,-0.17122 -0.3768305,-0.31276 -0.4110505,-0.31454 -0.03422,-0.002 -0.062218,-0.0315 -0.062218,-0.0661 v -0.15049 c 0,-0.0482 0.191086,0.0854 0.4246355,0.29669 0.28677,0.25952 0.7914175,0.49218 1.5543465,0.71662 1.36393,0.40126 1.538638,0.41059 1.512834,0.0808 -0.01413,-0.18064 -0.08531,-0.23154 -0.252371,-0.18048 -0.182251,0.0557 -0.213404,0.0216 -0.143719,-0.15728 0.078,-0.20023 0.06198,-0.20727 -0.129815,-0.0571 -0.286281,0.22419 -0.63244,0.0963 -0.535887,-0.19802 0.07007,-0.21359 0.06429,-0.21383 -0.114599,-0.005 -0.240669,0.28125 -0.355568,0.27936 -0.355568,-0.006 0,-0.16456 0.0977,-0.22391 0.359306,-0.2183 0.281234,0.006 0.349685,0.0605 0.315027,0.2507 -0.03728,0.20457 -0.01285,0.21786 0.154577,0.0841 0.276681,-0.2211 0.869631,0.15451 0.869631,0.55087 0,0.4159 -0.279397,0.45839 -1.127403,0.17139 l -0.751177,-0.25422 -0.233718,0.29253 c -0.128546,0.1609 -0.235026,0.22511 -0.236624,0.1427 -0.0016,-0.0824 0.05589,-0.18482 0.127753,-0.22759 0.07186,-0.0428 0.130657,-0.12982 0.130657,-0.19344 0,-0.15436 -0.677115,0.14002 -0.8754375,0.38062 -0.131329,0.1593 -0.144782,0.14422 -0.082755,-0.0928 z m 0.728455,-1.05307 c -0.395525,-0.24389 -0.419761,-0.24597 -0.341665,-0.0293 0.05169,0.1434 -0.11092,0.0512 -0.4222965,-0.23948 -0.4185185,-0.39067 -0.4814305,-0.51071 -0.362671,-0.69194 0.1272915,-0.19426 0.339562,-0.21422 1.8606105,-0.17495 1.480347,0.0383 1.716928,0.0175 1.716928,-0.14984 0,-0.10679 -0.05687,-0.228 -0.126378,-0.26937 -0.06951,-0.0413 -0.09212,-0.24013 -0.05025,-0.44171 0.06512,-0.31352 0.0294,-0.37779 -0.247038,-0.44461 -0.181515,-0.0439 -0.536684,0.008 -0.810304,0.11789 -0.430836,0.17333 -0.509568,0.1744 -0.681173,0.009 -0.255249,-0.24578 -0.349892,-0.23609 -0.632668,0.0648 -0.130068,0.13838 -0.300869,0.25074 -0.3795581,0.24968 -0.078689,-8e-4 -0.054878,-0.0568 0.052914,-0.12388 0.153292,-0.0954 0.119393,-0.12237 -0.1556098,-0.12388 -0.193378,-8e-4 -0.3879345,0.0547 -0.432347,0.12388 -0.044415,0.0692 0.025615,0.12782 0.1556105,0.13026 0.1881209,0.004 0.169695,0.0412 -0.090281,0.18426 -0.439855,0.24211 -0.593236,0.23375 -0.3753055,-0.0204 0.139799,-0.16308 0.1433245,-0.22083 0.016,-0.26211 C 0.073495,125.12815 0,125.04909 0,124.98158 c 0,-0.0675 0.058331,-0.0881 0.1296225,-0.0456 0.071293,0.0424 0.225832,0.0253 0.343421,-0.0381 0.259241,-0.13969 0.013315,-0.33763 -0.2833145,-0.22802 C 0.0853785,124.70841 0,124.68512 0,124.6181 c 0,-0.17947 0.4353075,-0.14817 0.7192205,0.0517 0.1832235,0.129 0.3416645,0.14166 0.6169545,0.0493 0.259143,-0.087 0.483396,-0.0793 0.746508,0.0257 0.284036,0.11329 0.444434,0.11479 0.655299,0.006 0.153563,-0.0791 0.467573,-0.12633 0.697802,-0.10489 0.368298,0.0343 0.419616,0.0851 0.427064,0.42217 0.0046,0.21076 0.04992,0.44777 0.100572,0.52669 0.08389,0.13071 0.01055,1.15567 -0.08961,1.25209 -0.02331,0.0224 -0.22473,-0.0204 -0.4476,-0.0952 -0.299498,-0.10053 -0.383861,-0.19094 -0.323365,-0.34654 0.07129,-0.18337 0.05341,-0.18825 -0.1386,-0.0378 -0.178145,0.13953 -0.220449,0.14095 -0.220449,0.007 0,-0.10063 -0.07503,-0.0697 -0.19183,0.0789 -0.105508,0.13433 -0.193701,0.19977 -0.195986,0.14544 -0.0023,-0.0543 -0.118886,-0.0396 -0.259111,0.0326 -0.186975,0.0964 -0.241768,0.23171 -0.2055,0.50767 0.0272,0.20695 0.03904,0.37531 0.0263,0.37415 -0.01274,-8e-4 -0.214726,-0.12025 -0.448872,-0.26463 z m 0.360394,-0.11066 c 0,-0.0692 -0.02593,-0.12581 -0.05762,-0.12581 -0.03169,0 -0.09396,0.0566 -0.138367,0.12581 -0.04441,0.0692 -0.01849,0.1258 0.05762,0.1258 0.0761,0 0.138368,-0.0566 0.138367,-0.1258 z m -0.8574035,-0.57628 c 0.2464095,-0.23727 0.1568675,-0.43019 -0.199666,-0.43019 -0.3181025,0 -0.484435,0.36246 -0.235877,0.514 0.231079,0.14089 0.194957,0.14784 0.435543,-0.0838 z m 2.8172585,0.0179 c 0,-0.10335 -0.112034,-0.17276 -0.261315,-0.16194 -0.322227,0.0234 -0.341983,0.17828 -0.03266,0.25611 0.125758,0.0316 0.243349,0.0641 0.261315,0.0721 0.01797,0.008 0.03266,-0.0668 0.03266,-0.16629 z m -1.567885,-0.20994 c 0,-0.16578 -0.752876,-0.13673 -0.86199,0.0333 -0.06404,0.0998 -0.0048,0.1233 0.188273,0.0747 0.154961,-0.0391 0.281747,-0.0214 0.281747,0.0392 0,0.0605 0.08819,0.0775 0.195985,0.0376 0.107792,-0.0399 0.195985,-0.12297 0.195985,-0.18476 z m -0.609406,-0.93857 c -0.108897,-0.27324 0.167559,-0.53022 0.365441,-0.33967 0.167245,0.16103 0.06364,0.53685 -0.148005,0.53685 -0.07637,0 -0.174218,-0.0887 -0.217436,-0.19718 z m 0.176032,-0.20384 c -0.04171,-0.10036 -0.07267,-0.0706 -0.07894,0.076 -0.0057,0.13262 0.02521,0.20694 0.06862,0.16512 0.04341,-0.0418 0.04806,-0.15031 0.01031,-0.24113 z"
       id="path1561"
       sodipodi:nodetypes="ssssssssssssssssssssssssssscsssssscssssssssssscscsssssssssssssssssssssssssscscsssssssssssssssssssssssssssss"
       inkscape:label="logo" />
    <path
       style="fill:#000000;fill-opacity:0.5;stroke:#000000;stroke-width:0.25;stroke-linecap:butt;stroke-linejoin:miter;stroke-dasharray:none;stroke-dashoffset:0;stroke-opacity:1"
       d="M 40.64,90.125 C 0,90.125 0,90.125 0,90.125"
       id="path433" />
    <text
       xml:space="preserve"
       style="font-style:normal;font-variant:normal;font-weight:normal;font-stretch:normal;font-size:4.23333px;font-family:Trim;-inkscape-font-specification:Trim;direction:rtl;display:inline;fill:#000000;fill-opacity:1;stroke:#ff0000;stroke-width:0;stroke-linecap:round;stroke-miterlimit:0;stroke-dasharray:none;stroke-opacity:1"
       x="4.9999995"
       y="111.99999"
       id="text7620"><tspan
         sodipodi:role="line"
         id="tspan7618"
         style="fill:#000000;fill-opacity:1;stroke-width:0"
         x="4.9999995"
         y="111.99999" /></text>
    <g
       aria-label="POLY"
       id="text486"
       style="font-size:3.52777px;font-family:'\' Mono Regular';-inkscape-font-specification:'\' Mono Regular, ';text-align:center;text-anchor:middle;stroke:#000000;stroke-width:0;stroke-linecap:round;stroke-miterlimit:0"
       transform="translate(0.3250395,-0.0269895)">
      <path
         d="m 21.696131,105.53409 h 1.252359 q 0.416276,0.381 0.49036,0.48683 v 0.44097 l -0.49036,0.48683 h -0.917221 v 1.03011 L 22.010103,108 h -0.313972 l -0.02117,-0.0212 v -2.4271 z m 0.335138,0.3563 v 0.69145 h 0.77611 l 0.264583,-0.26459 v -0.15169 l -0.264583,-0.27517 z"
         id="path515" />
      <path
         d="m 24.398397,105.52703 h 0.694971 q 0.391582,0.36336 0.539749,0.54328 v 1.38641 L 25.093368,108 h -0.694971 l -0.532693,-0.54328 v -1.38641 q 0.05292,-0.0776 0.532693,-0.54328 z m -0.176388,0.68439 v 1.10419 l 0.328082,0.3175 h 0.398638 l 0.3175,-0.3175 v -1.10419 l -0.3175,-0.32808 h -0.398638 z"
         id="path517" />
      <path
         d="m 26.09172,105.52703 h 0.317499 l 0.01764,0.0212 v 2.08491 h 1.20297 l 0.02117,0.0212 v 0.32455 L 27.629828,108 H 26.09172 l -0.02117,-0.0212 v -2.43063 z"
         id="path519" />
      <path
         d="m 28.50824,105.52703 q 0.02822,0 0.49036,0.95956 h 0.01058 q 0.462137,-0.95956 0.49036,-0.95956 h 0.377471 l -0.694971,1.42169 v 1.03011 L 29.160878,108 h -0.313972 l -0.02117,-0.0212 v -1.01247 q 0,-0.0282 -0.705554,-1.42874 l 0.01058,-0.0106 z"
         id="path521" />
    </g>
    <g
       aria-label="MONO"
       id="text378"
       style="font-size:3.52777px;font-family:'\' Mono Regular';-inkscape-font-specification:'\' Mono Regular, ';text-align:center;text-anchor:middle;display:inline;stroke:#000000;stroke-width:0;stroke-linecap:round;stroke-miterlimit:0"
       transform="translate(0.4114695,-0.0235015)">
      <path
         d="m 21.609701,97.523505 h 0.328083 l 0.539749,0.980721 q 0,-0.03881 0.52211,-0.980721 h 0.328082 l 0.02117,0.02117 v 2.434161 L 23.327725,100 h -0.317499 l -0.02117,-0.02117 v -1.679218 h -0.0071 Q 22.830262,98.63475 22.64329,98.945194 H 22.294041 Q 22.159985,98.73 21.955375,98.299612 h -0.0071 V 99.97883 L 21.927201,100 h -0.3175 l -0.02117,-0.02117 v -2.434161 z"
         id="path506" />
      <path
         d="m 24.333136,97.527033 h 0.69497 q 0.391583,0.363361 0.539749,0.543277 v 1.386413 L 25.028106,100 h -0.69497 L 23.800442,99.456723 V 98.07031 q 0.05292,-0.07761 0.532694,-0.543277 z m -0.176389,0.684388 v 1.104192 l 0.328083,0.317499 h 0.398638 l 0.317499,-0.317499 V 98.211421 L 24.883468,97.883338 H 24.48483 Z"
         id="path508" />
      <path
         d="m 26.026459,97.523505 h 0.328082 q 0.208139,0.321028 1.04422,1.749774 h 0.0071 v -1.728607 l 0.02117,-0.02117 h 0.328082 l 0.02117,0.02117 v 2.434161 L 27.755066,100 H 27.4164 q -0.08114,-0.109361 -1.04422,-1.760357 h -0.0071 v 1.73919 L 26.343958,100 h -0.317499 l -0.02117,-0.02117 v -2.434161 z"
         id="path510" />
      <path
         d="m 28.739309,97.527033 h 0.694971 q 0.391582,0.363361 0.539749,0.543277 v 1.386413 L 29.43428,100 H 28.739309 L 28.206616,99.456723 V 98.07031 q 0.05292,-0.07761 0.532693,-0.543277 z m -0.176389,0.684388 v 1.104192 l 0.328083,0.317499 h 0.398638 l 0.317499,-0.317499 v -1.104192 l -0.317499,-0.328083 h -0.398638 z"
         id="path512" />
    </g>
    <g
       aria-label="IN"
       id="text707"
       style="font-size:3.52777px;font-family:'\' Mono Regular';-inkscape-font-specification:'\' Mono Regular, ';text-align:center;text-anchor:middle;stroke:#000000;stroke-width:0;stroke-linecap:round;stroke-miterlimit:0"
       transform="translate(-1.2034235)">
      <path
         d="m 11.724594,97.499999 h 1.023054 l 0.02117,0.02117 v 0.317499 l -0.02117,0.02117 h -0.338666 v 1.749774 h 0.338666 l 0.02117,0.01764 v 0.328082 l -0.02117,0.02117 h -1.023054 l -0.02117,-0.02117 v -0.328082 l 0.02117,-0.01764 h 0.328083 v -1.749774 h -0.328083 l -0.02117,-0.02117 v -0.317499 z"
         id="path714" />
      <path
         d="m 13.308558,97.499999 h 0.328083 q 0.208138,0.321027 1.04422,1.749774 h 0.0071 v -1.728607 l 0.02117,-0.02117 h 0.328083 l 0.02117,0.02117 v 2.434161 l -0.02117,0.02117 H 14.6985 Q 14.61736,99.867136 13.65428,98.21614 h -0.0071 v 1.73919 l -0.02117,0.02117 h -0.3175 l -0.02117,-0.02117 v -2.434161 z"
         id="path716" />
    </g>
    <g
       aria-label="μ Looper"
       id="text711"
       style="font-size:3.52777px;font-family:'\' Mono Regular';-inkscape-font-specification:'\' Mono Regular, ';text-align:center;text-anchor:middle;stroke:#000000;stroke-width:0;stroke-linecap:round;stroke-miterlimit:0"
       transform="translate(-0.2646665)">
      <path
         d="m 13.461667,8.2067704 v -2.663053 h 0.316948 V 6.742608 q 0,0.2497689 0.118856,0.3772372 0.118855,0.1274682 0.351399,0.1274682 0.254936,0 0.382404,-0.1446937 0.129191,-0.1446937 0.129191,-0.4340811 V 5.5437174 h 0.316948 v 1.4848329 q 0,0.1033527 0.02928,0.1533064 0.03101,0.048231 0.09474,0.048231 0.0155,0 0.04306,-0.00861 0.02756,-0.010335 0.07579,-0.031006 V 7.445406 q -0.07062,0.039618 -0.134358,0.058566 -0.06201,0.018948 -0.122301,0.018948 -0.118856,0 -0.18948,-0.067179 -0.07062,-0.067179 -0.09646,-0.2049827 -0.08613,0.136081 -0.211873,0.2049827 -0.124023,0.067179 -0.292833,0.067179 -0.175699,0 -0.299722,-0.067179 -0.122301,-0.067179 -0.194648,-0.2015376 v 0.9525668 z"
         id="path368" />
      <path
         d="m 16.019795,4.9999999 h 0.317499 l 0.01764,0.021167 V 7.106079 h 1.20297 l 0.02117,0.021167 v 0.3245549 l -0.02117,0.021167 h -1.538108 l -0.02117,-0.021167 V 5.0211665 Z"
         id="path370" />
      <path
         d="m 18.531565,5.6914428 h 0.769054 q 0.455082,0.6314708 0.493888,0.7408317 V 6.732135 q 0,0.049389 -0.493888,0.7408317 H 18.531565 Q 18.04826,6.7815237 18.04826,6.732135 V 6.4322745 q 0.01411,-0.077611 0.483305,-0.7408317 z m 0.186972,0.3598325 -0.310444,0.4656657 v 0.1023053 q 0,0.028222 0.310444,0.4833045 h 0.405693 q 0.299861,-0.4586101 0.299861,-0.4833045 v -0.084666 q 0,-0.028222 -0.299861,-0.4727211 v -0.010583 z"
         id="path372" />
      <path
         d="m 20.644696,5.6914428 h 0.769054 q 0.455082,0.6314708 0.493888,0.7408317 V 6.732135 q 0,0.049389 -0.493888,0.7408317 H 20.644696 Q 20.161391,6.7815237 20.161391,6.732135 V 6.4322745 q 0.01411,-0.077611 0.483305,-0.7408317 z m 0.186972,0.3598325 -0.310444,0.4656657 v 0.1023053 q 0,0.028222 0.310444,0.4833045 h 0.405693 q 0.299861,-0.4586101 0.299861,-0.4833045 v -0.084666 q 0,-0.028222 -0.299861,-0.4727211 v -0.010583 z"
         id="path374" />
      <path
         d="M 22.27805,8.1502985 V 5.7231927 l 0.02117,-0.017639 h 1.121831 q 0.479777,0.6843874 0.479777,0.7337761 v 0.292805 q 0,0.059972 -0.479777,0.7373039 h -0.776109 v 0.6808596 l -0.02117,0.021167 h -0.324555 z m 0.959553,-1.0406921 v -0.00706 Q 23.544519,6.6686307 23.544519,6.633353 V 6.548687 q 0,-0.028222 -0.306916,-0.4762489 h -0.592665 v 1.0371644 z"
         id="path376" />
      <path
         d="m 24.69457,5.7090816 h 0.723193 l 0.49036,0.5291656 v 0.5115266 l -0.02117,0.021167 h -1.315858 v 0.028222 l 0.285749,0.306916 h 0.885471 l 0.02117,0.021167 v 0.3245549 l -0.02117,0.021167 H 24.69457 L 24.214793,6.9332179 V 6.2382472 Q 24.412348,6.0018866 24.69457,5.7090816 Z m -0.123472,0.6738041 v 0.028222 h 0.970137 V 6.3828857 L 25.266069,6.0653864 h -0.409222 z"
         id="path378" />
      <path
         d="m 26.373783,5.6984983 h 0.328082 l 0.02117,0.021167 v 0.3174993 h 0.01058 q 0.423333,-0.338666 0.462138,-0.338666 h 0.49036 l 0.02117,0.021167 v 0.3174993 l -0.02117,0.021167 h -0.377471 q -0.03175,0 -0.58561,0.4198046 v 0.9736646 l -0.02117,0.021167 H 26.37378 L 26.35261,7.4518011 V 5.719665 Z"
         id="path380" />
    </g>
    <g
       aria-label="SPLT"
       id="text721"
       style="font-size:3.52778px;font-family:'\' Mono Regular';-inkscape-font-specification:'\' Mono Regular, ';text-align:center;text-anchor:middle;stroke:#000000;stroke-width:0;stroke-linecap:round;stroke-miterlimit:0"
       transform="translate(-0.4563105,-0.2550605)">
      <path
         d="m 31.446676,14.258589 h 0.79375 q 0.479778,0.465666 0.479778,0.490361 v 0.204611 l -0.01764,0.01764 h -0.3175 q -0.02117,0 -0.02117,-0.09172 L 32.088728,14.614897 H 31.587783 L 31.3232,14.890064 v 0.155222 l 0.264583,0.264583 h 0.652639 l 0.479778,0.490362 v 0.437444 l -0.479778,0.490361 h -0.79375 l -0.490361,-0.490361 v -0.204611 l 0.02117,-0.01764 h 0.324555 q 0.02117,0 0.03175,0.09878 l 0.254,0.246944 h 0.500945 l 0.275166,-0.264583 V 15.941339 L 32.088732,15.676755 H 31.446676 L 30.956315,15.186394 V 14.74895 Z"
         id="path623" />
      <path
         d="m 33.196453,14.262116 h 1.252361 q 0.416278,0.381 0.490361,0.486834 v 0.440972 l -0.490361,0.486833 h -0.917222 v 1.030111 l -0.02117,0.02117 H 33.19645 l -0.02117,-0.02117 v -2.427111 z m 0.335139,0.356306 v 0.691444 h 0.776111 l 0.264583,-0.264583 v -0.151694 l -0.264583,-0.275167 z"
         id="path625" />
      <path
         d="m 35.387197,14.255061 h 0.3175 l 0.01764,0.02117 v 2.084916 h 1.202972 l 0.02117,0.02117 v 0.324555 l -0.02117,0.02117 h -1.538111 l -0.02117,-0.02117 v -2.430638 z"
         id="path627" />
      <path
         d="m 37.436833,14.255061 h 1.7145 l 0.02117,0.02117 v 0.3175 l -0.02117,0.01764 h -0.673805 v 2.0955 l -0.02117,0.02117 h -0.324555 l -0.02117,-0.02117 v -2.0955 h -0.673806 l -0.02117,-0.01764 v -0.3175 z"
         id="path629" />
    </g>
    <g
       aria-label="SCN"
       id="text725"
       style="font-size:3.52778px;font-family:'\' Mono Regular';-inkscape-font-specification:'\' Mono Regular, ';text-align:center;text-anchor:middle;stroke:#000000;stroke-width:0;stroke-linecap:round;stroke-miterlimit:0"
       transform="translate(-0.99999979)">
      <path
         d="m 11.990359,54.007055 h 0.793751 q 0.479778,0.465667 0.479778,0.490362 v 0.204611 l -0.01764,0.01764 h -0.3175 q -0.02117,0 -0.02117,-0.09172 L 12.632415,54.363361 H 12.13147 l -0.264583,0.275167 v 0.155222 l 0.264583,0.264584 h 0.65264 l 0.479778,0.490361 V 55.98614 L 12.78411,56.476501 H 11.990359 L 11.499998,55.98614 v -0.204611 l 0.02117,-0.01764 h 0.324555 q 0.02117,0 0.03175,0.09878 l 0.254,0.246944 h 0.500945 l 0.275167,-0.264583 v -0.155222 l -0.275167,-0.264584 h -0.642056 l -0.490361,-0.490361 v -0.437445 z"
         id="path733" />
      <path
         d="m 14.248138,54.003528 h 0.705556 l 0.183444,0.186972 q 0.01764,0.01058 0.123472,0.127 0.123473,0.119945 0.123473,0.127 l 0.09525,0.09525 v 0.176389 l -0.0071,0.0071 h -0.34925 q -0.0071,-0.0035 -0.0071,-0.01411 V 54.6985 l 0.0035,-0.01058 -0.07408,-0.07408 q 0,-0.0071 -0.0071,-0.0071 0,-0.0071 -0.01411,-0.01058 0,-0.0071 -0.0071,-0.0071 0,-0.0035 -0.02469,-0.02822 l -0.0388,-0.03528 q 0,-0.01058 -0.07056,-0.08114 0,-0.0071 -0.04233,-0.04233 0,-0.0071 -0.0071,-0.0071 0,-0.0071 -0.02469,-0.02822 v -0.0035 h -0.416278 q -0.09878,0.09878 -0.09878,0.105834 -0.04233,0.03881 -0.04233,0.04233 -0.0035,0 -0.02822,0.03528 l -0.141111,0.137583 v 1.107723 l 0.310445,0.313973 h 0.416278 q 0,-0.0071 0.02469,-0.0247 0,-0.0071 0.0071,-0.0071 0,-0.01058 0.04233,-0.04233 0,-0.0071 0.07056,-0.07408 0,-0.0071 0.01058,-0.0071 0,-0.01058 0.01058,-0.01058 0,-0.0035 0.144639,-0.148167 l -0.0035,-0.01058 v -0.01058 q 0,-0.01411 0.0071,-0.01411 h 0.34925 l 0.0071,0.0035 v 0.179917 l -0.127,0.127 h -0.0071 q 0,0.0071 -0.03175,0.03528 -0.09172,0.09878 -0.09878,0.09878 v 0.01411 q -0.03175,0.02822 -0.03175,0.03175 -0.01058,0 -0.01058,0.01058 -0.0071,0 -0.05645,0.05645 -0.0071,0 -0.0071,0.0071 -0.01058,0 -0.01058,0.01058 -0.0071,0 -0.03528,0.03175 l -0.05645,0.05997 h -0.0071 q 0,0.01058 -0.01058,0.01058 0,0.0071 -0.0388,0.04233 h -0.694973 q -0.01411,0 -0.05644,-0.05292 l -0.1905,-0.186973 q -0.03175,-0.02822 -0.03175,-0.03528 0,-0.01058 -0.05292,-0.05997 l -0.204611,-0.204611 v -1.389945 q 0,-0.01058 0.0635,-0.06703 0,-0.0071 0.0071,-0.0071 0,-0.0071 0.186972,-0.194028 0,-0.0071 0.04233,-0.04939 z"
         id="path735" />
      <path
         d="m 15.955577,54 h 0.328084 q 0.208139,0.321028 1.044223,1.749779 h 0.0071 V 54.021167 L 17.356106,54 h 0.328084 l 0.02117,0.02117 v 2.434168 l -0.02117,0.02117 H 17.345523 Q 17.264384,56.36714 16.3013,54.716139 h -0.0071 v 1.739196 l -0.02117,0.02117 h -0.317501 l -0.02117,-0.02117 v -2.434168 z"
         id="path737" />
    </g>
    <g
       aria-label="SPD"
       id="text472"
       style="font-size:3.52778px;font-family:'\' Mono Regular';-inkscape-font-specification:'\' Mono Regular, ';text-align:center;text-anchor:middle;stroke:#000000;stroke-width:0;stroke-linecap:round;stroke-miterlimit:0">
      <path
         d="m 30.990359,53.999998 h 0.793751 q 0.479778,0.465667 0.479778,0.490362 v 0.204611 l -0.01764,0.01764 h -0.3175 q -0.02117,0 -0.02117,-0.09172 l -0.275167,-0.264584 h -0.500944 l -0.264584,0.275167 v 0.155222 l 0.264584,0.264584 h 0.652639 l 0.479778,0.490361 v 0.437445 l -0.479778,0.490361 h -0.793751 l -0.490361,-0.490361 v -0.204611 l 0.02117,-0.01764 h 0.324555 q 0.02117,0 0.03175,0.09878 l 0.254001,0.246944 h 0.500944 l 0.275167,-0.264583 V 55.682749 L 31.632415,55.418166 H 30.990359 L 30.499998,54.927804 V 54.49036 Z"
         id="path740" />
      <path
         d="m 32.740137,54.003526 h 1.252362 q 0.416278,0.381 0.490362,0.486834 v 0.440972 l -0.490362,0.486834 h -0.917223 v 1.030112 l -0.02117,0.02117 h -0.313973 l -0.02117,-0.02117 v -2.427113 z m 0.335139,0.356306 v 0.691445 h 0.776112 l 0.264584,-0.264584 v -0.151694 l -0.264584,-0.275167 z"
         id="path742" />
      <path
         d="m 34.930883,53.999998 h 1.41464 q 0.356306,0.437445 0.529167,0.723195 v 1.012473 q 0,0.04939 -0.529167,0.733778 h -1.41464 l -0.02117,-0.02117 v -0.324556 l 0.02117,-0.02117 h 0.151695 v -1.746251 h -0.151695 l -0.02117,-0.02117 v -0.313972 z m 0.508001,0.356306 v 1.746251 h 0.744361 l 0.335139,-0.479778 v -0.776112 q 0,-0.03881 -0.306917,-0.437444 l -0.02822,-0.05292 z"
         id="path744" />
    </g>
    <g
       aria-label="REC"
       id="text476"
       style="font-size:3.52778px;font-family:'\' Mono Regular';-inkscape-font-specification:'\' Mono Regular, ';text-align:center;text-anchor:middle;stroke:#000000;stroke-width:0;stroke-linecap:round;stroke-miterlimit:0"
       transform="translate(-1.3126833,-0.2515325)">
      <path
         d="m 11.833903,14.258589 h 1.262945 q 0.479777,0.465666 0.479777,0.490361 v 0.437444 l -0.469194,0.490361 0.469194,1.040695 -0.0071,0.01058 h -0.370417 q -0.05292,-0.04939 -0.243416,-0.522111 l -0.254,-0.529167 H 12.17958 v 1.030111 l -0.02117,0.02117 h -0.324556 l -0.02117,-0.02117 v -2.427111 z m 0.345722,0.356305 v 0.694972 h 0.765528 l 0.275167,-0.264583 v -0.155222 l -0.275167,-0.275167 z"
         id="path616" />
      <path
         d="m 14.045816,14.251533 h 1.552222 l 0.02117,0.02117 v 0.3175 l -0.02117,0.02117 h -1.213555 v 0.694973 h 1.030111 l 0.02117,0.02117 v 0.324556 l -0.02117,0.02117 h -1.030111 v 0.687916 h 1.213555 l 0.02117,0.01764 v 0.328083 l -0.02117,0.02117 h -1.552222 l -0.02117,-0.02117 V 14.2727 Z"
         id="path618" />
      <path
         d="m 16.652841,14.255061 h 0.705556 l 0.183444,0.186972 q 0.01764,0.01058 0.123472,0.127 0.123473,0.119945 0.123473,0.127 l 0.09525,0.09525 v 0.176389 l -0.0071,0.0071 h -0.34925 q -0.0071,-0.0035 -0.0071,-0.01411 v -0.01058 l 0.0035,-0.01058 -0.07408,-0.07408 q 0,-0.0071 -0.0071,-0.0071 0,-0.0071 -0.01411,-0.01058 0,-0.0071 -0.0071,-0.0071 0,-0.0035 -0.0247,-0.02822 l -0.0388,-0.03528 q 0,-0.01058 -0.07056,-0.08114 0,-0.0071 -0.04233,-0.04233 0,-0.0071 -0.0071,-0.0071 0,-0.0071 -0.02469,-0.02822 v -0.0035 H 16.79748 q -0.09878,0.09878 -0.09878,0.105834 -0.04233,0.0388 -0.04233,0.04233 -0.0035,0 -0.02822,0.03528 l -0.141111,0.137583 v 1.107722 l 0.310444,0.313972 h 0.416278 q 0,-0.0071 0.02469,-0.02469 0,-0.0071 0.0071,-0.0071 0,-0.01058 0.04233,-0.04233 0,-0.0071 0.07056,-0.07408 0,-0.0071 0.01058,-0.0071 0,-0.01058 0.01058,-0.01058 0,-0.0035 0.144639,-0.148167 l -0.0035,-0.01058 v -0.01058 q 0,-0.01411 0.0071,-0.01411 h 0.34925 l 0.0071,0.0035 v 0.179917 l -0.127,0.127 h -0.0071 q 0,0.0071 -0.03175,0.03528 -0.09172,0.09878 -0.09878,0.09878 v 0.01411 q -0.03175,0.02822 -0.03175,0.03175 -0.01058,0 -0.01058,0.01058 -0.0071,0 -0.05645,0.05644 -0.0071,0 -0.0071,0.0071 -0.01058,0 -0.01058,0.01058 -0.0071,0 -0.03528,0.03175 l -0.05645,0.05997 h -0.0071 q 0,0.01058 -0.01058,0.01058 0,0.0071 -0.0388,0.04233 h -0.694972 q -0.01411,0 -0.05645,-0.05292 l -0.1905,-0.186972 q -0.03175,-0.02822 -0.03175,-0.03528 0,-0.01058 -0.05292,-0.05997 L 16.123686,16.18817 v -1.389944 q 0,-0.01058 0.0635,-0.06703 0,-0.0071 0.0071,-0.0071 0,-0.0071 0.186972,-0.194027 0,-0.0071 0.04233,-0.04939 z"
         id="path620" />
    </g>
    <g
       aria-label="FBK"
       id="text708"
       style="font-size:3.52777px;font-family:'\' Mono Regular';-inkscape-font-specification:'\' Mono Regular, ';text-align:center;text-anchor:middle;stroke:#000000;stroke-width:0;stroke-linecap:round;stroke-miterlimit:0"
       transform="translate(-0.99999979)">
      <path
         d="m 11.521167,74.003527 h 1.548691 l 0.02117,0.02117 v 0.317499 l -0.02117,0.01764 h -1.213553 v 0.694971 h 1.040692 l 0.02117,0.02117 v 0.328083 l -0.02117,0.02117 h -1.040692 v 1.030109 l -0.01764,0.02117 H 11.521167 L 11.5,76.455327 v -2.430633 z"
         id="path726" />
      <path
         d="m 13.581383,73.999999 h 1.287636 l 0.243416,0.246944 0.17286,0.172861 q 0,0.01058 0.0071,0.01058 0.04233,0.05292 0.05292,0.05292 v 0.455082 q -0.04586,0.04233 -0.04586,0.04586 -0.0071,0 -0.0071,0.01058 -0.0071,0 -0.03175,0.02822 -0.130527,0.126999 -0.130527,0.134055 -0.0071,0 -0.07761,0.07408 h -0.0035 v 0.0035 q 0.0071,0 0.03528,0.03175 l 0.10936,0.109361 -0.0035,0.0035 v 0.0035 q 0,0.0035 0.03175,0.03175 l 0.09878,0.09878 0.0247,0.02117 v 0.455083 l -0.236361,0.23636 q 0,0.01411 -0.03175,0.04233 l -0.211666,0.208139 -0.01411,-0.0035 h -1.273525 l -0.0035,-0.0035 v -0.359832 l 0.0035,-0.0071 h 0.176388 l 0.0035,-0.0035 V 74.36336 h -0.169333 q -0.01058,0 -0.01411,-0.0071 v -0.349249 z m 0.539748,0.363361 v 0.687915 h 0.596193 q 0,-0.01058 0.01058,-0.01058 0,-0.0035 0.04233,-0.04233 l 0.07761,-0.08114 h 0.01058 q 0,-0.0035 0.04586,-0.04586 0.07408,-0.07408 0.07761,-0.07408 v -0.169333 q -0.0035,0 -0.05644,-0.05644 -0.208139,-0.204611 -0.208139,-0.208138 z m 0,1.058331 v 0.677331 l 0.0035,0.0035 h 0.589138 l 0.134055,-0.134055 h 0.01058 l 0.04586,-0.04586 q 0.07408,-0.07408 0.07761,-0.07408 v -0.165805 l -0.01764,-0.02117 q 0,-0.0035 -0.01058,-0.0071 l -0.09525,-0.09525 v -0.0035 h -0.01411 l -0.130527,-0.134055 z"
         id="path728" />
      <path
         d="m 15.800343,73.999999 h 0.328082 l 0.01764,0.02117 v 1.033637 h 0.215194 q 0.09878,-0.162278 0.758471,-1.054804 h 0.419804 v 0.02117 q -0.705554,0.998359 -0.871359,1.206497 l 0.871359,1.227664 v 0.02117 H 17.11973 Q 16.460037,75.583977 16.361259,75.4217 h -0.215194 v 1.033636 l -0.01764,0.02117 h -0.328082 l -0.02117,-0.02117 v -2.434161 z"
         id="path730" />
    </g>
    <g
       aria-label="WET"
       id="text712"
       style="font-size:3.52777px;font-family:'\' Mono Regular';-inkscape-font-specification:'\' Mono Regular, ';text-align:center;text-anchor:middle;stroke:#000000;stroke-width:0;stroke-linecap:round;stroke-miterlimit:0">
      <path
         d="m 30.521167,74.003527 h 0.3175 l 0.01764,0.02117 v 1.665107 l 0.04233,0.225777 h 0.01058 l 0.296333,-0.613832 v -0.571498 l 0.02117,-0.02117 h 0.313972 l 0.02117,0.02117 v 0.582082 q 0.01411,0.07761 0.296332,0.592665 l 0.04233,-0.225777 v -1.654524 l 0.02117,-0.02117 h 0.324555 l 0.02117,0.02117 v 1.696857 q -0.162278,0.754943 -0.204611,0.754943 h -0.317499 q -0.02822,0 -0.356305,-0.694971 l -0.366888,0.694971 h -0.328083 q -0.0388,0 -0.194027,-0.74436 v -1.70744 z"
         id="path719" />
      <path
         d="m 32.726017,73.999999 h 1.552219 l 0.02117,0.02117 v 0.317499 l -0.02117,0.02117 h -1.213553 v 0.694971 h 1.030109 l 0.02117,0.02117 v 0.324555 l -0.02117,0.02117 h -1.030109 v 0.687915 h 1.213553 l 0.02117,0.01764 v 0.328082 l -0.02117,0.02117 h -1.552219 l -0.02117,-0.02117 v -2.434161 z"
         id="path721" />
      <path
         d="m 34.825038,74.003527 h 1.714496 l 0.02117,0.02117 v 0.317499 l -0.02117,0.01764 H 35.86573 v 2.095495 l -0.02117,0.02117 h -0.324555 l -0.02117,-0.02117 v -2.095495 h -0.673804 l -0.02117,-0.01764 v -0.317499 z"
         id="path723" />
    </g>
  </g>
  <g
     inkscape:groupmode="layer"
     id="layer2"
     inkscape:label="components"
     style="display:none">
    <circle
       cx="13.000002"
       cy="23"
       fill="#ff0000"
       id="rec"
       style="display:inline;stroke:#ff0000;stroke-width:0;stroke-dasharray:none;stroke-opacity:1"
       inkscape:label="rec"
       r="1.3229166mm" />
    <circle
       cx="13.000002"
       cy="63"
       fill="#ff0000"
       id="scn"
       style="display:inline;stroke:#ff0000;stroke-width:0;stroke-dasharray:none;stroke-opacity:1"
       inkscape:label="scn"
       r="1.3229166mm" />
    <circle
       cx="33"
       cy="63"
       fill="#ff0000"
       id="spd"
       style="display:inline;stroke:#ff0000;stroke-width:0;stroke-dasharray:none;stroke-opacity:1"
       inkscape:label="spd"
       r="1.3229166mm" />
    <circle
       cx="13.000002"
       cy="83"
       fill="#ff0000"
       id="fbk"
       style="display:inline;stroke:#ff0000;stroke-width:0;stroke-dasharray:none;stroke-opacity:1"
       inkscape:label="fbk"
       r="1.3229166mm" />
    <circle
       cx="33"
       cy="83"
       fill="#ff0000"
       id="wet"
       style="display:inline;stroke:#ff0000;stroke-width:0;stroke-dasharray:none;stroke-opacity:1"
       inkscape:label="wet"
       r="1.3229166mm" />
    <circle
       cx="6"
       cy="99"
       fill="#00ff00"
       id="in"
       style="display:inline;fill:#00ff00;fill-opacity:1;stroke:#ff0000;stroke-width:0;stroke-dasharray:none;stroke-opacity:1"
       inkscape:label="in"
       r="0.79374987mm" />
    <circle
       cx="26"
       cy="56"
       fill="#00ff00"
       id="spd_in"
       style="display:inline;fill:#00ff00;fill-opacity:1;stroke:#ff0000;stroke-width:0;stroke-dasharray:none;stroke-opacity:1"
       inkscape:label="spd"
       r="0.79374987mm" />
    <circle
       cx="26"
       cy="76"
       fill="#00ff00"
       id="wet_in"
       style="display:inline;fill:#00ff00;fill-opacity:1;stroke:#ff0000;stroke-width:0;stroke-dasharray:none;stroke-opacity:1"
       inkscape:label="wet"
       r="0.79374987mm" />
    <circle
       cx="6"
       cy="76"
       fill="#00ff00"
       id="fbk_in"
       style="display:inline;fill:#00ff00;fill-opacity:1;stroke:#ff0000;stroke-width:0;stroke-dasharray:none;stroke-opacity:1"
       inkscape:label="fbk"
       r="0.79374987mm" />
    <circle
       cx="35"
       cy="107"
       fill="#0000ff"
       id="poly_out"
       style="display:inline;fill:#0007ff;fill-opacity:1;stroke:#ff0000;stroke-width:0;stroke-dasharray:none;stroke-opacity:1"
       inkscape:label="poly"
       r="0.79374987mm" />
    <circle
       cx="35"
       cy="99"
       fill="#0000ff"
       id="mono_out"
       style="display:inline;fill:#0007ff;fill-opacity:1;stroke:#ff0000;stroke-width:0;stroke-dasharray:none;stroke-opacity:1"
       inkscape:label="mono"
       r="0.79374987mm" />
    <circle
       cx="33"
       cy="23.000008"
       fill="#ff0000"
       id="splt"
       style="display:inline;stroke:#ff0000;stroke-width:0;stroke-dasharray:none;stroke-opacity:1"
       inkscape:label="splt"
       r="1.3229166mm" />
    <circle
       cx="6"
       cy="56"
       fill="#00ff00"
       id="scn_in"
       style="display:inline;fill:#00ff00;fill-opacity:1;stroke:#ff0000;stroke-width:0;stroke-dasharray:none;stroke-opacity:1"
       inkscape:label="scn"
       r="0.79374987mm" />
    <circle
       cx="6"
       cy="16"
       fill="#00ff00"
       id="rec_in"
       style="display:inline;fill:#00ff00;fill-opacity:1;stroke:#ff0000;stroke-width:0;stroke-dasharray:none;stroke-opacity:1"
       inkscape:label="rec"
       r="0.79374987mm" />
    <circle
       cx="26"
       cy="16"
       fill="#00ff00"
       id="splt_in"
       style="display:inline;fill:#00ff00;fill-opacity:1;stroke:#ff0000;stroke-width:0;stroke-dasharray:none;stroke-opacity:1"
       inkscape:label="splt"
       r="0.79374987mm" />
    <circle
       cx="33"
       cy="63"
       fill="#ff0000"
       id="circle326"
       style="display:inline;stroke:#ff0000;stroke-width:0;stroke-dasharray:none;stroke-opacity:1"
       inkscape:label="spd"
       r="1.3229166mm" />
    <circle
       cx="26"
       cy="56"
       fill="#00ff00"
       id="circle328"
       style="display:inline;fill:#00ff00;fill-opacity:1;stroke:#ff0000;stroke-width:0;stroke-dasharray:none;stroke-opacity:1"
       inkscape:label="spd"
       r="0.79374987mm" />
  </g>
</svg>
