<?xml version="1.0" encoding="UTF-8" standalone="no"?>
<!-- Created with Inkscape (http://www.inkscape.org/) -->

<svg
   width="40.639999mm"
   height="128.5mm"
   viewBox="0 0 40.639998 128.5"
   version="1.1"
   id="svg359"
   inkscape:version="1.2.2 (732a01da63, 2022-12-09)"
   sodipodi:docname="muLooper.svg"
   xmlns:inkscape="http://www.inkscape.org/namespaces/inkscape"
   xmlns:sodipodi="http://sodipodi.sourceforge.net/DTD/sodipodi-0.dtd"
   xmlns="http://www.w3.org/2000/svg"
   xmlns:svg="http://www.w3.org/2000/svg">
  <sodipodi:namedview
     id="namedview361"
     pagecolor="#ffffff"
     bordercolor="#666666"
     borderopacity="1.0"
     inkscape:showpageshadow="false"
     inkscape:pageopacity="0.0"
     inkscape:pagecheckerboard="false"
     inkscape:deskcolor="#d1d1d1"
     inkscape:document-units="mm"
     showgrid="true"
     borderlayer="true"
     shape-rendering="auto"
     showguides="false"
     inkscape:lockguides="true"
     inkscape:zoom="1.8000001"
     inkscape:cx="73.888886"
     inkscape:cy="309.44443"
     inkscape:window-width="1920"
     inkscape:window-height="1009"
     inkscape:window-x="-8"
     inkscape:window-y="-8"
     inkscape:window-maximized="1"
     inkscape:current-layer="layer2">
    <inkscape:grid
       type="xygrid"
       id="grid480"
       dotted="false"
       spacingx="0.99999998"
       spacingy="0.99999998"
       originx="0"
       originy="0"
       units="mm"
       empspacing="5"
       snapvisiblegridlinesonly="false" />
  </sodipodi:namedview>
  <defs
     id="defs356">
    <linearGradient
       id="linearGradient4130"
       inkscape:swatch="solid">
      <stop
         style="stop-color:#ff0000;stop-opacity:1;"
         offset="0"
         id="stop4128" />
    </linearGradient>
    <linearGradient
       id="linearGradient18497">
      <stop
         style="stop-color:#ff0000;stop-opacity:1;"
         offset="0"
         id="stop18495" />
    </linearGradient>
    <linearGradient
       id="linearGradient18491">
      <stop
         style="stop-color:#ff0000;stop-opacity:1;"
         offset="0"
         id="stop18489" />
    </linearGradient>
    <linearGradient
       id="linearGradient18458">
      <stop
         style="stop-color:#ff0000;stop-opacity:1;"
         offset="0"
         id="stop18456" />
    </linearGradient>
    <linearGradient
       id="linearGradient17700">
      <stop
         style="stop-color:#0000ff;stop-opacity:1;"
         offset="0"
         id="stop17698" />
    </linearGradient>
  </defs>
  <g
     inkscape:label="panel"
     inkscape:groupmode="layer"
     id="layer1">
    <rect
       style="fill:#b6b6b6;fill-opacity:1;stroke:#ffffff;stroke-width:0;stroke-linecap:round;stroke-miterlimit:0"
       id="rect1088"
       width="40.639999"
       height="128.5"
       x="6.6011256e-07"
       y="4.1257027e-07"
       inkscape:label="faceplate" />
    <path
       style="display:inline;fill:#000000;fill-opacity:1;stroke-width:0.256427"
       d="m 0.020909,128.11321 c -0.019475,-0.43943 0.0037,-0.47061 0.338397,-0.45465 0.2963495,0.0141 0.309141,0.0266 0.073004,0.0707 -0.2080205,0.0389 -0.3005465,0.16322 -0.338397,0.45465 -0.050052,0.38539 -0.052914,0.38261 -0.073004,-0.0707 z m 0.719441,0.18872 c 0.04399,-0.16811 0.174006,-0.28307 0.320145,-0.28307 0.135341,0 0.246076,-0.0566 0.246076,-0.12582 0,-0.0692 -0.07961,-0.1258 -0.176908,-0.1258 -0.0973,0 -0.333881,-0.14008 -0.5257385,-0.31128 -0.1918575,-0.17122 -0.3768305,-0.31276 -0.4110505,-0.31454 -0.03422,-0.002 -0.062218,-0.0315 -0.062218,-0.0661 v -0.15049 c 0,-0.0482 0.191086,0.0854 0.4246355,0.29669 0.28677,0.25952 0.7914175,0.49218 1.5543465,0.71662 1.36393,0.40126 1.538638,0.41059 1.512834,0.0808 -0.01413,-0.18064 -0.08531,-0.23154 -0.252371,-0.18048 -0.182251,0.0557 -0.213404,0.0216 -0.143719,-0.15728 0.078,-0.20023 0.06198,-0.20727 -0.129815,-0.0571 -0.286281,0.22419 -0.63244,0.0963 -0.535887,-0.19802 0.07007,-0.21359 0.06429,-0.21383 -0.114599,-0.005 -0.240669,0.28125 -0.355568,0.27936 -0.355568,-0.006 0,-0.16456 0.0977,-0.22391 0.359306,-0.2183 0.281234,0.006 0.349685,0.0605 0.315027,0.2507 -0.03728,0.20457 -0.01285,0.21786 0.154577,0.0841 0.276681,-0.2211 0.869631,0.15451 0.869631,0.55087 0,0.4159 -0.279397,0.45839 -1.127403,0.17139 l -0.751177,-0.25422 -0.233718,0.29253 c -0.128546,0.1609 -0.235026,0.22511 -0.236624,0.1427 -0.0016,-0.0824 0.05589,-0.18482 0.127753,-0.22759 0.07186,-0.0428 0.130657,-0.12982 0.130657,-0.19344 0,-0.15436 -0.677115,0.14002 -0.8754375,0.38062 -0.131329,0.1593 -0.144782,0.14422 -0.082755,-0.0928 z m 0.728455,-1.05307 c -0.395525,-0.24389 -0.419761,-0.24597 -0.341665,-0.0293 0.05169,0.1434 -0.11092,0.0512 -0.4222965,-0.23948 -0.4185185,-0.39067 -0.4814305,-0.51071 -0.362671,-0.69194 0.1272915,-0.19426 0.339562,-0.21422 1.8606105,-0.17495 1.480347,0.0383 1.716928,0.0175 1.716928,-0.14984 0,-0.10679 -0.05687,-0.228 -0.126378,-0.26937 -0.06951,-0.0413 -0.09212,-0.24013 -0.05025,-0.44171 0.06512,-0.31352 0.0294,-0.37779 -0.247038,-0.44461 -0.181515,-0.0439 -0.536684,0.008 -0.810304,0.11789 -0.430836,0.17333 -0.509568,0.1744 -0.681173,0.009 -0.255249,-0.24578 -0.349892,-0.23609 -0.632668,0.0648 -0.130068,0.13838 -0.300869,0.25074 -0.3795581,0.24968 -0.078689,-8e-4 -0.054878,-0.0568 0.052914,-0.12388 0.153292,-0.0954 0.119393,-0.12237 -0.1556098,-0.12388 -0.193378,-8e-4 -0.3879345,0.0547 -0.432347,0.12388 -0.044415,0.0692 0.025615,0.12782 0.1556105,0.13026 0.1881209,0.004 0.169695,0.0412 -0.090281,0.18426 -0.439855,0.24211 -0.593236,0.23375 -0.3753055,-0.0204 0.139799,-0.16308 0.1433245,-0.22083 0.016,-0.26211 C 0.073495,125.12815 0,125.04909 0,124.98158 c 0,-0.0675 0.058331,-0.0881 0.1296225,-0.0456 0.071293,0.0424 0.225832,0.0253 0.343421,-0.0381 0.259241,-0.13969 0.013315,-0.33763 -0.2833145,-0.22802 C 0.0853785,124.70841 0,124.68512 0,124.6181 c 0,-0.17947 0.4353075,-0.14817 0.7192205,0.0517 0.1832235,0.129 0.3416645,0.14166 0.6169545,0.0493 0.259143,-0.087 0.483396,-0.0793 0.746508,0.0257 0.284036,0.11329 0.444434,0.11479 0.655299,0.006 0.153563,-0.0791 0.467573,-0.12633 0.697802,-0.10489 0.368298,0.0343 0.419616,0.0851 0.427064,0.42217 0.0046,0.21076 0.04992,0.44777 0.100572,0.52669 0.08389,0.13071 0.01055,1.15567 -0.08961,1.25209 -0.02331,0.0224 -0.22473,-0.0204 -0.4476,-0.0952 -0.299498,-0.10053 -0.383861,-0.19094 -0.323365,-0.34654 0.07129,-0.18337 0.05341,-0.18825 -0.1386,-0.0378 -0.178145,0.13953 -0.220449,0.14095 -0.220449,0.007 0,-0.10063 -0.07503,-0.0697 -0.19183,0.0789 -0.105508,0.13433 -0.193701,0.19977 -0.195986,0.14544 -0.0023,-0.0543 -0.118886,-0.0396 -0.259111,0.0326 -0.186975,0.0964 -0.241768,0.23171 -0.2055,0.50767 0.0272,0.20695 0.03904,0.37531 0.0263,0.37415 -0.01274,-8e-4 -0.214726,-0.12025 -0.448872,-0.26463 z m 0.360394,-0.11066 c 0,-0.0692 -0.02593,-0.12581 -0.05762,-0.12581 -0.03169,0 -0.09396,0.0566 -0.138367,0.12581 -0.04441,0.0692 -0.01849,0.1258 0.05762,0.1258 0.0761,0 0.138368,-0.0566 0.138367,-0.1258 z m -0.8574035,-0.57628 c 0.2464095,-0.23727 0.1568675,-0.43019 -0.199666,-0.43019 -0.3181025,0 -0.484435,0.36246 -0.235877,0.514 0.231079,0.14089 0.194957,0.14784 0.435543,-0.0838 z m 2.8172585,0.0179 c 0,-0.10335 -0.112034,-0.17276 -0.261315,-0.16194 -0.322227,0.0234 -0.341983,0.17828 -0.03266,0.25611 0.125758,0.0316 0.243349,0.0641 0.261315,0.0721 0.01797,0.008 0.03266,-0.0668 0.03266,-0.16629 z m -1.567885,-0.20994 c 0,-0.16578 -0.752876,-0.13673 -0.86199,0.0333 -0.06404,0.0998 -0.0048,0.1233 0.188273,0.0747 0.154961,-0.0391 0.281747,-0.0214 0.281747,0.0392 0,0.0605 0.08819,0.0775 0.195985,0.0376 0.107792,-0.0399 0.195985,-0.12297 0.195985,-0.18476 z m -0.609406,-0.93857 c -0.108897,-0.27324 0.167559,-0.53022 0.365441,-0.33967 0.167245,0.16103 0.06364,0.53685 -0.148005,0.53685 -0.07637,0 -0.174218,-0.0887 -0.217436,-0.19718 z m 0.176032,-0.20384 c -0.04171,-0.10036 -0.07267,-0.0706 -0.07894,0.076 -0.0057,0.13262 0.02521,0.20694 0.06862,0.16512 0.04341,-0.0418 0.04806,-0.15031 0.01031,-0.24113 z"
       id="path1561"
       sodipodi:nodetypes="ssssssssssssssssssssssssssscsssssscssssssssssscscsssssssssssssssssssssssssscscsssssssssssssssssssssssssssss"
       inkscape:label="logo" />
    <path
       style="fill:#000000;fill-opacity:0.5;stroke:#000000;stroke-width:0.25;stroke-linecap:butt;stroke-linejoin:miter;stroke-dasharray:none;stroke-opacity:1;stroke-dashoffset:0"
       d="M 40.64,90.125 C 0,90.125 0,90.125 0,90.125"
       id="path433" />
    <g
       aria-label="IN"
       id="text18698"
       style="font-weight:bold;font-size:3.52778px;font-family:Trim;-inkscape-font-specification:'Trim Bold';text-align:center;text-anchor:middle;display:inline;fill:#000000;fill-opacity:1;stroke:#ffffff;stroke-width:0;stroke-linecap:round;stroke-miterlimit:0"
       inkscape:label="record_label"
       transform="translate(-1.1170857,-19.40802)">
      <path
         d="M 6.9979449,113.97289 H 5.9850862 v -0.26182 h 0.335897 v -2.04123 h -0.335897 v -0.26182 h 1.0128587 v 0.26182 h -0.335897 v 2.04123 h 0.335897 z"
         style="font-weight:normal;-inkscape-font-specification:Trim;fill:#000000;fill-opacity:1"
         id="path18852" />
      <path
         d="M 9.5352593,113.97289 H 9.1132348 l -1.2161195,-2.29443 v 2.29443 H 7.5784438 v -2.56487 h 0.5288225 l 1.1093215,2.09462 v -2.09462 h 0.3186715 z"
         style="font-weight:normal;-inkscape-font-specification:Trim;fill:#000000;fill-opacity:1"
         id="path18854" />
    </g>
    <g
       aria-label="REC"
       id="text18702"
       style="font-size:3.52778px;font-family:Trim;-inkscape-font-specification:Trim;text-align:center;text-anchor:middle;display:inline;fill:#000000;fill-opacity:1;stroke:#ffffff;stroke-width:0;stroke-linecap:round;stroke-miterlimit:0"
       inkscape:label="record_label"
       transform="translate(-8.843286,-1.9120385)">
      <path
         d="m 21.276596,18.523422 h -0.3514 q -0.03617,-0.06718 -0.06029,-0.208428 -0.02412,-0.141249 -0.06201,-0.268718 -0.06546,-0.272163 -0.42547,-0.542603 h -0.480591 v 1.019749 H 19.55577 v -2.564875 h 0.718303 q 0.232544,0 0.387574,0.03101 0.155029,0.02928 0.279053,0.106798 0.139526,0.08785 0.217041,0.222209 0.07924,0.132636 0.07924,0.337619 0,0.277331 -0.139526,0.465088 -0.139527,0.186036 -0.384129,0.280776 0.365181,0.289388 0.430637,0.609782 0.03445,0.160197 0.05168,0.294556 0.01722,0.132636 0.08096,0.217041 z M 20.88041,16.680295 q 0,-0.110243 -0.03962,-0.194648 -0.0379,-0.08613 -0.127469,-0.144694 -0.07407,-0.04995 -0.1757,-0.0689 -0.10163,-0.02067 -0.239434,-0.02067 h -0.401354 v 0.968073 h 0.34451 q 0.161919,0 0.282498,-0.02756 0.120578,-0.02928 0.204983,-0.106798 0.07751,-0.07235 0.113688,-0.165365 0.0379,-0.09474 0.0379,-0.239434 z"
         style="fill:#000000;fill-opacity:1"
         id="path18857" />
      <path
         d="m 23.622707,18.523422 h -1.68982 v -2.564875 h 1.68982 v 0.303169 h -1.348755 v 0.7028 h 1.348755 v 0.303168 h -1.348755 v 0.95257 h 1.348755 z"
         style="fill:#000000;fill-opacity:1"
         id="path18859" />
      <path
         d="m 26.144519,18.337387 q -0.09474,0.04134 -0.172255,0.07752 -0.07579,0.03617 -0.199816,0.07579 -0.105075,0.03273 -0.229099,0.05512 -0.122301,0.02412 -0.27044,0.02412 -0.279053,0 -0.508152,-0.07752 -0.227376,-0.07924 -0.396186,-0.246324 -0.165365,-0.163642 -0.258383,-0.415134 -0.09302,-0.253215 -0.09302,-0.58739 0,-0.316949 0.08957,-0.566718 0.08957,-0.24977 0.258383,-0.422025 0.163642,-0.167087 0.394463,-0.254937 0.232544,-0.08785 0.515042,-0.08785 0.206706,0 0.41169,0.04995 0.206705,0.04995 0.458198,0.1757 v 0.363458 l -0.0034,-0.0034 q -0.282499,-0.1757 -0.444418,-0.232544 -0.16192,-0.05684 -0.444418,-0.06201 -0.194648,0 -0.3514,0.06373 -0.155029,0.06201 -0.27733,0.194648 -0.118856,0.129191 -0.186035,0.327285 -0.06546,0.19637 -0.06546,0.454752 0,0.270441 0.07235,0.465089 0.07407,0.194648 0.18948,0.316949 0.120579,0.127468 0.280776,0.18948 0.161919,0.06029 0.341064,0.06029 0.246325,0 0.461643,-0.08441 0.215319,-0.08441 0.404799,-0.213596 h 0.02412 z"
         style="fill:#000000;fill-opacity:1"
         id="path18861" />
    </g>
    <g
       aria-label="SPD"
       id="text18710"
       style="font-size:3.52778px;font-family:Trim;-inkscape-font-specification:Trim;text-align:center;text-anchor:middle;display:inline;fill:#000000;fill-opacity:1;stroke:#ffffff;stroke-width:0;stroke-linecap:round;stroke-miterlimit:0"
       inkscape:label="record_label"
       transform="translate(1.6737362,13.186995)">
      <path
         d="m 30.332913,42.692302 q 0,0.149862 -0.07062,0.296278 -0.0689,0.146417 -0.194648,0.248047 -0.137804,0.110243 -0.322117,0.172255 -0.18259,0.06201 -0.440972,0.06201 -0.277331,0 -0.49954,-0.05168 -0.220486,-0.05168 -0.449585,-0.153306 v -0.373794 h 0.02412 q 0.206706,0.149862 0.449585,0.223932 0.242879,0.07407 0.478869,0.06029 0.316949,0 0.492649,-0.118856 0.177422,-0.118856 0.177422,-0.316949 0,-0.170532 -0.08441,-0.251492 -0.08268,-0.08096 -0.253214,-0.125746 -0.129192,-0.03445 -0.280776,-0.05684 -0.149862,-0.02239 -0.318671,-0.05684 -0.341065,-0.07235 -0.50643,-0.246325 -0.163642,-0.1757 -0.163642,-0.456475 0,-0.322117 0.272163,-0.5271 0.272163,-0.206706 0.690742,-0.206706 0.27044,0 0.496094,0.05168 0.225654,0.05168 0.399631,0.127469 l -0.0017,0.360013 h -0.02412 q -0.153307,-0.122301 -0.384128,-0.184313 -0.230822,-0.06201 -0.487482,-0.06029 -0.273885,0 -0.440972,0.113688 -0.165365,0.113688 -0.165365,0.292833 0,0.160197 0.08268,0.251493 0.08268,0.09129 0.291111,0.139526 0.110243,0.02412 0.313504,0.05857 0.203261,0.03445 0.34451,0.07062 0.285943,0.07579 0.430637,0.229099 0.144694,0.153307 0.144694,0.428915 z"
         style="fill:#000000;fill-opacity:1"
         id="path18871" />
      <path
         d="m 32.558446,41.634657 q 0,0.170532 -0.06029,0.316949 -0.05857,0.144694 -0.165365,0.251492 -0.132636,0.132636 -0.313503,0.199816 -0.180868,0.06546 -0.456476,0.06546 h -0.341065 v 0.956015 H 30.880684 V 40.85951 h 0.69591 q 0.230821,0 0.391018,0.03962 0.160197,0.0379 0.284221,0.120579 0.146416,0.09819 0.225654,0.244602 0.08096,0.146416 0.08096,0.370348 z m -0.354845,0.0086 q 0,-0.132637 -0.04651,-0.230822 -0.04651,-0.09819 -0.141249,-0.160197 -0.08268,-0.0534 -0.18948,-0.07579 -0.105075,-0.02412 -0.266995,-0.02412 h -0.33762 v 1.024917 h 0.287666 q 0.206706,0 0.335897,-0.03617 0.129191,-0.0379 0.210151,-0.118856 0.08096,-0.08268 0.113688,-0.173977 0.03445,-0.0913 0.03445,-0.204983 z"
         style="fill:#000000;fill-opacity:1"
         id="path18873" />
      <path
         d="m 35.174998,42.144531 q 0,0.349678 -0.153306,0.633898 -0.151585,0.284221 -0.404799,0.440973 -0.1757,0.10852 -0.392742,0.156752 -0.215318,0.04823 -0.568441,0.04823 H 33.008032 V 40.85951 h 0.640788 q 0.375516,0 0.596002,0.05512 0.222209,0.0534 0.375516,0.14814 0.261827,0.163642 0.408244,0.435804 0.146416,0.272163 0.146416,0.645956 z m -0.356567,-0.0052 q 0,-0.301446 -0.105076,-0.508152 -0.105075,-0.206706 -0.313504,-0.325562 -0.151584,-0.08613 -0.322116,-0.118856 -0.170533,-0.03445 -0.408244,-0.03445 h -0.320394 v 1.979209 h 0.320394 q 0.246324,0 0.428914,-0.03617 0.184313,-0.03617 0.33762,-0.134359 0.191203,-0.122301 0.285943,-0.322116 0.09646,-0.199816 0.09646,-0.499539 z"
         style="fill:#000000;fill-opacity:1"
         id="path18875" />
    </g>
    <g
       aria-label="FBK"
       id="text18714"
       style="font-size:3.52778px;font-family:Trim;-inkscape-font-specification:Trim;text-align:center;text-anchor:middle;display:inline;fill:#000000;fill-opacity:1;stroke:#ffffff;stroke-width:0;stroke-linecap:round;stroke-miterlimit:0"
       inkscape:label="record_label"
       transform="translate(1.9315904,8.0940445)">
      <path
         d="M 10.654221,66.209126 H 9.3571416 v 0.723471 h 1.1144894 v 0.303168 H 9.3571416 v 1.235068 H 9.0160769 v -2.564875 h 1.6381441 z"
         style="fill:#000000;fill-opacity:1"
         id="path18878" />
      <path
         d="m 12.977939,67.681905 q 0,0.191203 -0.07235,0.33762 -0.07235,0.146417 -0.194648,0.241157 -0.144694,0.113688 -0.318671,0.161919 -0.172255,0.04823 -0.43925,0.04823 h -0.909506 v -2.564875 h 0.759644 q 0.280776,0 0.420302,0.02067 0.139526,0.02067 0.266995,0.08613 0.141249,0.07407 0.204983,0.191203 0.06373,0.11541 0.06373,0.27733 0,0.18259 -0.09302,0.311781 -0.09302,0.127469 -0.248047,0.204984 v 0.01378 q 0.260105,0.0534 0.409967,0.229099 0.149861,0.173977 0.149861,0.440972 z m -0.573608,-1.15583 q 0,-0.09302 -0.03101,-0.156752 -0.03101,-0.06373 -0.09991,-0.103353 -0.08096,-0.04651 -0.196371,-0.05684 -0.11541,-0.01206 -0.285943,-0.01206 h -0.406521 v 0.740696 h 0.440972 q 0.160197,0 0.254937,-0.0155 0.09474,-0.01723 0.1757,-0.0689 0.08096,-0.05168 0.113689,-0.132636 0.03445,-0.08268 0.03445,-0.194648 z m 0.218763,1.169611 q 0,-0.15503 -0.04651,-0.246325 -0.04651,-0.0913 -0.168809,-0.155029 -0.08268,-0.04306 -0.201539,-0.05512 -0.117133,-0.01378 -0.285943,-0.01378 h -0.535712 v 0.954292 h 0.451307 q 0.223932,0 0.366903,-0.02239 0.142972,-0.02412 0.234267,-0.08613 0.09646,-0.06718 0.141249,-0.153306 0.04479,-0.08613 0.04479,-0.222209 z"
         style="fill:#000000;fill-opacity:1"
         id="path18880" />
      <path
         d="m 15.523867,68.470833 h -0.442695 l -1.014581,-1.14205 -0.254938,0.272163 v 0.869887 h -0.341064 v -2.564875 h 0.341064 v 1.33842 l 1.245403,-1.33842 h 0.413412 l -1.145495,1.205784 z"
         style="fill:#000000;fill-opacity:1"
         id="path18882" />
    </g>
    <g
       aria-label="WET"
       id="text18718"
       style="font-size:3.52778px;font-family:Trim;-inkscape-font-specification:Trim;text-align:center;text-anchor:middle;display:inline;fill:#000000;fill-opacity:1;stroke:#ffffff;stroke-width:0;stroke-linecap:round;stroke-miterlimit:0"
       inkscape:label="record_label"
       transform="translate(1.6458366,8.5291705)">
      <path
         d="m 31.287876,65.47083 -0.666626,2.564876 h -0.384129 l -0.539157,-2.129071 -0.5271,2.129071 H 28.795348 L 28.116664,65.47083 h 0.349677 l 0.539158,2.132516 0.530545,-2.132516 h 0.346232 l 0.535713,2.153186 0.535713,-2.153186 z"
         style="fill:#000000;fill-opacity:1"
         id="path18885" />
      <path
         d="M 33.480681,68.035706 H 31.79086 V 65.47083 h 1.689821 v 0.303169 h -1.348756 v 0.7028 h 1.348756 v 0.303168 h -1.348756 v 0.95257 h 1.348756 z"
         style="fill:#000000;fill-opacity:1"
         id="path18887" />
      <path
         d="m 35.850908,65.773999 h -0.916396 v 2.261707 H 34.593447 V 65.773999 H 33.677051 V 65.47083 h 2.173857 z"
         style="fill:#000000;fill-opacity:1"
         id="path18889" />
    </g>
    <g
       aria-label="POLY"
       id="text18738"
       style="font-size:3.52778px;font-family:Trim;-inkscape-font-specification:Trim;text-align:center;text-anchor:middle;display:inline;fill:#000000;fill-opacity:1;stroke:#ffffff;stroke-width:0;stroke-linecap:round;stroke-miterlimit:0"
       inkscape:label="record_label"
       transform="translate(-4.2333333,-19.35461)">
      <path
         d="m 36.291049,112.18316 q 0,0.17054 -0.06029,0.31695 -0.05857,0.1447 -0.165365,0.2515 -0.132636,0.13263 -0.313504,0.19981 -0.180867,0.0655 -0.456475,0.0655 H 34.95435 v 0.95601 h -0.341064 v -2.56487 h 0.695909 q 0.230822,0 0.391019,0.0396 0.160197,0.0379 0.28422,0.12057 0.146417,0.0982 0.225654,0.24461 0.08096,0.14641 0.08096,0.37034 z m -0.354845,0.009 q 0,-0.13264 -0.04651,-0.23082 -0.04651,-0.0982 -0.141249,-0.1602 -0.08268,-0.0534 -0.18948,-0.0758 -0.105076,-0.0241 -0.266995,-0.0241 h -0.33762 v 1.02492 h 0.287666 q 0.206706,0 0.335897,-0.0362 0.129191,-0.0379 0.210151,-0.11885 0.08096,-0.0827 0.113688,-0.17398 0.03445,-0.0913 0.03445,-0.20498 z"
         style="fill:#000000;fill-opacity:1"
         id="path18920" />
      <path
         d="m 38.652664,111.70257 q 0.156752,0.17226 0.239434,0.42203 0.08441,0.24977 0.08441,0.56672 0,0.31695 -0.08613,0.56844 -0.08441,0.24977 -0.237712,0.41685 -0.158475,0.17398 -0.375516,0.26183 -0.215318,0.0879 -0.492649,0.0879 -0.27044,0 -0.492649,-0.0896 -0.220486,-0.0896 -0.375515,-0.26011 -0.15503,-0.17053 -0.239435,-0.41858 -0.08268,-0.24804 -0.08268,-0.56671 0,-0.31351 0.08268,-0.56155 0.08268,-0.24977 0.241157,-0.4272 0.151584,-0.16881 0.375516,-0.25838 0.225654,-0.0896 0.490926,-0.0896 0.275608,0 0.494372,0.0913 0.220486,0.0896 0.373793,0.25666 z m -0.03101,0.98875 q 0,-0.49954 -0.223931,-0.76998 -0.223932,-0.27217 -0.611505,-0.27217 -0.391019,0 -0.61495,0.27217 -0.222209,0.27044 -0.222209,0.76998 0,0.5047 0.227376,0.77342 0.227377,0.267 0.609783,0.267 0.382406,0 0.608059,-0.267 0.227377,-0.26872 0.227377,-0.77342 z"
         style="fill:#000000;fill-opacity:1"
         id="path18922" />
      <path
         d="m 41.140024,113.97289 h -1.622641 v -2.56487 h 0.341065 v 2.2617 h 1.281576 z"
         style="fill:#000000;fill-opacity:1"
         id="path18924" />
      <path
         d="m 43.296655,111.40802 -0.902615,1.44005 v 1.12482 h -0.341065 v -1.08865 l -0.906061,-1.47622 h 0.377238 l 0.701078,1.14722 0.707967,-1.14722 z"
         style="fill:#000000;fill-opacity:1"
         id="path18926" />
    </g>
    <g
       aria-label="MONO"
       id="text18742"
       style="font-size:3.52778px;font-family:Trim;-inkscape-font-specification:Trim;text-align:center;text-anchor:middle;display:inline;fill:#000000;fill-opacity:1;stroke:#ffffff;stroke-width:0;stroke-linecap:round;stroke-miterlimit:0"
       inkscape:label="record_label"
       transform="translate(-18.520839,-5.493029)">
      <path
         d="m 36.268241,100.11138 h -0.341065 v -2.210029 l -0.713135,1.503786 H 35.01078 l -0.707967,-1.503786 v 2.210029 h -0.318672 v -2.564874 h 0.465088 l 0.683852,1.427993 0.661459,-1.427993 h 0.473701 z"
         style="fill:#000000;fill-opacity:1"
         id="path18929" />
      <path
         d="m 38.86929,97.841062 q 0.156751,0.172255 0.239434,0.422025 0.0844,0.249769 0.0844,0.566718 0,0.316949 -0.08613,0.568441 -0.0844,0.24977 -0.237711,0.416857 -0.158475,0.173978 -0.375516,0.261827 -0.215319,0.0878 -0.492649,0.0878 -0.27044,0 -0.492649,-0.0896 -0.220486,-0.08957 -0.375516,-0.260107 -0.155029,-0.170532 -0.239434,-0.418579 -0.08268,-0.248047 -0.08268,-0.566719 0,-0.313504 0.08268,-0.561551 0.08268,-0.249769 0.241157,-0.427192 0.151584,-0.16881 0.375515,-0.258382 0.225654,-0.08957 0.490927,-0.08957 0.275608,0 0.494371,0.0913 0.220487,0.08957 0.373794,0.25666 z m -0.03101,0.988743 q 0,-0.499539 -0.223932,-0.769979 -0.223931,-0.272163 -0.611505,-0.272163 -0.391018,0 -0.614949,0.272163 -0.222209,0.27044 -0.222209,0.769979 0,0.504707 0.227376,0.773425 0.227377,0.266995 0.609782,0.266995 0.382406,0 0.60806,-0.266995 0.227377,-0.268718 0.227377,-0.773425 z"
         style="fill:#000000;fill-opacity:1"
         id="path18931" />
      <path
         d="M 41.690824,100.11138 H 41.2688 l -1.21612,-2.294434 v 2.294434 h -0.318671 v -2.564874 h 0.528822 l 1.109322,2.09462 v -2.09462 h 0.318671 z"
         style="fill:#000000;fill-opacity:1"
         id="path18933" />
      <path
         d="m 44.284983,97.841062 q 0.156752,0.172255 0.239435,0.422025 0.0844,0.249769 0.0844,0.566718 0,0.316949 -0.08613,0.568441 -0.0844,0.24977 -0.237712,0.416857 -0.158474,0.173978 -0.375515,0.261827 -0.215319,0.0878 -0.492649,0.0878 -0.270441,0 -0.492649,-0.0896 -0.220487,-0.08957 -0.375516,-0.260107 -0.155029,-0.170532 -0.239434,-0.418579 -0.08268,-0.248047 -0.08268,-0.566719 0,-0.313504 0.08268,-0.561551 0.08268,-0.249769 0.241157,-0.427192 0.151584,-0.16881 0.375515,-0.258382 0.225654,-0.08957 0.490927,-0.08957 0.275607,0 0.494371,0.0913 0.220486,0.08957 0.373793,0.25666 z m -0.03101,0.988743 q 0,-0.499539 -0.223931,-0.769979 -0.223931,-0.272163 -0.611505,-0.272163 -0.391018,0 -0.61495,0.272163 -0.222209,0.27044 -0.222209,0.769979 0,0.504707 0.227377,0.773425 0.227376,0.266995 0.609782,0.266995 0.382406,0 0.60806,-0.266995 0.227376,-0.268718 0.227376,-0.773425 z"
         style="fill:#000000;fill-opacity:1"
         id="path18935" />
    </g>
    <g
       aria-label="SCN"
       id="text25052"
       style="font-size:3.52777px;font-family:Trim;-inkscape-font-specification:Trim;text-align:center;text-anchor:middle;fill:#000000;fill-opacity:1;stroke:#ff0000;stroke-width:0;stroke-linecap:round;stroke-miterlimit:0"
       transform="translate(4.4708322,1.0000085)">
      <path
         d="m 8.6334808,54.879297 q 0,0.149861 -0.070624,0.296277 -0.068902,0.146416 -0.1946475,0.248046 -0.1378035,0.110243 -0.3221157,0.172255 -0.1825896,0.06201 -0.4409712,0.06201 -0.2773296,0 -0.4995378,-0.05168 -0.2204856,-0.05168 -0.449584,-0.153306 v -0.373792 h 0.024116 q 0.2067052,0.149861 0.4495839,0.22393 0.2428787,0.07407 0.4788673,0.06029 0.316948,0 0.4926475,-0.118855 0.1774221,-0.118856 0.1774221,-0.316948 0,-0.170532 -0.084405,-0.251492 -0.082682,-0.08096 -0.253214,-0.125745 -0.1291908,-0.03445 -0.2807746,-0.05684 -0.1498613,-0.02239 -0.3186707,-0.05684 -0.3410637,-0.07235 -0.5064279,-0.246324 -0.1636417,-0.1757 -0.1636417,-0.456474 0,-0.322116 0.272162,-0.527099 0.2721619,-0.206705 0.6907401,-0.206705 0.2704394,0 0.4960927,0.05168 0.2256532,0.05168 0.3996302,0.127469 l -0.00172,0.360011 H 8.50429 q -0.1533064,-0.1223 -0.3841273,-0.184312 -0.2308209,-0.06201 -0.4874799,-0.06029 -0.2738845,0 -0.4409713,0.113688 -0.1653642,0.113688 -0.1653642,0.292832 0,0.160197 0.082682,0.251492 0.082682,0.0913 0.2911099,0.139526 0.1102429,0.02412 0.313503,0.05857 0.2032602,0.03445 0.3445088,0.07062 0.2859423,0.07579 0.430636,0.229098 0.1446937,0.153306 0.1446937,0.428914 z"
         id="path25831"
         style="fill:#000000;fill-opacity:1" />
      <path
         d="m 11.162175,55.425343 q -0.09474,0.04134 -0.172254,0.07751 -0.07579,0.03617 -0.199815,0.07579 -0.105075,0.03273 -0.229099,0.05512 -0.1223,0.02411 -0.270439,0.02411 -0.279052,0 -0.5081504,-0.07751 -0.2273758,-0.07924 -0.3961851,-0.246324 -0.1653643,-0.163642 -0.2583816,-0.415133 -0.093017,-0.253214 -0.093017,-0.587387 0,-0.316949 0.089572,-0.566717 0.089572,-0.249769 0.2583816,-0.422024 0.1636417,-0.167086 0.3944625,-0.254936 0.232543,-0.08785 0.515041,-0.08785 0.206705,0 0.411688,0.04995 0.206705,0.04995 0.458196,0.175699 v 0.363457 l -0.0034,-0.0034 q -0.282497,-0.175699 -0.444416,-0.232543 -0.161919,-0.05684 -0.444416,-0.06201 -0.194648,0 -0.3513993,0.06373 -0.155029,0.06201 -0.2773296,0.194648 -0.1188556,0.12919 -0.1860348,0.327283 -0.065457,0.19637 -0.065457,0.454752 0,0.270439 0.072347,0.465086 0.074069,0.194648 0.1894798,0.316949 0.1205781,0.127468 0.2807747,0.189479 0.1619192,0.06029 0.3410642,0.06029 0.246323,0 0.461641,-0.0844 0.215318,-0.08441 0.404798,-0.213596 h 0.02412 z"
         id="path25833"
         style="fill:#000000;fill-opacity:1" />
      <path
         d="m 13.601297,55.611378 h -0.422023 l -1.216116,-2.294429 v 2.294429 H 11.644487 V 53.04651 h 0.528821 l 1.109319,2.094613 V 53.04651 h 0.31867 z"
         id="path25835"
         style="fill:#000000;fill-opacity:1" />
    </g>
    <g
       aria-label="LEN"
       id="text25176"
       style="font-size:3.52777px;font-family:Trim;-inkscape-font-specification:Trim;text-align:center;text-anchor:middle;fill:#000000;fill-opacity:1;stroke:#ff0000;stroke-width:0;stroke-linecap:round;stroke-miterlimit:0"
       transform="translate(4.4710006,1.000008)">
      <path
         d="M 8.2786363,35.564869 H 6.6559999 v -2.564868 h 0.3410637 v 2.2617 h 1.2815727 z"
         id="path25199"
         style="fill:#000000;fill-opacity:1" />
      <path
         d="M 10.309516,35.564869 H 8.6197001 v -2.564868 h 1.6898159 v 0.303168 H 8.9607638 v 0.702798 h 1.3487522 v 0.303167 H 8.9607638 v 0.952567 h 1.3487522 z"
         id="path25201"
         style="fill:#000000;fill-opacity:1" />
      <path
         d="M 12.807204,35.564869 H 12.385181 L 11.169065,33.27044 v 2.294429 h -0.318671 v -2.564868 h 0.528821 l 1.109319,2.094613 v -2.094613 h 0.31867 z"
         id="path25203"
         style="fill:#000000;fill-opacity:1" />
    </g>
    <g
       aria-label="μLooper"
       id="text24049"
       style="font-size:3.52777px;font-family:Trim;-inkscape-font-specification:Trim;text-align:center;text-anchor:middle;display:inline;fill:#000000;fill-opacity:1;stroke:#ff0000;stroke-width:0;stroke-linecap:round;stroke-miterlimit:0"
       transform="translate(0,-1.4351315)">
      <path
         d="M 13.3155,9.7338037 V 7.0707508 h 0.316948 v 1.1988906 q 0,0.2497688 0.118855,0.3772371 0.118856,0.1274682 0.351399,0.1274682 0.254937,0 0.382405,-0.1446937 0.129191,-0.1446936 0.129191,-0.434081 V 7.0707508 h 0.316948 v 1.4848329 q 0,0.1033526 0.02928,0.1533064 0.03101,0.048231 0.09474,0.048231 0.0155,0 0.04306,-0.00861 0.02756,-0.010335 0.07579,-0.031006 v 0.2549365 q -0.07062,0.039618 -0.134359,0.058567 -0.06201,0.018948 -0.122301,0.018948 -0.118855,0 -0.189479,-0.067179 -0.07062,-0.067179 -0.09646,-0.2049828 -0.08613,0.136081 -0.211873,0.2049828 -0.124023,0.067179 -0.292832,0.067179 -0.1757,0 -0.299723,-0.067179 -0.1223,-0.067179 -0.194647,-0.2015377 v 0.9525668 z"
         id="path25035"
         style="fill:#000000;fill-opacity:1" />
      <path
         d="M 17.227397,9 H 15.604761 V 6.435132 h 0.341063 v 2.2617003 h 1.281573 z"
         id="path25037"
         style="fill:#000000;fill-opacity:1" />
      <path
         d="m 19.182485,8.0388205 q 0,0.4702545 -0.241157,0.7424164 -0.241156,0.272162 -0.645954,0.272162 -0.408242,0 -0.649399,-0.272162 -0.239433,-0.2721619 -0.239433,-0.7424164 0,-0.4702545 0.239433,-0.7424165 0.241157,-0.2738845 0.649399,-0.2738845 0.404798,0 0.645954,0.2738845 0.241157,0.272162 0.241157,0.7424165 z m -0.334174,0 q 0,-0.3737921 -0.146416,-0.5546592 -0.146416,-0.1825897 -0.406521,-0.1825897 -0.263549,0 -0.409965,0.1825897 -0.144694,0.1808671 -0.144694,0.5546592 0,0.3617342 0.146417,0.5494915 0.146416,0.1860347 0.408242,0.1860347 0.258382,0 0.404798,-0.1843122 0.148139,-0.1860347 0.148139,-0.551214 z"
         id="path25039"
         style="fill:#000000;fill-opacity:1" />
      <path
         d="m 21.323606,8.0388205 q 0,0.4702545 -0.241156,0.7424164 -0.241156,0.272162 -0.645954,0.272162 -0.408243,0 -0.649399,-0.272162 -0.239433,-0.2721619 -0.239433,-0.7424164 0,-0.4702545 0.239433,-0.7424165 0.241156,-0.2738845 0.649399,-0.2738845 0.404798,0 0.645954,0.2738845 0.241156,0.272162 0.241156,0.7424165 z m -0.334173,0 q 0,-0.3737921 -0.146416,-0.5546592 -0.146417,-0.1825897 -0.406521,-0.1825897 -0.263549,0 -0.409965,0.1825897 -0.144694,0.1808671 -0.144694,0.5546592 0,0.3617342 0.146416,0.5494915 0.146417,0.1860347 0.408243,0.1860347 0.258382,0 0.404798,-0.1843122 0.148139,-0.1860347 0.148139,-0.551214 z"
         id="path25041"
         style="fill:#000000;fill-opacity:1" />
      <path
         d="m 23.518128,8.0147049 q 0,0.2342659 -0.06718,0.4289134 -0.06718,0.1929249 -0.189479,0.3272834 -0.113688,0.1274682 -0.268717,0.1980925 -0.153307,0.068902 -0.325561,0.068902 -0.149861,0 -0.272162,-0.032728 -0.120578,-0.032728 -0.246324,-0.1016301 v 0.80615 H 21.824867 V 7.0759184 h 0.323838 V 7.277456 q 0.129191,-0.1085202 0.289388,-0.1808671 0.161919,-0.074069 0.344508,-0.074069 0.347954,0 0.540879,0.2635493 0.194648,0.2618266 0.194648,0.7286357 z m -0.334174,0.00861 q 0,-0.3479539 -0.118855,-0.5202083 -0.118856,-0.1722544 -0.36518,-0.1722544 -0.139526,0 -0.280774,0.060289 -0.141249,0.060289 -0.27044,0.1584741 v 1.0903703 q 0.137804,0.062012 0.235989,0.084405 0.09991,0.022393 0.225653,0.022393 0.270439,0 0.422023,-0.1825896 0.151584,-0.1825897 0.151584,-0.5408791 z"
         id="path25043"
         style="fill:#000000;fill-opacity:1" />
      <path
         d="m 25.633411,8.0715488 h -1.417653 q 0,0.177422 0.0534,0.3100579 0.0534,0.1309134 0.146417,0.215318 0.08957,0.082682 0.211873,0.1240232 0.124023,0.041341 0.272161,0.041341 0.19637,0 0.394463,-0.077514 0.199815,-0.079237 0.28422,-0.155029 h 0.01722 V 8.882867 q -0.163641,0.068902 -0.334173,0.1154105 -0.170532,0.046509 -0.358289,0.046509 -0.478868,0 -0.747585,-0.2583816 -0.268716,-0.2601041 -0.268716,-0.7372488 0,-0.471977 0.256659,-0.7493066 0.258381,-0.2773296 0.678682,-0.2773296 0.389295,0 0.599445,0.2273758 0.211873,0.2273758 0.211873,0.645954 z M 25.318186,7.8235025 Q 25.316463,7.568566 25.188995,7.4290399 25.063249,7.2895138 24.804868,7.2895138 q -0.260105,0 -0.415134,0.1533065 -0.153306,0.1533064 -0.173976,0.3806822 z"
         id="path25045"
         style="fill:#000000;fill-opacity:1" />
      <path
         d="m 27.32495,7.3894214 -0.0155,0.00345 q -0.08096,-0.01378 -0.153306,-0.010335 -0.07235,0.00345 -0.151584,0.010335 -0.144694,0.015503 -0.285942,0.075792 -0.141249,0.060289 -0.27044,0.1653642 V 9 H 26.124337 V 7.0759184 h 0.323838 v 0.2842197 q 0.192925,-0.1550289 0.339341,-0.218763 0.148139,-0.065457 0.301446,-0.065457 0.0844,0 0.1223,0.00517 0.0379,0.00345 0.113688,0.015503 z"
         id="path25047"
         style="fill:#000000;fill-opacity:1" />
    </g>
    <text
       xml:space="preserve"
       style="display:inline;font-style:normal;font-variant:normal;font-weight:normal;font-stretch:normal;font-size:4.23333px;font-family:Trim;-inkscape-font-specification:Trim;direction:rtl;fill:#000000;fill-opacity:1;stroke:#ff0000;stroke-width:0;stroke-linecap:round;stroke-miterlimit:0;stroke-dasharray:none;stroke-opacity:1"
       x="4.9999995"
       y="111.99999"
       id="text7620"><tspan
         sodipodi:role="line"
         id="tspan7618"
         style="stroke-width:0;fill:#000000;fill-opacity:1"
         x="4.9999995"
         y="111.99999" /></text>
    <g
       aria-label="CHN"
       id="text604"
       style="font-size:3.52777px;font-family:Trim;-inkscape-font-specification:Trim;text-align:center;text-anchor:middle;fill:#000000;fill-opacity:1;stroke:#ff00ff;stroke-width:0;stroke-linecap:round;stroke-miterlimit:0"
       transform="translate(3.0020249,2.0000085)">
      <path
         d="m 27.517102,34.425343 q -0.09474,0.04134 -0.172255,0.07751 -0.07579,0.03617 -0.199815,0.07579 -0.105075,0.03273 -0.229098,0.05512 -0.122301,0.02411 -0.27044,0.02411 -0.279052,0 -0.50815,-0.07751 -0.227376,-0.07924 -0.396185,-0.246324 -0.165364,-0.163642 -0.258382,-0.415133 -0.09302,-0.253214 -0.09302,-0.587387 0,-0.316949 0.08957,-0.566717 0.08957,-0.249769 0.258382,-0.422024 0.163641,-0.167086 0.394462,-0.254936 0.232544,-0.08785 0.515041,-0.08785 0.206705,0 0.411688,0.04995 0.206705,0.04995 0.458197,0.175699 v 0.363457 l -0.0034,-0.0034 q -0.282498,-0.175699 -0.444417,-0.232543 -0.161919,-0.05684 -0.444416,-0.06201 -0.194648,0 -0.351399,0.06373 -0.155029,0.06201 -0.27733,0.194648 -0.118855,0.12919 -0.186034,0.327283 -0.06546,0.19637 -0.06546,0.454752 0,0.270439 0.07235,0.465086 0.07407,0.194648 0.18948,0.316949 0.120578,0.127468 0.280774,0.189479 0.161919,0.06029 0.341064,0.06029 0.246324,0 0.461642,-0.0844 0.215318,-0.08441 0.404798,-0.213596 h 0.02411 z"
         style="fill:#000000;fill-opacity:1"
         id="path1526" />
      <path
         d="m 29.961392,34.611378 h -0.341064 v -1.255735 h -1.27985 v 1.255735 H 27.999414 V 32.04651 h 0.341064 v 1.005965 h 1.27985 V 32.04651 h 0.341064 z"
         style="fill:#000000;fill-opacity:1"
         id="path1528" />
      <path
         d="M 32.607219,34.611378 H 32.185196 L 30.96908,32.316949 v 2.294429 H 30.650409 V 32.04651 h 0.528821 l 1.109318,2.094613 V 32.04651 h 0.318671 z"
         style="fill:#000000;fill-opacity:1"
         id="path1530" />
    </g>
    <rect
       style="display:inline;fill:#000000;fill-opacity:0;stroke:#000000;stroke-width:0.1;stroke-dasharray:none;stroke-opacity:0.1"
       id="rect397"
       width="15.999999"
       height="1.999999"
       x="20"
       y="22" />
    <rect
       style="display:inline;fill:#000000;fill-opacity:0;stroke:#000000;stroke-width:0.1;stroke-dasharray:none;stroke-opacity:0.1"
       id="rect4491"
       width="7.9499993"
       height="7.9499989"
       x="28"
       y="38.999996" />
  </g>
  <g
     inkscape:groupmode="layer"
     id="layer2"
     inkscape:label="components"
     style="display:none">
    <circle
       cx="14.000001"
       cy="23"
       fill="#ff0000"
       id="rec"
       style="display:inline;stroke:#ff0000;stroke-width:0;stroke-dasharray:none;stroke-opacity:1"
       inkscape:label="rec"
       r="1.3229166mm" />
    <circle
       cx="14.000001"
       cy="63"
       fill="#ff0000"
       id="scn"
       style="display:inline;stroke:#ff0000;stroke-width:0;stroke-dasharray:none;stroke-opacity:1"
       inkscape:label="scn"
       r="1.3229166mm" />
    <circle
       cx="33"
       cy="63"
       fill="#ff0000"
       id="spd"
       style="display:inline;stroke:#ff0000;stroke-width:0;stroke-dasharray:none;stroke-opacity:1"
       inkscape:label="spd"
       r="1.3229166mm" />
    <circle
       cx="14.000001"
       cy="83"
       fill="#ff0000"
       id="fbk"
       style="display:inline;stroke:#ff0000;stroke-width:0;stroke-dasharray:none;stroke-opacity:1"
       inkscape:label="fbk"
       r="1.3229166mm" />
    <circle
       cx="33"
       cy="83"
       fill="#ff0000"
       id="wet"
       style="display:inline;stroke:#ff0000;stroke-width:0;stroke-dasharray:none;stroke-opacity:1"
       inkscape:label="wet"
       r="1.3229166mm" />
    <circle
       cx="7"
       cy="99"
       fill="#00ff00"
       id="in"
       style="display:inline;fill:#00ff00;fill-opacity:1;stroke:#ff0000;stroke-width:0;stroke-dasharray:none;stroke-opacity:1"
       inkscape:label="in"
       r="0.79374987mm" />
    <circle
       cx="26"
       cy="56"
       fill="#00ff00"
       id="spd_in"
       style="display:inline;fill:#00ff00;fill-opacity:1;stroke:#ff0000;stroke-width:0;stroke-dasharray:none;stroke-opacity:1"
       inkscape:label="spd"
       r="0.79374987mm" />
    <circle
       cx="26"
       cy="76"
       fill="#00ff00"
       id="wet_in"
       style="display:inline;fill:#00ff00;fill-opacity:1;stroke:#ff0000;stroke-width:0;stroke-dasharray:none;stroke-opacity:1"
       inkscape:label="wet"
       r="0.79374987mm" />
    <circle
       cx="7"
       cy="76"
       fill="#00ff00"
       id="fbk_in"
       style="display:inline;fill:#00ff00;fill-opacity:1;stroke:#ff0000;stroke-width:0;stroke-dasharray:none;stroke-opacity:1"
       inkscape:label="fbk"
       r="0.79374987mm" />
    <circle
       cx="35"
       cy="99"
       fill="#0000ff"
       id="poly_out"
       style="display:inline;fill:#0007ff;fill-opacity:1;stroke:#ff0000;stroke-width:0;stroke-dasharray:none;stroke-opacity:1"
       inkscape:label="poly"
       r="0.79374987mm" />
    <circle
       cx="21"
       cy="99"
       fill="#0000ff"
       id="mono_out"
       style="display:inline;fill:#0007ff;fill-opacity:1;stroke:#ff0000;stroke-width:0;stroke-dasharray:none;stroke-opacity:1"
       inkscape:label="mono"
       r="0.79374987mm" />
    <circle
       cx="14.000001"
       cy="43.000008"
       fill="#ff0000"
       id="len"
       style="display:inline;stroke:#ff0000;stroke-width:0;stroke-dasharray:none;stroke-opacity:1"
       inkscape:label="len"
       r="1.3229166mm" />
    <circle
       cx="7"
       cy="56"
       fill="#00ff00"
       id="scn_in"
       style="display:inline;fill:#00ff00;fill-opacity:1;stroke:#ff0000;stroke-width:0;stroke-dasharray:none;stroke-opacity:1"
       inkscape:label="scn"
       r="0.79374987mm" />
    <circle
       style="fill:#ff00ff;fill-opacity:1;stroke:#ff00ff;stroke-width:0;stroke-linecap:round;stroke-miterlimit:0;stroke-dasharray:none;stroke-opacity:1"
       id="rec_led_0"
       cx="21"
       cy="23"
       inkscape:label="rec_led_0"
       fill="#ff00ff"
       r="1" />
    <circle
       style="fill:#ff00ff;fill-opacity:1;stroke:#ff00ff;stroke-width:0;stroke-linecap:round;stroke-miterlimit:0;stroke-dasharray:none;stroke-opacity:1"
       id="rec_led_1"
       cx="23"
       cy="23"
       inkscape:label="rec_led_1"
       fill="#ff00ff"
       r="1" />
    <circle
       style="fill:#ff00ff;fill-opacity:1;stroke:#ff00ff;stroke-width:0;stroke-linecap:round;stroke-miterlimit:0;stroke-dasharray:none;stroke-opacity:1"
       id="rec_led_2"
       cx="25"
       cy="23"
       inkscape:label="rec_led_2"
       fill="#ff00ff"
       r="1" />
    <circle
       style="fill:#ff00ff;fill-opacity:1;stroke:#ff00ff;stroke-width:0;stroke-linecap:round;stroke-miterlimit:0;stroke-dasharray:none;stroke-opacity:1"
       id="rec_led_3"
       cx="27"
       cy="23"
       inkscape:label="rec_led_3"
       fill="#ff00ff"
       r="1" />
    <circle
       style="fill:#ff00ff;fill-opacity:1;stroke:#ff00ff;stroke-width:0;stroke-linecap:round;stroke-miterlimit:0;stroke-dasharray:none;stroke-opacity:1"
       id="rec_led_4"
       cx="29"
       cy="23"
       inkscape:label="rec_led_4"
       fill="#ff00ff"
       r="1" />
    <circle
       style="fill:#ff00ff;fill-opacity:1;stroke:#ff00ff;stroke-width:0;stroke-linecap:round;stroke-miterlimit:0;stroke-dasharray:none;stroke-opacity:1"
       id="rec_led_5"
       cx="31"
       cy="23"
       inkscape:label="rec_led_5"
       fill="#ff00ff"
       r="1" />
    <circle
       style="fill:#ff00ff;fill-opacity:1;stroke:#ff00ff;stroke-width:0;stroke-linecap:round;stroke-miterlimit:0;stroke-dasharray:none;stroke-opacity:1"
       id="rec_led_6"
       cx="33"
       cy="23"
       inkscape:label="rec_led_6"
       fill="#ff00ff"
       r="1" />
    <circle
       style="fill:#ff00ff;fill-opacity:1;stroke:#ff00ff;stroke-width:0;stroke-linecap:round;stroke-miterlimit:0;stroke-dasharray:none;stroke-opacity:1"
       id="rec_led_7"
       cx="35"
       cy="23"
       inkscape:label="rec_led_7"
       fill="#ff00ff"
       r="1" />
    <circle
       style="fill:#ff00ff;fill-opacity:1;stroke:#ff00ff;stroke-width:0;stroke-linecap:round;stroke-miterlimit:0;stroke-dasharray:none;stroke-opacity:1"
       id="ch_led_0"
       cx="29"
       cy="40.000008"
       inkscape:label="ch_led_0"
       fill="#ff00ff"
       r="1" />
    <circle
       style="fill:#ff00ff;fill-opacity:1;stroke:#ff00ff;stroke-width:0;stroke-linecap:round;stroke-miterlimit:0;stroke-dasharray:none;stroke-opacity:1"
       id="ch_led_1"
       cx="31"
       cy="40.000008"
       inkscape:label="ch_led_1"
       fill="#ff00ff"
       r="1" />
    <circle
       style="fill:#ff00ff;fill-opacity:1;stroke:#ff00ff;stroke-width:0;stroke-linecap:round;stroke-miterlimit:0;stroke-dasharray:none;stroke-opacity:1"
       id="ch_led_2"
       cx="33"
       cy="40.000008"
       inkscape:label="ch_led_2"
       fill="#ff00ff"
       r="1" />
    <circle
       style="fill:#ff00ff;fill-opacity:1;stroke:#ff00ff;stroke-width:0;stroke-linecap:round;stroke-miterlimit:0;stroke-dasharray:none;stroke-opacity:1"
       id="ch_led_3"
       cx="35"
       cy="40.000008"
       inkscape:label="ch_led_3"
       fill="#ff00ff"
       r="1" />
    <circle
       style="fill:#ff00ff;fill-opacity:1;stroke:#ff00ff;stroke-width:0;stroke-linecap:round;stroke-miterlimit:0;stroke-dasharray:none;stroke-opacity:1"
       id="ch_led_4"
       cx="29"
       cy="42.000008"
       inkscape:label="ch_led_4"
       fill="#ff00ff"
       r="1" />
    <circle
       style="fill:#ff00ff;fill-opacity:1;stroke:#ff00ff;stroke-width:0;stroke-linecap:round;stroke-miterlimit:0;stroke-dasharray:none;stroke-opacity:1"
       id="ch_led_5"
       cx="31"
       cy="42.000008"
       inkscape:label="ch_led_5"
       fill="#ff00ff"
       r="1" />
    <circle
       style="fill:#ff00ff;fill-opacity:1;stroke:#ff00ff;stroke-width:0;stroke-linecap:round;stroke-miterlimit:0;stroke-dasharray:none;stroke-opacity:1"
       id="ch_led_6"
       cx="33"
       cy="42.000008"
       inkscape:label="ch_led_6"
       fill="#ff00ff"
       r="1" />
    <circle
       style="fill:#ff00ff;fill-opacity:1;stroke:#ff00ff;stroke-width:0;stroke-linecap:round;stroke-miterlimit:0;stroke-dasharray:none;stroke-opacity:1"
       id="ch_led_7"
       cx="35"
       cy="42.000008"
       inkscape:label="ch_led_7"
       fill="#ff00ff"
       r="1" />
    <circle
       style="fill:#ff00ff;fill-opacity:1;stroke:#ff00ff;stroke-width:0;stroke-linecap:round;stroke-miterlimit:0;stroke-dasharray:none;stroke-opacity:1"
       id="ch_led_8"
       cx="29"
       cy="44.000008"
       inkscape:label="ch_led_8"
       fill="#ff00ff"
       r="1" />
    <circle
       style="fill:#ff00ff;fill-opacity:1;stroke:#ff00ff;stroke-width:0;stroke-linecap:round;stroke-miterlimit:0;stroke-dasharray:none;stroke-opacity:1"
       id="ch_led_9"
       cx="31"
       cy="44.000008"
       inkscape:label="ch_led_9"
       fill="#ff00ff"
       r="1" />
    <circle
       style="fill:#ff00ff;fill-opacity:1;stroke:#ff00ff;stroke-width:0;stroke-linecap:round;stroke-miterlimit:0;stroke-dasharray:none;stroke-opacity:1"
       id="ch_led_10"
       cx="33"
       cy="44.000008"
       inkscape:label="ch_led_10"
       fill="#ff00ff"
       r="1" />
    <circle
       style="fill:#ff00ff;fill-opacity:1;stroke:#ff00ff;stroke-width:0;stroke-linecap:round;stroke-miterlimit:0;stroke-dasharray:none;stroke-opacity:1"
       id="ch_led_11"
       cx="35"
       cy="44.000008"
       inkscape:label="ch_led_11"
       fill="#ff00ff"
       r="1" />
    <circle
       style="fill:#ff00ff;fill-opacity:1;stroke:#ff00ff;stroke-width:0;stroke-linecap:round;stroke-miterlimit:0;stroke-dasharray:none;stroke-opacity:1"
       id="ch_led_12"
       cx="29"
       cy="46.000008"
       inkscape:label="ch_led_12"
       fill="#ff00ff"
       r="1" />
    <circle
       style="fill:#ff00ff;fill-opacity:1;stroke:#ff00ff;stroke-width:0;stroke-linecap:round;stroke-miterlimit:0;stroke-dasharray:none;stroke-opacity:1"
       id="ch_led_13"
       cx="31"
       cy="46.000008"
       inkscape:label="ch_led_13"
       fill="#ff00ff"
       r="1" />
    <circle
       style="fill:#ff00ff;fill-opacity:1;stroke:#ff00ff;stroke-width:0;stroke-linecap:round;stroke-miterlimit:0;stroke-dasharray:none;stroke-opacity:1"
       id="ch_led_14"
       cx="33"
       cy="46.000008"
       inkscape:label="ch_led_14"
       fill="#ff00ff"
       r="1" />
    <circle
       style="fill:#ff00ff;fill-opacity:1;stroke:#ff00ff;stroke-width:0;stroke-linecap:round;stroke-miterlimit:0;stroke-dasharray:none;stroke-opacity:1"
       id="ch_led_15"
       cx="35"
       cy="46.000008"
       inkscape:label="ch_led_15"
       fill="#ff00ff"
       r="1" />
    <circle
       cx="7"
       cy="16"
       fill="#00ff00"
       id="rec_in"
       style="display:inline;fill:#00ff00;fill-opacity:1;stroke:#ff0000;stroke-width:0;stroke-dasharray:none;stroke-opacity:1"
       inkscape:label="rec"
       r="0.79374987mm" />
    <circle
       cx="7"
       cy="36"
       fill="#00ff00"
       id="circle26980"
       style="display:inline;fill:#00ff00;fill-opacity:1;stroke:#ff0000;stroke-width:0;stroke-dasharray:none;stroke-opacity:1"
       inkscape:label="rec"
       r="0.79374987mm" />
  </g>
</svg>
