<?xml version="1.0" encoding="UTF-8" standalone="no"?>
<!-- Created with Inkscape (http://www.inkscape.org/) -->

<svg
   width="40.639999mm"
   height="128.5mm"
   viewBox="0 0 40.64 128.5"
   version="1.1"
   id="svg470"
   inkscape:version="1.2.2 (b0a8486, 2022-12-01)"
   sodipodi:docname="Pluck.svg"
   xmlns:inkscape="http://www.inkscape.org/namespaces/inkscape"
   xmlns:sodipodi="http://sodipodi.sourceforge.net/DTD/sodipodi-0.dtd"
   xmlns="http://www.w3.org/2000/svg"
   xmlns:svg="http://www.w3.org/2000/svg">
  <sodipodi:namedview
     id="namedview472"
     pagecolor="#ffffff"
     bordercolor="#666666"
     borderopacity="1.0"
     inkscape:pageshadow="2"
     inkscape:pageopacity="1"
     inkscape:pagecheckerboard="false"
     inkscape:document-units="mm"
     showgrid="true"
     width="40.64mm"
     inkscape:zoom="3.6"
     inkscape:cx="64.027778"
     inkscape:cy="290.69444"
     inkscape:window-width="1920"
     inkscape:window-height="1019"
     inkscape:window-x="0"
     inkscape:window-y="0"
     inkscape:window-maximized="1"
     inkscape:current-layer="layer2"
     objecttolerance="20"
     guidetolerance="10000"
     showguides="true"
     inkscape:showpageshadow="2"
     inkscape:deskcolor="#d1d1d1"
     showborder="true"
     borderlayer="false">
    <inkscape:grid
       type="xygrid"
       id="grid1902"
       units="mm"
       dotted="false"
       originx="0"
       originy="0"
       spacingx="1"
       spacingy="1"
       snapvisiblegridlinesonly="false"
       visible="true"
       empspacing="10" />
  </sodipodi:namedview>
  <defs
     id="defs467" />
  <g
     inkscape:label="panel"
     inkscape:groupmode="layer"
     id="layer1"
     style="display:inline">
    <rect
       style="display:inline;fill:#b6b6b6;fill-opacity:1;stroke-width:0;stroke-dasharray:none"
       id="rect981"
       width="40.640003"
       height="128.5"
       x="0"
       y="-5.5511151e-17" />
    <path
       style="fill:#000000;fill-opacity:1;stroke:#000000;stroke-width:0.250001;stroke-linecap:butt;stroke-linejoin:miter;stroke-dasharray:none;stroke-opacity:1"
       d="M 40.639999,90.124997 C 0,90.124997 0,90.124997 0,90.124997"
       id="path433" />
    <path
       style="display:inline;fill:#000000;fill-opacity:1;stroke-width:0.256427"
       d="m 0.020909,128.11321 c -0.01947,-0.43943 0.0037,-0.47061 0.338397,-0.45465 0.29635,0.0141 0.309141,0.0266 0.073,0.0707 -0.208021,0.0389 -0.300546,0.16322 -0.338397,0.45465 -0.05005,0.38539 -0.05291,0.38261 -0.073,-0.0707 z m 0.719441,0.18872 c 0.04399,-0.16811 0.174006,-0.28307 0.320145,-0.28307 0.135341,0 0.246076,-0.0566 0.246076,-0.12582 0,-0.0692 -0.07961,-0.1258 -0.176908,-0.1258 -0.0973,0 -0.333881,-0.14008 -0.525738,-0.31128 -0.191858,-0.17122 -0.376831,-0.31276 -0.411051,-0.31454 -0.03422,-0.002 -0.06222,-0.0315 -0.06222,-0.0661 v -0.15049 c 0,-0.0482 0.191086,0.0854 0.424635,0.29669 0.28677,0.25952 0.791418,0.49218 1.554347,0.71662 1.36393,0.40126 1.538638,0.41059 1.512834,0.0808 -0.01413,-0.18064 -0.08531,-0.23154 -0.252371,-0.18048 -0.182251,0.0557 -0.213404,0.0216 -0.143719,-0.15728 0.078,-0.20023 0.06198,-0.20727 -0.129815,-0.0571 -0.286281,0.22419 -0.63244,0.0963 -0.535887,-0.19802 0.07007,-0.21359 0.06429,-0.21383 -0.114599,-0.005 -0.240669,0.28125 -0.355568,0.27936 -0.355568,-0.006 0,-0.16456 0.0977,-0.22391 0.359306,-0.2183 0.281234,0.006 0.349685,0.0605 0.315027,0.2507 -0.03728,0.20457 -0.01285,0.21786 0.154577,0.0841 0.276681,-0.2211 0.869631,0.15451 0.869631,0.55087 0,0.4159 -0.279397,0.45839 -1.127403,0.17139 l -0.751177,-0.25422 -0.233718,0.29253 c -0.128546,0.1609 -0.235026,0.22511 -0.236624,0.1427 -0.0016,-0.0824 0.05589,-0.18482 0.127753,-0.22759 0.07186,-0.0428 0.130657,-0.12982 0.130657,-0.19344 0,-0.15436 -0.677115,0.14002 -0.875438,0.38062 -0.131328,0.1593 -0.144782,0.14422 -0.08276,-0.0928 z m 0.728455,-1.05307 c -0.395525,-0.24389 -0.419761,-0.24597 -0.341665,-0.0293 0.05169,0.1434 -0.11092,0.0512 -0.422297,-0.23948 -0.418518,-0.39067 -0.48143,-0.51071 -0.362671,-0.69194 0.127292,-0.19426 0.339562,-0.21422 1.860611,-0.17495 1.480347,0.0383 1.716928,0.0175 1.716928,-0.14984 0,-0.10679 -0.05687,-0.228 -0.126378,-0.26937 -0.06951,-0.0413 -0.09212,-0.24013 -0.05025,-0.44171 0.06512,-0.31352 0.0294,-0.37779 -0.247038,-0.44461 -0.181515,-0.0439 -0.536684,0.008 -0.810304,0.11789 -0.430836,0.17333 -0.509568,0.1744 -0.681173,0.009 -0.255249,-0.24578 -0.349892,-0.23609 -0.632668,0.0648 -0.130068,0.13838 -0.300869,0.25074 -0.379558,0.24968 -0.07869,-8e-4 -0.05488,-0.0568 0.05291,-0.12388 0.153292,-0.0954 0.119393,-0.12237 -0.15561,-0.12388 -0.193378,-8e-4 -0.387934,0.0547 -0.432347,0.12388 -0.04442,0.0692 0.02562,0.12782 0.155611,0.13026 0.18812,0.004 0.169695,0.0412 -0.09028,0.18426 -0.439855,0.24211 -0.593236,0.23375 -0.375306,-0.0204 0.139799,-0.16308 0.143325,-0.22083 0.016,-0.26211 C 0.073495,125.12815 0,125.04909 0,124.98158 c 0,-0.0675 0.05833,-0.0881 0.129622,-0.0456 0.07129,0.0424 0.225832,0.0253 0.343421,-0.0381 0.259241,-0.13969 0.01332,-0.33763 -0.283314,-0.22802 C 0.085378,124.70841 0,124.68512 0,124.6181 c 0,-0.17947 0.435307,-0.14817 0.71922,0.0517 0.183224,0.129 0.341665,0.14166 0.616955,0.0493 0.259143,-0.087 0.483396,-0.0793 0.746508,0.0257 0.284036,0.11329 0.444434,0.11479 0.655299,0.006 0.153563,-0.0791 0.467573,-0.12633 0.697802,-0.10489 0.368298,0.0343 0.419616,0.0851 0.427064,0.42217 0.0046,0.21076 0.04992,0.44777 0.100572,0.52669 0.08389,0.13071 0.01055,1.15567 -0.08961,1.25209 -0.02331,0.0224 -0.22473,-0.0204 -0.4476,-0.0952 -0.299498,-0.10053 -0.383861,-0.19094 -0.323365,-0.34654 0.07129,-0.18337 0.05341,-0.18825 -0.1386,-0.0378 -0.178145,0.13953 -0.220449,0.14095 -0.220449,0.007 0,-0.10063 -0.07503,-0.0697 -0.19183,0.0789 -0.105508,0.13433 -0.193701,0.19977 -0.195986,0.14544 -0.0023,-0.0543 -0.118886,-0.0396 -0.259111,0.0326 -0.186975,0.0964 -0.241768,0.23171 -0.2055,0.50767 0.0272,0.20695 0.03904,0.37531 0.0263,0.37415 -0.01274,-8e-4 -0.214726,-0.12025 -0.448872,-0.26463 z m 0.360394,-0.11066 c 0,-0.0692 -0.02593,-0.12581 -0.05762,-0.12581 -0.03169,0 -0.09396,0.0566 -0.138367,0.12581 -0.04441,0.0692 -0.01849,0.1258 0.05762,0.1258 0.0761,0 0.138368,-0.0566 0.138367,-0.1258 z m -0.857404,-0.57628 c 0.24641,-0.23727 0.156868,-0.43019 -0.199666,-0.43019 -0.318102,0 -0.484435,0.36246 -0.235877,0.514 0.231079,0.14089 0.194957,0.14784 0.435543,-0.0838 z m 2.817259,0.0179 c 0,-0.10335 -0.112034,-0.17276 -0.261315,-0.16194 -0.322227,0.0234 -0.341983,0.17828 -0.03266,0.25611 0.125758,0.0316 0.243349,0.0641 0.261315,0.0721 0.01797,0.008 0.03266,-0.0668 0.03266,-0.16629 z m -1.567885,-0.20994 c 0,-0.16578 -0.752876,-0.13673 -0.86199,0.0333 -0.06404,0.0998 -0.0048,0.1233 0.188273,0.0747 0.154961,-0.0391 0.281747,-0.0214 0.281747,0.0392 0,0.0605 0.08819,0.0775 0.195985,0.0376 0.107792,-0.0399 0.195985,-0.12297 0.195985,-0.18476 z m -0.609406,-0.93857 c -0.108897,-0.27324 0.167559,-0.53022 0.365441,-0.33967 0.167245,0.16103 0.06364,0.53685 -0.148005,0.53685 -0.07637,0 -0.174218,-0.0887 -0.217436,-0.19718 z m 0.176032,-0.20384 c -0.04171,-0.10036 -0.07267,-0.0706 -0.07894,0.076 -0.0057,0.13262 0.02521,0.20694 0.06862,0.16512 0.04341,-0.0418 0.04806,-0.15031 0.01031,-0.24113 z"
       id="path1561"
       sodipodi:nodetypes="ssssssssssssssssssssssssssscsssssscssssssssssscscsssssssssssssssssssssssssscscsssssssssssssssssssssssssssss"
       inkscape:label="logo" />
    <g
       aria-label="OUT"
       id="text1087"
       style="font-size:3.52778px;font-family:'\' Mono Regular';-inkscape-font-specification:'\' Mono Regular, ';text-align:center;text-anchor:middle;stroke:#000000;stroke-width:0;stroke-linecap:round;stroke-miterlimit:0"
       transform="translate(20.116671,-0.2620005)">
      <path
         d="m 4.5326926,97.765529 h 0.6949727 q 0.3915836,0.363361 0.5397503,0.543278 v 1.386417 L 5.2276653,100.2385 H 4.5326926 L 3.9999978,99.695224 v -1.386417 q 0.052917,-0.07761 0.5326948,-0.543278 z m -0.176389,0.684389 v 1.104195 l 0.3280836,0.3175 h 0.3986391 l 0.3175002,-0.3175 V 98.449918 L 5.0830263,98.121834 H 4.6843872 Z"
         id="path1384" />
      <path
         d="m 6.2260204,97.762001 h 0.3175002 l 0.021167,0.02117 v 1.770945 l 0.3139724,0.3175 h 0.41275 l 0.3139724,-0.3175 v -1.770945 l 0.021167,-0.02117 h 0.3175002 l 0.021167,0.02117 v 1.912056 L 7.4325212,100.2385 H 6.7375485 L 6.2048538,99.695224 v -1.912056 z"
         id="path1386" />
      <path
         d="m 8.4308764,97.765529 h 1.7145006 l 0.02117,0.02117 V 98.1042 l -0.02117,0.01764 H 9.4715715 v 2.09551 l -0.021167,0.0212 H 9.125849 l -0.021167,-0.0212 V 98.121834 H 8.4308764 l -0.021167,-0.01764 v -0.317501 z"
         id="path1388" />
    </g>
    <g
       aria-label="Pluck"
       id="text450"
       style="font-size:3.52777px;font-family:'\' Mono Regular';-inkscape-font-specification:'\' Mono Regular, ';text-align:center;text-anchor:middle;stroke:#000000;stroke-width:0;stroke-linecap:round;stroke-miterlimit:0"
       transform="translate(10.16)">
      <path
         d="M 5.6286666,5.0211665 H 6.881025 q 0.4162769,0.3809991 0.49036,0.4868322 V 5.94897 L 6.881025,6.4358022 H 5.9638048 v 1.0301089 l -0.021167,0.021167 H 5.6286666 L 5.6075,7.4659111 V 5.0388053 Z m 0.3351382,0.3563047 v 0.691443 H 6.7399142 L 7.0044969,5.8043314 V 5.6526373 L 6.7399142,5.3774712 Z"
         id="path694" />
      <path
         d="m 7.8899614,4.9999998 h 0.6773319 l 0.021167,0.021167 v 2.0954954 h 0.3280826 l 0.021167,0.021167 v 0.3280826 l -0.021167,0.021167 H 7.8899614 L 7.8687948,7.4659111 V 7.1378285 l 0.021167,-0.021167 H 8.218044 V 5.3704157 H 7.8899614 L 7.8687948,5.3492491 V 5.0211665 Z"
         id="path696" />
      <path
         d="m 9.3716199,5.7267205 h 0.3139716 l 0.021167,0.021167 v 1.0371644 q 0,0.024694 0.2963325,0.3351381 h 0.172861 l 0.324554,-0.3139715 v -1.058331 l 0.02117,-0.021167 h 0.313971 l 0.02117,0.021167 v 1.3617192 q 0,0.03175 0.172861,0.3668881 l -0.01058,0.010583 h -0.377472 q -0.01764,0 -0.09878,-0.1940273 h -0.01058 l -0.20461,0.1940273 H 9.83023 L 9.3504533,6.9755511 v -1.227664 z"
         id="path698" />
      <path
         d="m 11.86222,5.7161372 h 0.906637 l 0.02117,0.021167 v 0.3174993 l -0.02117,0.021167 h -0.730249 l -0.296333,0.4691934 v 0.091722 q 0,0.028222 0.296333,0.4833045 h 0.730249 l 0.02117,0.017639 V 7.465912 l -0.02117,0.021167 H 11.86222 Q 11.382443,6.7991626 11.382443,6.7497738 V 6.4534411 q 0.01411,-0.077611 0.479777,-0.7373039 z"
         id="path700" />
      <path
         d="m 13.185131,5.0105831 h 0.328082 l 0.01764,0.021167 v 1.3899414 h 0.05645 l 0.645582,-0.705554 h 0.479776 v 0.010583 l -0.80081,0.8819425 q 0.09525,0.0635 0.800804,0.8678314 v 0.010583 h -0.479776 l -0.645582,-0.705554 h -0.05645 v 0.6843874 l -0.01764,0.021167 h -0.328082 l -0.02117,-0.021167 v -2.434161 z"
         id="path702" />
    </g>
    <g
       aria-label="EXC"
       id="text688"
       style="font-size:3.52777px;font-family:'\' Mono Regular';-inkscape-font-specification:'\' Mono Regular, ';text-align:center;text-anchor:middle;stroke:#000000;stroke-width:0;stroke-linecap:round;stroke-miterlimit:0"
       transform="translate(1.5000004,-0.3000015)">
      <path
         d="m 9.0211671,97.800002 h 1.5522189 l 0.02117,0.02117 v 0.317499 l -0.02117,0.02117 H 9.359833 v 0.694971 h 1.030109 l 0.02117,0.02117 v 0.324555 l -0.02117,0.02117 H 9.359833 v 0.687915 h 1.213553 l 0.02117,0.01764 v 0.328078 l -0.02117,0.0212 H 9.0211671 l -0.021167,-0.0212 v -2.434157 z"
         id="path705" />
      <path
         d="m 11.099021,97.807058 h 0.388055 q 0.130527,0.201083 0.479777,0.867831 h 0.01058 q 0.349249,-0.666748 0.479777,-0.867831 h 0.388054 q -0.01058,0.06703 -0.673804,1.224136 0.673804,1.213556 0.673804,1.245306 H 12.45721 q -0.130528,-0.20109 -0.479777,-0.867835 h -0.01058 q -0.34925,0.666745 -0.479777,0.867835 h -0.388055 q 0.03175,-0.10231 0.663221,-1.234723 -0.624415,-1.132414 -0.663221,-1.234719 z"
         id="path707" />
      <path
         d="m 13.840094,97.80353 h 0.705554 l 0.183444,0.186972 q 0.01764,0.01058 0.123472,0.127 0.123472,0.119944 0.123472,0.126999 l 0.09525,0.09525 v 0.176389 l -0.0071,0.0071 h -0.34925 q -0.0071,-0.0035 -0.0071,-0.01411 v -0.01058 l 0.0035,-0.01058 -0.07408,-0.07408 q 0,-0.0071 -0.0071,-0.0071 0,-0.0071 -0.01411,-0.01058 0,-0.0071 -0.0071,-0.0071 0,-0.0035 -0.02469,-0.02822 l -0.03881,-0.03528 q 0,-0.01058 -0.07056,-0.08114 0,-0.0071 -0.04233,-0.04233 0,-0.0071 -0.0071,-0.0071 0,-0.0071 -0.02469,-0.02822 v -0.0035 h -0.416277 q -0.09878,0.09878 -0.09878,0.105833 -0.04233,0.03881 -0.04233,0.04233 -0.0035,0 -0.02822,0.03528 l -0.141111,0.137583 v 1.107719 l 0.310444,0.313972 h 0.416277 q 0,-0.0071 0.02469,-0.02469 0,-0.0071 0.0071,-0.0071 0,-0.01058 0.04233,-0.04233 0,-0.0071 0.07056,-0.07408 0,-0.0071 0.01058,-0.0071 0,-0.01058 0.01058,-0.01058 0,-0.0035 0.144639,-0.148167 l -0.0035,-0.01058 v -0.01058 q 0,-0.01411 0.0071,-0.01411 h 0.34925 l 0.0071,0.0035 v 0.179916 l -0.127,0.127 h -0.0071 q 0,0.0071 -0.03175,0.03528 -0.09172,0.09878 -0.09878,0.09878 v 0.0141 q -0.03175,0.0282 -0.03175,0.0318 -0.01058,0 -0.01058,0.0106 -0.0071,0 -0.05644,0.0564 -0.0071,0 -0.0071,0.007 -0.01058,0 -0.01058,0.0106 -0.0071,0 -0.03528,0.0318 l -0.05644,0.06 h -0.0071 q 0,0.0106 -0.01058,0.0106 0,0.007 -0.0388,0.0423 H 13.84715 q -0.01411,0 -0.05644,-0.0529 l -0.1905,-0.18697 q -0.03175,-0.0282 -0.03175,-0.0353 0,-0.01058 -0.05292,-0.05997 l -0.20461,-0.204611 v -1.389941 q 0,-0.01058 0.0635,-0.06703 0,-0.0071 0.0071,-0.0071 0,-0.0071 0.186972,-0.194028 0,-0.0071 0.04233,-0.04939 z"
         id="path709" />
    </g>
    <g
       aria-label="PLK"
       id="text692"
       style="font-size:3.52777px;font-family:'\' Mono Regular';-inkscape-font-specification:'\' Mono Regular, ';text-align:center;text-anchor:middle;stroke:#000000;stroke-width:0;stroke-linecap:round;stroke-miterlimit:0"
       transform="translate(1,-91.799999)">
      <path
         d="m 9.0211668,105.81059 h 1.2523582 q 0.416277,0.38099 0.49036,0.48683 v 0.44097 l -0.49036,0.48683 H 9.3563049 v 1.03011 l -0.021167,0.0212 H 9.0211668 l -0.021167,-0.0212 v -2.42711 z m 0.3351381,0.3563 v 0.69144 h 0.7761091 l 0.264583,-0.26458 v -0.15169 l -0.264583,-0.27517 z"
         id="path712" />
      <path
         d="m 11.211906,105.80353 h 0.317499 l 0.01764,0.0212 v 2.08491 h 1.20297 l 0.02117,0.0212 v 0.32455 l -0.02117,0.0212 h -1.538108 l -0.02117,-0.0212 v -2.43063 z"
         id="path714" />
      <path
         d="m 13.261538,105.8 h 0.328083 l 0.01764,0.0212 v 1.03364 h 0.215194 q 0.09878,-0.16228 0.75847,-1.05481 h 0.419805 v 0.0212 q -0.705554,0.99836 -0.871359,1.2065 l 0.871359,1.22766 v 0.0212 h -0.419805 q -0.659693,-0.89253 -0.75847,-1.05481 H 13.60726 v 1.03364 l -0.01764,0.0212 h -0.328083 l -0.02117,-0.0212 v -2.43416 z"
         id="path716" />
    </g>
    <g
       aria-label="DCY"
       id="text640"
       style="font-size:3.52777px;font-family:'\' Mono Regular';-inkscape-font-specification:'\' Mono Regular, ';text-align:center;text-anchor:middle;stroke:#000000;stroke-width:0;stroke-linecap:round;stroke-miterlimit:0"
       transform="translate(-1)">
      <path
         d="m 11.021167,54.003526 h 1.414636 q 0.356305,0.437444 0.529165,0.723193 v 1.01247 q 0,0.04939 -0.529165,0.733776 H 11.021167 L 11,56.451799 v -0.324555 l 0.02117,-0.02117 h 0.151694 V 54.359831 H 11.021167 L 11,54.338664 v -0.313971 z m 0.507999,0.356305 v 1.746246 h 0.744359 L 12.608664,55.6263 v -0.776109 q 0,-0.03881 -0.306916,-0.437443 l -0.02822,-0.05292 z"
         id="path937" />
      <path
         d="m 13.938628,53.999998 h 0.705554 l 0.183444,0.186972 q 0.01764,0.01058 0.123472,0.127 0.123472,0.119944 0.123472,0.127 l 0.09525,0.09525 v 0.176389 l -0.0071,0.0071 h -0.349249 q -0.0071,-0.0035 -0.0071,-0.01411 v -0.01058 l 0.0035,-0.01058 -0.07408,-0.07408 q 0,-0.0071 -0.0071,-0.0071 0,-0.0071 -0.01411,-0.01058 0,-0.0071 -0.0071,-0.0071 0,-0.0035 -0.02469,-0.02822 l -0.03881,-0.03528 q 0,-0.01058 -0.07056,-0.08114 0,-0.0071 -0.04233,-0.04233 0,-0.0071 -0.0071,-0.0071 0,-0.0071 -0.02469,-0.02822 v -0.0035 h -0.416277 q -0.09878,0.09878 -0.09878,0.105833 -0.04233,0.03881 -0.04233,0.04233 -0.0035,0 -0.02822,0.03528 l -0.141111,0.137583 v 1.10772 l 0.310444,0.313971 h 0.416277 q 0,-0.0071 0.02469,-0.02469 0,-0.0071 0.0071,-0.0071 0,-0.01058 0.04233,-0.04233 0,-0.0071 0.07056,-0.07408 0,-0.0071 0.01058,-0.0071 0,-0.01058 0.01058,-0.01058 0,-0.0035 0.144638,-0.148166 l -0.0035,-0.01058 V 55.7673 q 0,-0.01411 0.0071,-0.01411 h 0.349249 l 0.0071,0.0035 v 0.179916 l -0.127,0.127 h -0.0071 q 0,0.0071 -0.03175,0.03528 -0.09172,0.09878 -0.09878,0.09878 v 0.01411 q -0.03175,0.02822 -0.03175,0.03175 -0.01058,0 -0.01058,0.01058 -0.0071,0 -0.05644,0.05644 -0.0071,0 -0.0071,0.0071 -0.01058,0 -0.01058,0.01058 -0.0071,0 -0.03528,0.03175 l -0.05644,0.05997 h -0.0071 q 0,0.01058 -0.01058,0.01058 0,0.0071 -0.03881,0.04233 h -0.69497 q -0.01411,0 -0.05645,-0.05292 L 13.69874,56.233077 q -0.03175,-0.02822 -0.03175,-0.03528 0,-0.01058 -0.05292,-0.05997 l -0.20461,-0.204611 v -1.389941 q 0,-0.01058 0.0635,-0.06703 0,-0.0071 0.0071,-0.0071 0,-0.0071 0.186972,-0.194027 0,-0.0071 0.04233,-0.04939 z"
         id="path939" />
      <path
         d="m 16.012951,53.999998 q 0.02822,0 0.49036,0.959554 h 0.01058 q 0.462138,-0.959554 0.49036,-0.959554 h 0.377472 l -0.694971,1.421692 v 1.030109 l -0.02117,0.02117 H 16.35161 l -0.02117,-0.02117 v -1.01247 q 0,-0.02822 -0.705554,-1.428747 l 0.01058,-0.01058 z"
         id="path941" />
    </g>
    <g
       aria-label="POS"
       id="text698"
       style="font-size:3.52777px;font-family:'\' Mono Regular';-inkscape-font-specification:'\' Mono Regular, ';text-align:center;text-anchor:middle;stroke:#000000;stroke-width:0;stroke-linecap:round;stroke-miterlimit:0">
      <path
         d="m 30.021167,54.007054 h 1.252358 q 0.416277,0.380999 0.49036,0.486832 v 0.440972 l -0.49036,0.486832 h -0.91722 v 1.030109 l -0.02117,0.02117 H 30.021167 L 30,56.451799 v -2.427106 z m 0.335138,0.356305 v 0.691443 h 0.776109 l 0.264583,-0.264583 v -0.151694 l -0.264583,-0.275166 z"
         id="path951" />
      <path
         d="m 32.723433,53.999998 h 0.69497 q 0.391583,0.363361 0.539749,0.543277 v 1.386414 l -0.539749,0.543276 h -0.69497 l -0.532694,-0.543276 v -1.386414 q 0.05292,-0.07761 0.532694,-0.543277 z m -0.176389,0.684388 v 1.104192 l 0.328083,0.317499 h 0.398638 l 0.317499,-0.317499 v -1.104192 l -0.317499,-0.328083 h -0.398638 z"
         id="path953" />
      <path
         d="m 34.885949,54.003526 h 0.793748 q 0.479777,0.465666 0.479777,0.49036 v 0.204611 l -0.01764,0.01764 h -0.317499 q -0.02117,0 -0.02117,-0.09172 L 35.528003,54.359831 H 35.02706 l -0.264583,0.275166 v 0.155222 l 0.264583,0.264583 h 0.652637 l 0.479777,0.49036 v 0.437443 l -0.479777,0.49036 h -0.793748 l -0.49036,-0.49036 v -0.20461 l 0.02117,-0.01764 h 0.324555 q 0.02117,0 0.03175,0.09878 l 0.254,0.246944 h 0.500943 l 0.275166,-0.264583 V 55.686273 L 35.528003,55.42169 h -0.642054 l -0.49036,-0.49036 v -0.437444 z"
         id="path955" />
    </g>
    <g
       aria-label="DIR"
       id="text702"
       style="font-size:3.52777px;font-family:'\' Mono Regular';-inkscape-font-specification:'\' Mono Regular, ';text-align:center;text-anchor:middle;stroke:#000000;stroke-width:0;stroke-linecap:round;stroke-miterlimit:0">
      <path
         d="m 30.021166,34.007055 h 1.414636 q 0.356305,0.437443 0.529165,0.723193 v 1.01247 q 0,0.04939 -0.529165,0.733776 h -1.414636 l -0.02117,-0.02117 v -0.324555 l 0.02117,-0.02117 H 30.17286 V 34.36336 h -0.151694 l -0.02117,-0.02117 v -0.313972 z m 0.507999,0.356305 v 1.746246 h 0.744359 l 0.335139,-0.479777 V 34.85372 q 0,-0.03881 -0.306916,-0.437444 l -0.02822,-0.05292 z"
         id="path958" />
      <path
         d="m 32.607017,33.999999 h 1.023053 l 0.02117,0.02117 v 0.317499 l -0.02117,0.02117 h -0.338666 v 1.749774 h 0.338666 l 0.02117,0.01764 v 0.328082 l -0.02117,0.02117 h -1.023053 l -0.02117,-0.02117 v -0.328082 l 0.02117,-0.01764 h 0.328082 v -1.749774 h -0.328082 l -0.02117,-0.02117 v -0.317499 z"
         id="path960" />
      <path
         d="m 34.190981,34.007055 h 1.262941 q 0.479777,0.465665 0.479777,0.49036 v 0.437443 l -0.469193,0.49036 0.469193,1.040693 -0.0071,0.01058 h -0.370416 q -0.05292,-0.04939 -0.243416,-0.52211 l -0.254,-0.529166 h -0.52211 v 1.030109 l -0.02117,0.02117 h -0.324554 l -0.02117,-0.02117 v -2.427106 z m 0.345721,0.356305 v 0.69497 h 0.765526 l 0.275166,-0.264582 V 34.638526 L 35.302228,34.36336 Z"
         id="path962" />
    </g>
    <g
       aria-label="FRQ"
       id="text1005"
       style="font-size:3.52777px;font-family:'\' Mono Regular';-inkscape-font-specification:'\' Mono Regular, ';text-align:center;text-anchor:middle;stroke:#000000;stroke-width:0;stroke-linecap:round;stroke-miterlimit:0">
      <path
         d="m 30.021165,14.003527 h 1.548691 l 0.02117,0.02117 v 0.317499 l -0.02117,0.01764 h -1.213553 v 0.694971 h 1.040693 l 0.02117,0.02117 v 0.328083 l -0.02117,0.02117 h -1.040693 v 1.030109 l -0.01764,0.02117 h -0.3175 l -0.02117,-0.02117 v -2.430633 z"
         id="path1064" />
      <path
         d="m 32.095492,14.007055 h 1.262941 q 0.479777,0.465665 0.479777,0.49036 v 0.437443 l -0.469193,0.49036 0.469193,1.040693 -0.0071,0.01058 h -0.370416 q -0.05292,-0.04939 -0.243416,-0.52211 l -0.254,-0.529166 h -0.52211 v 1.030109 l -0.02117,0.02117 h -0.324555 l -0.02117,-0.02117 v -2.427106 z m 0.345721,0.356305 v 0.69497 h 0.765526 l 0.275166,-0.264582 V 14.638526 L 33.206739,14.36336 Z"
         id="path1066" />
      <path
         d="m 34.82951,13.999999 h 0.684387 q 0.39511,0.363361 0.543277,0.543277 v 1.093609 l -0.328083,0.328082 0.317499,0.49036 v 0.02117 H 35.637369 Q 35.471564,16.257772 35.471564,16.22955 l -0.254,0.246944 H 34.82951 l -0.543277,-0.543277 v -1.389941 q 0.112889,-0.144639 0.543277,-0.543277 z m -0.176389,0.684388 v 1.107719 l 0.317499,0.3175 h 0.102306 l 0.186972,-0.176389 -0.328083,-0.500943 v -0.02117 h 0.409221 q 0.123472,0.155222 0.172861,0.257527 L 35.697341,15.48519 V 14.684387 L 35.369258,14.359832 H 34.97062 Z"
         id="path1068" />
    </g>
    <g
       aria-label="DMP"
       id="text1001"
       style="display:inline;font-size:3.52777px;font-family:&quot;' Mono Regular&quot;;-inkscape-font-specification:&quot;' Mono Regular, &quot;;text-align:center;text-anchor:middle;stroke:#000000;stroke-width:0;stroke-linecap:round;stroke-miterlimit:0">
      <path
         d="m 10.021165,34.007055 h 1.414636 q 0.356305,0.437443 0.529166,0.723193 v 1.01247 q 0,0.04939 -0.529166,0.733776 h -1.414636 l -0.021166,-0.02117 v -0.324555 l 0.021166,-0.02117 h 0.151694 V 34.36336 H 10.021165 L 9.999999,34.34219 v -0.313972 z m 0.507999,0.356305 v 1.746246 h 0.74436 l 0.335138,-0.479777 V 34.85372 q 0,-0.03881 -0.306916,-0.437444 l -0.02822,-0.05292 z"
         id="path1057" />
      <path
         d="m 12.430628,33.999999 h 0.328082 l 0.539749,0.98072 q 0,-0.03881 0.52211,-0.98072 h 0.328083 l 0.02117,0.02117 v 2.434161 l -0.02117,0.02117 h -0.3175 l -0.02117,-0.02117 v -1.679218 h -0.0071 q -0.151694,0.335138 -0.338666,0.645582 H 13.115015 Q 12.98096,35.206497 12.776349,34.776109 h -0.0071 v 1.679218 l -0.02117,0.02117 H 12.43058 l -0.02117,-0.02117 v -2.434161 z"
         id="path1059" />
      <path
         d="m 14.642536,34.010583 h 1.252358 q 0.416277,0.380999 0.49036,0.486832 v 0.440971 l -0.49036,0.486832 h -0.91722 v 1.030109 l -0.02117,0.02117 h -0.313971 l -0.02117,-0.02117 v -2.427106 z m 0.335138,0.356304 v 0.691443 h 0.776109 l 0.264583,-0.264582 v -0.151695 l -0.264583,-0.275166 z"
         id="path1061" />
    </g>
    <g
       aria-label="LVL"
       id="text443"
       style="display:inline;font-size:3.52777px;font-family:&quot;' Mono Regular&quot;;-inkscape-font-specification:&quot;' Mono Regular, &quot;;text-align:center;text-anchor:middle;stroke:#000000;stroke-width:0;stroke-linecap:round;stroke-miterlimit:0">
      <path
         d="m 10.021166,74.000002 h 0.3175 l 0.01764,0.02117 v 2.084912 h 1.202969 l 0.02117,0.02117 v 0.324554 l -0.02117,0.02117 h -1.538108 l -0.02117,-0.02117 v -2.430633 z"
         id="path1071" />
      <path
         d="m 12.070798,74.000002 h 0.3175 l 0.01764,0.02117 v 0.927803 q 0,0.03175 0.52211,1.065387 h 0.01058 q 0.472721,-0.94897 0.511527,-1.065387 v -0.927803 l 0.02117,-0.02117 h 0.324555 l 0.02117,0.02117 v 1.01247 q -0.691443,1.43933 -0.726721,1.43933 h -0.324555 q -0.03528,0 -0.716137,-1.432275 v -1.019525 z"
         id="path1073" />
      <path
         d="m 14.275648,74.000002 h 0.317499 l 0.01764,0.02117 v 2.084912 h 1.202969 l 0.02117,0.02117 v 0.324554 l -0.02117,0.02117 h -1.538107 l -0.02117,-0.02117 v -2.430633 z"
         id="path1075" />
    </g>
  </g>
  <g
     inkscape:groupmode="layer"
     id="layer2"
     inkscape:label="components"
     style="display:none">
    <circle
       cx="13"
       cy="23"
       fill="#ff0000"
       id="level"
       style="display:inline;stroke-width:0.470371"
       inkscape:label="level"
       r="1.3229166mm" />
    <circle
       cx="6"
       cy="16"
       fill="#00ff00"
       id="pluck_in"
       style="display:inline;stroke-width:0.352777"
       r="0.79374999mm"
       inkscape:label="pluck" />
    <circle
       cx="13"
       cy="43"
       fill="#ff0000"
       id="damp"
       style="display:inline;stroke-width:0.235186"
       inkscape:label="damp"
       r="1.3229166mm" />
    <circle
       cx="6"
       cy="36"
       fill="#00ff00"
       id="damp_in"
       style="display:inline;stroke-width:0.352777"
       r="0.79374999mm"
       inkscape:label="damp" />
    <circle
       cx="13"
       cy="63"
       fill="#ff0000"
       id="decay"
       style="display:inline;stroke-width:0.235186"
       inkscape:label="decay"
       r="1.3229166mm" />
    <circle
       cx="6"
       cy="56"
       fill="#00ff00"
       id="decay_in"
       style="display:inline;stroke-width:0.352777"
       r="0.79374999mm"
       inkscape:label="decay" />
    <circle
       cx="35"
       cy="99"
       fill="#0000ff"
       id="out"
       style="display:inline;stroke-width:0.235186"
       inkscape:label="out"
       r="0.79374999mm" />
    <circle
       cx="6"
       cy="99"
       fill="#00ff00"
       id="exciter_in"
       inkscape:label="exciter"
       r="0.79374999mm" />
    <circle
       cx="33"
       cy="23"
       fill="#ff0000"
       id="freq"
       style="display:inline;stroke-width:0.470371"
       inkscape:label="freq"
       r="1.3229166mm" />
    <circle
       cx="26"
       cy="16"
       fill="#00ff00"
       id="freq_in"
       style="display:inline;stroke-width:0.352777"
       r="0.79374999mm"
       inkscape:label="freq" />
    <circle
       cx="33"
       cy="43"
       fill="#ff0000"
       id="direction"
       style="display:inline;stroke-width:0.235186"
       inkscape:label="direction"
       r="1.3229166mm" />
    <circle
       cx="26"
       cy="36"
       fill="#00ff00"
       id="direction_in"
       style="display:inline;stroke-width:0.352777"
       r="0.79374999mm"
       inkscape:label="direction" />
    <circle
       cx="33"
       cy="63"
       fill="#ff0000"
       id="position"
       style="display:inline;stroke-width:0.235186"
       inkscape:label="position"
       r="1.3229166mm" />
    <circle
       cx="26"
       cy="56"
       fill="#00ff00"
       id="position_in"
       style="display:inline;stroke-width:0.352777"
       r="0.79374999mm"
       inkscape:label="position" />
    <circle
       cx="13"
       cy="83"
       fill="#ff0000"
       id="circle385"
       style="display:inline;stroke-width:0.470371"
       inkscape:label="level"
       r="1.3229166mm" />
    <circle
       cx="6"
       cy="76"
       fill="#00ff00"
       id="level_in"
       style="display:inline;stroke-width:0.352777"
       r="0.79374999mm"
       inkscape:label="level" />
  </g>
</svg>
