<?xml version="1.0" encoding="UTF-8" standalone="no"?>
<!-- Created with Inkscape (http://www.inkscape.org/) -->

<svg
   width="60.959999mm"
   height="128.5mm"
   viewBox="0 0 60.96 128.5"
   version="1.1"
   id="svg470"
   inkscape:version="1.2.2 (732a01da63, 2022-12-09)"
   sodipodi:docname="LFSR8.svg"
   xmlns:inkscape="http://www.inkscape.org/namespaces/inkscape"
   xmlns:sodipodi="http://sodipodi.sourceforge.net/DTD/sodipodi-0.dtd"
   xmlns="http://www.w3.org/2000/svg"
   xmlns:svg="http://www.w3.org/2000/svg">
  <sodipodi:namedview
     id="namedview472"
     pagecolor="#ffffff"
     bordercolor="#666666"
     borderopacity="1.0"
     inkscape:pageshadow="2"
     inkscape:pageopacity="1"
     inkscape:pagecheckerboard="false"
     inkscape:document-units="mm"
     showgrid="true"
     width="40.64mm"
     inkscape:zoom="4.0000001"
     inkscape:cx="143"
     inkscape:cy="390.74999"
     inkscape:window-width="1920"
     inkscape:window-height="1009"
     inkscape:window-x="-8"
     inkscape:window-y="-8"
     inkscape:window-maximized="1"
     inkscape:current-layer="layer1"
     objecttolerance="20"
     guidetolerance="10000"
     showguides="true"
     inkscape:showpageshadow="false"
     inkscape:deskcolor="#d1d1d1"
     showborder="true">
    <inkscape:grid
       type="xygrid"
       id="grid1902"
       units="mm"
       dotted="false"
       originx="0"
       originy="0"
       spacingx="1"
       spacingy="1"
       snapvisiblegridlinesonly="false"
       visible="true"
       empspacing="10" />
  </sodipodi:namedview>
  <defs
     id="defs467" />
  <g
     inkscape:label="panel"
     inkscape:groupmode="layer"
     id="layer1"
     style="display:inline">
    <path
       id="rect981"
       style="display:inline;fill:#e8e5e0;stroke-width:0.324046"
       d="M 0,0 H 60.959999 V 128.5 H 0 Z" />
    <path
       id="path799"
       style="display:inline;fill:#666666;stroke-width:0"
       d="m 45,60 h 10 v 45 H 45 Z" />
    <path
       id="rect8443"
       style="display:inline;fill:#666666;stroke-width:0"
       d="m 35,20 h 10 v 85 H 35 Z" />
    <path
       style="display:inline;fill:#666666;stroke-width:0.256427;fill-opacity:1"
       d="m 26.521818,127.22687 c -0.03895,-0.87892 0.0074,-0.94127 0.676794,-0.90935 0.592699,0.0282 0.618282,0.0531 0.146007,0.14137 -0.416041,0.0778 -0.601093,0.32647 -0.676794,0.90936 -0.100103,0.77081 -0.105827,0.76526 -0.146007,-0.14138 z m 1.438882,0.37746 c 0.08798,-0.33624 0.348012,-0.56618 0.640289,-0.56618 0.270683,0 0.492152,-0.11324 0.492152,-0.25164 0,-0.13839 -0.159216,-0.25163 -0.353815,-0.25163 -0.194598,0 -0.667762,-0.28018 -1.051477,-0.62261 -0.383715,-0.34245 -0.753661,-0.62554 -0.822101,-0.62909 -0.06844,-0.004 -0.124436,-0.063 -0.124436,-0.13228 v -0.301 c 0,-0.0963 0.382172,0.1707 0.849271,0.59342 0.57354,0.51907 1.582834,0.98443 3.108693,1.43334 2.72786,0.80257 3.077277,0.82123 3.025669,0.16152 -0.02826,-0.36128 -0.170622,-0.4631 -0.504743,-0.36099 -0.364501,0.11141 -0.426807,0.0432 -0.287438,-0.31458 0.155991,-0.40047 0.12397,-0.41455 -0.25963,-0.11412 -0.572561,0.44842 -1.26488,0.19257 -1.071773,-0.39607 0.140142,-0.42721 0.128587,-0.42768 -0.229199,-0.01 -0.481338,0.56255 -0.711137,0.55877 -0.711137,-0.0117 0,-0.32913 0.195394,-0.44784 0.718613,-0.4366 0.562469,0.0121 0.699371,0.12104 0.630055,0.50142 -0.07456,0.40915 -0.02569,0.43574 0.309153,0.16814 0.553362,-0.44223 1.739262,0.30903 1.739262,1.10182 0,0.83186 -0.558794,0.91682 -2.254806,0.3428 l -1.502355,-0.50848 -0.467435,0.5851 c -0.257093,0.32181 -0.470052,0.45024 -0.473248,0.28541 -0.0032,-0.16484 0.111783,-0.36967 0.255505,-0.45521 0.143723,-0.0855 0.261315,-0.25965 0.261315,-0.38691 0,-0.30875 -1.354231,0.28008 -1.750875,0.76129 -0.262658,0.31865 -0.289564,0.28847 -0.165509,-0.18566 z m 1.45691,-2.10626 c -0.791051,-0.48781 -0.839522,-0.49198 -0.683331,-0.0587 0.10338,0.28681 -0.22184,0.10236 -0.844592,-0.47901 -0.837037,-0.7814 -0.962861,-1.02148 -0.725342,-1.38398 0.254583,-0.38854 0.679124,-0.42846 3.721221,-0.34992 2.960695,0.0765 3.433856,0.0351 3.433856,-0.29969 0,-0.21359 -0.113739,-0.45604 -0.252756,-0.53877 -0.139014,-0.0827 -0.184242,-0.4803 -0.100502,-0.88348 0.130239,-0.62708 0.0588,-0.75565 -0.494075,-0.88927 -0.36303,-0.0878 -1.073369,0.0156 -1.620608,0.23579 -0.861674,0.34669 -1.019137,0.34881 -1.362348,0.0184 -0.510498,-0.49159 -0.699783,-0.4722 -1.265335,0.12958 -0.260136,0.27679 -0.601738,0.50153 -0.759116,0.4994 -0.157378,-0.002 -0.109755,-0.11362 0.105829,-0.24777 0.306583,-0.19079 0.238785,-0.24477 -0.31122,-0.24778 -0.386756,-0.002 -0.775869,0.10938 -0.864694,0.24778 -0.08883,0.13839 0.05123,0.25564 0.311221,0.26055 0.376242,0.007 0.33939,0.0824 -0.180563,0.36853 -0.87971,0.48425 -1.186472,0.46753 -0.750611,-0.0409 0.279598,-0.32617 0.286649,-0.4417 0.032,-0.52424 C 26.62699,121.25639 26.48,121.09825 26.48,120.96321 c 0,-0.13503 0.116661,-0.17609 0.259245,-0.0912 0.142585,0.0848 0.451664,0.0506 0.686842,-0.0762 0.518482,-0.2794 0.02663,-0.6753 -0.566629,-0.45607 -0.208701,0.0771 -0.379458,0.0305 -0.379458,-0.10353 0,-0.35898 0.870615,-0.29636 1.438441,0.10346 0.366447,0.25802 0.683328,0.28332 1.233908,0.0985 0.518286,-0.17398 0.966792,-0.15855 1.493017,0.0514 0.568072,0.22659 0.888868,0.22958 1.310597,0.0123 0.307127,-0.15829 0.935148,-0.25269 1.395606,-0.20981 0.736595,0.0686 0.839232,0.17009 0.854127,0.84442 0.0093,0.42153 0.09983,0.89558 0.201144,1.05345 0.167782,0.26142 0.02109,2.31147 -0.179214,2.50433 -0.04662,0.0449 -0.449461,-0.0408 -0.8952,-0.19042 -0.598997,-0.20107 -0.767722,-0.3819 -0.646731,-0.69311 0.142584,-0.36677 0.106828,-0.37654 -0.2772,-0.0757 -0.35629,0.27908 -0.440897,0.28192 -0.440897,0.0148 0,-0.20126 -0.150057,-0.1395 -0.383661,0.15791 -0.211015,0.26866 -0.387401,0.39955 -0.391972,0.29088 -0.0045,-0.10868 -0.237772,-0.0793 -0.518222,0.0652 -0.37395,0.19273 -0.483536,0.46345 -0.411,1.01539 0.0544,0.41392 0.07807,0.75069 0.05261,0.74836 -0.02548,-0.002 -0.429452,-0.24052 -0.897744,-0.52931 z m 0.720788,-0.22135 c 0,-0.1384 -0.05186,-0.25163 -0.115237,-0.25163 -0.06338,0 -0.187911,0.11323 -0.276735,0.25163 -0.08883,0.13839 -0.03697,0.25163 0.115235,0.25163 0.152205,0 0.276737,-0.11324 0.276737,-0.25163 z m -1.714807,-1.15264 c 0.492818,-0.47456 0.313735,-0.86042 -0.399332,-0.86042 -0.636205,0 -0.96887,0.72496 -0.471754,1.02807 0.462158,0.28179 0.389914,0.2957 0.871086,-0.16765 z m 5.634517,0.0359 c 0,-0.20669 -0.224067,-0.34555 -0.522629,-0.3239 -0.644455,0.0467 -0.683967,0.35658 -0.06533,0.51226 0.251515,0.0633 0.486698,0.12821 0.522629,0.14427 0.03593,0.0161 0.06533,-0.13363 0.06533,-0.33263 z m -3.13577,-0.42001 c 0,-0.33158 -1.505753,-0.27346 -1.723981,0.0666 -0.128085,0.19957 -0.0096,0.2466 0.376547,0.14938 0.309922,-0.0781 0.563494,-0.0428 0.563494,0.0783 0,0.1211 0.176386,0.155 0.39197,0.0753 0.215584,-0.0797 0.39197,-0.24596 0.39197,-0.36956 z m -1.218812,-1.87724 c -0.217794,-0.54653 0.335118,-1.06051 0.730882,-0.6794 0.33449,0.32209 0.127273,1.07377 -0.29601,1.07377 -0.152746,0 -0.348436,-0.17747 -0.434872,-0.39437 z m 0.352064,-0.40771 c -0.08342,-0.20073 -0.145338,-0.14111 -0.157878,0.15203 -0.01134,0.26526 0.05042,0.41388 0.137247,0.33026 0.08683,-0.0836 0.09612,-0.30064 0.02062,-0.48229 z"
       id="path1561"
       sodipodi:nodetypes="ssssssssssssssssssssssssssscsssssscssssssssssscscsssssssssssssssssssssssssscscsssssssssssssssssssssssssssss" />
    <text
       xml:space="preserve"
       style="font-size:2.82223px;line-height:1.25;font-family:Ubuntu;-inkscape-font-specification:Ubuntu;stroke-width:0.264583"
       x="11"
       y="35"
       id="text14295"><tspan
         sodipodi:role="line"
         id="tspan14293"
         style="stroke-width:0.264583"
         x="11"
         y="35" /></text>
    <text
       xml:space="preserve"
       style="font-style:normal;font-variant:normal;font-weight:normal;font-stretch:normal;font-size:4.23333px;font-family:'Ubuntu Mono';-inkscape-font-specification:'Ubuntu Mono';fill:#666666;fill-opacity:1;stroke-width:0;stroke-dasharray:none"
       x="-57.282291"
       y="14.948958"
       id="text11765"><tspan
         sodipodi:role="line"
         id="tspan11763"
         style="stroke-width:0"
         x="-57.282291"
         y="14.948958" /></text>
    <g
       aria-label="&lt;"
       id="text11769"
       style="font-size:5.64444px;font-family:'Ubuntu Mono';-inkscape-font-specification:'Ubuntu Mono';fill:#666666;fill-opacity:1;stroke-width:0" />
    <path
       sodipodi:type="star"
       style="fill:#666666;fill-opacity:1;stroke-width:0;stroke-dasharray:none"
       id="path14205"
       inkscape:flatsided="true"
       sodipodi:sides="3"
       sodipodi:cx="23.878647"
       sodipodi:cy="27.847395"
       sodipodi:r1="1.4790658"
       sodipodi:r2="0.73953289"
       sodipodi:arg1="-1.1071487"
       sodipodi:arg2="-0.059951167"
       inkscape:rounded="0"
       inkscape:randomized="0"
       d="m 24.540105,26.524478 0.153492,2.557215 -2.291359,-1.145679 z"
       inkscape:transform-center-x="0.32993598"
       inkscape:transform-center-y="0.0025546629"
       transform="matrix(0.89731892,0.05022402,-0.05784592,0.77908634,5.5299951,2.1026385)" />
    <path
       sodipodi:type="star"
       style="fill:#666666;fill-opacity:1;stroke-width:0;stroke-dasharray:none"
       id="path14270"
       inkscape:flatsided="true"
       sodipodi:sides="3"
       sodipodi:cx="23.878647"
       sodipodi:cy="27.847395"
       sodipodi:r1="1.4790658"
       sodipodi:r2="0.73953289"
       sodipodi:arg1="-1.1071487"
       sodipodi:arg2="-0.059951167"
       inkscape:rounded="0"
       inkscape:randomized="0"
       d="m 24.540105,26.524478 0.153492,2.557215 -2.291359,-1.145679 z"
       inkscape:transform-center-x="0.32993598"
       inkscape:transform-center-y="0.0025546629"
       transform="matrix(0.89731892,0.05022402,-0.05784592,0.77908634,5.5140322,12.102639)" />
    <path
       sodipodi:type="star"
       style="fill:#666666;fill-opacity:1;stroke-width:0;stroke-dasharray:none"
       id="path14272"
       inkscape:flatsided="true"
       sodipodi:sides="3"
       sodipodi:cx="23.878647"
       sodipodi:cy="27.847395"
       sodipodi:r1="1.4790658"
       sodipodi:r2="0.73953289"
       sodipodi:arg1="-1.1071487"
       sodipodi:arg2="-0.059951167"
       inkscape:rounded="0"
       inkscape:randomized="0"
       d="m 24.540105,26.524478 0.153492,2.557215 -2.291359,-1.145679 z"
       inkscape:transform-center-x="0.32993598"
       inkscape:transform-center-y="0.0025546629"
       transform="matrix(0.89731892,0.05022402,-0.05784592,0.77908634,5.5140322,22.102639)" />
    <path
       sodipodi:type="star"
       style="fill:#666666;fill-opacity:1;stroke-width:0;stroke-dasharray:none"
       id="path14274"
       inkscape:flatsided="true"
       sodipodi:sides="3"
       sodipodi:cx="23.878647"
       sodipodi:cy="27.847395"
       sodipodi:r1="1.4790658"
       sodipodi:r2="0.73953289"
       sodipodi:arg1="-1.1071487"
       sodipodi:arg2="-0.059951167"
       inkscape:rounded="0"
       inkscape:randomized="0"
       d="m 24.540105,26.524478 0.153492,2.557215 -2.291359,-1.145679 z"
       inkscape:transform-center-x="0.32993598"
       inkscape:transform-center-y="0.0025546629"
       transform="matrix(0.89731892,0.05022402,-0.05784592,0.77908634,5.5140322,32.102639)" />
    <path
       sodipodi:type="star"
       style="fill:#666666;fill-opacity:1;stroke-width:0;stroke-dasharray:none"
       id="path14276"
       inkscape:flatsided="true"
       sodipodi:sides="3"
       sodipodi:cx="23.878647"
       sodipodi:cy="27.847395"
       sodipodi:r1="1.4790658"
       sodipodi:r2="0.73953289"
       sodipodi:arg1="-1.1071487"
       sodipodi:arg2="-0.059951167"
       inkscape:rounded="0"
       inkscape:randomized="0"
       d="m 24.540105,26.524478 0.153492,2.557215 -2.291359,-1.145679 z"
       inkscape:transform-center-x="0.32993598"
       inkscape:transform-center-y="0.0025546629"
       transform="matrix(0.89731892,0.05022402,-0.05784592,0.77908634,5.5140322,42.102639)" />
    <path
       sodipodi:type="star"
       style="fill:#666666;fill-opacity:1;stroke-width:0;stroke-dasharray:none"
       id="path14278"
       inkscape:flatsided="true"
       sodipodi:sides="3"
       sodipodi:cx="23.878647"
       sodipodi:cy="27.847395"
       sodipodi:r1="1.4790658"
       sodipodi:r2="0.73953289"
       sodipodi:arg1="-1.1071487"
       sodipodi:arg2="-0.059951167"
       inkscape:rounded="0"
       inkscape:randomized="0"
       d="m 24.540105,26.524478 0.153492,2.557215 -2.291359,-1.145679 z"
       inkscape:transform-center-x="0.32993598"
       inkscape:transform-center-y="0.0025546629"
       transform="matrix(0.89731892,0.05022402,-0.05784592,0.77908634,5.5140322,52.102639)" />
    <path
       sodipodi:type="star"
       style="fill:#666666;fill-opacity:1;stroke-width:0;stroke-dasharray:none"
       id="path14280"
       inkscape:flatsided="true"
       sodipodi:sides="3"
       sodipodi:cx="23.878647"
       sodipodi:cy="27.847395"
       sodipodi:r1="1.4790658"
       sodipodi:r2="0.73953289"
       sodipodi:arg1="-1.1071487"
       sodipodi:arg2="-0.059951167"
       inkscape:rounded="0"
       inkscape:randomized="0"
       d="m 24.540105,26.524478 0.153492,2.557215 -2.291359,-1.145679 z"
       inkscape:transform-center-x="0.32993598"
       inkscape:transform-center-y="0.0025546629"
       transform="matrix(0.89731892,0.05022402,-0.05784592,0.77908634,5.5140322,62.102639)" />
    <path
       sodipodi:type="star"
       style="fill:#666666;fill-opacity:1;stroke-width:0;stroke-dasharray:none"
       id="path14282"
       inkscape:flatsided="true"
       sodipodi:sides="3"
       sodipodi:cx="23.878647"
       sodipodi:cy="27.847395"
       sodipodi:r1="1.4790658"
       sodipodi:r2="0.73953289"
       sodipodi:arg1="-1.1071487"
       sodipodi:arg2="-0.059951167"
       inkscape:rounded="0"
       inkscape:randomized="0"
       d="m 24.540105,26.524478 0.153492,2.557215 -2.291359,-1.145679 z"
       inkscape:transform-center-x="0.32993598"
       inkscape:transform-center-y="0.0025546629"
       transform="matrix(0.89731892,0.05022402,-0.05784592,0.77908634,5.5140322,72.102639)" />
    <path
       sodipodi:type="star"
       style="fill:#666666;fill-opacity:1;stroke-width:0;stroke-dasharray:none"
       id="path14284"
       inkscape:flatsided="true"
       sodipodi:sides="3"
       sodipodi:cx="23.878647"
       sodipodi:cy="27.847395"
       sodipodi:r1="1.4790658"
       sodipodi:r2="0.73953289"
       sodipodi:arg1="-1.1071487"
       sodipodi:arg2="-0.059951167"
       inkscape:rounded="0"
       inkscape:randomized="0"
       d="m 24.540105,26.524478 0.153492,2.557215 -2.291359,-1.145679 z"
       inkscape:transform-center-x="0.32993598"
       inkscape:transform-center-y="0.0025546629"
       transform="matrix(0.89731892,0.05022402,-0.05784592,0.77908634,5.5140322,82.102639)" />
    <g
       aria-label="V/OCT"
       id="text370"
       style="font-size:5.64444px;font-family:'Ubuntu Mono';-inkscape-font-specification:'Ubuntu Mono';fill:#e8e5e0;stroke-width:0"
       transform="matrix(0.50002081,0,0,0.50002081,27.498978,91.807424)">
      <path
         d="m 38.593357,16.451555 q 0.06773,0.355599 0.169333,0.778932 0.107244,0.417689 0.220133,0.841022 0.118533,0.417689 0.237067,0.801511 0.118533,0.383821 0.220133,0.671688 0.09031,-0.287867 0.208844,-0.677333 0.124178,-0.389466 0.242711,-0.807155 0.118533,-0.423333 0.220133,-0.841021 0.107245,-0.417689 0.174978,-0.767644 h 0.485422 q -0.04516,0.225777 -0.146756,0.609599 -0.1016,0.378178 -0.242711,0.852311 -0.141111,0.468488 -0.316088,0.999066 -0.169334,0.524933 -0.3556,1.032932 h -0.575733 q -0.174978,-0.507999 -0.344311,-1.032932 -0.163689,-0.524933 -0.3048,-0.993422 -0.141111,-0.474133 -0.24271,-0.857955 -0.1016,-0.383822 -0.1524,-0.609599 z"
         id="path892" />
      <path
         d="M 41.709088,20.876796 H 41.22931 l 1.574799,-4.876797 h 0.468489 z"
         id="path894" />
      <path
         d="m 43.825753,18.195687 q 0,-0.468489 0.09031,-0.8128 0.09031,-0.344311 0.254,-0.564444 0.163688,-0.225777 0.389466,-0.333022 0.231422,-0.112888 0.513644,-0.112888 0.276578,0 0.508,0.112888 0.231422,0.107245 0.395111,0.333022 0.163688,0.220133 0.253999,0.564444 0.09596,0.344311 0.09596,0.8128 0,0.468488 -0.09596,0.812799 -0.09031,0.344311 -0.253999,0.570089 -0.163689,0.225777 -0.395111,0.333022 -0.231422,0.107244 -0.508,0.107244 -0.282222,0 -0.513644,-0.107244 -0.225778,-0.107245 -0.389466,-0.333022 -0.163689,-0.225778 -0.254,-0.570089 -0.09031,-0.344311 -0.09031,-0.812799 z m 0.474133,0 q 0,0.688621 0.186266,1.05551 0.186267,0.366889 0.575733,0.366889 0.395111,0 0.592666,-0.366889 0.197556,-0.366889 0.197556,-1.05551 0,-0.688622 -0.197556,-1.055511 -0.197555,-0.366888 -0.592666,-0.366888 -0.389466,0 -0.575733,0.366888 -0.186266,0.366889 -0.186266,1.055511 z"
         id="path896" />
      <path
         d="m 49.080727,19.798708 q -0.197556,0.112889 -0.423333,0.163689 -0.220133,0.05644 -0.474133,0.05644 -0.310444,0 -0.575733,-0.107244 -0.259644,-0.112889 -0.451555,-0.333022 -0.191911,-0.225778 -0.3048,-0.570089 -0.107244,-0.344311 -0.107244,-0.812799 0,-0.445911 0.112888,-0.784577 0.118534,-0.338667 0.316089,-0.570089 0.197556,-0.231422 0.462844,-0.349955 0.265289,-0.118533 0.564444,-0.118533 0.208845,0 0.423333,0.05644 0.220133,0.05644 0.428978,0.186266 l -0.135467,0.383822 q -0.372533,-0.214488 -0.69991,-0.214488 -0.231423,0 -0.417689,0.1016 -0.180622,0.09596 -0.310444,0.282222 -0.129822,0.186266 -0.2032,0.44591 -0.06773,0.259645 -0.06773,0.581378 0,0.361244 0.07338,0.626533 0.07902,0.265288 0.214489,0.440266 0.135467,0.174978 0.321733,0.259644 0.191911,0.08467 0.412044,0.08467 0.163689,0 0.344311,-0.03951 0.180622,-0.04516 0.372533,-0.1524 z"
         id="path898" />
      <path
         d="m 51.908591,16.451555 v 0.395111 h -0.959555 v 3.098797 h -0.462844 v -3.098797 h -0.959555 v -0.395111 z"
         id="path900" />
    </g>
    <g
       aria-label="GATE"
       id="text806"
       style="font-size:5.64444px;font-family:'Ubuntu Mono';-inkscape-font-specification:'Ubuntu Mono';fill:#e8e5e0;stroke-width:0"
       transform="matrix(0.49995735,0,0,0.49995735,17.502201,49.963275)">
      <path
         d="m 41.444232,101.85138 h 0.462844 v 1.63688 q -0.107244,0.0395 -0.344311,0.096 -0.237066,0.0621 -0.558799,0.0621 -0.316089,0 -0.575733,-0.11854 -0.259645,-0.12417 -0.445911,-0.3556 -0.180622,-0.23142 -0.282222,-0.57008 -0.1016,-0.34432 -0.1016,-0.77894 0,-0.44026 0.112889,-0.77893 0.112889,-0.33867 0.3048,-0.57009 0.197555,-0.23142 0.457199,-0.34995 0.259644,-0.12418 0.5588,-0.12418 0.191911,0 0.338666,0.0282 0.146756,0.0282 0.248356,0.0677 0.107244,0.0395 0.174977,0.0847 0.06773,0.0395 0.1016,0.0621 l -0.1524,0.38947 q -0.129822,-0.1016 -0.310444,-0.16369 -0.174978,-0.0677 -0.372533,-0.0677 -0.214489,0 -0.400755,0.1016 -0.180622,0.1016 -0.310444,0.28787 -0.129823,0.18627 -0.2032,0.45156 -0.07338,0.25964 -0.07338,0.58137 0,0.31609 0.06209,0.57574 0.06773,0.25964 0.191911,0.44591 0.124177,0.18626 0.3048,0.29351 0.186266,0.1016 0.423333,0.1016 0.163688,0 0.253999,-0.0226 0.09031,-0.0226 0.135467,-0.0452 z"
         id="path903" />
      <path
         d="m 44.44143,103.57293 -0.208845,-0.9144 h -1.343376 l -0.2032,0.9144 h -0.474133 q 0.09596,-0.37253 0.214489,-0.80716 0.118533,-0.43462 0.253999,-0.89182 0.141111,-0.4572 0.293511,-0.9144 0.1524,-0.46284 0.321733,-0.88053 h 0.575733 q 0.163689,0.41769 0.310444,0.88053 0.1524,0.4572 0.282222,0.9144 0.135467,0.4572 0.254,0.89182 0.118533,0.43463 0.214489,0.80716 z m -0.874889,-3.08751 q -0.129822,0.3556 -0.282222,0.82409 -0.152399,0.46849 -0.287866,0.9652 h 1.128888 q -0.129822,-0.508 -0.282222,-0.97649 -0.146755,-0.47413 -0.276578,-0.8128 z"
         id="path905" />
      <path
         d="m 47.585383,100.07902 v 0.39511 h -0.959555 v 3.0988 h -0.462844 v -3.0988 h -0.959555 v -0.39511 z"
         id="path907" />
      <path
         d="m 48.31916,103.57293 v -3.49391 h 1.958621 v 0.39511 h -1.495777 v 1.07245 h 1.309511 v 0.39511 h -1.309511 v 1.23613 h 1.619955 v 0.39511 z"
         id="path909" />
    </g>
    <g
       aria-label="not"
       id="text19477"
       style="font-size:5.64444px;font-family:'Ubuntu Condensed';-inkscape-font-specification:'Ubuntu Condensed, ';fill:#666666;stroke-width:0"
       transform="translate(0,2.0574922)">
      <path
         d="m 21.6895,108.96519 q 0.208844,-0.0621 0.451555,-0.1016 0.242711,-0.0452 0.445911,-0.0452 0.220133,0 0.400755,0.0621 0.180622,0.0564 0.3048,0.19755 0.129822,0.14111 0.197555,0.38382 0.07338,0.23707 0.07338,0.59267 v 1.78929 h -0.485422 v -1.74978 q 0,-0.44027 -0.112889,-0.64347 -0.112889,-0.2032 -0.423333,-0.2032 -0.163689,0 -0.366889,0.0564 v 2.54 H 21.6895 Z"
         id="path20301" />
      <path
         d="m 26.312298,110.36501 q 0,0.34996 -0.06209,0.63783 -0.06209,0.28222 -0.191911,0.48542 -0.124178,0.2032 -0.321733,0.31609 -0.191911,0.11288 -0.4572,0.11288 -0.265288,0 -0.462844,-0.11288 -0.197555,-0.11289 -0.327377,-0.31609 -0.124178,-0.2032 -0.186267,-0.48542 -0.06209,-0.28787 -0.06209,-0.63783 0,-0.34431 0.06209,-0.63217 0.06209,-0.28787 0.186267,-0.49107 0.129822,-0.20884 0.327377,-0.32173 0.197556,-0.11289 0.462844,-0.11289 0.265289,0 0.4572,0.11289 0.197555,0.11289 0.321733,0.32173 0.129822,0.2032 0.191911,0.49107 0.06209,0.28786 0.06209,0.63217 z m -0.508,0 q 0,-0.24835 -0.02822,-0.45155 -0.02822,-0.20885 -0.09031,-0.3556 -0.06209,-0.1524 -0.163689,-0.23142 -0.1016,-0.0847 -0.242711,-0.0847 -0.146755,0 -0.248355,0.0847 -0.09596,0.079 -0.163689,0.23142 -0.06209,0.14675 -0.09031,0.3556 -0.02822,0.2032 -0.02822,0.45155 0,0.24836 0.02822,0.4572 0.02822,0.2032 0.09031,0.34996 0.06773,0.14675 0.163689,0.23142 0.1016,0.079 0.248355,0.079 0.141111,0 0.242711,-0.079 0.1016,-0.0847 0.163689,-0.23142 0.06209,-0.14676 0.09031,-0.34996 0.02822,-0.20884 0.02822,-0.4572 z"
         id="path20303" />
      <path
         d="m 27.475049,108.88053 h 0.745066 v 0.41768 h -0.745066 v 1.63125 q 0,0.3048 0.107244,0.42897 0.112889,0.11854 0.299155,0.11854 0.09596,0 0.180622,-0.0282 0.09031,-0.0282 0.1524,-0.0677 l 0.09596,0.38947 q -0.231422,0.13547 -0.491066,0.13547 -0.417689,0 -0.626533,-0.23143 -0.2032,-0.23706 -0.2032,-0.77893 v -2.81093 l 0.485422,-0.0847 z"
         id="path20305" />
    </g>
    <g
       aria-label="LEN"
       id="text29747"
       style="font-size:5.64444px;font-family:'Ubuntu Condensed';-inkscape-font-specification:'Ubuntu Condensed, ';display:inline;fill:#666666;stroke:#ffffff;stroke-width:0"
       transform="translate(0,1.0583333)">
      <path
         d="m 8.1146321,112.40226 v 0.43462 H 6.3705 v -3.91159 h 0.5079997 v 3.47697 z"
         id="path30628" />
      <path
         d="m 8.7242305,112.83688 v -3.91159 h 1.7554205 v 0.43462 H 9.2322301 v 1.21355 h 1.1288879 v 0.42334 H 9.2322301 v 1.40546 h 1.3377319 v 0.43462 z"
         id="path30630" />
      <path
         d="m 13.217201,112.83688 q -0.135467,-0.33302 -0.310444,-0.71684 -0.169333,-0.38947 -0.361244,-0.77893 -0.186267,-0.39511 -0.383822,-0.77894 -0.197556,-0.38946 -0.389467,-0.72248 v 2.99719 h -0.474133 v -3.91159 h 0.423333 q 0.214489,0.34995 0.412045,0.71684 0.203199,0.36689 0.383821,0.72813 0.180623,0.3556 0.338667,0.70556 0.163689,0.34431 0.299155,0.65475 v -2.80528 h 0.474133 v 3.91159 z"
         id="path30632" />
    </g>
    <g
       aria-label="LFSR8"
       id="text550"
       style="font-size:5.64444px;font-family:'Ubuntu Condensed';-inkscape-font-specification:'Ubuntu Condensed, ';fill:#020000;stroke:#ffffff;stroke-width:0">
      <path
         d="M 26.424632,7.5672864 V 8.0019083 H 24.6805 v -3.911597 h 0.508 v 3.4769751 z"
         id="path591" />
      <path
         d="m 27.034231,8.0019083 v -3.911597 h 1.755421 v 0.4346219 h -1.247421 v 1.2304879 h 1.10631 v 0.423333 h -1.10631 v 1.8231542 z"
         id="path593" />
      <path
         d="m 29.924188,7.651953 q 0.3048,0 0.468488,-0.1693332 0.169334,-0.1693332 0.169334,-0.4571996 0,-0.1523999 -0.0508,-0.2709332 Q 30.46041,6.6359538 30.375743,6.5399983 30.296721,6.4440428 30.189477,6.3650207 30.082232,6.2859985 29.969343,6.2069763 29.839521,6.1166653 29.69841,6.0150654 29.557299,5.9134654 29.438766,5.7779989 29.325877,5.6425323 29.252499,5.4619102 q -0.07338,-0.1806221 -0.07338,-0.423333 0,-0.2370665 0.07902,-0.4289774 0.08467,-0.191911 0.225777,-0.3273776 0.146756,-0.1354665 0.344311,-0.2088443 0.2032,-0.073378 0.434622,-0.073378 0.225778,0 0.417689,0.056444 0.191911,0.056444 0.321733,0.1354666 l -0.158044,0.4007552 q -0.118534,-0.079022 -0.259645,-0.1185332 -0.135466,-0.045155 -0.287866,-0.045155 -0.276578,0 -0.445911,0.1523999 -0.163689,0.1467554 -0.163689,0.4346219 0,0.1580443 0.0508,0.2765775 0.05645,0.1185333 0.141111,0.2144887 0.09031,0.095955 0.2032,0.1749777 0.118533,0.079022 0.248356,0.1636888 0.129822,0.084667 0.265288,0.1862665 0.135467,0.1015999 0.242711,0.2370665 0.112889,0.1298221 0.180622,0.3104442 0.07338,0.1749776 0.07338,0.4176886 0,0.2201331 -0.06773,0.4176885 -0.06773,0.1975554 -0.214489,0.3499553 -0.141111,0.1467555 -0.361244,0.2370665 -0.214489,0.084667 -0.508,0.084667 -0.270933,0 -0.474133,-0.062089 -0.2032,-0.062089 -0.361244,-0.1636888 l 0.158044,-0.4063997 q 0.146756,0.090311 0.299156,0.1467554 0.158044,0.0508 0.361244,0.0508 z"
         id="path595" />
      <path
         d="m 31.696539,4.1467557 q 0.395111,-0.095955 0.762,-0.095955 0.293511,0 0.530577,0.067733 0.237067,0.067733 0.4064,0.2144887 0.169333,0.1467554 0.259644,0.3781775 0.09596,0.231422 0.09596,0.5587996 0,0.4063997 -0.158045,0.6603995 -0.1524,0.2483553 -0.417688,0.3781775 0.06773,0.1128888 0.169333,0.3104442 0.107244,0.1919109 0.214489,0.4289774 0.112888,0.2314221 0.214488,0.4797774 0.107245,0.2483554 0.180622,0.474133 H 33.44632 q -0.06209,-0.1693332 -0.158045,-0.3838219 -0.09031,-0.2144888 -0.19191,-0.423333 -0.1016,-0.2144888 -0.2032,-0.4063997 -0.1016,-0.1975554 -0.180622,-0.333022 -0.09031,0.011289 -0.186267,0.016933 -0.09595,0.00564 -0.191911,0.00564 H 32.19325 v 1.5239988 h -0.496711 z m 0.496711,1.9134652 h 0.214489 q 0.389466,0 0.59831,-0.1749777 0.208845,-0.180622 0.208845,-0.6152439 0,-0.2201332 -0.05645,-0.3668887 -0.0508,-0.1523998 -0.1524,-0.2370664 -0.09595,-0.090311 -0.237066,-0.1298222 -0.135467,-0.039511 -0.3048,-0.039511 -0.146755,0 -0.270933,0.016933 z"
         id="path597" />
      <path
         d="m 36.229025,4.9539106 q 0,0.3273775 -0.163689,0.5983107 -0.158044,0.2652887 -0.372533,0.4628441 0.237066,0.1749776 0.412044,0.423333 0.174978,0.2427109 0.174978,0.5813773 0,0.2652887 -0.08467,0.4684885 -0.07902,0.1975555 -0.214489,0.333022 -0.129822,0.1298221 -0.299155,0.1975554 -0.169333,0.067733 -0.349955,0.067733 -0.208844,0 -0.383822,-0.079022 Q 34.772756,7.9341746 34.648579,7.8043528 34.524401,7.6688862 34.456668,7.4826197 34.388938,7.2963532 34.388938,7.07622 q 0,-0.3499553 0.1524,-0.6208884 Q 34.699382,6.1787541 34.959026,5.9699098 34.744537,5.8062211 34.60907,5.5578657 34.473604,5.3038659 34.473604,4.9651995 q 0,-0.2539998 0.07902,-0.4346219 0.07902,-0.1862665 0.2032,-0.3047998 0.129822,-0.1185332 0.287866,-0.1693332 0.158045,-0.056444 0.321733,-0.056444 0.158045,0 0.310445,0.056444 0.158044,0.0508 0.282222,0.1693332 0.124177,0.1128888 0.197555,0.2935109 0.07338,0.1806221 0.07338,0.4346219 z m -0.423333,2.0997318 q 0,-0.1467555 -0.0508,-0.2709332 -0.04516,-0.1298221 -0.124178,-0.2370665 -0.07902,-0.1128888 -0.180622,-0.2031998 -0.09595,-0.090311 -0.2032,-0.1693332 -0.163689,0.1523999 -0.270933,0.3555997 -0.107244,0.2031999 -0.107244,0.5079996 0,0.3047998 0.124177,0.4910663 0.129823,0.1806221 0.349956,0.1806221 0.186266,0 0.321733,-0.1636888 0.141111,-0.1693332 0.141111,-0.4910662 z M 34.947737,4.9031106 q 0,0.1806221 0.02822,0.3217331 0.02822,0.1354666 0.08467,0.242711 0.05644,0.1015999 0.135466,0.1862665 0.08467,0.084667 0.191911,0.1580443 0.158045,-0.1636888 0.254,-0.3443108 0.1016,-0.1862666 0.1016,-0.4797775 0,-0.3443108 -0.112889,-0.4741329 -0.112889,-0.1354666 -0.276577,-0.1354666 -0.06209,0 -0.135467,0.022578 -0.07338,0.022578 -0.135467,0.084667 -0.05644,0.056444 -0.09595,0.1580443 -0.03951,0.1015999 -0.03951,0.2596442 z"
         id="path599" />
    </g>
    <g
       aria-label="CLK"
       id="text394"
       style="font-size:5.64444px;font-family:'Ubuntu Condensed';-inkscape-font-specification:'Ubuntu Condensed, ';fill:#666666;stroke:#ffffff;stroke-width:0"
       transform="translate(1.0583333)">
      <path
         d="m 14.829716,17.041383 q -0.688621,0 -1.05551,-0.513644 -0.366889,-0.513644 -0.366889,-1.586088 0,-0.54751 0.1016,-0.925688 0.107245,-0.378177 0.293511,-0.615244 0.186267,-0.237066 0.440267,-0.338666 0.253999,-0.107245 0.553155,-0.107245 0.248355,0 0.462844,0.06773 0.214489,0.06209 0.349955,0.158044 l -0.1524,0.423333 q -0.135466,-0.09031 -0.293511,-0.146755 -0.152399,-0.05645 -0.355599,-0.05645 -0.451556,0 -0.654755,0.378178 -0.2032,0.372533 -0.2032,1.162754 0,0.795866 0.214488,1.224844 0.214489,0.428977 0.699911,0.428977 0.231422,0 0.372533,-0.05644 0.146756,-0.05644 0.282222,-0.146755 l 0.141111,0.400755 q -0.129822,0.1016 -0.344311,0.174977 -0.208844,0.07338 -0.485422,0.07338 z"
         id="path1056" />
      <path
         d="m 17.96238,16.522095 v 0.434622 h -1.744132 v -3.911598 h 0.507999 v 3.476976 z"
         id="path1058" />
      <path
         d="m 20.807176,13.045119 q -0.124177,0.191911 -0.282222,0.423334 -0.1524,0.231422 -0.316088,0.479777 -0.163689,0.242711 -0.333022,0.479777 -0.163689,0.237067 -0.316089,0.440267 0.169333,0.169333 0.366889,0.428977 0.197555,0.254 0.389466,0.541866 0.191911,0.282222 0.361244,0.575733 0.169333,0.293511 0.270933,0.541867 h -0.570088 q -0.118533,-0.259645 -0.276578,-0.530578 -0.1524,-0.270933 -0.327377,-0.519288 -0.169333,-0.254 -0.349955,-0.468489 -0.174978,-0.214489 -0.344311,-0.361244 v 1.879599 h -0.508 v -3.911598 h 0.508 v 1.727199 q 0.146755,-0.186266 0.310444,-0.423333 0.163689,-0.237066 0.321733,-0.474133 0.163689,-0.237066 0.3048,-0.451555 0.141111,-0.220133 0.237066,-0.378178 z"
         id="path1060" />
    </g>
    <g
       aria-label="0"
       id="text567"
       style="font-size:2.82251px;font-family:'Ubuntu Condensed';-inkscape-font-specification:'Ubuntu Condensed, ';fill:#666666;fill-opacity:1;stroke:#ffffff;stroke-width:0"
       transform="matrix(1.9997087,0,0,1.9997087,-85.040509,-25.051343)">
      <path
         d="m 44.540852,25.021749 q 0,-0.287896 0.0254,-0.48265 0.0254,-0.197575 0.08185,-0.316121 0.05645,-0.118545 0.141126,-0.16935 Q 44.87673,24 45.000921,24 q 0.121368,0 0.208866,0.05363 0.0875,0.05081 0.143948,0.16935 0.05645,0.118546 0.08185,0.316121 0.0254,0.194754 0.0254,0.48265 0,0.287896 -0.0254,0.485471 -0.0254,0.194754 -0.08185,0.313299 -0.05645,0.118545 -0.143948,0.172173 -0.0875,0.0508 -0.208866,0.0508 -0.124191,0 -0.211688,-0.0508 -0.08468,-0.05363 -0.141126,-0.172173 -0.05645,-0.118545 -0.08185,-0.313299 -0.0254,-0.197575 -0.0254,-0.485471 z m 0.666112,0 q 0,-0.231446 -0.01129,-0.386684 -0.01129,-0.155238 -0.03669,-0.248381 -0.02258,-0.09314 -0.06209,-0.132658 -0.03951,-0.03951 -0.09596,-0.03951 -0.05645,0 -0.09597,0.03951 -0.03952,0.03952 -0.06492,0.132658 -0.02258,0.09314 -0.03387,0.248381 -0.01129,0.155238 -0.01129,0.386684 0,0.231446 0.01129,0.386684 0.01129,0.155238 0.03387,0.24838 0.0254,0.09314 0.06492,0.132658 0.03952,0.03952 0.09597,0.03952 0.05645,0 0.09596,-0.03952 0.03952,-0.03951 0.06209,-0.132658 0.0254,-0.09314 0.03669,-0.24838 0.01129,-0.155238 0.01129,-0.386684 z"
         id="path1352"
         style="fill:#666666;fill-opacity:1" />
    </g>
    <g
       aria-label="1"
       id="text1104"
       style="font-size:2.82251px;font-family:'Ubuntu Condensed';-inkscape-font-specification:'Ubuntu Condensed, ';fill:#666666;fill-opacity:1;stroke:#ffffff;stroke-width:0"
       transform="matrix(1.9997098,0,0,1.9997098,-85.091348,-35.05163)">
      <path
         d="m 44.591657,34.392667 q 0.05363,-0.03105 0.110078,-0.07621 0.05927,-0.04516 0.1129,-0.09596 0.05363,-0.05363 0.09879,-0.107256 0.04798,-0.05645 0.07903,-0.110078 h 0.186286 v 1.956 h -0.242736 v -1.572138 q -0.04798,0.0508 -0.1129,0.09596 -0.0621,0.04516 -0.132658,0.08467 z"
         id="path1355"
         style="fill:#666666;fill-opacity:1" />
    </g>
    <g
       aria-label="2"
       id="text1112"
       style="font-size:2.82251px;font-family:'Ubuntu Condensed';-inkscape-font-specification:'Ubuntu Condensed, ';fill:#666666;fill-opacity:1;stroke:#ffffff;stroke-width:0"
       transform="matrix(1.9992976,0,0,1.9992976,-84.999634,-45.027429)">
      <path
         d="M 44.518272,44.166528 Q 44.6848,44 44.924713,44 q 0.228623,0 0.349991,0.121368 0.121368,0.118545 0.121368,0.372571 0,0.118546 -0.03951,0.225801 -0.03952,0.107256 -0.09879,0.208866 -0.05927,0.09879 -0.129835,0.197576 -0.07056,0.09879 -0.135481,0.20322 -0.06492,0.101611 -0.1129,0.214511 -0.04798,0.110078 -0.05927,0.237091 h 0.615307 v 0.220156 h -0.874978 v -0.05363 q 0,-0.189108 0.04234,-0.335879 0.04516,-0.14677 0.107255,-0.265316 0.06492,-0.118545 0.141126,-0.220155 0.07621,-0.101611 0.138303,-0.197576 0.06492,-0.09879 0.107255,-0.200398 0.04516,-0.104433 0.04516,-0.228624 0,-0.149593 -0.05927,-0.21451 -0.05927,-0.06774 -0.177819,-0.06774 -0.08185,0 -0.149593,0.03387 -0.06492,0.03105 -0.118545,0.08185 z"
         id="path1359"
         style="fill:#666666;fill-opacity:1" />
    </g>
    <g
       aria-label="3"
       transform="matrix(1.9996964,0,0,1.9999968,-85.01844,-55.050039)"
       id="text1116"
       style="font-size:2.8223px;font-family:'Ubuntu Condensed';-inkscape-font-specification:'Ubuntu Condensed, ';fill:#666666;fill-opacity:1;stroke:#ffffff;stroke-width:0">
      <path
         d="m 45.122769,54.944234 q 0.141115,0.0508 0.217317,0.180627 0.07903,0.127004 0.07903,0.330209 0,0.270941 -0.132648,0.42899 -0.129826,0.155227 -0.395122,0.155227 -0.104426,0 -0.203206,-0.03105 -0.09878,-0.03104 -0.17216,-0.08185 l 0.06491,-0.197561 q 0.06491,0.03951 0.13547,0.06773 0.07338,0.02822 0.152404,0.02822 0.143937,0 0.222962,-0.08749 0.08185,-0.09031 0.08185,-0.285052 0,-0.194739 -0.09031,-0.293519 -0.08749,-0.09878 -0.28223,-0.09878 h -0.07338 v -0.206027 h 0.06209 q 0.169338,0 0.251184,-0.09031 0.08185,-0.09031 0.08185,-0.251185 0,-0.152404 -0.06491,-0.225784 -0.06491,-0.0762 -0.17216,-0.0762 -0.07338,0 -0.141115,0.02822 -0.06491,0.02822 -0.112892,0.07056 l -0.09596,-0.177805 q 0.07338,-0.06773 0.17216,-0.101603 0.101603,-0.03387 0.200383,-0.03387 0.22014,0 0.338676,0.138293 0.118537,0.138293 0.118537,0.366899 0,0.160871 -0.06491,0.273763 -0.06209,0.11007 -0.177805,0.169338 z"
         id="path1362"
         style="fill:#666666;fill-opacity:1" />
    </g>
    <g
       aria-label="4"
       transform="matrix(2.0006401,0,0,2.0009407,-85.060445,-65.154112)"
       id="text1120"
       style="font-size:2.8223px;font-family:'Ubuntu Condensed';-inkscape-font-specification:'Ubuntu Condensed, ';fill:#666666;fill-opacity:1;stroke:#ffffff;stroke-width:0">
      <path
         d="m 44.515975,65.341427 q 0.0508,-0.174983 0.129825,-0.369721 0.07903,-0.194739 0.163694,-0.375366 0.08467,-0.180627 0.160871,-0.327387 0.07902,-0.14676 0.127003,-0.228606 h 0.248363 v 1.278502 h 0.191916 v 0.200383 h -0.191916 v 0.476969 h -0.222962 v -0.476969 h -0.606794 z m 0.606794,-0.02258 v -0.953938 q -0.04233,0.08749 -0.09878,0.200383 -0.05362,0.112892 -0.11007,0.239896 -0.05362,0.127003 -0.104425,0.259652 -0.0508,0.129825 -0.08749,0.254007 z"
         id="path1365"
         style="fill:#666666;fill-opacity:1" />
    </g>
    <g
       aria-label="5"
       transform="matrix(1.9987188,0,0,1.999019,-84.997454,-75.019732)"
       id="text1124"
       style="font-size:2.8223px;font-family:'Ubuntu Condensed';-inkscape-font-specification:'Ubuntu Condensed, ';fill:#666666;fill-opacity:1;stroke:#ffffff;stroke-width:0">
      <path
         d="m 44.936497,74.251272 q -0.01411,0.203205 -0.01976,0.338676 -0.0056,0.13547 -0.01129,0.214494 0.265296,0.03669 0.389477,0.191917 0.124182,0.155226 0.124182,0.420522 0,0.149582 -0.04234,0.265297 -0.04233,0.115714 -0.118536,0.194738 -0.07338,0.07903 -0.174983,0.118537 -0.101603,0.04233 -0.220139,0.04233 -0.08185,0 -0.166516,-0.02258 -0.08467,-0.02258 -0.158049,-0.06491 l 0.06773,-0.200383 q 0.121359,0.06773 0.248363,0.06773 0.13547,0 0.228606,-0.09878 0.09314,-0.09878 0.09314,-0.301986 0,-0.222961 -0.127004,-0.31892 -0.124181,-0.09878 -0.38101,-0.110069 0.01411,-0.141115 0.02258,-0.25683 0.0085,-0.118536 0.01411,-0.228606 0.0056,-0.112892 0.0085,-0.222961 0.0056,-0.112892 0.0085,-0.239896 h 0.660418 v 0.211673 z"
         id="path1368"
         style="fill:#666666;fill-opacity:1" />
    </g>
    <g
       aria-label="6"
       transform="matrix(2.0000993,0,0,2.0003998,-85.095658,-85.115997)"
       id="text1128"
       style="font-size:2.8223px;font-family:'Ubuntu Condensed';-inkscape-font-specification:'Ubuntu Condensed, ';fill:#666666;fill-opacity:1;stroke:#ffffff;stroke-width:0">
      <path
         d="m 45.379598,84.230768 q -0.107247,0.01411 -0.197561,0.04798 -0.08749,0.03105 -0.158048,0.101603 -0.07056,0.06773 -0.118537,0.180627 -0.04516,0.112892 -0.06773,0.28223 0.05927,-0.0254 0.112892,-0.03669 0.05645,-0.01129 0.104425,-0.01129 0.203206,0 0.313275,0.160871 0.112892,0.158049 0.112892,0.437456 0,0.299164 -0.107247,0.471324 -0.104425,0.172161 -0.333032,0.172161 -0.115714,0 -0.203205,-0.04516 -0.08749,-0.04516 -0.14676,-0.14676 -0.05645,-0.104425 -0.08749,-0.27094 -0.02822,-0.169338 -0.02822,-0.412056 0,-0.211673 0.03951,-0.412056 0.04233,-0.200383 0.132648,-0.35561 0.09314,-0.158049 0.239896,-0.256829 0.149582,-0.09878 0.366899,-0.107248 z m -0.383832,0.762021 q -0.04516,0 -0.09031,0.01693 -0.04516,0.01411 -0.08467,0.03669 -0.0028,0.03387 -0.0028,0.07056 0,0.03387 0,0.07056 0,0.129826 0.0056,0.248363 0.0085,0.115714 0.03105,0.206028 0.02258,0.08749 0.06491,0.141115 0.04516,0.0508 0.118536,0.0508 0.11007,0 0.152404,-0.115714 0.04516,-0.118537 0.04516,-0.313275 0,-0.211673 -0.05927,-0.310453 -0.05645,-0.101603 -0.180627,-0.101603 z"
         id="path1371"
         style="fill:#666666;fill-opacity:1" />
    </g>
    <g
       aria-label="7"
       transform="matrix(2.0003703,0,0,2.0006708,-85.056897,-95.152444)"
       id="text1132"
       style="font-size:2.8223px;font-family:'Ubuntu Condensed';-inkscape-font-specification:'Ubuntu Condensed, ';fill:#666666;fill-opacity:1;stroke:#ffffff;stroke-width:0">
      <path
         d="m 44.722003,95.99395 q 0.0056,-0.135471 0.02822,-0.290697 0.0254,-0.158049 0.06209,-0.31892 0.03669,-0.160871 0.07902,-0.321742 0.04516,-0.163693 0.09596,-0.310453 0.0508,-0.149582 0.101603,-0.276585 0.0508,-0.127004 0.101602,-0.222962 h -0.666062 v -0.214495 h 0.939825 v 0.189094 q -0.06773,0.11007 -0.149581,0.301986 -0.08185,0.189094 -0.155227,0.42899 -0.07056,0.237073 -0.124181,0.505191 -0.05362,0.268119 -0.06491,0.530593 z"
         id="path1374"
         style="fill:#666666;fill-opacity:1" />
    </g>
  </g>
  <g
     inkscape:groupmode="layer"
     id="layer2"
     inkscape:label="components"
     style="display:none">
    <circle
       style="fill:#ff00ff;fill-opacity:1;stroke-width:0;stroke-dasharray:none"
       id="x0"
       cx="10"
       cy="25"
       r="3"
       inkscape:label="x0" />
    <circle
       style="fill:#ff00ff;fill-opacity:1;stroke-width:0;stroke-dasharray:none"
       id="x1"
       cx="10"
       cy="35"
       r="3"
       inkscape:label="x1" />
    <circle
       style="fill:#ff00ff;fill-opacity:1;stroke-width:0;stroke-dasharray:none"
       id="x2"
       cx="10"
       cy="45"
       r="3"
       inkscape:label="x2" />
    <circle
       style="fill:#ff00ff;fill-opacity:1;stroke-width:0;stroke-dasharray:none"
       id="x3"
       cx="10"
       cy="55"
       r="3"
       inkscape:label="x3" />
    <circle
       style="fill:#ff00ff;fill-opacity:1;stroke-width:0;stroke-dasharray:none"
       id="x4"
       cx="10"
       cy="65"
       r="3"
       inkscape:label="x4" />
    <circle
       style="fill:#ff00ff;fill-opacity:1;stroke-width:0;stroke-dasharray:none"
       id="x5"
       cx="10"
       cy="75"
       r="3"
       inkscape:label="x5" />
    <circle
       style="fill:#ff00ff;fill-opacity:1;stroke-width:0;stroke-dasharray:none"
       id="x6"
       cx="10"
       cy="85"
       r="3"
       inkscape:label="x6" />
    <circle
       style="fill:#ff00ff;fill-opacity:1;stroke-width:0;stroke-dasharray:none"
       id="x7"
       cx="10"
       cy="95"
       r="3"
       inkscape:label="x7" />
    <circle
       style="fill:#ff0000;fill-opacity:1;stroke-width:0;stroke-dasharray:none"
       id="a0"
       cx="20"
       cy="25"
       r="3"
       inkscape:label="a0" />
    <circle
       style="fill:#ff0000;fill-opacity:1;stroke-width:0;stroke-dasharray:none"
       id="a1"
       cx="20"
       cy="35"
       r="3"
       inkscape:label="a1" />
    <circle
       style="fill:#ff0000;fill-opacity:1;stroke-width:0;stroke-dasharray:none"
       id="a2"
       cx="20"
       cy="45"
       r="3"
       inkscape:label="a2" />
    <circle
       style="fill:#ff0000;fill-opacity:1;stroke-width:0;stroke-dasharray:none"
       id="a3"
       cx="20"
       cy="55"
       r="3"
       inkscape:label="a3" />
    <circle
       style="fill:#ff0000;fill-opacity:1;stroke-width:0;stroke-dasharray:none"
       id="a4"
       cx="20"
       cy="65"
       r="3"
       inkscape:label="a4" />
    <circle
       style="fill:#ff0000;fill-opacity:1;stroke-width:0;stroke-dasharray:none"
       id="a5"
       cx="20"
       cy="75"
       r="3"
       inkscape:label="a5" />
    <circle
       style="fill:#ff0000;fill-opacity:1;stroke-width:0;stroke-dasharray:none"
       id="a6"
       cx="20"
       cy="85"
       r="3"
       inkscape:label="a6" />
    <circle
       style="fill:#ff0000;fill-opacity:1;stroke-width:0;stroke-dasharray:none"
       id="a7"
       cx="20"
       cy="95"
       r="3"
       inkscape:label="a7" />
    <circle
       style="fill:#00ff00;fill-opacity:1;stroke-width:0;stroke-dasharray:none"
       id="i0"
       cx="30"
       cy="25"
       r="3"
       inkscape:label="i0" />
    <circle
       style="fill:#00ff00;fill-opacity:1;stroke-width:0;stroke-dasharray:none"
       id="i1"
       cx="30"
       cy="35"
       r="3"
       inkscape:label="i1" />
    <circle
       style="fill:#00ff00;fill-opacity:1;stroke-width:0;stroke-dasharray:none"
       id="i2"
       cx="30"
       cy="45"
       r="3"
       inkscape:label="i2" />
    <circle
       style="fill:#00ff00;fill-opacity:1;stroke-width:0;stroke-dasharray:none"
       id="i3"
       cx="30"
       cy="55"
       r="3"
       inkscape:label="i3" />
    <circle
       style="fill:#00ff00;fill-opacity:1;stroke-width:0;stroke-dasharray:none"
       id="i4"
       cx="30"
       cy="65"
       r="3"
       inkscape:label="i4" />
    <circle
       style="fill:#00ff00;fill-opacity:1;stroke-width:0;stroke-dasharray:none"
       id="i5"
       cx="30"
       cy="75"
       r="3"
       inkscape:label="i5" />
    <circle
       style="fill:#00ff00;fill-opacity:1;stroke-width:0;stroke-dasharray:none"
       id="i6"
       cx="30"
       cy="85"
       r="3"
       inkscape:label="i6" />
    <circle
       style="fill:#00ff00;fill-opacity:1;stroke-width:0;stroke-dasharray:none"
       id="i7"
       cx="30"
       cy="95"
       r="3"
       inkscape:label="i7" />
    <circle
       style="fill:#ff0000;fill-opacity:1;stroke-width:0;stroke-dasharray:none"
       id="cvo0"
       cx="50"
       cy="25"
       r="3"
       inkscape:label="cvo0" />
    <circle
       style="fill:#ff0000;fill-opacity:1;stroke-width:0;stroke-dasharray:none"
       id="cvo2"
       cx="50"
       cy="45"
       r="3"
       inkscape:label="cvo2" />
    <circle
       style="fill:#ff0000;fill-opacity:1;stroke-width:0;stroke-dasharray:none"
       id="cvo3"
       cx="50"
       cy="55"
       r="3"
       inkscape:label="cvo3" />
    <circle
       style="fill:#0000ff;fill-opacity:1;stroke-width:0;stroke-dasharray:none"
       id="vo0"
       cx="50"
       cy="65"
       r="3"
       inkscape:label="vo0" />
    <circle
       style="fill:#0000ff;fill-opacity:1;stroke-width:0;stroke-dasharray:none"
       id="vo1"
       cx="50"
       cy="75"
       r="3"
       inkscape:label="vo1" />
    <circle
       style="fill:#0000ff;fill-opacity:1;stroke-width:0;stroke-dasharray:none"
       id="vo2"
       cx="50"
       cy="85"
       r="3"
       inkscape:label="vo2" />
    <circle
       style="fill:#0000ff;fill-opacity:1;stroke-width:0;stroke-dasharray:none"
       id="vo3"
       cx="50"
       cy="95"
       r="3"
       inkscape:label="vo3" />
    <circle
       style="fill:#ff0000;fill-opacity:1;stroke-width:0;stroke-dasharray:none"
       id="not"
       cx="20"
       cy="105"
       r="3"
       inkscape:label="not" />
    <circle
       style="fill:#00ff00;fill-opacity:1;stroke-width:0;stroke-dasharray:none"
       id="inot"
       cx="30"
       cy="105"
       r="3"
       inkscape:label="inot" />
    <circle
       style="fill:#00ff00;fill-opacity:1;stroke-width:0;stroke-dasharray:none"
       id="gate"
       cx="10"
       cy="15"
       r="3"
       inkscape:label="gate" />
    <circle
       style="display:inline;fill:#ff0000;fill-opacity:1;stroke-width:0;stroke-dasharray:none"
       id="cvo1"
       cx="50"
       cy="35"
       r="3"
       inkscape:label="cvo1" />
    <circle
       style="fill:#ff0000;fill-opacity:1;stroke-width:0;stroke-dasharray:none"
       id="length"
       cx="10"
       cy="105"
       r="3"
       inkscape:label="length" />
    <circle
       style="fill:#0000ff;fill-opacity:1;stroke-width:0;stroke-dasharray:none"
       id="go1"
       cx="40"
       cy="65"
       r="3"
       inkscape:label="go4" />
    <circle
       style="fill:#0000ff;fill-opacity:1;stroke-width:0;stroke-dasharray:none"
       id="go5"
       cx="40"
       cy="75"
       r="3"
       inkscape:label="go5" />
    <circle
       style="fill:#0000ff;fill-opacity:1;stroke-width:0;stroke-dasharray:none"
       id="go6"
       cx="40"
       cy="85"
       r="3"
       inkscape:label="go6" />
    <circle
       style="fill:#0000ff;fill-opacity:1;stroke-width:0;stroke-dasharray:none"
       id="go7"
       cx="40"
       cy="95"
       r="3"
       inkscape:label="go7" />
    <circle
       style="fill:#0000ff;fill-opacity:1;stroke-width:0;stroke-dasharray:none"
       id="go0"
       cx="40"
       cy="25"
       r="3"
       inkscape:label="go0" />
    <circle
       style="fill:#0000ff;fill-opacity:1;stroke-width:0;stroke-dasharray:none"
       id="go2"
       cx="40"
       cy="35"
       r="3"
       inkscape:label="go1" />
    <circle
       style="fill:#0000ff;fill-opacity:1;stroke-width:0;stroke-dasharray:none"
       id="go3"
       cx="40"
       cy="45"
       r="3"
       inkscape:label="go2" />
    <circle
       style="fill:#0000ff;fill-opacity:1;stroke-width:0;stroke-dasharray:none"
       id="go4"
       cx="40"
       cy="55"
       r="3"
       inkscape:label="go3" />
  </g>
</svg>
