<?xml version="1.0" encoding="UTF-8" standalone="no"?>
<!-- Created with Inkscape (http://www.inkscape.org/) -->

<svg
   width="60.959999mm"
   height="128.5mm"
   viewBox="0 0 60.96 128.5"
   version="1.1"
   id="svg470"
   inkscape:version="1.2.2 (732a01da63, 2022-12-09)"
   sodipodi:docname="LFSR16.svg"
   xmlns:inkscape="http://www.inkscape.org/namespaces/inkscape"
   xmlns:sodipodi="http://sodipodi.sourceforge.net/DTD/sodipodi-0.dtd"
   xmlns="http://www.w3.org/2000/svg"
   xmlns:svg="http://www.w3.org/2000/svg">
  <sodipodi:namedview
     id="namedview472"
     pagecolor="#ffffff"
     bordercolor="#666666"
     borderopacity="1.0"
     inkscape:pageshadow="2"
     inkscape:pageopacity="1"
     inkscape:pagecheckerboard="false"
     inkscape:document-units="mm"
     showgrid="true"
     width="40.64mm"
     inkscape:zoom="3.0555556"
     inkscape:cx="70.690908"
     inkscape:cy="405.4909"
     inkscape:window-width="1920"
     inkscape:window-height="1009"
     inkscape:window-x="-8"
     inkscape:window-y="-8"
     inkscape:window-maximized="1"
     inkscape:current-layer="layer2"
     objecttolerance="20"
     guidetolerance="10000"
     showguides="true"
     inkscape:showpageshadow="false"
     inkscape:deskcolor="#d1d1d1"
     showborder="true">
    <inkscape:grid
       type="xygrid"
       id="grid1902"
       units="mm"
       dotted="false"
       originx="0"
       originy="0"
       spacingx="1"
       spacingy="1"
       snapvisiblegridlinesonly="false"
       visible="true"
       empspacing="10" />
  </sodipodi:namedview>
  <defs
     id="defs467" />
  <g
     inkscape:label="panel"
     inkscape:groupmode="layer"
     id="layer1"
     style="display:inline">
    <path
       id="rect981"
       style="display:inline;fill:#e8e5e0;stroke-width:0.324046"
       d="M 0,0 H 60.96 V 128.5 H 0 Z" />
    <path
       style="display:inline;fill:#666666;fill-opacity:1;stroke-width:0.256427"
       d="m 26.521818,127.22687 c -0.03895,-0.87892 0.0074,-0.94127 0.676794,-0.90935 0.592699,0.0282 0.618282,0.0531 0.146007,0.14137 -0.416041,0.0778 -0.601093,0.32647 -0.676794,0.90936 -0.100103,0.77081 -0.105827,0.76526 -0.146007,-0.14138 z m 1.438882,0.37746 c 0.08798,-0.33624 0.348012,-0.56618 0.640289,-0.56618 0.270683,0 0.492152,-0.11324 0.492152,-0.25164 0,-0.13839 -0.159216,-0.25163 -0.353815,-0.25163 -0.194598,0 -0.667762,-0.28018 -1.051477,-0.62261 -0.383715,-0.34245 -0.753661,-0.62554 -0.822101,-0.62909 -0.06844,-0.004 -0.124436,-0.063 -0.124436,-0.13228 v -0.301 c 0,-0.0963 0.382172,0.1707 0.849271,0.59342 0.57354,0.51907 1.582834,0.98443 3.108693,1.43334 2.72786,0.80257 3.077277,0.82123 3.025669,0.16152 -0.02826,-0.36128 -0.170622,-0.4631 -0.504743,-0.36099 -0.364501,0.11141 -0.426807,0.0432 -0.287438,-0.31458 0.155991,-0.40047 0.12397,-0.41455 -0.25963,-0.11412 -0.572561,0.44842 -1.26488,0.19257 -1.071773,-0.39607 0.140142,-0.42721 0.128587,-0.42768 -0.229199,-0.01 -0.481338,0.56255 -0.711137,0.55877 -0.711137,-0.0117 0,-0.32913 0.195394,-0.44784 0.718613,-0.4366 0.562469,0.0121 0.699371,0.12104 0.630055,0.50142 -0.07456,0.40915 -0.02569,0.43574 0.309153,0.16814 0.553362,-0.44223 1.739262,0.30903 1.739262,1.10182 0,0.83186 -0.558794,0.91682 -2.254806,0.3428 l -1.502355,-0.50848 -0.467435,0.5851 c -0.257093,0.32181 -0.470052,0.45024 -0.473248,0.28541 -0.0032,-0.16484 0.111783,-0.36967 0.255505,-0.45521 0.143723,-0.0855 0.261315,-0.25965 0.261315,-0.38691 0,-0.30875 -1.354231,0.28008 -1.750875,0.76129 -0.262658,0.31865 -0.289564,0.28847 -0.165509,-0.18566 z m 1.45691,-2.10626 c -0.791051,-0.48781 -0.839522,-0.49198 -0.683331,-0.0587 0.10338,0.28681 -0.22184,0.10236 -0.844592,-0.47901 -0.837037,-0.7814 -0.962861,-1.02148 -0.725342,-1.38398 0.254583,-0.38854 0.679124,-0.42846 3.721221,-0.34992 2.960695,0.0765 3.433856,0.0351 3.433856,-0.29969 0,-0.21359 -0.113739,-0.45604 -0.252756,-0.53877 -0.139014,-0.0827 -0.184242,-0.4803 -0.100502,-0.88348 0.130239,-0.62708 0.0588,-0.75565 -0.494075,-0.88927 -0.36303,-0.0878 -1.073369,0.0156 -1.620608,0.23579 -0.861674,0.34669 -1.019137,0.34881 -1.362348,0.0184 -0.510498,-0.49159 -0.699783,-0.4722 -1.265335,0.12958 -0.260136,0.27679 -0.601738,0.50153 -0.759116,0.4994 -0.157378,-0.002 -0.109755,-0.11362 0.105829,-0.24777 0.306583,-0.19079 0.238785,-0.24477 -0.31122,-0.24778 -0.386756,-0.002 -0.775869,0.10938 -0.864694,0.24778 -0.08883,0.13839 0.05123,0.25564 0.311221,0.26055 0.376242,0.007 0.33939,0.0824 -0.180563,0.36853 -0.87971,0.48425 -1.186472,0.46753 -0.750611,-0.0409 0.279598,-0.32617 0.286649,-0.4417 0.032,-0.52424 C 26.62699,121.25639 26.48,121.09825 26.48,120.96321 c 0,-0.13503 0.116661,-0.17609 0.259245,-0.0912 0.142585,0.0848 0.451664,0.0506 0.686842,-0.0762 0.518482,-0.2794 0.02663,-0.6753 -0.566629,-0.45607 -0.208701,0.0771 -0.379458,0.0305 -0.379458,-0.10353 0,-0.35898 0.870615,-0.29636 1.438441,0.10346 0.366447,0.25802 0.683328,0.28332 1.233908,0.0985 0.518286,-0.17398 0.966792,-0.15855 1.493017,0.0514 0.568072,0.22659 0.888868,0.22958 1.310597,0.0123 0.307127,-0.15829 0.935148,-0.25269 1.395606,-0.20981 0.736595,0.0686 0.839232,0.17009 0.854127,0.84442 0.0093,0.42153 0.09983,0.89558 0.201144,1.05345 0.167782,0.26142 0.02109,2.31147 -0.179214,2.50433 -0.04662,0.0449 -0.449461,-0.0408 -0.8952,-0.19042 -0.598997,-0.20107 -0.767722,-0.3819 -0.646731,-0.69311 0.142584,-0.36677 0.106828,-0.37654 -0.2772,-0.0757 -0.35629,0.27908 -0.440897,0.28192 -0.440897,0.0148 0,-0.20126 -0.150057,-0.1395 -0.383661,0.15791 -0.211015,0.26866 -0.387401,0.39955 -0.391972,0.29088 -0.0045,-0.10868 -0.237772,-0.0793 -0.518222,0.0652 -0.37395,0.19273 -0.483536,0.46345 -0.411,1.01539 0.0544,0.41392 0.07807,0.75069 0.05261,0.74836 -0.02548,-0.002 -0.429452,-0.24052 -0.897744,-0.52931 z m 0.720788,-0.22135 c 0,-0.1384 -0.05186,-0.25163 -0.115237,-0.25163 -0.06338,0 -0.187911,0.11323 -0.276735,0.25163 -0.08883,0.13839 -0.03697,0.25163 0.115235,0.25163 0.152205,0 0.276737,-0.11324 0.276737,-0.25163 z m -1.714807,-1.15264 c 0.492818,-0.47456 0.313735,-0.86042 -0.399332,-0.86042 -0.636205,0 -0.96887,0.72496 -0.471754,1.02807 0.462158,0.28179 0.389914,0.2957 0.871086,-0.16765 z m 5.634517,0.0359 c 0,-0.20669 -0.224067,-0.34555 -0.522629,-0.3239 -0.644455,0.0467 -0.683967,0.35658 -0.06533,0.51226 0.251515,0.0633 0.486698,0.12821 0.522629,0.14427 0.03593,0.0161 0.06533,-0.13363 0.06533,-0.33263 z m -3.13577,-0.42001 c 0,-0.33158 -1.505753,-0.27346 -1.723981,0.0666 -0.128085,0.19957 -0.0096,0.2466 0.376547,0.14938 0.309922,-0.0781 0.563494,-0.0428 0.563494,0.0783 0,0.1211 0.176386,0.155 0.39197,0.0753 0.215584,-0.0797 0.39197,-0.24596 0.39197,-0.36956 z m -1.218812,-1.87724 c -0.217794,-0.54653 0.335118,-1.06051 0.730882,-0.6794 0.33449,0.32209 0.127273,1.07377 -0.29601,1.07377 -0.152746,0 -0.348436,-0.17747 -0.434872,-0.39437 z m 0.352064,-0.40771 c -0.08342,-0.20073 -0.145338,-0.14111 -0.157878,0.15203 -0.01134,0.26526 0.05042,0.41388 0.137247,0.33026 0.08683,-0.0836 0.09612,-0.30064 0.02062,-0.48229 z"
       id="path1561"
       sodipodi:nodetypes="ssssssssssssssssssssssssssscsssssscssssssssssscscsssssssssssssssssssssssssscscsssssssssssssssssssssssssssss" />
    <text
       xml:space="preserve"
       style="font-size:2.82223px;line-height:1.25;font-family:Ubuntu;-inkscape-font-specification:Ubuntu;stroke-width:0.264583"
       x="11"
       y="35"
       id="text14295"><tspan
         sodipodi:role="line"
         id="tspan14293"
         style="stroke-width:0.264583"
         x="11"
         y="35" /></text>
    <text
       xml:space="preserve"
       style="font-style:normal;font-variant:normal;font-weight:normal;font-stretch:normal;font-size:4.23333px;font-family:'Ubuntu Mono';-inkscape-font-specification:'Ubuntu Mono';fill:#666666;fill-opacity:1;stroke-width:0;stroke-dasharray:none"
       x="-57.282291"
       y="14.948958"
       id="text11765"><tspan
         sodipodi:role="line"
         id="tspan11763"
         style="stroke-width:0"
         x="-57.282291"
         y="14.948958" /></text>
    <g
       aria-label="&lt;"
       id="text11769"
       style="font-size:5.64444px;font-family:'Ubuntu Mono';-inkscape-font-specification:'Ubuntu Mono';fill:#666666;fill-opacity:1;stroke-width:0" />
    <g
       aria-label="LFSR16"
       id="text1195"
       style="font-size:5.64444px;font-family:'Ubuntu Condensed';-inkscape-font-specification:'Ubuntu Condensed, ';stroke:#000000;stroke-width:0;stroke-opacity:0">
      <path
         d="M 25.205133,7.5672864 V 8.0019083 H 23.461001 V 4.0903113 H 23.969 v 3.4769751 z"
         id="path1507" />
      <path
         d="m 25.814731,8.0019083 v -3.911597 h 1.755421 v 0.4346219 h -1.247421 v 1.2304879 h 1.10631 v 0.423333 h -1.10631 v 1.8231542 z"
         id="path1509" />
      <path
         d="m 28.704688,7.651953 q 0.3048,0 0.468489,-0.1693332 0.169333,-0.1693332 0.169333,-0.4571996 0,-0.1523999 -0.0508,-0.2709332 Q 29.24091,6.6359538 29.156243,6.5399983 29.077221,6.4440428 28.969977,6.3650207 28.862733,6.2859985 28.749844,6.2069763 28.620022,6.1166653 28.478911,6.0150654 28.3378,5.9134654 28.219266,5.7779989 28.106378,5.6425323 28.033,5.4619102 q -0.07338,-0.1806221 -0.07338,-0.423333 0,-0.2370665 0.07902,-0.4289774 0.08467,-0.191911 0.225778,-0.3273776 0.146755,-0.1354665 0.344311,-0.2088443 0.2032,-0.073378 0.434622,-0.073378 0.225777,0 0.417688,0.056444 0.191911,0.056444 0.321733,0.1354666 l -0.158044,0.4007552 q -0.118533,-0.079022 -0.259644,-0.1185332 -0.135467,-0.045155 -0.287867,-0.045155 -0.276577,0 -0.44591,0.1523999 -0.163689,0.1467554 -0.163689,0.4346219 0,0.1580443 0.0508,0.2765775 0.05644,0.1185333 0.141111,0.2144887 0.09031,0.095955 0.2032,0.1749777 0.118533,0.079022 0.248355,0.1636888 0.129822,0.084667 0.265289,0.1862665 0.135466,0.1015999 0.242711,0.2370665 0.112888,0.1298221 0.180622,0.3104442 0.07338,0.1749776 0.07338,0.4176886 0,0.2201331 -0.06773,0.4176885 -0.06773,0.1975554 -0.214489,0.3499553 -0.141111,0.1467555 -0.361244,0.2370665 -0.214489,0.084667 -0.507999,0.084667 -0.270934,0 -0.474133,-0.062089 -0.2032,-0.062089 -0.361245,-0.1636888 l 0.158045,-0.4063997 q 0.146755,0.090311 0.299155,0.1467554 0.158044,0.0508 0.361244,0.0508 z"
         id="path1511" />
      <path
         d="m 30.47704,4.1467557 q 0.395111,-0.095955 0.761999,-0.095955 0.293511,0 0.530578,0.067733 0.237066,0.067733 0.406399,0.2144887 0.169333,0.1467554 0.259645,0.3781775 0.09595,0.231422 0.09595,0.5587996 0,0.4063997 -0.158044,0.6603995 -0.1524,0.2483553 -0.417689,0.3781775 0.06773,0.1128888 0.169333,0.3104442 0.107245,0.1919109 0.214489,0.4289774 0.112889,0.2314221 0.214489,0.4797774 0.107244,0.2483554 0.180622,0.474133 h -0.508 q -0.06209,-0.1693332 -0.158044,-0.3838219 -0.09031,-0.2144888 -0.191911,-0.423333 -0.1016,-0.2144888 -0.2032,-0.4063997 -0.1016,-0.1975554 -0.180622,-0.333022 -0.09031,0.011289 -0.186267,0.016933 -0.09596,0.00564 -0.19191,0.00564 H 30.973751 V 8.0019083 H 30.47704 Z m 0.496711,1.9134652 h 0.214488 q 0.389467,0 0.598311,-0.1749777 0.208844,-0.180622 0.208844,-0.6152439 0,-0.2201332 -0.05644,-0.3668887 -0.0508,-0.1523998 -0.1524,-0.2370664 -0.09596,-0.090311 -0.237067,-0.1298222 -0.135466,-0.039511 -0.304799,-0.039511 -0.146756,0 -0.270933,0.016933 z"
         id="path1513" />
      <path
         d="m 33.29926,4.869244 q 0.107244,-0.062089 0.220133,-0.1523999 0.118533,-0.090311 0.225778,-0.1919109 0.107244,-0.1072444 0.197555,-0.2144888 0.09596,-0.1128888 0.158044,-0.2201331 h 0.372533 v 3.911597 H 33.987882 V 4.8579551 q -0.09596,0.1015999 -0.225778,0.191911 -0.124178,0.090311 -0.265289,0.1693332 z"
         id="path1515" />
      <path
         d="m 37.295525,4.4741332 q -0.214489,0.028222 -0.395111,0.095956 -0.174978,0.062089 -0.316089,0.2031998 -0.141111,0.1354666 -0.237066,0.3612442 -0.09031,0.2257776 -0.135467,0.564444 0.118534,-0.0508 0.225778,-0.073378 0.112889,-0.022578 0.208844,-0.022578 0.4064,0 0.626533,0.3217331 0.225778,0.3160887 0.225778,0.8748882 0,0.5983107 -0.214489,0.9426216 -0.208844,0.3443108 -0.666044,0.3443108 -0.231422,0 -0.4064,-0.090311 -0.174977,-0.090311 -0.29351,-0.2935109 -0.112889,-0.2088443 -0.174978,-0.5418663 -0.05645,-0.3386664 -0.05645,-0.8240882 0,-0.4233331 0.07902,-0.8240883 0.08467,-0.4007553 0.265288,-0.7111995 0.186267,-0.3160886 0.479778,-0.513644 0.299155,-0.1975554 0.733777,-0.2144888 z M 36.527881,5.998132 q -0.09031,0 -0.180622,0.033867 -0.09031,0.028222 -0.169333,0.073378 -0.0056,0.067733 -0.0056,0.141111 0,0.067733 0,0.141111 0,0.2596443 0.01129,0.4967107 0.01693,0.2314221 0.06209,0.4120442 0.04516,0.1749776 0.129822,0.282222 0.09031,0.1015999 0.237067,0.1015999 0.220133,0 0.304799,-0.231422 0.09031,-0.2370665 0.09031,-0.6265329 0,-0.423333 -0.118533,-0.6208884 Q 36.776236,5.998132 36.527881,5.998132 Z"
         id="path1517" />
    </g>
    <rect
       style="display:inline;fill:#666666;fill-opacity:1;stroke:#000000;stroke-width:0;stroke-opacity:0"
       id="rect6388"
       width="60"
       height="9.999999"
       x="0.40000051"
       y="10.000001" />
    <rect
       style="display:inline;fill:#666666;fill-opacity:1;stroke:#000000;stroke-width:0;stroke-opacity:0"
       id="rect6457"
       width="60"
       height="9.999999"
       x="0.40000051"
       y="60" />
    <g
       aria-label="GATE"
       id="text3928"
       style="font-size:4.23333px;font-family:'Ubuntu Condensed';-inkscape-font-specification:'Ubuntu Condensed, ';fill:#e8e5e0;fill-opacity:1;stroke:#000000;stroke-width:0;stroke-opacity:0"
       transform="translate(0.39999994)">
      <path
         d="m 51.243972,65.002356 q 0,-0.414867 0.0762,-0.706966 0.0762,-0.2921 0.2159,-0.474133 0.143933,-0.186267 0.3429,-0.2667 0.203199,-0.08467 0.452966,-0.08467 0.1905,0 0.347133,0.05503 0.156633,0.0508 0.254,0.118533 l -0.118534,0.3175 q -0.09737,-0.06773 -0.211666,-0.110067 -0.1143,-0.04657 -0.262467,-0.04657 -0.368299,0 -0.529166,0.300567 -0.160866,0.296333 -0.160866,0.897466 0,0.321733 0.04657,0.550333 0.0508,0.228599 0.1397,0.372533 0.0889,0.143933 0.2159,0.211666 0.127,0.06773 0.283633,0.06773 0.131233,0 0.224367,-0.02963 v -1.147232 h 0.380999 v 1.380065 q -0.1143,0.05503 -0.283633,0.09313 -0.169333,0.0381 -0.3556,0.0381 -0.228599,0 -0.423332,-0.0889 -0.194734,-0.09313 -0.338667,-0.279399 -0.1397,-0.1905 -0.220133,-0.478367 -0.0762,-0.292099 -0.0762,-0.690032 z"
         id="path4000"
         style="fill:#e8e5e0;fill-opacity:1" />
      <path
         d="m 54.499401,63.537624 q 0.1016,0.317499 0.198967,0.643466 0.101599,0.321733 0.194733,0.677332 0.09737,0.3556 0.1905,0.753533 0.09737,0.397933 0.194733,0.859366 h -0.381 q -0.03387,-0.1905 -0.07197,-0.376766 -0.03387,-0.186267 -0.07197,-0.372533 h -0.922866 q -0.04233,0.186266 -0.0762,0.372533 -0.03387,0.186266 -0.06773,0.376766 h -0.3683 q 0.09313,-0.461433 0.1905,-0.859366 0.09737,-0.397933 0.1905,-0.753533 0.09737,-0.355599 0.194733,-0.677332 0.1016,-0.325967 0.2032,-0.643466 z m -0.207433,0.431799 q -0.105833,0.351367 -0.2032,0.706966 -0.09737,0.3556 -0.186266,0.728133 h 0.774699 q -0.08467,-0.372533 -0.182033,-0.728133 -0.09737,-0.355599 -0.2032,-0.706966 z"
         id="path4002"
         style="fill:#e8e5e0;fill-opacity:1" />
      <path
         d="m 56.958968,63.537624 v 0.325966 h -0.651933 v 2.607731 h -0.381 V 63.86359 h -0.651933 v -0.325966 z"
         id="path4004"
         style="fill:#e8e5e0;fill-opacity:1" />
      <path
         d="m 57.373836,66.471321 v -2.933697 h 1.316566 v 0.325966 h -0.935566 v 0.910166 h 0.846666 v 0.3175 h -0.846666 v 1.054099 h 1.003299 v 0.325966 z"
         id="path4006"
         style="fill:#e8e5e0;fill-opacity:1" />
    </g>
    <g
       aria-label="CV"
       id="text3932"
       style="font-size:4.93889px;font-family:'Ubuntu Condensed';-inkscape-font-specification:'Ubuntu Condensed, ';fill:#e8e5e0;fill-opacity:1;stroke:#000000;stroke-width:0;stroke-opacity:0"
       transform="translate(0.39999994)">
      <path
         d="m 3.9701002,16.788664 q -0.6025446,0 -0.9235724,-0.449439 -0.3210279,-0.449439 -0.3210279,-1.387828 0,-0.479073 0.0889,-0.809978 0.093839,-0.330906 0.2568222,-0.538339 0.1629834,-0.207434 0.3852335,-0.296334 0.22225,-0.09384 0.4840112,-0.09384 0.2173111,0 0.404989,0.05927 0.1876778,0.05433 0.3062111,0.138289 l -0.13335,0.370417 q -0.1185333,-0.07902 -0.2568223,-0.128411 -0.13335,-0.04939 -0.31115,-0.04939 -0.3951112,0 -0.5729113,0.330905 -0.1778,0.325967 -0.1778,1.017412 0,0.696383 0.1876778,1.071739 0.1876778,0.375356 0.6124224,0.375356 0.2024945,0 0.3259667,-0.04939 0.1284111,-0.04939 0.2469445,-0.128411 l 0.1234722,0.350661 q -0.1135944,0.0889 -0.3012722,0.153105 -0.182739,0.06421 -0.4247446,0.06421 z"
         id="path3995"
         style="fill:#e8e5e0;fill-opacity:1" />
      <path
         d="M 5.9061478,16.714581 Q 5.7925533,16.344164 5.6789588,15.968808 5.5653644,15.588514 5.4517699,15.173647 5.3431143,14.75878 5.2344587,14.299463 5.1258031,13.835208 5.0171476,13.29193 h 0.4642556 q 0.064206,0.380294 0.1432278,0.765528 0.079022,0.380294 0.1679223,0.750711 0.0889,0.370417 0.1778,0.721078 0.093839,0.345722 0.182739,0.656872 0.0889,-0.31115 0.1778,-0.656872 0.093839,-0.350661 0.1827389,-0.721078 0.0889,-0.370417 0.1679223,-0.750711 0.079022,-0.385234 0.1432278,-0.765528 h 0.449439 q -0.1086556,0.543278 -0.2173112,1.007533 -0.1086555,0.459317 -0.22225,0.874184 -0.1086556,0.414867 -0.2222501,0.795161 -0.1135944,0.375356 -0.2271889,0.745773 z"
         id="path3997"
         style="fill:#e8e5e0;fill-opacity:1" />
    </g>
    <g
       aria-label="NOT1"
       id="text5275"
       style="font-size:4.9389px;font-family:'Ubuntu Condensed';-inkscape-font-specification:'Ubuntu Condensed, ';display:inline;fill:#666666;stroke:#000000;stroke-width:0;stroke-opacity:0"
       transform="translate(0.39999994,4.9999105)">
      <path
         d="M 2.534226,89.01577 Q 2.4156924,88.724375 2.2625865,88.38853 2.1144195,88.047746 1.9464969,87.706961 1.7835132,87.361238 1.6106517,87.025393 1.4377902,86.684609 1.2698676,86.393214 V 89.01577 H 0.85500001 V 85.593112 H 1.2254175 q 0.1876782,0.306212 0.3605397,0.627241 0.1778004,0.321028 0.3358452,0.637118 0.1580448,0.31115 0.296334,0.617362 0.1432281,0.301273 0.2617617,0.572913 v -2.454634 h 0.4148676 v 3.422658 z"
         id="path5497" />
      <path
         d="m 6.0210863,87.306911 q 0,0.40005 -0.074084,0.730957 -0.069145,0.325967 -0.2222505,0.563034 -0.148167,0.232129 -0.3802953,0.36054 -0.2271894,0.128411 -0.5383401,0.128411 -0.3111507,0 -0.543279,-0.128411 -0.2271894,-0.128411 -0.3802953,-0.36054 -0.148167,-0.237067 -0.2222505,-0.563034 -0.074083,-0.330907 -0.074083,-0.730957 0,-0.400051 0.074083,-0.730958 0.074083,-0.330906 0.2222505,-0.563034 0.1531059,-0.237067 0.3802953,-0.365479 0.2321283,-0.13335 0.543279,-0.13335 0.3111507,0 0.5383401,0.13335 0.2321283,0.128412 0.3802953,0.365479 0.1531059,0.232128 0.2222505,0.563034 0.074084,0.330907 0.074084,0.730958 z m -0.4741344,0 q 0,-0.311151 -0.039511,-0.567974 -0.039511,-0.256823 -0.1284114,-0.439562 -0.0889,-0.187678 -0.2321283,-0.291395 -0.1382892,-0.103717 -0.3407841,-0.103717 -0.2024949,0 -0.345723,0.103717 -0.1382892,0.103717 -0.2271894,0.291395 -0.0889,0.182739 -0.1333503,0.439562 -0.039511,0.256823 -0.039511,0.567974 0,0.31115 0.039511,0.567973 0.04445,0.256823 0.1333503,0.439562 0.0889,0.182739 0.2271894,0.286456 0.1432281,0.09878 0.345723,0.09878 0.2024949,0 0.3407841,-0.09878 0.1432281,-0.103717 0.2321283,-0.286456 0.0889,-0.182739 0.1284114,-0.439562 0.039511,-0.256823 0.039511,-0.567973 z"
         id="path5499" />
      <path
         d="m 8.1843189,85.593112 v 0.380296 H 7.4237283 V 89.01577 H 6.9792273 V 85.973408 H 6.2186367 v -0.380296 z"
         id="path5501" />
      <path
         d="m 8.4781863,88.221842 q 0.060995,-0.03531 0.1252012,-0.08668 0.067416,-0.05136 0.1284114,-0.10915 0.060995,-0.061 0.1123599,-0.12199 0.054575,-0.06421 0.089888,-0.125202 h 0.2118788 v 2.22473 H 8.8698411 v -1.788129 q -0.054575,0.05778 -0.1284114,0.10915 -0.070626,0.05136 -0.1508834,0.09631 z"
         style="font-size:65%;baseline-shift:sub"
         id="path5503" />
    </g>
    <g
       aria-label="NOT2"
       id="text5489"
       style="font-size:4.9389px;font-family:'Ubuntu Condensed';-inkscape-font-specification:'Ubuntu Condensed, ';display:inline;fill:#666666;stroke:#000000;stroke-width:0;stroke-opacity:0"
       transform="translate(0.39999994,4.9999105)">
      <path
         d="M 52.534226,89.01577 Q 52.415692,88.724375 52.262586,88.38853 52.114419,88.047746 51.946497,87.706961 51.783513,87.361238 51.610651,87.025393 51.43779,86.684609 51.269867,86.393214 V 89.01577 H 50.855 v -3.422658 h 0.370417 q 0.187678,0.306212 0.36054,0.627241 0.1778,0.321028 0.335845,0.637118 0.158045,0.31115 0.296334,0.617362 0.143228,0.301273 0.261762,0.572913 v -2.454634 h 0.414867 v 3.422658 z"
         id="path5506" />
      <path
         d="m 56.021086,87.306911 q 0,0.40005 -0.07408,0.730957 -0.06914,0.325967 -0.222251,0.563034 -0.148167,0.232129 -0.380295,0.36054 -0.22719,0.128411 -0.53834,0.128411 -0.311151,0 -0.543279,-0.128411 -0.22719,-0.128411 -0.380296,-0.36054 -0.148167,-0.237067 -0.22225,-0.563034 -0.07408,-0.330907 -0.07408,-0.730957 0,-0.400051 0.07408,-0.730958 0.07408,-0.330906 0.22225,-0.563034 0.153106,-0.237067 0.380296,-0.365479 0.232128,-0.13335 0.543279,-0.13335 0.31115,0 0.53834,0.13335 0.232128,0.128412 0.380295,0.365479 0.153106,0.232128 0.222251,0.563034 0.07408,0.330907 0.07408,0.730958 z m -0.474134,0 q 0,-0.311151 -0.03951,-0.567974 -0.03951,-0.256823 -0.128411,-0.439562 -0.0889,-0.187678 -0.232128,-0.291395 -0.138289,-0.103717 -0.340784,-0.103717 -0.202495,0 -0.345723,0.103717 -0.13829,0.103717 -0.22719,0.291395 -0.0889,0.182739 -0.13335,0.439562 -0.03951,0.256823 -0.03951,0.567974 0,0.31115 0.03951,0.567973 0.04445,0.256823 0.13335,0.439562 0.0889,0.182739 0.22719,0.286456 0.143228,0.09878 0.345723,0.09878 0.202495,0 0.340784,-0.09878 0.143228,-0.103717 0.232128,-0.286456 0.0889,-0.182739 0.128411,-0.439562 0.03951,-0.256823 0.03951,-0.567973 z"
         id="path5508" />
      <path
         d="m 58.184319,85.593112 v 0.380296 h -0.760591 v 3.042362 h -0.444501 v -3.042362 h -0.760591 v -0.380296 z"
         id="path5510" />
      <path
         d="m 58.394719,87.916865 q 0.189406,-0.189407 0.462281,-0.189407 0.260033,0 0.398075,0.138042 0.138042,0.134832 0.138042,0.423758 0,0.134832 -0.04494,0.256823 -0.04494,0.12199 -0.11236,0.237561 -0.06742,0.11236 -0.147673,0.22472 -0.08026,0.11236 -0.154093,0.23114 -0.07384,0.11557 -0.128412,0.243982 -0.05457,0.125201 -0.06742,0.269664 h 0.699842 v 0.250402 h -0.995188 v -0.061 q 0,-0.21509 0.04815,-0.382024 0.05136,-0.166935 0.121991,-0.301767 0.07384,-0.134832 0.160514,-0.250402 0.08668,-0.115571 0.157304,-0.22472 0.07384,-0.11236 0.121991,-0.227931 0.05136,-0.11878 0.05136,-0.260033 0,-0.170145 -0.06742,-0.243981 -0.06742,-0.07705 -0.202248,-0.07705 -0.0931,0 -0.170145,0.03852 -0.07384,0.03531 -0.134832,0.0931 z"
         style="font-size:65%;baseline-shift:sub"
         id="path5512" />
    </g>
    <rect
       style="fill:#666666;fill-opacity:1;stroke:#000000;stroke-width:0;stroke-opacity:0"
       id="rect6555"
       width="9.9999981"
       height="43.429958"
       x="0.40000087"
       y="18.544867" />
    <rect
       style="fill:#666666;fill-opacity:1;stroke:#000000;stroke-width:0;stroke-opacity:0"
       id="rect6557"
       width="9.9999981"
       height="42.702393"
       x="50.400002"
       y="18.752743" />
    <g
       aria-label="SPLIT"
       id="text6660"
       style="font-size:4.9389px;font-family:'Ubuntu Condensed';-inkscape-font-specification:'Ubuntu Condensed, ';display:inline;fill:#666666;stroke:#000000;stroke-width:0;stroke-opacity:0"
       transform="translate(21.184001,36.784005)">
      <path
         d="m 0.9081405,79.623468 q 0.2667006,0 0.4099287,-0.148167 0.148167,-0.148167 0.148167,-0.400051 0,-0.13335 -0.04445,-0.237067 Q 1.377336,78.734466 1.3032525,78.650505 1.2341079,78.566543 1.1402688,78.497399 1.0464297,78.428254 0.9476517,78.35911 0.834057,78.280087 0.7105845,78.191187 0.587112,78.102287 0.4833951,77.983753 0.3846171,77.86522 0.3204114,77.707175 0.2562057,77.54913 0.2562057,77.336757 q 0,-0.207433 0.0691446,-0.375356 0.0740835,-0.167923 0.197556,-0.286456 0.1284114,-0.118534 0.3012729,-0.18274 0.1778004,-0.06421 0.3802953,-0.06421 0.197556,0 0.3654786,0.04939 0.1679226,0.04939 0.2815173,0.118533 L 1.7131812,76.94658 q -0.1037169,-0.06914 -0.2271894,-0.103717 -0.1185336,-0.03951 -0.2518839,-0.03951 -0.2420061,0 -0.3901731,0.13335 -0.1432281,0.128412 -0.1432281,0.380296 0,0.138289 0.0444501,0.242006 0.049389,0.103717 0.1234725,0.187678 0.0790224,0.08396 0.1778004,0.153106 0.1037169,0.06914 0.2173116,0.143228 0.1135947,0.07408 0.2321283,0.162984 0.1185336,0.0889 0.2123727,0.207434 0.098778,0.113594 0.1580448,0.271639 0.064206,0.153106 0.064206,0.365479 0,0.192617 -0.059267,0.365478 -0.059267,0.172862 -0.1876782,0.306212 -0.1234725,0.128411 -0.3160896,0.207434 -0.1876782,0.07408 -0.444501,0.07408 -0.2370672,0 -0.4148676,-0.05433 Q 0.3302892,79.895108 0.192,79.806207 l 0.1382892,-0.3556 q 0.1284114,0.07902 0.2617617,0.128411 0.1382892,0.04445 0.3160896,0.04445 z"
         id="path6862" />
      <path
         d="m 2.4589533,76.556411 q 0.345723,-0.08396 0.6766293,-0.08396 0.2568228,0 0.4642566,0.06421 0.2123727,0.05927 0.3605397,0.192617 0.1531059,0.128411 0.2321283,0.335845 0.083961,0.207434 0.083961,0.498829 0,0.296334 -0.083961,0.508706 -0.083961,0.207434 -0.2370672,0.340785 -0.1531059,0.128411 -0.3704175,0.187678 -0.2123727,0.05927 -0.4741344,0.05927 H 2.9034543 v 1.269297 h -0.444501 z m 0.444501,1.713798 h 0.1778004 q 0.1679226,0 0.3012729,-0.03457 0.1382892,-0.03951 0.2321283,-0.123472 0.093839,-0.08396 0.1432281,-0.217312 0.049389,-0.13335 0.049389,-0.330906 0,-0.197556 -0.049389,-0.330907 -0.049389,-0.138289 -0.1382892,-0.217311 -0.083961,-0.08396 -0.2074338,-0.118534 -0.1234725,-0.03457 -0.2716395,-0.03457 -0.1284114,0 -0.2370672,0.01482 z"
         id="path6864" />
      <path
         d="M 6.380443,79.549385 V 79.92968 H 4.8543229 v -3.422658 h 0.444501 v 3.042363 z"
         id="path6866" />
      <path
         d="m 6.9138432,76.507022 h 0.444501 v 3.422658 h -0.444501 z"
         id="path6868" />
      <path
         d="m 9.8080357,76.507022 v 0.380295 H 9.0474451 V 79.92968 H 8.6029441 V 76.887317 H 7.8423535 v -0.380295 z"
         id="path6870" />
    </g>
    <g
       aria-label="CLK1"
       id="text448"
       style="display:inline;font-size:4.9389px;font-family:'Ubuntu Condensed';-inkscape-font-specification:'Ubuntu Condensed, ';fill:#0000ff;stroke:#000000;stroke-width:0;stroke-opacity:0">
      <path
         d="m 2.4746028,79.089762 q -0.6025458,0 -0.9235743,-0.44944 Q 1.23,78.190882 1.23,77.252491 q 0,-0.479073 0.0889,-0.809979 0.093839,-0.330907 0.2568228,-0.538341 0.1629837,-0.207433 0.3852342,-0.296334 0.2222505,-0.09384 0.4840122,-0.09384 0.2173116,0 0.4049898,0.05927 0.1876782,0.05433 0.3062118,0.138289 l -0.1333503,0.370418 q -0.1185336,-0.07902 -0.2568228,-0.128412 -0.1333503,-0.04939 -0.3111507,-0.04939 -0.395112,0 -0.5729124,0.330907 -0.1778004,0.325967 -0.1778004,1.017413 0,0.696385 0.1876782,1.071741 0.1876782,0.375357 0.6124236,0.375357 0.2024949,0 0.3259674,-0.04939 0.1284114,-0.04939 0.246945,-0.128412 l 0.1234725,0.350662 q -0.1135947,0.0889 -0.3012729,0.153106 -0.1827393,0.06421 -0.4247454,0.06421 z"
         style="fill:#666666"
         id="path1132" />
      <path
         d="m 5.2156915,78.635383 v 0.380295 H 3.6895714 v -3.422657 h 0.444501 v 3.042362 z"
         style="fill:#666666"
         id="path1134" />
      <path
         d="m 7.7048965,75.593021 q -0.1086558,0.167922 -0.246945,0.370417 -0.1333503,0.202495 -0.2765784,0.419807 -0.1432281,0.212372 -0.2913951,0.419806 -0.1432281,0.207434 -0.2765784,0.385234 0.148167,0.148167 0.3210285,0.375357 0.1728615,0.22225 0.3407841,0.474134 0.1679226,0.246945 0.3160896,0.503768 0.148167,0.256823 0.2370672,0.474134 H 7.3295401 Q 7.2258232,78.788489 7.087534,78.551422 6.9541837,78.314355 6.8010778,78.097043 6.6529108,77.874793 6.494866,77.687114 6.3417601,77.499436 6.1935931,77.371025 v 1.644653 h -0.444501 v -3.422657 h 0.444501 v 1.511303 Q 6.3220045,76.94134 6.4652326,76.733907 6.6084607,76.526473 6.7467499,76.319039 6.889978,76.111605 7.0134505,75.923927 7.136923,75.73131 7.2208843,75.593021 Z"
         style="fill:#666666"
         id="path1136" />
      <path
         d="m 8.1024749,78.22175 q 0.060995,-0.03531 0.1252011,-0.08668 0.067416,-0.05137 0.1284114,-0.10915 0.060996,-0.061 0.11236,-0.121991 0.054575,-0.06421 0.089888,-0.125201 h 0.2118788 v 2.224727 H 8.4941297 V 78.21533 q -0.054575,0.05779 -0.1284114,0.109149 -0.070626,0.05137 -0.1508834,0.09631 z"
         style="font-size:65%;baseline-shift:sub;fill:#666666"
         id="path1138" />
    </g>
    <g
       aria-label="CLK2"
       id="text1128"
       style="display:inline;font-size:4.9389px;font-family:'Ubuntu Condensed';-inkscape-font-specification:'Ubuntu Condensed, ';fill:#666666;stroke:#000000;stroke-width:0;stroke-opacity:0;fill-opacity:1">
      <path
         d="m 52.374603,79.089762 q -0.602546,0 -0.923575,-0.44944 Q 51.13,78.190882 51.13,77.252491 q 0,-0.479073 0.0889,-0.809979 0.09384,-0.330907 0.256823,-0.538341 0.162983,-0.207433 0.385234,-0.296334 0.22225,-0.09384 0.484012,-0.09384 0.217312,0 0.40499,0.05927 0.187678,0.05433 0.306212,0.138289 l -0.133351,0.370418 q -0.118533,-0.07902 -0.256822,-0.128412 -0.133351,-0.04939 -0.311151,-0.04939 -0.395112,0 -0.572912,0.330907 -0.177801,0.325967 -0.177801,1.017413 0,0.696385 0.187678,1.071741 0.187679,0.375357 0.612424,0.375357 0.202495,0 0.325967,-0.04939 0.128412,-0.04939 0.246945,-0.128412 l 0.123473,0.350662 q -0.113595,0.0889 -0.301273,0.153106 -0.182739,0.06421 -0.424745,0.06421 z"
         style="fill:#666666;fill-opacity:1"
         id="path1141" />
      <path
         d="m 55.115691,78.635383 v 0.380295 h -1.52612 v -3.422657 h 0.444501 v 3.042362 z"
         style="fill:#666666;fill-opacity:1"
         id="path1143" />
      <path
         d="m 57.604896,75.593021 q -0.108655,0.167922 -0.246945,0.370417 -0.13335,0.202495 -0.276578,0.419807 -0.143228,0.212372 -0.291395,0.419806 -0.143228,0.207434 -0.276579,0.385234 0.148167,0.148167 0.321029,0.375357 0.172861,0.22225 0.340784,0.474134 0.167923,0.246945 0.31609,0.503768 0.148167,0.256823 0.237067,0.474134 H 57.22954 q -0.103717,-0.227189 -0.242006,-0.464256 -0.13335,-0.237067 -0.286456,-0.454379 -0.148167,-0.22225 -0.306212,-0.409929 -0.153106,-0.187678 -0.301273,-0.316089 v 1.644653 h -0.444501 v -3.422657 h 0.444501 v 1.511303 q 0.128411,-0.162984 0.271639,-0.370417 0.143229,-0.207434 0.281518,-0.414868 0.143228,-0.207434 0.2667,-0.395112 0.123473,-0.192617 0.207434,-0.330906 z"
         style="fill:#666666;fill-opacity:1"
         id="path1145" />
      <path
         d="m 57.919007,77.916773 q 0.189407,-0.189407 0.462281,-0.189407 0.260033,0 0.398076,0.138043 0.138042,0.134832 0.138042,0.423757 0,0.134832 -0.04494,0.256823 -0.04494,0.121991 -0.11236,0.237561 -0.06742,0.11236 -0.147673,0.22472 -0.08026,0.11236 -0.154094,0.231141 -0.07384,0.11557 -0.128411,0.243981 -0.05457,0.125201 -0.06742,0.269664 h 0.699842 v 0.250402 h -0.995188 v -0.06099 q 0,-0.215089 0.04815,-0.382024 0.05136,-0.166935 0.121991,-0.301767 0.07384,-0.134832 0.160514,-0.250402 0.08668,-0.11557 0.157304,-0.22472 0.07384,-0.11236 0.121991,-0.22793 0.05136,-0.118781 0.05136,-0.260033 0,-0.170145 -0.06742,-0.243982 -0.06742,-0.07705 -0.202248,-0.07705 -0.0931,0 -0.170145,0.03852 -0.07384,0.03531 -0.134832,0.0931 z"
         style="font-size:65%;baseline-shift:sub;fill:#666666;fill-opacity:1"
         id="path1147" />
    </g>
    <rect
       style="fill:#e8e5e0;fill-opacity:0;stroke:#666666;stroke-width:0.101614;stroke-dasharray:none;stroke-opacity:1"
       id="rect399"
       width="39.898388"
       height="39.999386"
       x="10.450807"
       y="69.949806" />
    <rect
       style="fill:#666666;fill-opacity:1;stroke:#000000;stroke-width:0"
       id="rect1990"
       width="10.099999"
       height="16.103231"
       x="0.40000051"
       y="104.01064" />
    <rect
       style="fill:#666666;fill-opacity:1;stroke:#000000;stroke-width:0"
       id="rect2044"
       width="10.099999"
       height="16.103231"
       x="50.299999"
       y="104.01067" />
    <g
       aria-label="CLK1"
       id="g2454"
       style="font-size:4.9389px;font-family:'Ubuntu Condensed';-inkscape-font-specification:'Ubuntu Condensed, ';display:inline;fill:#e8e5e0;stroke:#000000;stroke-width:0;stroke-opacity:0;fill-opacity:1"
       transform="translate(0,30.000004)">
      <path
         d="m 2.4746028,79.089762 q -0.6025458,0 -0.9235743,-0.44944 Q 1.23,78.190882 1.23,77.252491 q 0,-0.479073 0.0889,-0.809979 0.093839,-0.330907 0.2568228,-0.538341 0.1629837,-0.207433 0.3852342,-0.296334 0.2222505,-0.09384 0.4840122,-0.09384 0.2173116,0 0.4049898,0.05927 0.1876782,0.05433 0.3062118,0.138289 l -0.1333503,0.370418 q -0.1185336,-0.07902 -0.2568228,-0.128412 -0.1333503,-0.04939 -0.3111507,-0.04939 -0.395112,0 -0.5729124,0.330907 -0.1778004,0.325967 -0.1778004,1.017413 0,0.696385 0.1876782,1.071741 0.1876782,0.375357 0.6124236,0.375357 0.2024949,0 0.3259674,-0.04939 0.1284114,-0.04939 0.246945,-0.128412 l 0.1234725,0.350662 q -0.1135947,0.0889 -0.3012729,0.153106 -0.1827393,0.06421 -0.4247454,0.06421 z"
         style="fill:#e8e5e0;fill-opacity:1"
         id="path2446" />
      <path
         d="m 5.2156915,78.635383 v 0.380295 H 3.6895714 v -3.422657 h 0.444501 v 3.042362 z"
         style="fill:#e8e5e0;fill-opacity:1"
         id="path2448" />
      <path
         d="m 7.7048965,75.593021 q -0.1086558,0.167922 -0.246945,0.370417 -0.1333503,0.202495 -0.2765784,0.419807 -0.1432281,0.212372 -0.2913951,0.419806 -0.1432281,0.207434 -0.2765784,0.385234 0.148167,0.148167 0.3210285,0.375357 0.1728615,0.22225 0.3407841,0.474134 0.1679226,0.246945 0.3160896,0.503768 0.148167,0.256823 0.2370672,0.474134 H 7.3295401 Q 7.2258232,78.788489 7.087534,78.551422 6.9541837,78.314355 6.8010778,78.097043 6.6529108,77.874793 6.494866,77.687114 6.3417601,77.499436 6.1935931,77.371025 v 1.644653 h -0.444501 v -3.422657 h 0.444501 v 1.511303 Q 6.3220045,76.94134 6.4652326,76.733907 6.6084607,76.526473 6.7467499,76.319039 6.889978,76.111605 7.0134505,75.923927 7.136923,75.73131 7.2208843,75.593021 Z"
         style="fill:#e8e5e0;fill-opacity:1"
         id="path2450" />
      <path
         d="m 8.1024749,75.222018 q 0.060995,-0.03531 0.1252011,-0.08668 0.067416,-0.05137 0.1284114,-0.10915 0.060996,-0.061 0.11236,-0.121991 0.054575,-0.06421 0.089888,-0.125201 h 0.2118788 v 2.224727 H 8.4941297 v -1.788126 q -0.054575,0.05779 -0.1284114,0.109149 -0.070626,0.05137 -0.1508834,0.09631 z"
         style="font-size:65%;baseline-shift:sub;fill:#e8e5e0;fill-opacity:1"
         id="path2452" />
    </g>
    <g
       aria-label="CLK2"
       id="g2602"
       style="font-size:4.9389px;font-family:'Ubuntu Condensed';-inkscape-font-specification:'Ubuntu Condensed, ';display:inline;fill:#e8e5e0;fill-opacity:1;stroke:#000000;stroke-width:0;stroke-opacity:0"
       transform="translate(0,30.000004)">
      <path
         d="m 52.374603,79.089762 q -0.602546,0 -0.923575,-0.44944 Q 51.13,78.190882 51.13,77.252491 q 0,-0.479073 0.0889,-0.809979 0.09384,-0.330907 0.256823,-0.538341 0.162983,-0.207433 0.385234,-0.296334 0.22225,-0.09384 0.484012,-0.09384 0.217312,0 0.40499,0.05927 0.187678,0.05433 0.306212,0.138289 l -0.133351,0.370418 q -0.118533,-0.07902 -0.256822,-0.128412 -0.133351,-0.04939 -0.311151,-0.04939 -0.395112,0 -0.572912,0.330907 -0.177801,0.325967 -0.177801,1.017413 0,0.696385 0.187678,1.071741 0.187679,0.375357 0.612424,0.375357 0.202495,0 0.325967,-0.04939 0.128412,-0.04939 0.246945,-0.128412 l 0.123473,0.350662 q -0.113595,0.0889 -0.301273,0.153106 -0.182739,0.06421 -0.424745,0.06421 z"
         style="fill:#e8e5e0;fill-opacity:1"
         id="path2594" />
      <path
         d="m 55.115691,78.635383 v 0.380295 h -1.52612 v -3.422657 h 0.444501 v 3.042362 z"
         style="fill:#e8e5e0;fill-opacity:1"
         id="path2596" />
      <path
         d="m 57.604896,75.593021 q -0.108655,0.167922 -0.246945,0.370417 -0.13335,0.202495 -0.276578,0.419807 -0.143228,0.212372 -0.291395,0.419806 -0.143228,0.207434 -0.276579,0.385234 0.148167,0.148167 0.321029,0.375357 0.172861,0.22225 0.340784,0.474134 0.167923,0.246945 0.31609,0.503768 0.148167,0.256823 0.237067,0.474134 H 57.22954 q -0.103717,-0.227189 -0.242006,-0.464256 -0.13335,-0.237067 -0.286456,-0.454379 -0.148167,-0.22225 -0.306212,-0.409929 -0.153106,-0.187678 -0.301273,-0.316089 v 1.644653 h -0.444501 v -3.422657 h 0.444501 v 1.511303 q 0.128411,-0.162984 0.271639,-0.370417 0.143229,-0.207434 0.281518,-0.414868 0.143228,-0.207434 0.2667,-0.395112 0.123473,-0.192617 0.207434,-0.330906 z"
         style="fill:#e8e5e0;fill-opacity:1"
         id="path2598" />
      <path
         d="m 57.919007,74.916403 q 0.189407,-0.189407 0.462281,-0.189407 0.260033,0 0.398076,0.138043 0.138042,0.134832 0.138042,0.423757 0,0.134832 -0.04494,0.256823 -0.04494,0.121991 -0.11236,0.237561 -0.06742,0.11236 -0.147673,0.22472 -0.08026,0.11236 -0.154094,0.231141 -0.07384,0.11557 -0.128411,0.243981 -0.05457,0.125201 -0.06742,0.269664 h 0.699842 v 0.250402 h -0.995188 v -0.06099 q 0,-0.215089 0.04815,-0.382024 0.05136,-0.166935 0.121991,-0.301767 0.07384,-0.134832 0.160514,-0.250402 0.08668,-0.11557 0.157304,-0.22472 0.07384,-0.11236 0.121991,-0.22793 0.05136,-0.118781 0.05136,-0.260033 0,-0.170145 -0.06742,-0.243982 -0.06742,-0.07705 -0.202248,-0.07705 -0.0931,0 -0.170145,0.03852 -0.07384,0.03531 -0.134832,0.0931 z"
         style="font-size:65%;baseline-shift:sub;fill:#e8e5e0;fill-opacity:1"
         id="path2600" />
    </g>
  </g>
  <g
     inkscape:groupmode="layer"
     id="layer2"
     inkscape:label="components"
     style="display:none">
    <circle
       style="fill:#ff00ff;fill-opacity:1;stroke-width:0;stroke-dasharray:none"
       id="x0"
       cx="15.4"
       cy="25"
       r="3"
       inkscape:label="x0" />
    <circle
       style="fill:#00ff00;fill-opacity:1;stroke-width:0;stroke-dasharray:none"
       id="gate1"
       cx="5.4000001"
       cy="84"
       r="3"
       inkscape:label="gate1" />
    <circle
       style="fill:#ff00ff;fill-opacity:1;stroke-width:0;stroke-dasharray:none"
       id="x1"
       cx="25.4"
       cy="25"
       r="3"
       inkscape:label="x1" />
    <circle
       style="fill:#ff00ff;fill-opacity:1;stroke-width:0;stroke-dasharray:none"
       id="x2"
       cx="35.400002"
       cy="25"
       r="3"
       inkscape:label="x2" />
    <circle
       style="fill:#ff00ff;fill-opacity:1;stroke-width:0;stroke-dasharray:none"
       id="x3"
       cx="45.400002"
       cy="25"
       r="3"
       inkscape:label="x3" />
    <circle
       style="fill:#ff00ff;fill-opacity:1;stroke-width:0;stroke-dasharray:none"
       id="x4"
       cx="15.4"
       cy="35"
       r="3"
       inkscape:label="x4" />
    <circle
       style="fill:#ff00ff;fill-opacity:1;stroke-width:0;stroke-dasharray:none"
       id="x5"
       cx="25.4"
       cy="35"
       r="3"
       inkscape:label="x5" />
    <circle
       style="fill:#ff00ff;fill-opacity:1;stroke-width:0;stroke-dasharray:none"
       id="x6"
       cx="35.400002"
       cy="35"
       r="3"
       inkscape:label="x6" />
    <circle
       style="fill:#ff00ff;fill-opacity:1;stroke-width:0;stroke-dasharray:none"
       id="x7"
       cx="45.400002"
       cy="35"
       r="3"
       inkscape:label="x7" />
    <circle
       style="fill:#ff00ff;fill-opacity:1;stroke-width:0;stroke-dasharray:none"
       id="x8"
       cx="15.4"
       cy="45"
       r="3"
       inkscape:label="x8" />
    <circle
       style="fill:#ff00ff;fill-opacity:1;stroke-width:0;stroke-dasharray:none"
       id="x9"
       cx="25.4"
       cy="45"
       r="3"
       inkscape:label="x9" />
    <circle
       style="fill:#ff00ff;fill-opacity:1;stroke-width:0;stroke-dasharray:none"
       id="x10"
       cx="35.400002"
       cy="45"
       r="3"
       inkscape:label="x10" />
    <circle
       style="fill:#ff00ff;fill-opacity:1;stroke-width:0;stroke-dasharray:none"
       id="x11"
       cx="45.400002"
       cy="45"
       r="3"
       inkscape:label="x11" />
    <circle
       style="fill:#ff00ff;fill-opacity:1;stroke-width:0;stroke-dasharray:none"
       id="x12"
       cx="15.4"
       cy="55"
       r="3"
       inkscape:label="x12" />
    <circle
       style="fill:#ff00ff;fill-opacity:1;stroke-width:0;stroke-dasharray:none"
       id="x13"
       cx="25.4"
       cy="55"
       r="3"
       inkscape:label="x13" />
    <circle
       style="fill:#ff00ff;fill-opacity:1;stroke-width:0;stroke-dasharray:none"
       id="x14"
       cx="35.400002"
       cy="55"
       r="3"
       inkscape:label="x14" />
    <circle
       style="fill:#ff00ff;fill-opacity:1;stroke-width:0;stroke-dasharray:none"
       id="x15"
       cx="45.400002"
       cy="55"
       r="3"
       inkscape:label="x15" />
    <circle
       style="fill:#0000ff;fill-opacity:1;stroke-width:0;stroke-dasharray:none"
       id="cv0"
       cx="15.4"
       cy="15"
       r="3"
       inkscape:label="cv0" />
    <circle
       style="fill:#0000ff;fill-opacity:1;stroke-width:0;stroke-dasharray:none"
       id="cv1"
       cx="25.4"
       cy="15"
       r="3"
       inkscape:label="cv1" />
    <circle
       style="fill:#0000ff;fill-opacity:1;stroke-width:0;stroke-dasharray:none"
       id="cv2"
       cx="35.400002"
       cy="15"
       r="3"
       inkscape:label="cv2" />
    <circle
       style="fill:#0000ff;fill-opacity:1;stroke-width:0;stroke-dasharray:none"
       id="cv3"
       cx="45.400002"
       cy="15"
       r="3"
       inkscape:label="cv3" />
    <circle
       style="fill:#0000ff;fill-opacity:1;stroke-width:0;stroke-dasharray:none"
       id="cv4"
       cx="5.4000001"
       cy="25"
       r="3"
       inkscape:label="cv4" />
    <circle
       style="fill:#0000ff;fill-opacity:1;stroke-width:0;stroke-dasharray:none"
       id="cv5"
       cx="5.4000001"
       cy="35"
       r="3"
       inkscape:label="cv5" />
    <circle
       style="fill:#0000ff;fill-opacity:1;stroke-width:0;stroke-dasharray:none"
       id="cv6"
       cx="5.4000001"
       cy="45"
       r="3"
       inkscape:label="cv6" />
    <circle
       style="fill:#0000ff;fill-opacity:1;stroke-width:0;stroke-dasharray:none"
       id="cv7"
       cx="5.4000001"
       cy="55"
       r="3"
       inkscape:label="cv7" />
    <circle
       style="fill:#0000ff;fill-opacity:1;stroke-width:0;stroke-dasharray:none"
       id="g0"
       cx="15.4"
       cy="65"
       r="3"
       inkscape:label="g0" />
    <circle
       style="fill:#0000ff;fill-opacity:1;stroke-width:0;stroke-dasharray:none"
       id="g1"
       cx="25.4"
       cy="65"
       r="3"
       inkscape:label="g1" />
    <circle
       style="fill:#0000ff;fill-opacity:1;stroke-width:0;stroke-dasharray:none"
       id="g2"
       cx="35.400002"
       cy="65"
       r="3"
       inkscape:label="g2" />
    <circle
       style="fill:#0000ff;fill-opacity:1;stroke-width:0;stroke-dasharray:none"
       id="g3"
       cx="45.400002"
       cy="65"
       r="3"
       inkscape:label="g3" />
    <circle
       style="fill:#0000ff;fill-opacity:1;stroke-width:0;stroke-dasharray:none"
       id="g4"
       cx="55.400002"
       cy="25"
       r="3"
       inkscape:label="g4" />
    <circle
       style="fill:#0000ff;fill-opacity:1;stroke-width:0;stroke-dasharray:none"
       id="g5"
       cx="55.400002"
       cy="35"
       r="3"
       inkscape:label="g5" />
    <circle
       style="fill:#0000ff;fill-opacity:1;stroke-width:0;stroke-dasharray:none"
       id="g6"
       cx="55.400002"
       cy="45"
       r="3"
       inkscape:label="g6" />
    <circle
       style="fill:#0000ff;fill-opacity:1;stroke-width:0;stroke-dasharray:none"
       id="g7"
       cx="55.400002"
       cy="55"
       r="3"
       inkscape:label="g7" />
    <circle
       style="fill:#ff0000;fill-opacity:1;stroke-width:0;stroke-dasharray:none"
       id="a0"
       cx="15.4"
       cy="75"
       inkscape:label="a0"
       r="3" />
    <circle
       style="fill:#ff0000;fill-opacity:1;stroke-width:0;stroke-dasharray:none"
       id="a1"
       cx="25.4"
       cy="75"
       inkscape:label="a1"
       r="3" />
    <circle
       style="fill:#ff0000;fill-opacity:1;stroke-width:0;stroke-dasharray:none"
       id="a2"
       cx="35.400002"
       cy="75"
       inkscape:label="a2"
       r="3" />
    <circle
       style="fill:#ff0000;fill-opacity:1;stroke-width:0;stroke-dasharray:none"
       id="a3"
       cx="45.400002"
       cy="75"
       inkscape:label="a3"
       r="3" />
    <circle
       style="fill:#ff0000;fill-opacity:1;stroke-width:0;stroke-dasharray:none"
       id="a4"
       cx="15.4"
       cy="85"
       inkscape:label="a4"
       r="3" />
    <circle
       style="fill:#ff0000;fill-opacity:1;stroke-width:0;stroke-dasharray:none"
       id="a5"
       cx="25.4"
       cy="85"
       inkscape:label="a5"
       r="3" />
    <circle
       style="fill:#ff0000;fill-opacity:1;stroke-width:0;stroke-dasharray:none"
       id="a6"
       cx="35.400002"
       cy="85"
       inkscape:label="a6"
       r="3" />
    <circle
       style="fill:#ff0000;fill-opacity:1;stroke-width:0;stroke-dasharray:none"
       id="a7"
       cx="45.400002"
       cy="85"
       inkscape:label="a7"
       r="3" />
    <circle
       style="fill:#ff0000;fill-opacity:1;stroke-width:0;stroke-dasharray:none"
       id="a8"
       cx="15.4"
       cy="95"
       inkscape:label="a8"
       r="3" />
    <circle
       style="fill:#ff0000;fill-opacity:1;stroke-width:0;stroke-dasharray:none"
       id="a9"
       cx="25.4"
       cy="95"
       inkscape:label="a9"
       r="3" />
    <circle
       style="fill:#ff0000;fill-opacity:1;stroke-width:0;stroke-dasharray:none"
       id="a10"
       cx="35.400002"
       cy="95"
       inkscape:label="a10"
       r="3" />
    <circle
       style="fill:#ff0000;fill-opacity:1;stroke-width:0;stroke-dasharray:none"
       id="a11"
       cx="45.400002"
       cy="95"
       inkscape:label="a11"
       r="3" />
    <circle
       style="fill:#ff0000;fill-opacity:1;stroke-width:0;stroke-dasharray:none"
       id="a12"
       cx="15.4"
       cy="105"
       inkscape:label="a12"
       r="3" />
    <circle
       style="fill:#ff0000;fill-opacity:1;stroke-width:0;stroke-dasharray:none"
       id="a13"
       cx="25.4"
       cy="105"
       inkscape:label="a13"
       r="3" />
    <circle
       style="fill:#ff0000;fill-opacity:1;stroke-width:0;stroke-dasharray:none"
       id="a14"
       cx="35.400002"
       cy="105"
       inkscape:label="a14"
       r="3" />
    <circle
       style="fill:#ff0000;fill-opacity:1;stroke-width:0;stroke-dasharray:none"
       id="a15"
       cx="45.400002"
       cy="105"
       inkscape:label="a15"
       r="3" />
    <circle
       style="fill:#ff0000;fill-opacity:1;stroke-width:0;stroke-dasharray:none"
       id="not1"
       cx="5.4000001"
       cy="99"
       inkscape:label="not1"
       r="3" />
    <circle
       style="fill:#ff0000;fill-opacity:1;stroke-width:0;stroke-dasharray:none"
       id="not2"
       cx="55.400002"
       cy="99"
       inkscape:label="not2"
       r="3" />
    <circle
       style="fill:#ff0000;fill-opacity:1;stroke-width:0;stroke-dasharray:none"
       id="split"
       cx="36.584"
       cy="115"
       inkscape:label="split"
       r="3" />
    <circle
       style="fill:#00ff00;fill-opacity:1;stroke-width:0;stroke-dasharray:none"
       id="gate2"
       cx="54.900002"
       cy="84"
       r="3"
       inkscape:label="gate2" />
    <circle
       style="fill:#00ff00;fill-opacity:1;stroke-width:0;stroke-dasharray:none"
       id="gate1_out"
       cx="5.4000001"
       cy="114"
       r="3"
       inkscape:label="gate1_out" />
    <circle
       style="fill:#00ff00;fill-opacity:1;stroke-width:0;stroke-dasharray:none"
       id="gate2_out"
       cx="54.900002"
       cy="114"
       r="3"
       inkscape:label="gate2_out" />
  </g>
</svg>
